<?xml version="1.0" encoding="UTF-8" standalone="no"?>
<!DOCTYPE svg PUBLIC "-//W3C//DTD SVG 1.1//EN"
 "http://www.w3.org/Graphics/SVG/1.1/DTD/svg11.dtd">
<!-- Generated by graphviz version 2.43.0 (0)
 -->
<!-- Title: tracking::math::SquareMatrix&lt; ValueType_, Size_, IsRowMajor_ &gt; Pages: 1 -->
<svg width="352pt" height="936pt"
 viewBox="0.00 0.00 352.00 936.00" xmlns="http://www.w3.org/2000/svg" xmlns:xlink="http://www.w3.org/1999/xlink">
<g id="graph0" class="graph" transform="scale(1 1) rotate(0) translate(4 932)">
<title>tracking::math::SquareMatrix&lt; ValueType_, Size_, IsRowMajor_ &gt;</title>
<!-- Node1 -->
<g id="Node000001" class="node">
<title>Node1</title>
<g id="a_Node000001"><a xlink:title="A square matrix specialization of the Matrix class providing additional operations specific to square...">
<polygon fill="#999999" stroke="transparent" points="265,-266 77,-266 77,0 265,0 265,-266"/>
<text text-anchor="start" x="82" y="-254" font-family="Helvetica,sans-Serif" font-size="10.00">tracking::math::SquareMatrix</text>
<text text-anchor="start" x="82" y="-243" font-family="Helvetica,sans-Serif" font-size="10.00">&lt; ValueType_, Size_, IsRowMajor_ &gt;</text>
<text text-anchor="start" x="169" y="-228" font-family="Helvetica,sans-Serif" font-size="10.00"> </text>
<text text-anchor="start" x="89" y="-213" font-family="Helvetica,sans-Serif" font-size="10.00">+</text>
<text text-anchor="start" x="110" y="-213" font-family="Helvetica,sans-Serif" font-size="10.00">SquareMatrix()</text>
<text text-anchor="start" x="89" y="-198" font-family="Helvetica,sans-Serif" font-size="10.00">+</text>
<text text-anchor="start" x="110" y="-198" font-family="Helvetica,sans-Serif" font-size="10.00">SquareMatrix()</text>
<text text-anchor="start" x="89" y="-183" font-family="Helvetica,sans-Serif" font-size="10.00">+</text>
<text text-anchor="start" x="110" y="-183" font-family="Helvetica,sans-Serif" font-size="10.00">SquareMatrix()</text>
<text text-anchor="start" x="89" y="-168" font-family="Helvetica,sans-Serif" font-size="10.00">+</text>
<text text-anchor="start" x="110" y="-168" font-family="Helvetica,sans-Serif" font-size="10.00">setIdentity()</text>
<text text-anchor="start" x="89" y="-153" font-family="Helvetica,sans-Serif" font-size="10.00">+</text>
<text text-anchor="start" x="110" y="-153" font-family="Helvetica,sans-Serif" font-size="10.00">transpose()</text>
<text text-anchor="start" x="89" y="-138" font-family="Helvetica,sans-Serif" font-size="10.00">+</text>
<text text-anchor="start" x="110" y="-138" font-family="Helvetica,sans-Serif" font-size="10.00">transpose()</text>
<text text-anchor="start" x="89" y="-123" font-family="Helvetica,sans-Serif" font-size="10.00">+</text>
<text text-anchor="start" x="110" y="-123" font-family="Helvetica,sans-Serif" font-size="10.00">trace()</text>
<text text-anchor="start" x="89" y="-108" font-family="Helvetica,sans-Serif" font-size="10.00">+</text>
<text text-anchor="start" x="110" y="-108" font-family="Helvetica,sans-Serif" font-size="10.00">determinant()</text>
<text text-anchor="start" x="89" y="-93" font-family="Helvetica,sans-Serif" font-size="10.00">+</text>
<text text-anchor="start" x="110" y="-93" font-family="Helvetica,sans-Serif" font-size="10.00">householderQR()</text>
<text text-anchor="start" x="89" y="-78" font-family="Helvetica,sans-Serif" font-size="10.00">+</text>
<text text-anchor="start" x="110" y="-78" font-family="Helvetica,sans-Serif" font-size="10.00">qrSolve()</text>
<text text-anchor="start" x="110" y="-63" font-family="Helvetica,sans-Serif" font-size="10.00">and 14 more...</text>
<text text-anchor="start" x="89" y="-48" font-family="Helvetica,sans-Serif" font-size="10.00">+</text>
<text text-anchor="start" x="110" y="-48" font-family="Helvetica,sans-Serif" font-size="10.00">Identity()</text>
<text text-anchor="start" x="89" y="-33" font-family="Helvetica,sans-Serif" font-size="10.00">+</text>
<text text-anchor="start" x="110" y="-33" font-family="Helvetica,sans-Serif" font-size="10.00">FromList()</text>
<text text-anchor="start" x="91.5" y="-18" font-family="Helvetica,sans-Serif" font-size="10.00">&#45;</text>
<text text-anchor="start" x="110" y="-18" font-family="Helvetica,sans-Serif" font-size="10.00">hasStrictlyPositiveDiagonal</text>
<text text-anchor="start" x="110" y="-7" font-family="Helvetica,sans-Serif" font-size="10.00">Elems()</text>
<polygon fill="#666666" stroke="#666666" points="77,-238 77,-238 265,-238 265,-238 77,-238"/>
<polygon fill="#666666" stroke="#666666" points="77,-223 77,-223 265,-223 265,-223 77,-223"/>
<polygon fill="none" stroke="#666666" points="77,0 77,-266 265,-266 265,0 77,0"/>
</a>
</g>
</g>
<!-- Node2 -->
<g id="Node000002" class="node">
<title>Node2</title>
<g id="a_Node000002"><a xlink:href="classtracking_1_1math_1_1Matrix.html" target="_top" xlink:title="Compliant to AUTOSAR C++14, A8&#45;4&#45;8: Output parameters shall not be used, making use of RVO and NRVO.">
<polygon fill="white" stroke="transparent" points="241.5,-725 100.5,-725 100.5,-302 241.5,-302 241.5,-725"/>
<text text-anchor="start" x="106" y="-712.5" font-family="Helvetica,sans-Serif" font-size="10.00">tracking::math::Matrix</text>
<text text-anchor="start" x="106" y="-701.5" font-family="Helvetica,sans-Serif" font-size="10.00">&lt; ValueType_, Rows_, Cols</text>
<text text-anchor="start" x="129" y="-690.5" font-family="Helvetica,sans-Serif" font-size="10.00">_, IsRowMajor_ &gt;</text>
<text text-anchor="start" x="105.5" y="-675.5" font-family="Helvetica,sans-Serif" font-size="10.00">+</text>
<text text-anchor="start" x="119" y="-675.5" font-family="Helvetica,sans-Serif" font-size="10.00">Rows</text>
<text text-anchor="start" x="105.5" y="-660.5" font-family="Helvetica,sans-Serif" font-size="10.00">+</text>
<text text-anchor="start" x="119" y="-660.5" font-family="Helvetica,sans-Serif" font-size="10.00">Cols</text>
<text text-anchor="start" x="105.5" y="-645.5" font-family="Helvetica,sans-Serif" font-size="10.00">+</text>
<text text-anchor="start" x="119" y="-645.5" font-family="Helvetica,sans-Serif" font-size="10.00">IsRowMajor</text>
<text text-anchor="start" x="105.5" y="-630.5" font-family="Helvetica,sans-Serif" font-size="10.00">#</text>
<text text-anchor="start" x="119" y="-630.5" font-family="Helvetica,sans-Serif" font-size="10.00">RowsInMem</text>
<text text-anchor="start" x="105.5" y="-615.5" font-family="Helvetica,sans-Serif" font-size="10.00">#</text>
<text text-anchor="start" x="119" y="-615.5" font-family="Helvetica,sans-Serif" font-size="10.00">ColsInMem</text>
<text text-anchor="start" x="108" y="-600.5" font-family="Helvetica,sans-Serif" font-size="10.00">&#45;</text>
<text text-anchor="start" x="119" y="-600.5" font-family="Helvetica,sans-Serif" font-size="10.00">_data</text>
<text text-anchor="start" x="105.5" y="-585.5" font-family="Helvetica,sans-Serif" font-size="10.00">+</text>
<text text-anchor="start" x="119" y="-585.5" font-family="Helvetica,sans-Serif" font-size="10.00">Matrix()</text>
<text text-anchor="start" x="105.5" y="-570.5" font-family="Helvetica,sans-Serif" font-size="10.00">+</text>
<text text-anchor="start" x="119" y="-570.5" font-family="Helvetica,sans-Serif" font-size="10.00">Matrix()</text>
<text text-anchor="start" x="105.5" y="-555.5" font-family="Helvetica,sans-Serif" font-size="10.00">+</text>
<text text-anchor="start" x="119" y="-555.5" font-family="Helvetica,sans-Serif" font-size="10.00">Matrix()</text>
<text text-anchor="start" x="105.5" y="-540.5" font-family="Helvetica,sans-Serif" font-size="10.00">+</text>
<text text-anchor="start" x="119" y="-540.5" font-family="Helvetica,sans-Serif" font-size="10.00">operator=()</text>
<text text-anchor="start" x="105.5" y="-525.5" font-family="Helvetica,sans-Serif" font-size="10.00">+</text>
<text text-anchor="start" x="119" y="-525.5" font-family="Helvetica,sans-Serif" font-size="10.00">operator=()</text>
<text text-anchor="start" x="105.5" y="-510.5" font-family="Helvetica,sans-Serif" font-size="10.00">+</text>
<text text-anchor="start" x="119" y="-510.5" font-family="Helvetica,sans-Serif" font-size="10.00">~Matrix()</text>
<text text-anchor="start" x="105.5" y="-495.5" font-family="Helvetica,sans-Serif" font-size="10.00">+</text>
<text text-anchor="start" x="119" y="-495.5" font-family="Helvetica,sans-Serif" font-size="10.00">operator()()</text>
<text text-anchor="start" x="105.5" y="-480.5" font-family="Helvetica,sans-Serif" font-size="10.00">+</text>
<text text-anchor="start" x="119" y="-480.5" font-family="Helvetica,sans-Serif" font-size="10.00">operator()()</text>
<text text-anchor="start" x="105.5" y="-465.5" font-family="Helvetica,sans-Serif" font-size="10.00">+</text>
<text text-anchor="start" x="119" y="-465.5" font-family="Helvetica,sans-Serif" font-size="10.00">operator==()</text>
<text text-anchor="start" x="105.5" y="-450.5" font-family="Helvetica,sans-Serif" font-size="10.00">+</text>
<text text-anchor="start" x="119" y="-450.5" font-family="Helvetica,sans-Serif" font-size="10.00">operator!=()</text>
<text text-anchor="start" x="119" y="-435.5" font-family="Helvetica,sans-Serif" font-size="10.00">and 27 more...</text>
<text text-anchor="start" x="105.5" y="-420.5" font-family="Helvetica,sans-Serif" font-size="10.00">+</text>
<text text-anchor="start" x="119" y="-420.5" font-family="Helvetica,sans-Serif" font-size="10.00">Zeros()</text>
<text text-anchor="start" x="105.5" y="-405.5" font-family="Helvetica,sans-Serif" font-size="10.00">+</text>
<text text-anchor="start" x="119" y="-405.5" font-family="Helvetica,sans-Serif" font-size="10.00">Ones()</text>
<text text-anchor="start" x="105.5" y="-390.5" font-family="Helvetica,sans-Serif" font-size="10.00">+</text>
<text text-anchor="start" x="119" y="-390.5" font-family="Helvetica,sans-Serif" font-size="10.00">FromList()</text>
<text text-anchor="start" x="105.5" y="-375.5" font-family="Helvetica,sans-Serif" font-size="10.00">#</text>
<text text-anchor="start" x="119" y="-375.5" font-family="Helvetica,sans-Serif" font-size="10.00">data()</text>
<text text-anchor="start" x="105.5" y="-360.5" font-family="Helvetica,sans-Serif" font-size="10.00">#</text>
<text text-anchor="start" x="119" y="-360.5" font-family="Helvetica,sans-Serif" font-size="10.00">data()</text>
<text text-anchor="start" x="108" y="-345.5" font-family="Helvetica,sans-Serif" font-size="10.00">&#45;</text>
<text text-anchor="start" x="119" y="-345.5" font-family="Helvetica,sans-Serif" font-size="10.00">inplace_div_by_int</text>
<text text-anchor="start" x="119" y="-334.5" font-family="Helvetica,sans-Serif" font-size="10.00">_unsafe()</text>
<text text-anchor="start" x="108" y="-319.5" font-family="Helvetica,sans-Serif" font-size="10.00">&#45;</text>
<text text-anchor="start" x="119" y="-319.5" font-family="Helvetica,sans-Serif" font-size="10.00">inplace_mul_by_inverse</text>
<text text-anchor="start" x="119" y="-308.5" font-family="Helvetica,sans-Serif" font-size="10.00">_factor_unsafe()</text>
<polygon fill="#666666" stroke="#666666" points="101,-685.5 101,-685.5 242,-685.5 242,-685.5 101,-685.5"/>
<polygon fill="#666666" stroke="#666666" points="101,-595.5 101,-595.5 117,-595.5 117,-595.5 101,-595.5"/>
<polygon fill="#666666" stroke="#666666" points="117,-595.5 117,-595.5 242,-595.5 242,-595.5 117,-595.5"/>
<polygon fill="none" stroke="#666666" points="100.5,-302 100.5,-725 241.5,-725 241.5,-302 100.5,-302"/>
</a>
</g>
</g>
<!-- Node2&#45;&gt;Node1 -->
<g id="edge1_Node000001_Node000002" class="edge">
<title>Node2&#45;&gt;Node1</title>
<g id="a_edge1_Node000001_Node000002"><a xlink:title=" ">
<path fill="none" stroke="#63b8ff" d="M171,-291.8C171,-283.18 171,-274.66 171,-266.3"/>
<polygon fill="none" stroke="#63b8ff" points="167.5,-291.94 171,-301.94 174.5,-291.94 167.5,-291.94"/>
</a>
</g>
</g>
<!-- Node3 -->
<g id="Node000003" class="node">
<title>Node3</title>
<g id="a_Node000003"><a xlink:href="structtracking_1_1math_1_1contract_1_1MatrixIntf.html" target="_top" xlink:title=" ">
<polygon fill="white" stroke="transparent" points="235,-832 107,-832 107,-761 235,-761 235,-832"/>
<text text-anchor="start" x="112" y="-819.5" font-family="Helvetica,sans-Serif" font-size="10.00">tracking::math::contract</text>
<text text-anchor="start" x="112" y="-808.5" font-family="Helvetica,sans-Serif" font-size="10.00">::MatrixIntf&lt; ImplType,</text>
<text text-anchor="start" x="136" y="-797.5" font-family="Helvetica,sans-Serif" font-size="10.00"> ClassName &gt;</text>
<text text-anchor="start" x="169" y="-782.5" font-family="Helvetica,sans-Serif" font-size="10.00"> </text>
<text text-anchor="start" x="123.5" y="-767.5" font-family="Helvetica,sans-Serif" font-size="10.00">+</text>
<text text-anchor="start" x="149" y="-767.5" font-family="Helvetica,sans-Serif" font-size="10.00">MatrixIntf()</text>
<polygon fill="#666666" stroke="#666666" points="107,-792.5 107,-792.5 235,-792.5 235,-792.5 107,-792.5"/>
<polygon fill="#666666" stroke="#666666" points="107,-777.5 107,-777.5 235,-777.5 235,-777.5 107,-777.5"/>
<polygon fill="none" stroke="#666666" points="107,-761 107,-832 235,-832 235,-761 107,-761"/>
</a>
</g>
</g>
<!-- Node3&#45;&gt;Node2 -->
<g id="edge2_Node000002_Node000003" class="edge">
<title>Node3&#45;&gt;Node2</title>
<g id="a_edge2_Node000002_Node000003"><a xlink:title=" ">
<path fill="none" stroke="#63b8ff" d="M171,-750.62C171,-742.83 171,-734.29 171,-725.23"/>
<polygon fill="none" stroke="#63b8ff" points="167.5,-750.76 171,-760.76 174.5,-750.76 167.5,-750.76"/>
</a>
</g>
</g>
<!-- Node4 -->
<g id="Node000004" class="node">
<title>Node4</title>
<g id="a_Node000004"><a xlink:href="classtracking_1_1base_1_1contract_1_1RequireCopyIntf.html" target="_top" xlink:title=" ">
<polygon fill="white" stroke="transparent" points="162,-928 0,-928 0,-868 162,-868 162,-928"/>
<text text-anchor="start" x="5" y="-916" font-family="Helvetica,sans-Serif" font-size="10.00">tracking::base::contract</text>
<text text-anchor="start" x="5" y="-905" font-family="Helvetica,sans-Serif" font-size="10.00">::RequireCopyIntf&lt; ImplType &gt;</text>
<text text-anchor="start" x="79" y="-890" font-family="Helvetica,sans-Serif" font-size="10.00"> </text>
<text text-anchor="start" x="17.5" y="-875" font-family="Helvetica,sans-Serif" font-size="10.00">+</text>
<text text-anchor="start" x="44" y="-875" font-family="Helvetica,sans-Serif" font-size="10.00">RequireCopyIntf()</text>
<polygon fill="#666666" stroke="#666666" points="0,-900 0,-900 162,-900 162,-900 0,-900"/>
<polygon fill="#666666" stroke="#666666" points="0,-885 0,-885 162,-885 162,-885 0,-885"/>
<polygon fill="none" stroke="#666666" points="0,-868 0,-928 162,-928 162,-868 0,-868"/>
</a>
</g>
</g>
<!-- Node4&#45;&gt;Node3 -->
<g id="edge3_Node000003_Node000004" class="edge">
<title>Node4&#45;&gt;Node3</title>
<g id="a_edge3_Node000003_Node000004"><a xlink:title=" ">
<path fill="none" stroke="#63b8ff" d="M114.14,-860.36C122.52,-851.1 131.48,-841.19 139.76,-832.04"/>
<polygon fill="none" stroke="#63b8ff" points="111.39,-858.19 107.27,-867.95 116.58,-862.88 111.39,-858.19"/>
</a>
</g>
</g>
<!-- Node5 -->
<g id="Node000005" class="node">
<title>Node5</title>
<g id="a_Node000005"><a xlink:href="classtracking_1_1base_1_1contract_1_1RequireMoveIntf.html" target="_top" xlink:title=" ">
<polygon fill="white" stroke="transparent" points="344,-928 180,-928 180,-868 344,-868 344,-928"/>
<text text-anchor="start" x="185" y="-916" font-family="Helvetica,sans-Serif" font-size="10.00">tracking::base::contract</text>
<text text-anchor="start" x="185" y="-905" font-family="Helvetica,sans-Serif" font-size="10.00">::RequireMoveIntf&lt; ImplType &gt;</text>
<text text-anchor="start" x="260" y="-890" font-family="Helvetica,sans-Serif" font-size="10.00"> </text>
<text text-anchor="start" x="197.5" y="-875" font-family="Helvetica,sans-Serif" font-size="10.00">+</text>
<text text-anchor="start" x="224" y="-875" font-family="Helvetica,sans-Serif" font-size="10.00">RequireMoveIntf()</text>
<polygon fill="#666666" stroke="#666666" points="180,-900 180,-900 344,-900 344,-900 180,-900"/>
<polygon fill="#666666" stroke="#666666" points="180,-885 180,-885 344,-885 344,-885 180,-885"/>
<polygon fill="none" stroke="#666666" points="180,-868 180,-928 344,-928 344,-868 180,-868"/>
</a>
</g>
</g>
<!-- Node5&#45;&gt;Node3 -->
<g id="edge4_Node000003_Node000005" class="edge">
<title>Node5&#45;&gt;Node3</title>
<g id="a_edge4_Node000003_Node000005"><a xlink:title=" ">
<path fill="none" stroke="#63b8ff" d="M228.49,-860.36C220.02,-851.1 210.96,-841.19 202.59,-832.04"/>
<polygon fill="none" stroke="#63b8ff" points="226.1,-862.94 235.43,-867.95 231.27,-858.21 226.1,-862.94"/>
</a>
</g>
</g>
</g>
</svg>
