<?xml version="1.0" encoding="UTF-8" standalone="no"?>
<!DOCTYPE svg PUBLIC "-//W3C//DTD SVG 1.1//EN"
 "http://www.w3.org/Graphics/SVG/1.1/DTD/svg11.dtd">
<!-- Generated by graphviz version 2.43.0 (0)
 -->
<!-- Title: tracking::motion::IMotionModel&lt; CovarianceMatrixPolicy_ &gt; Pages: 1 -->
<svg width="366pt" height="381pt"
 viewBox="0.00 0.00 365.50 381.00" xmlns="http://www.w3.org/2000/svg" xmlns:xlink="http://www.w3.org/1999/xlink">
<g id="graph0" class="graph" transform="scale(1 1) rotate(0) translate(4 377)">
<title>tracking::motion::IMotionModel&lt; CovarianceMatrixPolicy_ &gt;</title>
<!-- Node1 -->
<g id="Node000001" class="node">
<title>Node1</title>
<g id="a_Node000001"><a xlink:title="Abstract Motion Model interface.">
<polygon fill="#999999" stroke="transparent" points="266.5,-255 82.5,-255 82.5,0 266.5,0 266.5,-255"/>
<text text-anchor="start" x="87.5" y="-242.5" font-family="Helvetica,sans-Serif" font-size="10.00">tracking::motion::IMotion</text>
<text text-anchor="start" x="87.5" y="-231.5" font-family="Helvetica,sans-Serif" font-size="10.00">Model&lt; CovarianceMatrixPolicy_ &gt;</text>
<text text-anchor="start" x="172.5" y="-216.5" font-family="Helvetica,sans-Serif" font-size="10.00"> </text>
<text text-anchor="start" x="106.5" y="-201.5" font-family="Helvetica,sans-Serif" font-size="10.00">+</text>
<text text-anchor="start" x="139.5" y="-201.5" font-family="Helvetica,sans-Serif" font-size="10.00">IMotionModel()</text>
<text text-anchor="start" x="106.5" y="-186.5" font-family="Helvetica,sans-Serif" font-size="10.00">+</text>
<text text-anchor="start" x="139.5" y="-186.5" font-family="Helvetica,sans-Serif" font-size="10.00">~IMotionModel()</text>
<text text-anchor="start" x="106.5" y="-171.5" font-family="Helvetica,sans-Serif" font-size="10.00">+</text>
<text text-anchor="start" x="139.5" y="-171.5" font-family="Helvetica,sans-Serif" font-size="10.00">getX()</text>
<text text-anchor="start" x="106.5" y="-156.5" font-family="Helvetica,sans-Serif" font-size="10.00">+</text>
<text text-anchor="start" x="139.5" y="-156.5" font-family="Helvetica,sans-Serif" font-size="10.00">getVx()</text>
<text text-anchor="start" x="106.5" y="-141.5" font-family="Helvetica,sans-Serif" font-size="10.00">+</text>
<text text-anchor="start" x="139.5" y="-141.5" font-family="Helvetica,sans-Serif" font-size="10.00">getAx()</text>
<text text-anchor="start" x="106.5" y="-126.5" font-family="Helvetica,sans-Serif" font-size="10.00">+</text>
<text text-anchor="start" x="139.5" y="-126.5" font-family="Helvetica,sans-Serif" font-size="10.00">getY()</text>
<text text-anchor="start" x="106.5" y="-111.5" font-family="Helvetica,sans-Serif" font-size="10.00">+</text>
<text text-anchor="start" x="139.5" y="-111.5" font-family="Helvetica,sans-Serif" font-size="10.00">getVy()</text>
<text text-anchor="start" x="106.5" y="-96.5" font-family="Helvetica,sans-Serif" font-size="10.00">+</text>
<text text-anchor="start" x="139.5" y="-96.5" font-family="Helvetica,sans-Serif" font-size="10.00">getAy()</text>
<text text-anchor="start" x="106.5" y="-81.5" font-family="Helvetica,sans-Serif" font-size="10.00">+</text>
<text text-anchor="start" x="139.5" y="-81.5" font-family="Helvetica,sans-Serif" font-size="10.00">predict()</text>
<text text-anchor="start" x="106.5" y="-66.5" font-family="Helvetica,sans-Serif" font-size="10.00">+</text>
<text text-anchor="start" x="139.5" y="-66.5" font-family="Helvetica,sans-Serif" font-size="10.00">predict()</text>
<text text-anchor="start" x="106.5" y="-51.5" font-family="Helvetica,sans-Serif" font-size="10.00">#</text>
<text text-anchor="start" x="139.5" y="-51.5" font-family="Helvetica,sans-Serif" font-size="10.00">IMotionModel()</text>
<text text-anchor="start" x="106.5" y="-36.5" font-family="Helvetica,sans-Serif" font-size="10.00">#</text>
<text text-anchor="start" x="139.5" y="-36.5" font-family="Helvetica,sans-Serif" font-size="10.00">IMotionModel()</text>
<text text-anchor="start" x="106.5" y="-21.5" font-family="Helvetica,sans-Serif" font-size="10.00">#</text>
<text text-anchor="start" x="139.5" y="-21.5" font-family="Helvetica,sans-Serif" font-size="10.00">operator=()</text>
<text text-anchor="start" x="106.5" y="-6.5" font-family="Helvetica,sans-Serif" font-size="10.00">#</text>
<text text-anchor="start" x="139.5" y="-6.5" font-family="Helvetica,sans-Serif" font-size="10.00">operator=()</text>
<polygon fill="#666666" stroke="#666666" points="82.5,-226.5 82.5,-226.5 266.5,-226.5 266.5,-226.5 82.5,-226.5"/>
<polygon fill="#666666" stroke="#666666" points="82.5,-211.5 82.5,-211.5 266.5,-211.5 266.5,-211.5 82.5,-211.5"/>
<polygon fill="none" stroke="#666666" points="82.5,0 82.5,-255 266.5,-255 266.5,0 82.5,0"/>
</a>
</g>
</g>
<!-- Node2 -->
<g id="Node000002" class="node">
<title>Node2</title>
<g id="a_Node000002"><a xlink:href="structtracking_1_1math_1_1contract_1_1CovarianceMatrixPolicyIntf.html" target="_top" xlink:title=" ">
<polygon fill="white" stroke="transparent" points="161,-367.5 0,-367.5 0,-296.5 161,-296.5 161,-367.5"/>
<text text-anchor="start" x="9" y="-355" font-family="Helvetica,sans-Serif" font-size="10.00">tracking::math::contract</text>
<text text-anchor="start" x="9" y="-344" font-family="Helvetica,sans-Serif" font-size="10.00">::CovarianceMatrixPolicyIntf</text>
<text text-anchor="start" x="9" y="-333" font-family="Helvetica,sans-Serif" font-size="10.00">&lt; CovarianceMatrixPolicy_ &gt;</text>
<text text-anchor="start" x="79" y="-318" font-family="Helvetica,sans-Serif" font-size="10.00"> </text>
<text text-anchor="start" x="4.5" y="-303" font-family="Helvetica,sans-Serif" font-size="10.00">+</text>
<text text-anchor="start" x="17.5" y="-303" font-family="Helvetica,sans-Serif" font-size="10.00">CovarianceMatrixPolicyIntf()</text>
<polygon fill="#666666" stroke="#666666" points="0.5,-328 0.5,-328 161.5,-328 161.5,-328 0.5,-328"/>
<polygon fill="#666666" stroke="#666666" points="0.5,-313 0.5,-313 161.5,-313 161.5,-313 0.5,-313"/>
<polygon fill="none" stroke="#666666" points="0,-296.5 0,-367.5 161,-367.5 161,-296.5 0,-296.5"/>
</a>
</g>
</g>
<!-- Node2&#45;&gt;Node1 -->
<g id="edge1_Node000001_Node000002" class="edge">
<title>Node2&#45;&gt;Node1</title>
<g id="a_edge1_Node000001_Node000002"><a xlink:title=" ">
<path fill="none" stroke="#63b8ff" d="M100.97,-286.9C105.46,-277.24 110.42,-266.55 115.59,-255.42"/>
<polygon fill="none" stroke="#63b8ff" points="97.7,-285.64 96.66,-296.19 104.04,-288.59 97.7,-285.64"/>
</a>
</g>
</g>
<!-- Node3 -->
<g id="Node000003" class="node">
<title>Node3</title>
<g id="a_Node000003"><a xlink:href="classtracking_1_1base_1_1contract_1_1RequireAbstractIntf.html" target="_top" xlink:title=" ">
<polygon fill="white" stroke="transparent" points="357.5,-373 179.5,-373 179.5,-291 357.5,-291 357.5,-373"/>
<text text-anchor="start" x="184.5" y="-361" font-family="Helvetica,sans-Serif" font-size="10.00">tracking::base::contract</text>
<text text-anchor="start" x="184.5" y="-350" font-family="Helvetica,sans-Serif" font-size="10.00">::RequireAbstractIntf&lt;</text>
<text text-anchor="start" x="184.5" y="-339" font-family="Helvetica,sans-Serif" font-size="10.00"> IMotionModel&lt; CovarianceMatrix</text>
<text text-anchor="start" x="239.5" y="-328" font-family="Helvetica,sans-Serif" font-size="10.00">Policy_ &gt; &gt;</text>
<text text-anchor="start" x="266.5" y="-313" font-family="Helvetica,sans-Serif" font-size="10.00"> </text>
<text text-anchor="start" x="197" y="-298" font-family="Helvetica,sans-Serif" font-size="10.00">+</text>
<text text-anchor="start" x="223.5" y="-298" font-family="Helvetica,sans-Serif" font-size="10.00">RequireAbstractIntf()</text>
<polygon fill="#666666" stroke="#666666" points="179.5,-323 179.5,-323 357.5,-323 357.5,-323 179.5,-323"/>
<polygon fill="#666666" stroke="#666666" points="179.5,-308 179.5,-308 357.5,-308 357.5,-308 179.5,-308"/>
<polygon fill="none" stroke="#666666" points="179.5,-291 179.5,-373 357.5,-373 357.5,-291 179.5,-291"/>
</a>
</g>
</g>
<!-- Node3&#45;&gt;Node1 -->
<g id="edge2_Node000001_Node000003" class="edge">
<title>Node3&#45;&gt;Node1</title>
<g id="a_edge2_Node000001_Node000003"><a xlink:title=" ">
<path fill="none" stroke="#63b8ff" d="M245.7,-281.89C241.84,-273.57 237.68,-264.6 233.37,-255.32"/>
<polygon fill="none" stroke="#63b8ff" points="242.54,-283.4 249.93,-290.99 248.89,-280.45 242.54,-283.4"/>
</a>
</g>
</g>
</g>
</svg>
