<?xml version="1.0" encoding="UTF-8" standalone="no"?>
<!DOCTYPE svg PUBLIC "-//W3C//DTD SVG 1.1//EN"
 "http://www.w3.org/Graphics/SVG/1.1/DTD/svg11.dtd">
<!-- Generated by graphviz version 2.43.0 (0)
 -->
<!-- Title: tracking::math::SquareMatrix::symmetrize Pages: 1 -->
<svg width="527pt" height="108pt"
 viewBox="0.00 0.00 527.00 108.00" xmlns="http://www.w3.org/2000/svg" xmlns:xlink="http://www.w3.org/1999/xlink">
<g id="graph0" class="graph" transform="scale(1 1) rotate(0) translate(4 104)">
<title>tracking::math::SquareMatrix::symmetrize</title>
<!-- Node1 -->
<g id="Node000001" class="node">
<title>Node1</title>
<g id="a_Node000001"><a xlink:title="Symmetrize the matrix by averaging with its transpose.">
<polygon fill="#999999" stroke="#666666" points="519,-52 360,-52 360,-22 519,-22 519,-52"/>
<text text-anchor="start" x="368" y="-40" font-family="Helvetica,sans-Serif" font-size="10.00">tracking::math::SquareMatrix</text>
<text text-anchor="middle" x="439.5" y="-29" font-family="Helvetica,sans-Serif" font-size="10.00">::symmetrize</text>
</a>
</g>
</g>
<!-- Node2 -->
<g id="Node000002" class="node">
<title>Node2</title>
<g id="a_Node000002"><a xlink:href="classtracking_1_1math_1_1CovarianceMatrixFull.html#a70d258c33ab8284534f22683e26ec06e" target="_top" xlink:title="Compute A*P*A^T in&#45;place (covariance propagation)">
<polygon fill="white" stroke="#666666" points="324,-100 175,-100 175,-70 324,-70 324,-100"/>
<text text-anchor="start" x="183" y="-88" font-family="Helvetica,sans-Serif" font-size="10.00">tracking::math::Covariance</text>
<text text-anchor="middle" x="249.5" y="-77" font-family="Helvetica,sans-Serif" font-size="10.00">MatrixFull::apaT</text>
</a>
</g>
</g>
<!-- Node1&#45;&gt;Node2 -->
<g id="edge1_Node000001_Node000002" class="edge">
<title>Node1&#45;&gt;Node2</title>
<g id="a_edge1_Node000001_Node000002"><a xlink:title=" ">
<path fill="none" stroke="#63b8ff" d="M369.64,-54.58C349.83,-59.64 328.4,-65.11 309.26,-70"/>
<polygon fill="#63b8ff" stroke="#63b8ff" points="370.71,-57.92 379.53,-52.06 368.98,-51.14 370.71,-57.92"/>
</a>
</g>
</g>
<!-- Node3 -->
<g id="Node000003" class="node">
<title>Node3</title>
<g id="a_Node000003"><a xlink:href="classtracking_1_1filter_1_1InformationFilter.html#a10fd3d15b0f1cde43be4d74f7ba28404" target="_top" xlink:title=" ">
<polygon fill="white" stroke="#666666" points="323.5,-52 175.5,-52 175.5,-22 323.5,-22 323.5,-52"/>
<text text-anchor="start" x="183.5" y="-40" font-family="Helvetica,sans-Serif" font-size="10.00">tracking::filter::Information</text>
<text text-anchor="middle" x="249.5" y="-29" font-family="Helvetica,sans-Serif" font-size="10.00">Filter::predictCovariance</text>
</a>
</g>
</g>
<!-- Node1&#45;&gt;Node3 -->
<g id="edge2_Node000001_Node000003" class="edge">
<title>Node1&#45;&gt;Node3</title>
<g id="a_edge2_Node000001_Node000003"><a xlink:title=" ">
<path fill="none" stroke="#63b8ff" d="M349.69,-37C341,-37 332.24,-37 323.72,-37"/>
<polygon fill="#63b8ff" stroke="#63b8ff" points="349.86,-40.5 359.86,-37 349.86,-33.5 349.86,-40.5"/>
</a>
</g>
</g>
<!-- Node4 -->
<g id="Node000004" class="node">
<title>Node4</title>
<g id="a_Node000004"><a xlink:href="classtracking_1_1motion_1_1generic_1_1Predict.html#ad6bc834949fd3d8f75ec79ddf2d734d5" target="_top" xlink:title="State prediction with ego motion compensation using an InformationFilter.">
<polygon fill="white" stroke="#666666" points="139,-30 0,-30 0,0 139,0 139,-30"/>
<text text-anchor="start" x="8" y="-18" font-family="Helvetica,sans-Serif" font-size="10.00">tracking::motion::generic</text>
<text text-anchor="middle" x="69.5" y="-7" font-family="Helvetica,sans-Serif" font-size="10.00">::Predict::run</text>
</a>
</g>
</g>
<!-- Node1&#45;&gt;Node4 -->
<g id="edge4_Node000001_Node000004" class="edge">
<title>Node1&#45;&gt;Node4</title>
<g id="a_edge4_Node000001_Node000004"><a xlink:title=" ">
<path fill="none" stroke="#63b8ff" d="M368.31,-19.9C353.75,-17.03 338.44,-14.5 324,-13 258.13,-6.17 241.22,-12.37 175,-13 163.39,-13.11 151.05,-13.29 139.08,-13.5"/>
<polygon fill="#63b8ff" stroke="#63b8ff" points="367.76,-23.36 378.26,-21.94 369.16,-16.51 367.76,-23.36"/>
</a>
</g>
</g>
<!-- Node3&#45;&gt;Node4 -->
<g id="edge3_Node000003_Node000004" class="edge">
<title>Node3&#45;&gt;Node4</title>
<g id="a_edge3_Node000003_Node000004"><a xlink:title=" ">
<path fill="none" stroke="#63b8ff" d="M165.14,-26.7C156.42,-25.62 147.62,-24.53 139.09,-23.48"/>
<polygon fill="#63b8ff" stroke="#63b8ff" points="164.98,-30.2 175.33,-27.96 165.83,-23.26 164.98,-30.2"/>
</a>
</g>
</g>
</g>
</svg>
