<?xml version="1.0" encoding="UTF-8" standalone="no"?>
<!DOCTYPE svg PUBLIC "-//W3C//DTD SVG 1.1//EN"
 "http://www.w3.org/Graphics/SVG/1.1/DTD/svg11.dtd">
<!-- Generated by graphviz version 2.43.0 (0)
 -->
<!-- Title: tracking::filter::InformationFilter&lt; CovarianceMatrixPolicy_ &gt; Pages: 1 -->
<svg width="187pt" height="190pt"
 viewBox="0.00 0.00 187.00 190.00" xmlns="http://www.w3.org/2000/svg" xmlns:xlink="http://www.w3.org/1999/xlink">
<g id="graph0" class="graph" transform="scale(1 1) rotate(0) translate(4 186)">
<title>tracking::filter::InformationFilter&lt; CovarianceMatrixPolicy_ &gt;</title>
<!-- Node1 -->
<g id="Node000001" class="node">
<title>Node1</title>
<g id="a_Node000001"><a xlink:title=" ">
<polygon fill="#999999" stroke="transparent" points="179,-75 0,-75 0,0 179,0 179,-75"/>
<text text-anchor="start" x="5.5" y="-62.5" font-family="Helvetica,sans-Serif" font-size="10.00">tracking::filter::Information</text>
<text text-anchor="start" x="5.5" y="-51.5" font-family="Helvetica,sans-Serif" font-size="10.00">Filter&lt; CovarianceMatrixPolicy_ &gt;</text>
<text text-anchor="start" x="88" y="-36.5" font-family="Helvetica,sans-Serif" font-size="10.00"> </text>
<text text-anchor="start" x="19.5" y="-21.5" font-family="Helvetica,sans-Serif" font-size="10.00">+</text>
<text text-anchor="start" x="47.5" y="-21.5" font-family="Helvetica,sans-Serif" font-size="10.00">predictCovariance()</text>
<text text-anchor="start" x="19.5" y="-6.5" font-family="Helvetica,sans-Serif" font-size="10.00">+</text>
<text text-anchor="start" x="47.5" y="-6.5" font-family="Helvetica,sans-Serif" font-size="10.00">updateState()</text>
<polygon fill="#666666" stroke="#666666" points="0.5,-46.5 0.5,-46.5 179.5,-46.5 179.5,-46.5 0.5,-46.5"/>
<polygon fill="#666666" stroke="#666666" points="0.5,-31.5 0.5,-31.5 179.5,-31.5 179.5,-31.5 0.5,-31.5"/>
<polygon fill="none" stroke="#666666" points="0,0 0,-75 179,-75 179,0 0,0"/>
</a>
</g>
</g>
<!-- Node2 -->
<g id="Node000002" class="node">
<title>Node2</title>
<g id="a_Node000002"><a xlink:href="structtracking_1_1math_1_1contract_1_1CovarianceMatrixPolicyIntf.html" target="_top" xlink:title=" ">
<polygon fill="white" stroke="transparent" points="170,-182 9,-182 9,-111 170,-111 170,-182"/>
<text text-anchor="start" x="18" y="-169.5" font-family="Helvetica,sans-Serif" font-size="10.00">tracking::math::contract</text>
<text text-anchor="start" x="18" y="-158.5" font-family="Helvetica,sans-Serif" font-size="10.00">::CovarianceMatrixPolicyIntf</text>
<text text-anchor="start" x="18" y="-147.5" font-family="Helvetica,sans-Serif" font-size="10.00">&lt; CovarianceMatrixPolicy_ &gt;</text>
<text text-anchor="start" x="88" y="-132.5" font-family="Helvetica,sans-Serif" font-size="10.00"> </text>
<text text-anchor="start" x="13.5" y="-117.5" font-family="Helvetica,sans-Serif" font-size="10.00">+</text>
<text text-anchor="start" x="26.5" y="-117.5" font-family="Helvetica,sans-Serif" font-size="10.00">CovarianceMatrixPolicyIntf()</text>
<polygon fill="#666666" stroke="#666666" points="9.5,-142.5 9.5,-142.5 170.5,-142.5 170.5,-142.5 9.5,-142.5"/>
<polygon fill="#666666" stroke="#666666" points="9.5,-127.5 9.5,-127.5 170.5,-127.5 170.5,-127.5 9.5,-127.5"/>
<polygon fill="none" stroke="#666666" points="9,-111 9,-182 170,-182 170,-111 9,-111"/>
</a>
</g>
</g>
<!-- Node2&#45;&gt;Node1 -->
<g id="edge1_Node000001_Node000002" class="edge">
<title>Node2&#45;&gt;Node1</title>
<g id="a_edge1_Node000001_Node000002"><a xlink:title=" ">
<path fill="none" stroke="#63b8ff" d="M89.5,-100.65C89.5,-92.2 89.5,-83.45 89.5,-75.28"/>
<polygon fill="none" stroke="#63b8ff" points="86,-100.76 89.5,-110.76 93,-100.76 86,-100.76"/>
</a>
</g>
</g>
</g>
</svg>
