<?xml version="1.0" encoding="UTF-8" standalone="no"?>
<!DOCTYPE svg PUBLIC "-//W3C//DTD SVG 1.1//EN"
 "http://www.w3.org/Graphics/SVG/1.1/DTD/svg11.dtd">
<!-- Generated by graphviz version 2.43.0 (0)
 -->
<!-- Title: tracking::motion::ExtendedMotionModel&lt; MotionModel_, MotionModelTrait_ &gt; Pages: 1 -->
<!--zoomable 917 -->

<svg id="main" version="1.1" xmlns="http://www.w3.org/2000/svg" xmlns:xlink="http://www.w3.org/1999/xlink" xml:space="preserve" onload="init(evt)">
<style type="text/css"><![CDATA[
.node, .edge {opacity: 0.7;}
.node.selected, .edge.selected {opacity: 1;}
.edge:hover path { stroke: red; }
.edge:hover polygon { stroke: red; fill: red; }
]]></style>

<defs>
  <circle id="rim" cx="0" cy="0" r="7"/>
  <circle id="rim2" cx="0" cy="0" r="3.5"/>
  <g id="zoomPlus">
    <use xlink:href="#rim" fill="#404040"><set attributeName="fill" to="#808080" begin="zoomplus.mouseover" end="zoomplus.mouseout"/></use>
    <path d="M-4,0h8M0,-4v8" fill="none" stroke="white" stroke-width="1.5" pointer-events="none"/>
  </g>
  <g id="zoomMin">
    <use xlink:href="#rim" fill="#404040"><set attributeName="fill" to="#808080" begin="zoomminus.mouseover" end="zoomminus.mouseout"/></use>
    <path d="M-4,0h8" fill="none" stroke="white" stroke-width="1.5" pointer-events="none"/>
  </g>
  <g id="arrowUp" transform="translate(30 24)">
    <use xlink:href="#rim"/>
    <path pointer-events="none" fill="none" stroke="white" stroke-width="1.5" d="M0,-3.0v7 M-2.5,-0.5L0,-3.0L2.5,-0.5"/>
  </g>
  <g id="arrowRight" transform="rotate(90) translate(36 -43)">
    <use xlink:href="#rim"/>
    <path pointer-events="none" fill="none" stroke="white" stroke-width="1.5" d="M0,-3.0v7 M-2.5,-0.5L0,-3.0L2.5,-0.5"/>
  </g>
  <g id="arrowDown" transform="rotate(180) translate(-30 -48)">
    <use xlink:href="#rim"/>
    <path pointer-events="none" fill="none" stroke="white" stroke-width="1.5" d="M0,-3.0v7 M-2.5,-0.5L0,-3.0L2.5,-0.5"/>
  </g>
  <g id="arrowLeft" transform="rotate(270) translate(-36 17)">
    <use xlink:href="#rim"/>
    <path pointer-events="none" fill="none" stroke="white" stroke-width="1.5" d="M0,-3.0v7 M-2.5,-0.5L0,-3.0L2.5,-0.5"/>
  </g>
  <g id="resetDef">
    <use xlink:href="#rim2" fill="#404040"><set attributeName="fill" to="#808080" begin="reset.mouseover" end="reset.mouseout"/></use>
  </g>
</defs>
<script type="application/ecmascript">
var viewWidth = 893;
var viewHeight = 917;
var sectionId = 'dynsection-0';
</script>
<script type="application/ecmascript" xlink:href="svg.min.js"/>
<svg id="graph" class="graph">
<g id="viewport">
<title>tracking::motion::ExtendedMotionModel&lt; MotionModel_, MotionModelTrait_ &gt;</title>
<!-- Node1 -->
<g id="Node000001" class="node">
<title>Node1</title>
<g id="a_Node000001"><a xlink:title="Abstract MotionModel with known dimension, keeping the model memory for State and StateCovariance.">
<polygon fill="#999999" stroke="transparent" points="574,-348 397,-348 397,0 574,0 574,-348"/>
<text text-anchor="start" x="416.5" y="-336" font-family="Helvetica,sans-Serif" font-size="10.00">tracking::motion::Extended</text>
<text text-anchor="start" x="416.5" y="-325" font-family="Helvetica,sans-Serif" font-size="10.00">MotionModel&lt; MotionModel</text>
<text text-anchor="start" x="429.5" y="-314" font-family="Helvetica,sans-Serif" font-size="10.00">_, MotionModelTrait_ &gt;</text>
<text text-anchor="start" x="484" y="-299" font-family="Helvetica,sans-Serif" font-size="10.00"> </text>
<text text-anchor="start" x="401.5" y="-284" font-family="Helvetica,sans-Serif" font-size="10.00">+</text>
<text text-anchor="start" x="414.5" y="-284" font-family="Helvetica,sans-Serif" font-size="10.00">ExtendedMotionModel()</text>
<text text-anchor="start" x="401.5" y="-269" font-family="Helvetica,sans-Serif" font-size="10.00">+</text>
<text text-anchor="start" x="414.5" y="-269" font-family="Helvetica,sans-Serif" font-size="10.00">~ExtendedMotionModel()</text>
<text text-anchor="start" x="401.5" y="-254" font-family="Helvetica,sans-Serif" font-size="10.00">+</text>
<text text-anchor="start" x="414.5" y="-254" font-family="Helvetica,sans-Serif" font-size="10.00">getX()</text>
<text text-anchor="start" x="401.5" y="-239" font-family="Helvetica,sans-Serif" font-size="10.00">+</text>
<text text-anchor="start" x="414.5" y="-239" font-family="Helvetica,sans-Serif" font-size="10.00">getY()</text>
<text text-anchor="start" x="401.5" y="-224" font-family="Helvetica,sans-Serif" font-size="10.00">+</text>
<text text-anchor="start" x="414.5" y="-224" font-family="Helvetica,sans-Serif" font-size="10.00">invertCov()</text>
<text text-anchor="start" x="401.5" y="-209" font-family="Helvetica,sans-Serif" font-size="10.00">+</text>
<text text-anchor="start" x="414.5" y="-209" font-family="Helvetica,sans-Serif" font-size="10.00">predict()</text>
<text text-anchor="start" x="401.5" y="-194" font-family="Helvetica,sans-Serif" font-size="10.00">+</text>
<text text-anchor="start" x="414.5" y="-194" font-family="Helvetica,sans-Serif" font-size="10.00">predict()</text>
<text text-anchor="start" x="401.5" y="-179" font-family="Helvetica,sans-Serif" font-size="10.00">+</text>
<text text-anchor="start" x="414.5" y="-179" font-family="Helvetica,sans-Serif" font-size="10.00">convertStateVecIntoState</text>
<text text-anchor="start" x="414.5" y="-168" font-family="Helvetica,sans-Serif" font-size="10.00">Space()</text>
<text text-anchor="start" x="401.5" y="-153" font-family="Helvetica,sans-Serif" font-size="10.00">+</text>
<text text-anchor="start" x="414.5" y="-153" font-family="Helvetica,sans-Serif" font-size="10.00">convertStateVecIntoInformation</text>
<text text-anchor="start" x="414.5" y="-142" font-family="Helvetica,sans-Serif" font-size="10.00">Space()</text>
<text text-anchor="start" x="401.5" y="-127" font-family="Helvetica,sans-Serif" font-size="10.00">+</text>
<text text-anchor="start" x="414.5" y="-127" font-family="Helvetica,sans-Serif" font-size="10.00">StateVecFromList()</text>
<text text-anchor="start" x="401.5" y="-112" font-family="Helvetica,sans-Serif" font-size="10.00">+</text>
<text text-anchor="start" x="414.5" y="-112" font-family="Helvetica,sans-Serif" font-size="10.00">StateCovFromList()</text>
<text text-anchor="start" x="401.5" y="-97" font-family="Helvetica,sans-Serif" font-size="10.00">+</text>
<text text-anchor="start" x="414.5" y="-97" font-family="Helvetica,sans-Serif" font-size="10.00">StateCovFromList()</text>
<text text-anchor="start" x="401.5" y="-82" font-family="Helvetica,sans-Serif" font-size="10.00">+</text>
<text text-anchor="start" x="414.5" y="-82" font-family="Helvetica,sans-Serif" font-size="10.00">FromLists()</text>
<text text-anchor="start" x="401.5" y="-67" font-family="Helvetica,sans-Serif" font-size="10.00">#</text>
<text text-anchor="start" x="414.5" y="-67" font-family="Helvetica,sans-Serif" font-size="10.00">ExtendedMotionModel()</text>
<text text-anchor="start" x="401.5" y="-52" font-family="Helvetica,sans-Serif" font-size="10.00">#</text>
<text text-anchor="start" x="414.5" y="-52" font-family="Helvetica,sans-Serif" font-size="10.00">ExtendedMotionModel()</text>
<text text-anchor="start" x="401.5" y="-37" font-family="Helvetica,sans-Serif" font-size="10.00">#</text>
<text text-anchor="start" x="414.5" y="-37" font-family="Helvetica,sans-Serif" font-size="10.00">operator=()</text>
<text text-anchor="start" x="401.5" y="-22" font-family="Helvetica,sans-Serif" font-size="10.00">#</text>
<text text-anchor="start" x="414.5" y="-22" font-family="Helvetica,sans-Serif" font-size="10.00">operator=()</text>
<text text-anchor="start" x="401.5" y="-7" font-family="Helvetica,sans-Serif" font-size="10.00">#</text>
<text text-anchor="start" x="414.5" y="-7" font-family="Helvetica,sans-Serif" font-size="10.00">ExtendedMotionModel()</text>
<polygon fill="#666666" stroke="#666666" points="397.5,-309 397.5,-309 574.5,-309 574.5,-309 397.5,-309"/>
<polygon fill="#666666" stroke="#666666" points="397.5,-294 397.5,-294 574.5,-294 574.5,-294 397.5,-294"/>
<polygon fill="none" stroke="#666666" points="397,0 397,-348 574,-348 574,0 397,0"/>
</a>
</g>
</g>
<!-- Node2 -->
<g id="Node000002" class="node">
<title>Node2</title>
<g id="a_Node000002"><a xlink:href="classtracking_1_1motion_1_1IMotionModel.html" target="_top" xlink:title=" ">
<polygon fill="white" stroke="transparent" points="286,-678 137,-678 137,-412 286,-412 286,-678"/>
<text text-anchor="start" x="142.5" y="-666" font-family="Helvetica,sans-Serif" font-size="10.00">tracking::motion::IMotion</text>
<text text-anchor="start" x="142.5" y="-655" font-family="Helvetica,sans-Serif" font-size="10.00">Model&lt; MotionModelTrait</text>
<text text-anchor="start" x="142.5" y="-644" font-family="Helvetica,sans-Serif" font-size="10.00">_::CovarianceMatrixPolicy &gt;</text>
<text text-anchor="start" x="210" y="-629" font-family="Helvetica,sans-Serif" font-size="10.00"> </text>
<text text-anchor="start" x="152.5" y="-614" font-family="Helvetica,sans-Serif" font-size="10.00">+</text>
<text text-anchor="start" x="176.5" y="-614" font-family="Helvetica,sans-Serif" font-size="10.00">IMotionModel()</text>
<text text-anchor="start" x="152.5" y="-599" font-family="Helvetica,sans-Serif" font-size="10.00">+</text>
<text text-anchor="start" x="176.5" y="-599" font-family="Helvetica,sans-Serif" font-size="10.00">~IMotionModel()</text>
<text text-anchor="start" x="152.5" y="-584" font-family="Helvetica,sans-Serif" font-size="10.00">+</text>
<text text-anchor="start" x="176.5" y="-584" font-family="Helvetica,sans-Serif" font-size="10.00">getX()</text>
<text text-anchor="start" x="152.5" y="-569" font-family="Helvetica,sans-Serif" font-size="10.00">+</text>
<text text-anchor="start" x="176.5" y="-569" font-family="Helvetica,sans-Serif" font-size="10.00">getVx()</text>
<text text-anchor="start" x="152.5" y="-554" font-family="Helvetica,sans-Serif" font-size="10.00">+</text>
<text text-anchor="start" x="176.5" y="-554" font-family="Helvetica,sans-Serif" font-size="10.00">getAx()</text>
<text text-anchor="start" x="152.5" y="-539" font-family="Helvetica,sans-Serif" font-size="10.00">+</text>
<text text-anchor="start" x="176.5" y="-539" font-family="Helvetica,sans-Serif" font-size="10.00">getY()</text>
<text text-anchor="start" x="152.5" y="-524" font-family="Helvetica,sans-Serif" font-size="10.00">+</text>
<text text-anchor="start" x="176.5" y="-524" font-family="Helvetica,sans-Serif" font-size="10.00">getVy()</text>
<text text-anchor="start" x="152.5" y="-509" font-family="Helvetica,sans-Serif" font-size="10.00">+</text>
<text text-anchor="start" x="176.5" y="-509" font-family="Helvetica,sans-Serif" font-size="10.00">getAy()</text>
<text text-anchor="start" x="152.5" y="-494" font-family="Helvetica,sans-Serif" font-size="10.00">+</text>
<text text-anchor="start" x="176.5" y="-494" font-family="Helvetica,sans-Serif" font-size="10.00">predict()</text>
<text text-anchor="start" x="152.5" y="-479" font-family="Helvetica,sans-Serif" font-size="10.00">+</text>
<text text-anchor="start" x="176.5" y="-479" font-family="Helvetica,sans-Serif" font-size="10.00">predict()</text>
<text text-anchor="start" x="152.5" y="-464" font-family="Helvetica,sans-Serif" font-size="10.00">#</text>
<text text-anchor="start" x="176.5" y="-464" font-family="Helvetica,sans-Serif" font-size="10.00">IMotionModel()</text>
<text text-anchor="start" x="152.5" y="-449" font-family="Helvetica,sans-Serif" font-size="10.00">#</text>
<text text-anchor="start" x="176.5" y="-449" font-family="Helvetica,sans-Serif" font-size="10.00">IMotionModel()</text>
<text text-anchor="start" x="152.5" y="-434" font-family="Helvetica,sans-Serif" font-size="10.00">#</text>
<text text-anchor="start" x="176.5" y="-434" font-family="Helvetica,sans-Serif" font-size="10.00">operator=()</text>
<text text-anchor="start" x="152.5" y="-419" font-family="Helvetica,sans-Serif" font-size="10.00">#</text>
<text text-anchor="start" x="176.5" y="-419" font-family="Helvetica,sans-Serif" font-size="10.00">operator=()</text>
<polygon fill="#666666" stroke="#666666" points="137.5,-639 137.5,-639 286.5,-639 286.5,-639 137.5,-639"/>
<polygon fill="#666666" stroke="#666666" points="137.5,-624 137.5,-624 286.5,-624 286.5,-624 137.5,-624"/>
<polygon fill="none" stroke="#666666" points="137,-412 137,-678 286,-678 286,-412 137,-412"/>
</a>
</g>
</g>
<!-- Node2&#45;&gt;Node1 -->
<g id="edge1_Node000001_Node000002" class="edge">
<title>Node2&#45;&gt;Node1</title>
<g id="a_edge1_Node000001_Node000002"><a xlink:title=" ">
<path fill="none" stroke="#63b8ff" d="M282,-402.9C286.08,-396.42 290.25,-390.09 294.5,-384 324.47,-341.08 362.56,-297.7 396.82,-261.67"/>
<polygon fill="none" stroke="#63b8ff" points="278.77,-401.47 276.5,-411.82 284.73,-405.14 278.77,-401.47"/>
</a>
</g>
</g>
<!-- Node3 -->
<g id="Node000003" class="node">
<title>Node3</title>
<g id="a_Node000003"><a xlink:href="structtracking_1_1math_1_1contract_1_1CovarianceMatrixPolicyIntf.html" target="_top" xlink:title=" ">
<polygon fill="white" stroke="transparent" points="304,-813 143,-813 143,-742 304,-742 304,-813"/>
<text text-anchor="start" x="154.5" y="-800.5" font-family="Helvetica,sans-Serif" font-size="10.00">tracking::math::contract</text>
<text text-anchor="start" x="154.5" y="-789.5" font-family="Helvetica,sans-Serif" font-size="10.00">::CovarianceMatrixPolicyIntf</text>
<text text-anchor="start" x="186.5" y="-778.5" font-family="Helvetica,sans-Serif" font-size="10.00">&lt; PolicyType &gt;</text>
<text text-anchor="start" x="222" y="-763.5" font-family="Helvetica,sans-Serif" font-size="10.00"> </text>
<text text-anchor="start" x="147.5" y="-748.5" font-family="Helvetica,sans-Serif" font-size="10.00">+</text>
<text text-anchor="start" x="160.5" y="-748.5" font-family="Helvetica,sans-Serif" font-size="10.00">CovarianceMatrixPolicyIntf()</text>
<polygon fill="#666666" stroke="#666666" points="143.5,-773.5 143.5,-773.5 304.5,-773.5 304.5,-773.5 143.5,-773.5"/>
<polygon fill="#666666" stroke="#666666" points="143.5,-758.5 143.5,-758.5 304.5,-758.5 304.5,-758.5 143.5,-758.5"/>
<polygon fill="none" stroke="#666666" points="143,-742 143,-813 304,-813 304,-742 143,-742"/>
</a>
</g>
</g>
<!-- Node3&#45;&gt;Node2 -->
<g id="edge2_Node000002_Node000003" class="edge">
<title>Node3&#45;&gt;Node2</title>
<g id="a_edge2_Node000002_Node000003"><a xlink:title=" ">
<path fill="none" stroke="#63b8ff" d="M221.16,-731.6C220.34,-715.89 219.38,-697.37 218.38,-678.2"/>
<polygon fill="none" stroke="#63b8ff" points="217.69,-732.19 221.7,-741.99 224.68,-731.82 217.69,-732.19"/>
</a>
</g>
</g>
<!-- Node7 -->
<g id="Node000007" class="node">
<title>Node7</title>
<g id="a_Node000007"><a xlink:href="classtracking_1_1motion_1_1StateMem.html" target="_top" xlink:title=" ">
<polygon fill="white" stroke="transparent" points="477,-706 304,-706 304,-384 477,-384 477,-706"/>
<text text-anchor="start" x="309.5" y="-694" font-family="Helvetica,sans-Serif" font-size="10.00">tracking::motion::StateMem</text>
<text text-anchor="start" x="309.5" y="-683" font-family="Helvetica,sans-Serif" font-size="10.00">&lt; MotionModelTrait_::Covariance</text>
<text text-anchor="start" x="309.5" y="-672" font-family="Helvetica,sans-Serif" font-size="10.00">MatrixPolicy, MotionModelTrait</text>
<text text-anchor="start" x="369.5" y="-661" font-family="Helvetica,sans-Serif" font-size="10.00">_::Size &gt;</text>
<text text-anchor="start" x="320.5" y="-646" font-family="Helvetica,sans-Serif" font-size="10.00">&#45;</text>
<text text-anchor="start" x="340.5" y="-646" font-family="Helvetica,sans-Serif" font-size="10.00">_vec</text>
<text text-anchor="start" x="320.5" y="-631" font-family="Helvetica,sans-Serif" font-size="10.00">&#45;</text>
<text text-anchor="start" x="340.5" y="-631" font-family="Helvetica,sans-Serif" font-size="10.00">_cov</text>
<text text-anchor="start" x="318" y="-616" font-family="Helvetica,sans-Serif" font-size="10.00">+</text>
<text text-anchor="start" x="340.5" y="-616" font-family="Helvetica,sans-Serif" font-size="10.00">StateMem()</text>
<text text-anchor="start" x="318" y="-601" font-family="Helvetica,sans-Serif" font-size="10.00">+</text>
<text text-anchor="start" x="340.5" y="-601" font-family="Helvetica,sans-Serif" font-size="10.00">StateMem()</text>
<text text-anchor="start" x="318" y="-586" font-family="Helvetica,sans-Serif" font-size="10.00">+</text>
<text text-anchor="start" x="340.5" y="-586" font-family="Helvetica,sans-Serif" font-size="10.00">StateMem()</text>
<text text-anchor="start" x="318" y="-571" font-family="Helvetica,sans-Serif" font-size="10.00">+</text>
<text text-anchor="start" x="340.5" y="-571" font-family="Helvetica,sans-Serif" font-size="10.00">operator=()</text>
<text text-anchor="start" x="318" y="-556" font-family="Helvetica,sans-Serif" font-size="10.00">+</text>
<text text-anchor="start" x="340.5" y="-556" font-family="Helvetica,sans-Serif" font-size="10.00">operator=()</text>
<text text-anchor="start" x="318" y="-541" font-family="Helvetica,sans-Serif" font-size="10.00">+</text>
<text text-anchor="start" x="340.5" y="-541" font-family="Helvetica,sans-Serif" font-size="10.00">~StateMem()</text>
<text text-anchor="start" x="318" y="-526" font-family="Helvetica,sans-Serif" font-size="10.00">+</text>
<text text-anchor="start" x="340.5" y="-526" font-family="Helvetica,sans-Serif" font-size="10.00">getVec()</text>
<text text-anchor="start" x="318" y="-511" font-family="Helvetica,sans-Serif" font-size="10.00">+</text>
<text text-anchor="start" x="340.5" y="-511" font-family="Helvetica,sans-Serif" font-size="10.00">getVecForInternalUse()</text>
<text text-anchor="start" x="318" y="-496" font-family="Helvetica,sans-Serif" font-size="10.00">+</text>
<text text-anchor="start" x="340.5" y="-496" font-family="Helvetica,sans-Serif" font-size="10.00">getCov()</text>
<text text-anchor="start" x="318" y="-481" font-family="Helvetica,sans-Serif" font-size="10.00">+</text>
<text text-anchor="start" x="340.5" y="-481" font-family="Helvetica,sans-Serif" font-size="10.00">getCovForInternalUse()</text>
<text text-anchor="start" x="318" y="-466" font-family="Helvetica,sans-Serif" font-size="10.00">+</text>
<text text-anchor="start" x="340.5" y="-466" font-family="Helvetica,sans-Serif" font-size="10.00">operator[]()</text>
<text text-anchor="start" x="318" y="-451" font-family="Helvetica,sans-Serif" font-size="10.00">+</text>
<text text-anchor="start" x="340.5" y="-451" font-family="Helvetica,sans-Serif" font-size="10.00">operator()()</text>
<text text-anchor="start" x="318" y="-436" font-family="Helvetica,sans-Serif" font-size="10.00">#</text>
<text text-anchor="start" x="340.5" y="-436" font-family="Helvetica,sans-Serif" font-size="10.00">StateMem()</text>
<text text-anchor="start" x="318" y="-421" font-family="Helvetica,sans-Serif" font-size="10.00">#</text>
<text text-anchor="start" x="340.5" y="-421" font-family="Helvetica,sans-Serif" font-size="10.00">getVec()</text>
<text text-anchor="start" x="318" y="-406" font-family="Helvetica,sans-Serif" font-size="10.00">#</text>
<text text-anchor="start" x="340.5" y="-406" font-family="Helvetica,sans-Serif" font-size="10.00">getCov()</text>
<text text-anchor="start" x="318" y="-391" font-family="Helvetica,sans-Serif" font-size="10.00">#</text>
<text text-anchor="start" x="340.5" y="-391" font-family="Helvetica,sans-Serif" font-size="10.00">operator[]()</text>
<polygon fill="#666666" stroke="#666666" points="304.5,-656 304.5,-656 477.5,-656 477.5,-656 304.5,-656"/>
<polygon fill="#666666" stroke="#666666" points="304.5,-626 304.5,-626 338.5,-626 338.5,-626 304.5,-626"/>
<polygon fill="#666666" stroke="#666666" points="338.5,-626 338.5,-626 477.5,-626 477.5,-626 338.5,-626"/>
<polygon fill="none" stroke="#666666" points="304,-384 304,-706 477,-706 477,-384 304,-384"/>
</a>
</g>
</g>
<!-- Node3&#45;&gt;Node7 -->
<g id="edge10_Node000007_Node000003" class="edge">
<title>Node3&#45;&gt;Node7</title>
<g id="a_edge10_Node000007_Node000003"><a xlink:title=" ">
<path fill="none" stroke="#63b8ff" d="M268.93,-734.78C277.84,-725.67 286.81,-715.82 294.5,-706 297.6,-702.05 300.67,-697.99 303.71,-693.85"/>
<polygon fill="none" stroke="#63b8ff" points="266.4,-732.35 261.81,-741.9 271.36,-737.3 266.4,-732.35"/>
</a>
</g>
</g>
<!-- Node4 -->
<g id="Node000004" class="node">
<title>Node4</title>
<g id="a_Node000004"><a xlink:href="classtracking_1_1base_1_1contract_1_1RequireAbstractIntf.html" target="_top" xlink:title=" ">
<polygon fill="white" stroke="transparent" points="125,-813 0,-813 0,-742 125,-742 125,-813"/>
<text text-anchor="start" x="5.5" y="-800.5" font-family="Helvetica,sans-Serif" font-size="10.00">tracking::base::contract</text>
<text text-anchor="start" x="5.5" y="-789.5" font-family="Helvetica,sans-Serif" font-size="10.00">::RequireAbstractIntf&lt;</text>
<text text-anchor="start" x="33.5" y="-778.5" font-family="Helvetica,sans-Serif" font-size="10.00"> ImplType &gt;</text>
<text text-anchor="start" x="61" y="-763.5" font-family="Helvetica,sans-Serif" font-size="10.00"> </text>
<text text-anchor="start" x="4.5" y="-748.5" font-family="Helvetica,sans-Serif" font-size="10.00">+</text>
<text text-anchor="start" x="17.5" y="-748.5" font-family="Helvetica,sans-Serif" font-size="10.00">RequireAbstractIntf()</text>
<polygon fill="#666666" stroke="#666666" points="0.5,-773.5 0.5,-773.5 125.5,-773.5 125.5,-773.5 0.5,-773.5"/>
<polygon fill="#666666" stroke="#666666" points="0.5,-758.5 0.5,-758.5 125.5,-758.5 125.5,-758.5 0.5,-758.5"/>
<polygon fill="none" stroke="#666666" points="0,-742 0,-813 125,-813 125,-742 0,-742"/>
</a>
</g>
</g>
<!-- Node4&#45;&gt;Node2 -->
<g id="edge3_Node000002_Node000004" class="edge">
<title>Node4&#45;&gt;Node2</title>
<g id="a_edge3_Node000002_Node000004"><a xlink:title=" ">
<path fill="none" stroke="#63b8ff" d="M90.3,-733.5C103.61,-712.91 120.25,-687.16 136.9,-661.41"/>
<polygon fill="none" stroke="#63b8ff" points="87.3,-731.69 84.81,-741.99 93.17,-735.49 87.3,-731.69"/>
</a>
</g>
</g>
<!-- Node5 -->
<g id="Node000005" class="node">
<title>Node5</title>
<g id="a_Node000005"><a xlink:href="classtracking_1_1motion_1_1generic_1_1Predict.html" target="_top" xlink:title=" ">
<polygon fill="white" stroke="transparent" points="668,-593.5 495,-593.5 495,-496.5 668,-496.5 668,-593.5"/>
<text text-anchor="start" x="500.5" y="-581" font-family="Helvetica,sans-Serif" font-size="10.00">tracking::motion::generic</text>
<text text-anchor="start" x="500.5" y="-570" font-family="Helvetica,sans-Serif" font-size="10.00">::Predict&lt; MotionModel</text>
<text text-anchor="start" x="500.5" y="-559" font-family="Helvetica,sans-Serif" font-size="10.00">_, MotionModelTrait_::Covariance</text>
<text text-anchor="start" x="545.5" y="-548" font-family="Helvetica,sans-Serif" font-size="10.00">MatrixPolicy &gt;</text>
<text text-anchor="start" x="580" y="-533" font-family="Helvetica,sans-Serif" font-size="10.00"> </text>
<text text-anchor="start" x="531.5" y="-518" font-family="Helvetica,sans-Serif" font-size="10.00">+</text>
<text text-anchor="start" x="576.5" y="-518" font-family="Helvetica,sans-Serif" font-size="10.00">run()</text>
<text text-anchor="start" x="531.5" y="-503" font-family="Helvetica,sans-Serif" font-size="10.00">+</text>
<text text-anchor="start" x="576.5" y="-503" font-family="Helvetica,sans-Serif" font-size="10.00">run()</text>
<polygon fill="#666666" stroke="#666666" points="495.5,-543 495.5,-543 668.5,-543 668.5,-543 495.5,-543"/>
<polygon fill="#666666" stroke="#666666" points="495.5,-528 495.5,-528 668.5,-528 668.5,-528 495.5,-528"/>
<polygon fill="none" stroke="#666666" points="495,-496.5 495,-593.5 668,-593.5 668,-496.5 495,-496.5"/>
</a>
</g>
</g>
<!-- Node5&#45;&gt;Node1 -->
<g id="edge4_Node000001_Node000005" class="edge">
<title>Node5&#45;&gt;Node1</title>
<g id="a_edge4_Node000001_Node000005"><a xlink:title=" ">
<path fill="none" stroke="#63b8ff" d="M566.52,-486.43C556.78,-448.99 543.52,-398.01 530.55,-348.14"/>
<polygon fill="none" stroke="#63b8ff" points="563.14,-487.34 569.05,-496.14 569.92,-485.58 563.14,-487.34"/>
</a>
</g>
</g>
<!-- Node6 -->
<g id="Node000006" class="node">
<title>Node6</title>
<g id="a_Node000006"><a xlink:href="classtracking_1_1motion_1_1generic_1_1PredictCommon.html" target="_top" xlink:title="Base class for common calculations needed for any prediction.">
<polygon fill="white" stroke="transparent" points="666.5,-813 496.5,-813 496.5,-742 666.5,-742 666.5,-813"/>
<text text-anchor="start" x="501.5" y="-800.5" font-family="Helvetica,sans-Serif" font-size="10.00">tracking::motion::generic</text>
<text text-anchor="start" x="501.5" y="-789.5" font-family="Helvetica,sans-Serif" font-size="10.00">::PredictCommon&lt; MotionModel</text>
<text text-anchor="start" x="509.5" y="-778.5" font-family="Helvetica,sans-Serif" font-size="10.00">_, CovarianceMatrixPolicy_ &gt;</text>
<text text-anchor="start" x="579.5" y="-763.5" font-family="Helvetica,sans-Serif" font-size="10.00"> </text>
<text text-anchor="start" x="531.5" y="-748.5" font-family="Helvetica,sans-Serif" font-size="10.00">+</text>
<text text-anchor="start" x="575.5" y="-748.5" font-family="Helvetica,sans-Serif" font-size="10.00">run()</text>
<polygon fill="#666666" stroke="#666666" points="496.5,-773.5 496.5,-773.5 666.5,-773.5 666.5,-773.5 496.5,-773.5"/>
<polygon fill="#666666" stroke="#666666" points="496.5,-758.5 496.5,-758.5 666.5,-758.5 666.5,-758.5 496.5,-758.5"/>
<polygon fill="none" stroke="#666666" points="496.5,-742 496.5,-813 666.5,-813 666.5,-742 496.5,-742"/>
</a>
</g>
</g>
<!-- Node6&#45;&gt;Node5 -->
<g id="edge5_Node000005_Node000006" class="edge">
<title>Node6&#45;&gt;Node5</title>
<g id="a_edge5_Node000005_Node000006"><a xlink:title=" ">
<path fill="none" stroke="#63b8ff" d="M581.5,-731.8C581.5,-692.07 581.5,-634.15 581.5,-593.57"/>
<polygon fill="none" stroke="#63b8ff" points="578,-731.99 581.5,-741.99 585,-731.99 578,-731.99"/>
</a>
</g>
</g>
<!-- Node7&#45;&gt;Node1 -->
<g id="edge6_Node000001_Node000007" class="edge">
<title>Node7&#45;&gt;Node1</title>
<g id="a_edge6_Node000001_Node000007"><a xlink:title=" ">
<path fill="none" stroke="#63b8ff" d="M434.32,-373.81C436.51,-365.3 438.7,-356.76 440.9,-348.25"/>
<polygon fill="none" stroke="#63b8ff" points="430.86,-373.2 431.75,-383.76 437.64,-374.95 430.86,-373.2"/>
</a>
</g>
</g>
<!-- Node8 -->
<g id="Node000008" class="node">
<title>Node8</title>
<g id="a_Node000008"><a xlink:href="structtracking_1_1motion_1_1contract_1_1StateMemIntf.html" target="_top" xlink:title=" ">
<polygon fill="white" stroke="transparent" points="472.5,-807.5 322.5,-807.5 322.5,-747.5 472.5,-747.5 472.5,-807.5"/>
<text text-anchor="start" x="327.5" y="-795.5" font-family="Helvetica,sans-Serif" font-size="10.00">tracking::motion::contract</text>
<text text-anchor="start" x="327.5" y="-784.5" font-family="Helvetica,sans-Serif" font-size="10.00">::StateMemIntf&lt; ImplType &gt;</text>
<text text-anchor="start" x="395.5" y="-769.5" font-family="Helvetica,sans-Serif" font-size="10.00"> </text>
<text text-anchor="start" x="340" y="-754.5" font-family="Helvetica,sans-Serif" font-size="10.00">+</text>
<text text-anchor="start" x="366.5" y="-754.5" font-family="Helvetica,sans-Serif" font-size="10.00">StateMemIntf()</text>
<polygon fill="#666666" stroke="#666666" points="322.5,-779.5 322.5,-779.5 472.5,-779.5 472.5,-779.5 322.5,-779.5"/>
<polygon fill="#666666" stroke="#666666" points="322.5,-764.5 322.5,-764.5 472.5,-764.5 472.5,-764.5 322.5,-764.5"/>
<polygon fill="none" stroke="#666666" points="322.5,-747.5 322.5,-807.5 472.5,-807.5 472.5,-747.5 322.5,-747.5"/>
</a>
</g>
</g>
<!-- Node8&#45;&gt;Node7 -->
<g id="edge7_Node000007_Node000008" class="edge">
<title>Node8&#45;&gt;Node7</title>
<g id="a_edge7_Node000007_Node000008"><a xlink:title=" ">
<path fill="none" stroke="#63b8ff" d="M396.31,-737.3C396.03,-727.95 395.71,-717.41 395.36,-706.19"/>
<polygon fill="none" stroke="#63b8ff" points="392.81,-737.42 396.61,-747.31 399.81,-737.21 392.81,-737.42"/>
</a>
</g>
</g>
<!-- Node9 -->
<g id="Node000009" class="node">
<title>Node9</title>
<g id="a_Node000009"><a xlink:href="classtracking_1_1base_1_1contract_1_1RequireCopyIntf.html" target="_top" xlink:title=" ">
<polygon fill="white" stroke="transparent" points="388.5,-909 226.5,-909 226.5,-849 388.5,-849 388.5,-909"/>
<text text-anchor="start" x="231.5" y="-897" font-family="Helvetica,sans-Serif" font-size="10.00">tracking::base::contract</text>
<text text-anchor="start" x="231.5" y="-886" font-family="Helvetica,sans-Serif" font-size="10.00">::RequireCopyIntf&lt; ImplType &gt;</text>
<text text-anchor="start" x="305.5" y="-871" font-family="Helvetica,sans-Serif" font-size="10.00"> </text>
<text text-anchor="start" x="244" y="-856" font-family="Helvetica,sans-Serif" font-size="10.00">+</text>
<text text-anchor="start" x="270.5" y="-856" font-family="Helvetica,sans-Serif" font-size="10.00">RequireCopyIntf()</text>
<polygon fill="#666666" stroke="#666666" points="226.5,-881 226.5,-881 388.5,-881 388.5,-881 226.5,-881"/>
<polygon fill="#666666" stroke="#666666" points="226.5,-866 226.5,-866 388.5,-866 388.5,-866 226.5,-866"/>
<polygon fill="none" stroke="#666666" points="226.5,-849 226.5,-909 388.5,-909 388.5,-849 226.5,-849"/>
</a>
</g>
</g>
<!-- Node9&#45;&gt;Node8 -->
<g id="edge8_Node000008_Node000009" class="edge">
<title>Node9&#45;&gt;Node8</title>
<g id="a_edge8_Node000008_Node000009"><a xlink:title=" ">
<path fill="none" stroke="#63b8ff" d="M340.56,-841.45C350.6,-830.35 361.49,-818.31 371.04,-807.76"/>
<polygon fill="none" stroke="#63b8ff" points="337.89,-839.19 333.77,-848.95 343.08,-843.88 337.89,-839.19"/>
</a>
</g>
</g>
<!-- Node10 -->
<g id="Node000010" class="node">
<title>Node10</title>
<g id="a_Node000010"><a xlink:href="classtracking_1_1base_1_1contract_1_1RequireMoveIntf.html" target="_top" xlink:title=" ">
<polygon fill="white" stroke="transparent" points="570.5,-909 406.5,-909 406.5,-849 570.5,-849 570.5,-909"/>
<text text-anchor="start" x="411.5" y="-897" font-family="Helvetica,sans-Serif" font-size="10.00">tracking::base::contract</text>
<text text-anchor="start" x="411.5" y="-886" font-family="Helvetica,sans-Serif" font-size="10.00">::RequireMoveIntf&lt; ImplType &gt;</text>
<text text-anchor="start" x="486.5" y="-871" font-family="Helvetica,sans-Serif" font-size="10.00"> </text>
<text text-anchor="start" x="424" y="-856" font-family="Helvetica,sans-Serif" font-size="10.00">+</text>
<text text-anchor="start" x="450.5" y="-856" font-family="Helvetica,sans-Serif" font-size="10.00">RequireMoveIntf()</text>
<polygon fill="#666666" stroke="#666666" points="406.5,-881 406.5,-881 570.5,-881 570.5,-881 406.5,-881"/>
<polygon fill="#666666" stroke="#666666" points="406.5,-866 406.5,-866 570.5,-866 570.5,-866 406.5,-866"/>
<polygon fill="none" stroke="#666666" points="406.5,-849 406.5,-909 570.5,-909 570.5,-849 406.5,-849"/>
</a>
</g>
</g>
<!-- Node10&#45;&gt;Node8 -->
<g id="edge9_Node000008_Node000010" class="edge">
<title>Node10&#45;&gt;Node8</title>
<g id="a_edge9_Node000008_Node000010"><a xlink:title=" ">
<path fill="none" stroke="#63b8ff" d="M455.07,-841.45C444.92,-830.35 433.91,-818.31 424.26,-807.76"/>
<polygon fill="none" stroke="#63b8ff" points="452.6,-843.94 461.93,-848.95 457.77,-839.21 452.6,-843.94"/>
</a>
</g>
</g>
<!-- Node11 -->
<g id="Node000011" class="node">
<title>Node11</title>
<g id="a_Node000011"><a xlink:href="classtracking_1_1base_1_1contract_1_1RequireAbstractIntf.html" target="_top" xlink:title=" ">
<polygon fill="white" stroke="transparent" points="884.5,-586 686.5,-586 686.5,-504 884.5,-504 884.5,-586"/>
<text text-anchor="start" x="691.5" y="-574" font-family="Helvetica,sans-Serif" font-size="10.00">tracking::base::contract</text>
<text text-anchor="start" x="691.5" y="-563" font-family="Helvetica,sans-Serif" font-size="10.00">::RequireAbstractIntf&lt;</text>
<text text-anchor="start" x="691.5" y="-552" font-family="Helvetica,sans-Serif" font-size="10.00"> ExtendedMotionModel&lt; MotionModel</text>
<text text-anchor="start" x="723.5" y="-541" font-family="Helvetica,sans-Serif" font-size="10.00">_, MotionModelTrait_ &gt; &gt;</text>
<text text-anchor="start" x="783.5" y="-526" font-family="Helvetica,sans-Serif" font-size="10.00"> </text>
<text text-anchor="start" x="709" y="-511" font-family="Helvetica,sans-Serif" font-size="10.00">+</text>
<text text-anchor="start" x="740.5" y="-511" font-family="Helvetica,sans-Serif" font-size="10.00">RequireAbstractIntf()</text>
<polygon fill="#666666" stroke="#666666" points="686.5,-536 686.5,-536 884.5,-536 884.5,-536 686.5,-536"/>
<polygon fill="#666666" stroke="#666666" points="686.5,-521 686.5,-521 884.5,-521 884.5,-521 686.5,-521"/>
<polygon fill="none" stroke="#666666" points="686.5,-504 686.5,-586 884.5,-586 884.5,-504 686.5,-504"/>
</a>
</g>
</g>
<!-- Node11&#45;&gt;Node1 -->
<g id="edge11_Node000001_Node000011" class="edge">
<title>Node11&#45;&gt;Node1</title>
<g id="a_edge11_Node000001_Node000011"><a xlink:title=" ">
<path fill="none" stroke="#63b8ff" d="M754.94,-495.35C733.98,-462.97 704.92,-419.94 676.5,-384 644.79,-343.91 607.32,-301.9 574,-266.14"/>
<polygon fill="none" stroke="#63b8ff" points="752,-497.25 760.36,-503.76 757.89,-493.46 752,-497.25"/>
</a>
</g>
</g>
</g>
</svg>

<g id="navigator" transform="translate(0 0)" fill="#404254">
  <rect fill="#f2f5e9" fill-opacity="0.5" stroke="#606060" stroke-width=".5" x="0" y="0" width="60" height="60"/>
  <use id="zoomplus" xlink:href="#zoomPlus" x="17" y="9" onmousedown="handleZoom(evt,'in')"/>
  <use id="zoomminus" xlink:href="#zoomMin" x="42" y="9" onmousedown="handleZoom(evt,'out')"/>
  <use id="reset" xlink:href="#resetDef" x="30" y="36" onmousedown="handleReset()"/>
   <use id="arrowup" xlink:href="#arrowUp" x="0" y="0" onmousedown="handlePan(0,-1)"/>
  <use id="arrowright" xlink:href="#arrowRight" x="0" y="0" onmousedown="handlePan(1,0)"/>
  <use id="arrowdown" xlink:href="#arrowDown" x="0" y="0" onmousedown="handlePan(0,1)"/>
  <use id="arrowleft" xlink:href="#arrowLeft" x="0" y="0" onmousedown="handlePan(-1,0)"/>
</g>
<svg viewBox="0 0 15 15" width="100%" height="30px" preserveAspectRatio="xMaxYMin meet">
 <g id="arrow_out" transform="scale(0.3 0.3)">
  <a xlink:href="classtracking_1_1motion_1_1ExtendedMotionModel__inherit__graph_org.svg" target="_base">
   <rect id="button" ry="5" rx="5" y="6" x="6" height="38" width="38"
        fill="#f2f5e9" fill-opacity="0.5" stroke="#606060" stroke-width="1.0"/>
   <path id="arrow"
     d="M 11.500037,31.436501 C 11.940474,20.09759 22.043105,11.32322 32.158766,21.979434 L 37.068811,17.246167 C 37.068811,17.246167 37.088388,32 37.088388,32 L 22.160133,31.978069 C 22.160133,31.978069 26.997745,27.140456 26.997745,27.140456 C 18.528582,18.264221 13.291696,25.230495 11.500037,31.436501 z"
     style="fill:#404040;"/>
  </a>
 </g>
</svg>

<style type='text/css'>
<![CDATA[
[data-mouse-over-selected='false'] { opacity: 0.7; }
[data-mouse-over-selected='true']  { opacity: 1.0; }
]]>
</style>
<script type="application/ecmascript"><![CDATA[
document.addEventListener('DOMContentLoaded', (event) => {
  highlightEdges();
  highlightAdjacentNodes();
});
]]></script>
</svg>
