<?xml version="1.0" encoding="UTF-8" standalone="no"?>
<!DOCTYPE svg PUBLIC "-//W3C//DTD SVG 1.1//EN"
 "http://www.w3.org/Graphics/SVG/1.1/DTD/svg11.dtd">
<!-- Generated by graphviz version 2.43.0 (0)
 -->
<!-- Title: tracking::math::CovarianceMatrixFull::composed_inverse Pages: 1 -->
<svg width="746pt" height="108pt"
 viewBox="0.00 0.00 746.00 108.00" xmlns="http://www.w3.org/2000/svg" xmlns:xlink="http://www.w3.org/1999/xlink">
<g id="graph0" class="graph" transform="scale(1 1) rotate(0) translate(4 104)">
<title>tracking::math::CovarianceMatrixFull::composed_inverse</title>
<!-- Node1 -->
<g id="Node000001" class="node">
<title>Node1</title>
<g id="a_Node000001"><a xlink:title="Compute inverse as full covariance matrix.">
<polygon fill="#999999" stroke="#666666" points="163,-64.5 0,-64.5 0,-34.5 163,-34.5 163,-64.5"/>
<text text-anchor="start" x="8" y="-52.5" font-family="Helvetica,sans-Serif" font-size="10.00">tracking::math::Covariance</text>
<text text-anchor="middle" x="81.5" y="-41.5" font-family="Helvetica,sans-Serif" font-size="10.00">MatrixFull::composed_inverse</text>
</a>
</g>
</g>
<!-- Node2 -->
<g id="Node000002" class="node">
<title>Node2</title>
<g id="a_Node000002"><a xlink:href="classtracking_1_1math_1_1CovarianceMatrixFull.html#a3ca0f4a537a5362a74ef765ef46c1986" target="_top" xlink:title="Calculates the matrix inverse using Cholesky decomposition.">
<polygon fill="white" stroke="#666666" points="348,-64.5 199,-64.5 199,-34.5 348,-34.5 348,-64.5"/>
<text text-anchor="start" x="207" y="-52.5" font-family="Helvetica,sans-Serif" font-size="10.00">tracking::math::Covariance</text>
<text text-anchor="middle" x="273.5" y="-41.5" font-family="Helvetica,sans-Serif" font-size="10.00">MatrixFull::inverse</text>
</a>
</g>
</g>
<!-- Node1&#45;&gt;Node2 -->
<g id="edge1_Node000001_Node000002" class="edge">
<title>Node1&#45;&gt;Node2</title>
<g id="a_edge1_Node000001_Node000002"><a xlink:title=" ">
<path fill="none" stroke="#63b8ff" d="M163.08,-49.5C171.49,-49.5 180.06,-49.5 188.51,-49.5"/>
<polygon fill="#63b8ff" stroke="#63b8ff" points="188.74,-53 198.74,-49.5 188.74,-46 188.74,-53"/>
</a>
</g>
</g>
<!-- Node3 -->
<g id="Node000003" class="node">
<title>Node3</title>
<g id="a_Node000003"><a xlink:href="classtracking_1_1math_1_1CovarianceMatrixFull.html#a39cbdd384d2c9714aa87c4a80983a0e6" target="_top" xlink:title="Construct an Identity matrix.">
<polygon fill="white" stroke="#666666" points="538,-91.5 389,-91.5 389,-61.5 538,-61.5 538,-91.5"/>
<text text-anchor="start" x="397" y="-79.5" font-family="Helvetica,sans-Serif" font-size="10.00">tracking::math::Covariance</text>
<text text-anchor="middle" x="463.5" y="-68.5" font-family="Helvetica,sans-Serif" font-size="10.00">MatrixFull::Identity</text>
</a>
</g>
</g>
<!-- Node2&#45;&gt;Node3 -->
<g id="edge2_Node000002_Node000003" class="edge">
<title>Node2&#45;&gt;Node3</title>
<g id="a_edge2_Node000002_Node000003"><a xlink:title=" ">
<path fill="none" stroke="#63b8ff" d="M348.26,-60.09C358.29,-61.53 368.65,-63.02 378.83,-64.48"/>
<polygon fill="#63b8ff" stroke="#63b8ff" points="378.55,-67.98 388.95,-65.94 379.55,-61.05 378.55,-67.98"/>
</a>
</g>
</g>
<!-- Node5 -->
<g id="Node000005" class="node">
<title>Node5</title>
<g id="a_Node000005"><a xlink:href="classtracking_1_1math_1_1SquareMatrix.html#a83aee3d96b9a570cf86fd8b82151f1a3" target="_top" xlink:title="Fast transpose without changing the layout (zero&#45;copy view)">
<polygon fill="white" stroke="#666666" points="543,-40.5 384,-40.5 384,-10.5 543,-10.5 543,-40.5"/>
<text text-anchor="start" x="392" y="-28.5" font-family="Helvetica,sans-Serif" font-size="10.00">tracking::math::SquareMatrix</text>
<text text-anchor="middle" x="463.5" y="-17.5" font-family="Helvetica,sans-Serif" font-size="10.00">::transpose</text>
</a>
</g>
</g>
<!-- Node2&#45;&gt;Node5 -->
<g id="edge4_Node000002_Node000005" class="edge">
<title>Node2&#45;&gt;Node5</title>
<g id="a_edge4_Node000002_Node000005"><a xlink:title=" ">
<path fill="none" stroke="#63b8ff" d="M348.26,-40.08C356.69,-39.01 365.35,-37.9 373.94,-36.8"/>
<polygon fill="#63b8ff" stroke="#63b8ff" points="374.51,-40.26 383.99,-35.52 373.63,-33.32 374.51,-40.26"/>
</a>
</g>
</g>
<!-- Node4 -->
<g id="Node000004" class="node">
<title>Node4</title>
<g id="a_Node000004"><a xlink:href="classtracking_1_1math_1_1SquareMatrix.html#a1767678675efd8983ce5beab4c53b2d7" target="_top" xlink:title="Construct an identity matrix with ones on the diagonal and zeros elsewhere.">
<polygon fill="white" stroke="#666666" points="738,-100 579,-100 579,-59 738,-59 738,-100"/>
<text text-anchor="start" x="587" y="-88" font-family="Helvetica,sans-Serif" font-size="10.00">tracking::math::SquareMatrix</text>
<text text-anchor="start" x="587" y="-77" font-family="Helvetica,sans-Serif" font-size="10.00">&lt; ValueType_, Size_, true</text>
<text text-anchor="middle" x="658.5" y="-66" font-family="Helvetica,sans-Serif" font-size="10.00"> &gt;::Identity</text>
</a>
</g>
</g>
<!-- Node3&#45;&gt;Node4 -->
<g id="edge3_Node000003_Node000004" class="edge">
<title>Node3&#45;&gt;Node4</title>
<g id="a_edge3_Node000003_Node000004"><a xlink:title=" ">
<path fill="none" stroke="#63b8ff" d="M538.02,-77.64C548,-77.8 558.34,-77.96 568.56,-78.12"/>
<polygon fill="#63b8ff" stroke="#63b8ff" points="568.67,-81.62 578.73,-78.28 568.78,-74.62 568.67,-81.62"/>
</a>
</g>
</g>
<!-- Node6 -->
<g id="Node000006" class="node">
<title>Node6</title>
<g id="a_Node000006"><a xlink:href="classtracking_1_1math_1_1Matrix.html#a478f0eea63246477537c07d88584371d" target="_top" xlink:title="Fast transpose without changing the layout (zero&#45;copy view)">
<polygon fill="white" stroke="#666666" points="736,-41 581,-41 581,0 736,0 736,-41"/>
<text text-anchor="start" x="589" y="-29" font-family="Helvetica,sans-Serif" font-size="10.00">tracking::math::Matrix</text>
<text text-anchor="start" x="589" y="-18" font-family="Helvetica,sans-Serif" font-size="10.00">&lt; ValueType_, Size_, Size</text>
<text text-anchor="middle" x="658.5" y="-7" font-family="Helvetica,sans-Serif" font-size="10.00">_, IsRowMajor_ &gt;::transpose</text>
</a>
</g>
</g>
<!-- Node5&#45;&gt;Node6 -->
<g id="edge5_Node000005_Node000006" class="edge">
<title>Node5&#45;&gt;Node6</title>
<g id="a_edge5_Node000005_Node000006"><a xlink:title=" ">
<path fill="none" stroke="#63b8ff" d="M543,-23.47C552.2,-23.23 561.62,-22.98 570.92,-22.74"/>
<polygon fill="#63b8ff" stroke="#63b8ff" points="571.04,-26.24 580.94,-22.48 570.86,-19.24 571.04,-26.24"/>
</a>
</g>
</g>
</g>
</svg>
