<?xml version="1.0" encoding="UTF-8" standalone="no"?>
<!DOCTYPE svg PUBLIC "-//W3C//DTD SVG 1.1//EN"
 "http://www.w3.org/Graphics/SVG/1.1/DTD/svg11.dtd">
<!-- Generated by graphviz version 2.43.0 (0)
 -->
<!-- Title: tracking::math::CovarianceMatrixFactored&lt; ValueType_, Size_ &gt; Pages: 1 -->
<svg width="352pt" height="518pt"
 viewBox="0.00 0.00 352.00 518.00" xmlns="http://www.w3.org/2000/svg" xmlns:xlink="http://www.w3.org/1999/xlink">
<g id="graph0" class="graph" transform="scale(1 1) rotate(0) translate(4 514)">
<title>tracking::math::CovarianceMatrixFactored&lt; ValueType_, Size_ &gt;</title>
<!-- Node1 -->
<g id="Node000001" class="node">
<title>Node1</title>
<g id="a_Node000001"><a xlink:title="UDU factored covariance matrix for numerical stability.">
<polygon fill="#999999" stroke="transparent" points="253.5,-296 88.5,-296 88.5,0 253.5,0 253.5,-296"/>
<text text-anchor="start" x="104.5" y="-284" font-family="Helvetica,sans-Serif" font-size="10.00">tracking::math::Covariance</text>
<text text-anchor="start" x="104.5" y="-273" font-family="Helvetica,sans-Serif" font-size="10.00">MatrixFactored&lt; ValueType</text>
<text text-anchor="start" x="147" y="-262" font-family="Helvetica,sans-Serif" font-size="10.00">_, Size_ &gt;</text>
<text text-anchor="start" x="93" y="-247" font-family="Helvetica,sans-Serif" font-size="10.00">+</text>
<text text-anchor="start" x="106" y="-247" font-family="Helvetica,sans-Serif" font-size="10.00">dim</text>
<text text-anchor="start" x="95.5" y="-232" font-family="Helvetica,sans-Serif" font-size="10.00">&#45;</text>
<text text-anchor="start" x="106" y="-232" font-family="Helvetica,sans-Serif" font-size="10.00">_u</text>
<text text-anchor="start" x="95.5" y="-217" font-family="Helvetica,sans-Serif" font-size="10.00">&#45;</text>
<text text-anchor="start" x="106" y="-217" font-family="Helvetica,sans-Serif" font-size="10.00">_d</text>
<text text-anchor="start" x="93" y="-202" font-family="Helvetica,sans-Serif" font-size="10.00">+</text>
<text text-anchor="start" x="106" y="-202" font-family="Helvetica,sans-Serif" font-size="10.00">CovarianceMatrixFactored()</text>
<text text-anchor="start" x="93" y="-187" font-family="Helvetica,sans-Serif" font-size="10.00">+</text>
<text text-anchor="start" x="106" y="-187" font-family="Helvetica,sans-Serif" font-size="10.00">CovarianceMatrixFactored()</text>
<text text-anchor="start" x="93" y="-172" font-family="Helvetica,sans-Serif" font-size="10.00">+</text>
<text text-anchor="start" x="106" y="-172" font-family="Helvetica,sans-Serif" font-size="10.00">CovarianceMatrixFactored()</text>
<text text-anchor="start" x="93" y="-157" font-family="Helvetica,sans-Serif" font-size="10.00">+</text>
<text text-anchor="start" x="106" y="-157" font-family="Helvetica,sans-Serif" font-size="10.00">operator=()</text>
<text text-anchor="start" x="93" y="-142" font-family="Helvetica,sans-Serif" font-size="10.00">+</text>
<text text-anchor="start" x="106" y="-142" font-family="Helvetica,sans-Serif" font-size="10.00">operator=()</text>
<text text-anchor="start" x="93" y="-127" font-family="Helvetica,sans-Serif" font-size="10.00">+</text>
<text text-anchor="start" x="106" y="-127" font-family="Helvetica,sans-Serif" font-size="10.00">~CovarianceMatrixFactored()</text>
<text text-anchor="start" x="93" y="-112" font-family="Helvetica,sans-Serif" font-size="10.00">+</text>
<text text-anchor="start" x="106" y="-112" font-family="Helvetica,sans-Serif" font-size="10.00">CovarianceMatrixFactored()</text>
<text text-anchor="start" x="93" y="-97" font-family="Helvetica,sans-Serif" font-size="10.00">+</text>
<text text-anchor="start" x="106" y="-97" font-family="Helvetica,sans-Serif" font-size="10.00">setIdentity()</text>
<text text-anchor="start" x="93" y="-82" font-family="Helvetica,sans-Serif" font-size="10.00">+</text>
<text text-anchor="start" x="106" y="-82" font-family="Helvetica,sans-Serif" font-size="10.00">operator()()</text>
<text text-anchor="start" x="93" y="-67" font-family="Helvetica,sans-Serif" font-size="10.00">+</text>
<text text-anchor="start" x="106" y="-67" font-family="Helvetica,sans-Serif" font-size="10.00">operator()()</text>
<text text-anchor="start" x="106" y="-52" font-family="Helvetica,sans-Serif" font-size="10.00">and 17 more...</text>
<text text-anchor="start" x="93" y="-37" font-family="Helvetica,sans-Serif" font-size="10.00">+</text>
<text text-anchor="start" x="106" y="-37" font-family="Helvetica,sans-Serif" font-size="10.00">Identity()</text>
<text text-anchor="start" x="93" y="-22" font-family="Helvetica,sans-Serif" font-size="10.00">+</text>
<text text-anchor="start" x="106" y="-22" font-family="Helvetica,sans-Serif" font-size="10.00">FromDiagonal()</text>
<text text-anchor="start" x="93" y="-7" font-family="Helvetica,sans-Serif" font-size="10.00">+</text>
<text text-anchor="start" x="106" y="-7" font-family="Helvetica,sans-Serif" font-size="10.00">FromList()</text>
<polygon fill="#666666" stroke="#666666" points="89,-257 89,-257 254,-257 254,-257 89,-257"/>
<polygon fill="#666666" stroke="#666666" points="89,-212 89,-212 104,-212 104,-212 89,-212"/>
<polygon fill="#666666" stroke="#666666" points="104,-212 104,-212 254,-212 254,-212 104,-212"/>
<polygon fill="none" stroke="#666666" points="88.5,0 88.5,-296 253.5,-296 253.5,0 88.5,0"/>
</a>
</g>
</g>
<!-- Node2 -->
<g id="Node000002" class="node">
<title>Node2</title>
<g id="a_Node000002"><a xlink:href="structtracking_1_1math_1_1contract_1_1CovarianceMatrixIntf.html" target="_top" xlink:title=" ">
<polygon fill="white" stroke="transparent" points="245.5,-414 96.5,-414 96.5,-332 245.5,-332 245.5,-414"/>
<text text-anchor="start" x="102" y="-402" font-family="Helvetica,sans-Serif" font-size="10.00">tracking::math::contract</text>
<text text-anchor="start" x="102" y="-391" font-family="Helvetica,sans-Serif" font-size="10.00">::CovarianceMatrixIntf</text>
<text text-anchor="start" x="102" y="-380" font-family="Helvetica,sans-Serif" font-size="10.00">&lt; CovarianceMatrixFactored</text>
<text text-anchor="start" x="111" y="-369" font-family="Helvetica,sans-Serif" font-size="10.00">&lt; ValueType_, Size_ &gt; &gt;</text>
<text text-anchor="start" x="169.5" y="-354" font-family="Helvetica,sans-Serif" font-size="10.00"> </text>
<text text-anchor="start" x="105" y="-339" font-family="Helvetica,sans-Serif" font-size="10.00">+</text>
<text text-anchor="start" x="122" y="-339" font-family="Helvetica,sans-Serif" font-size="10.00">CovarianceMatrixIntf()</text>
<polygon fill="#666666" stroke="#666666" points="97,-364 97,-364 246,-364 246,-364 97,-364"/>
<polygon fill="#666666" stroke="#666666" points="97,-349 97,-349 246,-349 246,-349 97,-349"/>
<polygon fill="none" stroke="#666666" points="96.5,-332 96.5,-414 245.5,-414 245.5,-332 96.5,-332"/>
</a>
</g>
</g>
<!-- Node2&#45;&gt;Node1 -->
<g id="edge1_Node000001_Node000002" class="edge">
<title>Node2&#45;&gt;Node1</title>
<g id="a_edge1_Node000001_Node000002"><a xlink:title=" ">
<path fill="none" stroke="#63b8ff" d="M171,-321.74C171,-313.74 171,-305.13 171,-296.19"/>
<polygon fill="none" stroke="#63b8ff" points="167.5,-321.87 171,-331.87 174.5,-321.87 167.5,-321.87"/>
</a>
</g>
</g>
<!-- Node3 -->
<g id="Node000003" class="node">
<title>Node3</title>
<g id="a_Node000003"><a xlink:href="classtracking_1_1base_1_1contract_1_1RequireCopyIntf.html" target="_top" xlink:title=" ">
<polygon fill="white" stroke="transparent" points="162,-510 0,-510 0,-450 162,-450 162,-510"/>
<text text-anchor="start" x="5" y="-498" font-family="Helvetica,sans-Serif" font-size="10.00">tracking::base::contract</text>
<text text-anchor="start" x="5" y="-487" font-family="Helvetica,sans-Serif" font-size="10.00">::RequireCopyIntf&lt; ImplType &gt;</text>
<text text-anchor="start" x="79" y="-472" font-family="Helvetica,sans-Serif" font-size="10.00"> </text>
<text text-anchor="start" x="17.5" y="-457" font-family="Helvetica,sans-Serif" font-size="10.00">+</text>
<text text-anchor="start" x="44" y="-457" font-family="Helvetica,sans-Serif" font-size="10.00">RequireCopyIntf()</text>
<polygon fill="#666666" stroke="#666666" points="0,-482 0,-482 162,-482 162,-482 0,-482"/>
<polygon fill="#666666" stroke="#666666" points="0,-467 0,-467 162,-467 162,-467 0,-467"/>
<polygon fill="none" stroke="#666666" points="0,-450 0,-510 162,-510 162,-450 0,-450"/>
</a>
</g>
</g>
<!-- Node3&#45;&gt;Node2 -->
<g id="edge2_Node000002_Node000003" class="edge">
<title>Node3&#45;&gt;Node2</title>
<g id="a_edge2_Node000002_Node000003"><a xlink:title=" ">
<path fill="none" stroke="#63b8ff" d="M112.71,-442.01C120.45,-432.97 128.78,-423.26 136.65,-414.08"/>
<polygon fill="none" stroke="#63b8ff" points="109.92,-439.88 106.07,-449.75 115.24,-444.44 109.92,-439.88"/>
</a>
</g>
</g>
<!-- Node4 -->
<g id="Node000004" class="node">
<title>Node4</title>
<g id="a_Node000004"><a xlink:href="classtracking_1_1base_1_1contract_1_1RequireMoveIntf.html" target="_top" xlink:title=" ">
<polygon fill="white" stroke="transparent" points="344,-510 180,-510 180,-450 344,-450 344,-510"/>
<text text-anchor="start" x="185" y="-498" font-family="Helvetica,sans-Serif" font-size="10.00">tracking::base::contract</text>
<text text-anchor="start" x="185" y="-487" font-family="Helvetica,sans-Serif" font-size="10.00">::RequireMoveIntf&lt; ImplType &gt;</text>
<text text-anchor="start" x="260" y="-472" font-family="Helvetica,sans-Serif" font-size="10.00"> </text>
<text text-anchor="start" x="197.5" y="-457" font-family="Helvetica,sans-Serif" font-size="10.00">+</text>
<text text-anchor="start" x="224" y="-457" font-family="Helvetica,sans-Serif" font-size="10.00">RequireMoveIntf()</text>
<polygon fill="#666666" stroke="#666666" points="180,-482 180,-482 344,-482 344,-482 180,-482"/>
<polygon fill="#666666" stroke="#666666" points="180,-467 180,-467 344,-467 344,-467 180,-467"/>
<polygon fill="none" stroke="#666666" points="180,-450 180,-510 344,-510 344,-450 180,-450"/>
</a>
</g>
</g>
<!-- Node4&#45;&gt;Node2 -->
<g id="edge3_Node000002_Node000004" class="edge">
<title>Node4&#45;&gt;Node2</title>
<g id="a_edge3_Node000002_Node000004"><a xlink:title=" ">
<path fill="none" stroke="#63b8ff" d="M229.94,-442.01C222.11,-432.97 213.69,-423.26 205.73,-414.08"/>
<polygon fill="none" stroke="#63b8ff" points="227.46,-444.49 236.65,-449.75 232.75,-439.9 227.46,-444.49"/>
</a>
</g>
</g>
</g>
</svg>
