<?xml version="1.0" encoding="UTF-8" standalone="no"?>
<!DOCTYPE svg PUBLIC "-//W3C//DTD SVG 1.1//EN"
 "http://www.w3.org/Graphics/SVG/1.1/DTD/svg11.dtd">
<!-- Generated by graphviz version 2.43.0 (0)
 -->
<!-- Title: tracking::math::Matrix::at_unsafe Pages: 1 -->
<!--zoomable 628 -->

<svg id="main" version="1.1" xmlns="http://www.w3.org/2000/svg" xmlns:xlink="http://www.w3.org/1999/xlink" xml:space="preserve" onload="init(evt)">
<style type="text/css"><![CDATA[
.node, .edge {opacity: 0.7;}
.node.selected, .edge.selected {opacity: 1;}
.edge:hover path { stroke: red; }
.edge:hover polygon { stroke: red; fill: red; }
]]></style>

<defs>
  <circle id="rim" cx="0" cy="0" r="7"/>
  <circle id="rim2" cx="0" cy="0" r="3.5"/>
  <g id="zoomPlus">
    <use xlink:href="#rim" fill="#404040"><set attributeName="fill" to="#808080" begin="zoomplus.mouseover" end="zoomplus.mouseout"/></use>
    <path d="M-4,0h8M0,-4v8" fill="none" stroke="white" stroke-width="1.5" pointer-events="none"/>
  </g>
  <g id="zoomMin">
    <use xlink:href="#rim" fill="#404040"><set attributeName="fill" to="#808080" begin="zoomminus.mouseover" end="zoomminus.mouseout"/></use>
    <path d="M-4,0h8" fill="none" stroke="white" stroke-width="1.5" pointer-events="none"/>
  </g>
  <g id="arrowUp" transform="translate(30 24)">
    <use xlink:href="#rim"/>
    <path pointer-events="none" fill="none" stroke="white" stroke-width="1.5" d="M0,-3.0v7 M-2.5,-0.5L0,-3.0L2.5,-0.5"/>
  </g>
  <g id="arrowRight" transform="rotate(90) translate(36 -43)">
    <use xlink:href="#rim"/>
    <path pointer-events="none" fill="none" stroke="white" stroke-width="1.5" d="M0,-3.0v7 M-2.5,-0.5L0,-3.0L2.5,-0.5"/>
  </g>
  <g id="arrowDown" transform="rotate(180) translate(-30 -48)">
    <use xlink:href="#rim"/>
    <path pointer-events="none" fill="none" stroke="white" stroke-width="1.5" d="M0,-3.0v7 M-2.5,-0.5L0,-3.0L2.5,-0.5"/>
  </g>
  <g id="arrowLeft" transform="rotate(270) translate(-36 17)">
    <use xlink:href="#rim"/>
    <path pointer-events="none" fill="none" stroke="white" stroke-width="1.5" d="M0,-3.0v7 M-2.5,-0.5L0,-3.0L2.5,-0.5"/>
  </g>
  <g id="resetDef">
    <use xlink:href="#rim2" fill="#404040"><set attributeName="fill" to="#808080" begin="reset.mouseover" end="reset.mouseout"/></use>
  </g>
</defs>
<script type="application/ecmascript">
var viewWidth = 578;
var viewHeight = 628;
var sectionId = 'dynsection-1';
</script>
<script type="application/ecmascript" xlink:href="svg.min.js"/>
<svg id="graph" class="graph">
<g id="viewport">
<title>tracking::math::Matrix::at_unsafe</title>
<!-- Node1 -->
<g id="Node000001" class="node">
<title>Node1</title>
<g id="a_Node000001"><a xlink:title="Unsafe element read&#45;only access (no bounds checking)">
<polygon fill="#999999" stroke="#666666" points="570,-299 445,-299 445,-269 570,-269 570,-299"/>
<text text-anchor="start" x="453" y="-287" font-family="Helvetica,sans-Serif" font-size="10.00">tracking::math::Matrix</text>
<text text-anchor="middle" x="507.5" y="-276" font-family="Helvetica,sans-Serif" font-size="10.00">::at_unsafe</text>
</a>
</g>
</g>
<!-- Node2 -->
<g id="Node000002" class="node">
<title>Node2</title>
<g id="a_Node000002"><a xlink:href="classtracking_1_1math_1_1CovarianceMatrixFull.html#a70d258c33ab8284534f22683e26ec06e" target="_top" xlink:title="Compute A*P*A^T in&#45;place (covariance propagation)">
<polygon fill="white" stroke="#666666" points="376.5,-620 227.5,-620 227.5,-590 376.5,-590 376.5,-620"/>
<text text-anchor="start" x="235.5" y="-608" font-family="Helvetica,sans-Serif" font-size="10.00">tracking::math::Covariance</text>
<text text-anchor="middle" x="302" y="-597" font-family="Helvetica,sans-Serif" font-size="10.00">MatrixFull::apaT</text>
</a>
</g>
</g>
<!-- Node1&#45;&gt;Node2 -->
<g id="edge1_Node000001_Node000002" class="edge">
<title>Node1&#45;&gt;Node2</title>
<g id="a_edge1_Node000001_Node000002"><a xlink:title=" ">
<path fill="none" stroke="#63b8ff" d="M506.09,-309.39C503.73,-366.9 489.54,-507.73 409,-581 399.86,-589.32 388.45,-594.95 376.55,-598.72"/>
<polygon fill="#63b8ff" stroke="#63b8ff" points="509.6,-309.16 506.43,-299.05 502.61,-308.93 509.6,-309.16"/>
</a>
</g>
</g>
<!-- Node3 -->
<g id="Node000003" class="node">
<title>Node3</title>
<g id="a_Node000003"><a xlink:href="classtracking_1_1motion_1_1StateCovConverter_3_01MotionModelCA_3_01CovarianceMatrixPolicy___01_4cf241df2807db57c4696e14f1c33a9b2.html#aaf37a300d8f7b3ee9e0b1877781cbb19" target="_top" xlink:title=" ">
<polygon fill="white" stroke="#666666" points="409,-571.5 195,-571.5 195,-508.5 409,-508.5 409,-571.5"/>
<text text-anchor="start" x="203" y="-559.5" font-family="Helvetica,sans-Serif" font-size="10.00">tracking::motion::StateCov</text>
<text text-anchor="start" x="203" y="-548.5" font-family="Helvetica,sans-Serif" font-size="10.00">Converter&lt; MotionModelCA</text>
<text text-anchor="start" x="203" y="-537.5" font-family="Helvetica,sans-Serif" font-size="10.00">&lt; CovarianceMatrixPolicy</text>
<text text-anchor="start" x="203" y="-526.5" font-family="Helvetica,sans-Serif" font-size="10.00">_ &gt;, MotionModelCV&lt; CovarianceMatrix</text>
<text text-anchor="middle" x="302" y="-515.5" font-family="Helvetica,sans-Serif" font-size="10.00">Policy_ &gt; &gt;::convertFrom</text>
</a>
</g>
</g>
<!-- Node1&#45;&gt;Node3 -->
<g id="edge2_Node000001_Node000003" class="edge">
<title>Node1&#45;&gt;Node3</title>
<g id="a_edge2_Node000001_Node000003"><a xlink:title=" ">
<path fill="none" stroke="#63b8ff" d="M501.74,-309.11C492.05,-353.58 465.95,-446.54 409,-500 405.85,-502.96 402.45,-505.71 398.88,-508.26"/>
<polygon fill="#63b8ff" stroke="#63b8ff" points="505.2,-309.65 503.81,-299.14 498.35,-308.22 505.2,-309.65"/>
</a>
</g>
</g>
<!-- Node4 -->
<g id="Node000004" class="node">
<title>Node4</title>
<g id="a_Node000004"><a xlink:href="classtracking_1_1motion_1_1StateCovConverter_3_01MotionModelCV_3_01CovarianceMatrixPolicy___01_4eda10a9c0c0b4c9846df0bedca4b51a2.html#ac312b57d2862336f397aab2fde8fb697" target="_top" xlink:title=" ">
<polygon fill="white" stroke="#666666" points="409,-490.5 195,-490.5 195,-427.5 409,-427.5 409,-490.5"/>
<text text-anchor="start" x="203" y="-478.5" font-family="Helvetica,sans-Serif" font-size="10.00">tracking::motion::StateCov</text>
<text text-anchor="start" x="203" y="-467.5" font-family="Helvetica,sans-Serif" font-size="10.00">Converter&lt; MotionModelCV</text>
<text text-anchor="start" x="203" y="-456.5" font-family="Helvetica,sans-Serif" font-size="10.00">&lt; CovarianceMatrixPolicy</text>
<text text-anchor="start" x="203" y="-445.5" font-family="Helvetica,sans-Serif" font-size="10.00">_ &gt;, MotionModelCA&lt; CovarianceMatrix</text>
<text text-anchor="middle" x="302" y="-434.5" font-family="Helvetica,sans-Serif" font-size="10.00">Policy_ &gt; &gt;::convertFrom</text>
</a>
</g>
</g>
<!-- Node1&#45;&gt;Node4 -->
<g id="edge3_Node000001_Node000004" class="edge">
<title>Node1&#45;&gt;Node4</title>
<g id="a_edge3_Node000001_Node000004"><a xlink:title=" ">
<path fill="none" stroke="#63b8ff" d="M494.46,-308.28C478.62,-337.95 448.14,-387.91 409,-418 404.62,-421.37 399.93,-424.49 395.05,-427.38"/>
<polygon fill="#63b8ff" stroke="#63b8ff" points="497.75,-309.54 499.26,-299.05 491.54,-306.31 497.75,-309.54"/>
</a>
</g>
</g>
<!-- Node5 -->
<g id="Node000005" class="node">
<title>Node5</title>
<g id="a_Node000005"><a xlink:href="namespacetracking_1_1math_1_1conversions.html#a5cfb34890c4b8a46be286892155ed213" target="_top" xlink:title="Creates a single&#45;column Matrix from a Vector.">
<polygon fill="white" stroke="#666666" points="378,-409 226,-409 226,-379 378,-379 378,-409"/>
<text text-anchor="start" x="234" y="-397" font-family="Helvetica,sans-Serif" font-size="10.00">tracking::math::conversions</text>
<text text-anchor="middle" x="302" y="-386" font-family="Helvetica,sans-Serif" font-size="10.00">::MatrixFromVector</text>
</a>
</g>
</g>
<!-- Node1&#45;&gt;Node5 -->
<g id="edge4_Node000001_Node000005" class="edge">
<title>Node1&#45;&gt;Node5</title>
<g id="a_edge4_Node000001_Node000005"><a xlink:title=" ">
<path fill="none" stroke="#63b8ff" d="M486.76,-306.95C468.54,-326.65 439.73,-354.28 409,-370 399.42,-374.9 388.86,-378.8 378.22,-381.92"/>
<polygon fill="#63b8ff" stroke="#63b8ff" points="489.55,-309.08 493.66,-299.31 484.36,-304.39 489.55,-309.08"/>
</a>
</g>
</g>
<!-- Node6 -->
<g id="Node000006" class="node">
<title>Node6</title>
<g id="a_Node000006"><a xlink:href="classtracking_1_1math_1_1Matrix.html#abcffe22dc0aafe575bc41673a938828f" target="_top" xlink:title="Calculates matrix multiplication Self * Other.">
<polygon fill="white" stroke="#666666" points="364.5,-361 239.5,-361 239.5,-331 364.5,-331 364.5,-361"/>
<text text-anchor="start" x="247.5" y="-349" font-family="Helvetica,sans-Serif" font-size="10.00">tracking::math::Matrix</text>
<text text-anchor="middle" x="302" y="-338" font-family="Helvetica,sans-Serif" font-size="10.00">::operator*</text>
</a>
</g>
</g>
<!-- Node1&#45;&gt;Node6 -->
<g id="edge5_Node000001_Node000006" class="edge">
<title>Node1&#45;&gt;Node6</title>
<g id="a_edge5_Node000001_Node000006"><a xlink:title=" ">
<path fill="none" stroke="#63b8ff" d="M462.33,-302.82C445.79,-309.44 426.72,-316.58 409,-322 394.75,-326.36 379.2,-330.32 364.51,-333.71"/>
<polygon fill="#63b8ff" stroke="#63b8ff" points="463.79,-306 471.74,-299 461.16,-299.52 463.79,-306"/>
</a>
</g>
</g>
<!-- Node7 -->
<g id="Node000007" class="node">
<title>Node7</title>
<g id="a_Node000007"><a xlink:href="namespacetracking_1_1math.html#ae8c2f6288ea8b30c11b8f6d055edbc06" target="_top" xlink:title=" ">
<polygon fill="white" stroke="#666666" points="372,-312.5 232,-312.5 232,-293.5 372,-293.5 372,-312.5"/>
<text text-anchor="middle" x="302" y="-300.5" font-family="Helvetica,sans-Serif" font-size="10.00">tracking::math::operator*</text>
</a>
</g>
</g>
<!-- Node1&#45;&gt;Node7 -->
<g id="edge6_Node000001_Node000007" class="edge">
<title>Node1&#45;&gt;Node7</title>
<g id="a_edge6_Node000001_Node000007"><a xlink:title=" ">
<path fill="none" stroke="#63b8ff" d="M434.76,-290.7C414.45,-292.59 392.39,-294.65 372.23,-296.54"/>
<polygon fill="#63b8ff" stroke="#63b8ff" points="435.26,-294.17 444.89,-289.75 434.61,-287.2 435.26,-294.17"/>
</a>
</g>
</g>
<!-- Node10 -->
<g id="Node000010" class="node">
<title>Node10</title>
<g id="a_Node000010"><a xlink:href="namespacetracking_1_1math.html#a3cb17735266f10296c8f695c5a160af3" target="_top" xlink:title="Multiply two matrix views.">
<polygon fill="white" stroke="#666666" points="149.5,-274.5 9.5,-274.5 9.5,-255.5 149.5,-255.5 149.5,-274.5"/>
<text text-anchor="middle" x="79.5" y="-262.5" font-family="Helvetica,sans-Serif" font-size="10.00">tracking::math::operator*</text>
</a>
</g>
</g>
<!-- Node1&#45;&gt;Node10 -->
<g id="edge10_Node000001_Node000010" class="edge">
<title>Node1&#45;&gt;Node10</title>
<g id="a_edge10_Node000001_Node000010"><a xlink:title=" ">
<path fill="none" stroke="#63b8ff" d="M434.14,-280.77C354.61,-277.23 227.79,-271.57 149.59,-268.08"/>
<polygon fill="#63b8ff" stroke="#63b8ff" points="434.41,-284.29 444.56,-281.24 434.72,-277.3 434.41,-284.29"/>
</a>
</g>
</g>
<!-- Node11 -->
<g id="Node000011" class="node">
<title>Node11</title>
<g id="a_Node000011"><a xlink:href="namespacetracking_1_1math.html#ad59b912a93d23b51952426698d3e6c22" target="_top" xlink:title="Add two matrix views element&#45;wise.">
<polygon fill="white" stroke="#666666" points="373.5,-218.5 230.5,-218.5 230.5,-199.5 373.5,-199.5 373.5,-218.5"/>
<text text-anchor="middle" x="302" y="-206.5" font-family="Helvetica,sans-Serif" font-size="10.00">tracking::math::operator+</text>
</a>
</g>
</g>
<!-- Node1&#45;&gt;Node11 -->
<g id="edge11_Node000001_Node000011" class="edge">
<title>Node1&#45;&gt;Node11</title>
<g id="a_edge11_Node000001_Node000011"><a xlink:title=" ">
<path fill="none" stroke="#63b8ff" d="M455.92,-265.36C415.62,-250.51 360.84,-230.32 328.96,-218.57"/>
<polygon fill="#63b8ff" stroke="#63b8ff" points="454.73,-268.65 465.32,-268.82 457.15,-262.08 454.73,-268.65"/>
</a>
</g>
</g>
<!-- Node12 -->
<g id="Node000012" class="node">
<title>Node12</title>
<g id="a_Node000012"><a xlink:href="namespacetracking_1_1math.html#a202ace75a11abc67e81330e799b8827b" target="_top" xlink:title="Subtract two matrix views element&#45;wise.">
<polygon fill="white" stroke="#666666" points="371.5,-163.5 232.5,-163.5 232.5,-144.5 371.5,-144.5 371.5,-163.5"/>
<text text-anchor="middle" x="302" y="-151.5" font-family="Helvetica,sans-Serif" font-size="10.00">tracking::math::operator&#45;</text>
</a>
</g>
</g>
<!-- Node1&#45;&gt;Node12 -->
<g id="edge13_Node000001_Node000012" class="edge">
<title>Node1&#45;&gt;Node12</title>
<g id="a_edge13_Node000001_Node000012"><a xlink:title=" ">
<path fill="none" stroke="#63b8ff" d="M487.52,-260.98C469.29,-240.16 440.01,-209.96 409,-191 388.63,-178.54 363.48,-169.54 342.79,-163.53"/>
<polygon fill="#63b8ff" stroke="#63b8ff" points="485.01,-263.42 494.18,-268.72 490.31,-258.86 485.01,-263.42"/>
</a>
</g>
</g>
<!-- Node13 -->
<g id="Node000013" class="node">
<title>Node13</title>
<g id="a_Node000013"><a xlink:href="classtracking_1_1math_1_1Matrix.html#a5753d9ec2eb71fb4f171235731b8718e" target="_top" xlink:title="Set a block matrix at given position (compile&#45;time parameters)">
<polygon fill="white" stroke="#666666" points="364.5,-126 239.5,-126 239.5,-96 364.5,-96 364.5,-126"/>
<text text-anchor="start" x="247.5" y="-114" font-family="Helvetica,sans-Serif" font-size="10.00">tracking::math::Matrix</text>
<text text-anchor="middle" x="302" y="-103" font-family="Helvetica,sans-Serif" font-size="10.00">::setBlock</text>
</a>
</g>
</g>
<!-- Node1&#45;&gt;Node13 -->
<g id="edge15_Node000001_Node000013" class="edge">
<title>Node1&#45;&gt;Node13</title>
<g id="a_edge15_Node000001_Node000013"><a xlink:title=" ">
<path fill="none" stroke="#63b8ff" d="M497.36,-259.46C483.55,-225.91 454.1,-166.32 409,-135 395.98,-125.96 380.09,-120.27 364.62,-116.7"/>
<polygon fill="#63b8ff" stroke="#63b8ff" points="494.2,-260.98 501.14,-268.98 500.7,-258.39 494.2,-260.98"/>
</a>
</g>
</g>
<!-- Node15 -->
<g id="Node000015" class="node">
<title>Node15</title>
<g id="a_Node000015"><a xlink:href="classtracking_1_1math_1_1Matrix.html#a5f132cb4f3d87e6f18f53ea59b6d3657" target="_top" xlink:title="Set a block matrix at given position.">
<polygon fill="white" stroke="#666666" points="364.5,-78 239.5,-78 239.5,-48 364.5,-48 364.5,-78"/>
<text text-anchor="start" x="247.5" y="-66" font-family="Helvetica,sans-Serif" font-size="10.00">tracking::math::Matrix</text>
<text text-anchor="middle" x="302" y="-55" font-family="Helvetica,sans-Serif" font-size="10.00">::setBlock</text>
</a>
</g>
</g>
<!-- Node1&#45;&gt;Node15 -->
<g id="edge17_Node000001_Node000015" class="edge">
<title>Node1&#45;&gt;Node15</title>
<g id="a_edge17_Node000001_Node000015"><a xlink:title=" ">
<path fill="none" stroke="#63b8ff" d="M501.4,-258.85C491.44,-216.51 465.27,-131.3 409,-87 396.32,-77.02 380.29,-71.03 364.56,-67.48"/>
<polygon fill="#63b8ff" stroke="#63b8ff" points="498.04,-259.88 503.64,-268.88 504.87,-258.36 498.04,-259.88"/>
</a>
</g>
</g>
<!-- Node16 -->
<g id="Node000016" class="node">
<title>Node16</title>
<g id="a_Node000016"><a xlink:href="namespacetracking_1_1math_1_1conversions.html#a0873ae1f700757d4411181cae96cee65" target="_top" xlink:title="Creates a SquareMatrix from a DiagonalMatrix.">
<polygon fill="white" stroke="#666666" points="378,-30 226,-30 226,0 378,0 378,-30"/>
<text text-anchor="start" x="234" y="-18" font-family="Helvetica,sans-Serif" font-size="10.00">tracking::math::conversions</text>
<text text-anchor="middle" x="302" y="-7" font-family="Helvetica,sans-Serif" font-size="10.00">::SquareFromDiagonal</text>
</a>
</g>
</g>
<!-- Node1&#45;&gt;Node16 -->
<g id="edge18_Node000001_Node000016" class="edge">
<title>Node1&#45;&gt;Node16</title>
<g id="a_edge18_Node000001_Node000016"><a xlink:title=" ">
<path fill="none" stroke="#63b8ff" d="M504.11,-258.92C497.95,-209 476.91,-97.06 409,-39 400.11,-31.4 389.31,-26.07 378.04,-22.36"/>
<polygon fill="#63b8ff" stroke="#63b8ff" points="500.63,-259.31 505.23,-268.86 507.58,-258.52 500.63,-259.31"/>
</a>
</g>
</g>
<!-- Node8 -->
<g id="Node000008" class="node">
<title>Node8</title>
<g id="a_Node000008"><a xlink:href="classtracking_1_1math_1_1Vector.html#a0f839b3b261c9a949ba0f0dfa133f7ca" target="_top" xlink:title="Compute the squared Euclidean norm (L2 norm squared) of the vector.">
<polygon fill="white" stroke="#666666" points="142,-360 17,-360 17,-330 142,-330 142,-360"/>
<text text-anchor="start" x="25" y="-348" font-family="Helvetica,sans-Serif" font-size="10.00">tracking::math::Vector</text>
<text text-anchor="middle" x="79.5" y="-337" font-family="Helvetica,sans-Serif" font-size="10.00">::normSq</text>
</a>
</g>
</g>
<!-- Node7&#45;&gt;Node8 -->
<g id="edge7_Node000007_Node000008" class="edge">
<title>Node7&#45;&gt;Node8</title>
<g id="a_edge7_Node000007_Node000008"><a xlink:title=" ">
<path fill="none" stroke="#63b8ff" d="M236.62,-314.32C222.88,-316.8 208.45,-319.44 195,-322 177.87,-325.26 159.33,-328.92 142.25,-332.35"/>
<polygon fill="#63b8ff" stroke="#63b8ff" points="237.27,-317.76 246.49,-312.55 236.03,-310.87 237.27,-317.76"/>
</a>
</g>
</g>
<!-- Node9 -->
<g id="Node000009" class="node">
<title>Node9</title>
<g id="a_Node000009"><a xlink:href="namespacetracking_1_1math.html#a5da1defd9816130013342221228abf76" target="_top" xlink:title="Multiply a matrix by a column view.">
<polygon fill="white" stroke="#666666" points="149.5,-311.5 9.5,-311.5 9.5,-292.5 149.5,-292.5 149.5,-311.5"/>
<text text-anchor="middle" x="79.5" y="-299.5" font-family="Helvetica,sans-Serif" font-size="10.00">tracking::math::operator*</text>
</a>
</g>
</g>
<!-- Node7&#45;&gt;Node9 -->
<g id="edge8_Node000007_Node000009" class="edge">
<title>Node7&#45;&gt;Node9</title>
<g id="a_edge8_Node000007_Node000009"><a xlink:title=" ">
<path fill="none" stroke="#63b8ff" d="M221.56,-302.64C198.09,-302.53 172.58,-302.42 149.8,-302.31"/>
<polygon fill="#63b8ff" stroke="#63b8ff" points="221.82,-306.14 231.84,-302.69 221.85,-299.14 221.82,-306.14"/>
</a>
</g>
</g>
<!-- Node7&#45;&gt;Node10 -->
<g id="edge9_Node000007_Node000010" class="edge">
<title>Node7&#45;&gt;Node10</title>
<g id="a_edge9_Node000007_Node000010"><a xlink:title=" ">
<path fill="none" stroke="#63b8ff" d="M235.57,-291.72C203.85,-286.26 166.16,-279.76 135.88,-274.54"/>
<polygon fill="#63b8ff" stroke="#63b8ff" points="235.19,-295.21 245.64,-293.46 236.38,-288.31 235.19,-295.21"/>
</a>
</g>
</g>
<!-- Node11&#45;&gt;Node11 -->
<g id="edge12_Node000011_Node000011" class="edge">
<title>Node11&#45;&gt;Node11</title>
<g id="a_edge12_Node000011_Node000011"><a xlink:title=" ">
<path fill="none" stroke="#63b8ff" d="M340.25,-226.19C340.24,-231.92 327.49,-236.5 302,-236.5 265.74,-236.5 255.26,-227.23 270.56,-218.58"/>
<polygon fill="#63b8ff" stroke="#63b8ff" points="342.72,-223.7 333.44,-218.58 337.5,-228.37 342.72,-223.7"/>
</a>
</g>
</g>
<!-- Node12&#45;&gt;Node12 -->
<g id="edge14_Node000012_Node000012" class="edge">
<title>Node12&#45;&gt;Node12</title>
<g id="a_edge14_Node000012_Node000012"><a xlink:title=" ">
<path fill="none" stroke="#63b8ff" d="M340.25,-171.19C340.24,-176.92 327.49,-181.5 302,-181.5 265.74,-181.5 255.26,-172.23 270.56,-163.58"/>
<polygon fill="#63b8ff" stroke="#63b8ff" points="342.72,-168.7 333.44,-163.58 337.5,-173.37 342.72,-168.7"/>
</a>
</g>
</g>
<!-- Node14 -->
<g id="Node000014" class="node">
<title>Node14</title>
<g id="a_Node000014"><a xlink:href="classtracking_1_1math_1_1SquareMatrix.html#aa0f3f741e9c040da36cfb465e630bf6b" target="_top" xlink:title="Performs Householder QR decomposition of a square matrix.">
<polygon fill="white" stroke="#666666" points="159,-126 0,-126 0,-96 159,-96 159,-126"/>
<text text-anchor="start" x="8" y="-114" font-family="Helvetica,sans-Serif" font-size="10.00">tracking::math::SquareMatrix</text>
<text text-anchor="middle" x="79.5" y="-103" font-family="Helvetica,sans-Serif" font-size="10.00">::householderQR</text>
</a>
</g>
</g>
<!-- Node13&#45;&gt;Node14 -->
<g id="edge16_Node000013_Node000014" class="edge">
<title>Node13&#45;&gt;Node14</title>
<g id="a_edge16_Node000013_Node000014"><a xlink:title=" ">
<path fill="none" stroke="#63b8ff" d="M229.18,-111C206.8,-111 181.99,-111 159.16,-111"/>
<polygon fill="#63b8ff" stroke="#63b8ff" points="229.29,-114.5 239.29,-111 229.29,-107.5 229.29,-114.5"/>
</a>
</g>
</g>
</g>
</svg>

<g id="navigator" transform="translate(0 0)" fill="#404254">
  <rect fill="#f2f5e9" fill-opacity="0.5" stroke="#606060" stroke-width=".5" x="0" y="0" width="60" height="60"/>
  <use id="zoomplus" xlink:href="#zoomPlus" x="17" y="9" onmousedown="handleZoom(evt,'in')"/>
  <use id="zoomminus" xlink:href="#zoomMin" x="42" y="9" onmousedown="handleZoom(evt,'out')"/>
  <use id="reset" xlink:href="#resetDef" x="30" y="36" onmousedown="handleReset()"/>
   <use id="arrowup" xlink:href="#arrowUp" x="0" y="0" onmousedown="handlePan(0,-1)"/>
  <use id="arrowright" xlink:href="#arrowRight" x="0" y="0" onmousedown="handlePan(1,0)"/>
  <use id="arrowdown" xlink:href="#arrowDown" x="0" y="0" onmousedown="handlePan(0,1)"/>
  <use id="arrowleft" xlink:href="#arrowLeft" x="0" y="0" onmousedown="handlePan(-1,0)"/>
</g>
<svg viewBox="0 0 15 15" width="100%" height="30px" preserveAspectRatio="xMaxYMin meet">
 <g id="arrow_out" transform="scale(0.3 0.3)">
  <a xlink:href="classtracking_1_1math_1_1Matrix_a103ed8d3af53ba865c6a00784ed62de6_icgraph_org.svg" target="_base">
   <rect id="button" ry="5" rx="5" y="6" x="6" height="38" width="38"
        fill="#f2f5e9" fill-opacity="0.5" stroke="#606060" stroke-width="1.0"/>
   <path id="arrow"
     d="M 11.500037,31.436501 C 11.940474,20.09759 22.043105,11.32322 32.158766,21.979434 L 37.068811,17.246167 C 37.068811,17.246167 37.088388,32 37.088388,32 L 22.160133,31.978069 C 22.160133,31.978069 26.997745,27.140456 26.997745,27.140456 C 18.528582,18.264221 13.291696,25.230495 11.500037,31.436501 z"
     style="fill:#404040;"/>
  </a>
 </g>
</svg>

<style type='text/css'>
<![CDATA[
[data-mouse-over-selected='false'] { opacity: 0.7; }
[data-mouse-over-selected='true']  { opacity: 1.0; }
]]>
</style>
<script type="application/ecmascript"><![CDATA[
document.addEventListener('DOMContentLoaded', (event) => {
  highlightEdges();
  highlightAdjacentNodes();
});
]]></script>
</svg>
