<?xml version="1.0" encoding="UTF-8" standalone="no"?>
<!DOCTYPE svg PUBLIC "-//W3C//DTD SVG 1.1//EN"
 "http://www.w3.org/Graphics/SVG/1.1/DTD/svg11.dtd">
<!-- Generated by graphviz version 2.43.0 (0)
 -->
<!-- Title: tracking::filter::InformationFilter::predictCovariance Pages: 1 -->
<svg width="546pt" height="258pt"
 viewBox="0.00 0.00 546.00 257.61" xmlns="http://www.w3.org/2000/svg" xmlns:xlink="http://www.w3.org/1999/xlink">
<g id="graph0" class="graph" transform="scale(1 1) rotate(0) translate(4 253.61)">
<title>tracking::filter::InformationFilter::predictCovariance</title>
<!-- Node1 -->
<g id="Node000001" class="node">
<title>Node1</title>
<g id="a_Node000001"><a xlink:title=" ">
<polygon fill="#999999" stroke="#666666" points="148,-129.61 0,-129.61 0,-99.61 148,-99.61 148,-129.61"/>
<text text-anchor="start" x="8" y="-117.61" font-family="Helvetica,sans-Serif" font-size="10.00">tracking::filter::Information</text>
<text text-anchor="middle" x="74" y="-106.61" font-family="Helvetica,sans-Serif" font-size="10.00">Filter::predictCovariance</text>
</a>
</g>
</g>
<!-- Node2 -->
<g id="Node000002" class="node">
<title>Node2</title>
<g id="a_Node000002"><a xlink:href="classtracking_1_1math_1_1SquareMatrix.html#a911f645174c9ebb677deeeef12a71a34" target="_top" xlink:title="Compute the matrix inverse using QR decomposition.">
<polygon fill="white" stroke="#666666" points="343,-249.61 184,-249.61 184,-219.61 343,-219.61 343,-249.61"/>
<text text-anchor="start" x="192" y="-237.61" font-family="Helvetica,sans-Serif" font-size="10.00">tracking::math::SquareMatrix</text>
<text text-anchor="middle" x="263.5" y="-226.61" font-family="Helvetica,sans-Serif" font-size="10.00">::inverse</text>
</a>
</g>
</g>
<!-- Node1&#45;&gt;Node2 -->
<g id="edge1_Node000001_Node000002" class="edge">
<title>Node1&#45;&gt;Node2</title>
<g id="a_edge1_Node000001_Node000002"><a xlink:title=" ">
<path fill="none" stroke="#63b8ff" d="M88.28,-129.82C107.42,-150.86 144.81,-188.72 184,-210.61 187.24,-212.42 190.63,-214.1 194.11,-215.68"/>
<polygon fill="#63b8ff" stroke="#63b8ff" points="192.91,-218.97 203.49,-219.59 195.6,-212.51 192.91,-218.97"/>
</a>
</g>
</g>
<!-- Node4 -->
<g id="Node000004" class="node">
<title>Node4</title>
<g id="a_Node000004"><a xlink:href="classtracking_1_1math_1_1SquareMatrix.html#a4781b46749a96cc7cf05f941d8ead8f2" target="_top" xlink:title="Checks if the matrix is positive semi&#45;definite.">
<polygon fill="white" stroke="#666666" points="343,-201.61 184,-201.61 184,-171.61 343,-171.61 343,-201.61"/>
<text text-anchor="start" x="192" y="-189.61" font-family="Helvetica,sans-Serif" font-size="10.00">tracking::math::SquareMatrix</text>
<text text-anchor="middle" x="263.5" y="-178.61" font-family="Helvetica,sans-Serif" font-size="10.00">::isPositiveSemiDefinite</text>
</a>
</g>
</g>
<!-- Node1&#45;&gt;Node4 -->
<g id="edge3_Node000001_Node000004" class="edge">
<title>Node1&#45;&gt;Node4</title>
<g id="a_edge3_Node000001_Node000004"><a xlink:title=" ">
<path fill="none" stroke="#63b8ff" d="M106.55,-129.68C128.1,-139.69 157.45,-152.74 184,-162.61 189.39,-164.61 195.03,-166.58 200.71,-168.47"/>
<polygon fill="#63b8ff" stroke="#63b8ff" points="199.68,-171.82 210.27,-171.58 201.85,-165.16 199.68,-171.82"/>
</a>
</g>
</g>
<!-- Node5 -->
<g id="Node000005" class="node">
<title>Node5</title>
<g id="a_Node000005"><a xlink:href="classtracking_1_1math_1_1SquareMatrix.html#a944374777b1df93e4bec74765bcef6e0" target="_top" xlink:title="Solve the linear system A * x = b using QR decomposition.">
<polygon fill="white" stroke="#666666" points="343,-153.61 184,-153.61 184,-123.61 343,-123.61 343,-153.61"/>
<text text-anchor="start" x="192" y="-141.61" font-family="Helvetica,sans-Serif" font-size="10.00">tracking::math::SquareMatrix</text>
<text text-anchor="middle" x="263.5" y="-130.61" font-family="Helvetica,sans-Serif" font-size="10.00">::qrSolve</text>
</a>
</g>
</g>
<!-- Node1&#45;&gt;Node5 -->
<g id="edge4_Node000001_Node000005" class="edge">
<title>Node1&#45;&gt;Node5</title>
<g id="a_edge4_Node000001_Node000005"><a xlink:title=" ">
<path fill="none" stroke="#63b8ff" d="M148.03,-123.95C156.45,-125.03 165.11,-126.14 173.72,-127.24"/>
<polygon fill="#63b8ff" stroke="#63b8ff" points="173.41,-130.73 183.78,-128.53 174.3,-123.79 173.41,-130.73"/>
</a>
</g>
</g>
<!-- Node6 -->
<g id="Node000006" class="node">
<title>Node6</title>
<g id="a_Node000006"><a xlink:href="classtracking_1_1math_1_1SquareMatrix.html#aa28cafb64caa7a86fd8871ecb30e993d" target="_top" xlink:title="Symmetrize the matrix by averaging with its transpose.">
<polygon fill="white" stroke="#666666" points="343,-105.61 184,-105.61 184,-75.61 343,-75.61 343,-105.61"/>
<text text-anchor="start" x="192" y="-93.61" font-family="Helvetica,sans-Serif" font-size="10.00">tracking::math::SquareMatrix</text>
<text text-anchor="middle" x="263.5" y="-82.61" font-family="Helvetica,sans-Serif" font-size="10.00">::symmetrize</text>
</a>
</g>
</g>
<!-- Node1&#45;&gt;Node6 -->
<g id="edge5_Node000001_Node000006" class="edge">
<title>Node1&#45;&gt;Node6</title>
<g id="a_edge5_Node000001_Node000006"><a xlink:title=" ">
<path fill="none" stroke="#63b8ff" d="M148.03,-105.26C156.45,-104.18 165.11,-103.07 173.72,-101.97"/>
<polygon fill="#63b8ff" stroke="#63b8ff" points="174.3,-105.42 183.78,-100.68 173.41,-98.48 174.3,-105.42"/>
</a>
</g>
</g>
<!-- Node7 -->
<g id="Node000007" class="node">
<title>Node7</title>
<g id="a_Node000007"><a xlink:href="classtracking_1_1math_1_1SquareMatrix.html#a83aee3d96b9a570cf86fd8b82151f1a3" target="_top" xlink:title="Fast transpose without changing the layout (zero&#45;copy view)">
<polygon fill="white" stroke="#666666" points="343,-57.61 184,-57.61 184,-27.61 343,-27.61 343,-57.61"/>
<text text-anchor="start" x="192" y="-45.61" font-family="Helvetica,sans-Serif" font-size="10.00">tracking::math::SquareMatrix</text>
<text text-anchor="middle" x="263.5" y="-34.61" font-family="Helvetica,sans-Serif" font-size="10.00">::transpose</text>
</a>
</g>
</g>
<!-- Node1&#45;&gt;Node7 -->
<g id="edge6_Node000001_Node000007" class="edge">
<title>Node1&#45;&gt;Node7</title>
<g id="a_edge6_Node000001_Node000007"><a xlink:title=" ">
<path fill="none" stroke="#63b8ff" d="M106.55,-99.53C128.1,-89.53 157.45,-76.47 184,-66.61 189.39,-64.6 195.03,-62.64 200.71,-60.74"/>
<polygon fill="#63b8ff" stroke="#63b8ff" points="201.85,-64.05 210.27,-57.63 199.68,-57.4 201.85,-64.05"/>
</a>
</g>
</g>
<!-- Node8 -->
<g id="Node000008" class="node">
<title>Node8</title>
<g id="a_Node000008"><a xlink:href="classtracking_1_1math_1_1Matrix.html#a478f0eea63246477537c07d88584371d" target="_top" xlink:title="Fast transpose without changing the layout (zero&#45;copy view)">
<polygon fill="white" stroke="#666666" points="536,-42.11 381,-42.11 381,-1.11 536,-1.11 536,-42.11"/>
<text text-anchor="start" x="389" y="-30.11" font-family="Helvetica,sans-Serif" font-size="10.00">tracking::math::Matrix</text>
<text text-anchor="start" x="389" y="-19.11" font-family="Helvetica,sans-Serif" font-size="10.00">&lt; ValueType_, Size_, Size</text>
<text text-anchor="middle" x="458.5" y="-8.11" font-family="Helvetica,sans-Serif" font-size="10.00">_, IsRowMajor_ &gt;::transpose</text>
</a>
</g>
</g>
<!-- Node1&#45;&gt;Node8 -->
<g id="edge8_Node000001_Node000008" class="edge">
<title>Node1&#45;&gt;Node8</title>
<g id="a_edge8_Node000001_Node000008"><a xlink:title=" ">
<path fill="none" stroke="#63b8ff" d="M86.3,-99.24C104.09,-76.5 141.06,-34.82 184,-18.61 243.49,3.86 315.58,2 370.81,-4.88"/>
<polygon fill="#63b8ff" stroke="#63b8ff" points="370.55,-8.38 380.92,-6.22 371.47,-1.44 370.55,-8.38"/>
</a>
</g>
</g>
<!-- Node3 -->
<g id="Node000003" class="node">
<title>Node3</title>
<g id="a_Node000003"><a xlink:href="classtracking_1_1math_1_1SquareMatrix.html#a1767678675efd8983ce5beab4c53b2d7" target="_top" xlink:title="Construct an identity matrix with ones on the diagonal and zeros elsewhere.">
<polygon fill="white" stroke="#666666" points="538,-249.61 379,-249.61 379,-219.61 538,-219.61 538,-249.61"/>
<text text-anchor="start" x="387" y="-237.61" font-family="Helvetica,sans-Serif" font-size="10.00">tracking::math::SquareMatrix</text>
<text text-anchor="middle" x="458.5" y="-226.61" font-family="Helvetica,sans-Serif" font-size="10.00">::Identity</text>
</a>
</g>
</g>
<!-- Node2&#45;&gt;Node3 -->
<g id="edge2_Node000002_Node000003" class="edge">
<title>Node2&#45;&gt;Node3</title>
<g id="a_edge2_Node000002_Node000003"><a xlink:title=" ">
<path fill="none" stroke="#63b8ff" d="M343,-234.61C351.48,-234.61 360.14,-234.61 368.73,-234.61"/>
<polygon fill="#63b8ff" stroke="#63b8ff" points="368.76,-238.11 378.76,-234.61 368.76,-231.11 368.76,-238.11"/>
</a>
</g>
</g>
<!-- Node7&#45;&gt;Node8 -->
<g id="edge7_Node000007_Node000008" class="edge">
<title>Node7&#45;&gt;Node8</title>
<g id="a_edge7_Node000007_Node000008"><a xlink:title=" ">
<path fill="none" stroke="#63b8ff" d="M343,-34.07C352.2,-33.06 361.62,-32.04 370.92,-31.03"/>
<polygon fill="#63b8ff" stroke="#63b8ff" points="371.38,-34.5 380.94,-29.94 370.62,-27.54 371.38,-34.5"/>
</a>
</g>
</g>
</g>
</svg>
