<?xml version="1.0" encoding="UTF-8" standalone="no"?>
<!DOCTYPE svg PUBLIC "-//W3C//DTD SVG 1.1//EN"
 "http://www.w3.org/Graphics/SVG/1.1/DTD/svg11.dtd">
<!-- Generated by graphviz version 2.43.0 (0)
 -->
<!-- Title: tracking::math::CovarianceMatrixFactored::apaT Pages: 1 -->
<svg width="514pt" height="38pt"
 viewBox="0.00 0.00 514.00 38.00" xmlns="http://www.w3.org/2000/svg" xmlns:xlink="http://www.w3.org/1999/xlink">
<g id="graph0" class="graph" transform="scale(1 1) rotate(0) translate(4 34)">
<title>tracking::math::CovarianceMatrixFactored::apaT</title>
<!-- Node1 -->
<g id="Node000001" class="node">
<title>Node1</title>
<g id="a_Node000001"><a xlink:title="Compute A*P*A^T (factored covariance propagation)">
<polygon fill="#999999" stroke="#666666" points="149,-30 0,-30 0,0 149,0 149,-30"/>
<text text-anchor="start" x="8" y="-18" font-family="Helvetica,sans-Serif" font-size="10.00">tracking::math::Covariance</text>
<text text-anchor="middle" x="74.5" y="-7" font-family="Helvetica,sans-Serif" font-size="10.00">MatrixFactored::apaT</text>
</a>
</g>
</g>
<!-- Node2 -->
<g id="Node000002" class="node">
<title>Node2</title>
<g id="a_Node000002"><a xlink:href="classtracking_1_1math_1_1CovarianceMatrixFactored.html#ac25112b654af737bc4d1eb973cd72b86" target="_top" xlink:title="Compute A*P*A^T in&#45;place (factored covariance propagation)">
<polygon fill="white" stroke="#666666" points="334,-30 185,-30 185,0 334,0 334,-30"/>
<text text-anchor="start" x="193" y="-18" font-family="Helvetica,sans-Serif" font-size="10.00">tracking::math::Covariance</text>
<text text-anchor="middle" x="259.5" y="-7" font-family="Helvetica,sans-Serif" font-size="10.00">MatrixFactored::apaT</text>
</a>
</g>
</g>
<!-- Node1&#45;&gt;Node2 -->
<g id="edge1_Node000001_Node000002" class="edge">
<title>Node1&#45;&gt;Node2</title>
<g id="a_edge1_Node000001_Node000002"><a xlink:title=" ">
<path fill="none" stroke="#63b8ff" d="M149.14,-15C157.47,-15 166.01,-15 174.46,-15"/>
<polygon fill="#63b8ff" stroke="#63b8ff" points="174.71,-18.5 184.71,-15 174.71,-11.5 174.71,-18.5"/>
</a>
</g>
</g>
<!-- Node3 -->
<g id="Node000003" class="node">
<title>Node3</title>
<g id="a_Node000003"><a xlink:href="classtracking_1_1math_1_1ModifiedGramSchmidt.html#aa94a1cdbd89ad957fcd7da9df3860ce0" target="_top" xlink:title="Computes UDU factorization of Phi matrix.">
<polygon fill="white" stroke="#666666" points="506,-30 370,-30 370,0 506,0 506,-30"/>
<text text-anchor="start" x="378" y="-18" font-family="Helvetica,sans-Serif" font-size="10.00">tracking::math::Modified</text>
<text text-anchor="middle" x="438" y="-7" font-family="Helvetica,sans-Serif" font-size="10.00">GramSchmidt::run</text>
</a>
</g>
</g>
<!-- Node2&#45;&gt;Node3 -->
<g id="edge2_Node000002_Node000003" class="edge">
<title>Node2&#45;&gt;Node3</title>
<g id="a_edge2_Node000002_Node000003"><a xlink:title=" ">
<path fill="none" stroke="#63b8ff" d="M334.07,-15C342.48,-15 351.07,-15 359.52,-15"/>
<polygon fill="#63b8ff" stroke="#63b8ff" points="359.75,-18.5 369.75,-15 359.75,-11.5 359.75,-18.5"/>
</a>
</g>
</g>
</g>
</svg>
