<?xml version="1.0" encoding="UTF-8" standalone="no"?>
<!DOCTYPE svg PUBLIC "-//W3C//DTD SVG 1.1//EN"
 "http://www.w3.org/Graphics/SVG/1.1/DTD/svg11.dtd">
<!-- Generated by graphviz version 2.43.0 (0)
 -->
<!-- Title: tracking::base::contract::RequireAbstractIntf&lt; ImplType &gt; Pages: 1 -->
<svg width="651pt" height="1130pt"
 viewBox="0.00 0.00 651.00 1130.00" xmlns="http://www.w3.org/2000/svg" xmlns:xlink="http://www.w3.org/1999/xlink">
<g id="graph0" class="graph" transform="scale(1 1) rotate(0) translate(4 1126)">
<title>tracking::base::contract::RequireAbstractIntf&lt; ImplType &gt;</title>
<!-- Node1 -->
<g id="Node000001" class="node">
<title>Node1</title>
<g id="a_Node000001"><a xlink:title=" ">
<polygon fill="#999999" stroke="transparent" points="384,-1122 259,-1122 259,-1051 384,-1051 384,-1122"/>
<text text-anchor="start" x="264.5" y="-1109.5" font-family="Helvetica,sans-Serif" font-size="10.00">tracking::base::contract</text>
<text text-anchor="start" x="264.5" y="-1098.5" font-family="Helvetica,sans-Serif" font-size="10.00">::RequireAbstractIntf&lt;</text>
<text text-anchor="start" x="292.5" y="-1087.5" font-family="Helvetica,sans-Serif" font-size="10.00"> ImplType &gt;</text>
<text text-anchor="start" x="320" y="-1072.5" font-family="Helvetica,sans-Serif" font-size="10.00"> </text>
<text text-anchor="start" x="263.5" y="-1057.5" font-family="Helvetica,sans-Serif" font-size="10.00">+</text>
<text text-anchor="start" x="276.5" y="-1057.5" font-family="Helvetica,sans-Serif" font-size="10.00">RequireAbstractIntf()</text>
<polygon fill="#666666" stroke="#666666" points="259.5,-1082.5 259.5,-1082.5 384.5,-1082.5 384.5,-1082.5 259.5,-1082.5"/>
<polygon fill="#666666" stroke="#666666" points="259.5,-1067.5 259.5,-1067.5 384.5,-1067.5 384.5,-1067.5 259.5,-1067.5"/>
<polygon fill="none" stroke="#666666" points="259,-1051 259,-1122 384,-1122 384,-1051 259,-1051"/>
</a>
</g>
</g>
<!-- Node2 -->
<g id="Node000002" class="node">
<title>Node2</title>
<g id="a_Node000002"><a xlink:href="classtracking_1_1motion_1_1ExtendedMotionModel.html" target="_top" xlink:title=" ">
<polygon fill="white" stroke="transparent" points="643,-713 428,-713 428,-343 643,-343 643,-713"/>
<text text-anchor="start" x="433.5" y="-701" font-family="Helvetica,sans-Serif" font-size="10.00">tracking::motion::Extended</text>
<text text-anchor="start" x="433.5" y="-690" font-family="Helvetica,sans-Serif" font-size="10.00">MotionModel&lt; MotionModelCA</text>
<text text-anchor="start" x="433.5" y="-679" font-family="Helvetica,sans-Serif" font-size="10.00">&lt; CovarianceMatrixPolicy_</text>
<text text-anchor="start" x="433.5" y="-668" font-family="Helvetica,sans-Serif" font-size="10.00"> &gt;, MotionModelTraits&lt; CovarianceMatrix</text>
<text text-anchor="start" x="476" y="-657" font-family="Helvetica,sans-Serif" font-size="10.00">Policy_, StateDefCA &gt; &gt;</text>
<text text-anchor="start" x="534" y="-642" font-family="Helvetica,sans-Serif" font-size="10.00"> </text>
<text text-anchor="start" x="442" y="-627" font-family="Helvetica,sans-Serif" font-size="10.00">+</text>
<text text-anchor="start" x="464.5" y="-627" font-family="Helvetica,sans-Serif" font-size="10.00">ExtendedMotionModel()</text>
<text text-anchor="start" x="442" y="-612" font-family="Helvetica,sans-Serif" font-size="10.00">+</text>
<text text-anchor="start" x="464.5" y="-612" font-family="Helvetica,sans-Serif" font-size="10.00">~ExtendedMotionModel()</text>
<text text-anchor="start" x="442" y="-597" font-family="Helvetica,sans-Serif" font-size="10.00">+</text>
<text text-anchor="start" x="464.5" y="-597" font-family="Helvetica,sans-Serif" font-size="10.00">getX()</text>
<text text-anchor="start" x="442" y="-582" font-family="Helvetica,sans-Serif" font-size="10.00">+</text>
<text text-anchor="start" x="464.5" y="-582" font-family="Helvetica,sans-Serif" font-size="10.00">getY()</text>
<text text-anchor="start" x="442" y="-567" font-family="Helvetica,sans-Serif" font-size="10.00">+</text>
<text text-anchor="start" x="464.5" y="-567" font-family="Helvetica,sans-Serif" font-size="10.00">invertCov()</text>
<text text-anchor="start" x="442" y="-552" font-family="Helvetica,sans-Serif" font-size="10.00">+</text>
<text text-anchor="start" x="464.5" y="-552" font-family="Helvetica,sans-Serif" font-size="10.00">predict()</text>
<text text-anchor="start" x="442" y="-537" font-family="Helvetica,sans-Serif" font-size="10.00">+</text>
<text text-anchor="start" x="464.5" y="-537" font-family="Helvetica,sans-Serif" font-size="10.00">predict()</text>
<text text-anchor="start" x="442" y="-522" font-family="Helvetica,sans-Serif" font-size="10.00">+</text>
<text text-anchor="start" x="464.5" y="-522" font-family="Helvetica,sans-Serif" font-size="10.00">convertStateVecIntoState</text>
<text text-anchor="start" x="464.5" y="-511" font-family="Helvetica,sans-Serif" font-size="10.00">Space()</text>
<text text-anchor="start" x="442" y="-496" font-family="Helvetica,sans-Serif" font-size="10.00">+</text>
<text text-anchor="start" x="464.5" y="-496" font-family="Helvetica,sans-Serif" font-size="10.00">convertStateVecIntoInformation</text>
<text text-anchor="start" x="464.5" y="-485" font-family="Helvetica,sans-Serif" font-size="10.00">Space()</text>
<text text-anchor="start" x="442" y="-470" font-family="Helvetica,sans-Serif" font-size="10.00">+</text>
<text text-anchor="start" x="464.5" y="-470" font-family="Helvetica,sans-Serif" font-size="10.00">StateVecFromList()</text>
<text text-anchor="start" x="442" y="-455" font-family="Helvetica,sans-Serif" font-size="10.00">+</text>
<text text-anchor="start" x="464.5" y="-455" font-family="Helvetica,sans-Serif" font-size="10.00">StateCovFromList()</text>
<text text-anchor="start" x="442" y="-440" font-family="Helvetica,sans-Serif" font-size="10.00">+</text>
<text text-anchor="start" x="464.5" y="-440" font-family="Helvetica,sans-Serif" font-size="10.00">StateCovFromList()</text>
<text text-anchor="start" x="442" y="-425" font-family="Helvetica,sans-Serif" font-size="10.00">+</text>
<text text-anchor="start" x="464.5" y="-425" font-family="Helvetica,sans-Serif" font-size="10.00">FromLists()</text>
<text text-anchor="start" x="442" y="-410" font-family="Helvetica,sans-Serif" font-size="10.00">#</text>
<text text-anchor="start" x="464.5" y="-410" font-family="Helvetica,sans-Serif" font-size="10.00">ExtendedMotionModel()</text>
<text text-anchor="start" x="442" y="-395" font-family="Helvetica,sans-Serif" font-size="10.00">#</text>
<text text-anchor="start" x="464.5" y="-395" font-family="Helvetica,sans-Serif" font-size="10.00">ExtendedMotionModel()</text>
<text text-anchor="start" x="442" y="-380" font-family="Helvetica,sans-Serif" font-size="10.00">#</text>
<text text-anchor="start" x="464.5" y="-380" font-family="Helvetica,sans-Serif" font-size="10.00">ExtendedMotionModel()</text>
<text text-anchor="start" x="442" y="-365" font-family="Helvetica,sans-Serif" font-size="10.00">#</text>
<text text-anchor="start" x="464.5" y="-365" font-family="Helvetica,sans-Serif" font-size="10.00">operator=()</text>
<text text-anchor="start" x="442" y="-350" font-family="Helvetica,sans-Serif" font-size="10.00">#</text>
<text text-anchor="start" x="464.5" y="-350" font-family="Helvetica,sans-Serif" font-size="10.00">operator=()</text>
<polygon fill="#666666" stroke="#666666" points="428.5,-652 428.5,-652 643.5,-652 643.5,-652 428.5,-652"/>
<polygon fill="#666666" stroke="#666666" points="428.5,-637 428.5,-637 643.5,-637 643.5,-637 428.5,-637"/>
<polygon fill="none" stroke="#666666" points="428,-343 428,-713 643,-713 643,-343 428,-343"/>
</a>
</g>
</g>
<!-- Node1&#45;&gt;Node2 -->
<g id="edge1_Node000001_Node000002" class="edge">
<title>Node1&#45;&gt;Node2</title>
<g id="a_edge1_Node000001_Node000002"><a xlink:title=" ">
<path fill="none" stroke="#63b8ff" d="M380.69,-1043.96C390.04,-1035.27 398.8,-1025.52 405.5,-1015 463.14,-924.47 495.4,-808.88 513.36,-713.14"/>
<polygon fill="none" stroke="#63b8ff" points="378.26,-1041.43 373.11,-1050.69 382.91,-1046.67 378.26,-1041.43"/>
</a>
</g>
</g>
<!-- Node4 -->
<g id="Node000004" class="node">
<title>Node4</title>
<g id="a_Node000004"><a xlink:href="classtracking_1_1motion_1_1ExtendedMotionModel.html" target="_top" xlink:title=" ">
<polygon fill="white" stroke="transparent" points="215,-713 0,-713 0,-343 215,-343 215,-713"/>
<text text-anchor="start" x="5.5" y="-701" font-family="Helvetica,sans-Serif" font-size="10.00">tracking::motion::Extended</text>
<text text-anchor="start" x="5.5" y="-690" font-family="Helvetica,sans-Serif" font-size="10.00">MotionModel&lt; MotionModelCV</text>
<text text-anchor="start" x="5.5" y="-679" font-family="Helvetica,sans-Serif" font-size="10.00">&lt; CovarianceMatrixPolicy_</text>
<text text-anchor="start" x="5.5" y="-668" font-family="Helvetica,sans-Serif" font-size="10.00"> &gt;, MotionModelTraits&lt; CovarianceMatrix</text>
<text text-anchor="start" x="48" y="-657" font-family="Helvetica,sans-Serif" font-size="10.00">Policy_, StateDefCV &gt; &gt;</text>
<text text-anchor="start" x="106" y="-642" font-family="Helvetica,sans-Serif" font-size="10.00"> </text>
<text text-anchor="start" x="14" y="-627" font-family="Helvetica,sans-Serif" font-size="10.00">+</text>
<text text-anchor="start" x="36.5" y="-627" font-family="Helvetica,sans-Serif" font-size="10.00">ExtendedMotionModel()</text>
<text text-anchor="start" x="14" y="-612" font-family="Helvetica,sans-Serif" font-size="10.00">+</text>
<text text-anchor="start" x="36.5" y="-612" font-family="Helvetica,sans-Serif" font-size="10.00">~ExtendedMotionModel()</text>
<text text-anchor="start" x="14" y="-597" font-family="Helvetica,sans-Serif" font-size="10.00">+</text>
<text text-anchor="start" x="36.5" y="-597" font-family="Helvetica,sans-Serif" font-size="10.00">getX()</text>
<text text-anchor="start" x="14" y="-582" font-family="Helvetica,sans-Serif" font-size="10.00">+</text>
<text text-anchor="start" x="36.5" y="-582" font-family="Helvetica,sans-Serif" font-size="10.00">getY()</text>
<text text-anchor="start" x="14" y="-567" font-family="Helvetica,sans-Serif" font-size="10.00">+</text>
<text text-anchor="start" x="36.5" y="-567" font-family="Helvetica,sans-Serif" font-size="10.00">invertCov()</text>
<text text-anchor="start" x="14" y="-552" font-family="Helvetica,sans-Serif" font-size="10.00">+</text>
<text text-anchor="start" x="36.5" y="-552" font-family="Helvetica,sans-Serif" font-size="10.00">predict()</text>
<text text-anchor="start" x="14" y="-537" font-family="Helvetica,sans-Serif" font-size="10.00">+</text>
<text text-anchor="start" x="36.5" y="-537" font-family="Helvetica,sans-Serif" font-size="10.00">predict()</text>
<text text-anchor="start" x="14" y="-522" font-family="Helvetica,sans-Serif" font-size="10.00">+</text>
<text text-anchor="start" x="36.5" y="-522" font-family="Helvetica,sans-Serif" font-size="10.00">convertStateVecIntoState</text>
<text text-anchor="start" x="36.5" y="-511" font-family="Helvetica,sans-Serif" font-size="10.00">Space()</text>
<text text-anchor="start" x="14" y="-496" font-family="Helvetica,sans-Serif" font-size="10.00">+</text>
<text text-anchor="start" x="36.5" y="-496" font-family="Helvetica,sans-Serif" font-size="10.00">convertStateVecIntoInformation</text>
<text text-anchor="start" x="36.5" y="-485" font-family="Helvetica,sans-Serif" font-size="10.00">Space()</text>
<text text-anchor="start" x="14" y="-470" font-family="Helvetica,sans-Serif" font-size="10.00">+</text>
<text text-anchor="start" x="36.5" y="-470" font-family="Helvetica,sans-Serif" font-size="10.00">StateVecFromList()</text>
<text text-anchor="start" x="14" y="-455" font-family="Helvetica,sans-Serif" font-size="10.00">+</text>
<text text-anchor="start" x="36.5" y="-455" font-family="Helvetica,sans-Serif" font-size="10.00">StateCovFromList()</text>
<text text-anchor="start" x="14" y="-440" font-family="Helvetica,sans-Serif" font-size="10.00">+</text>
<text text-anchor="start" x="36.5" y="-440" font-family="Helvetica,sans-Serif" font-size="10.00">StateCovFromList()</text>
<text text-anchor="start" x="14" y="-425" font-family="Helvetica,sans-Serif" font-size="10.00">+</text>
<text text-anchor="start" x="36.5" y="-425" font-family="Helvetica,sans-Serif" font-size="10.00">FromLists()</text>
<text text-anchor="start" x="14" y="-410" font-family="Helvetica,sans-Serif" font-size="10.00">#</text>
<text text-anchor="start" x="36.5" y="-410" font-family="Helvetica,sans-Serif" font-size="10.00">ExtendedMotionModel()</text>
<text text-anchor="start" x="14" y="-395" font-family="Helvetica,sans-Serif" font-size="10.00">#</text>
<text text-anchor="start" x="36.5" y="-395" font-family="Helvetica,sans-Serif" font-size="10.00">ExtendedMotionModel()</text>
<text text-anchor="start" x="14" y="-380" font-family="Helvetica,sans-Serif" font-size="10.00">#</text>
<text text-anchor="start" x="36.5" y="-380" font-family="Helvetica,sans-Serif" font-size="10.00">ExtendedMotionModel()</text>
<text text-anchor="start" x="14" y="-365" font-family="Helvetica,sans-Serif" font-size="10.00">#</text>
<text text-anchor="start" x="36.5" y="-365" font-family="Helvetica,sans-Serif" font-size="10.00">operator=()</text>
<text text-anchor="start" x="14" y="-350" font-family="Helvetica,sans-Serif" font-size="10.00">#</text>
<text text-anchor="start" x="36.5" y="-350" font-family="Helvetica,sans-Serif" font-size="10.00">operator=()</text>
<polygon fill="#666666" stroke="#666666" points="0.5,-652 0.5,-652 215.5,-652 215.5,-652 0.5,-652"/>
<polygon fill="#666666" stroke="#666666" points="0.5,-637 0.5,-637 215.5,-637 215.5,-637 0.5,-637"/>
<polygon fill="none" stroke="#666666" points="0,-343 0,-713 215,-713 215,-343 0,-343"/>
</a>
</g>
</g>
<!-- Node1&#45;&gt;Node4 -->
<g id="edge3_Node000001_Node000004" class="edge">
<title>Node1&#45;&gt;Node4</title>
<g id="a_edge3_Node000001_Node000004"><a xlink:title=" ">
<path fill="none" stroke="#63b8ff" d="M263.36,-1044.17C254.01,-1035.41 245.21,-1025.58 238.5,-1015 181.01,-924.31 148.53,-808.71 130.29,-713.01"/>
<polygon fill="none" stroke="#63b8ff" points="261.17,-1046.9 270.96,-1050.96 265.83,-1041.68 261.17,-1046.9"/>
</a>
</g>
</g>
<!-- Node5 -->
<g id="Node000005" class="node">
<title>Node5</title>
<g id="a_Node000005"><a xlink:href="classtracking_1_1motion_1_1IMotionModel.html" target="_top" xlink:title=" ">
<polygon fill="white" stroke="transparent" points="396,-1015 247,-1015 247,-749 396,-749 396,-1015"/>
<text text-anchor="start" x="252.5" y="-1003" font-family="Helvetica,sans-Serif" font-size="10.00">tracking::motion::IMotion</text>
<text text-anchor="start" x="252.5" y="-992" font-family="Helvetica,sans-Serif" font-size="10.00">Model&lt; MotionModelTrait</text>
<text text-anchor="start" x="252.5" y="-981" font-family="Helvetica,sans-Serif" font-size="10.00">_::CovarianceMatrixPolicy &gt;</text>
<text text-anchor="start" x="320" y="-966" font-family="Helvetica,sans-Serif" font-size="10.00"> </text>
<text text-anchor="start" x="262.5" y="-951" font-family="Helvetica,sans-Serif" font-size="10.00">+</text>
<text text-anchor="start" x="286.5" y="-951" font-family="Helvetica,sans-Serif" font-size="10.00">IMotionModel()</text>
<text text-anchor="start" x="262.5" y="-936" font-family="Helvetica,sans-Serif" font-size="10.00">+</text>
<text text-anchor="start" x="286.5" y="-936" font-family="Helvetica,sans-Serif" font-size="10.00">~IMotionModel()</text>
<text text-anchor="start" x="262.5" y="-921" font-family="Helvetica,sans-Serif" font-size="10.00">+</text>
<text text-anchor="start" x="286.5" y="-921" font-family="Helvetica,sans-Serif" font-size="10.00">getX()</text>
<text text-anchor="start" x="262.5" y="-906" font-family="Helvetica,sans-Serif" font-size="10.00">+</text>
<text text-anchor="start" x="286.5" y="-906" font-family="Helvetica,sans-Serif" font-size="10.00">getVx()</text>
<text text-anchor="start" x="262.5" y="-891" font-family="Helvetica,sans-Serif" font-size="10.00">+</text>
<text text-anchor="start" x="286.5" y="-891" font-family="Helvetica,sans-Serif" font-size="10.00">getAx()</text>
<text text-anchor="start" x="262.5" y="-876" font-family="Helvetica,sans-Serif" font-size="10.00">+</text>
<text text-anchor="start" x="286.5" y="-876" font-family="Helvetica,sans-Serif" font-size="10.00">getY()</text>
<text text-anchor="start" x="262.5" y="-861" font-family="Helvetica,sans-Serif" font-size="10.00">+</text>
<text text-anchor="start" x="286.5" y="-861" font-family="Helvetica,sans-Serif" font-size="10.00">getVy()</text>
<text text-anchor="start" x="262.5" y="-846" font-family="Helvetica,sans-Serif" font-size="10.00">+</text>
<text text-anchor="start" x="286.5" y="-846" font-family="Helvetica,sans-Serif" font-size="10.00">getAy()</text>
<text text-anchor="start" x="262.5" y="-831" font-family="Helvetica,sans-Serif" font-size="10.00">+</text>
<text text-anchor="start" x="286.5" y="-831" font-family="Helvetica,sans-Serif" font-size="10.00">predict()</text>
<text text-anchor="start" x="262.5" y="-816" font-family="Helvetica,sans-Serif" font-size="10.00">+</text>
<text text-anchor="start" x="286.5" y="-816" font-family="Helvetica,sans-Serif" font-size="10.00">predict()</text>
<text text-anchor="start" x="262.5" y="-801" font-family="Helvetica,sans-Serif" font-size="10.00">#</text>
<text text-anchor="start" x="286.5" y="-801" font-family="Helvetica,sans-Serif" font-size="10.00">IMotionModel()</text>
<text text-anchor="start" x="262.5" y="-786" font-family="Helvetica,sans-Serif" font-size="10.00">#</text>
<text text-anchor="start" x="286.5" y="-786" font-family="Helvetica,sans-Serif" font-size="10.00">IMotionModel()</text>
<text text-anchor="start" x="262.5" y="-771" font-family="Helvetica,sans-Serif" font-size="10.00">#</text>
<text text-anchor="start" x="286.5" y="-771" font-family="Helvetica,sans-Serif" font-size="10.00">operator=()</text>
<text text-anchor="start" x="262.5" y="-756" font-family="Helvetica,sans-Serif" font-size="10.00">#</text>
<text text-anchor="start" x="286.5" y="-756" font-family="Helvetica,sans-Serif" font-size="10.00">operator=()</text>
<polygon fill="#666666" stroke="#666666" points="247.5,-976 247.5,-976 396.5,-976 396.5,-976 247.5,-976"/>
<polygon fill="#666666" stroke="#666666" points="247.5,-961 247.5,-961 396.5,-961 396.5,-961 247.5,-961"/>
<polygon fill="none" stroke="#666666" points="247,-749 247,-1015 396,-1015 396,-749 247,-749"/>
</a>
</g>
</g>
<!-- Node1&#45;&gt;Node5 -->
<g id="edge5_Node000001_Node000005" class="edge">
<title>Node1&#45;&gt;Node5</title>
<g id="a_edge5_Node000001_Node000005"><a xlink:title=" ">
<path fill="none" stroke="#63b8ff" d="M321.5,-1040.47C321.5,-1032.66 321.5,-1024.2 321.5,-1015.39"/>
<polygon fill="none" stroke="#63b8ff" points="318,-1040.69 321.5,-1050.69 325,-1040.69 318,-1040.69"/>
</a>
</g>
</g>
<!-- Node3 -->
<g id="Node000003" class="node">
<title>Node3</title>
<g id="a_Node000003"><a xlink:href="classtracking_1_1motion_1_1TEST__REMOVE__FINAL.html" target="_top" xlink:title=" ">
<polygon fill="white" stroke="transparent" points="416,-307 227,-307 227,0 416,0 416,-307"/>
<text text-anchor="start" x="232.5" y="-294.5" font-family="Helvetica,sans-Serif" font-size="10.00">tracking::motion::TEST</text>
<text text-anchor="start" x="232.5" y="-283.5" font-family="Helvetica,sans-Serif" font-size="10.00">_REMOVE_FINAL&lt; CovarianceMatrix</text>
<text text-anchor="start" x="299" y="-272.5" font-family="Helvetica,sans-Serif" font-size="10.00">Policy_ &gt;</text>
<text text-anchor="start" x="243.5" y="-257.5" font-family="Helvetica,sans-Serif" font-size="10.00">+</text>
<text text-anchor="start" x="268.5" y="-257.5" font-family="Helvetica,sans-Serif" font-size="10.00">NUM_AUG_PROC_NOISE</text>
<text text-anchor="start" x="268.5" y="-246.5" font-family="Helvetica,sans-Serif" font-size="10.00">_VARIABLES</text>
<text text-anchor="start" x="243.5" y="-231.5" font-family="Helvetica,sans-Serif" font-size="10.00">+</text>
<text text-anchor="start" x="268.5" y="-231.5" font-family="Helvetica,sans-Serif" font-size="10.00">MotionModelCA()</text>
<text text-anchor="start" x="243.5" y="-216.5" font-family="Helvetica,sans-Serif" font-size="10.00">+</text>
<text text-anchor="start" x="268.5" y="-216.5" font-family="Helvetica,sans-Serif" font-size="10.00">MotionModelCA()</text>
<text text-anchor="start" x="243.5" y="-201.5" font-family="Helvetica,sans-Serif" font-size="10.00">+</text>
<text text-anchor="start" x="268.5" y="-201.5" font-family="Helvetica,sans-Serif" font-size="10.00">MotionModelCA()</text>
<text text-anchor="start" x="243.5" y="-186.5" font-family="Helvetica,sans-Serif" font-size="10.00">+</text>
<text text-anchor="start" x="268.5" y="-186.5" font-family="Helvetica,sans-Serif" font-size="10.00">operator=()</text>
<text text-anchor="start" x="243.5" y="-171.5" font-family="Helvetica,sans-Serif" font-size="10.00">+</text>
<text text-anchor="start" x="268.5" y="-171.5" font-family="Helvetica,sans-Serif" font-size="10.00">operator=()</text>
<text text-anchor="start" x="243.5" y="-156.5" font-family="Helvetica,sans-Serif" font-size="10.00">+</text>
<text text-anchor="start" x="268.5" y="-156.5" font-family="Helvetica,sans-Serif" font-size="10.00">~MotionModelCA()</text>
<text text-anchor="start" x="243.5" y="-141.5" font-family="Helvetica,sans-Serif" font-size="10.00">+</text>
<text text-anchor="start" x="268.5" y="-141.5" font-family="Helvetica,sans-Serif" font-size="10.00">getVx()</text>
<text text-anchor="start" x="243.5" y="-126.5" font-family="Helvetica,sans-Serif" font-size="10.00">+</text>
<text text-anchor="start" x="268.5" y="-126.5" font-family="Helvetica,sans-Serif" font-size="10.00">getVy()</text>
<text text-anchor="start" x="243.5" y="-111.5" font-family="Helvetica,sans-Serif" font-size="10.00">+</text>
<text text-anchor="start" x="268.5" y="-111.5" font-family="Helvetica,sans-Serif" font-size="10.00">getAx()</text>
<text text-anchor="start" x="243.5" y="-96.5" font-family="Helvetica,sans-Serif" font-size="10.00">+</text>
<text text-anchor="start" x="268.5" y="-96.5" font-family="Helvetica,sans-Serif" font-size="10.00">getAy()</text>
<text text-anchor="start" x="268.5" y="-81.5" font-family="Helvetica,sans-Serif" font-size="10.00">and 21 more...</text>
<text text-anchor="start" x="243.5" y="-66.5" font-family="Helvetica,sans-Serif" font-size="10.00">+</text>
<text text-anchor="start" x="268.5" y="-66.5" font-family="Helvetica,sans-Serif" font-size="10.00">computeQ()</text>
<text text-anchor="start" x="243.5" y="-51.5" font-family="Helvetica,sans-Serif" font-size="10.00">+</text>
<text text-anchor="start" x="268.5" y="-51.5" font-family="Helvetica,sans-Serif" font-size="10.00">computeG()</text>
<text text-anchor="start" x="243.5" y="-36.5" font-family="Helvetica,sans-Serif" font-size="10.00">+</text>
<text text-anchor="start" x="268.5" y="-36.5" font-family="Helvetica,sans-Serif" font-size="10.00">computeQ()</text>
<text text-anchor="start" x="243.5" y="-21.5" font-family="Helvetica,sans-Serif" font-size="10.00">+</text>
<text text-anchor="start" x="268.5" y="-21.5" font-family="Helvetica,sans-Serif" font-size="10.00">computeG()</text>
<text text-anchor="start" x="246" y="-6.5" font-family="Helvetica,sans-Serif" font-size="10.00">&#45;</text>
<text text-anchor="start" x="268.5" y="-6.5" font-family="Helvetica,sans-Serif" font-size="10.00">MotionModelCA()</text>
<polygon fill="#666666" stroke="#666666" points="227.5,-267.5 227.5,-267.5 416.5,-267.5 416.5,-267.5 227.5,-267.5"/>
<polygon fill="#666666" stroke="#666666" points="227.5,-241.5 227.5,-241.5 266.5,-241.5 266.5,-241.5 227.5,-241.5"/>
<polygon fill="#666666" stroke="#666666" points="266.5,-241.5 266.5,-241.5 416.5,-241.5 416.5,-241.5 266.5,-241.5"/>
<polygon fill="none" stroke="#666666" points="227,0 227,-307 416,-307 416,0 227,0"/>
</a>
</g>
</g>
<!-- Node2&#45;&gt;Node3 -->
<g id="edge2_Node000002_Node000003" class="edge">
<title>Node2&#45;&gt;Node3</title>
<g id="a_edge2_Node000002_Node000003"><a xlink:title=" ">
<path fill="none" stroke="#63b8ff" d="M424.74,-334.21C419.52,-325.12 414.31,-316.04 409.16,-307.08"/>
<polygon fill="none" stroke="#63b8ff" points="421.74,-336.01 429.75,-342.93 427.81,-332.52 421.74,-336.01"/>
</a>
</g>
</g>
<!-- Node4&#45;&gt;Node3 -->
<g id="edge4_Node000004_Node000003" class="edge">
<title>Node4&#45;&gt;Node3</title>
<g id="a_edge4_Node000004_Node000003"><a xlink:title=" ">
<path fill="none" stroke="#63b8ff" d="M218.26,-334.21C223.48,-325.12 228.69,-316.04 233.84,-307.08"/>
<polygon fill="none" stroke="#63b8ff" points="215.19,-332.52 213.25,-342.93 221.26,-336.01 215.19,-332.52"/>
</a>
</g>
</g>
<!-- Node5&#45;&gt;Node2 -->
<g id="edge6_Node000005_Node000002" class="edge">
<title>Node5&#45;&gt;Node2</title>
<g id="a_edge6_Node000005_Node000002"><a xlink:title=" ">
<path fill="none" stroke="#63b8ff" d="M401.4,-749.57C410.06,-735.33 418.97,-720.68 427.88,-706.01"/>
<polygon fill="none" stroke="#63b8ff" points="398.25,-748.02 396.05,-758.38 404.23,-751.66 398.25,-748.02"/>
</a>
</g>
</g>
<!-- Node5&#45;&gt;Node4 -->
<g id="edge7_Node000005_Node000004" class="edge">
<title>Node5&#45;&gt;Node4</title>
<g id="a_edge7_Node000005_Node000004"><a xlink:title=" ">
<path fill="none" stroke="#63b8ff" d="M241.6,-749.57C232.94,-735.33 224.03,-720.68 215.12,-706.01"/>
<polygon fill="none" stroke="#63b8ff" points="238.77,-751.66 246.95,-758.38 244.75,-748.02 238.77,-751.66"/>
</a>
</g>
</g>
<!-- Node6 -->
<g id="Node000006" class="node">
<title>Node6</title>
<g id="a_Node000006"><a xlink:href="classtracking_1_1motion_1_1ExtendedMotionModel.html" target="_top" xlink:title="Abstract MotionModel with known dimension, keeping the model memory for State and StateCovariance.">
<polygon fill="white" stroke="transparent" points="410,-702 233,-702 233,-354 410,-354 410,-702"/>
<text text-anchor="start" x="252.5" y="-690" font-family="Helvetica,sans-Serif" font-size="10.00">tracking::motion::Extended</text>
<text text-anchor="start" x="252.5" y="-679" font-family="Helvetica,sans-Serif" font-size="10.00">MotionModel&lt; MotionModel</text>
<text text-anchor="start" x="265.5" y="-668" font-family="Helvetica,sans-Serif" font-size="10.00">_, MotionModelTrait_ &gt;</text>
<text text-anchor="start" x="320" y="-653" font-family="Helvetica,sans-Serif" font-size="10.00"> </text>
<text text-anchor="start" x="237.5" y="-638" font-family="Helvetica,sans-Serif" font-size="10.00">+</text>
<text text-anchor="start" x="250.5" y="-638" font-family="Helvetica,sans-Serif" font-size="10.00">ExtendedMotionModel()</text>
<text text-anchor="start" x="237.5" y="-623" font-family="Helvetica,sans-Serif" font-size="10.00">+</text>
<text text-anchor="start" x="250.5" y="-623" font-family="Helvetica,sans-Serif" font-size="10.00">~ExtendedMotionModel()</text>
<text text-anchor="start" x="237.5" y="-608" font-family="Helvetica,sans-Serif" font-size="10.00">+</text>
<text text-anchor="start" x="250.5" y="-608" font-family="Helvetica,sans-Serif" font-size="10.00">getX()</text>
<text text-anchor="start" x="237.5" y="-593" font-family="Helvetica,sans-Serif" font-size="10.00">+</text>
<text text-anchor="start" x="250.5" y="-593" font-family="Helvetica,sans-Serif" font-size="10.00">getY()</text>
<text text-anchor="start" x="237.5" y="-578" font-family="Helvetica,sans-Serif" font-size="10.00">+</text>
<text text-anchor="start" x="250.5" y="-578" font-family="Helvetica,sans-Serif" font-size="10.00">invertCov()</text>
<text text-anchor="start" x="237.5" y="-563" font-family="Helvetica,sans-Serif" font-size="10.00">+</text>
<text text-anchor="start" x="250.5" y="-563" font-family="Helvetica,sans-Serif" font-size="10.00">predict()</text>
<text text-anchor="start" x="237.5" y="-548" font-family="Helvetica,sans-Serif" font-size="10.00">+</text>
<text text-anchor="start" x="250.5" y="-548" font-family="Helvetica,sans-Serif" font-size="10.00">predict()</text>
<text text-anchor="start" x="237.5" y="-533" font-family="Helvetica,sans-Serif" font-size="10.00">+</text>
<text text-anchor="start" x="250.5" y="-533" font-family="Helvetica,sans-Serif" font-size="10.00">convertStateVecIntoState</text>
<text text-anchor="start" x="250.5" y="-522" font-family="Helvetica,sans-Serif" font-size="10.00">Space()</text>
<text text-anchor="start" x="237.5" y="-507" font-family="Helvetica,sans-Serif" font-size="10.00">+</text>
<text text-anchor="start" x="250.5" y="-507" font-family="Helvetica,sans-Serif" font-size="10.00">convertStateVecIntoInformation</text>
<text text-anchor="start" x="250.5" y="-496" font-family="Helvetica,sans-Serif" font-size="10.00">Space()</text>
<text text-anchor="start" x="237.5" y="-481" font-family="Helvetica,sans-Serif" font-size="10.00">+</text>
<text text-anchor="start" x="250.5" y="-481" font-family="Helvetica,sans-Serif" font-size="10.00">StateVecFromList()</text>
<text text-anchor="start" x="237.5" y="-466" font-family="Helvetica,sans-Serif" font-size="10.00">+</text>
<text text-anchor="start" x="250.5" y="-466" font-family="Helvetica,sans-Serif" font-size="10.00">StateCovFromList()</text>
<text text-anchor="start" x="237.5" y="-451" font-family="Helvetica,sans-Serif" font-size="10.00">+</text>
<text text-anchor="start" x="250.5" y="-451" font-family="Helvetica,sans-Serif" font-size="10.00">StateCovFromList()</text>
<text text-anchor="start" x="237.5" y="-436" font-family="Helvetica,sans-Serif" font-size="10.00">+</text>
<text text-anchor="start" x="250.5" y="-436" font-family="Helvetica,sans-Serif" font-size="10.00">FromLists()</text>
<text text-anchor="start" x="237.5" y="-421" font-family="Helvetica,sans-Serif" font-size="10.00">#</text>
<text text-anchor="start" x="250.5" y="-421" font-family="Helvetica,sans-Serif" font-size="10.00">ExtendedMotionModel()</text>
<text text-anchor="start" x="237.5" y="-406" font-family="Helvetica,sans-Serif" font-size="10.00">#</text>
<text text-anchor="start" x="250.5" y="-406" font-family="Helvetica,sans-Serif" font-size="10.00">ExtendedMotionModel()</text>
<text text-anchor="start" x="237.5" y="-391" font-family="Helvetica,sans-Serif" font-size="10.00">#</text>
<text text-anchor="start" x="250.5" y="-391" font-family="Helvetica,sans-Serif" font-size="10.00">operator=()</text>
<text text-anchor="start" x="237.5" y="-376" font-family="Helvetica,sans-Serif" font-size="10.00">#</text>
<text text-anchor="start" x="250.5" y="-376" font-family="Helvetica,sans-Serif" font-size="10.00">operator=()</text>
<text text-anchor="start" x="237.5" y="-361" font-family="Helvetica,sans-Serif" font-size="10.00">#</text>
<text text-anchor="start" x="250.5" y="-361" font-family="Helvetica,sans-Serif" font-size="10.00">ExtendedMotionModel()</text>
<polygon fill="#666666" stroke="#666666" points="233.5,-663 233.5,-663 410.5,-663 410.5,-663 233.5,-663"/>
<polygon fill="#666666" stroke="#666666" points="233.5,-648 233.5,-648 410.5,-648 410.5,-648 233.5,-648"/>
<polygon fill="none" stroke="#666666" points="233,-354 233,-702 410,-702 410,-354 233,-354"/>
</a>
</g>
</g>
<!-- Node5&#45;&gt;Node6 -->
<g id="edge8_Node000005_Node000006" class="edge">
<title>Node5&#45;&gt;Node6</title>
<g id="a_edge8_Node000005_Node000006"><a xlink:title=" ">
<path fill="none" stroke="#63b8ff" d="M321.5,-738.81C321.5,-726.71 321.5,-714.38 321.5,-702.07"/>
<polygon fill="none" stroke="#63b8ff" points="318,-738.93 321.5,-748.93 325,-738.93 318,-738.93"/>
</a>
</g>
</g>
</g>
</svg>
