<?xml version="1.0" encoding="UTF-8" standalone="no"?>
<!DOCTYPE svg PUBLIC "-//W3C//DTD SVG 1.1//EN"
 "http://www.w3.org/Graphics/SVG/1.1/DTD/svg11.dtd">
<!-- Generated by graphviz version 2.43.0 (0)
 -->
<!-- Title: tracking::motion::generic::Predict::run Pages: 1 -->
<!--zoomable 291 -->

<svg id="main" version="1.1" xmlns="http://www.w3.org/2000/svg" xmlns:xlink="http://www.w3.org/1999/xlink" xml:space="preserve" onload="init(evt)">
<style type="text/css"><![CDATA[
.node, .edge {opacity: 0.7;}
.node.selected, .edge.selected {opacity: 1;}
.edge:hover path { stroke: red; }
.edge:hover polygon { stroke: red; fill: red; }
]]></style>

<defs>
  <circle id="rim" cx="0" cy="0" r="7"/>
  <circle id="rim2" cx="0" cy="0" r="3.5"/>
  <g id="zoomPlus">
    <use xlink:href="#rim" fill="#404040"><set attributeName="fill" to="#808080" begin="zoomplus.mouseover" end="zoomplus.mouseout"/></use>
    <path d="M-4,0h8M0,-4v8" fill="none" stroke="white" stroke-width="1.5" pointer-events="none"/>
  </g>
  <g id="zoomMin">
    <use xlink:href="#rim" fill="#404040"><set attributeName="fill" to="#808080" begin="zoomminus.mouseover" end="zoomminus.mouseout"/></use>
    <path d="M-4,0h8" fill="none" stroke="white" stroke-width="1.5" pointer-events="none"/>
  </g>
  <g id="arrowUp" transform="translate(30 24)">
    <use xlink:href="#rim"/>
    <path pointer-events="none" fill="none" stroke="white" stroke-width="1.5" d="M0,-3.0v7 M-2.5,-0.5L0,-3.0L2.5,-0.5"/>
  </g>
  <g id="arrowRight" transform="rotate(90) translate(36 -43)">
    <use xlink:href="#rim"/>
    <path pointer-events="none" fill="none" stroke="white" stroke-width="1.5" d="M0,-3.0v7 M-2.5,-0.5L0,-3.0L2.5,-0.5"/>
  </g>
  <g id="arrowDown" transform="rotate(180) translate(-30 -48)">
    <use xlink:href="#rim"/>
    <path pointer-events="none" fill="none" stroke="white" stroke-width="1.5" d="M0,-3.0v7 M-2.5,-0.5L0,-3.0L2.5,-0.5"/>
  </g>
  <g id="arrowLeft" transform="rotate(270) translate(-36 17)">
    <use xlink:href="#rim"/>
    <path pointer-events="none" fill="none" stroke="white" stroke-width="1.5" d="M0,-3.0v7 M-2.5,-0.5L0,-3.0L2.5,-0.5"/>
  </g>
  <g id="resetDef">
    <use xlink:href="#rim2" fill="#404040"><set attributeName="fill" to="#808080" begin="reset.mouseover" end="reset.mouseout"/></use>
  </g>
</defs>
<script type="application/ecmascript">
var viewWidth = 721;
var viewHeight = 291;
var sectionId = 'dynsection-1';
</script>
<script type="application/ecmascript" xlink:href="svg.min.js"/>
<svg id="graph" class="graph">
<g id="viewport">
<title>tracking::motion::generic::Predict::run</title>
<!-- Node1 -->
<g id="Node000001" class="node">
<title>Node1</title>
<g id="a_Node000001"><a xlink:title="State prediction with ego motion compensation using an InformationFilter.">
<polygon fill="#999999" stroke="#666666" points="139,-85.41 0,-85.41 0,-55.41 139,-55.41 139,-85.41"/>
<text text-anchor="start" x="8" y="-73.41" font-family="Helvetica,sans-Serif" font-size="10.00">tracking::motion::generic</text>
<text text-anchor="middle" x="69.5" y="-62.41" font-family="Helvetica,sans-Serif" font-size="10.00">::Predict::run</text>
</a>
</g>
</g>
<!-- Node2 -->
<g id="Node000002" class="node">
<title>Node2</title>
<g id="a_Node000002"><a xlink:href="classtracking_1_1env_1_1EgoMotion.html#a65b4febc155d69ae77c6a42f626bb2e3" target="_top" xlink:title="Get the displacement information for center of gravity.">
<polygon fill="white" stroke="#666666" points="317.5,-176.41 180.5,-176.41 180.5,-146.41 317.5,-146.41 317.5,-176.41"/>
<text text-anchor="start" x="188.5" y="-164.41" font-family="Helvetica,sans-Serif" font-size="10.00">tracking::env::EgoMotion</text>
<text text-anchor="middle" x="249" y="-153.41" font-family="Helvetica,sans-Serif" font-size="10.00">::getDisplacementCog</text>
</a>
</g>
</g>
<!-- Node1&#45;&gt;Node2 -->
<g id="edge1_Node000001_Node000002" class="edge">
<title>Node1&#45;&gt;Node2</title>
<g id="a_edge1_Node000001_Node000002"><a xlink:title=" ">
<path fill="none" stroke="#63b8ff" d="M90.81,-85.64C111.24,-100.42 144.05,-122.7 175,-137.41 178.86,-139.25 182.9,-141 187.02,-142.67"/>
<polygon fill="#63b8ff" stroke="#63b8ff" points="186.1,-146.06 196.69,-146.37 188.61,-139.53 186.1,-146.06"/>
</a>
</g>
</g>
<!-- Node3 -->
<g id="Node000003" class="node">
<title>Node3</title>
<g id="a_Node000003"><a xlink:href="classtracking_1_1filter_1_1InformationFilter.html#a10fd3d15b0f1cde43be4d74f7ba28404" target="_top" xlink:title=" ">
<polygon fill="white" stroke="#666666" points="323,-128.41 175,-128.41 175,-98.41 323,-98.41 323,-128.41"/>
<text text-anchor="start" x="183" y="-116.41" font-family="Helvetica,sans-Serif" font-size="10.00">tracking::filter::Information</text>
<text text-anchor="middle" x="249" y="-105.41" font-family="Helvetica,sans-Serif" font-size="10.00">Filter::predictCovariance</text>
</a>
</g>
</g>
<!-- Node1&#45;&gt;Node3 -->
<g id="edge2_Node000001_Node000003" class="edge">
<title>Node1&#45;&gt;Node3</title>
<g id="a_edge2_Node000001_Node000003"><a xlink:title=" ">
<path fill="none" stroke="#63b8ff" d="M132.58,-85.45C146.63,-88.86 161.67,-92.5 176.09,-95.99"/>
<polygon fill="#63b8ff" stroke="#63b8ff" points="175.41,-99.43 185.95,-98.38 177.06,-92.63 175.41,-99.43"/>
</a>
</g>
</g>
<!-- Node8 -->
<g id="Node000008" class="node">
<title>Node8</title>
<g id="a_Node000008"><a xlink:href="classtracking_1_1math_1_1SquareMatrix.html#aa28cafb64caa7a86fd8871ecb30e993d" target="_top" xlink:title="Symmetrize the matrix by averaging with its transpose.">
<polygon fill="white" stroke="#666666" points="518,-53.41 359,-53.41 359,-23.41 518,-23.41 518,-53.41"/>
<text text-anchor="start" x="367" y="-41.41" font-family="Helvetica,sans-Serif" font-size="10.00">tracking::math::SquareMatrix</text>
<text text-anchor="middle" x="438.5" y="-30.41" font-family="Helvetica,sans-Serif" font-size="10.00">::symmetrize</text>
</a>
</g>
</g>
<!-- Node1&#45;&gt;Node8 -->
<g id="edge11_Node000001_Node000008" class="edge">
<title>Node1&#45;&gt;Node8</title>
<g id="a_edge11_Node000001_Node000008"><a xlink:title=" ">
<path fill="none" stroke="#63b8ff" d="M139.1,-64.43C198.28,-59.27 284.13,-51.79 348.57,-46.17"/>
<polygon fill="#63b8ff" stroke="#63b8ff" points="349.07,-49.64 358.73,-45.28 348.46,-42.66 349.07,-49.64"/>
</a>
</g>
</g>
<!-- Node10 -->
<g id="Node000010" class="node">
<title>Node10</title>
<g id="a_Node000010"><a xlink:href="classtracking_1_1math_1_1Matrix.html#a478f0eea63246477537c07d88584371d" target="_top" xlink:title="Fast transpose without changing the layout (zero&#45;copy view)">
<polygon fill="white" stroke="#666666" points="711,-101.91 556,-101.91 556,-60.91 711,-60.91 711,-101.91"/>
<text text-anchor="start" x="564" y="-89.91" font-family="Helvetica,sans-Serif" font-size="10.00">tracking::math::Matrix</text>
<text text-anchor="start" x="564" y="-78.91" font-family="Helvetica,sans-Serif" font-size="10.00">&lt; ValueType_, Size_, Size</text>
<text text-anchor="middle" x="633.5" y="-67.91" font-family="Helvetica,sans-Serif" font-size="10.00">_, IsRowMajor_ &gt;::transpose</text>
</a>
</g>
</g>
<!-- Node1&#45;&gt;Node10 -->
<g id="edge12_Node000001_Node000010" class="edge">
<title>Node1&#45;&gt;Node10</title>
<g id="a_edge12_Node000001_Node000010"><a xlink:title=" ">
<path fill="none" stroke="#63b8ff" d="M110.12,-55.37C189.06,-27.6 371.02,25.43 518,-14.41 547.24,-22.34 576.66,-39.81 598.36,-54.92"/>
<polygon fill="#63b8ff" stroke="#63b8ff" points="596.4,-57.83 606.57,-60.79 600.47,-52.13 596.4,-57.83"/>
</a>
</g>
</g>
<!-- Node4 -->
<g id="Node000004" class="node">
<title>Node4</title>
<g id="a_Node000004"><a xlink:href="classtracking_1_1math_1_1SquareMatrix.html#a911f645174c9ebb677deeeef12a71a34" target="_top" xlink:title="Compute the matrix inverse using QR decomposition.">
<polygon fill="white" stroke="#666666" points="518,-283.41 359,-283.41 359,-253.41 518,-253.41 518,-283.41"/>
<text text-anchor="start" x="367" y="-271.41" font-family="Helvetica,sans-Serif" font-size="10.00">tracking::math::SquareMatrix</text>
<text text-anchor="middle" x="438.5" y="-260.41" font-family="Helvetica,sans-Serif" font-size="10.00">::inverse</text>
</a>
</g>
</g>
<!-- Node3&#45;&gt;Node4 -->
<g id="edge3_Node000003_Node000004" class="edge">
<title>Node3&#45;&gt;Node4</title>
<g id="a_edge3_Node000003_Node000004"><a xlink:title=" ">
<path fill="none" stroke="#63b8ff" d="M311.18,-128.42C315.48,-130.96 319.5,-133.94 323,-137.41 358.6,-172.77 323.03,-209.43 359,-244.41 360.12,-245.5 361.28,-246.54 362.49,-247.53"/>
<polygon fill="#63b8ff" stroke="#63b8ff" points="360.78,-250.6 371,-253.41 364.76,-244.85 360.78,-250.6"/>
</a>
</g>
</g>
<!-- Node6 -->
<g id="Node000006" class="node">
<title>Node6</title>
<g id="a_Node000006"><a xlink:href="classtracking_1_1math_1_1SquareMatrix.html#a4781b46749a96cc7cf05f941d8ead8f2" target="_top" xlink:title="Checks if the matrix is positive semi&#45;definite.">
<polygon fill="white" stroke="#666666" points="518,-235.41 359,-235.41 359,-205.41 518,-205.41 518,-235.41"/>
<text text-anchor="start" x="367" y="-223.41" font-family="Helvetica,sans-Serif" font-size="10.00">tracking::math::SquareMatrix</text>
<text text-anchor="middle" x="438.5" y="-212.41" font-family="Helvetica,sans-Serif" font-size="10.00">::isPositiveSemiDefinite</text>
</a>
</g>
</g>
<!-- Node3&#45;&gt;Node6 -->
<g id="edge5_Node000003_Node000006" class="edge">
<title>Node3&#45;&gt;Node6</title>
<g id="a_edge5_Node000003_Node000006"><a xlink:title=" ">
<path fill="none" stroke="#63b8ff" d="M308.91,-128.57C313.93,-131.09 318.71,-134.02 323,-137.41 347.07,-156.5 334.73,-177.58 359,-196.41 360.78,-197.8 362.65,-199.1 364.57,-200.33"/>
<polygon fill="#63b8ff" stroke="#63b8ff" points="362.94,-203.43 373.38,-205.26 366.36,-197.32 362.94,-203.43"/>
</a>
</g>
</g>
<!-- Node7 -->
<g id="Node000007" class="node">
<title>Node7</title>
<g id="a_Node000007"><a xlink:href="classtracking_1_1math_1_1SquareMatrix.html#a944374777b1df93e4bec74765bcef6e0" target="_top" xlink:title="Solve the linear system A * x = b using QR decomposition.">
<polygon fill="white" stroke="#666666" points="518,-187.41 359,-187.41 359,-157.41 518,-157.41 518,-187.41"/>
<text text-anchor="start" x="367" y="-175.41" font-family="Helvetica,sans-Serif" font-size="10.00">tracking::math::SquareMatrix</text>
<text text-anchor="middle" x="438.5" y="-164.41" font-family="Helvetica,sans-Serif" font-size="10.00">::qrSolve</text>
</a>
</g>
</g>
<!-- Node3&#45;&gt;Node7 -->
<g id="edge6_Node000003_Node000007" class="edge">
<title>Node3&#45;&gt;Node7</title>
<g id="a_edge6_Node000003_Node000007"><a xlink:title=" ">
<path fill="none" stroke="#63b8ff" d="M296.36,-128.46C315.71,-134.7 338.42,-141.97 359,-148.41 365.3,-150.39 371.9,-152.44 378.47,-154.47"/>
<polygon fill="#63b8ff" stroke="#63b8ff" points="377.47,-157.82 388.05,-157.41 379.53,-151.13 377.47,-157.82"/>
</a>
</g>
</g>
<!-- Node3&#45;&gt;Node8 -->
<g id="edge7_Node000003_Node000008" class="edge">
<title>Node3&#45;&gt;Node8</title>
<g id="a_edge7_Node000003_Node000008"><a xlink:title=" ">
<path fill="none" stroke="#63b8ff" d="M284.69,-98.3C306.02,-89.12 333.98,-77.31 359,-67.41 367.82,-63.92 377.26,-60.33 386.41,-56.91"/>
<polygon fill="#63b8ff" stroke="#63b8ff" points="387.65,-60.18 395.81,-53.41 385.22,-53.61 387.65,-60.18"/>
</a>
</g>
</g>
<!-- Node9 -->
<g id="Node000009" class="node">
<title>Node9</title>
<g id="a_Node000009"><a xlink:href="classtracking_1_1math_1_1SquareMatrix.html#a83aee3d96b9a570cf86fd8b82151f1a3" target="_top" xlink:title="Fast transpose without changing the layout (zero&#45;copy view)">
<polygon fill="white" stroke="#666666" points="518,-139.41 359,-139.41 359,-109.41 518,-109.41 518,-139.41"/>
<text text-anchor="start" x="367" y="-127.41" font-family="Helvetica,sans-Serif" font-size="10.00">tracking::math::SquareMatrix</text>
<text text-anchor="middle" x="438.5" y="-116.41" font-family="Helvetica,sans-Serif" font-size="10.00">::transpose</text>
</a>
</g>
</g>
<!-- Node3&#45;&gt;Node9 -->
<g id="edge8_Node000003_Node000009" class="edge">
<title>Node3&#45;&gt;Node9</title>
<g id="a_edge8_Node000003_Node000009"><a xlink:title=" ">
<path fill="none" stroke="#63b8ff" d="M323.03,-117.7C331.45,-118.19 340.11,-118.7 348.72,-119.21"/>
<polygon fill="#63b8ff" stroke="#63b8ff" points="348.59,-122.7 358.78,-119.8 349,-115.72 348.59,-122.7"/>
</a>
</g>
</g>
<!-- Node3&#45;&gt;Node10 -->
<g id="edge10_Node000003_Node000010" class="edge">
<title>Node3&#45;&gt;Node10</title>
<g id="a_edge10_Node000003_Node000010"><a xlink:title=" ">
<path fill="none" stroke="#63b8ff" d="M323.24,-104.18C335.18,-102.82 347.43,-101.51 359,-100.41 421.32,-94.54 491.8,-89.68 545.6,-86.35"/>
<polygon fill="#63b8ff" stroke="#63b8ff" points="546.02,-89.83 555.79,-85.73 545.59,-82.85 546.02,-89.83"/>
</a>
</g>
</g>
<!-- Node5 -->
<g id="Node000005" class="node">
<title>Node5</title>
<g id="a_Node000005"><a xlink:href="classtracking_1_1math_1_1SquareMatrix.html#a1767678675efd8983ce5beab4c53b2d7" target="_top" xlink:title="Construct an identity matrix with ones on the diagonal and zeros elsewhere.">
<polygon fill="white" stroke="#666666" points="713,-283.41 554,-283.41 554,-253.41 713,-253.41 713,-283.41"/>
<text text-anchor="start" x="562" y="-271.41" font-family="Helvetica,sans-Serif" font-size="10.00">tracking::math::SquareMatrix</text>
<text text-anchor="middle" x="633.5" y="-260.41" font-family="Helvetica,sans-Serif" font-size="10.00">::Identity</text>
</a>
</g>
</g>
<!-- Node4&#45;&gt;Node5 -->
<g id="edge4_Node000004_Node000005" class="edge">
<title>Node4&#45;&gt;Node5</title>
<g id="a_edge4_Node000004_Node000005"><a xlink:title=" ">
<path fill="none" stroke="#63b8ff" d="M518,-268.41C526.48,-268.41 535.14,-268.41 543.73,-268.41"/>
<polygon fill="#63b8ff" stroke="#63b8ff" points="543.76,-271.91 553.76,-268.41 543.76,-264.91 543.76,-271.91"/>
</a>
</g>
</g>
<!-- Node9&#45;&gt;Node10 -->
<g id="edge9_Node000009_Node000010" class="edge">
<title>Node9&#45;&gt;Node10</title>
<g id="a_edge9_Node000009_Node000010"><a xlink:title=" ">
<path fill="none" stroke="#63b8ff" d="M507,-109.37C519.56,-106.58 532.85,-103.62 545.88,-100.71"/>
<polygon fill="#63b8ff" stroke="#63b8ff" points="546.79,-104.1 555.79,-98.5 545.27,-97.26 546.79,-104.1"/>
</a>
</g>
</g>
</g>
</svg>

<g id="navigator" transform="translate(0 0)" fill="#404254">
  <rect fill="#f2f5e9" fill-opacity="0.5" stroke="#606060" stroke-width=".5" x="0" y="0" width="60" height="60"/>
  <use id="zoomplus" xlink:href="#zoomPlus" x="17" y="9" onmousedown="handleZoom(evt,'in')"/>
  <use id="zoomminus" xlink:href="#zoomMin" x="42" y="9" onmousedown="handleZoom(evt,'out')"/>
  <use id="reset" xlink:href="#resetDef" x="30" y="36" onmousedown="handleReset()"/>
   <use id="arrowup" xlink:href="#arrowUp" x="0" y="0" onmousedown="handlePan(0,-1)"/>
  <use id="arrowright" xlink:href="#arrowRight" x="0" y="0" onmousedown="handlePan(1,0)"/>
  <use id="arrowdown" xlink:href="#arrowDown" x="0" y="0" onmousedown="handlePan(0,1)"/>
  <use id="arrowleft" xlink:href="#arrowLeft" x="0" y="0" onmousedown="handlePan(-1,0)"/>
</g>
<svg viewBox="0 0 15 15" width="100%" height="30px" preserveAspectRatio="xMaxYMin meet">
 <g id="arrow_out" transform="scale(0.3 0.3)">
  <a xlink:href="classtracking_1_1motion_1_1generic_1_1Predict_ad6bc834949fd3d8f75ec79ddf2d734d5_cgraph_org.svg" target="_base">
   <rect id="button" ry="5" rx="5" y="6" x="6" height="38" width="38"
        fill="#f2f5e9" fill-opacity="0.5" stroke="#606060" stroke-width="1.0"/>
   <path id="arrow"
     d="M 11.500037,31.436501 C 11.940474,20.09759 22.043105,11.32322 32.158766,21.979434 L 37.068811,17.246167 C 37.068811,17.246167 37.088388,32 37.088388,32 L 22.160133,31.978069 C 22.160133,31.978069 26.997745,27.140456 26.997745,27.140456 C 18.528582,18.264221 13.291696,25.230495 11.500037,31.436501 z"
     style="fill:#404040;"/>
  </a>
 </g>
</svg>

<style type='text/css'>
<![CDATA[
[data-mouse-over-selected='false'] { opacity: 0.7; }
[data-mouse-over-selected='true']  { opacity: 1.0; }
]]>
</style>
<script type="application/ecmascript"><![CDATA[
document.addEventListener('DOMContentLoaded', (event) => {
  highlightEdges();
  highlightAdjacentNodes();
});
]]></script>
</svg>
