<?xml version="1.0" encoding="UTF-8" standalone="no"?>
<!DOCTYPE svg PUBLIC "-//W3C//DTD SVG 1.1//EN"
 "http://www.w3.org/Graphics/SVG/1.1/DTD/svg11.dtd">
<!-- Generated by graphviz version 2.43.0 (0)
 -->
<!-- Title: tracking::math::SquareMatrix::transpose Pages: 1 -->
<svg width="567pt" height="268pt"
 viewBox="0.00 0.00 567.00 267.50" xmlns="http://www.w3.org/2000/svg" xmlns:xlink="http://www.w3.org/1999/xlink">
<g id="graph0" class="graph" transform="scale(1 1) rotate(0) translate(4 263.5)">
<title>tracking::math::SquareMatrix::transpose</title>
<!-- Node1 -->
<g id="Node000001" class="node">
<title>Node1</title>
<g id="a_Node000001"><a xlink:title="Fast transpose without changing the layout (zero&#45;copy view)">
<polygon fill="#999999" stroke="#666666" points="559,-158 400,-158 400,-128 559,-128 559,-158"/>
<text text-anchor="start" x="408" y="-146" font-family="Helvetica,sans-Serif" font-size="10.00">tracking::math::SquareMatrix</text>
<text text-anchor="middle" x="479.5" y="-135" font-family="Helvetica,sans-Serif" font-size="10.00">::transpose</text>
</a>
</g>
</g>
<!-- Node2 -->
<g id="Node000002" class="node">
<title>Node2</title>
<g id="a_Node000002"><a xlink:href="classtracking_1_1math_1_1CovarianceMatrixFactored.html#acadfdd5893de13e8177427e3cf1b7784" target="_top" xlink:title="Compute inverse as full covariance matrix.">
<polygon fill="white" stroke="#666666" points="164,-259.5 15,-259.5 15,-218.5 164,-218.5 164,-259.5"/>
<text text-anchor="start" x="23" y="-247.5" font-family="Helvetica,sans-Serif" font-size="10.00">tracking::math::Covariance</text>
<text text-anchor="start" x="23" y="-236.5" font-family="Helvetica,sans-Serif" font-size="10.00">MatrixFactored::composed</text>
<text text-anchor="middle" x="89.5" y="-225.5" font-family="Helvetica,sans-Serif" font-size="10.00">_inverse</text>
</a>
</g>
</g>
<!-- Node1&#45;&gt;Node2 -->
<g id="edge1_Node000001_Node000002" class="edge">
<title>Node1&#45;&gt;Node2</title>
<g id="a_edge1_Node000001_Node000002"><a xlink:title=" ">
<path fill="none" stroke="#63b8ff" d="M460.14,-165.78C439.6,-189.28 403.91,-224.48 364,-239 299.52,-262.45 220.69,-259.43 164.26,-252.35"/>
<polygon fill="#63b8ff" stroke="#63b8ff" points="462.94,-167.89 466.76,-158.01 457.61,-163.35 462.94,-167.89"/>
</a>
</g>
</g>
<!-- Node3 -->
<g id="Node000003" class="node">
<title>Node3</title>
<g id="a_Node000003"><a xlink:href="classtracking_1_1math_1_1CovarianceMatrixFactored.html#ab1b0b450b5e2daae321027ca80605dca" target="_top" xlink:title="Compute inverse in factored form.">
<polygon fill="white" stroke="#666666" points="364,-230 215,-230 215,-200 364,-200 364,-230"/>
<text text-anchor="start" x="223" y="-218" font-family="Helvetica,sans-Serif" font-size="10.00">tracking::math::Covariance</text>
<text text-anchor="middle" x="289.5" y="-207" font-family="Helvetica,sans-Serif" font-size="10.00">MatrixFactored::inverse</text>
</a>
</g>
</g>
<!-- Node1&#45;&gt;Node3 -->
<g id="edge2_Node000001_Node000003" class="edge">
<title>Node1&#45;&gt;Node3</title>
<g id="a_edge2_Node000001_Node000003"><a xlink:title=" ">
<path fill="none" stroke="#63b8ff" d="M435.3,-162.09C414,-171.25 387.82,-182.13 364,-191 355.82,-194.04 347.06,-197.09 338.54,-199.94"/>
<polygon fill="#63b8ff" stroke="#63b8ff" points="436.93,-165.2 444.72,-158.01 434.15,-158.77 436.93,-165.2"/>
</a>
</g>
</g>
<!-- Node4 -->
<g id="Node000004" class="node">
<title>Node4</title>
<g id="a_Node000004"><a xlink:href="classtracking_1_1math_1_1CovarianceMatrixFull.html#a3ca0f4a537a5362a74ef765ef46c1986" target="_top" xlink:title="Calculates the matrix inverse using Cholesky decomposition.">
<polygon fill="white" stroke="#666666" points="364,-182 215,-182 215,-152 364,-152 364,-182"/>
<text text-anchor="start" x="223" y="-170" font-family="Helvetica,sans-Serif" font-size="10.00">tracking::math::Covariance</text>
<text text-anchor="middle" x="289.5" y="-159" font-family="Helvetica,sans-Serif" font-size="10.00">MatrixFull::inverse</text>
</a>
</g>
</g>
<!-- Node1&#45;&gt;Node4 -->
<g id="edge3_Node000001_Node000004" class="edge">
<title>Node1&#45;&gt;Node4</title>
<g id="a_edge3_Node000001_Node000004"><a xlink:title=" ">
<path fill="none" stroke="#63b8ff" d="M389.78,-154.33C381.16,-155.43 372.47,-156.54 364.02,-157.61"/>
<polygon fill="#63b8ff" stroke="#63b8ff" points="390.38,-157.78 399.86,-153.04 389.5,-150.83 390.38,-157.78"/>
</a>
</g>
</g>
<!-- Node6 -->
<g id="Node000006" class="node">
<title>Node6</title>
<g id="a_Node000006"><a xlink:href="classtracking_1_1math_1_1CovarianceMatrixFactored.html#a1714e069ca1f44b5b2bc0fbe47df7922" target="_top" xlink:title="Creates the composed covariance.">
<polygon fill="white" stroke="#666666" points="364,-134 215,-134 215,-104 364,-104 364,-134"/>
<text text-anchor="start" x="223" y="-122" font-family="Helvetica,sans-Serif" font-size="10.00">tracking::math::Covariance</text>
<text text-anchor="middle" x="289.5" y="-111" font-family="Helvetica,sans-Serif" font-size="10.00">MatrixFactored::operator()</text>
</a>
</g>
</g>
<!-- Node1&#45;&gt;Node6 -->
<g id="edge6_Node000001_Node000006" class="edge">
<title>Node1&#45;&gt;Node6</title>
<g id="a_edge6_Node000001_Node000006"><a xlink:title=" ">
<path fill="none" stroke="#63b8ff" d="M389.78,-131.67C381.16,-130.57 372.47,-129.46 364.02,-128.39"/>
<polygon fill="#63b8ff" stroke="#63b8ff" points="389.5,-135.17 399.86,-132.96 390.38,-128.22 389.5,-135.17"/>
</a>
</g>
</g>
<!-- Node7 -->
<g id="Node000007" class="node">
<title>Node7</title>
<g id="a_Node000007"><a xlink:href="classtracking_1_1filter_1_1KalmanFilter.html#ab66a65941a9b1adbdd6d2ed0c37c4dc8" target="_top" xlink:title=" ">
<polygon fill="white" stroke="#666666" points="357.5,-86 221.5,-86 221.5,-56 357.5,-56 357.5,-86"/>
<text text-anchor="start" x="229.5" y="-74" font-family="Helvetica,sans-Serif" font-size="10.00">tracking::filter::Kalman</text>
<text text-anchor="middle" x="289.5" y="-63" font-family="Helvetica,sans-Serif" font-size="10.00">Filter::predictCovariance</text>
</a>
</g>
</g>
<!-- Node1&#45;&gt;Node7 -->
<g id="edge7_Node000001_Node000007" class="edge">
<title>Node1&#45;&gt;Node7</title>
<g id="a_edge7_Node000001_Node000007"><a xlink:title=" ">
<path fill="none" stroke="#63b8ff" d="M435.3,-123.91C414,-114.75 387.82,-103.87 364,-95 355.82,-91.96 347.06,-88.91 338.54,-86.06"/>
<polygon fill="#63b8ff" stroke="#63b8ff" points="434.15,-127.23 444.72,-127.99 436.93,-120.8 434.15,-127.23"/>
</a>
</g>
</g>
<!-- Node9 -->
<g id="Node000009" class="node">
<title>Node9</title>
<g id="a_Node000009"><a xlink:href="classtracking_1_1filter_1_1InformationFilter.html#a10fd3d15b0f1cde43be4d74f7ba28404" target="_top" xlink:title=" ">
<polygon fill="white" stroke="#666666" points="363.5,-35 215.5,-35 215.5,-5 363.5,-5 363.5,-35"/>
<text text-anchor="start" x="223.5" y="-23" font-family="Helvetica,sans-Serif" font-size="10.00">tracking::filter::Information</text>
<text text-anchor="middle" x="289.5" y="-12" font-family="Helvetica,sans-Serif" font-size="10.00">Filter::predictCovariance</text>
</a>
</g>
</g>
<!-- Node1&#45;&gt;Node9 -->
<g id="edge9_Node000001_Node000009" class="edge">
<title>Node1&#45;&gt;Node9</title>
<g id="a_edge9_Node000001_Node000009"><a xlink:title=" ">
<path fill="none" stroke="#63b8ff" d="M456.74,-120.73C434.92,-99.43 399.54,-67.58 364,-47 356.24,-42.5 347.59,-38.53 339.03,-35.11"/>
<polygon fill="#63b8ff" stroke="#63b8ff" points="454.3,-123.24 463.87,-127.79 459.23,-118.27 454.3,-123.24"/>
</a>
</g>
</g>
<!-- Node4&#45;&gt;Node2 -->
<g id="edge4_Node000004_Node000002" class="edge">
<title>Node4&#45;&gt;Node2</title>
<g id="a_edge4_Node000004_Node000002"><a xlink:title=" ">
<path fill="none" stroke="#63b8ff" d="M231.12,-185.41C225.66,-187.26 220.22,-189.14 215,-191 190.88,-199.58 164.39,-209.7 142.06,-218.42"/>
<polygon fill="#63b8ff" stroke="#63b8ff" points="232.56,-188.62 240.93,-182.13 230.34,-181.99 232.56,-188.62"/>
</a>
</g>
</g>
<!-- Node5 -->
<g id="Node000005" class="node">
<title>Node5</title>
<g id="a_Node000005"><a xlink:href="classtracking_1_1math_1_1CovarianceMatrixFull.html#a2b6eac9001311d011d12a2ce79706938" target="_top" xlink:title="Compute inverse as full covariance matrix.">
<polygon fill="white" stroke="#666666" points="171,-182 8,-182 8,-152 171,-152 171,-182"/>
<text text-anchor="start" x="16" y="-170" font-family="Helvetica,sans-Serif" font-size="10.00">tracking::math::Covariance</text>
<text text-anchor="middle" x="89.5" y="-159" font-family="Helvetica,sans-Serif" font-size="10.00">MatrixFull::composed_inverse</text>
</a>
</g>
</g>
<!-- Node4&#45;&gt;Node5 -->
<g id="edge5_Node000004_Node000005" class="edge">
<title>Node4&#45;&gt;Node5</title>
<g id="a_edge5_Node000004_Node000005"><a xlink:title=" ">
<path fill="none" stroke="#63b8ff" d="M204.69,-167C193.62,-167 182.29,-167 171.27,-167"/>
<polygon fill="#63b8ff" stroke="#63b8ff" points="204.77,-170.5 214.77,-167 204.77,-163.5 204.77,-170.5"/>
</a>
</g>
</g>
<!-- Node8 -->
<g id="Node000008" class="node">
<title>Node8</title>
<g id="a_Node000008"><a xlink:href="classtracking_1_1motion_1_1generic_1_1Predict.html#ab73d074a9023ed02adbf7c247a263798" target="_top" xlink:title="State prediction with ego motion compensation using a KalmanFilter.">
<polygon fill="white" stroke="#666666" points="179,-100 0,-100 0,-48 179,-48 179,-100"/>
<text text-anchor="start" x="8" y="-88" font-family="Helvetica,sans-Serif" font-size="10.00">tracking::motion::generic</text>
<text text-anchor="start" x="8" y="-77" font-family="Helvetica,sans-Serif" font-size="10.00">::Predict&lt; MotionModel</text>
<text text-anchor="start" x="8" y="-66" font-family="Helvetica,sans-Serif" font-size="10.00">_, MotionModelTrait_::Covariance</text>
<text text-anchor="middle" x="89.5" y="-55" font-family="Helvetica,sans-Serif" font-size="10.00">MatrixPolicy &gt;::run</text>
</a>
</g>
</g>
<!-- Node7&#45;&gt;Node8 -->
<g id="edge8_Node000007_Node000008" class="edge">
<title>Node7&#45;&gt;Node8</title>
<g id="a_edge8_Node000007_Node000008"><a xlink:title=" ">
<path fill="none" stroke="#63b8ff" d="M211.46,-72.17C200.9,-72.33 189.98,-72.49 179.23,-72.66"/>
<polygon fill="#63b8ff" stroke="#63b8ff" points="211.52,-75.67 221.47,-72.02 211.41,-68.67 211.52,-75.67"/>
</a>
</g>
</g>
<!-- Node10 -->
<g id="Node000010" class="node">
<title>Node10</title>
<g id="a_Node000010"><a xlink:href="classtracking_1_1motion_1_1generic_1_1Predict.html#ad6bc834949fd3d8f75ec79ddf2d734d5" target="_top" xlink:title="State prediction with ego motion compensation using an InformationFilter.">
<polygon fill="white" stroke="#666666" points="159,-30 20,-30 20,0 159,0 159,-30"/>
<text text-anchor="start" x="28" y="-18" font-family="Helvetica,sans-Serif" font-size="10.00">tracking::motion::generic</text>
<text text-anchor="middle" x="89.5" y="-7" font-family="Helvetica,sans-Serif" font-size="10.00">::Predict::run</text>
</a>
</g>
</g>
<!-- Node9&#45;&gt;Node10 -->
<g id="edge10_Node000009_Node000010" class="edge">
<title>Node9&#45;&gt;Node10</title>
<g id="a_edge10_Node000009_Node000010"><a xlink:title=" ">
<path fill="none" stroke="#63b8ff" d="M205.31,-17.9C189.92,-17.51 174,-17.11 159.1,-16.73"/>
<polygon fill="#63b8ff" stroke="#63b8ff" points="205.25,-21.4 215.33,-18.15 205.43,-14.4 205.25,-21.4"/>
</a>
</g>
</g>
</g>
</svg>
