<?xml version="1.0" encoding="UTF-8" standalone="no"?>
<!DOCTYPE svg PUBLIC "-//W3C//DTD SVG 1.1//EN"
 "http://www.w3.org/Graphics/SVG/1.1/DTD/svg11.dtd">
<!-- Generated by graphviz version 2.43.0 (0)
 -->
<!-- Title: tracking::math::Vector::UnitVector Pages: 1 -->
<svg width="459pt" height="92pt"
 viewBox="0.00 0.00 459.00 91.50" xmlns="http://www.w3.org/2000/svg" xmlns:xlink="http://www.w3.org/1999/xlink">
<g id="graph0" class="graph" transform="scale(1 1) rotate(0) translate(4 87.5)">
<title>tracking::math::Vector::UnitVector</title>
<!-- Node1 -->
<g id="Node000001" class="node">
<title>Node1</title>
<g id="a_Node000001"><a xlink:title="Create a unit vector with 1 at the specified position.">
<polygon fill="#999999" stroke="#666666" points="125,-54 0,-54 0,-24 125,-24 125,-54"/>
<text text-anchor="start" x="8" y="-42" font-family="Helvetica,sans-Serif" font-size="10.00">tracking::math::Vector</text>
<text text-anchor="middle" x="62.5" y="-31" font-family="Helvetica,sans-Serif" font-size="10.00">::UnitVector</text>
</a>
</g>
</g>
<!-- Node2 -->
<g id="Node000002" class="node">
<title>Node2</title>
<g id="a_Node000002"><a xlink:href="classtracking_1_1math_1_1Vector.html#a74f4a1dc6f64586863ce3ef351a1e9c8" target="_top" xlink:title="Element read&#45;only access to a scalar vector value (unchecked)">
<polygon fill="white" stroke="#666666" points="286,-78 161,-78 161,-48 286,-48 286,-78"/>
<text text-anchor="start" x="169" y="-66" font-family="Helvetica,sans-Serif" font-size="10.00">tracking::math::Vector</text>
<text text-anchor="middle" x="223.5" y="-55" font-family="Helvetica,sans-Serif" font-size="10.00">::at_unsafe</text>
</a>
</g>
</g>
<!-- Node1&#45;&gt;Node2 -->
<g id="edge1_Node000001_Node000002" class="edge">
<title>Node1&#45;&gt;Node2</title>
<g id="a_edge1_Node000001_Node000002"><a xlink:title=" ">
<path fill="none" stroke="#63b8ff" d="M125.43,-48.35C133.67,-49.59 142.18,-50.88 150.58,-52.14"/>
<polygon fill="#63b8ff" stroke="#63b8ff" points="150.33,-55.65 160.74,-53.68 151.37,-48.72 150.33,-55.65"/>
</a>
</g>
</g>
<!-- Node4 -->
<g id="Node000004" class="node">
<title>Node4</title>
<g id="a_Node000004"><a xlink:href="classtracking_1_1math_1_1Vector.html#a3cdf9d5d406d9b94236096546c0897a2" target="_top" xlink:title="Construct a zero vector.">
<polygon fill="white" stroke="#666666" points="286,-30 161,-30 161,0 286,0 286,-30"/>
<text text-anchor="start" x="169" y="-18" font-family="Helvetica,sans-Serif" font-size="10.00">tracking::math::Vector</text>
<text text-anchor="middle" x="223.5" y="-7" font-family="Helvetica,sans-Serif" font-size="10.00">::Zeros</text>
</a>
</g>
</g>
<!-- Node1&#45;&gt;Node4 -->
<g id="edge3_Node000001_Node000004" class="edge">
<title>Node1&#45;&gt;Node4</title>
<g id="a_edge3_Node000001_Node000004"><a xlink:title=" ">
<path fill="none" stroke="#63b8ff" d="M125.43,-29.65C133.67,-28.41 142.18,-27.12 150.58,-25.86"/>
<polygon fill="#63b8ff" stroke="#63b8ff" points="151.37,-29.28 160.74,-24.32 150.33,-22.35 151.37,-29.28"/>
</a>
</g>
</g>
<!-- Node3 -->
<g id="Node000003" class="node">
<title>Node3</title>
<g id="a_Node000003"><a xlink:href="classtracking_1_1math_1_1Matrix.html#a103ed8d3af53ba865c6a00784ed62de6" target="_top" xlink:title="Unsafe element read&#45;only access (no bounds checking)">
<polygon fill="white" stroke="#666666" points="451,-83.5 322,-83.5 322,-42.5 451,-42.5 451,-83.5"/>
<text text-anchor="start" x="330" y="-71.5" font-family="Helvetica,sans-Serif" font-size="10.00">tracking::math::Matrix</text>
<text text-anchor="start" x="330" y="-60.5" font-family="Helvetica,sans-Serif" font-size="10.00">&lt; ValueType_, Size_, 1,</text>
<text text-anchor="middle" x="386.5" y="-49.5" font-family="Helvetica,sans-Serif" font-size="10.00"> true &gt;::at_unsafe</text>
</a>
</g>
</g>
<!-- Node2&#45;&gt;Node3 -->
<g id="edge2_Node000002_Node000003" class="edge">
<title>Node2&#45;&gt;Node3</title>
<g id="a_edge2_Node000002_Node000003"><a xlink:title=" ">
<path fill="none" stroke="#63b8ff" d="M286.29,-63C294.55,-63 303.08,-63 311.52,-63"/>
<polygon fill="#63b8ff" stroke="#63b8ff" points="311.75,-66.5 321.75,-63 311.75,-59.5 311.75,-66.5"/>
</a>
</g>
</g>
</g>
</svg>
