<?xml version="1.0" encoding="UTF-8" standalone="no"?>
<!DOCTYPE svg PUBLIC "-//W3C//DTD SVG 1.1//EN"
 "http://www.w3.org/Graphics/SVG/1.1/DTD/svg11.dtd">
<!-- Generated by graphviz version 2.43.0 (0)
 -->
<!-- Title: tracking::math::SquareMatrix::Identity Pages: 1 -->
<!--zoomable 182 -->

<svg id="main" version="1.1" xmlns="http://www.w3.org/2000/svg" xmlns:xlink="http://www.w3.org/1999/xlink" xml:space="preserve" onload="init(evt)">
<style type="text/css"><![CDATA[
.node, .edge {opacity: 0.7;}
.node.selected, .edge.selected {opacity: 1;}
.edge:hover path { stroke: red; }
.edge:hover polygon { stroke: red; fill: red; }
]]></style>

<defs>
  <circle id="rim" cx="0" cy="0" r="7"/>
  <circle id="rim2" cx="0" cy="0" r="3.5"/>
  <g id="zoomPlus">
    <use xlink:href="#rim" fill="#404040"><set attributeName="fill" to="#808080" begin="zoomplus.mouseover" end="zoomplus.mouseout"/></use>
    <path d="M-4,0h8M0,-4v8" fill="none" stroke="white" stroke-width="1.5" pointer-events="none"/>
  </g>
  <g id="zoomMin">
    <use xlink:href="#rim" fill="#404040"><set attributeName="fill" to="#808080" begin="zoomminus.mouseover" end="zoomminus.mouseout"/></use>
    <path d="M-4,0h8" fill="none" stroke="white" stroke-width="1.5" pointer-events="none"/>
  </g>
  <g id="arrowUp" transform="translate(30 24)">
    <use xlink:href="#rim"/>
    <path pointer-events="none" fill="none" stroke="white" stroke-width="1.5" d="M0,-3.0v7 M-2.5,-0.5L0,-3.0L2.5,-0.5"/>
  </g>
  <g id="arrowRight" transform="rotate(90) translate(36 -43)">
    <use xlink:href="#rim"/>
    <path pointer-events="none" fill="none" stroke="white" stroke-width="1.5" d="M0,-3.0v7 M-2.5,-0.5L0,-3.0L2.5,-0.5"/>
  </g>
  <g id="arrowDown" transform="rotate(180) translate(-30 -48)">
    <use xlink:href="#rim"/>
    <path pointer-events="none" fill="none" stroke="white" stroke-width="1.5" d="M0,-3.0v7 M-2.5,-0.5L0,-3.0L2.5,-0.5"/>
  </g>
  <g id="arrowLeft" transform="rotate(270) translate(-36 17)">
    <use xlink:href="#rim"/>
    <path pointer-events="none" fill="none" stroke="white" stroke-width="1.5" d="M0,-3.0v7 M-2.5,-0.5L0,-3.0L2.5,-0.5"/>
  </g>
  <g id="resetDef">
    <use xlink:href="#rim2" fill="#404040"><set attributeName="fill" to="#808080" begin="reset.mouseover" end="reset.mouseout"/></use>
  </g>
</defs>
<script type="application/ecmascript">
var viewWidth = 721;
var viewHeight = 182;
var sectionId = 'dynsection-2';
</script>
<script type="application/ecmascript" xlink:href="svg.min.js"/>
<svg id="graph" class="graph">
<g id="viewport">
<title>tracking::math::SquareMatrix::Identity</title>
<!-- Node1 -->
<g id="Node000001" class="node">
<title>Node1</title>
<g id="a_Node000001"><a xlink:title="Construct an identity matrix with ones on the diagonal and zeros elsewhere.">
<polygon fill="#999999" stroke="#666666" points="713,-102 554,-102 554,-72 713,-72 713,-102"/>
<text text-anchor="start" x="562" y="-90" font-family="Helvetica,sans-Serif" font-size="10.00">tracking::math::SquareMatrix</text>
<text text-anchor="middle" x="633.5" y="-79" font-family="Helvetica,sans-Serif" font-size="10.00">::Identity</text>
</a>
</g>
</g>
<!-- Node2 -->
<g id="Node000002" class="node">
<title>Node2</title>
<g id="a_Node000002"><a xlink:href="classtracking_1_1math_1_1SquareMatrix.html#aa0f3f741e9c040da36cfb465e630bf6b" target="_top" xlink:title="Performs Householder QR decomposition of a square matrix.">
<polygon fill="white" stroke="#666666" points="518,-174 359,-174 359,-144 518,-144 518,-174"/>
<text text-anchor="start" x="367" y="-162" font-family="Helvetica,sans-Serif" font-size="10.00">tracking::math::SquareMatrix</text>
<text text-anchor="middle" x="438.5" y="-151" font-family="Helvetica,sans-Serif" font-size="10.00">::householderQR</text>
</a>
</g>
</g>
<!-- Node1&#45;&gt;Node2 -->
<g id="edge1_Node000001_Node000002" class="edge">
<title>Node1&#45;&gt;Node2</title>
<g id="a_edge1_Node000001_Node000002"><a xlink:title=" ">
<path fill="none" stroke="#63b8ff" d="M589.37,-106.28C568.09,-115.49 541.91,-126.36 518,-135 509.42,-138.1 500.23,-141.15 491.26,-143.98"/>
<polygon fill="#63b8ff" stroke="#63b8ff" points="591.01,-109.39 598.78,-102.18 588.22,-102.97 591.01,-109.39"/>
</a>
</g>
</g>
<!-- Node3 -->
<g id="Node000003" class="node">
<title>Node3</title>
<g id="a_Node000003"><a xlink:href="classtracking_1_1math_1_1SquareMatrix.html#a911f645174c9ebb677deeeef12a71a34" target="_top" xlink:title="Compute the matrix inverse using QR decomposition.">
<polygon fill="white" stroke="#666666" points="518,-126 359,-126 359,-96 518,-96 518,-126"/>
<text text-anchor="start" x="367" y="-114" font-family="Helvetica,sans-Serif" font-size="10.00">tracking::math::SquareMatrix</text>
<text text-anchor="middle" x="438.5" y="-103" font-family="Helvetica,sans-Serif" font-size="10.00">::inverse</text>
</a>
</g>
</g>
<!-- Node1&#45;&gt;Node3 -->
<g id="edge2_Node000001_Node000003" class="edge">
<title>Node1&#45;&gt;Node3</title>
<g id="a_edge2_Node000001_Node000003"><a xlink:title=" ">
<path fill="none" stroke="#63b8ff" d="M543.98,-98.01C535.39,-99.08 526.72,-100.15 518.24,-101.21"/>
<polygon fill="#63b8ff" stroke="#63b8ff" points="544.51,-101.47 554,-96.76 543.64,-94.52 544.51,-101.47"/>
</a>
</g>
</g>
<!-- Node6 -->
<g id="Node000006" class="node">
<title>Node6</title>
<g id="a_Node000006"><a xlink:href="classtracking_1_1math_1_1SquareMatrix.html#aedb954fb72fb9da713fe0d36b826b681" target="_top" xlink:title="Checks if the matrix is orthogonal within a specified tolerance.">
<polygon fill="white" stroke="#666666" points="518,-78 359,-78 359,-48 518,-48 518,-78"/>
<text text-anchor="start" x="367" y="-66" font-family="Helvetica,sans-Serif" font-size="10.00">tracking::math::SquareMatrix</text>
<text text-anchor="middle" x="438.5" y="-55" font-family="Helvetica,sans-Serif" font-size="10.00">::isOrthogonal</text>
</a>
</g>
</g>
<!-- Node1&#45;&gt;Node6 -->
<g id="edge5_Node000001_Node000006" class="edge">
<title>Node1&#45;&gt;Node6</title>
<g id="a_edge5_Node000001_Node000006"><a xlink:title=" ">
<path fill="none" stroke="#63b8ff" d="M543.98,-75.99C535.39,-74.92 526.72,-73.85 518.24,-72.79"/>
<polygon fill="#63b8ff" stroke="#63b8ff" points="543.64,-79.48 554,-77.24 544.51,-72.53 543.64,-79.48"/>
</a>
</g>
</g>
<!-- Node7 -->
<g id="Node000007" class="node">
<title>Node7</title>
<g id="a_Node000007"><a xlink:href="classtracking_1_1math_1_1CovarianceMatrixFactored.html#ade6e7f2800cf91037769424fb92dccd6" target="_top" xlink:title="Set the variance at (idx,idx) and clears any correlations.">
<polygon fill="white" stroke="#666666" points="514.5,-30 362.5,-30 362.5,0 514.5,0 514.5,-30"/>
<text text-anchor="start" x="370.5" y="-18" font-family="Helvetica,sans-Serif" font-size="10.00">tracking::math::Covariance</text>
<text text-anchor="middle" x="438.5" y="-7" font-family="Helvetica,sans-Serif" font-size="10.00">MatrixFactored::setVariance</text>
</a>
</g>
</g>
<!-- Node1&#45;&gt;Node7 -->
<g id="edge6_Node000001_Node000007" class="edge">
<title>Node1&#45;&gt;Node7</title>
<g id="a_edge6_Node000001_Node000007"><a xlink:title=" ">
<path fill="none" stroke="#63b8ff" d="M589.37,-67.72C568.09,-58.51 541.91,-47.64 518,-39 509.42,-35.9 500.23,-32.85 491.26,-30.02"/>
<polygon fill="#63b8ff" stroke="#63b8ff" points="588.22,-71.03 598.78,-71.82 591.01,-64.61 588.22,-71.03"/>
</a>
</g>
</g>
<!-- Node4 -->
<g id="Node000004" class="node">
<title>Node4</title>
<g id="a_Node000004"><a xlink:href="classtracking_1_1filter_1_1InformationFilter.html#a10fd3d15b0f1cde43be4d74f7ba28404" target="_top" xlink:title=" ">
<polygon fill="white" stroke="#666666" points="323,-126 175,-126 175,-96 323,-96 323,-126"/>
<text text-anchor="start" x="183" y="-114" font-family="Helvetica,sans-Serif" font-size="10.00">tracking::filter::Information</text>
<text text-anchor="middle" x="249" y="-103" font-family="Helvetica,sans-Serif" font-size="10.00">Filter::predictCovariance</text>
</a>
</g>
</g>
<!-- Node3&#45;&gt;Node4 -->
<g id="edge3_Node000003_Node000004" class="edge">
<title>Node3&#45;&gt;Node4</title>
<g id="a_edge3_Node000003_Node000004"><a xlink:title=" ">
<path fill="none" stroke="#63b8ff" d="M348.76,-111C340.17,-111 331.53,-111 323.12,-111"/>
<polygon fill="#63b8ff" stroke="#63b8ff" points="348.8,-114.5 358.8,-111 348.8,-107.5 348.8,-114.5"/>
</a>
</g>
</g>
<!-- Node5 -->
<g id="Node000005" class="node">
<title>Node5</title>
<g id="a_Node000005"><a xlink:href="classtracking_1_1motion_1_1generic_1_1Predict.html#ad6bc834949fd3d8f75ec79ddf2d734d5" target="_top" xlink:title="State prediction with ego motion compensation using an InformationFilter.">
<polygon fill="white" stroke="#666666" points="139,-126 0,-126 0,-96 139,-96 139,-126"/>
<text text-anchor="start" x="8" y="-114" font-family="Helvetica,sans-Serif" font-size="10.00">tracking::motion::generic</text>
<text text-anchor="middle" x="69.5" y="-103" font-family="Helvetica,sans-Serif" font-size="10.00">::Predict::run</text>
</a>
</g>
</g>
<!-- Node4&#45;&gt;Node5 -->
<g id="edge4_Node000004_Node000005" class="edge">
<title>Node4&#45;&gt;Node5</title>
<g id="a_edge4_Node000004_Node000005"><a xlink:title=" ">
<path fill="none" stroke="#63b8ff" d="M164.52,-111C156.07,-111 147.55,-111 139.27,-111"/>
<polygon fill="#63b8ff" stroke="#63b8ff" points="164.78,-114.5 174.78,-111 164.78,-107.5 164.78,-114.5"/>
</a>
</g>
</g>
</g>
</svg>

<g id="navigator" transform="translate(0 0)" fill="#404254">
  <rect fill="#f2f5e9" fill-opacity="0.5" stroke="#606060" stroke-width=".5" x="0" y="0" width="60" height="60"/>
  <use id="zoomplus" xlink:href="#zoomPlus" x="17" y="9" onmousedown="handleZoom(evt,'in')"/>
  <use id="zoomminus" xlink:href="#zoomMin" x="42" y="9" onmousedown="handleZoom(evt,'out')"/>
  <use id="reset" xlink:href="#resetDef" x="30" y="36" onmousedown="handleReset()"/>
   <use id="arrowup" xlink:href="#arrowUp" x="0" y="0" onmousedown="handlePan(0,-1)"/>
  <use id="arrowright" xlink:href="#arrowRight" x="0" y="0" onmousedown="handlePan(1,0)"/>
  <use id="arrowdown" xlink:href="#arrowDown" x="0" y="0" onmousedown="handlePan(0,1)"/>
  <use id="arrowleft" xlink:href="#arrowLeft" x="0" y="0" onmousedown="handlePan(-1,0)"/>
</g>
<svg viewBox="0 0 15 15" width="100%" height="30px" preserveAspectRatio="xMaxYMin meet">
 <g id="arrow_out" transform="scale(0.3 0.3)">
  <a xlink:href="classtracking_1_1math_1_1SquareMatrix_a1767678675efd8983ce5beab4c53b2d7_icgraph_org.svg" target="_base">
   <rect id="button" ry="5" rx="5" y="6" x="6" height="38" width="38"
        fill="#f2f5e9" fill-opacity="0.5" stroke="#606060" stroke-width="1.0"/>
   <path id="arrow"
     d="M 11.500037,31.436501 C 11.940474,20.09759 22.043105,11.32322 32.158766,21.979434 L 37.068811,17.246167 C 37.068811,17.246167 37.088388,32 37.088388,32 L 22.160133,31.978069 C 22.160133,31.978069 26.997745,27.140456 26.997745,27.140456 C 18.528582,18.264221 13.291696,25.230495 11.500037,31.436501 z"
     style="fill:#404040;"/>
  </a>
 </g>
</svg>

<style type='text/css'>
<![CDATA[
[data-mouse-over-selected='false'] { opacity: 0.7; }
[data-mouse-over-selected='true']  { opacity: 1.0; }
]]>
</style>
<script type="application/ecmascript"><![CDATA[
document.addEventListener('DOMContentLoaded', (event) => {
  highlightEdges();
  highlightAdjacentNodes();
});
]]></script>
</svg>
