<?xml version="1.0" encoding="UTF-8" standalone="no"?>
<!DOCTYPE svg PUBLIC "-//W3C//DTD SVG 1.1//EN"
 "http://www.w3.org/Graphics/SVG/1.1/DTD/svg11.dtd">
<!-- Generated by graphviz version 2.43.0 (0)
 -->
<!-- Title: tracking::env::EgoMotion::calcDisplacementVector Pages: 1 -->
<svg width="474pt" height="92pt"
 viewBox="0.00 0.00 474.00 91.50" xmlns="http://www.w3.org/2000/svg" xmlns:xlink="http://www.w3.org/1999/xlink">
<g id="graph0" class="graph" transform="scale(1 1) rotate(0) translate(4 87.5)">
<title>tracking::env::EgoMotion::calcDisplacementVector</title>
<!-- Node1 -->
<g id="Node000001" class="node">
<title>Node1</title>
<g id="a_Node000001"><a xlink:title="Calculate displacement vector.">
<polygon fill="#999999" stroke="#666666" points="140,-54 0,-54 0,-24 140,-24 140,-54"/>
<text text-anchor="start" x="8" y="-42" font-family="Helvetica,sans-Serif" font-size="10.00">tracking::env::EgoMotion</text>
<text text-anchor="middle" x="70" y="-31" font-family="Helvetica,sans-Serif" font-size="10.00">::calcDisplacementVector</text>
</a>
</g>
</g>
<!-- Node2 -->
<g id="Node000002" class="node">
<title>Node2</title>
<g id="a_Node000002"><a xlink:href="classtracking_1_1math_1_1Vector.html#a74f4a1dc6f64586863ce3ef351a1e9c8" target="_top" xlink:title="Element read&#45;only access to a scalar vector value (unchecked)">
<polygon fill="white" stroke="#666666" points="301,-78 176,-78 176,-48 301,-48 301,-78"/>
<text text-anchor="start" x="184" y="-66" font-family="Helvetica,sans-Serif" font-size="10.00">tracking::math::Vector</text>
<text text-anchor="middle" x="238.5" y="-55" font-family="Helvetica,sans-Serif" font-size="10.00">::at_unsafe</text>
</a>
</g>
</g>
<!-- Node1&#45;&gt;Node2 -->
<g id="edge1_Node000001_Node000002" class="edge">
<title>Node1&#45;&gt;Node2</title>
<g id="a_edge1_Node000001_Node000002"><a xlink:title=" ">
<path fill="none" stroke="#63b8ff" d="M140.16,-48.97C148.71,-50.2 157.45,-51.46 166.02,-52.7"/>
<polygon fill="#63b8ff" stroke="#63b8ff" points="165.59,-56.17 175.99,-54.13 166.59,-49.24 165.59,-56.17"/>
</a>
</g>
</g>
<!-- Node4 -->
<g id="Node000004" class="node">
<title>Node4</title>
<g id="a_Node000004"><a xlink:href="classtracking_1_1math_1_1Matrix.html#a86a0461615fafc04dfe7756bda3fe4b5" target="_top" xlink:title="Sets all elements to zero.">
<polygon fill="white" stroke="#666666" points="301,-30 176,-30 176,0 301,0 301,-30"/>
<text text-anchor="start" x="184" y="-18" font-family="Helvetica,sans-Serif" font-size="10.00">tracking::math::Matrix</text>
<text text-anchor="middle" x="238.5" y="-7" font-family="Helvetica,sans-Serif" font-size="10.00">::setZeros</text>
</a>
</g>
</g>
<!-- Node1&#45;&gt;Node4 -->
<g id="edge3_Node000001_Node000004" class="edge">
<title>Node1&#45;&gt;Node4</title>
<g id="a_edge3_Node000001_Node000004"><a xlink:title=" ">
<path fill="none" stroke="#63b8ff" d="M140.16,-29.03C148.71,-27.8 157.45,-26.54 166.02,-25.3"/>
<polygon fill="#63b8ff" stroke="#63b8ff" points="166.59,-28.76 175.99,-23.87 165.59,-21.83 166.59,-28.76"/>
</a>
</g>
</g>
<!-- Node3 -->
<g id="Node000003" class="node">
<title>Node3</title>
<g id="a_Node000003"><a xlink:href="classtracking_1_1math_1_1Matrix.html#a103ed8d3af53ba865c6a00784ed62de6" target="_top" xlink:title="Unsafe element read&#45;only access (no bounds checking)">
<polygon fill="white" stroke="#666666" points="466,-83.5 337,-83.5 337,-42.5 466,-42.5 466,-83.5"/>
<text text-anchor="start" x="345" y="-71.5" font-family="Helvetica,sans-Serif" font-size="10.00">tracking::math::Matrix</text>
<text text-anchor="start" x="345" y="-60.5" font-family="Helvetica,sans-Serif" font-size="10.00">&lt; ValueType_, Size_, 1,</text>
<text text-anchor="middle" x="401.5" y="-49.5" font-family="Helvetica,sans-Serif" font-size="10.00"> true &gt;::at_unsafe</text>
</a>
</g>
</g>
<!-- Node2&#45;&gt;Node3 -->
<g id="edge2_Node000002_Node000003" class="edge">
<title>Node2&#45;&gt;Node3</title>
<g id="a_edge2_Node000002_Node000003"><a xlink:title=" ">
<path fill="none" stroke="#63b8ff" d="M301.29,-63C309.55,-63 318.08,-63 326.52,-63"/>
<polygon fill="#63b8ff" stroke="#63b8ff" points="326.75,-66.5 336.75,-63 326.75,-59.5 326.75,-66.5"/>
</a>
</g>
</g>
</g>
</svg>
