<?xml version="1.0" encoding="UTF-8" standalone="no"?>
<!DOCTYPE svg PUBLIC "-//W3C//DTD SVG 1.1//EN"
 "http://www.w3.org/Graphics/SVG/1.1/DTD/svg11.dtd">
<!-- Generated by graphviz version 2.43.0 (0)
 -->
<!-- Title: tracking::math::Vector::at_unsafe Pages: 1 -->
<svg width="545pt" height="428pt"
 viewBox="0.00 0.00 545.00 428.00" xmlns="http://www.w3.org/2000/svg" xmlns:xlink="http://www.w3.org/1999/xlink">
<g id="graph0" class="graph" transform="scale(1 1) rotate(0) translate(4 424)">
<title>tracking::math::Vector::at_unsafe</title>
<!-- Node1 -->
<g id="Node000001" class="node">
<title>Node1</title>
<g id="a_Node000001"><a xlink:title="Element read&#45;only access to a scalar vector value (unchecked)">
<polygon fill="#999999" stroke="#666666" points="537,-225 412,-225 412,-195 537,-195 537,-225"/>
<text text-anchor="start" x="420" y="-213" font-family="Helvetica,sans-Serif" font-size="10.00">tracking::math::Vector</text>
<text text-anchor="middle" x="474.5" y="-202" font-family="Helvetica,sans-Serif" font-size="10.00">::at_unsafe</text>
</a>
</g>
</g>
<!-- Node2 -->
<g id="Node000002" class="node">
<title>Node2</title>
<g id="a_Node000002"><a xlink:href="classtracking_1_1math_1_1CovarianceMatrixFactored.html#a8f7277bd2b2dbba73979c997b7bce166" target="_top" xlink:title="Unsafe element read&#45;only access.">
<polygon fill="white" stroke="#666666" points="359.5,-420 210.5,-420 210.5,-390 359.5,-390 359.5,-420"/>
<text text-anchor="start" x="218.5" y="-408" font-family="Helvetica,sans-Serif" font-size="10.00">tracking::math::Covariance</text>
<text text-anchor="middle" x="285" y="-397" font-family="Helvetica,sans-Serif" font-size="10.00">MatrixFactored::at_unsafe</text>
</a>
</g>
</g>
<!-- Node1&#45;&gt;Node2 -->
<g id="edge1_Node000001_Node000002" class="edge">
<title>Node1&#45;&gt;Node2</title>
<g id="a_edge1_Node000001_Node000002"><a xlink:title=" ">
<path fill="none" stroke="#63b8ff" d="M466.19,-234.87C453.87,-272.35 425.36,-342.96 376,-381 371,-384.85 365.44,-388.08 359.6,-390.8"/>
<polygon fill="#63b8ff" stroke="#63b8ff" points="469.56,-235.82 469.24,-225.23 462.89,-233.71 469.56,-235.82"/>
</a>
</g>
</g>
<!-- Node3 -->
<g id="Node000003" class="node">
<title>Node3</title>
<g id="a_Node000003"><a xlink:href="classtracking_1_1env_1_1EgoMotion.html#a241a57ddc4cd1ab0d7daa7b157a7d8f9" target="_top" xlink:title="Calculate displacement vector.">
<polygon fill="white" stroke="#666666" points="355,-372 215,-372 215,-342 355,-342 355,-372"/>
<text text-anchor="start" x="223" y="-360" font-family="Helvetica,sans-Serif" font-size="10.00">tracking::env::EgoMotion</text>
<text text-anchor="middle" x="285" y="-349" font-family="Helvetica,sans-Serif" font-size="10.00">::calcDisplacementVector</text>
</a>
</g>
</g>
<!-- Node1&#45;&gt;Node3 -->
<g id="edge2_Node000001_Node000003" class="edge">
<title>Node1&#45;&gt;Node3</title>
<g id="a_edge2_Node000001_Node000003"><a xlink:title=" ">
<path fill="none" stroke="#63b8ff" d="M460.94,-233.81C444.95,-261.79 414.69,-307.62 376,-333 369.64,-337.17 362.59,-340.62 355.31,-343.47"/>
<polygon fill="#63b8ff" stroke="#63b8ff" points="464.01,-235.5 465.81,-225.06 457.89,-232.1 464.01,-235.5"/>
</a>
</g>
</g>
<!-- Node4 -->
<g id="Node000004" class="node">
<title>Node4</title>
<g id="a_Node000004"><a xlink:href="namespacetracking_1_1math.html#a5da1defd9816130013342221228abf76" target="_top" xlink:title="Multiply a matrix by a column view.">
<polygon fill="white" stroke="#666666" points="355,-323.5 215,-323.5 215,-304.5 355,-304.5 355,-323.5"/>
<text text-anchor="middle" x="285" y="-311.5" font-family="Helvetica,sans-Serif" font-size="10.00">tracking::math::operator*</text>
</a>
</g>
</g>
<!-- Node1&#45;&gt;Node4 -->
<g id="edge3_Node000001_Node000004" class="edge">
<title>Node1&#45;&gt;Node4</title>
<g id="a_edge3_Node000001_Node000004"><a xlink:title=" ">
<path fill="none" stroke="#63b8ff" d="M454.16,-232.8C436.03,-252.65 407.11,-280.58 376,-296 369.15,-299.4 361.7,-302.15 354.12,-304.39"/>
<polygon fill="#63b8ff" stroke="#63b8ff" points="456.98,-234.91 461.02,-225.11 451.75,-230.25 456.98,-234.91"/>
</a>
</g>
</g>
<!-- Node5 -->
<g id="Node000005" class="node">
<title>Node5</title>
<g id="a_Node000005"><a xlink:href="namespacetracking_1_1math.html#a82f9afc8296b216c9bbecf27a0621773" target="_top" xlink:title="Specialization of operator&lt;&lt; for Vector.">
<polygon fill="white" stroke="#666666" points="361,-286.5 209,-286.5 209,-267.5 361,-267.5 361,-286.5"/>
<text text-anchor="middle" x="285" y="-274.5" font-family="Helvetica,sans-Serif" font-size="10.00">tracking::math::operator&lt;&lt;</text>
</a>
</g>
</g>
<!-- Node1&#45;&gt;Node5 -->
<g id="edge4_Node000001_Node000005" class="edge">
<title>Node1&#45;&gt;Node5</title>
<g id="a_edge4_Node000001_Node000005"><a xlink:title=" ">
<path fill="none" stroke="#63b8ff" d="M438.34,-229.97C420.19,-239.58 397.41,-250.6 376,-258 365.13,-261.76 353.26,-264.9 341.81,-267.48"/>
<polygon fill="#63b8ff" stroke="#63b8ff" points="440.23,-232.92 447.37,-225.1 436.91,-226.76 440.23,-232.92"/>
</a>
</g>
</g>
<!-- Node6 -->
<g id="Node000006" class="node">
<title>Node6</title>
<g id="a_Node000006"><a xlink:href="classtracking_1_1motion_1_1StateMem.html#a077e9c366b6f857261ba097dc8dc0129" target="_top" xlink:title="Write access to indexed element of the state vector.">
<polygon fill="white" stroke="#666666" points="361.5,-249 208.5,-249 208.5,-219 361.5,-219 361.5,-249"/>
<text text-anchor="start" x="216.5" y="-237" font-family="Helvetica,sans-Serif" font-size="10.00">tracking::motion::StateMem</text>
<text text-anchor="middle" x="285" y="-226" font-family="Helvetica,sans-Serif" font-size="10.00">::operator[]</text>
</a>
</g>
</g>
<!-- Node1&#45;&gt;Node6 -->
<g id="edge5_Node000001_Node000006" class="edge">
<title>Node1&#45;&gt;Node6</title>
<g id="a_edge5_Node000001_Node000006"><a xlink:title=" ">
<path fill="none" stroke="#63b8ff" d="M401.55,-219.21C388.52,-220.88 374.89,-222.62 361.76,-224.3"/>
<polygon fill="#63b8ff" stroke="#63b8ff" points="402.37,-222.63 411.85,-217.89 401.48,-215.69 402.37,-222.63"/>
</a>
</g>
</g>
<!-- Node7 -->
<g id="Node000007" class="node">
<title>Node7</title>
<g id="a_Node000007"><a xlink:href="classtracking_1_1motion_1_1StateMem.html#aeb336ba987a66954371c5738ff1abb68" target="_top" xlink:title="Read access to indexed element of the state vector.">
<polygon fill="white" stroke="#666666" points="361.5,-201 208.5,-201 208.5,-171 361.5,-171 361.5,-201"/>
<text text-anchor="start" x="216.5" y="-189" font-family="Helvetica,sans-Serif" font-size="10.00">tracking::motion::StateMem</text>
<text text-anchor="middle" x="285" y="-178" font-family="Helvetica,sans-Serif" font-size="10.00">::operator[]</text>
</a>
</g>
</g>
<!-- Node1&#45;&gt;Node7 -->
<g id="edge6_Node000001_Node000007" class="edge">
<title>Node1&#45;&gt;Node7</title>
<g id="a_edge6_Node000001_Node000007"><a xlink:title=" ">
<path fill="none" stroke="#63b8ff" d="M401.55,-200.79C388.52,-199.12 374.89,-197.38 361.76,-195.7"/>
<polygon fill="#63b8ff" stroke="#63b8ff" points="401.48,-204.31 411.85,-202.11 402.37,-197.37 401.48,-204.31"/>
</a>
</g>
</g>
<!-- Node8 -->
<g id="Node000008" class="node">
<title>Node8</title>
<g id="a_Node000008"><a xlink:href="classtracking_1_1math_1_1Rank1Update.html#a335f5f6a2e52510210adae871025324a" target="_top" xlink:title="Performs rank&#45;1 update on UDU factorization (upper triangular form)">
<polygon fill="white" stroke="#666666" points="376,-152.5 194,-152.5 194,-133.5 376,-133.5 376,-152.5"/>
<text text-anchor="middle" x="285" y="-140.5" font-family="Helvetica,sans-Serif" font-size="10.00">tracking::math::Rank1Update::run</text>
</a>
</g>
</g>
<!-- Node1&#45;&gt;Node8 -->
<g id="edge7_Node000001_Node000008" class="edge">
<title>Node1&#45;&gt;Node8</title>
<g id="a_edge7_Node000001_Node000008"><a xlink:title=" ">
<path fill="none" stroke="#63b8ff" d="M438.34,-190.03C420.19,-180.42 397.41,-169.4 376,-162 365.13,-158.24 353.26,-155.1 341.81,-152.52"/>
<polygon fill="#63b8ff" stroke="#63b8ff" points="436.91,-193.24 447.37,-194.9 440.23,-187.08 436.91,-193.24"/>
</a>
</g>
</g>
<!-- Node10 -->
<g id="Node000010" class="node">
<title>Node10</title>
<g id="a_Node000010"><a xlink:href="classtracking_1_1math_1_1Rank1Update.html#a96bda483dc5a922f919304d2e0412025" target="_top" xlink:title="Performs rank&#45;1 update on LDL factorization (lower triangular form)">
<polygon fill="white" stroke="#666666" points="376,-115.5 194,-115.5 194,-96.5 376,-96.5 376,-115.5"/>
<text text-anchor="middle" x="285" y="-103.5" font-family="Helvetica,sans-Serif" font-size="10.00">tracking::math::Rank1Update::run</text>
</a>
</g>
</g>
<!-- Node1&#45;&gt;Node10 -->
<g id="edge9_Node000001_Node000010" class="edge">
<title>Node1&#45;&gt;Node10</title>
<g id="a_edge9_Node000001_Node000010"><a xlink:title=" ">
<path fill="none" stroke="#63b8ff" d="M453.76,-187.21C435.54,-167.67 406.73,-140.32 376,-125 368.28,-121.15 359.82,-118.08 351.26,-115.63"/>
<polygon fill="#63b8ff" stroke="#63b8ff" points="451.34,-189.75 460.66,-194.79 456.52,-185.04 451.34,-189.75"/>
</a>
</g>
</g>
<!-- Node11 -->
<g id="Node000011" class="node">
<title>Node11</title>
<g id="a_Node000011"><a xlink:href="classtracking_1_1math_1_1Vector.html#aa6895be41c5df10d1c4a26762b648c70" target="_top" xlink:title="Create a unit vector with 1 at the specified position.">
<polygon fill="white" stroke="#666666" points="347.5,-78 222.5,-78 222.5,-48 347.5,-48 347.5,-78"/>
<text text-anchor="start" x="230.5" y="-66" font-family="Helvetica,sans-Serif" font-size="10.00">tracking::math::Vector</text>
<text text-anchor="middle" x="285" y="-55" font-family="Helvetica,sans-Serif" font-size="10.00">::UnitVector</text>
</a>
</g>
</g>
<!-- Node1&#45;&gt;Node11 -->
<g id="edge10_Node000001_Node000011" class="edge">
<title>Node1&#45;&gt;Node11</title>
<g id="a_edge10_Node000001_Node000011"><a xlink:title=" ">
<path fill="none" stroke="#63b8ff" d="M460.38,-185.65C444.18,-157.89 414.05,-113.13 376,-88 367.48,-82.37 357.7,-78 347.8,-74.6"/>
<polygon fill="#63b8ff" stroke="#63b8ff" points="457.54,-187.73 465.52,-194.7 463.62,-184.27 457.54,-187.73"/>
</a>
</g>
</g>
<!-- Node12 -->
<g id="Node000012" class="node">
<title>Node12</title>
<g id="a_Node000012"><a xlink:href="namespacetracking_1_1math_1_1conversions.html#ae19f4f6e08b673ef7b162cd9b2c83697" target="_top" xlink:title="Creates a Vector from a MatrixColumnView.">
<polygon fill="white" stroke="#666666" points="370.5,-30 199.5,-30 199.5,0 370.5,0 370.5,-30"/>
<text text-anchor="start" x="207.5" y="-18" font-family="Helvetica,sans-Serif" font-size="10.00">tracking::math::conversions</text>
<text text-anchor="middle" x="285" y="-7" font-family="Helvetica,sans-Serif" font-size="10.00">::VectorFromMatrixColumnView</text>
</a>
</g>
</g>
<!-- Node1&#45;&gt;Node12 -->
<g id="edge11_Node000001_Node000012" class="edge">
<title>Node1&#45;&gt;Node12</title>
<g id="a_edge11_Node000001_Node000012"><a xlink:title=" ">
<path fill="none" stroke="#63b8ff" d="M466.19,-185.13C453.87,-147.65 425.36,-77.04 376,-39 371.52,-35.55 366.58,-32.59 361.39,-30.05"/>
<polygon fill="#63b8ff" stroke="#63b8ff" points="462.89,-186.29 469.24,-194.77 469.56,-184.18 462.89,-186.29"/>
</a>
</g>
</g>
<!-- Node9 -->
<g id="Node000009" class="node">
<title>Node9</title>
<g id="a_Node000009"><a xlink:href="classtracking_1_1math_1_1CovarianceMatrixFactored.html#a8d64779f4ed5705bc05fd9768f00e36b" target="_top" xlink:title="Agee&#45;Turner rank&#45;1 update: P ± x*x^T.">
<polygon fill="white" stroke="#666666" points="158,-158 0,-158 0,-128 158,-128 158,-158"/>
<text text-anchor="start" x="8" y="-146" font-family="Helvetica,sans-Serif" font-size="10.00">tracking::math::Covariance</text>
<text text-anchor="middle" x="79" y="-135" font-family="Helvetica,sans-Serif" font-size="10.00">MatrixFactored::rank1Update</text>
</a>
</g>
</g>
<!-- Node8&#45;&gt;Node9 -->
<g id="edge8_Node000008_Node000009" class="edge">
<title>Node8&#45;&gt;Node9</title>
<g id="a_edge8_Node000008_Node000009"><a xlink:title=" ">
<path fill="none" stroke="#63b8ff" d="M183.8,-143C175.16,-143 166.5,-143 158.07,-143"/>
<polygon fill="#63b8ff" stroke="#63b8ff" points="183.93,-146.5 193.93,-143 183.93,-139.5 183.93,-146.5"/>
</a>
</g>
</g>
</g>
</svg>
