<?xml version="1.0" encoding="UTF-8" standalone="no"?>
<!DOCTYPE svg PUBLIC "-//W3C//DTD SVG 1.1//EN"
 "http://www.w3.org/Graphics/SVG/1.1/DTD/svg11.dtd">
<!-- Generated by graphviz version 2.43.0 (0)
 -->
<!-- Title: tracking::math::SquareMatrix::transpose Pages: 1 -->
<svg width="567pt" height="309pt"
 viewBox="0.00 0.00 567.00 308.61" xmlns="http://www.w3.org/2000/svg" xmlns:xlink="http://www.w3.org/1999/xlink">
<g id="graph0" class="graph" transform="scale(1 1) rotate(0) translate(4 304.61)">
<title>tracking::math::SquareMatrix::transpose</title>
<!-- Node1 -->
<g id="Node000001" class="node">
<title>Node1</title>
<g id="a_Node000001"><a xlink:title="Fast transpose without changing the layout (zero&#45;copy view)">
<polygon fill="#999999" stroke="#666666" points="559,-174 400,-174 400,-144 559,-144 559,-174"/>
<text text-anchor="start" x="408" y="-162" font-family="Helvetica,sans-Serif" font-size="10.00">tracking::math::SquareMatrix</text>
<text text-anchor="middle" x="479.5" y="-151" font-family="Helvetica,sans-Serif" font-size="10.00">::transpose</text>
</a>
</g>
</g>
<!-- Node2 -->
<g id="Node000002" class="node">
<title>Node2</title>
<g id="a_Node000002"><a xlink:href="classtracking_1_1math_1_1CovarianceMatrixFactored.html#acadfdd5893de13e8177427e3cf1b7784" target="_top" xlink:title="Compute inverse as full covariance matrix.">
<polygon fill="white" stroke="#666666" points="164,-299.5 15,-299.5 15,-258.5 164,-258.5 164,-299.5"/>
<text text-anchor="start" x="23" y="-287.5" font-family="Helvetica,sans-Serif" font-size="10.00">tracking::math::Covariance</text>
<text text-anchor="start" x="23" y="-276.5" font-family="Helvetica,sans-Serif" font-size="10.00">MatrixFactored::composed</text>
<text text-anchor="middle" x="89.5" y="-265.5" font-family="Helvetica,sans-Serif" font-size="10.00">_inverse</text>
</a>
</g>
</g>
<!-- Node1&#45;&gt;Node2 -->
<g id="edge1_Node000001_Node000002" class="edge">
<title>Node1&#45;&gt;Node2</title>
<g id="a_edge1_Node000001_Node000002"><a xlink:title=" ">
<path fill="none" stroke="#63b8ff" d="M464.43,-182.81C445.71,-211.85 409.62,-259.47 364,-279 300.6,-306.14 221.09,-302.48 164.17,-294.24"/>
<polygon fill="#63b8ff" stroke="#63b8ff" points="467.54,-184.43 469.88,-174.09 461.61,-180.71 467.54,-184.43"/>
</a>
</g>
</g>
<!-- Node3 -->
<g id="Node000003" class="node">
<title>Node3</title>
<g id="a_Node000003"><a xlink:href="classtracking_1_1math_1_1CovarianceMatrixFactored.html#ab1b0b450b5e2daae321027ca80605dca" target="_top" xlink:title="Compute inverse in factored form.">
<polygon fill="white" stroke="#666666" points="364,-270 215,-270 215,-240 364,-240 364,-270"/>
<text text-anchor="start" x="223" y="-258" font-family="Helvetica,sans-Serif" font-size="10.00">tracking::math::Covariance</text>
<text text-anchor="middle" x="289.5" y="-247" font-family="Helvetica,sans-Serif" font-size="10.00">MatrixFactored::inverse</text>
</a>
</g>
</g>
<!-- Node1&#45;&gt;Node3 -->
<g id="edge2_Node000001_Node000003" class="edge">
<title>Node1&#45;&gt;Node3</title>
<g id="a_edge2_Node000001_Node000003"><a xlink:title=" ">
<path fill="none" stroke="#63b8ff" d="M449.46,-180.07C426.97,-195.69 394.59,-216.65 364,-231 357.07,-234.25 349.59,-237.24 342.13,-239.93"/>
<polygon fill="#63b8ff" stroke="#63b8ff" points="451.7,-182.78 457.87,-174.17 447.67,-177.05 451.7,-182.78"/>
</a>
</g>
</g>
<!-- Node4 -->
<g id="Node000004" class="node">
<title>Node4</title>
<g id="a_Node000004"><a xlink:href="classtracking_1_1math_1_1CovarianceMatrixFull.html#a3ca0f4a537a5362a74ef765ef46c1986" target="_top" xlink:title="Calculates the matrix inverse using Cholesky decomposition.">
<polygon fill="white" stroke="#666666" points="364,-222 215,-222 215,-192 364,-192 364,-222"/>
<text text-anchor="start" x="223" y="-210" font-family="Helvetica,sans-Serif" font-size="10.00">tracking::math::Covariance</text>
<text text-anchor="middle" x="289.5" y="-199" font-family="Helvetica,sans-Serif" font-size="10.00">MatrixFull::inverse</text>
</a>
</g>
</g>
<!-- Node1&#45;&gt;Node4 -->
<g id="edge3_Node000001_Node000004" class="edge">
<title>Node1&#45;&gt;Node4</title>
<g id="a_edge3_Node000001_Node000004"><a xlink:title=" ">
<path fill="none" stroke="#63b8ff" d="M409.64,-176.58C389.83,-181.64 368.4,-187.11 349.26,-192"/>
<polygon fill="#63b8ff" stroke="#63b8ff" points="410.71,-179.92 419.53,-174.06 408.98,-173.14 410.71,-179.92"/>
</a>
</g>
</g>
<!-- Node6 -->
<g id="Node000006" class="node">
<title>Node6</title>
<g id="a_Node000006"><a xlink:href="classtracking_1_1math_1_1CovarianceMatrixFactored.html#a1714e069ca1f44b5b2bc0fbe47df7922" target="_top" xlink:title="Creates the composed covariance.">
<polygon fill="white" stroke="#666666" points="364,-174 215,-174 215,-144 364,-144 364,-174"/>
<text text-anchor="start" x="223" y="-162" font-family="Helvetica,sans-Serif" font-size="10.00">tracking::math::Covariance</text>
<text text-anchor="middle" x="289.5" y="-151" font-family="Helvetica,sans-Serif" font-size="10.00">MatrixFactored::operator()</text>
</a>
</g>
</g>
<!-- Node1&#45;&gt;Node6 -->
<g id="edge6_Node000001_Node000006" class="edge">
<title>Node1&#45;&gt;Node6</title>
<g id="a_edge6_Node000001_Node000006"><a xlink:title=" ">
<path fill="none" stroke="#63b8ff" d="M389.78,-159C381.16,-159 372.47,-159 364.02,-159"/>
<polygon fill="#63b8ff" stroke="#63b8ff" points="389.86,-162.5 399.86,-159 389.86,-155.5 389.86,-162.5"/>
</a>
</g>
</g>
<!-- Node7 -->
<g id="Node000007" class="node">
<title>Node7</title>
<g id="a_Node000007"><a xlink:href="classtracking_1_1filter_1_1KalmanFilter.html#ab66a65941a9b1adbdd6d2ed0c37c4dc8" target="_top" xlink:title=" ">
<polygon fill="white" stroke="#666666" points="357.5,-126 221.5,-126 221.5,-96 357.5,-96 357.5,-126"/>
<text text-anchor="start" x="229.5" y="-114" font-family="Helvetica,sans-Serif" font-size="10.00">tracking::filter::Kalman</text>
<text text-anchor="middle" x="289.5" y="-103" font-family="Helvetica,sans-Serif" font-size="10.00">Filter::predictCovariance</text>
</a>
</g>
</g>
<!-- Node1&#45;&gt;Node7 -->
<g id="edge7_Node000001_Node000007" class="edge">
<title>Node1&#45;&gt;Node7</title>
<g id="a_edge7_Node000001_Node000007"><a xlink:title=" ">
<path fill="none" stroke="#63b8ff" d="M409.64,-141.42C389.83,-136.36 368.4,-130.89 349.26,-126"/>
<polygon fill="#63b8ff" stroke="#63b8ff" points="408.98,-144.86 419.53,-143.94 410.71,-138.08 408.98,-144.86"/>
</a>
</g>
</g>
<!-- Node9 -->
<g id="Node000009" class="node">
<title>Node9</title>
<g id="a_Node000009"><a xlink:href="classtracking_1_1filter_1_1InformationFilter.html#a10fd3d15b0f1cde43be4d74f7ba28404" target="_top" xlink:title=" ">
<polygon fill="white" stroke="#666666" points="363.5,-78 215.5,-78 215.5,-48 363.5,-48 363.5,-78"/>
<text text-anchor="start" x="223.5" y="-66" font-family="Helvetica,sans-Serif" font-size="10.00">tracking::filter::Information</text>
<text text-anchor="middle" x="289.5" y="-55" font-family="Helvetica,sans-Serif" font-size="10.00">Filter::predictCovariance</text>
</a>
</g>
</g>
<!-- Node1&#45;&gt;Node9 -->
<g id="edge9_Node000001_Node000009" class="edge">
<title>Node1&#45;&gt;Node9</title>
<g id="a_edge9_Node000001_Node000009"><a xlink:title=" ">
<path fill="none" stroke="#63b8ff" d="M449.46,-137.93C426.97,-122.31 394.59,-101.35 364,-87 357.07,-83.75 349.59,-80.76 342.13,-78.07"/>
<polygon fill="#63b8ff" stroke="#63b8ff" points="447.67,-140.95 457.87,-143.83 451.7,-135.22 447.67,-140.95"/>
</a>
</g>
</g>
<!-- Node11 -->
<g id="Node000011" class="node">
<title>Node11</title>
<g id="a_Node000011"><a xlink:href="classtracking_1_1filter_1_1KalmanFilter.html#a4df70b5fa33fdf85a95d6a528da0344f" target="_top" xlink:title="Kalman measurement update of state and covariance.">
<polygon fill="white" stroke="#666666" points="353.5,-30 225.5,-30 225.5,0 353.5,0 353.5,-30"/>
<text text-anchor="start" x="233.5" y="-18" font-family="Helvetica,sans-Serif" font-size="10.00">tracking::filter::Kalman</text>
<text text-anchor="middle" x="289.5" y="-7" font-family="Helvetica,sans-Serif" font-size="10.00">Filter::updateState</text>
</a>
</g>
</g>
<!-- Node1&#45;&gt;Node11 -->
<g id="edge11_Node000001_Node000011" class="edge">
<title>Node1&#45;&gt;Node11</title>
<g id="a_edge11_Node000001_Node000011"><a xlink:title=" ">
<path fill="none" stroke="#63b8ff" d="M461.99,-135.71C441.77,-108.79 405.11,-64.9 364,-39 358.66,-35.64 352.81,-32.7 346.8,-30.15"/>
<polygon fill="#63b8ff" stroke="#63b8ff" points="459.21,-137.83 467.96,-143.8 464.84,-133.68 459.21,-137.83"/>
</a>
</g>
</g>
<!-- Node4&#45;&gt;Node2 -->
<g id="edge4_Node000004_Node000002" class="edge">
<title>Node4&#45;&gt;Node2</title>
<g id="a_edge4_Node000004_Node000002"><a xlink:title=" ">
<path fill="none" stroke="#63b8ff" d="M231.12,-225.41C225.66,-227.26 220.22,-229.14 215,-231 190.88,-239.58 164.39,-249.7 142.06,-258.42"/>
<polygon fill="#63b8ff" stroke="#63b8ff" points="232.56,-228.62 240.93,-222.13 230.34,-221.99 232.56,-228.62"/>
</a>
</g>
</g>
<!-- Node5 -->
<g id="Node000005" class="node">
<title>Node5</title>
<g id="a_Node000005"><a xlink:href="classtracking_1_1math_1_1CovarianceMatrixFull.html#a2b6eac9001311d011d12a2ce79706938" target="_top" xlink:title="Compute inverse as full covariance matrix.">
<polygon fill="white" stroke="#666666" points="171,-222 8,-222 8,-192 171,-192 171,-222"/>
<text text-anchor="start" x="16" y="-210" font-family="Helvetica,sans-Serif" font-size="10.00">tracking::math::Covariance</text>
<text text-anchor="middle" x="89.5" y="-199" font-family="Helvetica,sans-Serif" font-size="10.00">MatrixFull::composed_inverse</text>
</a>
</g>
</g>
<!-- Node4&#45;&gt;Node5 -->
<g id="edge5_Node000004_Node000005" class="edge">
<title>Node4&#45;&gt;Node5</title>
<g id="a_edge5_Node000004_Node000005"><a xlink:title=" ">
<path fill="none" stroke="#63b8ff" d="M204.69,-207C193.62,-207 182.29,-207 171.27,-207"/>
<polygon fill="#63b8ff" stroke="#63b8ff" points="204.77,-210.5 214.77,-207 204.77,-203.5 204.77,-210.5"/>
</a>
</g>
</g>
<!-- Node8 -->
<g id="Node000008" class="node">
<title>Node8</title>
<g id="a_Node000008"><a xlink:href="classtracking_1_1motion_1_1generic_1_1Predict.html#ab73d074a9023ed02adbf7c247a263798" target="_top" xlink:title="State prediction with ego motion compensation using a KalmanFilter.">
<polygon fill="white" stroke="#666666" points="179,-143 0,-143 0,-91 179,-91 179,-143"/>
<text text-anchor="start" x="8" y="-131" font-family="Helvetica,sans-Serif" font-size="10.00">tracking::motion::generic</text>
<text text-anchor="start" x="8" y="-120" font-family="Helvetica,sans-Serif" font-size="10.00">::Predict&lt; MotionModel</text>
<text text-anchor="start" x="8" y="-109" font-family="Helvetica,sans-Serif" font-size="10.00">_, MotionModelTrait_::Covariance</text>
<text text-anchor="middle" x="89.5" y="-98" font-family="Helvetica,sans-Serif" font-size="10.00">MatrixPolicy &gt;::run</text>
</a>
</g>
</g>
<!-- Node7&#45;&gt;Node8 -->
<g id="edge8_Node000007_Node000008" class="edge">
<title>Node7&#45;&gt;Node8</title>
<g id="a_edge8_Node000007_Node000008"><a xlink:title=" ">
<path fill="none" stroke="#63b8ff" d="M211.46,-113.33C200.9,-113.65 189.98,-113.99 179.23,-114.31"/>
<polygon fill="#63b8ff" stroke="#63b8ff" points="211.58,-116.83 221.47,-113.03 211.36,-109.84 211.58,-116.83"/>
</a>
</g>
</g>
<!-- Node10 -->
<g id="Node000010" class="node">
<title>Node10</title>
<g id="a_Node000010"><a xlink:href="classtracking_1_1motion_1_1generic_1_1Predict.html#ad6bc834949fd3d8f75ec79ddf2d734d5" target="_top" xlink:title="State prediction with ego motion compensation using an InformationFilter.">
<polygon fill="white" stroke="#666666" points="159,-73 20,-73 20,-43 159,-43 159,-73"/>
<text text-anchor="start" x="28" y="-61" font-family="Helvetica,sans-Serif" font-size="10.00">tracking::motion::generic</text>
<text text-anchor="middle" x="89.5" y="-50" font-family="Helvetica,sans-Serif" font-size="10.00">::Predict::run</text>
</a>
</g>
</g>
<!-- Node9&#45;&gt;Node10 -->
<g id="edge10_Node000009_Node000010" class="edge">
<title>Node9&#45;&gt;Node10</title>
<g id="a_edge10_Node000009_Node000010"><a xlink:title=" ">
<path fill="none" stroke="#63b8ff" d="M205.31,-60.9C189.92,-60.51 174,-60.11 159.1,-59.73"/>
<polygon fill="#63b8ff" stroke="#63b8ff" points="205.25,-64.4 215.33,-61.15 205.43,-57.4 205.25,-64.4"/>
</a>
</g>
</g>
</g>
</svg>
