<?xml version="1.0" encoding="UTF-8" standalone="no"?>
<!DOCTYPE svg PUBLIC "-//W3C//DTD SVG 1.1//EN"
 "http://www.w3.org/Graphics/SVG/1.1/DTD/svg11.dtd">
<!-- Generated by graphviz version 2.43.0 (0)
 -->
<!-- Title: tracking::math::Point3d&lt; ValueType_ &gt; Pages: 1 -->
<svg width="352pt" height="1197pt"
 viewBox="0.00 0.00 352.00 1197.00" xmlns="http://www.w3.org/2000/svg" xmlns:xlink="http://www.w3.org/1999/xlink">
<g id="graph0" class="graph" transform="scale(1 1) rotate(0) translate(4 1193)">
<title>tracking::math::Point3d&lt; ValueType_ &gt;</title>
<!-- Node1 -->
<g id="Node000001" class="node">
<title>Node1</title>
<g id="a_Node000001"><a xlink:title="3D point with named coordinate access">
<polygon fill="#999999" stroke="transparent" points="233.5,-180 108.5,-180 108.5,0 233.5,0 233.5,-180"/>
<text text-anchor="start" x="114" y="-168" font-family="Helvetica,sans-Serif" font-size="10.00">tracking::math::Point3d</text>
<text text-anchor="start" x="132.5" y="-157" font-family="Helvetica,sans-Serif" font-size="10.00">&lt; ValueType_ &gt;</text>
<text text-anchor="start" x="169.5" y="-142" font-family="Helvetica,sans-Serif" font-size="10.00"> </text>
<text text-anchor="start" x="122.5" y="-127" font-family="Helvetica,sans-Serif" font-size="10.00">+</text>
<text text-anchor="start" x="145" y="-127" font-family="Helvetica,sans-Serif" font-size="10.00">Point3d()</text>
<text text-anchor="start" x="122.5" y="-112" font-family="Helvetica,sans-Serif" font-size="10.00">+</text>
<text text-anchor="start" x="145" y="-112" font-family="Helvetica,sans-Serif" font-size="10.00">Point3d()</text>
<text text-anchor="start" x="122.5" y="-97" font-family="Helvetica,sans-Serif" font-size="10.00">+</text>
<text text-anchor="start" x="145" y="-97" font-family="Helvetica,sans-Serif" font-size="10.00">x()</text>
<text text-anchor="start" x="122.5" y="-82" font-family="Helvetica,sans-Serif" font-size="10.00">+</text>
<text text-anchor="start" x="145" y="-82" font-family="Helvetica,sans-Serif" font-size="10.00">y()</text>
<text text-anchor="start" x="122.5" y="-67" font-family="Helvetica,sans-Serif" font-size="10.00">+</text>
<text text-anchor="start" x="145" y="-67" font-family="Helvetica,sans-Serif" font-size="10.00">z()</text>
<text text-anchor="start" x="122.5" y="-52" font-family="Helvetica,sans-Serif" font-size="10.00">+</text>
<text text-anchor="start" x="145" y="-52" font-family="Helvetica,sans-Serif" font-size="10.00">x()</text>
<text text-anchor="start" x="122.5" y="-37" font-family="Helvetica,sans-Serif" font-size="10.00">+</text>
<text text-anchor="start" x="145" y="-37" font-family="Helvetica,sans-Serif" font-size="10.00">y()</text>
<text text-anchor="start" x="122.5" y="-22" font-family="Helvetica,sans-Serif" font-size="10.00">+</text>
<text text-anchor="start" x="145" y="-22" font-family="Helvetica,sans-Serif" font-size="10.00">z()</text>
<text text-anchor="start" x="122.5" y="-7" font-family="Helvetica,sans-Serif" font-size="10.00">+</text>
<text text-anchor="start" x="145" y="-7" font-family="Helvetica,sans-Serif" font-size="10.00">FromValues()</text>
<polygon fill="#666666" stroke="#666666" points="109,-152 109,-152 234,-152 234,-152 109,-152"/>
<polygon fill="#666666" stroke="#666666" points="109,-137 109,-137 234,-137 234,-137 109,-137"/>
<polygon fill="none" stroke="#666666" points="108.5,0 108.5,-180 233.5,-180 233.5,0 108.5,0"/>
</a>
</g>
</g>
<!-- Node2 -->
<g id="Node000002" class="node">
<title>Node2</title>
<g id="a_Node000002"><a xlink:href="classtracking_1_1math_1_1Vector.html" target="_top" xlink:title=" ">
<polygon fill="white" stroke="transparent" points="230.5,-516 111.5,-516 111.5,-216 230.5,-216 230.5,-516"/>
<text text-anchor="start" x="117" y="-504" font-family="Helvetica,sans-Serif" font-size="10.00">tracking::math::Vector</text>
<text text-anchor="start" x="126.5" y="-493" font-family="Helvetica,sans-Serif" font-size="10.00">&lt; ValueType_, 3 &gt;</text>
<text text-anchor="start" x="169.5" y="-478" font-family="Helvetica,sans-Serif" font-size="10.00"> </text>
<text text-anchor="start" x="125.5" y="-463" font-family="Helvetica,sans-Serif" font-size="10.00">+</text>
<text text-anchor="start" x="148" y="-463" font-family="Helvetica,sans-Serif" font-size="10.00">Vector()</text>
<text text-anchor="start" x="125.5" y="-448" font-family="Helvetica,sans-Serif" font-size="10.00">+</text>
<text text-anchor="start" x="148" y="-448" font-family="Helvetica,sans-Serif" font-size="10.00">Vector()</text>
<text text-anchor="start" x="125.5" y="-433" font-family="Helvetica,sans-Serif" font-size="10.00">+</text>
<text text-anchor="start" x="148" y="-433" font-family="Helvetica,sans-Serif" font-size="10.00">Vector()</text>
<text text-anchor="start" x="125.5" y="-418" font-family="Helvetica,sans-Serif" font-size="10.00">+</text>
<text text-anchor="start" x="148" y="-418" font-family="Helvetica,sans-Serif" font-size="10.00">Vector()</text>
<text text-anchor="start" x="125.5" y="-403" font-family="Helvetica,sans-Serif" font-size="10.00">+</text>
<text text-anchor="start" x="148" y="-403" font-family="Helvetica,sans-Serif" font-size="10.00">operator[]()</text>
<text text-anchor="start" x="125.5" y="-388" font-family="Helvetica,sans-Serif" font-size="10.00">+</text>
<text text-anchor="start" x="148" y="-388" font-family="Helvetica,sans-Serif" font-size="10.00">operator[]()</text>
<text text-anchor="start" x="125.5" y="-373" font-family="Helvetica,sans-Serif" font-size="10.00">+</text>
<text text-anchor="start" x="148" y="-373" font-family="Helvetica,sans-Serif" font-size="10.00">operator*()</text>
<text text-anchor="start" x="125.5" y="-358" font-family="Helvetica,sans-Serif" font-size="10.00">+</text>
<text text-anchor="start" x="148" y="-358" font-family="Helvetica,sans-Serif" font-size="10.00">normSq()</text>
<text text-anchor="start" x="125.5" y="-343" font-family="Helvetica,sans-Serif" font-size="10.00">+</text>
<text text-anchor="start" x="148" y="-343" font-family="Helvetica,sans-Serif" font-size="10.00">norm()</text>
<text text-anchor="start" x="125.5" y="-328" font-family="Helvetica,sans-Serif" font-size="10.00">+</text>
<text text-anchor="start" x="148" y="-328" font-family="Helvetica,sans-Serif" font-size="10.00">normalize()</text>
<text text-anchor="start" x="125.5" y="-313" font-family="Helvetica,sans-Serif" font-size="10.00">+</text>
<text text-anchor="start" x="148" y="-313" font-family="Helvetica,sans-Serif" font-size="10.00">normalize()</text>
<text text-anchor="start" x="125.5" y="-298" font-family="Helvetica,sans-Serif" font-size="10.00">+</text>
<text text-anchor="start" x="148" y="-298" font-family="Helvetica,sans-Serif" font-size="10.00">at_unsafe()</text>
<text text-anchor="start" x="125.5" y="-283" font-family="Helvetica,sans-Serif" font-size="10.00">+</text>
<text text-anchor="start" x="148" y="-283" font-family="Helvetica,sans-Serif" font-size="10.00">at_unsafe()</text>
<text text-anchor="start" x="125.5" y="-268" font-family="Helvetica,sans-Serif" font-size="10.00">+</text>
<text text-anchor="start" x="148" y="-268" font-family="Helvetica,sans-Serif" font-size="10.00">Zeros()</text>
<text text-anchor="start" x="125.5" y="-253" font-family="Helvetica,sans-Serif" font-size="10.00">+</text>
<text text-anchor="start" x="148" y="-253" font-family="Helvetica,sans-Serif" font-size="10.00">Ones()</text>
<text text-anchor="start" x="125.5" y="-238" font-family="Helvetica,sans-Serif" font-size="10.00">+</text>
<text text-anchor="start" x="148" y="-238" font-family="Helvetica,sans-Serif" font-size="10.00">UnitVector()</text>
<text text-anchor="start" x="125.5" y="-223" font-family="Helvetica,sans-Serif" font-size="10.00">+</text>
<text text-anchor="start" x="148" y="-223" font-family="Helvetica,sans-Serif" font-size="10.00">FromList()</text>
<polygon fill="#666666" stroke="#666666" points="112,-488 112,-488 231,-488 231,-488 112,-488"/>
<polygon fill="#666666" stroke="#666666" points="112,-473 112,-473 231,-473 231,-473 112,-473"/>
<polygon fill="none" stroke="#666666" points="111.5,-216 111.5,-516 230.5,-516 230.5,-216 111.5,-216"/>
</a>
</g>
</g>
<!-- Node2&#45;&gt;Node1 -->
<g id="edge1_Node000001_Node000002" class="edge">
<title>Node2&#45;&gt;Node1</title>
<g id="a_edge1_Node000001_Node000002"><a xlink:title=" ">
<path fill="none" stroke="#63b8ff" d="M171,-205.74C171,-197.06 171,-188.51 171,-180.22"/>
<polygon fill="none" stroke="#63b8ff" points="167.5,-205.97 171,-215.97 174.5,-205.97 167.5,-205.97"/>
</a>
</g>
</g>
<!-- Node3 -->
<g id="Node000003" class="node">
<title>Node3</title>
<g id="a_Node000003"><a xlink:href="classtracking_1_1math_1_1Matrix.html" target="_top" xlink:title=" ">
<polygon fill="white" stroke="transparent" points="240.5,-975 101.5,-975 101.5,-552 240.5,-552 240.5,-975"/>
<text text-anchor="start" x="115" y="-962.5" font-family="Helvetica,sans-Serif" font-size="10.00">tracking::math::Matrix</text>
<text text-anchor="start" x="115" y="-951.5" font-family="Helvetica,sans-Serif" font-size="10.00">&lt; ValueType_, Size_, 1,</text>
<text text-anchor="start" x="154.5" y="-940.5" font-family="Helvetica,sans-Serif" font-size="10.00"> true &gt;</text>
<text text-anchor="start" x="106" y="-925.5" font-family="Helvetica,sans-Serif" font-size="10.00">+</text>
<text text-anchor="start" x="119" y="-925.5" font-family="Helvetica,sans-Serif" font-size="10.00">Rows</text>
<text text-anchor="start" x="106" y="-910.5" font-family="Helvetica,sans-Serif" font-size="10.00">+</text>
<text text-anchor="start" x="119" y="-910.5" font-family="Helvetica,sans-Serif" font-size="10.00">Cols</text>
<text text-anchor="start" x="106" y="-895.5" font-family="Helvetica,sans-Serif" font-size="10.00">+</text>
<text text-anchor="start" x="119" y="-895.5" font-family="Helvetica,sans-Serif" font-size="10.00">IsRowMajor</text>
<text text-anchor="start" x="106" y="-880.5" font-family="Helvetica,sans-Serif" font-size="10.00">#</text>
<text text-anchor="start" x="119" y="-880.5" font-family="Helvetica,sans-Serif" font-size="10.00">RowsInMem</text>
<text text-anchor="start" x="106" y="-865.5" font-family="Helvetica,sans-Serif" font-size="10.00">#</text>
<text text-anchor="start" x="119" y="-865.5" font-family="Helvetica,sans-Serif" font-size="10.00">ColsInMem</text>
<text text-anchor="start" x="108.5" y="-850.5" font-family="Helvetica,sans-Serif" font-size="10.00">&#45;</text>
<text text-anchor="start" x="119" y="-850.5" font-family="Helvetica,sans-Serif" font-size="10.00">_data</text>
<text text-anchor="start" x="106" y="-835.5" font-family="Helvetica,sans-Serif" font-size="10.00">+</text>
<text text-anchor="start" x="119" y="-835.5" font-family="Helvetica,sans-Serif" font-size="10.00">Matrix()</text>
<text text-anchor="start" x="106" y="-820.5" font-family="Helvetica,sans-Serif" font-size="10.00">+</text>
<text text-anchor="start" x="119" y="-820.5" font-family="Helvetica,sans-Serif" font-size="10.00">Matrix()</text>
<text text-anchor="start" x="106" y="-805.5" font-family="Helvetica,sans-Serif" font-size="10.00">+</text>
<text text-anchor="start" x="119" y="-805.5" font-family="Helvetica,sans-Serif" font-size="10.00">Matrix()</text>
<text text-anchor="start" x="106" y="-790.5" font-family="Helvetica,sans-Serif" font-size="10.00">+</text>
<text text-anchor="start" x="119" y="-790.5" font-family="Helvetica,sans-Serif" font-size="10.00">operator=()</text>
<text text-anchor="start" x="106" y="-775.5" font-family="Helvetica,sans-Serif" font-size="10.00">+</text>
<text text-anchor="start" x="119" y="-775.5" font-family="Helvetica,sans-Serif" font-size="10.00">operator=()</text>
<text text-anchor="start" x="106" y="-760.5" font-family="Helvetica,sans-Serif" font-size="10.00">+</text>
<text text-anchor="start" x="119" y="-760.5" font-family="Helvetica,sans-Serif" font-size="10.00">~Matrix()</text>
<text text-anchor="start" x="106" y="-745.5" font-family="Helvetica,sans-Serif" font-size="10.00">+</text>
<text text-anchor="start" x="119" y="-745.5" font-family="Helvetica,sans-Serif" font-size="10.00">operator()()</text>
<text text-anchor="start" x="106" y="-730.5" font-family="Helvetica,sans-Serif" font-size="10.00">+</text>
<text text-anchor="start" x="119" y="-730.5" font-family="Helvetica,sans-Serif" font-size="10.00">operator()()</text>
<text text-anchor="start" x="106" y="-715.5" font-family="Helvetica,sans-Serif" font-size="10.00">+</text>
<text text-anchor="start" x="119" y="-715.5" font-family="Helvetica,sans-Serif" font-size="10.00">operator==()</text>
<text text-anchor="start" x="106" y="-700.5" font-family="Helvetica,sans-Serif" font-size="10.00">+</text>
<text text-anchor="start" x="119" y="-700.5" font-family="Helvetica,sans-Serif" font-size="10.00">operator!=()</text>
<text text-anchor="start" x="119" y="-685.5" font-family="Helvetica,sans-Serif" font-size="10.00">and 27 more...</text>
<text text-anchor="start" x="106" y="-670.5" font-family="Helvetica,sans-Serif" font-size="10.00">+</text>
<text text-anchor="start" x="119" y="-670.5" font-family="Helvetica,sans-Serif" font-size="10.00">Zeros()</text>
<text text-anchor="start" x="106" y="-655.5" font-family="Helvetica,sans-Serif" font-size="10.00">+</text>
<text text-anchor="start" x="119" y="-655.5" font-family="Helvetica,sans-Serif" font-size="10.00">Ones()</text>
<text text-anchor="start" x="106" y="-640.5" font-family="Helvetica,sans-Serif" font-size="10.00">+</text>
<text text-anchor="start" x="119" y="-640.5" font-family="Helvetica,sans-Serif" font-size="10.00">FromList()</text>
<text text-anchor="start" x="106" y="-625.5" font-family="Helvetica,sans-Serif" font-size="10.00">#</text>
<text text-anchor="start" x="119" y="-625.5" font-family="Helvetica,sans-Serif" font-size="10.00">data()</text>
<text text-anchor="start" x="106" y="-610.5" font-family="Helvetica,sans-Serif" font-size="10.00">#</text>
<text text-anchor="start" x="119" y="-610.5" font-family="Helvetica,sans-Serif" font-size="10.00">data()</text>
<text text-anchor="start" x="108.5" y="-595.5" font-family="Helvetica,sans-Serif" font-size="10.00">&#45;</text>
<text text-anchor="start" x="119" y="-595.5" font-family="Helvetica,sans-Serif" font-size="10.00">inplace_div_by_int</text>
<text text-anchor="start" x="119" y="-584.5" font-family="Helvetica,sans-Serif" font-size="10.00">_unsafe()</text>
<text text-anchor="start" x="108.5" y="-569.5" font-family="Helvetica,sans-Serif" font-size="10.00">&#45;</text>
<text text-anchor="start" x="119" y="-569.5" font-family="Helvetica,sans-Serif" font-size="10.00">inplace_mul_by_inverse</text>
<text text-anchor="start" x="119" y="-558.5" font-family="Helvetica,sans-Serif" font-size="10.00">_factor_unsafe()</text>
<polygon fill="#666666" stroke="#666666" points="102,-935.5 102,-935.5 241,-935.5 241,-935.5 102,-935.5"/>
<polygon fill="#666666" stroke="#666666" points="102,-845.5 102,-845.5 117,-845.5 117,-845.5 102,-845.5"/>
<polygon fill="#666666" stroke="#666666" points="117,-845.5 117,-845.5 241,-845.5 241,-845.5 117,-845.5"/>
<polygon fill="none" stroke="#666666" points="101.5,-552 101.5,-975 240.5,-975 240.5,-552 101.5,-552"/>
</a>
</g>
</g>
<!-- Node3&#45;&gt;Node2 -->
<g id="edge2_Node000002_Node000003" class="edge">
<title>Node3&#45;&gt;Node2</title>
<g id="a_edge2_Node000002_Node000003"><a xlink:title=" ">
<path fill="none" stroke="#63b8ff" d="M171,-541.64C171,-533.06 171,-524.55 171,-516.16"/>
<polygon fill="none" stroke="#63b8ff" points="167.5,-541.72 171,-551.72 174.5,-541.72 167.5,-541.72"/>
</a>
</g>
</g>
<!-- Node4 -->
<g id="Node000004" class="node">
<title>Node4</title>
<g id="a_Node000004"><a xlink:href="structtracking_1_1math_1_1contract_1_1MatrixIntf.html" target="_top" xlink:title=" ">
<polygon fill="white" stroke="transparent" points="255,-1093 87,-1093 87,-1011 255,-1011 255,-1093"/>
<text text-anchor="start" x="92" y="-1081" font-family="Helvetica,sans-Serif" font-size="10.00">tracking::math::contract</text>
<text text-anchor="start" x="92" y="-1070" font-family="Helvetica,sans-Serif" font-size="10.00">::MatrixIntf&lt; Matrix&lt; ValueType</text>
<text text-anchor="start" x="92" y="-1059" font-family="Helvetica,sans-Serif" font-size="10.00">_, Rows_, Cols_, IsRowMajor</text>
<text text-anchor="start" x="138" y="-1048" font-family="Helvetica,sans-Serif" font-size="10.00">_ &gt;, Matrix &gt;</text>
<text text-anchor="start" x="169" y="-1033" font-family="Helvetica,sans-Serif" font-size="10.00"> </text>
<text text-anchor="start" x="113.5" y="-1018" font-family="Helvetica,sans-Serif" font-size="10.00">+</text>
<text text-anchor="start" x="149" y="-1018" font-family="Helvetica,sans-Serif" font-size="10.00">MatrixIntf()</text>
<polygon fill="#666666" stroke="#666666" points="87,-1043 87,-1043 255,-1043 255,-1043 87,-1043"/>
<polygon fill="#666666" stroke="#666666" points="87,-1028 87,-1028 255,-1028 255,-1028 87,-1028"/>
<polygon fill="none" stroke="#666666" points="87,-1011 87,-1093 255,-1093 255,-1011 87,-1011"/>
</a>
</g>
</g>
<!-- Node4&#45;&gt;Node3 -->
<g id="edge3_Node000003_Node000004" class="edge">
<title>Node4&#45;&gt;Node3</title>
<g id="a_edge3_Node000003_Node000004"><a xlink:title=" ">
<path fill="none" stroke="#63b8ff" d="M171,-1000.79C171,-992.83 171,-984.18 171,-975.07"/>
<polygon fill="none" stroke="#63b8ff" points="167.5,-1000.86 171,-1010.86 174.5,-1000.86 167.5,-1000.86"/>
</a>
</g>
</g>
<!-- Node5 -->
<g id="Node000005" class="node">
<title>Node5</title>
<g id="a_Node000005"><a xlink:href="classtracking_1_1base_1_1contract_1_1RequireCopyIntf.html" target="_top" xlink:title=" ">
<polygon fill="white" stroke="transparent" points="162,-1189 0,-1189 0,-1129 162,-1129 162,-1189"/>
<text text-anchor="start" x="5" y="-1177" font-family="Helvetica,sans-Serif" font-size="10.00">tracking::base::contract</text>
<text text-anchor="start" x="5" y="-1166" font-family="Helvetica,sans-Serif" font-size="10.00">::RequireCopyIntf&lt; ImplType &gt;</text>
<text text-anchor="start" x="79" y="-1151" font-family="Helvetica,sans-Serif" font-size="10.00"> </text>
<text text-anchor="start" x="17.5" y="-1136" font-family="Helvetica,sans-Serif" font-size="10.00">+</text>
<text text-anchor="start" x="44" y="-1136" font-family="Helvetica,sans-Serif" font-size="10.00">RequireCopyIntf()</text>
<polygon fill="#666666" stroke="#666666" points="0,-1161 0,-1161 162,-1161 162,-1161 0,-1161"/>
<polygon fill="#666666" stroke="#666666" points="0,-1146 0,-1146 162,-1146 162,-1146 0,-1146"/>
<polygon fill="none" stroke="#666666" points="0,-1129 0,-1189 162,-1189 162,-1129 0,-1129"/>
</a>
</g>
</g>
<!-- Node5&#45;&gt;Node4 -->
<g id="edge4_Node000004_Node000005" class="edge">
<title>Node5&#45;&gt;Node4</title>
<g id="a_edge4_Node000004_Node000005"><a xlink:title=" ">
<path fill="none" stroke="#63b8ff" d="M112.71,-1121.01C120.45,-1111.97 128.78,-1102.26 136.65,-1093.08"/>
<polygon fill="none" stroke="#63b8ff" points="109.92,-1118.88 106.07,-1128.75 115.24,-1123.44 109.92,-1118.88"/>
</a>
</g>
</g>
<!-- Node6 -->
<g id="Node000006" class="node">
<title>Node6</title>
<g id="a_Node000006"><a xlink:href="classtracking_1_1base_1_1contract_1_1RequireMoveIntf.html" target="_top" xlink:title=" ">
<polygon fill="white" stroke="transparent" points="344,-1189 180,-1189 180,-1129 344,-1129 344,-1189"/>
<text text-anchor="start" x="185" y="-1177" font-family="Helvetica,sans-Serif" font-size="10.00">tracking::base::contract</text>
<text text-anchor="start" x="185" y="-1166" font-family="Helvetica,sans-Serif" font-size="10.00">::RequireMoveIntf&lt; ImplType &gt;</text>
<text text-anchor="start" x="260" y="-1151" font-family="Helvetica,sans-Serif" font-size="10.00"> </text>
<text text-anchor="start" x="197.5" y="-1136" font-family="Helvetica,sans-Serif" font-size="10.00">+</text>
<text text-anchor="start" x="224" y="-1136" font-family="Helvetica,sans-Serif" font-size="10.00">RequireMoveIntf()</text>
<polygon fill="#666666" stroke="#666666" points="180,-1161 180,-1161 344,-1161 344,-1161 180,-1161"/>
<polygon fill="#666666" stroke="#666666" points="180,-1146 180,-1146 344,-1146 344,-1146 180,-1146"/>
<polygon fill="none" stroke="#666666" points="180,-1129 180,-1189 344,-1189 344,-1129 180,-1129"/>
</a>
</g>
</g>
<!-- Node6&#45;&gt;Node4 -->
<g id="edge5_Node000004_Node000006" class="edge">
<title>Node6&#45;&gt;Node4</title>
<g id="a_edge5_Node000004_Node000006"><a xlink:title=" ">
<path fill="none" stroke="#63b8ff" d="M229.94,-1121.01C222.11,-1111.97 213.69,-1102.26 205.73,-1093.08"/>
<polygon fill="none" stroke="#63b8ff" points="227.46,-1123.49 236.65,-1128.75 232.75,-1118.9 227.46,-1123.49"/>
</a>
</g>
</g>
</g>
</svg>
