<?xml version="1.0" encoding="UTF-8" standalone="no"?>
<!DOCTYPE svg PUBLIC "-//W3C//DTD SVG 1.1//EN"
 "http://www.w3.org/Graphics/SVG/1.1/DTD/svg11.dtd">
<!-- Generated by graphviz version 2.43.0 (0)
 -->
<!-- Title: tracking::motion::generic::PredictCommon&lt; MotionModel_, CovarianceMatrixPolicy_ &gt; Pages: 1 -->
<svg width="906pt" height="972pt"
 viewBox="0.00 0.00 906.00 972.00" xmlns="http://www.w3.org/2000/svg" xmlns:xlink="http://www.w3.org/1999/xlink">
<g id="graph0" class="graph" transform="scale(1 1) rotate(0) translate(4 968)">
<title>tracking::motion::generic::PredictCommon&lt; MotionModel_, CovarianceMatrixPolicy_ &gt;</title>
<!-- Node1 -->
<g id="Node000001" class="node">
<title>Node1</title>
<g id="a_Node000001"><a xlink:title="Base class for common calculations needed for any prediction.">
<polygon fill="#999999" stroke="transparent" points="471.5,-964 301.5,-964 301.5,-893 471.5,-893 471.5,-964"/>
<text text-anchor="start" x="306.5" y="-951.5" font-family="Helvetica,sans-Serif" font-size="10.00">tracking::motion::generic</text>
<text text-anchor="start" x="306.5" y="-940.5" font-family="Helvetica,sans-Serif" font-size="10.00">::PredictCommon&lt; MotionModel</text>
<text text-anchor="start" x="314.5" y="-929.5" font-family="Helvetica,sans-Serif" font-size="10.00">_, CovarianceMatrixPolicy_ &gt;</text>
<text text-anchor="start" x="384.5" y="-914.5" font-family="Helvetica,sans-Serif" font-size="10.00"> </text>
<text text-anchor="start" x="336.5" y="-899.5" font-family="Helvetica,sans-Serif" font-size="10.00">+</text>
<text text-anchor="start" x="380.5" y="-899.5" font-family="Helvetica,sans-Serif" font-size="10.00">run()</text>
<polygon fill="#666666" stroke="#666666" points="301.5,-924.5 301.5,-924.5 471.5,-924.5 471.5,-924.5 301.5,-924.5"/>
<polygon fill="#666666" stroke="#666666" points="301.5,-909.5 301.5,-909.5 471.5,-909.5 471.5,-909.5 301.5,-909.5"/>
<polygon fill="none" stroke="#666666" points="301.5,-893 301.5,-964 471.5,-964 471.5,-893 301.5,-893"/>
</a>
</g>
</g>
<!-- Node2 -->
<g id="Node000002" class="node">
<title>Node2</title>
<g id="a_Node000002"><a xlink:href="classtracking_1_1motion_1_1generic_1_1Predict.html" target="_top" xlink:title=" ">
<polygon fill="white" stroke="transparent" points="175,-851.5 2,-851.5 2,-754.5 175,-754.5 175,-851.5"/>
<text text-anchor="start" x="7.5" y="-839" font-family="Helvetica,sans-Serif" font-size="10.00">tracking::motion::generic</text>
<text text-anchor="start" x="7.5" y="-828" font-family="Helvetica,sans-Serif" font-size="10.00">::Predict&lt; MotionModel</text>
<text text-anchor="start" x="7.5" y="-817" font-family="Helvetica,sans-Serif" font-size="10.00">_, MotionModelTrait_::Covariance</text>
<text text-anchor="start" x="52.5" y="-806" font-family="Helvetica,sans-Serif" font-size="10.00">MatrixPolicy &gt;</text>
<text text-anchor="start" x="87" y="-791" font-family="Helvetica,sans-Serif" font-size="10.00"> </text>
<text text-anchor="start" x="38.5" y="-776" font-family="Helvetica,sans-Serif" font-size="10.00">+</text>
<text text-anchor="start" x="83.5" y="-776" font-family="Helvetica,sans-Serif" font-size="10.00">run()</text>
<text text-anchor="start" x="38.5" y="-761" font-family="Helvetica,sans-Serif" font-size="10.00">+</text>
<text text-anchor="start" x="83.5" y="-761" font-family="Helvetica,sans-Serif" font-size="10.00">run()</text>
<polygon fill="#666666" stroke="#666666" points="2.5,-801 2.5,-801 175.5,-801 175.5,-801 2.5,-801"/>
<polygon fill="#666666" stroke="#666666" points="2.5,-786 2.5,-786 175.5,-786 175.5,-786 2.5,-786"/>
<polygon fill="none" stroke="#666666" points="2,-754.5 2,-851.5 175,-851.5 175,-754.5 2,-754.5"/>
</a>
</g>
</g>
<!-- Node1&#45;&gt;Node2 -->
<g id="edge1_Node000001_Node000002" class="edge">
<title>Node1&#45;&gt;Node2</title>
<g id="a_edge1_Node000001_Node000002"><a xlink:title=" ">
<path fill="none" stroke="#63b8ff" d="M291.69,-898.09C257.42,-886.5 218.75,-872.3 184.5,-857 180.68,-855.29 176.8,-853.49 172.91,-851.61"/>
<polygon fill="none" stroke="#63b8ff" points="290.64,-901.43 301.23,-901.29 292.86,-894.79 290.64,-901.43"/>
</a>
</g>
</g>
<!-- Node4 -->
<g id="Node000004" class="node">
<title>Node4</title>
<g id="a_Node000004"><a xlink:href="classtracking_1_1motion_1_1generic_1_1Predict.html" target="_top" xlink:title=" ">
<polygon fill="white" stroke="transparent" points="377.5,-857 193.5,-857 193.5,-749 377.5,-749 377.5,-857"/>
<text text-anchor="start" x="198.5" y="-845" font-family="Helvetica,sans-Serif" font-size="10.00">tracking::motion::generic</text>
<text text-anchor="start" x="198.5" y="-834" font-family="Helvetica,sans-Serif" font-size="10.00">::Predict&lt; MotionModelCA</text>
<text text-anchor="start" x="198.5" y="-823" font-family="Helvetica,sans-Serif" font-size="10.00">&lt; CovarianceMatrixPolicy</text>
<text text-anchor="start" x="198.5" y="-812" font-family="Helvetica,sans-Serif" font-size="10.00">_ &gt;, MotionModelTrait_::Covariance</text>
<text text-anchor="start" x="249" y="-801" font-family="Helvetica,sans-Serif" font-size="10.00">MatrixPolicy &gt;</text>
<text text-anchor="start" x="283.5" y="-786" font-family="Helvetica,sans-Serif" font-size="10.00"> </text>
<text text-anchor="start" x="232" y="-771" font-family="Helvetica,sans-Serif" font-size="10.00">+</text>
<text text-anchor="start" x="279.5" y="-771" font-family="Helvetica,sans-Serif" font-size="10.00">run()</text>
<text text-anchor="start" x="232" y="-756" font-family="Helvetica,sans-Serif" font-size="10.00">+</text>
<text text-anchor="start" x="279.5" y="-756" font-family="Helvetica,sans-Serif" font-size="10.00">run()</text>
<polygon fill="#666666" stroke="#666666" points="193.5,-796 193.5,-796 377.5,-796 377.5,-796 193.5,-796"/>
<polygon fill="#666666" stroke="#666666" points="193.5,-781 193.5,-781 377.5,-781 377.5,-781 193.5,-781"/>
<polygon fill="none" stroke="#666666" points="193.5,-749 193.5,-857 377.5,-857 377.5,-749 193.5,-749"/>
</a>
</g>
</g>
<!-- Node1&#45;&gt;Node4 -->
<g id="edge3_Node000001_Node000004" class="edge">
<title>Node1&#45;&gt;Node4</title>
<g id="a_edge3_Node000001_Node000004"><a xlink:title=" ">
<path fill="none" stroke="#63b8ff" d="M351.61,-884.83C344.37,-875.99 336.67,-866.57 329.17,-857.39"/>
<polygon fill="none" stroke="#63b8ff" points="349.06,-887.24 358.1,-892.77 354.48,-882.81 349.06,-887.24"/>
</a>
</g>
</g>
<!-- Node5 -->
<g id="Node000005" class="node">
<title>Node5</title>
<g id="a_Node000005"><a xlink:href="classtracking_1_1motion_1_1generic_1_1Predict.html" target="_top" xlink:title=" ">
<polygon fill="white" stroke="transparent" points="579.5,-857 395.5,-857 395.5,-749 579.5,-749 579.5,-857"/>
<text text-anchor="start" x="400.5" y="-845" font-family="Helvetica,sans-Serif" font-size="10.00">tracking::motion::generic</text>
<text text-anchor="start" x="400.5" y="-834" font-family="Helvetica,sans-Serif" font-size="10.00">::Predict&lt; MotionModelCV</text>
<text text-anchor="start" x="400.5" y="-823" font-family="Helvetica,sans-Serif" font-size="10.00">&lt; CovarianceMatrixPolicy</text>
<text text-anchor="start" x="400.5" y="-812" font-family="Helvetica,sans-Serif" font-size="10.00">_ &gt;, MotionModelTrait_::Covariance</text>
<text text-anchor="start" x="451" y="-801" font-family="Helvetica,sans-Serif" font-size="10.00">MatrixPolicy &gt;</text>
<text text-anchor="start" x="485.5" y="-786" font-family="Helvetica,sans-Serif" font-size="10.00"> </text>
<text text-anchor="start" x="434" y="-771" font-family="Helvetica,sans-Serif" font-size="10.00">+</text>
<text text-anchor="start" x="481.5" y="-771" font-family="Helvetica,sans-Serif" font-size="10.00">run()</text>
<text text-anchor="start" x="434" y="-756" font-family="Helvetica,sans-Serif" font-size="10.00">+</text>
<text text-anchor="start" x="481.5" y="-756" font-family="Helvetica,sans-Serif" font-size="10.00">run()</text>
<polygon fill="#666666" stroke="#666666" points="395.5,-796 395.5,-796 579.5,-796 579.5,-796 395.5,-796"/>
<polygon fill="#666666" stroke="#666666" points="395.5,-781 395.5,-781 579.5,-781 579.5,-781 395.5,-781"/>
<polygon fill="none" stroke="#666666" points="395.5,-749 395.5,-857 579.5,-857 579.5,-749 395.5,-749"/>
</a>
</g>
</g>
<!-- Node1&#45;&gt;Node5 -->
<g id="edge4_Node000001_Node000005" class="edge">
<title>Node1&#45;&gt;Node5</title>
<g id="a_edge4_Node000001_Node000005"><a xlink:title=" ">
<path fill="none" stroke="#63b8ff" d="M421.39,-884.83C428.63,-875.99 436.33,-866.57 443.83,-857.39"/>
<polygon fill="none" stroke="#63b8ff" points="418.52,-882.81 414.9,-892.77 423.94,-887.24 418.52,-882.81"/>
</a>
</g>
</g>
<!-- Node6 -->
<g id="Node000006" class="node">
<title>Node6</title>
<g id="a_Node000006"><a xlink:href="classtracking_1_1motion_1_1generic_1_1Predict.html" target="_top" xlink:title="Base class to extend any motion model with a generic prediction functionality using the CRTP pattern.">
<polygon fill="white" stroke="transparent" points="751.5,-846 597.5,-846 597.5,-760 751.5,-760 751.5,-846"/>
<text text-anchor="start" x="602.5" y="-834" font-family="Helvetica,sans-Serif" font-size="10.00">tracking::motion::generic</text>
<text text-anchor="start" x="602.5" y="-823" font-family="Helvetica,sans-Serif" font-size="10.00">::Predict&lt; MotionModel</text>
<text text-anchor="start" x="602.5" y="-812" font-family="Helvetica,sans-Serif" font-size="10.00">_, CovarianceMatrixPolicy_ &gt;</text>
<text text-anchor="start" x="672.5" y="-797" font-family="Helvetica,sans-Serif" font-size="10.00"> </text>
<text text-anchor="start" x="628.5" y="-782" font-family="Helvetica,sans-Serif" font-size="10.00">+</text>
<text text-anchor="start" x="668.5" y="-782" font-family="Helvetica,sans-Serif" font-size="10.00">run()</text>
<text text-anchor="start" x="628.5" y="-767" font-family="Helvetica,sans-Serif" font-size="10.00">+</text>
<text text-anchor="start" x="668.5" y="-767" font-family="Helvetica,sans-Serif" font-size="10.00">run()</text>
<polygon fill="#666666" stroke="#666666" points="597.5,-807 597.5,-807 751.5,-807 751.5,-807 597.5,-807"/>
<polygon fill="#666666" stroke="#666666" points="597.5,-792 597.5,-792 751.5,-792 751.5,-792 597.5,-792"/>
<polygon fill="none" stroke="#666666" points="597.5,-760 597.5,-846 751.5,-846 751.5,-760 597.5,-760"/>
</a>
</g>
</g>
<!-- Node1&#45;&gt;Node6 -->
<g id="edge5_Node000001_Node000006" class="edge">
<title>Node1&#45;&gt;Node6</title>
<g id="a_edge5_Node000001_Node000006"><a xlink:title=" ">
<path fill="none" stroke="#63b8ff" d="M481.26,-899.14C515.68,-887.62 554.47,-873.19 588.5,-857 595.47,-853.68 602.58,-849.94 609.58,-846.02"/>
<polygon fill="none" stroke="#63b8ff" points="480.06,-895.85 471.67,-902.32 482.26,-902.5 480.06,-895.85"/>
</a>
</g>
</g>
<!-- Node3 -->
<g id="Node000003" class="node">
<title>Node3</title>
<g id="a_Node000003"><a xlink:href="classtracking_1_1motion_1_1ExtendedMotionModel.html" target="_top" xlink:title="Abstract MotionModel with known dimension, keeping the model memory for State and StateCovariance.">
<polygon fill="white" stroke="transparent" points="177,-702 0,-702 0,-354 177,-354 177,-702"/>
<text text-anchor="start" x="19.5" y="-690" font-family="Helvetica,sans-Serif" font-size="10.00">tracking::motion::Extended</text>
<text text-anchor="start" x="19.5" y="-679" font-family="Helvetica,sans-Serif" font-size="10.00">MotionModel&lt; MotionModel</text>
<text text-anchor="start" x="32.5" y="-668" font-family="Helvetica,sans-Serif" font-size="10.00">_, MotionModelTrait_ &gt;</text>
<text text-anchor="start" x="87" y="-653" font-family="Helvetica,sans-Serif" font-size="10.00"> </text>
<text text-anchor="start" x="4.5" y="-638" font-family="Helvetica,sans-Serif" font-size="10.00">+</text>
<text text-anchor="start" x="17.5" y="-638" font-family="Helvetica,sans-Serif" font-size="10.00">ExtendedMotionModel()</text>
<text text-anchor="start" x="4.5" y="-623" font-family="Helvetica,sans-Serif" font-size="10.00">+</text>
<text text-anchor="start" x="17.5" y="-623" font-family="Helvetica,sans-Serif" font-size="10.00">~ExtendedMotionModel()</text>
<text text-anchor="start" x="4.5" y="-608" font-family="Helvetica,sans-Serif" font-size="10.00">+</text>
<text text-anchor="start" x="17.5" y="-608" font-family="Helvetica,sans-Serif" font-size="10.00">getX()</text>
<text text-anchor="start" x="4.5" y="-593" font-family="Helvetica,sans-Serif" font-size="10.00">+</text>
<text text-anchor="start" x="17.5" y="-593" font-family="Helvetica,sans-Serif" font-size="10.00">getY()</text>
<text text-anchor="start" x="4.5" y="-578" font-family="Helvetica,sans-Serif" font-size="10.00">+</text>
<text text-anchor="start" x="17.5" y="-578" font-family="Helvetica,sans-Serif" font-size="10.00">invertCov()</text>
<text text-anchor="start" x="4.5" y="-563" font-family="Helvetica,sans-Serif" font-size="10.00">+</text>
<text text-anchor="start" x="17.5" y="-563" font-family="Helvetica,sans-Serif" font-size="10.00">predict()</text>
<text text-anchor="start" x="4.5" y="-548" font-family="Helvetica,sans-Serif" font-size="10.00">+</text>
<text text-anchor="start" x="17.5" y="-548" font-family="Helvetica,sans-Serif" font-size="10.00">predict()</text>
<text text-anchor="start" x="4.5" y="-533" font-family="Helvetica,sans-Serif" font-size="10.00">+</text>
<text text-anchor="start" x="17.5" y="-533" font-family="Helvetica,sans-Serif" font-size="10.00">convertStateVecIntoState</text>
<text text-anchor="start" x="17.5" y="-522" font-family="Helvetica,sans-Serif" font-size="10.00">Space()</text>
<text text-anchor="start" x="4.5" y="-507" font-family="Helvetica,sans-Serif" font-size="10.00">+</text>
<text text-anchor="start" x="17.5" y="-507" font-family="Helvetica,sans-Serif" font-size="10.00">convertStateVecIntoInformation</text>
<text text-anchor="start" x="17.5" y="-496" font-family="Helvetica,sans-Serif" font-size="10.00">Space()</text>
<text text-anchor="start" x="4.5" y="-481" font-family="Helvetica,sans-Serif" font-size="10.00">+</text>
<text text-anchor="start" x="17.5" y="-481" font-family="Helvetica,sans-Serif" font-size="10.00">StateVecFromList()</text>
<text text-anchor="start" x="4.5" y="-466" font-family="Helvetica,sans-Serif" font-size="10.00">+</text>
<text text-anchor="start" x="17.5" y="-466" font-family="Helvetica,sans-Serif" font-size="10.00">StateCovFromList()</text>
<text text-anchor="start" x="4.5" y="-451" font-family="Helvetica,sans-Serif" font-size="10.00">+</text>
<text text-anchor="start" x="17.5" y="-451" font-family="Helvetica,sans-Serif" font-size="10.00">StateCovFromList()</text>
<text text-anchor="start" x="4.5" y="-436" font-family="Helvetica,sans-Serif" font-size="10.00">+</text>
<text text-anchor="start" x="17.5" y="-436" font-family="Helvetica,sans-Serif" font-size="10.00">FromLists()</text>
<text text-anchor="start" x="4.5" y="-421" font-family="Helvetica,sans-Serif" font-size="10.00">#</text>
<text text-anchor="start" x="17.5" y="-421" font-family="Helvetica,sans-Serif" font-size="10.00">ExtendedMotionModel()</text>
<text text-anchor="start" x="4.5" y="-406" font-family="Helvetica,sans-Serif" font-size="10.00">#</text>
<text text-anchor="start" x="17.5" y="-406" font-family="Helvetica,sans-Serif" font-size="10.00">ExtendedMotionModel()</text>
<text text-anchor="start" x="4.5" y="-391" font-family="Helvetica,sans-Serif" font-size="10.00">#</text>
<text text-anchor="start" x="17.5" y="-391" font-family="Helvetica,sans-Serif" font-size="10.00">operator=()</text>
<text text-anchor="start" x="4.5" y="-376" font-family="Helvetica,sans-Serif" font-size="10.00">#</text>
<text text-anchor="start" x="17.5" y="-376" font-family="Helvetica,sans-Serif" font-size="10.00">operator=()</text>
<text text-anchor="start" x="4.5" y="-361" font-family="Helvetica,sans-Serif" font-size="10.00">#</text>
<text text-anchor="start" x="17.5" y="-361" font-family="Helvetica,sans-Serif" font-size="10.00">ExtendedMotionModel()</text>
<polygon fill="#666666" stroke="#666666" points="0.5,-663 0.5,-663 177.5,-663 177.5,-663 0.5,-663"/>
<polygon fill="#666666" stroke="#666666" points="0.5,-648 0.5,-648 177.5,-648 177.5,-648 0.5,-648"/>
<polygon fill="none" stroke="#666666" points="0,-354 0,-702 177,-702 177,-354 0,-354"/>
</a>
</g>
</g>
<!-- Node2&#45;&gt;Node3 -->
<g id="edge2_Node000002_Node000003" class="edge">
<title>Node2&#45;&gt;Node3</title>
<g id="a_edge2_Node000002_Node000003"><a xlink:title=" ">
<path fill="none" stroke="#63b8ff" d="M88.5,-744.39C88.5,-731.45 88.5,-717.07 88.5,-702.05"/>
<polygon fill="none" stroke="#63b8ff" points="85,-744.45 88.5,-754.45 92,-744.45 85,-744.45"/>
</a>
</g>
</g>
<!-- Node7 -->
<g id="Node000007" class="node">
<title>Node7</title>
<g id="a_Node000007"><a xlink:href="classtracking_1_1motion_1_1ExtendedMotionModel.html" target="_top" xlink:title=" ">
<polygon fill="white" stroke="transparent" points="665,-713 450,-713 450,-343 665,-343 665,-713"/>
<text text-anchor="start" x="455.5" y="-701" font-family="Helvetica,sans-Serif" font-size="10.00">tracking::motion::Extended</text>
<text text-anchor="start" x="455.5" y="-690" font-family="Helvetica,sans-Serif" font-size="10.00">MotionModel&lt; MotionModelCA</text>
<text text-anchor="start" x="455.5" y="-679" font-family="Helvetica,sans-Serif" font-size="10.00">&lt; CovarianceMatrixPolicy_</text>
<text text-anchor="start" x="455.5" y="-668" font-family="Helvetica,sans-Serif" font-size="10.00"> &gt;, MotionModelTraits&lt; CovarianceMatrix</text>
<text text-anchor="start" x="498" y="-657" font-family="Helvetica,sans-Serif" font-size="10.00">Policy_, StateDefCA &gt; &gt;</text>
<text text-anchor="start" x="556" y="-642" font-family="Helvetica,sans-Serif" font-size="10.00"> </text>
<text text-anchor="start" x="464" y="-627" font-family="Helvetica,sans-Serif" font-size="10.00">+</text>
<text text-anchor="start" x="486.5" y="-627" font-family="Helvetica,sans-Serif" font-size="10.00">ExtendedMotionModel()</text>
<text text-anchor="start" x="464" y="-612" font-family="Helvetica,sans-Serif" font-size="10.00">+</text>
<text text-anchor="start" x="486.5" y="-612" font-family="Helvetica,sans-Serif" font-size="10.00">~ExtendedMotionModel()</text>
<text text-anchor="start" x="464" y="-597" font-family="Helvetica,sans-Serif" font-size="10.00">+</text>
<text text-anchor="start" x="486.5" y="-597" font-family="Helvetica,sans-Serif" font-size="10.00">getX()</text>
<text text-anchor="start" x="464" y="-582" font-family="Helvetica,sans-Serif" font-size="10.00">+</text>
<text text-anchor="start" x="486.5" y="-582" font-family="Helvetica,sans-Serif" font-size="10.00">getY()</text>
<text text-anchor="start" x="464" y="-567" font-family="Helvetica,sans-Serif" font-size="10.00">+</text>
<text text-anchor="start" x="486.5" y="-567" font-family="Helvetica,sans-Serif" font-size="10.00">invertCov()</text>
<text text-anchor="start" x="464" y="-552" font-family="Helvetica,sans-Serif" font-size="10.00">+</text>
<text text-anchor="start" x="486.5" y="-552" font-family="Helvetica,sans-Serif" font-size="10.00">predict()</text>
<text text-anchor="start" x="464" y="-537" font-family="Helvetica,sans-Serif" font-size="10.00">+</text>
<text text-anchor="start" x="486.5" y="-537" font-family="Helvetica,sans-Serif" font-size="10.00">predict()</text>
<text text-anchor="start" x="464" y="-522" font-family="Helvetica,sans-Serif" font-size="10.00">+</text>
<text text-anchor="start" x="486.5" y="-522" font-family="Helvetica,sans-Serif" font-size="10.00">convertStateVecIntoState</text>
<text text-anchor="start" x="486.5" y="-511" font-family="Helvetica,sans-Serif" font-size="10.00">Space()</text>
<text text-anchor="start" x="464" y="-496" font-family="Helvetica,sans-Serif" font-size="10.00">+</text>
<text text-anchor="start" x="486.5" y="-496" font-family="Helvetica,sans-Serif" font-size="10.00">convertStateVecIntoInformation</text>
<text text-anchor="start" x="486.5" y="-485" font-family="Helvetica,sans-Serif" font-size="10.00">Space()</text>
<text text-anchor="start" x="464" y="-470" font-family="Helvetica,sans-Serif" font-size="10.00">+</text>
<text text-anchor="start" x="486.5" y="-470" font-family="Helvetica,sans-Serif" font-size="10.00">StateVecFromList()</text>
<text text-anchor="start" x="464" y="-455" font-family="Helvetica,sans-Serif" font-size="10.00">+</text>
<text text-anchor="start" x="486.5" y="-455" font-family="Helvetica,sans-Serif" font-size="10.00">StateCovFromList()</text>
<text text-anchor="start" x="464" y="-440" font-family="Helvetica,sans-Serif" font-size="10.00">+</text>
<text text-anchor="start" x="486.5" y="-440" font-family="Helvetica,sans-Serif" font-size="10.00">StateCovFromList()</text>
<text text-anchor="start" x="464" y="-425" font-family="Helvetica,sans-Serif" font-size="10.00">+</text>
<text text-anchor="start" x="486.5" y="-425" font-family="Helvetica,sans-Serif" font-size="10.00">FromLists()</text>
<text text-anchor="start" x="464" y="-410" font-family="Helvetica,sans-Serif" font-size="10.00">#</text>
<text text-anchor="start" x="486.5" y="-410" font-family="Helvetica,sans-Serif" font-size="10.00">ExtendedMotionModel()</text>
<text text-anchor="start" x="464" y="-395" font-family="Helvetica,sans-Serif" font-size="10.00">#</text>
<text text-anchor="start" x="486.5" y="-395" font-family="Helvetica,sans-Serif" font-size="10.00">ExtendedMotionModel()</text>
<text text-anchor="start" x="464" y="-380" font-family="Helvetica,sans-Serif" font-size="10.00">#</text>
<text text-anchor="start" x="486.5" y="-380" font-family="Helvetica,sans-Serif" font-size="10.00">ExtendedMotionModel()</text>
<text text-anchor="start" x="464" y="-365" font-family="Helvetica,sans-Serif" font-size="10.00">#</text>
<text text-anchor="start" x="486.5" y="-365" font-family="Helvetica,sans-Serif" font-size="10.00">operator=()</text>
<text text-anchor="start" x="464" y="-350" font-family="Helvetica,sans-Serif" font-size="10.00">#</text>
<text text-anchor="start" x="486.5" y="-350" font-family="Helvetica,sans-Serif" font-size="10.00">operator=()</text>
<polygon fill="#666666" stroke="#666666" points="450.5,-652 450.5,-652 665.5,-652 665.5,-652 450.5,-652"/>
<polygon fill="#666666" stroke="#666666" points="450.5,-637 450.5,-637 665.5,-637 665.5,-637 450.5,-637"/>
<polygon fill="none" stroke="#666666" points="450,-343 450,-713 665,-713 665,-343 450,-343"/>
</a>
</g>
</g>
<!-- Node6&#45;&gt;Node7 -->
<g id="edge6_Node000006_Node000007" class="edge">
<title>Node6&#45;&gt;Node7</title>
<g id="a_edge6_Node000006_Node000007"><a xlink:title=" ">
<path fill="none" stroke="#63b8ff" d="M652.5,-750.67C647.61,-739.25 642.14,-726.5 636.38,-713.04"/>
<polygon fill="none" stroke="#63b8ff" points="649.32,-752.13 656.48,-759.94 655.75,-749.37 649.32,-752.13"/>
</a>
</g>
</g>
<!-- Node9 -->
<g id="Node000009" class="node">
<title>Node9</title>
<g id="a_Node000009"><a xlink:href="classtracking_1_1motion_1_1ExtendedMotionModel.html" target="_top" xlink:title=" ">
<polygon fill="white" stroke="transparent" points="898,-713 683,-713 683,-343 898,-343 898,-713"/>
<text text-anchor="start" x="688.5" y="-701" font-family="Helvetica,sans-Serif" font-size="10.00">tracking::motion::Extended</text>
<text text-anchor="start" x="688.5" y="-690" font-family="Helvetica,sans-Serif" font-size="10.00">MotionModel&lt; MotionModelCV</text>
<text text-anchor="start" x="688.5" y="-679" font-family="Helvetica,sans-Serif" font-size="10.00">&lt; CovarianceMatrixPolicy_</text>
<text text-anchor="start" x="688.5" y="-668" font-family="Helvetica,sans-Serif" font-size="10.00"> &gt;, MotionModelTraits&lt; CovarianceMatrix</text>
<text text-anchor="start" x="731" y="-657" font-family="Helvetica,sans-Serif" font-size="10.00">Policy_, StateDefCV &gt; &gt;</text>
<text text-anchor="start" x="789" y="-642" font-family="Helvetica,sans-Serif" font-size="10.00"> </text>
<text text-anchor="start" x="697" y="-627" font-family="Helvetica,sans-Serif" font-size="10.00">+</text>
<text text-anchor="start" x="719.5" y="-627" font-family="Helvetica,sans-Serif" font-size="10.00">ExtendedMotionModel()</text>
<text text-anchor="start" x="697" y="-612" font-family="Helvetica,sans-Serif" font-size="10.00">+</text>
<text text-anchor="start" x="719.5" y="-612" font-family="Helvetica,sans-Serif" font-size="10.00">~ExtendedMotionModel()</text>
<text text-anchor="start" x="697" y="-597" font-family="Helvetica,sans-Serif" font-size="10.00">+</text>
<text text-anchor="start" x="719.5" y="-597" font-family="Helvetica,sans-Serif" font-size="10.00">getX()</text>
<text text-anchor="start" x="697" y="-582" font-family="Helvetica,sans-Serif" font-size="10.00">+</text>
<text text-anchor="start" x="719.5" y="-582" font-family="Helvetica,sans-Serif" font-size="10.00">getY()</text>
<text text-anchor="start" x="697" y="-567" font-family="Helvetica,sans-Serif" font-size="10.00">+</text>
<text text-anchor="start" x="719.5" y="-567" font-family="Helvetica,sans-Serif" font-size="10.00">invertCov()</text>
<text text-anchor="start" x="697" y="-552" font-family="Helvetica,sans-Serif" font-size="10.00">+</text>
<text text-anchor="start" x="719.5" y="-552" font-family="Helvetica,sans-Serif" font-size="10.00">predict()</text>
<text text-anchor="start" x="697" y="-537" font-family="Helvetica,sans-Serif" font-size="10.00">+</text>
<text text-anchor="start" x="719.5" y="-537" font-family="Helvetica,sans-Serif" font-size="10.00">predict()</text>
<text text-anchor="start" x="697" y="-522" font-family="Helvetica,sans-Serif" font-size="10.00">+</text>
<text text-anchor="start" x="719.5" y="-522" font-family="Helvetica,sans-Serif" font-size="10.00">convertStateVecIntoState</text>
<text text-anchor="start" x="719.5" y="-511" font-family="Helvetica,sans-Serif" font-size="10.00">Space()</text>
<text text-anchor="start" x="697" y="-496" font-family="Helvetica,sans-Serif" font-size="10.00">+</text>
<text text-anchor="start" x="719.5" y="-496" font-family="Helvetica,sans-Serif" font-size="10.00">convertStateVecIntoInformation</text>
<text text-anchor="start" x="719.5" y="-485" font-family="Helvetica,sans-Serif" font-size="10.00">Space()</text>
<text text-anchor="start" x="697" y="-470" font-family="Helvetica,sans-Serif" font-size="10.00">+</text>
<text text-anchor="start" x="719.5" y="-470" font-family="Helvetica,sans-Serif" font-size="10.00">StateVecFromList()</text>
<text text-anchor="start" x="697" y="-455" font-family="Helvetica,sans-Serif" font-size="10.00">+</text>
<text text-anchor="start" x="719.5" y="-455" font-family="Helvetica,sans-Serif" font-size="10.00">StateCovFromList()</text>
<text text-anchor="start" x="697" y="-440" font-family="Helvetica,sans-Serif" font-size="10.00">+</text>
<text text-anchor="start" x="719.5" y="-440" font-family="Helvetica,sans-Serif" font-size="10.00">StateCovFromList()</text>
<text text-anchor="start" x="697" y="-425" font-family="Helvetica,sans-Serif" font-size="10.00">+</text>
<text text-anchor="start" x="719.5" y="-425" font-family="Helvetica,sans-Serif" font-size="10.00">FromLists()</text>
<text text-anchor="start" x="697" y="-410" font-family="Helvetica,sans-Serif" font-size="10.00">#</text>
<text text-anchor="start" x="719.5" y="-410" font-family="Helvetica,sans-Serif" font-size="10.00">ExtendedMotionModel()</text>
<text text-anchor="start" x="697" y="-395" font-family="Helvetica,sans-Serif" font-size="10.00">#</text>
<text text-anchor="start" x="719.5" y="-395" font-family="Helvetica,sans-Serif" font-size="10.00">ExtendedMotionModel()</text>
<text text-anchor="start" x="697" y="-380" font-family="Helvetica,sans-Serif" font-size="10.00">#</text>
<text text-anchor="start" x="719.5" y="-380" font-family="Helvetica,sans-Serif" font-size="10.00">ExtendedMotionModel()</text>
<text text-anchor="start" x="697" y="-365" font-family="Helvetica,sans-Serif" font-size="10.00">#</text>
<text text-anchor="start" x="719.5" y="-365" font-family="Helvetica,sans-Serif" font-size="10.00">operator=()</text>
<text text-anchor="start" x="697" y="-350" font-family="Helvetica,sans-Serif" font-size="10.00">#</text>
<text text-anchor="start" x="719.5" y="-350" font-family="Helvetica,sans-Serif" font-size="10.00">operator=()</text>
<polygon fill="#666666" stroke="#666666" points="683.5,-652 683.5,-652 898.5,-652 898.5,-652 683.5,-652"/>
<polygon fill="#666666" stroke="#666666" points="683.5,-637 683.5,-637 898.5,-637 898.5,-637 683.5,-637"/>
<polygon fill="none" stroke="#666666" points="683,-343 683,-713 898,-713 898,-343 683,-343"/>
</a>
</g>
</g>
<!-- Node6&#45;&gt;Node9 -->
<g id="edge8_Node000006_Node000009" class="edge">
<title>Node6&#45;&gt;Node9</title>
<g id="a_edge8_Node000006_Node000009"><a xlink:title=" ">
<path fill="none" stroke="#63b8ff" d="M696.31,-750.67C701.16,-739.25 706.58,-726.5 712.3,-713.04"/>
<polygon fill="none" stroke="#63b8ff" points="693.06,-749.37 692.37,-759.94 699.5,-752.11 693.06,-749.37"/>
</a>
</g>
</g>
<!-- Node8 -->
<g id="Node000008" class="node">
<title>Node8</title>
<g id="a_Node000008"><a xlink:href="classtracking_1_1motion_1_1TEST__REMOVE__FINAL.html" target="_top" xlink:title=" ">
<polygon fill="white" stroke="transparent" points="768,-307 579,-307 579,0 768,0 768,-307"/>
<text text-anchor="start" x="584.5" y="-294.5" font-family="Helvetica,sans-Serif" font-size="10.00">tracking::motion::TEST</text>
<text text-anchor="start" x="584.5" y="-283.5" font-family="Helvetica,sans-Serif" font-size="10.00">_REMOVE_FINAL&lt; CovarianceMatrix</text>
<text text-anchor="start" x="651" y="-272.5" font-family="Helvetica,sans-Serif" font-size="10.00">Policy_ &gt;</text>
<text text-anchor="start" x="595.5" y="-257.5" font-family="Helvetica,sans-Serif" font-size="10.00">+</text>
<text text-anchor="start" x="620.5" y="-257.5" font-family="Helvetica,sans-Serif" font-size="10.00">NUM_AUG_PROC_NOISE</text>
<text text-anchor="start" x="620.5" y="-246.5" font-family="Helvetica,sans-Serif" font-size="10.00">_VARIABLES</text>
<text text-anchor="start" x="595.5" y="-231.5" font-family="Helvetica,sans-Serif" font-size="10.00">+</text>
<text text-anchor="start" x="620.5" y="-231.5" font-family="Helvetica,sans-Serif" font-size="10.00">MotionModelCA()</text>
<text text-anchor="start" x="595.5" y="-216.5" font-family="Helvetica,sans-Serif" font-size="10.00">+</text>
<text text-anchor="start" x="620.5" y="-216.5" font-family="Helvetica,sans-Serif" font-size="10.00">MotionModelCA()</text>
<text text-anchor="start" x="595.5" y="-201.5" font-family="Helvetica,sans-Serif" font-size="10.00">+</text>
<text text-anchor="start" x="620.5" y="-201.5" font-family="Helvetica,sans-Serif" font-size="10.00">MotionModelCA()</text>
<text text-anchor="start" x="595.5" y="-186.5" font-family="Helvetica,sans-Serif" font-size="10.00">+</text>
<text text-anchor="start" x="620.5" y="-186.5" font-family="Helvetica,sans-Serif" font-size="10.00">operator=()</text>
<text text-anchor="start" x="595.5" y="-171.5" font-family="Helvetica,sans-Serif" font-size="10.00">+</text>
<text text-anchor="start" x="620.5" y="-171.5" font-family="Helvetica,sans-Serif" font-size="10.00">operator=()</text>
<text text-anchor="start" x="595.5" y="-156.5" font-family="Helvetica,sans-Serif" font-size="10.00">+</text>
<text text-anchor="start" x="620.5" y="-156.5" font-family="Helvetica,sans-Serif" font-size="10.00">~MotionModelCA()</text>
<text text-anchor="start" x="595.5" y="-141.5" font-family="Helvetica,sans-Serif" font-size="10.00">+</text>
<text text-anchor="start" x="620.5" y="-141.5" font-family="Helvetica,sans-Serif" font-size="10.00">getVx()</text>
<text text-anchor="start" x="595.5" y="-126.5" font-family="Helvetica,sans-Serif" font-size="10.00">+</text>
<text text-anchor="start" x="620.5" y="-126.5" font-family="Helvetica,sans-Serif" font-size="10.00">getVy()</text>
<text text-anchor="start" x="595.5" y="-111.5" font-family="Helvetica,sans-Serif" font-size="10.00">+</text>
<text text-anchor="start" x="620.5" y="-111.5" font-family="Helvetica,sans-Serif" font-size="10.00">getAx()</text>
<text text-anchor="start" x="595.5" y="-96.5" font-family="Helvetica,sans-Serif" font-size="10.00">+</text>
<text text-anchor="start" x="620.5" y="-96.5" font-family="Helvetica,sans-Serif" font-size="10.00">getAy()</text>
<text text-anchor="start" x="620.5" y="-81.5" font-family="Helvetica,sans-Serif" font-size="10.00">and 21 more...</text>
<text text-anchor="start" x="595.5" y="-66.5" font-family="Helvetica,sans-Serif" font-size="10.00">+</text>
<text text-anchor="start" x="620.5" y="-66.5" font-family="Helvetica,sans-Serif" font-size="10.00">computeQ()</text>
<text text-anchor="start" x="595.5" y="-51.5" font-family="Helvetica,sans-Serif" font-size="10.00">+</text>
<text text-anchor="start" x="620.5" y="-51.5" font-family="Helvetica,sans-Serif" font-size="10.00">computeG()</text>
<text text-anchor="start" x="595.5" y="-36.5" font-family="Helvetica,sans-Serif" font-size="10.00">+</text>
<text text-anchor="start" x="620.5" y="-36.5" font-family="Helvetica,sans-Serif" font-size="10.00">computeQ()</text>
<text text-anchor="start" x="595.5" y="-21.5" font-family="Helvetica,sans-Serif" font-size="10.00">+</text>
<text text-anchor="start" x="620.5" y="-21.5" font-family="Helvetica,sans-Serif" font-size="10.00">computeG()</text>
<text text-anchor="start" x="598" y="-6.5" font-family="Helvetica,sans-Serif" font-size="10.00">&#45;</text>
<text text-anchor="start" x="620.5" y="-6.5" font-family="Helvetica,sans-Serif" font-size="10.00">MotionModelCA()</text>
<polygon fill="#666666" stroke="#666666" points="579.5,-267.5 579.5,-267.5 768.5,-267.5 768.5,-267.5 579.5,-267.5"/>
<polygon fill="#666666" stroke="#666666" points="579.5,-241.5 579.5,-241.5 618.5,-241.5 618.5,-241.5 579.5,-241.5"/>
<polygon fill="#666666" stroke="#666666" points="618.5,-241.5 618.5,-241.5 768.5,-241.5 768.5,-241.5 618.5,-241.5"/>
<polygon fill="none" stroke="#666666" points="579,0 579,-307 768,-307 768,0 579,0"/>
</a>
</g>
</g>
<!-- Node7&#45;&gt;Node8 -->
<g id="edge7_Node000007_Node000008" class="edge">
<title>Node7&#45;&gt;Node8</title>
<g id="a_edge7_Node000007_Node000008"><a xlink:title=" ">
<path fill="none" stroke="#63b8ff" d="M617.8,-333.37C620.54,-324.56 623.28,-315.77 625.99,-307.08"/>
<polygon fill="none" stroke="#63b8ff" points="614.45,-332.34 614.82,-342.93 621.14,-334.43 614.45,-332.34"/>
</a>
</g>
</g>
<!-- Node9&#45;&gt;Node8 -->
<g id="edge9_Node000009_Node000008" class="edge">
<title>Node9&#45;&gt;Node8</title>
<g id="a_edge9_Node000009_Node000008"><a xlink:title=" ">
<path fill="none" stroke="#63b8ff" d="M729.68,-333.37C726.91,-324.56 724.15,-315.77 721.42,-307.08"/>
<polygon fill="none" stroke="#63b8ff" points="726.35,-334.44 732.69,-342.93 733.03,-332.34 726.35,-334.44"/>
</a>
</g>
</g>
</g>
</svg>
