<?xml version="1.0" encoding="UTF-8" standalone="no"?>
<!DOCTYPE svg PUBLIC "-//W3C//DTD SVG 1.1//EN"
 "http://www.w3.org/Graphics/SVG/1.1/DTD/svg11.dtd">
<!-- Generated by graphviz version 2.43.0 (0)
 -->
<!-- Title: tracking::math::ModifiedGramSchmidt::run Pages: 1 -->
<svg width="514pt" height="86pt"
 viewBox="0.00 0.00 514.00 86.00" xmlns="http://www.w3.org/2000/svg" xmlns:xlink="http://www.w3.org/1999/xlink">
<g id="graph0" class="graph" transform="scale(1 1) rotate(0) translate(4 82)">
<title>tracking::math::ModifiedGramSchmidt::run</title>
<!-- Node1 -->
<g id="Node000001" class="node">
<title>Node1</title>
<g id="a_Node000001"><a xlink:title="Computes UDU factorization of Phi matrix.">
<polygon fill="#999999" stroke="#666666" points="506,-54 370,-54 370,-24 506,-24 506,-54"/>
<text text-anchor="start" x="378" y="-42" font-family="Helvetica,sans-Serif" font-size="10.00">tracking::math::Modified</text>
<text text-anchor="middle" x="438" y="-31" font-family="Helvetica,sans-Serif" font-size="10.00">GramSchmidt::run</text>
</a>
</g>
</g>
<!-- Node2 -->
<g id="Node000002" class="node">
<title>Node2</title>
<g id="a_Node000002"><a xlink:href="classtracking_1_1math_1_1CovarianceMatrixFactored.html#ac25112b654af737bc4d1eb973cd72b86" target="_top" xlink:title="Compute A*P*A^T in&#45;place (factored covariance propagation)">
<polygon fill="white" stroke="#666666" points="334,-78 185,-78 185,-48 334,-48 334,-78"/>
<text text-anchor="start" x="193" y="-66" font-family="Helvetica,sans-Serif" font-size="10.00">tracking::math::Covariance</text>
<text text-anchor="middle" x="259.5" y="-55" font-family="Helvetica,sans-Serif" font-size="10.00">MatrixFactored::apaT</text>
</a>
</g>
</g>
<!-- Node1&#45;&gt;Node2 -->
<g id="edge1_Node000001_Node000002" class="edge">
<title>Node1&#45;&gt;Node2</title>
<g id="a_edge1_Node000001_Node000002"><a xlink:title=" ">
<path fill="none" stroke="#63b8ff" d="M359.8,-49.5C351.24,-50.66 342.53,-51.85 334.02,-53"/>
<polygon fill="#63b8ff" stroke="#63b8ff" points="360.33,-52.96 369.77,-48.14 359.39,-46.02 360.33,-52.96"/>
</a>
</g>
</g>
<!-- Node4 -->
<g id="Node000004" class="node">
<title>Node4</title>
<g id="a_Node000004"><a xlink:href="classtracking_1_1math_1_1CovarianceMatrixFactored.html#a98cfcb7607af2ad5a9066731465abc6b" target="_top" xlink:title="Thornton update: Φ*P*Φ^T + G*Q*G^T (Kalman prediction)">
<polygon fill="white" stroke="#666666" points="334,-30 185,-30 185,0 334,0 334,-30"/>
<text text-anchor="start" x="193" y="-18" font-family="Helvetica,sans-Serif" font-size="10.00">tracking::math::Covariance</text>
<text text-anchor="middle" x="259.5" y="-7" font-family="Helvetica,sans-Serif" font-size="10.00">MatrixFactored::thornton</text>
</a>
</g>
</g>
<!-- Node1&#45;&gt;Node4 -->
<g id="edge3_Node000001_Node000004" class="edge">
<title>Node1&#45;&gt;Node4</title>
<g id="a_edge3_Node000001_Node000004"><a xlink:title=" ">
<path fill="none" stroke="#63b8ff" d="M359.8,-28.5C351.24,-27.34 342.53,-26.15 334.02,-25"/>
<polygon fill="#63b8ff" stroke="#63b8ff" points="359.39,-31.98 369.77,-29.86 360.33,-25.04 359.39,-31.98"/>
</a>
</g>
</g>
<!-- Node3 -->
<g id="Node000003" class="node">
<title>Node3</title>
<g id="a_Node000003"><a xlink:href="classtracking_1_1math_1_1CovarianceMatrixFactored.html#a6fcc69cb404ce1957bffb9f575c814c8" target="_top" xlink:title="Compute A*P*A^T (factored covariance propagation)">
<polygon fill="white" stroke="#666666" points="149,-78 0,-78 0,-48 149,-48 149,-78"/>
<text text-anchor="start" x="8" y="-66" font-family="Helvetica,sans-Serif" font-size="10.00">tracking::math::Covariance</text>
<text text-anchor="middle" x="74.5" y="-55" font-family="Helvetica,sans-Serif" font-size="10.00">MatrixFactored::apaT</text>
</a>
</g>
</g>
<!-- Node2&#45;&gt;Node3 -->
<g id="edge2_Node000002_Node000003" class="edge">
<title>Node2&#45;&gt;Node3</title>
<g id="a_edge2_Node000002_Node000003"><a xlink:title=" ">
<path fill="none" stroke="#63b8ff" d="M174.61,-63C166.16,-63 157.62,-63 149.29,-63"/>
<polygon fill="#63b8ff" stroke="#63b8ff" points="174.86,-66.5 184.86,-63 174.86,-59.5 174.86,-66.5"/>
</a>
</g>
</g>
</g>
</svg>
