<?xml version="1.0" encoding="UTF-8" standalone="no"?>
<!DOCTYPE svg PUBLIC "-//W3C//DTD SVG 1.1//EN"
 "http://www.w3.org/Graphics/SVG/1.1/DTD/svg11.dtd">
<!-- Generated by graphviz version 2.43.0 (0)
 -->
<!-- Title: tracking::filter::InformationFilter&lt; CovarianceMatrixPolicy_ &gt; Pages: 1 -->
<svg width="187pt" height="175pt"
 viewBox="0.00 0.00 187.00 175.00" xmlns="http://www.w3.org/2000/svg" xmlns:xlink="http://www.w3.org/1999/xlink">
<g id="graph0" class="graph" transform="scale(1 1) rotate(0) translate(4 171)">
<title>tracking::filter::InformationFilter&lt; CovarianceMatrixPolicy_ &gt;</title>
<!-- Node1 -->
<g id="Node000001" class="node">
<title>Node1</title>
<g id="a_Node000001"><a xlink:title=" ">
<polygon fill="#999999" stroke="transparent" points="179,-60 0,-60 0,0 179,0 179,-60"/>
<text text-anchor="start" x="5.5" y="-48" font-family="Helvetica,sans-Serif" font-size="10.00">tracking::filter::Information</text>
<text text-anchor="start" x="5.5" y="-37" font-family="Helvetica,sans-Serif" font-size="10.00">Filter&lt; CovarianceMatrixPolicy_ &gt;</text>
<text text-anchor="start" x="88" y="-22" font-family="Helvetica,sans-Serif" font-size="10.00"> </text>
<text text-anchor="start" x="19.5" y="-7" font-family="Helvetica,sans-Serif" font-size="10.00">+</text>
<text text-anchor="start" x="47.5" y="-7" font-family="Helvetica,sans-Serif" font-size="10.00">predictCovariance()</text>
<polygon fill="#666666" stroke="#666666" points="0.5,-32 0.5,-32 179.5,-32 179.5,-32 0.5,-32"/>
<polygon fill="#666666" stroke="#666666" points="0.5,-17 0.5,-17 179.5,-17 179.5,-17 0.5,-17"/>
<polygon fill="none" stroke="#666666" points="0,0 0,-60 179,-60 179,0 0,0"/>
</a>
</g>
</g>
<!-- Node2 -->
<g id="Node000002" class="node">
<title>Node2</title>
<g id="a_Node000002"><a xlink:href="structtracking_1_1math_1_1contract_1_1CovarianceMatrixPolicyIntf.html" target="_top" xlink:title=" ">
<polygon fill="white" stroke="transparent" points="170,-167 9,-167 9,-96 170,-96 170,-167"/>
<text text-anchor="start" x="18" y="-154.5" font-family="Helvetica,sans-Serif" font-size="10.00">tracking::math::contract</text>
<text text-anchor="start" x="18" y="-143.5" font-family="Helvetica,sans-Serif" font-size="10.00">::CovarianceMatrixPolicyIntf</text>
<text text-anchor="start" x="18" y="-132.5" font-family="Helvetica,sans-Serif" font-size="10.00">&lt; CovarianceMatrixPolicy_ &gt;</text>
<text text-anchor="start" x="88" y="-117.5" font-family="Helvetica,sans-Serif" font-size="10.00"> </text>
<text text-anchor="start" x="13.5" y="-102.5" font-family="Helvetica,sans-Serif" font-size="10.00">+</text>
<text text-anchor="start" x="26.5" y="-102.5" font-family="Helvetica,sans-Serif" font-size="10.00">CovarianceMatrixPolicyIntf()</text>
<polygon fill="#666666" stroke="#666666" points="9.5,-127.5 9.5,-127.5 170.5,-127.5 170.5,-127.5 9.5,-127.5"/>
<polygon fill="#666666" stroke="#666666" points="9.5,-112.5 9.5,-112.5 170.5,-112.5 170.5,-112.5 9.5,-112.5"/>
<polygon fill="none" stroke="#666666" points="9,-96 9,-167 170,-167 170,-96 9,-96"/>
</a>
</g>
</g>
<!-- Node2&#45;&gt;Node1 -->
<g id="edge1_Node000001_Node000002" class="edge">
<title>Node2&#45;&gt;Node1</title>
<g id="a_edge1_Node000001_Node000002"><a xlink:title=" ">
<path fill="none" stroke="#63b8ff" d="M89.5,-85.9C89.5,-77.17 89.5,-68.24 89.5,-60.17"/>
<polygon fill="none" stroke="#63b8ff" points="86,-85.98 89.5,-95.98 93,-85.98 86,-85.98"/>
</a>
</g>
</g>
</g>
</svg>
