<?xml version="1.0" encoding="UTF-8" standalone="no"?>
<!DOCTYPE svg PUBLIC "-//W3C//DTD SVG 1.1//EN"
 "http://www.w3.org/Graphics/SVG/1.1/DTD/svg11.dtd">
<!-- Generated by graphviz version 2.43.0 (0)
 -->
<!-- Title: tracking::math::CovarianceMatrixFull::Identity Pages: 1 -->
<svg width="541pt" height="98pt"
 viewBox="0.00 0.00 541.00 97.50" xmlns="http://www.w3.org/2000/svg" xmlns:xlink="http://www.w3.org/1999/xlink">
<g id="graph0" class="graph" transform="scale(1 1) rotate(0) translate(4 93.5)">
<title>tracking::math::CovarianceMatrixFull::Identity</title>
<!-- Node1 -->
<g id="Node000001" class="node">
<title>Node1</title>
<g id="a_Node000001"><a xlink:title="Construct an Identity matrix.">
<polygon fill="#999999" stroke="#666666" points="533,-57 384,-57 384,-27 533,-27 533,-57"/>
<text text-anchor="start" x="392" y="-45" font-family="Helvetica,sans-Serif" font-size="10.00">tracking::math::Covariance</text>
<text text-anchor="middle" x="458.5" y="-34" font-family="Helvetica,sans-Serif" font-size="10.00">MatrixFull::Identity</text>
</a>
</g>
</g>
<!-- Node2 -->
<g id="Node000002" class="node">
<title>Node2</title>
<g id="a_Node000002"><a xlink:href="classtracking_1_1math_1_1CovarianceMatrixFull.html#a3ca0f4a537a5362a74ef765ef46c1986" target="_top" xlink:title="Calculates the matrix inverse using Cholesky decomposition.">
<polygon fill="white" stroke="#666666" points="348,-57 199,-57 199,-27 348,-27 348,-57"/>
<text text-anchor="start" x="207" y="-45" font-family="Helvetica,sans-Serif" font-size="10.00">tracking::math::Covariance</text>
<text text-anchor="middle" x="273.5" y="-34" font-family="Helvetica,sans-Serif" font-size="10.00">MatrixFull::inverse</text>
</a>
</g>
</g>
<!-- Node1&#45;&gt;Node2 -->
<g id="edge1_Node000001_Node000002" class="edge">
<title>Node1&#45;&gt;Node2</title>
<g id="a_edge1_Node000001_Node000002"><a xlink:title=" ">
<path fill="none" stroke="#63b8ff" d="M373.61,-42C365.16,-42 356.62,-42 348.29,-42"/>
<polygon fill="#63b8ff" stroke="#63b8ff" points="373.86,-45.5 383.86,-42 373.86,-38.5 373.86,-45.5"/>
</a>
</g>
</g>
<!-- Node3 -->
<g id="Node000003" class="node">
<title>Node3</title>
<g id="a_Node000003"><a xlink:href="classtracking_1_1math_1_1CovarianceMatrixFactored.html#acadfdd5893de13e8177427e3cf1b7784" target="_top" xlink:title="Compute inverse as full covariance matrix.">
<polygon fill="white" stroke="#666666" points="156,-89.5 7,-89.5 7,-48.5 156,-48.5 156,-89.5"/>
<text text-anchor="start" x="15" y="-77.5" font-family="Helvetica,sans-Serif" font-size="10.00">tracking::math::Covariance</text>
<text text-anchor="start" x="15" y="-66.5" font-family="Helvetica,sans-Serif" font-size="10.00">MatrixFactored::composed</text>
<text text-anchor="middle" x="81.5" y="-55.5" font-family="Helvetica,sans-Serif" font-size="10.00">_inverse</text>
</a>
</g>
</g>
<!-- Node2&#45;&gt;Node3 -->
<g id="edge2_Node000002_Node000003" class="edge">
<title>Node2&#45;&gt;Node3</title>
<g id="a_edge2_Node000002_Node000003"><a xlink:title=" ">
<path fill="none" stroke="#63b8ff" d="M188.85,-53.89C177.97,-55.43 166.89,-57.01 156.19,-58.53"/>
<polygon fill="#63b8ff" stroke="#63b8ff" points="189.36,-57.35 198.77,-52.48 188.38,-50.42 189.36,-57.35"/>
</a>
</g>
</g>
<!-- Node4 -->
<g id="Node000004" class="node">
<title>Node4</title>
<g id="a_Node000004"><a xlink:href="classtracking_1_1math_1_1CovarianceMatrixFull.html#a2b6eac9001311d011d12a2ce79706938" target="_top" xlink:title="Compute inverse as full covariance matrix.">
<polygon fill="white" stroke="#666666" points="163,-30 0,-30 0,0 163,0 163,-30"/>
<text text-anchor="start" x="8" y="-18" font-family="Helvetica,sans-Serif" font-size="10.00">tracking::math::Covariance</text>
<text text-anchor="middle" x="81.5" y="-7" font-family="Helvetica,sans-Serif" font-size="10.00">MatrixFull::composed_inverse</text>
</a>
</g>
</g>
<!-- Node2&#45;&gt;Node4 -->
<g id="edge3_Node000002_Node000004" class="edge">
<title>Node2&#45;&gt;Node4</title>
<g id="a_edge3_Node000002_Node000004"><a xlink:title=" ">
<path fill="none" stroke="#63b8ff" d="M188.82,-30.11C180.28,-28.9 171.62,-27.66 163.12,-26.46"/>
<polygon fill="#63b8ff" stroke="#63b8ff" points="188.38,-33.58 198.77,-31.52 189.36,-26.65 188.38,-33.58"/>
</a>
</g>
</g>
</g>
</svg>
