<?xml version="1.0" encoding="UTF-8" standalone="no"?>
<!DOCTYPE svg PUBLIC "-//W3C//DTD SVG 1.1//EN"
 "http://www.w3.org/Graphics/SVG/1.1/DTD/svg11.dtd">
<!-- Generated by graphviz version 2.43.0 (0)
 -->
<!-- Title: tracking::math::Vector::at_unsafe Pages: 1 -->
<!--zoomable 668 -->

<svg id="main" version="1.1" xmlns="http://www.w3.org/2000/svg" xmlns:xlink="http://www.w3.org/1999/xlink" xml:space="preserve" onload="init(evt)">
<style type="text/css"><![CDATA[
.node, .edge {opacity: 0.7;}
.node.selected, .edge.selected {opacity: 1;}
.edge:hover path { stroke: red; }
.edge:hover polygon { stroke: red; fill: red; }
]]></style>

<defs>
  <circle id="rim" cx="0" cy="0" r="7"/>
  <circle id="rim2" cx="0" cy="0" r="3.5"/>
  <g id="zoomPlus">
    <use xlink:href="#rim" fill="#404040"><set attributeName="fill" to="#808080" begin="zoomplus.mouseover" end="zoomplus.mouseout"/></use>
    <path d="M-4,0h8M0,-4v8" fill="none" stroke="white" stroke-width="1.5" pointer-events="none"/>
  </g>
  <g id="zoomMin">
    <use xlink:href="#rim" fill="#404040"><set attributeName="fill" to="#808080" begin="zoomminus.mouseover" end="zoomminus.mouseout"/></use>
    <path d="M-4,0h8" fill="none" stroke="white" stroke-width="1.5" pointer-events="none"/>
  </g>
  <g id="arrowUp" transform="translate(30 24)">
    <use xlink:href="#rim"/>
    <path pointer-events="none" fill="none" stroke="white" stroke-width="1.5" d="M0,-3.0v7 M-2.5,-0.5L0,-3.0L2.5,-0.5"/>
  </g>
  <g id="arrowRight" transform="rotate(90) translate(36 -43)">
    <use xlink:href="#rim"/>
    <path pointer-events="none" fill="none" stroke="white" stroke-width="1.5" d="M0,-3.0v7 M-2.5,-0.5L0,-3.0L2.5,-0.5"/>
  </g>
  <g id="arrowDown" transform="rotate(180) translate(-30 -48)">
    <use xlink:href="#rim"/>
    <path pointer-events="none" fill="none" stroke="white" stroke-width="1.5" d="M0,-3.0v7 M-2.5,-0.5L0,-3.0L2.5,-0.5"/>
  </g>
  <g id="arrowLeft" transform="rotate(270) translate(-36 17)">
    <use xlink:href="#rim"/>
    <path pointer-events="none" fill="none" stroke="white" stroke-width="1.5" d="M0,-3.0v7 M-2.5,-0.5L0,-3.0L2.5,-0.5"/>
  </g>
  <g id="resetDef">
    <use xlink:href="#rim2" fill="#404040"><set attributeName="fill" to="#808080" begin="reset.mouseover" end="reset.mouseout"/></use>
  </g>
</defs>
<script type="application/ecmascript">
var viewWidth = 545;
var viewHeight = 668;
var sectionId = 'dynsection-3';
</script>
<script type="application/ecmascript" xlink:href="svg.min.js"/>
<svg id="graph" class="graph">
<g id="viewport">
<title>tracking::math::Vector::at_unsafe</title>
<!-- Node1 -->
<g id="Node000001" class="node">
<title>Node1</title>
<g id="a_Node000001"><a xlink:title="Element read&#45;only access to a scalar vector value (unchecked)">
<polygon fill="#999999" stroke="#666666" points="537,-345 412,-345 412,-315 537,-315 537,-345"/>
<text text-anchor="start" x="420" y="-333" font-family="Helvetica,sans-Serif" font-size="10.00">tracking::math::Vector</text>
<text text-anchor="middle" x="474.5" y="-322" font-family="Helvetica,sans-Serif" font-size="10.00">::at_unsafe</text>
</a>
</g>
</g>
<!-- Node2 -->
<g id="Node000002" class="node">
<title>Node2</title>
<g id="a_Node000002"><a xlink:href="classtracking_1_1math_1_1CovarianceMatrixFactored.html#a8f7277bd2b2dbba73979c997b7bce166" target="_top" xlink:title="Unsafe element read&#45;only access.">
<polygon fill="white" stroke="#666666" points="359.5,-660 210.5,-660 210.5,-630 359.5,-630 359.5,-660"/>
<text text-anchor="start" x="218.5" y="-648" font-family="Helvetica,sans-Serif" font-size="10.00">tracking::math::Covariance</text>
<text text-anchor="middle" x="285" y="-637" font-family="Helvetica,sans-Serif" font-size="10.00">MatrixFactored::at_unsafe</text>
</a>
</g>
</g>
<!-- Node1&#45;&gt;Node2 -->
<g id="edge1_Node000001_Node000002" class="edge">
<title>Node1&#45;&gt;Node2</title>
<g id="a_edge1_Node000001_Node000002"><a xlink:title=" ">
<path fill="none" stroke="#63b8ff" d="M472.68,-355.47C469.44,-411.9 453.55,-548.16 376,-621 371.17,-625.54 365.57,-629.24 359.59,-632.25"/>
<polygon fill="#63b8ff" stroke="#63b8ff" points="476.19,-355.45 473.17,-345.3 469.19,-355.12 476.19,-355.45"/>
</a>
</g>
</g>
<!-- Node3 -->
<g id="Node000003" class="node">
<title>Node3</title>
<g id="a_Node000003"><a xlink:href="classtracking_1_1env_1_1EgoMotion.html#a241a57ddc4cd1ab0d7daa7b157a7d8f9" target="_top" xlink:title="Calculate displacement vector.">
<polygon fill="white" stroke="#666666" points="355,-612 215,-612 215,-582 355,-582 355,-612"/>
<text text-anchor="start" x="223" y="-600" font-family="Helvetica,sans-Serif" font-size="10.00">tracking::env::EgoMotion</text>
<text text-anchor="middle" x="285" y="-589" font-family="Helvetica,sans-Serif" font-size="10.00">::calcDisplacementVector</text>
</a>
</g>
</g>
<!-- Node1&#45;&gt;Node3 -->
<g id="edge2_Node000001_Node000003" class="edge">
<title>Node1&#45;&gt;Node3</title>
<g id="a_edge2_Node000001_Node000003"><a xlink:title=" ">
<path fill="none" stroke="#63b8ff" d="M470.76,-355.33C464.04,-404.78 442.12,-514.43 376,-573 369.95,-578.36 362.83,-582.54 355.28,-585.8"/>
<polygon fill="#63b8ff" stroke="#63b8ff" points="474.26,-355.55 472.04,-345.19 467.32,-354.68 474.26,-355.55"/>
</a>
</g>
</g>
<!-- Node4 -->
<g id="Node000004" class="node">
<title>Node4</title>
<g id="a_Node000004"><a xlink:href="namespacetracking_1_1filter_1_1detail.html#a7a50ffad7efca5cfa8f70e01c5a31111" target="_top" xlink:title="Decorrelate a measurement for sequential (scalar) processing.">
<polygon fill="white" stroke="#666666" points="358,-564 212,-564 212,-534 358,-534 358,-564"/>
<text text-anchor="start" x="220" y="-552" font-family="Helvetica,sans-Serif" font-size="10.00">tracking::filter::detail</text>
<text text-anchor="middle" x="285" y="-541" font-family="Helvetica,sans-Serif" font-size="10.00">::decorrelateMeasurement</text>
</a>
</g>
</g>
<!-- Node1&#45;&gt;Node4 -->
<g id="edge3_Node000001_Node000004" class="edge">
<title>Node1&#45;&gt;Node4</title>
<g id="a_edge3_Node000001_Node000004"><a xlink:title=" ">
<path fill="none" stroke="#63b8ff" d="M468.06,-354.98C457.66,-396.66 430.92,-480.23 376,-525 370.61,-529.39 364.49,-532.99 358.04,-535.93"/>
<polygon fill="#63b8ff" stroke="#63b8ff" points="471.5,-355.64 470.41,-345.1 464.69,-354.02 471.5,-355.64"/>
</a>
</g>
</g>
<!-- Node5 -->
<g id="Node000005" class="node">
<title>Node5</title>
<g id="a_Node000005"><a xlink:href="namespacetracking_1_1math.html#a5da1defd9816130013342221228abf76" target="_top" xlink:title="Multiply a matrix by a column view.">
<polygon fill="white" stroke="#666666" points="355,-515.5 215,-515.5 215,-496.5 355,-496.5 355,-515.5"/>
<text text-anchor="middle" x="285" y="-503.5" font-family="Helvetica,sans-Serif" font-size="10.00">tracking::math::operator*</text>
</a>
</g>
</g>
<!-- Node1&#45;&gt;Node5 -->
<g id="edge4_Node000001_Node000005" class="edge">
<title>Node1&#45;&gt;Node5</title>
<g id="a_edge4_Node000001_Node000005"><a xlink:title=" ">
<path fill="none" stroke="#63b8ff" d="M465.46,-354.62C452.55,-390.07 423.69,-454.84 376,-488 369.72,-492.37 362.63,-495.73 355.26,-498.31"/>
<polygon fill="#63b8ff" stroke="#63b8ff" points="468.82,-355.64 468.82,-345.04 462.21,-353.32 468.82,-355.64"/>
</a>
</g>
</g>
<!-- Node6 -->
<g id="Node000006" class="node">
<title>Node6</title>
<g id="a_Node000006"><a xlink:href="namespacetracking_1_1math.html#a82f9afc8296b216c9bbecf27a0621773" target="_top" xlink:title="Specialization of operator&lt;&lt; for Vector.">
<polygon fill="white" stroke="#666666" points="361,-478.5 209,-478.5 209,-459.5 361,-459.5 361,-478.5"/>
<text text-anchor="middle" x="285" y="-466.5" font-family="Helvetica,sans-Serif" font-size="10.00">tracking::math::operator&lt;&lt;</text>
</a>
</g>
</g>
<!-- Node1&#45;&gt;Node6 -->
<g id="edge5_Node000001_Node000006" class="edge">
<title>Node1&#45;&gt;Node6</title>
<g id="a_edge5_Node000001_Node000006"><a xlink:title=" ">
<path fill="none" stroke="#63b8ff" d="M460.55,-354.37C444.51,-382.07 414.53,-426.47 376,-450 369.73,-453.83 362.81,-456.9 355.67,-459.35"/>
<polygon fill="#63b8ff" stroke="#63b8ff" points="463.78,-355.77 465.63,-345.33 457.68,-352.34 463.78,-355.77"/>
</a>
</g>
</g>
<!-- Node7 -->
<g id="Node000007" class="node">
<title>Node7</title>
<g id="a_Node000007"><a xlink:href="classtracking_1_1motion_1_1StateMem.html#a077e9c366b6f857261ba097dc8dc0129" target="_top" xlink:title="Write access to indexed element of the state vector.">
<polygon fill="white" stroke="#666666" points="361.5,-441 208.5,-441 208.5,-411 361.5,-411 361.5,-441"/>
<text text-anchor="start" x="216.5" y="-429" font-family="Helvetica,sans-Serif" font-size="10.00">tracking::motion::StateMem</text>
<text text-anchor="middle" x="285" y="-418" font-family="Helvetica,sans-Serif" font-size="10.00">::operator[]</text>
</a>
</g>
</g>
<!-- Node1&#45;&gt;Node7 -->
<g id="edge6_Node000001_Node000007" class="edge">
<title>Node1&#45;&gt;Node7</title>
<g id="a_edge6_Node000001_Node000007"><a xlink:title=" ">
<path fill="none" stroke="#63b8ff" d="M449.42,-351.83C430.64,-367.81 403.26,-388.89 376,-402 369.01,-405.36 361.47,-408.31 353.84,-410.88"/>
<polygon fill="#63b8ff" stroke="#63b8ff" points="451.9,-354.32 457.16,-345.12 447.31,-349.03 451.9,-354.32"/>
</a>
</g>
</g>
<!-- Node8 -->
<g id="Node000008" class="node">
<title>Node8</title>
<g id="a_Node000008"><a xlink:href="classtracking_1_1motion_1_1StateMem.html#aeb336ba987a66954371c5738ff1abb68" target="_top" xlink:title="Read access to indexed element of the state vector.">
<polygon fill="white" stroke="#666666" points="361.5,-393 208.5,-393 208.5,-363 361.5,-363 361.5,-393"/>
<text text-anchor="start" x="216.5" y="-381" font-family="Helvetica,sans-Serif" font-size="10.00">tracking::motion::StateMem</text>
<text text-anchor="middle" x="285" y="-370" font-family="Helvetica,sans-Serif" font-size="10.00">::operator[]</text>
</a>
</g>
</g>
<!-- Node1&#45;&gt;Node8 -->
<g id="edge7_Node000001_Node000008" class="edge">
<title>Node1&#45;&gt;Node8</title>
<g id="a_edge7_Node000001_Node000008"><a xlink:title=" ">
<path fill="none" stroke="#63b8ff" d="M404.83,-347.58C385.06,-352.64 363.7,-358.11 344.6,-363"/>
<polygon fill="#63b8ff" stroke="#63b8ff" points="405.87,-350.93 414.69,-345.06 404.13,-344.15 405.87,-350.93"/>
</a>
</g>
</g>
<!-- Node9 -->
<g id="Node000009" class="node">
<title>Node9</title>
<g id="a_Node000009"><a xlink:href="classtracking_1_1math_1_1CovarianceMatrixFull.html#a34cd544de76b4730f4ce492e33de2b7f" target="_top" xlink:title="Rank&#45;1 update: P ± c*x*x^T.">
<polygon fill="white" stroke="#666666" points="359.5,-345 210.5,-345 210.5,-315 359.5,-315 359.5,-345"/>
<text text-anchor="start" x="218.5" y="-333" font-family="Helvetica,sans-Serif" font-size="10.00">tracking::math::Covariance</text>
<text text-anchor="middle" x="285" y="-322" font-family="Helvetica,sans-Serif" font-size="10.00">MatrixFull::rank1Update</text>
</a>
</g>
</g>
<!-- Node1&#45;&gt;Node9 -->
<g id="edge8_Node000001_Node000009" class="edge">
<title>Node1&#45;&gt;Node9</title>
<g id="a_edge8_Node000001_Node000009"><a xlink:title=" ">
<path fill="none" stroke="#63b8ff" d="M401.53,-330C387.85,-330 373.51,-330 359.77,-330"/>
<polygon fill="#63b8ff" stroke="#63b8ff" points="401.85,-333.5 411.85,-330 401.85,-326.5 401.85,-333.5"/>
</a>
</g>
</g>
<!-- Node10 -->
<g id="Node000010" class="node">
<title>Node10</title>
<g id="a_Node000010"><a xlink:href="classtracking_1_1math_1_1Rank1Update.html#a335f5f6a2e52510210adae871025324a" target="_top" xlink:title="Performs rank&#45;1 update on UDU factorization (upper triangular form)">
<polygon fill="white" stroke="#666666" points="376,-296.5 194,-296.5 194,-277.5 376,-277.5 376,-296.5"/>
<text text-anchor="middle" x="285" y="-284.5" font-family="Helvetica,sans-Serif" font-size="10.00">tracking::math::Rank1Update::run</text>
</a>
</g>
</g>
<!-- Node1&#45;&gt;Node10 -->
<g id="edge9_Node000001_Node000010" class="edge">
<title>Node1&#45;&gt;Node10</title>
<g id="a_edge9_Node000001_Node000010"><a xlink:title=" ">
<path fill="none" stroke="#63b8ff" d="M404.03,-312.6C394.62,-310.33 385.08,-308.08 376,-306 361.99,-302.8 346.71,-299.5 332.78,-296.57"/>
<polygon fill="#63b8ff" stroke="#63b8ff" points="403.22,-316 413.76,-314.96 404.87,-309.2 403.22,-316"/>
</a>
</g>
</g>
<!-- Node12 -->
<g id="Node000012" class="node">
<title>Node12</title>
<g id="a_Node000012"><a xlink:href="classtracking_1_1math_1_1Rank1Update.html#a96bda483dc5a922f919304d2e0412025" target="_top" xlink:title="Performs rank&#45;1 update on LDL factorization (lower triangular form)">
<polygon fill="white" stroke="#666666" points="376,-259.5 194,-259.5 194,-240.5 376,-240.5 376,-259.5"/>
<text text-anchor="middle" x="285" y="-247.5" font-family="Helvetica,sans-Serif" font-size="10.00">tracking::math::Rank1Update::run</text>
</a>
</g>
</g>
<!-- Node1&#45;&gt;Node12 -->
<g id="edge11_Node000001_Node000012" class="edge">
<title>Node1&#45;&gt;Node12</title>
<g id="a_edge11_Node000001_Node000012"><a xlink:title=" ">
<path fill="none" stroke="#63b8ff" d="M445.72,-308.92C426.95,-295.63 401.1,-279.13 376,-269 366.52,-265.18 356.16,-262.08 345.94,-259.58"/>
<polygon fill="#63b8ff" stroke="#63b8ff" points="443.92,-311.93 454.08,-314.95 448.02,-306.26 443.92,-311.93"/>
</a>
</g>
</g>
<!-- Node13 -->
<g id="Node000013" class="node">
<title>Node13</title>
<g id="a_Node000013"><a xlink:href="classtracking_1_1motion_1_1generic_1_1Update.html#aeb700b27802d9b4a11e08d22c0ec53b0" target="_top" xlink:title="Stack innovation, Jacobian and covariance blocks of the observation models.">
<polygon fill="white" stroke="#666666" points="362.5,-222 207.5,-222 207.5,-192 362.5,-192 362.5,-222"/>
<text text-anchor="start" x="215.5" y="-210" font-family="Helvetica,sans-Serif" font-size="10.00">tracking::motion::generic</text>
<text text-anchor="middle" x="285" y="-199" font-family="Helvetica,sans-Serif" font-size="10.00">::Update::stackObservations</text>
</a>
</g>
</g>
<!-- Node1&#45;&gt;Node13 -->
<g id="edge12_Node000001_Node000013" class="edge">
<title>Node1&#45;&gt;Node13</title>
<g id="a_edge12_Node000001_Node000013"><a xlink:title=" ">
<path fill="none" stroke="#63b8ff" d="M456.5,-307.01C438.8,-284.66 409.06,-251.35 376,-232 369.42,-228.15 362.23,-224.87 354.86,-222.08"/>
<polygon fill="#63b8ff" stroke="#63b8ff" points="453.79,-309.22 462.68,-314.99 459.32,-304.94 453.79,-309.22"/>
</a>
</g>
</g>
<!-- Node14 -->
<g id="Node000014" class="node">
<title>Node14</title>
<g id="a_Node000014"><a xlink:href="classtracking_1_1math_1_1Vector.html#aa6895be41c5df10d1c4a26762b648c70" target="_top" xlink:title="Create a unit vector with 1 at the specified position.">
<polygon fill="white" stroke="#666666" points="347.5,-174 222.5,-174 222.5,-144 347.5,-144 347.5,-174"/>
<text text-anchor="start" x="230.5" y="-162" font-family="Helvetica,sans-Serif" font-size="10.00">tracking::math::Vector</text>
<text text-anchor="middle" x="285" y="-151" font-family="Helvetica,sans-Serif" font-size="10.00">::UnitVector</text>
</a>
</g>
</g>
<!-- Node1&#45;&gt;Node14 -->
<g id="edge13_Node000001_Node000014" class="edge">
<title>Node1&#45;&gt;Node14</title>
<g id="a_edge13_Node000001_Node000014"><a xlink:title=" ">
<path fill="none" stroke="#63b8ff" d="M463.89,-305.52C449.69,-272.6 419.96,-214.57 376,-183 367.59,-176.96 357.77,-172.44 347.75,-169.06"/>
<polygon fill="#63b8ff" stroke="#63b8ff" points="460.71,-306.99 467.79,-314.87 467.17,-304.3 460.71,-306.99"/>
</a>
</g>
</g>
<!-- Node15 -->
<g id="Node000015" class="node">
<title>Node15</title>
<g id="a_Node000015"><a xlink:href="classtracking_1_1filter_1_1KalmanFilter.html#a4df70b5fa33fdf85a95d6a528da0344f" target="_top" xlink:title="Kalman measurement update of state and covariance.">
<polygon fill="white" stroke="#666666" points="349,-126 221,-126 221,-96 349,-96 349,-126"/>
<text text-anchor="start" x="229" y="-114" font-family="Helvetica,sans-Serif" font-size="10.00">tracking::filter::Kalman</text>
<text text-anchor="middle" x="285" y="-103" font-family="Helvetica,sans-Serif" font-size="10.00">Filter::updateState</text>
</a>
</g>
</g>
<!-- Node1&#45;&gt;Node15 -->
<g id="edge14_Node000001_Node000015" class="edge">
<title>Node1&#45;&gt;Node15</title>
<g id="a_edge14_Node000001_Node000015"><a xlink:title=" ">
<path fill="none" stroke="#63b8ff" d="M468.06,-305.02C457.66,-263.34 430.92,-179.77 376,-135 368.23,-128.67 358.94,-123.99 349.33,-120.55"/>
<polygon fill="#63b8ff" stroke="#63b8ff" points="464.69,-305.98 470.41,-314.9 471.5,-304.36 464.69,-305.98"/>
</a>
</g>
</g>
<!-- Node16 -->
<g id="Node000016" class="node">
<title>Node16</title>
<g id="a_Node000016"><a xlink:href="classtracking_1_1filter_1_1InformationFilter.html#a7b21589d9b27015411de1f4ecc272528" target="_top" xlink:title="Information measurement update of information vector and information matrix.">
<polygon fill="white" stroke="#666666" points="359,-78 211,-78 211,-48 359,-48 359,-78"/>
<text text-anchor="start" x="219" y="-66" font-family="Helvetica,sans-Serif" font-size="10.00">tracking::filter::Information</text>
<text text-anchor="middle" x="285" y="-55" font-family="Helvetica,sans-Serif" font-size="10.00">Filter::updateState</text>
</a>
</g>
</g>
<!-- Node1&#45;&gt;Node16 -->
<g id="edge15_Node000001_Node000016" class="edge">
<title>Node1&#45;&gt;Node16</title>
<g id="a_edge15_Node000001_Node000016"><a xlink:title=" ">
<path fill="none" stroke="#63b8ff" d="M470.76,-304.67C464.04,-255.22 442.12,-145.57 376,-87 371.04,-82.6 365.36,-79 359.31,-76.05"/>
<polygon fill="#63b8ff" stroke="#63b8ff" points="467.32,-305.32 472.04,-314.81 474.26,-304.45 467.32,-305.32"/>
</a>
</g>
</g>
<!-- Node17 -->
<g id="Node000017" class="node">
<title>Node17</title>
<g id="a_Node000017"><a xlink:href="namespacetracking_1_1math_1_1conversions.html#ae19f4f6e08b673ef7b162cd9b2c83697" target="_top" xlink:title="Creates a Vector from a MatrixColumnView.">
<polygon fill="white" stroke="#666666" points="370.5,-30 199.5,-30 199.5,0 370.5,0 370.5,-30"/>
<text text-anchor="start" x="207.5" y="-18" font-family="Helvetica,sans-Serif" font-size="10.00">tracking::math::conversions</text>
<text text-anchor="middle" x="285" y="-7" font-family="Helvetica,sans-Serif" font-size="10.00">::VectorFromMatrixColumnView</text>
</a>
</g>
</g>
<!-- Node1&#45;&gt;Node17 -->
<g id="edge16_Node000001_Node000017" class="edge">
<title>Node1&#45;&gt;Node17</title>
<g id="a_edge16_Node000001_Node000017"><a xlink:title=" ">
<path fill="none" stroke="#63b8ff" d="M472.68,-304.53C469.44,-248.1 453.55,-111.84 376,-39 372.35,-35.57 368.26,-32.62 363.89,-30.08"/>
<polygon fill="#63b8ff" stroke="#63b8ff" points="469.19,-304.88 473.17,-314.7 476.19,-304.55 469.19,-304.88"/>
</a>
</g>
</g>
<!-- Node11 -->
<g id="Node000011" class="node">
<title>Node11</title>
<g id="a_Node000011"><a xlink:href="classtracking_1_1math_1_1CovarianceMatrixFactored.html#a8d64779f4ed5705bc05fd9768f00e36b" target="_top" xlink:title="Agee&#45;Turner rank&#45;1 update: P ± x*x^T.">
<polygon fill="white" stroke="#666666" points="158,-302 0,-302 0,-272 158,-272 158,-302"/>
<text text-anchor="start" x="8" y="-290" font-family="Helvetica,sans-Serif" font-size="10.00">tracking::math::Covariance</text>
<text text-anchor="middle" x="79" y="-279" font-family="Helvetica,sans-Serif" font-size="10.00">MatrixFactored::rank1Update</text>
</a>
</g>
</g>
<!-- Node10&#45;&gt;Node11 -->
<g id="edge10_Node000010_Node000011" class="edge">
<title>Node10&#45;&gt;Node11</title>
<g id="a_edge10_Node000010_Node000011"><a xlink:title=" ">
<path fill="none" stroke="#63b8ff" d="M183.8,-287C175.16,-287 166.5,-287 158.07,-287"/>
<polygon fill="#63b8ff" stroke="#63b8ff" points="183.93,-290.5 193.93,-287 183.93,-283.5 183.93,-290.5"/>
</a>
</g>
</g>
</g>
</svg>

<g id="navigator" transform="translate(0 0)" fill="#404254">
  <rect fill="#f2f5e9" fill-opacity="0.5" stroke="#606060" stroke-width=".5" x="0" y="0" width="60" height="60"/>
  <use id="zoomplus" xlink:href="#zoomPlus" x="17" y="9" onmousedown="handleZoom(evt,'in')"/>
  <use id="zoomminus" xlink:href="#zoomMin" x="42" y="9" onmousedown="handleZoom(evt,'out')"/>
  <use id="reset" xlink:href="#resetDef" x="30" y="36" onmousedown="handleReset()"/>
   <use id="arrowup" xlink:href="#arrowUp" x="0" y="0" onmousedown="handlePan(0,-1)"/>
  <use id="arrowright" xlink:href="#arrowRight" x="0" y="0" onmousedown="handlePan(1,0)"/>
  <use id="arrowdown" xlink:href="#arrowDown" x="0" y="0" onmousedown="handlePan(0,1)"/>
  <use id="arrowleft" xlink:href="#arrowLeft" x="0" y="0" onmousedown="handlePan(-1,0)"/>
</g>
<svg viewBox="0 0 15 15" width="100%" height="30px" preserveAspectRatio="xMaxYMin meet">
 <g id="arrow_out" transform="scale(0.3 0.3)">
  <a xlink:href="classtracking_1_1math_1_1Vector_a74f4a1dc6f64586863ce3ef351a1e9c8_icgraph_org.svg" target="_base">
   <rect id="button" ry="5" rx="5" y="6" x="6" height="38" width="38"
        fill="#f2f5e9" fill-opacity="0.5" stroke="#606060" stroke-width="1.0"/>
   <path id="arrow"
     d="M 11.500037,31.436501 C 11.940474,20.09759 22.043105,11.32322 32.158766,21.979434 L 37.068811,17.246167 C 37.068811,17.246167 37.088388,32 37.088388,32 L 22.160133,31.978069 C 22.160133,31.978069 26.997745,27.140456 26.997745,27.140456 C 18.528582,18.264221 13.291696,25.230495 11.500037,31.436501 z"
     style="fill:#404040;"/>
  </a>
 </g>
</svg>

<style type='text/css'>
<![CDATA[
[data-mouse-over-selected='false'] { opacity: 0.7; }
[data-mouse-over-selected='true']  { opacity: 1.0; }
]]>
</style>
<script type="application/ecmascript"><![CDATA[
document.addEventListener('DOMContentLoaded', (event) => {
  highlightEdges();
  highlightAdjacentNodes();
});
]]></script>
</svg>
