<?xml version="1.0" encoding="UTF-8" standalone="no"?>
<!DOCTYPE svg PUBLIC "-//W3C//DTD SVG 1.1//EN"
 "http://www.w3.org/Graphics/SVG/1.1/DTD/svg11.dtd">
<!-- Generated by graphviz version 2.43.0 (0)
 -->
<!-- Title: tracking::motion::ExtendedMotionModel&lt; MotionModel_, MotionModelTrait_ &gt; Pages: 1 -->
<svg width="1099pt" height="947pt"
 viewBox="0.00 0.00 1098.50 947.00" xmlns="http://www.w3.org/2000/svg" xmlns:xlink="http://www.w3.org/1999/xlink">
<g id="graph0" class="graph" transform="scale(1 1) rotate(0) translate(4 943)">
<title>tracking::motion::ExtendedMotionModel&lt; MotionModel_, MotionModelTrait_ &gt;</title>
<!-- Node1 -->
<g id="Node000001" class="node">
<title>Node1</title>
<g id="a_Node000001"><a xlink:title="Abstract MotionModel with known dimension, keeping the model memory for State and StateCovariance.">
<polygon fill="#999999" stroke="transparent" points="670,-378 493,-378 493,0 670,0 670,-378"/>
<text text-anchor="start" x="512.5" y="-366" font-family="Helvetica,sans-Serif" font-size="10.00">tracking::motion::Extended</text>
<text text-anchor="start" x="512.5" y="-355" font-family="Helvetica,sans-Serif" font-size="10.00">MotionModel&lt; MotionModel</text>
<text text-anchor="start" x="525.5" y="-344" font-family="Helvetica,sans-Serif" font-size="10.00">_, MotionModelTrait_ &gt;</text>
<text text-anchor="start" x="580" y="-329" font-family="Helvetica,sans-Serif" font-size="10.00"> </text>
<text text-anchor="start" x="497.5" y="-314" font-family="Helvetica,sans-Serif" font-size="10.00">+</text>
<text text-anchor="start" x="510.5" y="-314" font-family="Helvetica,sans-Serif" font-size="10.00">ExtendedMotionModel()</text>
<text text-anchor="start" x="497.5" y="-299" font-family="Helvetica,sans-Serif" font-size="10.00">+</text>
<text text-anchor="start" x="510.5" y="-299" font-family="Helvetica,sans-Serif" font-size="10.00">~ExtendedMotionModel()</text>
<text text-anchor="start" x="497.5" y="-284" font-family="Helvetica,sans-Serif" font-size="10.00">+</text>
<text text-anchor="start" x="510.5" y="-284" font-family="Helvetica,sans-Serif" font-size="10.00">getX()</text>
<text text-anchor="start" x="497.5" y="-269" font-family="Helvetica,sans-Serif" font-size="10.00">+</text>
<text text-anchor="start" x="510.5" y="-269" font-family="Helvetica,sans-Serif" font-size="10.00">getY()</text>
<text text-anchor="start" x="497.5" y="-254" font-family="Helvetica,sans-Serif" font-size="10.00">+</text>
<text text-anchor="start" x="510.5" y="-254" font-family="Helvetica,sans-Serif" font-size="10.00">invertCov()</text>
<text text-anchor="start" x="497.5" y="-239" font-family="Helvetica,sans-Serif" font-size="10.00">+</text>
<text text-anchor="start" x="510.5" y="-239" font-family="Helvetica,sans-Serif" font-size="10.00">predict()</text>
<text text-anchor="start" x="497.5" y="-224" font-family="Helvetica,sans-Serif" font-size="10.00">+</text>
<text text-anchor="start" x="510.5" y="-224" font-family="Helvetica,sans-Serif" font-size="10.00">predict()</text>
<text text-anchor="start" x="497.5" y="-209" font-family="Helvetica,sans-Serif" font-size="10.00">+</text>
<text text-anchor="start" x="510.5" y="-209" font-family="Helvetica,sans-Serif" font-size="10.00">update()</text>
<text text-anchor="start" x="497.5" y="-194" font-family="Helvetica,sans-Serif" font-size="10.00">+</text>
<text text-anchor="start" x="510.5" y="-194" font-family="Helvetica,sans-Serif" font-size="10.00">update()</text>
<text text-anchor="start" x="497.5" y="-179" font-family="Helvetica,sans-Serif" font-size="10.00">+</text>
<text text-anchor="start" x="510.5" y="-179" font-family="Helvetica,sans-Serif" font-size="10.00">convertStateVecIntoState</text>
<text text-anchor="start" x="510.5" y="-168" font-family="Helvetica,sans-Serif" font-size="10.00">Space()</text>
<text text-anchor="start" x="497.5" y="-153" font-family="Helvetica,sans-Serif" font-size="10.00">+</text>
<text text-anchor="start" x="510.5" y="-153" font-family="Helvetica,sans-Serif" font-size="10.00">convertStateVecIntoInformation</text>
<text text-anchor="start" x="510.5" y="-142" font-family="Helvetica,sans-Serif" font-size="10.00">Space()</text>
<text text-anchor="start" x="497.5" y="-127" font-family="Helvetica,sans-Serif" font-size="10.00">+</text>
<text text-anchor="start" x="510.5" y="-127" font-family="Helvetica,sans-Serif" font-size="10.00">StateVecFromList()</text>
<text text-anchor="start" x="497.5" y="-112" font-family="Helvetica,sans-Serif" font-size="10.00">+</text>
<text text-anchor="start" x="510.5" y="-112" font-family="Helvetica,sans-Serif" font-size="10.00">StateCovFromList()</text>
<text text-anchor="start" x="497.5" y="-97" font-family="Helvetica,sans-Serif" font-size="10.00">+</text>
<text text-anchor="start" x="510.5" y="-97" font-family="Helvetica,sans-Serif" font-size="10.00">StateCovFromList()</text>
<text text-anchor="start" x="497.5" y="-82" font-family="Helvetica,sans-Serif" font-size="10.00">+</text>
<text text-anchor="start" x="510.5" y="-82" font-family="Helvetica,sans-Serif" font-size="10.00">FromLists()</text>
<text text-anchor="start" x="497.5" y="-67" font-family="Helvetica,sans-Serif" font-size="10.00">#</text>
<text text-anchor="start" x="510.5" y="-67" font-family="Helvetica,sans-Serif" font-size="10.00">ExtendedMotionModel()</text>
<text text-anchor="start" x="497.5" y="-52" font-family="Helvetica,sans-Serif" font-size="10.00">#</text>
<text text-anchor="start" x="510.5" y="-52" font-family="Helvetica,sans-Serif" font-size="10.00">ExtendedMotionModel()</text>
<text text-anchor="start" x="497.5" y="-37" font-family="Helvetica,sans-Serif" font-size="10.00">#</text>
<text text-anchor="start" x="510.5" y="-37" font-family="Helvetica,sans-Serif" font-size="10.00">operator=()</text>
<text text-anchor="start" x="497.5" y="-22" font-family="Helvetica,sans-Serif" font-size="10.00">#</text>
<text text-anchor="start" x="510.5" y="-22" font-family="Helvetica,sans-Serif" font-size="10.00">operator=()</text>
<text text-anchor="start" x="497.5" y="-7" font-family="Helvetica,sans-Serif" font-size="10.00">#</text>
<text text-anchor="start" x="510.5" y="-7" font-family="Helvetica,sans-Serif" font-size="10.00">ExtendedMotionModel()</text>
<polygon fill="#666666" stroke="#666666" points="493.5,-339 493.5,-339 670.5,-339 670.5,-339 493.5,-339"/>
<polygon fill="#666666" stroke="#666666" points="493.5,-324 493.5,-324 670.5,-324 670.5,-324 493.5,-324"/>
<polygon fill="none" stroke="#666666" points="493,0 493,-378 670,-378 670,0 493,0"/>
</a>
</g>
</g>
<!-- Node2 -->
<g id="Node000002" class="node">
<title>Node2</title>
<g id="a_Node000002"><a xlink:href="classtracking_1_1motion_1_1IMotionModel.html" target="_top" xlink:title=" ">
<polygon fill="white" stroke="transparent" points="286,-708 137,-708 137,-442 286,-442 286,-708"/>
<text text-anchor="start" x="142.5" y="-696" font-family="Helvetica,sans-Serif" font-size="10.00">tracking::motion::IMotion</text>
<text text-anchor="start" x="142.5" y="-685" font-family="Helvetica,sans-Serif" font-size="10.00">Model&lt; MotionModelTrait</text>
<text text-anchor="start" x="142.5" y="-674" font-family="Helvetica,sans-Serif" font-size="10.00">_::CovarianceMatrixPolicy &gt;</text>
<text text-anchor="start" x="210" y="-659" font-family="Helvetica,sans-Serif" font-size="10.00"> </text>
<text text-anchor="start" x="152.5" y="-644" font-family="Helvetica,sans-Serif" font-size="10.00">+</text>
<text text-anchor="start" x="176.5" y="-644" font-family="Helvetica,sans-Serif" font-size="10.00">IMotionModel()</text>
<text text-anchor="start" x="152.5" y="-629" font-family="Helvetica,sans-Serif" font-size="10.00">+</text>
<text text-anchor="start" x="176.5" y="-629" font-family="Helvetica,sans-Serif" font-size="10.00">~IMotionModel()</text>
<text text-anchor="start" x="152.5" y="-614" font-family="Helvetica,sans-Serif" font-size="10.00">+</text>
<text text-anchor="start" x="176.5" y="-614" font-family="Helvetica,sans-Serif" font-size="10.00">getX()</text>
<text text-anchor="start" x="152.5" y="-599" font-family="Helvetica,sans-Serif" font-size="10.00">+</text>
<text text-anchor="start" x="176.5" y="-599" font-family="Helvetica,sans-Serif" font-size="10.00">getVx()</text>
<text text-anchor="start" x="152.5" y="-584" font-family="Helvetica,sans-Serif" font-size="10.00">+</text>
<text text-anchor="start" x="176.5" y="-584" font-family="Helvetica,sans-Serif" font-size="10.00">getAx()</text>
<text text-anchor="start" x="152.5" y="-569" font-family="Helvetica,sans-Serif" font-size="10.00">+</text>
<text text-anchor="start" x="176.5" y="-569" font-family="Helvetica,sans-Serif" font-size="10.00">getY()</text>
<text text-anchor="start" x="152.5" y="-554" font-family="Helvetica,sans-Serif" font-size="10.00">+</text>
<text text-anchor="start" x="176.5" y="-554" font-family="Helvetica,sans-Serif" font-size="10.00">getVy()</text>
<text text-anchor="start" x="152.5" y="-539" font-family="Helvetica,sans-Serif" font-size="10.00">+</text>
<text text-anchor="start" x="176.5" y="-539" font-family="Helvetica,sans-Serif" font-size="10.00">getAy()</text>
<text text-anchor="start" x="152.5" y="-524" font-family="Helvetica,sans-Serif" font-size="10.00">+</text>
<text text-anchor="start" x="176.5" y="-524" font-family="Helvetica,sans-Serif" font-size="10.00">predict()</text>
<text text-anchor="start" x="152.5" y="-509" font-family="Helvetica,sans-Serif" font-size="10.00">+</text>
<text text-anchor="start" x="176.5" y="-509" font-family="Helvetica,sans-Serif" font-size="10.00">predict()</text>
<text text-anchor="start" x="152.5" y="-494" font-family="Helvetica,sans-Serif" font-size="10.00">#</text>
<text text-anchor="start" x="176.5" y="-494" font-family="Helvetica,sans-Serif" font-size="10.00">IMotionModel()</text>
<text text-anchor="start" x="152.5" y="-479" font-family="Helvetica,sans-Serif" font-size="10.00">#</text>
<text text-anchor="start" x="176.5" y="-479" font-family="Helvetica,sans-Serif" font-size="10.00">IMotionModel()</text>
<text text-anchor="start" x="152.5" y="-464" font-family="Helvetica,sans-Serif" font-size="10.00">#</text>
<text text-anchor="start" x="176.5" y="-464" font-family="Helvetica,sans-Serif" font-size="10.00">operator=()</text>
<text text-anchor="start" x="152.5" y="-449" font-family="Helvetica,sans-Serif" font-size="10.00">#</text>
<text text-anchor="start" x="176.5" y="-449" font-family="Helvetica,sans-Serif" font-size="10.00">operator=()</text>
<polygon fill="#666666" stroke="#666666" points="137.5,-669 137.5,-669 286.5,-669 286.5,-669 137.5,-669"/>
<polygon fill="#666666" stroke="#666666" points="137.5,-654 137.5,-654 286.5,-654 286.5,-654 137.5,-654"/>
<polygon fill="none" stroke="#666666" points="137,-442 137,-708 286,-708 286,-442 137,-442"/>
</a>
</g>
</g>
<!-- Node2&#45;&gt;Node1 -->
<g id="edge1_Node000001_Node000002" class="edge">
<title>Node2&#45;&gt;Node1</title>
<g id="a_edge1_Node000001_Node000002"><a xlink:title=" ">
<path fill="none" stroke="#63b8ff" d="M279.89,-433.22C284.57,-426.54 289.44,-420.09 294.5,-414 351.05,-345.94 431.58,-285.33 492.95,-244.37"/>
<polygon fill="none" stroke="#63b8ff" points="276.8,-431.56 274.09,-441.8 282.59,-435.48 276.8,-431.56"/>
</a>
</g>
</g>
<!-- Node3 -->
<g id="Node000003" class="node">
<title>Node3</title>
<g id="a_Node000003"><a xlink:href="structtracking_1_1math_1_1contract_1_1CovarianceMatrixPolicyIntf.html" target="_top" xlink:title=" ">
<polygon fill="white" stroke="transparent" points="304,-843 143,-843 143,-772 304,-772 304,-843"/>
<text text-anchor="start" x="154.5" y="-830.5" font-family="Helvetica,sans-Serif" font-size="10.00">tracking::math::contract</text>
<text text-anchor="start" x="154.5" y="-819.5" font-family="Helvetica,sans-Serif" font-size="10.00">::CovarianceMatrixPolicyIntf</text>
<text text-anchor="start" x="186.5" y="-808.5" font-family="Helvetica,sans-Serif" font-size="10.00">&lt; PolicyType &gt;</text>
<text text-anchor="start" x="222" y="-793.5" font-family="Helvetica,sans-Serif" font-size="10.00"> </text>
<text text-anchor="start" x="147.5" y="-778.5" font-family="Helvetica,sans-Serif" font-size="10.00">+</text>
<text text-anchor="start" x="160.5" y="-778.5" font-family="Helvetica,sans-Serif" font-size="10.00">CovarianceMatrixPolicyIntf()</text>
<polygon fill="#666666" stroke="#666666" points="143.5,-803.5 143.5,-803.5 304.5,-803.5 304.5,-803.5 143.5,-803.5"/>
<polygon fill="#666666" stroke="#666666" points="143.5,-788.5 143.5,-788.5 304.5,-788.5 304.5,-788.5 143.5,-788.5"/>
<polygon fill="none" stroke="#666666" points="143,-772 143,-843 304,-843 304,-772 143,-772"/>
</a>
</g>
</g>
<!-- Node3&#45;&gt;Node2 -->
<g id="edge2_Node000002_Node000003" class="edge">
<title>Node3&#45;&gt;Node2</title>
<g id="a_edge2_Node000002_Node000003"><a xlink:title=" ">
<path fill="none" stroke="#63b8ff" d="M221.16,-761.6C220.34,-745.89 219.38,-727.37 218.38,-708.2"/>
<polygon fill="none" stroke="#63b8ff" points="217.69,-762.19 221.7,-771.99 224.68,-761.82 217.69,-762.19"/>
</a>
</g>
</g>
<!-- Node7 -->
<g id="Node000007" class="node">
<title>Node7</title>
<g id="a_Node000007"><a xlink:href="classtracking_1_1motion_1_1StateMem.html" target="_top" xlink:title=" ">
<polygon fill="white" stroke="transparent" points="477,-736 304,-736 304,-414 477,-414 477,-736"/>
<text text-anchor="start" x="309.5" y="-724" font-family="Helvetica,sans-Serif" font-size="10.00">tracking::motion::StateMem</text>
<text text-anchor="start" x="309.5" y="-713" font-family="Helvetica,sans-Serif" font-size="10.00">&lt; MotionModelTrait_::Covariance</text>
<text text-anchor="start" x="309.5" y="-702" font-family="Helvetica,sans-Serif" font-size="10.00">MatrixPolicy, MotionModelTrait</text>
<text text-anchor="start" x="369.5" y="-691" font-family="Helvetica,sans-Serif" font-size="10.00">_::Size &gt;</text>
<text text-anchor="start" x="320.5" y="-676" font-family="Helvetica,sans-Serif" font-size="10.00">&#45;</text>
<text text-anchor="start" x="340.5" y="-676" font-family="Helvetica,sans-Serif" font-size="10.00">_vec</text>
<text text-anchor="start" x="320.5" y="-661" font-family="Helvetica,sans-Serif" font-size="10.00">&#45;</text>
<text text-anchor="start" x="340.5" y="-661" font-family="Helvetica,sans-Serif" font-size="10.00">_cov</text>
<text text-anchor="start" x="318" y="-646" font-family="Helvetica,sans-Serif" font-size="10.00">+</text>
<text text-anchor="start" x="340.5" y="-646" font-family="Helvetica,sans-Serif" font-size="10.00">StateMem()</text>
<text text-anchor="start" x="318" y="-631" font-family="Helvetica,sans-Serif" font-size="10.00">+</text>
<text text-anchor="start" x="340.5" y="-631" font-family="Helvetica,sans-Serif" font-size="10.00">StateMem()</text>
<text text-anchor="start" x="318" y="-616" font-family="Helvetica,sans-Serif" font-size="10.00">+</text>
<text text-anchor="start" x="340.5" y="-616" font-family="Helvetica,sans-Serif" font-size="10.00">StateMem()</text>
<text text-anchor="start" x="318" y="-601" font-family="Helvetica,sans-Serif" font-size="10.00">+</text>
<text text-anchor="start" x="340.5" y="-601" font-family="Helvetica,sans-Serif" font-size="10.00">operator=()</text>
<text text-anchor="start" x="318" y="-586" font-family="Helvetica,sans-Serif" font-size="10.00">+</text>
<text text-anchor="start" x="340.5" y="-586" font-family="Helvetica,sans-Serif" font-size="10.00">operator=()</text>
<text text-anchor="start" x="318" y="-571" font-family="Helvetica,sans-Serif" font-size="10.00">+</text>
<text text-anchor="start" x="340.5" y="-571" font-family="Helvetica,sans-Serif" font-size="10.00">~StateMem()</text>
<text text-anchor="start" x="318" y="-556" font-family="Helvetica,sans-Serif" font-size="10.00">+</text>
<text text-anchor="start" x="340.5" y="-556" font-family="Helvetica,sans-Serif" font-size="10.00">getVec()</text>
<text text-anchor="start" x="318" y="-541" font-family="Helvetica,sans-Serif" font-size="10.00">+</text>
<text text-anchor="start" x="340.5" y="-541" font-family="Helvetica,sans-Serif" font-size="10.00">getVecForInternalUse()</text>
<text text-anchor="start" x="318" y="-526" font-family="Helvetica,sans-Serif" font-size="10.00">+</text>
<text text-anchor="start" x="340.5" y="-526" font-family="Helvetica,sans-Serif" font-size="10.00">getCov()</text>
<text text-anchor="start" x="318" y="-511" font-family="Helvetica,sans-Serif" font-size="10.00">+</text>
<text text-anchor="start" x="340.5" y="-511" font-family="Helvetica,sans-Serif" font-size="10.00">getCovForInternalUse()</text>
<text text-anchor="start" x="318" y="-496" font-family="Helvetica,sans-Serif" font-size="10.00">+</text>
<text text-anchor="start" x="340.5" y="-496" font-family="Helvetica,sans-Serif" font-size="10.00">operator[]()</text>
<text text-anchor="start" x="318" y="-481" font-family="Helvetica,sans-Serif" font-size="10.00">+</text>
<text text-anchor="start" x="340.5" y="-481" font-family="Helvetica,sans-Serif" font-size="10.00">operator()()</text>
<text text-anchor="start" x="318" y="-466" font-family="Helvetica,sans-Serif" font-size="10.00">#</text>
<text text-anchor="start" x="340.5" y="-466" font-family="Helvetica,sans-Serif" font-size="10.00">StateMem()</text>
<text text-anchor="start" x="318" y="-451" font-family="Helvetica,sans-Serif" font-size="10.00">#</text>
<text text-anchor="start" x="340.5" y="-451" font-family="Helvetica,sans-Serif" font-size="10.00">getVec()</text>
<text text-anchor="start" x="318" y="-436" font-family="Helvetica,sans-Serif" font-size="10.00">#</text>
<text text-anchor="start" x="340.5" y="-436" font-family="Helvetica,sans-Serif" font-size="10.00">getCov()</text>
<text text-anchor="start" x="318" y="-421" font-family="Helvetica,sans-Serif" font-size="10.00">#</text>
<text text-anchor="start" x="340.5" y="-421" font-family="Helvetica,sans-Serif" font-size="10.00">operator[]()</text>
<polygon fill="#666666" stroke="#666666" points="304.5,-686 304.5,-686 477.5,-686 477.5,-686 304.5,-686"/>
<polygon fill="#666666" stroke="#666666" points="304.5,-656 304.5,-656 338.5,-656 338.5,-656 304.5,-656"/>
<polygon fill="#666666" stroke="#666666" points="338.5,-656 338.5,-656 477.5,-656 477.5,-656 338.5,-656"/>
<polygon fill="none" stroke="#666666" points="304,-414 304,-736 477,-736 477,-414 304,-414"/>
</a>
</g>
</g>
<!-- Node3&#45;&gt;Node7 -->
<g id="edge10_Node000007_Node000003" class="edge">
<title>Node3&#45;&gt;Node7</title>
<g id="a_edge10_Node000007_Node000003"><a xlink:title=" ">
<path fill="none" stroke="#63b8ff" d="M268.93,-764.78C277.84,-755.67 286.81,-745.82 294.5,-736 297.6,-732.05 300.67,-727.99 303.71,-723.85"/>
<polygon fill="none" stroke="#63b8ff" points="266.4,-762.35 261.81,-771.9 271.36,-767.3 266.4,-762.35"/>
</a>
</g>
</g>
<!-- Node4 -->
<g id="Node000004" class="node">
<title>Node4</title>
<g id="a_Node000004"><a xlink:href="classtracking_1_1base_1_1contract_1_1RequireAbstractIntf.html" target="_top" xlink:title=" ">
<polygon fill="white" stroke="transparent" points="125,-843 0,-843 0,-772 125,-772 125,-843"/>
<text text-anchor="start" x="5.5" y="-830.5" font-family="Helvetica,sans-Serif" font-size="10.00">tracking::base::contract</text>
<text text-anchor="start" x="5.5" y="-819.5" font-family="Helvetica,sans-Serif" font-size="10.00">::RequireAbstractIntf&lt;</text>
<text text-anchor="start" x="33.5" y="-808.5" font-family="Helvetica,sans-Serif" font-size="10.00"> ImplType &gt;</text>
<text text-anchor="start" x="61" y="-793.5" font-family="Helvetica,sans-Serif" font-size="10.00"> </text>
<text text-anchor="start" x="4.5" y="-778.5" font-family="Helvetica,sans-Serif" font-size="10.00">+</text>
<text text-anchor="start" x="17.5" y="-778.5" font-family="Helvetica,sans-Serif" font-size="10.00">RequireAbstractIntf()</text>
<polygon fill="#666666" stroke="#666666" points="0.5,-803.5 0.5,-803.5 125.5,-803.5 125.5,-803.5 0.5,-803.5"/>
<polygon fill="#666666" stroke="#666666" points="0.5,-788.5 0.5,-788.5 125.5,-788.5 125.5,-788.5 0.5,-788.5"/>
<polygon fill="none" stroke="#666666" points="0,-772 0,-843 125,-843 125,-772 0,-772"/>
</a>
</g>
</g>
<!-- Node4&#45;&gt;Node2 -->
<g id="edge3_Node000002_Node000004" class="edge">
<title>Node4&#45;&gt;Node2</title>
<g id="a_edge3_Node000002_Node000004"><a xlink:title=" ">
<path fill="none" stroke="#63b8ff" d="M90.3,-763.5C103.61,-742.91 120.25,-717.16 136.9,-691.41"/>
<polygon fill="none" stroke="#63b8ff" points="87.3,-761.69 84.81,-771.99 93.17,-765.49 87.3,-761.69"/>
</a>
</g>
</g>
<!-- Node5 -->
<g id="Node000005" class="node">
<title>Node5</title>
<g id="a_Node000005"><a xlink:href="classtracking_1_1motion_1_1generic_1_1Predict.html" target="_top" xlink:title=" ">
<polygon fill="white" stroke="transparent" points="668,-623.5 495,-623.5 495,-526.5 668,-526.5 668,-623.5"/>
<text text-anchor="start" x="500.5" y="-611" font-family="Helvetica,sans-Serif" font-size="10.00">tracking::motion::generic</text>
<text text-anchor="start" x="500.5" y="-600" font-family="Helvetica,sans-Serif" font-size="10.00">::Predict&lt; MotionModel</text>
<text text-anchor="start" x="500.5" y="-589" font-family="Helvetica,sans-Serif" font-size="10.00">_, MotionModelTrait_::Covariance</text>
<text text-anchor="start" x="545.5" y="-578" font-family="Helvetica,sans-Serif" font-size="10.00">MatrixPolicy &gt;</text>
<text text-anchor="start" x="580" y="-563" font-family="Helvetica,sans-Serif" font-size="10.00"> </text>
<text text-anchor="start" x="531.5" y="-548" font-family="Helvetica,sans-Serif" font-size="10.00">+</text>
<text text-anchor="start" x="576.5" y="-548" font-family="Helvetica,sans-Serif" font-size="10.00">run()</text>
<text text-anchor="start" x="531.5" y="-533" font-family="Helvetica,sans-Serif" font-size="10.00">+</text>
<text text-anchor="start" x="576.5" y="-533" font-family="Helvetica,sans-Serif" font-size="10.00">run()</text>
<polygon fill="#666666" stroke="#666666" points="495.5,-573 495.5,-573 668.5,-573 668.5,-573 495.5,-573"/>
<polygon fill="#666666" stroke="#666666" points="495.5,-558 495.5,-558 668.5,-558 668.5,-558 495.5,-558"/>
<polygon fill="none" stroke="#666666" points="495,-526.5 495,-623.5 668,-623.5 668,-526.5 495,-526.5"/>
</a>
</g>
</g>
<!-- Node5&#45;&gt;Node1 -->
<g id="edge4_Node000001_Node000005" class="edge">
<title>Node5&#45;&gt;Node1</title>
<g id="a_edge4_Node000001_Node000005"><a xlink:title=" ">
<path fill="none" stroke="#63b8ff" d="M581.5,-516.02C581.5,-478.83 581.5,-428.26 581.5,-378.05"/>
<polygon fill="none" stroke="#63b8ff" points="578,-516.14 581.5,-526.14 585,-516.14 578,-516.14"/>
</a>
</g>
</g>
<!-- Node6 -->
<g id="Node000006" class="node">
<title>Node6</title>
<g id="a_Node000006"><a xlink:href="classtracking_1_1motion_1_1generic_1_1PredictCommon.html" target="_top" xlink:title="Base class for common calculations needed for any prediction.">
<polygon fill="white" stroke="transparent" points="666.5,-843 496.5,-843 496.5,-772 666.5,-772 666.5,-843"/>
<text text-anchor="start" x="501.5" y="-830.5" font-family="Helvetica,sans-Serif" font-size="10.00">tracking::motion::generic</text>
<text text-anchor="start" x="501.5" y="-819.5" font-family="Helvetica,sans-Serif" font-size="10.00">::PredictCommon&lt; MotionModel</text>
<text text-anchor="start" x="509.5" y="-808.5" font-family="Helvetica,sans-Serif" font-size="10.00">_, CovarianceMatrixPolicy_ &gt;</text>
<text text-anchor="start" x="579.5" y="-793.5" font-family="Helvetica,sans-Serif" font-size="10.00"> </text>
<text text-anchor="start" x="531.5" y="-778.5" font-family="Helvetica,sans-Serif" font-size="10.00">+</text>
<text text-anchor="start" x="575.5" y="-778.5" font-family="Helvetica,sans-Serif" font-size="10.00">run()</text>
<polygon fill="#666666" stroke="#666666" points="496.5,-803.5 496.5,-803.5 666.5,-803.5 666.5,-803.5 496.5,-803.5"/>
<polygon fill="#666666" stroke="#666666" points="496.5,-788.5 496.5,-788.5 666.5,-788.5 666.5,-788.5 496.5,-788.5"/>
<polygon fill="none" stroke="#666666" points="496.5,-772 496.5,-843 666.5,-843 666.5,-772 496.5,-772"/>
</a>
</g>
</g>
<!-- Node6&#45;&gt;Node5 -->
<g id="edge5_Node000005_Node000006" class="edge">
<title>Node6&#45;&gt;Node5</title>
<g id="a_edge5_Node000005_Node000006"><a xlink:title=" ">
<path fill="none" stroke="#63b8ff" d="M581.5,-761.8C581.5,-722.07 581.5,-664.15 581.5,-623.57"/>
<polygon fill="none" stroke="#63b8ff" points="578,-761.99 581.5,-771.99 585,-761.99 578,-761.99"/>
</a>
</g>
</g>
<!-- Node7&#45;&gt;Node1 -->
<g id="edge6_Node000001_Node000007" class="edge">
<title>Node7&#45;&gt;Node1</title>
<g id="a_edge6_Node000001_Node000007"><a xlink:title=" ">
<path fill="none" stroke="#63b8ff" d="M474.72,-404.68C480.75,-392.55 486.84,-380.3 492.9,-368.13"/>
<polygon fill="none" stroke="#63b8ff" points="471.44,-403.42 470.12,-413.93 477.71,-406.54 471.44,-403.42"/>
</a>
</g>
</g>
<!-- Node8 -->
<g id="Node000008" class="node">
<title>Node8</title>
<g id="a_Node000008"><a xlink:href="structtracking_1_1motion_1_1contract_1_1StateMemIntf.html" target="_top" xlink:title=" ">
<polygon fill="white" stroke="transparent" points="472.5,-837.5 322.5,-837.5 322.5,-777.5 472.5,-777.5 472.5,-837.5"/>
<text text-anchor="start" x="327.5" y="-825.5" font-family="Helvetica,sans-Serif" font-size="10.00">tracking::motion::contract</text>
<text text-anchor="start" x="327.5" y="-814.5" font-family="Helvetica,sans-Serif" font-size="10.00">::StateMemIntf&lt; ImplType &gt;</text>
<text text-anchor="start" x="395.5" y="-799.5" font-family="Helvetica,sans-Serif" font-size="10.00"> </text>
<text text-anchor="start" x="340" y="-784.5" font-family="Helvetica,sans-Serif" font-size="10.00">+</text>
<text text-anchor="start" x="366.5" y="-784.5" font-family="Helvetica,sans-Serif" font-size="10.00">StateMemIntf()</text>
<polygon fill="#666666" stroke="#666666" points="322.5,-809.5 322.5,-809.5 472.5,-809.5 472.5,-809.5 322.5,-809.5"/>
<polygon fill="#666666" stroke="#666666" points="322.5,-794.5 322.5,-794.5 472.5,-794.5 472.5,-794.5 322.5,-794.5"/>
<polygon fill="none" stroke="#666666" points="322.5,-777.5 322.5,-837.5 472.5,-837.5 472.5,-777.5 322.5,-777.5"/>
</a>
</g>
</g>
<!-- Node8&#45;&gt;Node7 -->
<g id="edge7_Node000007_Node000008" class="edge">
<title>Node8&#45;&gt;Node7</title>
<g id="a_edge7_Node000007_Node000008"><a xlink:title=" ">
<path fill="none" stroke="#63b8ff" d="M396.31,-767.3C396.03,-757.95 395.71,-747.41 395.36,-736.19"/>
<polygon fill="none" stroke="#63b8ff" points="392.81,-767.42 396.61,-777.31 399.81,-767.21 392.81,-767.42"/>
</a>
</g>
</g>
<!-- Node9 -->
<g id="Node000009" class="node">
<title>Node9</title>
<g id="a_Node000009"><a xlink:href="classtracking_1_1base_1_1contract_1_1RequireCopyIntf.html" target="_top" xlink:title=" ">
<polygon fill="white" stroke="transparent" points="388.5,-939 226.5,-939 226.5,-879 388.5,-879 388.5,-939"/>
<text text-anchor="start" x="231.5" y="-927" font-family="Helvetica,sans-Serif" font-size="10.00">tracking::base::contract</text>
<text text-anchor="start" x="231.5" y="-916" font-family="Helvetica,sans-Serif" font-size="10.00">::RequireCopyIntf&lt; ImplType &gt;</text>
<text text-anchor="start" x="305.5" y="-901" font-family="Helvetica,sans-Serif" font-size="10.00"> </text>
<text text-anchor="start" x="244" y="-886" font-family="Helvetica,sans-Serif" font-size="10.00">+</text>
<text text-anchor="start" x="270.5" y="-886" font-family="Helvetica,sans-Serif" font-size="10.00">RequireCopyIntf()</text>
<polygon fill="#666666" stroke="#666666" points="226.5,-911 226.5,-911 388.5,-911 388.5,-911 226.5,-911"/>
<polygon fill="#666666" stroke="#666666" points="226.5,-896 226.5,-896 388.5,-896 388.5,-896 226.5,-896"/>
<polygon fill="none" stroke="#666666" points="226.5,-879 226.5,-939 388.5,-939 388.5,-879 226.5,-879"/>
</a>
</g>
</g>
<!-- Node9&#45;&gt;Node8 -->
<g id="edge8_Node000008_Node000009" class="edge">
<title>Node9&#45;&gt;Node8</title>
<g id="a_edge8_Node000008_Node000009"><a xlink:title=" ">
<path fill="none" stroke="#63b8ff" d="M340.56,-871.45C350.6,-860.35 361.49,-848.31 371.04,-837.76"/>
<polygon fill="none" stroke="#63b8ff" points="337.89,-869.19 333.77,-878.95 343.08,-873.88 337.89,-869.19"/>
</a>
</g>
</g>
<!-- Node10 -->
<g id="Node000010" class="node">
<title>Node10</title>
<g id="a_Node000010"><a xlink:href="classtracking_1_1base_1_1contract_1_1RequireMoveIntf.html" target="_top" xlink:title=" ">
<polygon fill="white" stroke="transparent" points="570.5,-939 406.5,-939 406.5,-879 570.5,-879 570.5,-939"/>
<text text-anchor="start" x="411.5" y="-927" font-family="Helvetica,sans-Serif" font-size="10.00">tracking::base::contract</text>
<text text-anchor="start" x="411.5" y="-916" font-family="Helvetica,sans-Serif" font-size="10.00">::RequireMoveIntf&lt; ImplType &gt;</text>
<text text-anchor="start" x="486.5" y="-901" font-family="Helvetica,sans-Serif" font-size="10.00"> </text>
<text text-anchor="start" x="424" y="-886" font-family="Helvetica,sans-Serif" font-size="10.00">+</text>
<text text-anchor="start" x="450.5" y="-886" font-family="Helvetica,sans-Serif" font-size="10.00">RequireMoveIntf()</text>
<polygon fill="#666666" stroke="#666666" points="406.5,-911 406.5,-911 570.5,-911 570.5,-911 406.5,-911"/>
<polygon fill="#666666" stroke="#666666" points="406.5,-896 406.5,-896 570.5,-896 570.5,-896 406.5,-896"/>
<polygon fill="none" stroke="#666666" points="406.5,-879 406.5,-939 570.5,-939 570.5,-879 406.5,-879"/>
</a>
</g>
</g>
<!-- Node10&#45;&gt;Node8 -->
<g id="edge9_Node000008_Node000010" class="edge">
<title>Node10&#45;&gt;Node8</title>
<g id="a_edge9_Node000008_Node000010"><a xlink:title=" ">
<path fill="none" stroke="#63b8ff" d="M455.07,-871.45C444.92,-860.35 433.91,-848.31 424.26,-837.76"/>
<polygon fill="none" stroke="#63b8ff" points="452.6,-873.94 461.93,-878.95 457.77,-869.21 452.6,-873.94"/>
</a>
</g>
</g>
<!-- Node11 -->
<g id="Node000011" class="node">
<title>Node11</title>
<g id="a_Node000011"><a xlink:href="structtracking_1_1motion_1_1contract_1_1MotionModelIntf.html" target="_top" xlink:title=" ">
<polygon fill="white" stroke="transparent" points="874.5,-605 686.5,-605 686.5,-545 874.5,-545 874.5,-605"/>
<text text-anchor="start" x="691.5" y="-593" font-family="Helvetica,sans-Serif" font-size="10.00">tracking::motion::contract</text>
<text text-anchor="start" x="691.5" y="-582" font-family="Helvetica,sans-Serif" font-size="10.00">::MotionModelIntf&lt; MotionModel_ &gt;</text>
<text text-anchor="start" x="778.5" y="-567" font-family="Helvetica,sans-Serif" font-size="10.00"> </text>
<text text-anchor="start" x="710" y="-552" font-family="Helvetica,sans-Serif" font-size="10.00">+</text>
<text text-anchor="start" x="742.5" y="-552" font-family="Helvetica,sans-Serif" font-size="10.00">MotionModelIntf()</text>
<polygon fill="#666666" stroke="#666666" points="686.5,-577 686.5,-577 874.5,-577 874.5,-577 686.5,-577"/>
<polygon fill="#666666" stroke="#666666" points="686.5,-562 686.5,-562 874.5,-562 874.5,-562 686.5,-562"/>
<polygon fill="none" stroke="#666666" points="686.5,-545 686.5,-605 874.5,-605 874.5,-545 686.5,-545"/>
</a>
</g>
</g>
<!-- Node11&#45;&gt;Node1 -->
<g id="edge11_Node000001_Node000011" class="edge">
<title>Node11&#45;&gt;Node1</title>
<g id="a_edge11_Node000001_Node000011"><a xlink:title=" ">
<path fill="none" stroke="#63b8ff" d="M760.65,-535.7C739.3,-494.5 703.85,-426.1 670.1,-360.96"/>
<polygon fill="none" stroke="#63b8ff" points="757.67,-537.55 765.38,-544.82 763.89,-534.33 757.67,-537.55"/>
</a>
</g>
</g>
<!-- Node12 -->
<g id="Node000012" class="node">
<title>Node12</title>
<g id="a_Node000012"><a xlink:href="classtracking_1_1base_1_1contract_1_1RequireAbstractIntf.html" target="_top" xlink:title=" ">
<polygon fill="white" stroke="transparent" points="1090.5,-616 892.5,-616 892.5,-534 1090.5,-534 1090.5,-616"/>
<text text-anchor="start" x="897.5" y="-604" font-family="Helvetica,sans-Serif" font-size="10.00">tracking::base::contract</text>
<text text-anchor="start" x="897.5" y="-593" font-family="Helvetica,sans-Serif" font-size="10.00">::RequireAbstractIntf&lt;</text>
<text text-anchor="start" x="897.5" y="-582" font-family="Helvetica,sans-Serif" font-size="10.00"> ExtendedMotionModel&lt; MotionModel</text>
<text text-anchor="start" x="929.5" y="-571" font-family="Helvetica,sans-Serif" font-size="10.00">_, MotionModelTrait_ &gt; &gt;</text>
<text text-anchor="start" x="989.5" y="-556" font-family="Helvetica,sans-Serif" font-size="10.00"> </text>
<text text-anchor="start" x="915" y="-541" font-family="Helvetica,sans-Serif" font-size="10.00">+</text>
<text text-anchor="start" x="946.5" y="-541" font-family="Helvetica,sans-Serif" font-size="10.00">RequireAbstractIntf()</text>
<polygon fill="#666666" stroke="#666666" points="892.5,-566 892.5,-566 1090.5,-566 1090.5,-566 892.5,-566"/>
<polygon fill="#666666" stroke="#666666" points="892.5,-551 892.5,-551 1090.5,-551 1090.5,-551 892.5,-551"/>
<polygon fill="none" stroke="#666666" points="892.5,-534 892.5,-616 1090.5,-616 1090.5,-534 892.5,-534"/>
</a>
</g>
</g>
<!-- Node12&#45;&gt;Node1 -->
<g id="edge12_Node000001_Node000012" class="edge">
<title>Node12&#45;&gt;Node1</title>
<g id="a_edge12_Node000001_Node000012"><a xlink:title=" ">
<path fill="none" stroke="#63b8ff" d="M964.46,-525.1C944.61,-491.69 915.61,-447.57 883.5,-414 819.54,-347.13 733.82,-285.64 670.04,-244.07"/>
<polygon fill="none" stroke="#63b8ff" points="961.47,-526.93 969.55,-533.79 967.51,-523.39 961.47,-526.93"/>
</a>
</g>
</g>
</g>
</svg>
