<?xml version="1.0" encoding="UTF-8" standalone="no"?>
<!DOCTYPE svg PUBLIC "-//W3C//DTD SVG 1.1//EN"
 "http://www.w3.org/Graphics/SVG/1.1/DTD/svg11.dtd">
<!-- Generated by graphviz version 2.43.0 (0)
 -->
<!-- Title: tracking::math::Matrix::setZeros Pages: 1 -->
<svg width="383pt" height="345pt"
 viewBox="0.00 0.00 383.00 345.00" xmlns="http://www.w3.org/2000/svg" xmlns:xlink="http://www.w3.org/1999/xlink">

<svg id="main" version="1.1" xmlns="http://www.w3.org/2000/svg" xmlns:xlink="http://www.w3.org/1999/xlink" xml:space="preserve" onload="init(evt)">
<style type="text/css"><![CDATA[
.node, .edge {opacity: 0.7;}
.node.selected, .edge.selected {opacity: 1;}
.edge:hover path { stroke: red; }
.edge:hover polygon { stroke: red; fill: red; }
]]></style>
<script type="application/ecmascript" xlink:href="svg.min.js"/>
<svg id="graph" class="graph">
<g id="graph0" class="graph" transform="scale(1 1) rotate(0) translate(4 341)">
<title>tracking::math::Matrix::setZeros</title>
<!-- Node1 -->
<g id="Node000001" class="node">
<title>Node1</title>
<g id="a_Node000001"><a xlink:title="Sets all elements to zero.">
<polygon fill="#999999" stroke="#666666" points="375,-208 250,-208 250,-178 375,-178 375,-208"/>
<text text-anchor="start" x="258" y="-196" font-family="Helvetica,sans-Serif" font-size="10.00">tracking::math::Matrix</text>
<text text-anchor="middle" x="312.5" y="-185" font-family="Helvetica,sans-Serif" font-size="10.00">::setZeros</text>
</a>
</g>
</g>
<!-- Node2 -->
<g id="Node000002" class="node">
<title>Node2</title>
<g id="a_Node000002"><a xlink:href="classtracking_1_1env_1_1EgoMotion.html#a253c2bb648180106b9d53f8fcde0be65" target="_top" xlink:title="Calculate Jacobian for circular motion case.">
<polygon fill="white" stroke="#666666" points="184.5,-337 29.5,-337 29.5,-307 184.5,-307 184.5,-337"/>
<text text-anchor="start" x="37.5" y="-325" font-family="Helvetica,sans-Serif" font-size="10.00">tracking::env::EgoMotion</text>
<text text-anchor="middle" x="107" y="-314" font-family="Helvetica,sans-Serif" font-size="10.00">::calcCircularMotionJacobian</text>
</a>
</g>
</g>
<!-- Node1&#45;&gt;Node2 -->
<g id="edge1_Node000001_Node000002" class="edge">
<title>Node1&#45;&gt;Node2</title>
<g id="a_edge1_Node000001_Node000002"><a xlink:title=" ">
<path fill="none" stroke="#63b8ff" d="M296.15,-216.5C279.05,-240.74 249.13,-277.76 214,-298 204.93,-303.23 194.8,-307.31 184.51,-310.51"/>
<polygon fill="#63b8ff" stroke="#63b8ff" points="299.08,-218.42 301.86,-208.2 293.31,-214.46 299.08,-218.42"/>
</a>
</g>
</g>
<!-- Node3 -->
<g id="Node000003" class="node">
<title>Node3</title>
<g id="a_Node000003"><a xlink:href="classtracking_1_1env_1_1EgoMotion.html#a241a57ddc4cd1ab0d7daa7b157a7d8f9" target="_top" xlink:title="Calculate displacement vector.">
<polygon fill="white" stroke="#666666" points="177,-289 37,-289 37,-259 177,-259 177,-289"/>
<text text-anchor="start" x="45" y="-277" font-family="Helvetica,sans-Serif" font-size="10.00">tracking::env::EgoMotion</text>
<text text-anchor="middle" x="107" y="-266" font-family="Helvetica,sans-Serif" font-size="10.00">::calcDisplacementVector</text>
</a>
</g>
</g>
<!-- Node1&#45;&gt;Node3 -->
<g id="edge2_Node000001_Node000003" class="edge">
<title>Node1&#45;&gt;Node3</title>
<g id="a_edge2_Node000001_Node000003"><a xlink:title=" ">
<path fill="none" stroke="#63b8ff" d="M281.65,-213.69C262.95,-225.82 237.93,-240.56 214,-250 202.33,-254.61 189.57,-258.44 177.07,-261.59"/>
<polygon fill="#63b8ff" stroke="#63b8ff" points="283.61,-216.59 290.03,-208.16 279.75,-210.75 283.61,-216.59"/>
</a>
</g>
</g>
<!-- Node4 -->
<g id="Node000004" class="node">
<title>Node4</title>
<g id="a_Node000004"><a xlink:href="classtracking_1_1env_1_1EgoMotion.html#a9883316bd3de3ac7cdf7ef3f6edb0c88" target="_top" xlink:title="Calculate Jacobian for linear motion case.">
<polygon fill="white" stroke="#666666" points="180.5,-241 33.5,-241 33.5,-211 180.5,-211 180.5,-241"/>
<text text-anchor="start" x="41.5" y="-229" font-family="Helvetica,sans-Serif" font-size="10.00">tracking::env::EgoMotion</text>
<text text-anchor="middle" x="107" y="-218" font-family="Helvetica,sans-Serif" font-size="10.00">::calcLinearMotionJacobian</text>
</a>
</g>
</g>
<!-- Node1&#45;&gt;Node4 -->
<g id="edge3_Node000001_Node000004" class="edge">
<title>Node1&#45;&gt;Node4</title>
<g id="a_edge3_Node000001_Node000004"><a xlink:title=" ">
<path fill="none" stroke="#63b8ff" d="M239.76,-204.63C220.66,-207.73 200.01,-211.08 180.86,-214.19"/>
<polygon fill="#63b8ff" stroke="#63b8ff" points="240.58,-208.05 249.89,-202.99 239.46,-201.14 240.58,-208.05"/>
</a>
</g>
</g>
<!-- Node5 -->
<g id="Node000005" class="node">
<title>Node5</title>
<g id="a_Node000005"><a xlink:href="classtracking_1_1motion_1_1StateCovConverter_3_01MotionModelCA_3_01CovarianceMatrixPolicy___01_4cf241df2807db57c4696e14f1c33a9b2.html#aaf37a300d8f7b3ee9e0b1877781cbb19" target="_top" xlink:title=" ">
<polygon fill="white" stroke="#666666" points="214,-192.5 0,-192.5 0,-129.5 214,-129.5 214,-192.5"/>
<text text-anchor="start" x="8" y="-180.5" font-family="Helvetica,sans-Serif" font-size="10.00">tracking::motion::StateCov</text>
<text text-anchor="start" x="8" y="-169.5" font-family="Helvetica,sans-Serif" font-size="10.00">Converter&lt; MotionModelCA</text>
<text text-anchor="start" x="8" y="-158.5" font-family="Helvetica,sans-Serif" font-size="10.00">&lt; CovarianceMatrixPolicy</text>
<text text-anchor="start" x="8" y="-147.5" font-family="Helvetica,sans-Serif" font-size="10.00">_ &gt;, MotionModelCV&lt; CovarianceMatrix</text>
<text text-anchor="middle" x="107" y="-136.5" font-family="Helvetica,sans-Serif" font-size="10.00">Policy_ &gt; &gt;::convertFrom</text>
</a>
</g>
</g>
<!-- Node1&#45;&gt;Node5 -->
<g id="edge4_Node000001_Node000005" class="edge">
<title>Node1&#45;&gt;Node5</title>
<g id="a_edge4_Node000001_Node000005"><a xlink:title=" ">
<path fill="none" stroke="#63b8ff" d="M239.87,-181.74C231.52,-180.42 222.87,-179.06 214.18,-177.7"/>
<polygon fill="#63b8ff" stroke="#63b8ff" points="239.47,-185.22 249.89,-183.31 240.56,-178.3 239.47,-185.22"/>
</a>
</g>
</g>
<!-- Node6 -->
<g id="Node000006" class="node">
<title>Node6</title>
<g id="a_Node000006"><a xlink:href="classtracking_1_1motion_1_1StateCovConverter_3_01MotionModelCV_3_01CovarianceMatrixPolicy___01_4eda10a9c0c0b4c9846df0bedca4b51a2.html#ac312b57d2862336f397aab2fde8fb697" target="_top" xlink:title=" ">
<polygon fill="white" stroke="#666666" points="214,-111.5 0,-111.5 0,-48.5 214,-48.5 214,-111.5"/>
<text text-anchor="start" x="8" y="-99.5" font-family="Helvetica,sans-Serif" font-size="10.00">tracking::motion::StateCov</text>
<text text-anchor="start" x="8" y="-88.5" font-family="Helvetica,sans-Serif" font-size="10.00">Converter&lt; MotionModelCV</text>
<text text-anchor="start" x="8" y="-77.5" font-family="Helvetica,sans-Serif" font-size="10.00">&lt; CovarianceMatrixPolicy</text>
<text text-anchor="start" x="8" y="-66.5" font-family="Helvetica,sans-Serif" font-size="10.00">_ &gt;, MotionModelCA&lt; CovarianceMatrix</text>
<text text-anchor="middle" x="107" y="-55.5" font-family="Helvetica,sans-Serif" font-size="10.00">Policy_ &gt; &gt;::convertFrom</text>
</a>
</g>
</g>
<!-- Node1&#45;&gt;Node6 -->
<g id="edge5_Node000001_Node000006" class="edge">
<title>Node1&#45;&gt;Node6</title>
<g id="a_edge5_Node000001_Node000006"><a xlink:title=" ">
<path fill="none" stroke="#63b8ff" d="M286.29,-171.44C267.32,-155.97 240.18,-135.39 214,-121 208.03,-117.72 201.75,-114.58 195.35,-111.6"/>
<polygon fill="#63b8ff" stroke="#63b8ff" points="284.21,-174.26 294.15,-177.94 288.67,-168.87 284.21,-174.26"/>
</a>
</g>
</g>
<!-- Node7 -->
<g id="Node000007" class="node">
<title>Node7</title>
<g id="a_Node000007"><a xlink:href="classtracking_1_1math_1_1Matrix.html#a6894be1539b5b7aabab4d53b1d09d44a" target="_top" xlink:title="Construct a Zero matrix.">
<polygon fill="white" stroke="#666666" points="169.5,-30 44.5,-30 44.5,0 169.5,0 169.5,-30"/>
<text text-anchor="start" x="52.5" y="-18" font-family="Helvetica,sans-Serif" font-size="10.00">tracking::math::Matrix</text>
<text text-anchor="middle" x="107" y="-7" font-family="Helvetica,sans-Serif" font-size="10.00">::Zeros</text>
</a>
</g>
</g>
<!-- Node1&#45;&gt;Node7 -->
<g id="edge6_Node000001_Node000007" class="edge">
<title>Node1&#45;&gt;Node7</title>
<g id="a_edge6_Node000001_Node000007"><a xlink:title=" ">
<path fill="none" stroke="#63b8ff" d="M302.51,-167.87C288.87,-133.49 259.61,-72.39 214,-40 201.05,-30.8 185.19,-24.95 169.72,-21.24"/>
<polygon fill="#63b8ff" stroke="#63b8ff" points="299.39,-169.53 306.24,-177.62 305.93,-167.03 299.39,-169.53"/>
</a>
</g>
</g>
</g>
</svg>
</svg>

<style type='text/css'>
<![CDATA[
[data-mouse-over-selected='false'] { opacity: 0.7; }
[data-mouse-over-selected='true']  { opacity: 1.0; }
]]>
</style>
<script type="application/ecmascript"><![CDATA[
document.addEventListener('DOMContentLoaded', (event) => {
  highlightEdges();
  highlightAdjacentNodes();
});
]]></script>
</svg>
