<?xml version="1.0" encoding="UTF-8" standalone="no"?>
<!DOCTYPE svg PUBLIC "-//W3C//DTD SVG 1.1//EN"
 "http://www.w3.org/Graphics/SVG/1.1/DTD/svg11.dtd">
<!-- Generated by graphviz version 2.43.0 (0)
 -->
<!-- Title: tracking::observation::IObservationModel&lt; CovarianceMatrixPolicy_ &gt; Pages: 1 -->
<svg width="390pt" height="287pt"
 viewBox="0.00 0.00 390.00 287.00" xmlns="http://www.w3.org/2000/svg" xmlns:xlink="http://www.w3.org/1999/xlink">
<g id="graph0" class="graph" transform="scale(1 1) rotate(0) translate(4 283)">
<title>tracking::observation::IObservationModel&lt; CovarianceMatrixPolicy_ &gt;</title>
<!-- Node1 -->
<g id="Node000001" class="node">
<title>Node1</title>
<g id="a_Node000001"><a xlink:title="Abstract Observation Model interface.">
<polygon fill="#999999" stroke="transparent" points="253.5,-161 107.5,-161 107.5,0 253.5,0 253.5,-161"/>
<text text-anchor="start" x="112.5" y="-148.5" font-family="Helvetica,sans-Serif" font-size="10.00">tracking::observation</text>
<text text-anchor="start" x="112.5" y="-137.5" font-family="Helvetica,sans-Serif" font-size="10.00">::IObservationModel&lt;</text>
<text text-anchor="start" x="112.5" y="-126.5" font-family="Helvetica,sans-Serif" font-size="10.00"> CovarianceMatrixPolicy_ &gt;</text>
<text text-anchor="start" x="178.5" y="-111.5" font-family="Helvetica,sans-Serif" font-size="10.00"> </text>
<text text-anchor="start" x="115.5" y="-96.5" font-family="Helvetica,sans-Serif" font-size="10.00">+</text>
<text text-anchor="start" x="132.5" y="-96.5" font-family="Helvetica,sans-Serif" font-size="10.00">IObservationModel()</text>
<text text-anchor="start" x="115.5" y="-81.5" font-family="Helvetica,sans-Serif" font-size="10.00">+</text>
<text text-anchor="start" x="132.5" y="-81.5" font-family="Helvetica,sans-Serif" font-size="10.00">~IObservationModel()</text>
<text text-anchor="start" x="115.5" y="-66.5" font-family="Helvetica,sans-Serif" font-size="10.00">+</text>
<text text-anchor="start" x="132.5" y="-66.5" font-family="Helvetica,sans-Serif" font-size="10.00">getDim()</text>
<text text-anchor="start" x="115.5" y="-51.5" font-family="Helvetica,sans-Serif" font-size="10.00">#</text>
<text text-anchor="start" x="132.5" y="-51.5" font-family="Helvetica,sans-Serif" font-size="10.00">IObservationModel()</text>
<text text-anchor="start" x="115.5" y="-36.5" font-family="Helvetica,sans-Serif" font-size="10.00">#</text>
<text text-anchor="start" x="132.5" y="-36.5" font-family="Helvetica,sans-Serif" font-size="10.00">IObservationModel()</text>
<text text-anchor="start" x="115.5" y="-21.5" font-family="Helvetica,sans-Serif" font-size="10.00">#</text>
<text text-anchor="start" x="132.5" y="-21.5" font-family="Helvetica,sans-Serif" font-size="10.00">operator=()</text>
<text text-anchor="start" x="115.5" y="-6.5" font-family="Helvetica,sans-Serif" font-size="10.00">#</text>
<text text-anchor="start" x="132.5" y="-6.5" font-family="Helvetica,sans-Serif" font-size="10.00">operator=()</text>
<polygon fill="#666666" stroke="#666666" points="107.5,-121.5 107.5,-121.5 253.5,-121.5 253.5,-121.5 107.5,-121.5"/>
<polygon fill="#666666" stroke="#666666" points="107.5,-106.5 107.5,-106.5 253.5,-106.5 253.5,-106.5 107.5,-106.5"/>
<polygon fill="none" stroke="#666666" points="107.5,0 107.5,-161 253.5,-161 253.5,0 107.5,0"/>
</a>
</g>
</g>
<!-- Node2 -->
<g id="Node000002" class="node">
<title>Node2</title>
<g id="a_Node000002"><a xlink:href="structtracking_1_1math_1_1contract_1_1CovarianceMatrixPolicyIntf.html" target="_top" xlink:title=" ">
<polygon fill="white" stroke="transparent" points="161,-273.5 0,-273.5 0,-202.5 161,-202.5 161,-273.5"/>
<text text-anchor="start" x="9" y="-261" font-family="Helvetica,sans-Serif" font-size="10.00">tracking::math::contract</text>
<text text-anchor="start" x="9" y="-250" font-family="Helvetica,sans-Serif" font-size="10.00">::CovarianceMatrixPolicyIntf</text>
<text text-anchor="start" x="9" y="-239" font-family="Helvetica,sans-Serif" font-size="10.00">&lt; CovarianceMatrixPolicy_ &gt;</text>
<text text-anchor="start" x="79" y="-224" font-family="Helvetica,sans-Serif" font-size="10.00"> </text>
<text text-anchor="start" x="4.5" y="-209" font-family="Helvetica,sans-Serif" font-size="10.00">+</text>
<text text-anchor="start" x="17.5" y="-209" font-family="Helvetica,sans-Serif" font-size="10.00">CovarianceMatrixPolicyIntf()</text>
<polygon fill="#666666" stroke="#666666" points="0.5,-234 0.5,-234 161.5,-234 161.5,-234 0.5,-234"/>
<polygon fill="#666666" stroke="#666666" points="0.5,-219 0.5,-219 161.5,-219 161.5,-219 0.5,-219"/>
<polygon fill="none" stroke="#666666" points="0,-202.5 0,-273.5 161,-273.5 161,-202.5 0,-202.5"/>
</a>
</g>
</g>
<!-- Node2&#45;&gt;Node1 -->
<g id="edge1_Node000001_Node000002" class="edge">
<title>Node2&#45;&gt;Node1</title>
<g id="a_edge1_Node000001_Node000002"><a xlink:title=" ">
<path fill="none" stroke="#63b8ff" d="M108.29,-193.79C114.86,-183.58 122.07,-172.36 129.31,-161.09"/>
<polygon fill="none" stroke="#63b8ff" points="105.16,-192.19 102.69,-202.49 111.05,-195.97 105.16,-192.19"/>
</a>
</g>
</g>
<!-- Node3 -->
<g id="Node000003" class="node">
<title>Node3</title>
<g id="a_Node000003"><a xlink:href="classtracking_1_1base_1_1contract_1_1RequireAbstractIntf.html" target="_top" xlink:title=" ">
<polygon fill="white" stroke="transparent" points="382,-279 179,-279 179,-197 382,-197 382,-279"/>
<text text-anchor="start" x="184.5" y="-267" font-family="Helvetica,sans-Serif" font-size="10.00">tracking::base::contract</text>
<text text-anchor="start" x="184.5" y="-256" font-family="Helvetica,sans-Serif" font-size="10.00">::RequireAbstractIntf&lt;</text>
<text text-anchor="start" x="184.5" y="-245" font-family="Helvetica,sans-Serif" font-size="10.00"> IObservationModel&lt; CovarianceMatrix</text>
<text text-anchor="start" x="252" y="-234" font-family="Helvetica,sans-Serif" font-size="10.00">Policy_ &gt; &gt;</text>
<text text-anchor="start" x="279" y="-219" font-family="Helvetica,sans-Serif" font-size="10.00"> </text>
<text text-anchor="start" x="203" y="-204" font-family="Helvetica,sans-Serif" font-size="10.00">+</text>
<text text-anchor="start" x="235.5" y="-204" font-family="Helvetica,sans-Serif" font-size="10.00">RequireAbstractIntf()</text>
<polygon fill="#666666" stroke="#666666" points="179.5,-229 179.5,-229 382.5,-229 382.5,-229 179.5,-229"/>
<polygon fill="#666666" stroke="#666666" points="179.5,-214 179.5,-214 382.5,-214 382.5,-214 179.5,-214"/>
<polygon fill="none" stroke="#666666" points="179,-197 179,-279 382,-279 382,-197 179,-197"/>
</a>
</g>
</g>
<!-- Node3&#45;&gt;Node1 -->
<g id="edge2_Node000001_Node000003" class="edge">
<title>Node3&#45;&gt;Node1</title>
<g id="a_edge2_Node000001_Node000003"><a xlink:title=" ">
<path fill="none" stroke="#63b8ff" d="M249.31,-188.49C243.73,-179.82 237.79,-170.58 231.82,-161.3"/>
<polygon fill="none" stroke="#63b8ff" points="246.39,-190.44 254.75,-196.95 252.28,-186.65 246.39,-190.44"/>
</a>
</g>
</g>
</g>
</svg>
