<?xml version="1.0" encoding="UTF-8" standalone="no"?>
<!DOCTYPE svg PUBLIC "-//W3C//DTD SVG 1.1//EN"
 "http://www.w3.org/Graphics/SVG/1.1/DTD/svg11.dtd">
<!-- Generated by graphviz version 2.43.0 (0)
 -->
<!-- Title: tracking::math::Point2d&lt; ValueType_ &gt; Pages: 1 -->
<svg width="352pt" height="1167pt"
 viewBox="0.00 0.00 352.00 1167.00" xmlns="http://www.w3.org/2000/svg" xmlns:xlink="http://www.w3.org/1999/xlink">
<g id="graph0" class="graph" transform="scale(1 1) rotate(0) translate(4 1163)">
<title>tracking::math::Point2d&lt; ValueType_ &gt;</title>
<!-- Node1 -->
<g id="Node000001" class="node">
<title>Node1</title>
<g id="a_Node000001"><a xlink:title="2D point with named coordinate access">
<polygon fill="#999999" stroke="transparent" points="233.5,-150 108.5,-150 108.5,0 233.5,0 233.5,-150"/>
<text text-anchor="start" x="114" y="-138" font-family="Helvetica,sans-Serif" font-size="10.00">tracking::math::Point2d</text>
<text text-anchor="start" x="132.5" y="-127" font-family="Helvetica,sans-Serif" font-size="10.00">&lt; ValueType_ &gt;</text>
<text text-anchor="start" x="169.5" y="-112" font-family="Helvetica,sans-Serif" font-size="10.00"> </text>
<text text-anchor="start" x="122.5" y="-97" font-family="Helvetica,sans-Serif" font-size="10.00">+</text>
<text text-anchor="start" x="145" y="-97" font-family="Helvetica,sans-Serif" font-size="10.00">Point2d()</text>
<text text-anchor="start" x="122.5" y="-82" font-family="Helvetica,sans-Serif" font-size="10.00">+</text>
<text text-anchor="start" x="145" y="-82" font-family="Helvetica,sans-Serif" font-size="10.00">Point2d()</text>
<text text-anchor="start" x="122.5" y="-67" font-family="Helvetica,sans-Serif" font-size="10.00">+</text>
<text text-anchor="start" x="145" y="-67" font-family="Helvetica,sans-Serif" font-size="10.00">x()</text>
<text text-anchor="start" x="122.5" y="-52" font-family="Helvetica,sans-Serif" font-size="10.00">+</text>
<text text-anchor="start" x="145" y="-52" font-family="Helvetica,sans-Serif" font-size="10.00">y()</text>
<text text-anchor="start" x="122.5" y="-37" font-family="Helvetica,sans-Serif" font-size="10.00">+</text>
<text text-anchor="start" x="145" y="-37" font-family="Helvetica,sans-Serif" font-size="10.00">x()</text>
<text text-anchor="start" x="122.5" y="-22" font-family="Helvetica,sans-Serif" font-size="10.00">+</text>
<text text-anchor="start" x="145" y="-22" font-family="Helvetica,sans-Serif" font-size="10.00">y()</text>
<text text-anchor="start" x="122.5" y="-7" font-family="Helvetica,sans-Serif" font-size="10.00">+</text>
<text text-anchor="start" x="145" y="-7" font-family="Helvetica,sans-Serif" font-size="10.00">FromValues()</text>
<polygon fill="#666666" stroke="#666666" points="109,-122 109,-122 234,-122 234,-122 109,-122"/>
<polygon fill="#666666" stroke="#666666" points="109,-107 109,-107 234,-107 234,-107 109,-107"/>
<polygon fill="none" stroke="#666666" points="108.5,0 108.5,-150 233.5,-150 233.5,0 108.5,0"/>
</a>
</g>
</g>
<!-- Node2 -->
<g id="Node000002" class="node">
<title>Node2</title>
<g id="a_Node000002"><a xlink:href="classtracking_1_1math_1_1Vector.html" target="_top" xlink:title=" ">
<polygon fill="white" stroke="transparent" points="230.5,-486 111.5,-486 111.5,-186 230.5,-186 230.5,-486"/>
<text text-anchor="start" x="117" y="-474" font-family="Helvetica,sans-Serif" font-size="10.00">tracking::math::Vector</text>
<text text-anchor="start" x="126.5" y="-463" font-family="Helvetica,sans-Serif" font-size="10.00">&lt; ValueType_, 2 &gt;</text>
<text text-anchor="start" x="169.5" y="-448" font-family="Helvetica,sans-Serif" font-size="10.00"> </text>
<text text-anchor="start" x="125.5" y="-433" font-family="Helvetica,sans-Serif" font-size="10.00">+</text>
<text text-anchor="start" x="148" y="-433" font-family="Helvetica,sans-Serif" font-size="10.00">Vector()</text>
<text text-anchor="start" x="125.5" y="-418" font-family="Helvetica,sans-Serif" font-size="10.00">+</text>
<text text-anchor="start" x="148" y="-418" font-family="Helvetica,sans-Serif" font-size="10.00">Vector()</text>
<text text-anchor="start" x="125.5" y="-403" font-family="Helvetica,sans-Serif" font-size="10.00">+</text>
<text text-anchor="start" x="148" y="-403" font-family="Helvetica,sans-Serif" font-size="10.00">Vector()</text>
<text text-anchor="start" x="125.5" y="-388" font-family="Helvetica,sans-Serif" font-size="10.00">+</text>
<text text-anchor="start" x="148" y="-388" font-family="Helvetica,sans-Serif" font-size="10.00">Vector()</text>
<text text-anchor="start" x="125.5" y="-373" font-family="Helvetica,sans-Serif" font-size="10.00">+</text>
<text text-anchor="start" x="148" y="-373" font-family="Helvetica,sans-Serif" font-size="10.00">operator[]()</text>
<text text-anchor="start" x="125.5" y="-358" font-family="Helvetica,sans-Serif" font-size="10.00">+</text>
<text text-anchor="start" x="148" y="-358" font-family="Helvetica,sans-Serif" font-size="10.00">operator[]()</text>
<text text-anchor="start" x="125.5" y="-343" font-family="Helvetica,sans-Serif" font-size="10.00">+</text>
<text text-anchor="start" x="148" y="-343" font-family="Helvetica,sans-Serif" font-size="10.00">operator*()</text>
<text text-anchor="start" x="125.5" y="-328" font-family="Helvetica,sans-Serif" font-size="10.00">+</text>
<text text-anchor="start" x="148" y="-328" font-family="Helvetica,sans-Serif" font-size="10.00">normSq()</text>
<text text-anchor="start" x="125.5" y="-313" font-family="Helvetica,sans-Serif" font-size="10.00">+</text>
<text text-anchor="start" x="148" y="-313" font-family="Helvetica,sans-Serif" font-size="10.00">norm()</text>
<text text-anchor="start" x="125.5" y="-298" font-family="Helvetica,sans-Serif" font-size="10.00">+</text>
<text text-anchor="start" x="148" y="-298" font-family="Helvetica,sans-Serif" font-size="10.00">normalize()</text>
<text text-anchor="start" x="125.5" y="-283" font-family="Helvetica,sans-Serif" font-size="10.00">+</text>
<text text-anchor="start" x="148" y="-283" font-family="Helvetica,sans-Serif" font-size="10.00">normalize()</text>
<text text-anchor="start" x="125.5" y="-268" font-family="Helvetica,sans-Serif" font-size="10.00">+</text>
<text text-anchor="start" x="148" y="-268" font-family="Helvetica,sans-Serif" font-size="10.00">at_unsafe()</text>
<text text-anchor="start" x="125.5" y="-253" font-family="Helvetica,sans-Serif" font-size="10.00">+</text>
<text text-anchor="start" x="148" y="-253" font-family="Helvetica,sans-Serif" font-size="10.00">at_unsafe()</text>
<text text-anchor="start" x="125.5" y="-238" font-family="Helvetica,sans-Serif" font-size="10.00">+</text>
<text text-anchor="start" x="148" y="-238" font-family="Helvetica,sans-Serif" font-size="10.00">Zeros()</text>
<text text-anchor="start" x="125.5" y="-223" font-family="Helvetica,sans-Serif" font-size="10.00">+</text>
<text text-anchor="start" x="148" y="-223" font-family="Helvetica,sans-Serif" font-size="10.00">Ones()</text>
<text text-anchor="start" x="125.5" y="-208" font-family="Helvetica,sans-Serif" font-size="10.00">+</text>
<text text-anchor="start" x="148" y="-208" font-family="Helvetica,sans-Serif" font-size="10.00">UnitVector()</text>
<text text-anchor="start" x="125.5" y="-193" font-family="Helvetica,sans-Serif" font-size="10.00">+</text>
<text text-anchor="start" x="148" y="-193" font-family="Helvetica,sans-Serif" font-size="10.00">FromList()</text>
<polygon fill="#666666" stroke="#666666" points="112,-458 112,-458 231,-458 231,-458 112,-458"/>
<polygon fill="#666666" stroke="#666666" points="112,-443 112,-443 231,-443 231,-443 112,-443"/>
<polygon fill="none" stroke="#666666" points="111.5,-186 111.5,-486 230.5,-486 230.5,-186 111.5,-186"/>
</a>
</g>
</g>
<!-- Node2&#45;&gt;Node1 -->
<g id="edge1_Node000001_Node000002" class="edge">
<title>Node2&#45;&gt;Node1</title>
<g id="a_edge1_Node000001_Node000002"><a xlink:title=" ">
<path fill="none" stroke="#63b8ff" d="M171,-175.56C171,-166.88 171,-158.38 171,-150.24"/>
<polygon fill="none" stroke="#63b8ff" points="167.5,-175.84 171,-185.84 174.5,-175.84 167.5,-175.84"/>
</a>
</g>
</g>
<!-- Node3 -->
<g id="Node000003" class="node">
<title>Node3</title>
<g id="a_Node000003"><a xlink:href="classtracking_1_1math_1_1Matrix.html" target="_top" xlink:title=" ">
<polygon fill="white" stroke="transparent" points="240.5,-945 101.5,-945 101.5,-522 240.5,-522 240.5,-945"/>
<text text-anchor="start" x="115" y="-932.5" font-family="Helvetica,sans-Serif" font-size="10.00">tracking::math::Matrix</text>
<text text-anchor="start" x="115" y="-921.5" font-family="Helvetica,sans-Serif" font-size="10.00">&lt; ValueType_, Size_, 1,</text>
<text text-anchor="start" x="154.5" y="-910.5" font-family="Helvetica,sans-Serif" font-size="10.00"> true &gt;</text>
<text text-anchor="start" x="106" y="-895.5" font-family="Helvetica,sans-Serif" font-size="10.00">+</text>
<text text-anchor="start" x="119" y="-895.5" font-family="Helvetica,sans-Serif" font-size="10.00">Rows</text>
<text text-anchor="start" x="106" y="-880.5" font-family="Helvetica,sans-Serif" font-size="10.00">+</text>
<text text-anchor="start" x="119" y="-880.5" font-family="Helvetica,sans-Serif" font-size="10.00">Cols</text>
<text text-anchor="start" x="106" y="-865.5" font-family="Helvetica,sans-Serif" font-size="10.00">+</text>
<text text-anchor="start" x="119" y="-865.5" font-family="Helvetica,sans-Serif" font-size="10.00">IsRowMajor</text>
<text text-anchor="start" x="106" y="-850.5" font-family="Helvetica,sans-Serif" font-size="10.00">#</text>
<text text-anchor="start" x="119" y="-850.5" font-family="Helvetica,sans-Serif" font-size="10.00">RowsInMem</text>
<text text-anchor="start" x="106" y="-835.5" font-family="Helvetica,sans-Serif" font-size="10.00">#</text>
<text text-anchor="start" x="119" y="-835.5" font-family="Helvetica,sans-Serif" font-size="10.00">ColsInMem</text>
<text text-anchor="start" x="108.5" y="-820.5" font-family="Helvetica,sans-Serif" font-size="10.00">&#45;</text>
<text text-anchor="start" x="119" y="-820.5" font-family="Helvetica,sans-Serif" font-size="10.00">_data</text>
<text text-anchor="start" x="106" y="-805.5" font-family="Helvetica,sans-Serif" font-size="10.00">+</text>
<text text-anchor="start" x="119" y="-805.5" font-family="Helvetica,sans-Serif" font-size="10.00">Matrix()</text>
<text text-anchor="start" x="106" y="-790.5" font-family="Helvetica,sans-Serif" font-size="10.00">+</text>
<text text-anchor="start" x="119" y="-790.5" font-family="Helvetica,sans-Serif" font-size="10.00">Matrix()</text>
<text text-anchor="start" x="106" y="-775.5" font-family="Helvetica,sans-Serif" font-size="10.00">+</text>
<text text-anchor="start" x="119" y="-775.5" font-family="Helvetica,sans-Serif" font-size="10.00">Matrix()</text>
<text text-anchor="start" x="106" y="-760.5" font-family="Helvetica,sans-Serif" font-size="10.00">+</text>
<text text-anchor="start" x="119" y="-760.5" font-family="Helvetica,sans-Serif" font-size="10.00">operator=()</text>
<text text-anchor="start" x="106" y="-745.5" font-family="Helvetica,sans-Serif" font-size="10.00">+</text>
<text text-anchor="start" x="119" y="-745.5" font-family="Helvetica,sans-Serif" font-size="10.00">operator=()</text>
<text text-anchor="start" x="106" y="-730.5" font-family="Helvetica,sans-Serif" font-size="10.00">+</text>
<text text-anchor="start" x="119" y="-730.5" font-family="Helvetica,sans-Serif" font-size="10.00">~Matrix()</text>
<text text-anchor="start" x="106" y="-715.5" font-family="Helvetica,sans-Serif" font-size="10.00">+</text>
<text text-anchor="start" x="119" y="-715.5" font-family="Helvetica,sans-Serif" font-size="10.00">operator()()</text>
<text text-anchor="start" x="106" y="-700.5" font-family="Helvetica,sans-Serif" font-size="10.00">+</text>
<text text-anchor="start" x="119" y="-700.5" font-family="Helvetica,sans-Serif" font-size="10.00">operator()()</text>
<text text-anchor="start" x="106" y="-685.5" font-family="Helvetica,sans-Serif" font-size="10.00">+</text>
<text text-anchor="start" x="119" y="-685.5" font-family="Helvetica,sans-Serif" font-size="10.00">operator==()</text>
<text text-anchor="start" x="106" y="-670.5" font-family="Helvetica,sans-Serif" font-size="10.00">+</text>
<text text-anchor="start" x="119" y="-670.5" font-family="Helvetica,sans-Serif" font-size="10.00">operator!=()</text>
<text text-anchor="start" x="119" y="-655.5" font-family="Helvetica,sans-Serif" font-size="10.00">and 27 more...</text>
<text text-anchor="start" x="106" y="-640.5" font-family="Helvetica,sans-Serif" font-size="10.00">+</text>
<text text-anchor="start" x="119" y="-640.5" font-family="Helvetica,sans-Serif" font-size="10.00">Zeros()</text>
<text text-anchor="start" x="106" y="-625.5" font-family="Helvetica,sans-Serif" font-size="10.00">+</text>
<text text-anchor="start" x="119" y="-625.5" font-family="Helvetica,sans-Serif" font-size="10.00">Ones()</text>
<text text-anchor="start" x="106" y="-610.5" font-family="Helvetica,sans-Serif" font-size="10.00">+</text>
<text text-anchor="start" x="119" y="-610.5" font-family="Helvetica,sans-Serif" font-size="10.00">FromList()</text>
<text text-anchor="start" x="106" y="-595.5" font-family="Helvetica,sans-Serif" font-size="10.00">#</text>
<text text-anchor="start" x="119" y="-595.5" font-family="Helvetica,sans-Serif" font-size="10.00">data()</text>
<text text-anchor="start" x="106" y="-580.5" font-family="Helvetica,sans-Serif" font-size="10.00">#</text>
<text text-anchor="start" x="119" y="-580.5" font-family="Helvetica,sans-Serif" font-size="10.00">data()</text>
<text text-anchor="start" x="108.5" y="-565.5" font-family="Helvetica,sans-Serif" font-size="10.00">&#45;</text>
<text text-anchor="start" x="119" y="-565.5" font-family="Helvetica,sans-Serif" font-size="10.00">inplace_div_by_int</text>
<text text-anchor="start" x="119" y="-554.5" font-family="Helvetica,sans-Serif" font-size="10.00">_unsafe()</text>
<text text-anchor="start" x="108.5" y="-539.5" font-family="Helvetica,sans-Serif" font-size="10.00">&#45;</text>
<text text-anchor="start" x="119" y="-539.5" font-family="Helvetica,sans-Serif" font-size="10.00">inplace_mul_by_inverse</text>
<text text-anchor="start" x="119" y="-528.5" font-family="Helvetica,sans-Serif" font-size="10.00">_factor_unsafe()</text>
<polygon fill="#666666" stroke="#666666" points="102,-905.5 102,-905.5 241,-905.5 241,-905.5 102,-905.5"/>
<polygon fill="#666666" stroke="#666666" points="102,-815.5 102,-815.5 117,-815.5 117,-815.5 102,-815.5"/>
<polygon fill="#666666" stroke="#666666" points="117,-815.5 117,-815.5 241,-815.5 241,-815.5 117,-815.5"/>
<polygon fill="none" stroke="#666666" points="101.5,-522 101.5,-945 240.5,-945 240.5,-522 101.5,-522"/>
</a>
</g>
</g>
<!-- Node3&#45;&gt;Node2 -->
<g id="edge2_Node000002_Node000003" class="edge">
<title>Node3&#45;&gt;Node2</title>
<g id="a_edge2_Node000002_Node000003"><a xlink:title=" ">
<path fill="none" stroke="#63b8ff" d="M171,-511.64C171,-503.06 171,-494.55 171,-486.16"/>
<polygon fill="none" stroke="#63b8ff" points="167.5,-511.72 171,-521.72 174.5,-511.72 167.5,-511.72"/>
</a>
</g>
</g>
<!-- Node4 -->
<g id="Node000004" class="node">
<title>Node4</title>
<g id="a_Node000004"><a xlink:href="structtracking_1_1math_1_1contract_1_1MatrixIntf.html" target="_top" xlink:title=" ">
<polygon fill="white" stroke="transparent" points="255,-1063 87,-1063 87,-981 255,-981 255,-1063"/>
<text text-anchor="start" x="92" y="-1051" font-family="Helvetica,sans-Serif" font-size="10.00">tracking::math::contract</text>
<text text-anchor="start" x="92" y="-1040" font-family="Helvetica,sans-Serif" font-size="10.00">::MatrixIntf&lt; Matrix&lt; ValueType</text>
<text text-anchor="start" x="92" y="-1029" font-family="Helvetica,sans-Serif" font-size="10.00">_, Rows_, Cols_, IsRowMajor</text>
<text text-anchor="start" x="138" y="-1018" font-family="Helvetica,sans-Serif" font-size="10.00">_ &gt;, Matrix &gt;</text>
<text text-anchor="start" x="169" y="-1003" font-family="Helvetica,sans-Serif" font-size="10.00"> </text>
<text text-anchor="start" x="113.5" y="-988" font-family="Helvetica,sans-Serif" font-size="10.00">+</text>
<text text-anchor="start" x="149" y="-988" font-family="Helvetica,sans-Serif" font-size="10.00">MatrixIntf()</text>
<polygon fill="#666666" stroke="#666666" points="87,-1013 87,-1013 255,-1013 255,-1013 87,-1013"/>
<polygon fill="#666666" stroke="#666666" points="87,-998 87,-998 255,-998 255,-998 87,-998"/>
<polygon fill="none" stroke="#666666" points="87,-981 87,-1063 255,-1063 255,-981 87,-981"/>
</a>
</g>
</g>
<!-- Node4&#45;&gt;Node3 -->
<g id="edge3_Node000003_Node000004" class="edge">
<title>Node4&#45;&gt;Node3</title>
<g id="a_edge3_Node000003_Node000004"><a xlink:title=" ">
<path fill="none" stroke="#63b8ff" d="M171,-970.79C171,-962.83 171,-954.18 171,-945.07"/>
<polygon fill="none" stroke="#63b8ff" points="167.5,-970.86 171,-980.86 174.5,-970.86 167.5,-970.86"/>
</a>
</g>
</g>
<!-- Node5 -->
<g id="Node000005" class="node">
<title>Node5</title>
<g id="a_Node000005"><a xlink:href="classtracking_1_1base_1_1contract_1_1RequireCopyIntf.html" target="_top" xlink:title=" ">
<polygon fill="white" stroke="transparent" points="162,-1159 0,-1159 0,-1099 162,-1099 162,-1159"/>
<text text-anchor="start" x="5" y="-1147" font-family="Helvetica,sans-Serif" font-size="10.00">tracking::base::contract</text>
<text text-anchor="start" x="5" y="-1136" font-family="Helvetica,sans-Serif" font-size="10.00">::RequireCopyIntf&lt; ImplType &gt;</text>
<text text-anchor="start" x="79" y="-1121" font-family="Helvetica,sans-Serif" font-size="10.00"> </text>
<text text-anchor="start" x="17.5" y="-1106" font-family="Helvetica,sans-Serif" font-size="10.00">+</text>
<text text-anchor="start" x="44" y="-1106" font-family="Helvetica,sans-Serif" font-size="10.00">RequireCopyIntf()</text>
<polygon fill="#666666" stroke="#666666" points="0,-1131 0,-1131 162,-1131 162,-1131 0,-1131"/>
<polygon fill="#666666" stroke="#666666" points="0,-1116 0,-1116 162,-1116 162,-1116 0,-1116"/>
<polygon fill="none" stroke="#666666" points="0,-1099 0,-1159 162,-1159 162,-1099 0,-1099"/>
</a>
</g>
</g>
<!-- Node5&#45;&gt;Node4 -->
<g id="edge4_Node000004_Node000005" class="edge">
<title>Node5&#45;&gt;Node4</title>
<g id="a_edge4_Node000004_Node000005"><a xlink:title=" ">
<path fill="none" stroke="#63b8ff" d="M112.71,-1091.01C120.45,-1081.97 128.78,-1072.26 136.65,-1063.08"/>
<polygon fill="none" stroke="#63b8ff" points="109.92,-1088.88 106.07,-1098.75 115.24,-1093.44 109.92,-1088.88"/>
</a>
</g>
</g>
<!-- Node6 -->
<g id="Node000006" class="node">
<title>Node6</title>
<g id="a_Node000006"><a xlink:href="classtracking_1_1base_1_1contract_1_1RequireMoveIntf.html" target="_top" xlink:title=" ">
<polygon fill="white" stroke="transparent" points="344,-1159 180,-1159 180,-1099 344,-1099 344,-1159"/>
<text text-anchor="start" x="185" y="-1147" font-family="Helvetica,sans-Serif" font-size="10.00">tracking::base::contract</text>
<text text-anchor="start" x="185" y="-1136" font-family="Helvetica,sans-Serif" font-size="10.00">::RequireMoveIntf&lt; ImplType &gt;</text>
<text text-anchor="start" x="260" y="-1121" font-family="Helvetica,sans-Serif" font-size="10.00"> </text>
<text text-anchor="start" x="197.5" y="-1106" font-family="Helvetica,sans-Serif" font-size="10.00">+</text>
<text text-anchor="start" x="224" y="-1106" font-family="Helvetica,sans-Serif" font-size="10.00">RequireMoveIntf()</text>
<polygon fill="#666666" stroke="#666666" points="180,-1131 180,-1131 344,-1131 344,-1131 180,-1131"/>
<polygon fill="#666666" stroke="#666666" points="180,-1116 180,-1116 344,-1116 344,-1116 180,-1116"/>
<polygon fill="none" stroke="#666666" points="180,-1099 180,-1159 344,-1159 344,-1099 180,-1099"/>
</a>
</g>
</g>
<!-- Node6&#45;&gt;Node4 -->
<g id="edge5_Node000004_Node000006" class="edge">
<title>Node6&#45;&gt;Node4</title>
<g id="a_edge5_Node000004_Node000006"><a xlink:title=" ">
<path fill="none" stroke="#63b8ff" d="M229.94,-1091.01C222.11,-1081.97 213.69,-1072.26 205.73,-1063.08"/>
<polygon fill="none" stroke="#63b8ff" points="227.46,-1093.49 236.65,-1098.75 232.75,-1088.9 227.46,-1093.49"/>
</a>
</g>
</g>
</g>
</svg>
