<?xml version="1.0" encoding="UTF-8" standalone="no"?>
<!DOCTYPE svg PUBLIC "-//W3C//DTD SVG 1.1//EN"
 "http://www.w3.org/Graphics/SVG/1.1/DTD/svg11.dtd">
<!-- Generated by graphviz version 2.43.0 (0)
 -->
<!-- Title: tracking::math::CovarianceMatrixFull::apaT Pages: 1 -->
<svg width="543pt" height="135pt"
 viewBox="0.00 0.00 543.00 134.50" xmlns="http://www.w3.org/2000/svg" xmlns:xlink="http://www.w3.org/1999/xlink">
<g id="graph0" class="graph" transform="scale(1 1) rotate(0) translate(4 130.5)">
<title>tracking::math::CovarianceMatrixFull::apaT</title>
<!-- Node1 -->
<g id="Node000001" class="node">
<title>Node1</title>
<g id="a_Node000001"><a xlink:title="Compute A*P*A^T in&#45;place (covariance propagation)">
<polygon fill="#999999" stroke="#666666" points="149,-83.5 0,-83.5 0,-53.5 149,-53.5 149,-83.5"/>
<text text-anchor="start" x="8" y="-71.5" font-family="Helvetica,sans-Serif" font-size="10.00">tracking::math::Covariance</text>
<text text-anchor="middle" x="74.5" y="-60.5" font-family="Helvetica,sans-Serif" font-size="10.00">MatrixFull::apaT</text>
</a>
</g>
</g>
<!-- Node2 -->
<g id="Node000002" class="node">
<title>Node2</title>
<g id="a_Node000002"><a xlink:href="namespacetracking_1_1math.html#ae8c2f6288ea8b30c11b8f6d055edbc06" target="_top" xlink:title=" ">
<polygon fill="white" stroke="#666666" points="334.5,-121 194.5,-121 194.5,-102 334.5,-102 334.5,-121"/>
<text text-anchor="middle" x="264.5" y="-109" font-family="Helvetica,sans-Serif" font-size="10.00">tracking::math::operator*</text>
</a>
</g>
</g>
<!-- Node1&#45;&gt;Node2 -->
<g id="edge1_Node000001_Node000002" class="edge">
<title>Node1&#45;&gt;Node2</title>
<g id="a_edge1_Node000001_Node000002"><a xlink:title=" ">
<path fill="none" stroke="#63b8ff" d="M141.25,-83.54C164.48,-88.85 190.25,-94.75 212.12,-99.75"/>
<polygon fill="#63b8ff" stroke="#63b8ff" points="211.34,-103.16 221.87,-101.98 212.9,-96.34 211.34,-103.16"/>
</a>
</g>
</g>
<!-- Node4 -->
<g id="Node000004" class="node">
<title>Node4</title>
<g id="a_Node000004"><a xlink:href="classtracking_1_1math_1_1SquareMatrix.html#aa28cafb64caa7a86fd8871ecb30e993d" target="_top" xlink:title="Symmetrize the matrix by averaging with its transpose.">
<polygon fill="white" stroke="#666666" points="344,-83.5 185,-83.5 185,-53.5 344,-53.5 344,-83.5"/>
<text text-anchor="start" x="193" y="-71.5" font-family="Helvetica,sans-Serif" font-size="10.00">tracking::math::SquareMatrix</text>
<text text-anchor="middle" x="264.5" y="-60.5" font-family="Helvetica,sans-Serif" font-size="10.00">::symmetrize</text>
</a>
</g>
</g>
<!-- Node1&#45;&gt;Node4 -->
<g id="edge3_Node000001_Node000004" class="edge">
<title>Node1&#45;&gt;Node4</title>
<g id="a_edge3_Node000001_Node000004"><a xlink:title=" ">
<path fill="none" stroke="#63b8ff" d="M149.26,-68.5C157.69,-68.5 166.35,-68.5 174.94,-68.5"/>
<polygon fill="#63b8ff" stroke="#63b8ff" points="174.99,-72 184.99,-68.5 174.99,-65 174.99,-72"/>
</a>
</g>
</g>
<!-- Node5 -->
<g id="Node000005" class="node">
<title>Node5</title>
<g id="a_Node000005"><a xlink:href="classtracking_1_1math_1_1SquareMatrix.html#a83aee3d96b9a570cf86fd8b82151f1a3" target="_top" xlink:title="Fast transpose without changing the layout (zero&#45;copy view)">
<polygon fill="white" stroke="#666666" points="344,-35.5 185,-35.5 185,-5.5 344,-5.5 344,-35.5"/>
<text text-anchor="start" x="193" y="-23.5" font-family="Helvetica,sans-Serif" font-size="10.00">tracking::math::SquareMatrix</text>
<text text-anchor="middle" x="264.5" y="-12.5" font-family="Helvetica,sans-Serif" font-size="10.00">::transpose</text>
</a>
</g>
</g>
<!-- Node1&#45;&gt;Node5 -->
<g id="edge4_Node000001_Node000005" class="edge">
<title>Node1&#45;&gt;Node5</title>
<g id="a_edge4_Node000001_Node000005"><a xlink:title=" ">
<path fill="none" stroke="#63b8ff" d="M134.47,-53.44C153.63,-48.55 175.06,-43.08 194.86,-38.02"/>
<polygon fill="#63b8ff" stroke="#63b8ff" points="195.92,-41.37 204.74,-35.5 194.19,-34.59 195.92,-41.37"/>
</a>
</g>
</g>
<!-- Node3 -->
<g id="Node000003" class="node">
<title>Node3</title>
<g id="a_Node000003"><a xlink:href="classtracking_1_1math_1_1Matrix.html#a103ed8d3af53ba865c6a00784ed62de6" target="_top" xlink:title="Unsafe element read&#45;only access (no bounds checking)">
<polygon fill="white" stroke="#666666" points="520,-126.5 395,-126.5 395,-96.5 520,-96.5 520,-126.5"/>
<text text-anchor="start" x="403" y="-114.5" font-family="Helvetica,sans-Serif" font-size="10.00">tracking::math::Matrix</text>
<text text-anchor="middle" x="457.5" y="-103.5" font-family="Helvetica,sans-Serif" font-size="10.00">::at_unsafe</text>
</a>
</g>
</g>
<!-- Node2&#45;&gt;Node3 -->
<g id="edge2_Node000002_Node000003" class="edge">
<title>Node2&#45;&gt;Node3</title>
<g id="a_edge2_Node000002_Node000003"><a xlink:title=" ">
<path fill="none" stroke="#63b8ff" d="M334.73,-111.5C350.99,-111.5 368.36,-111.5 384.74,-111.5"/>
<polygon fill="#63b8ff" stroke="#63b8ff" points="384.79,-115 394.79,-111.5 384.79,-108 384.79,-115"/>
</a>
</g>
</g>
<!-- Node6 -->
<g id="Node000006" class="node">
<title>Node6</title>
<g id="a_Node000006"><a xlink:href="classtracking_1_1math_1_1Matrix.html#a478f0eea63246477537c07d88584371d" target="_top" xlink:title="Fast transpose without changing the layout (zero&#45;copy view)">
<polygon fill="white" stroke="#666666" points="535,-41 380,-41 380,0 535,0 535,-41"/>
<text text-anchor="start" x="388" y="-29" font-family="Helvetica,sans-Serif" font-size="10.00">tracking::math::Matrix</text>
<text text-anchor="start" x="388" y="-18" font-family="Helvetica,sans-Serif" font-size="10.00">&lt; ValueType_, Size_, Size</text>
<text text-anchor="middle" x="457.5" y="-7" font-family="Helvetica,sans-Serif" font-size="10.00">_, IsRowMajor_ &gt;::transpose</text>
</a>
</g>
</g>
<!-- Node5&#45;&gt;Node6 -->
<g id="edge5_Node000005_Node000006" class="edge">
<title>Node5&#45;&gt;Node6</title>
<g id="a_edge5_Node000005_Node000006"><a xlink:title=" ">
<path fill="none" stroke="#63b8ff" d="M344.01,-20.5C352.52,-20.5 361.21,-20.5 369.8,-20.5"/>
<polygon fill="#63b8ff" stroke="#63b8ff" points="369.83,-24 379.83,-20.5 369.83,-17 369.83,-24"/>
</a>
</g>
</g>
</g>
</svg>
