<?xml version="1.0" encoding="UTF-8" standalone="no"?>
<!DOCTYPE svg PUBLIC "-//W3C//DTD SVG 1.1//EN"
 "http://www.w3.org/Graphics/SVG/1.1/DTD/svg11.dtd">
<!-- Generated by graphviz version 2.43.0 (0)
 -->
<!-- Title: tracking::filter::KalmanFilter::predictCovariance Pages: 1 -->
<svg width="530pt" height="66pt"
 viewBox="0.00 0.00 530.00 65.50" xmlns="http://www.w3.org/2000/svg" xmlns:xlink="http://www.w3.org/1999/xlink">
<g id="graph0" class="graph" transform="scale(1 1) rotate(0) translate(4 61.5)">
<title>tracking::filter::KalmanFilter::predictCovariance</title>
<!-- Node1 -->
<g id="Node000001" class="node">
<title>Node1</title>
<g id="a_Node000001"><a xlink:title=" ">
<polygon fill="#999999" stroke="#666666" points="136,-35.5 0,-35.5 0,-5.5 136,-5.5 136,-35.5"/>
<text text-anchor="start" x="8" y="-23.5" font-family="Helvetica,sans-Serif" font-size="10.00">tracking::filter::Kalman</text>
<text text-anchor="middle" x="68" y="-12.5" font-family="Helvetica,sans-Serif" font-size="10.00">Filter::predictCovariance</text>
</a>
</g>
</g>
<!-- Node2 -->
<g id="Node000002" class="node">
<title>Node2</title>
<g id="a_Node000002"><a xlink:href="classtracking_1_1math_1_1SquareMatrix.html#a83aee3d96b9a570cf86fd8b82151f1a3" target="_top" xlink:title="Fast transpose without changing the layout (zero&#45;copy view)">
<polygon fill="white" stroke="#666666" points="331,-57.5 172,-57.5 172,-27.5 331,-27.5 331,-57.5"/>
<text text-anchor="start" x="180" y="-45.5" font-family="Helvetica,sans-Serif" font-size="10.00">tracking::math::SquareMatrix</text>
<text text-anchor="middle" x="251.5" y="-34.5" font-family="Helvetica,sans-Serif" font-size="10.00">::transpose</text>
</a>
</g>
</g>
<!-- Node1&#45;&gt;Node2 -->
<g id="edge1_Node000001_Node000002" class="edge">
<title>Node1&#45;&gt;Node2</title>
<g id="a_edge1_Node000001_Node000002"><a xlink:title=" ">
<path fill="none" stroke="#63b8ff" d="M136.07,-28.63C144.41,-29.64 153.05,-30.69 161.66,-31.73"/>
<polygon fill="#63b8ff" stroke="#63b8ff" points="161.39,-35.22 171.74,-32.95 162.23,-28.28 161.39,-35.22"/>
</a>
</g>
</g>
<!-- Node3 -->
<g id="Node000003" class="node">
<title>Node3</title>
<g id="a_Node000003"><a xlink:href="classtracking_1_1math_1_1Matrix.html#a478f0eea63246477537c07d88584371d" target="_top" xlink:title="Fast transpose without changing the layout (zero&#45;copy view)">
<polygon fill="white" stroke="#666666" points="522,-41 367,-41 367,0 522,0 522,-41"/>
<text text-anchor="start" x="375" y="-29" font-family="Helvetica,sans-Serif" font-size="10.00">tracking::math::Matrix</text>
<text text-anchor="start" x="375" y="-18" font-family="Helvetica,sans-Serif" font-size="10.00">&lt; ValueType_, Size_, Size</text>
<text text-anchor="middle" x="444.5" y="-7" font-family="Helvetica,sans-Serif" font-size="10.00">_, IsRowMajor_ &gt;::transpose</text>
</a>
</g>
</g>
<!-- Node1&#45;&gt;Node3 -->
<g id="edge3_Node000001_Node000003" class="edge">
<title>Node1&#45;&gt;Node3</title>
<g id="a_edge3_Node000001_Node000003"><a xlink:title=" ">
<path fill="none" stroke="#63b8ff" d="M136.04,-19.01C148.01,-18.8 160.38,-18.61 172,-18.5 242.66,-17.81 260.34,-17.87 331,-18.5 339.35,-18.57 348.06,-18.68 356.76,-18.8"/>
<polygon fill="#63b8ff" stroke="#63b8ff" points="356.9,-22.31 366.95,-18.96 357,-15.31 356.9,-22.31"/>
</a>
</g>
</g>
<!-- Node2&#45;&gt;Node3 -->
<g id="edge2_Node000002_Node000003" class="edge">
<title>Node2&#45;&gt;Node3</title>
<g id="a_edge2_Node000002_Node000003"><a xlink:title=" ">
<path fill="none" stroke="#63b8ff" d="M331.01,-33.46C339.52,-32.48 348.21,-31.48 356.8,-30.49"/>
<polygon fill="#63b8ff" stroke="#63b8ff" points="357.3,-33.95 366.83,-29.33 356.5,-27 357.3,-33.95"/>
</a>
</g>
</g>
</g>
</svg>
