<?xml version="1.0" encoding="UTF-8" standalone="no"?>
<!DOCTYPE svg PUBLIC "-//W3C//DTD SVG 1.1//EN"
 "http://www.w3.org/Graphics/SVG/1.1/DTD/svg11.dtd">
<!-- Generated by graphviz version 2.43.0 (0)
 -->
<!-- Title: tracking::math::SquareMatrix::Identity Pages: 1 -->
<svg width="721pt" height="182pt"
 viewBox="0.00 0.00 721.00 182.00" xmlns="http://www.w3.org/2000/svg" xmlns:xlink="http://www.w3.org/1999/xlink">
<g id="graph0" class="graph" transform="scale(1 1) rotate(0) translate(4 178)">
<title>tracking::math::SquareMatrix::Identity</title>
<!-- Node1 -->
<g id="Node000001" class="node">
<title>Node1</title>
<g id="a_Node000001"><a xlink:title="Construct an identity matrix with ones on the diagonal and zeros elsewhere.">
<polygon fill="#999999" stroke="#666666" points="713,-102 554,-102 554,-72 713,-72 713,-102"/>
<text text-anchor="start" x="562" y="-90" font-family="Helvetica,sans-Serif" font-size="10.00">tracking::math::SquareMatrix</text>
<text text-anchor="middle" x="633.5" y="-79" font-family="Helvetica,sans-Serif" font-size="10.00">::Identity</text>
</a>
</g>
</g>
<!-- Node2 -->
<g id="Node000002" class="node">
<title>Node2</title>
<g id="a_Node000002"><a xlink:href="classtracking_1_1math_1_1SquareMatrix.html#aa0f3f741e9c040da36cfb465e630bf6b" target="_top" xlink:title="Performs Householder QR decomposition of a square matrix.">
<polygon fill="white" stroke="#666666" points="518,-174 359,-174 359,-144 518,-144 518,-174"/>
<text text-anchor="start" x="367" y="-162" font-family="Helvetica,sans-Serif" font-size="10.00">tracking::math::SquareMatrix</text>
<text text-anchor="middle" x="438.5" y="-151" font-family="Helvetica,sans-Serif" font-size="10.00">::householderQR</text>
</a>
</g>
</g>
<!-- Node1&#45;&gt;Node2 -->
<g id="edge1_Node000001_Node000002" class="edge">
<title>Node1&#45;&gt;Node2</title>
<g id="a_edge1_Node000001_Node000002"><a xlink:title=" ">
<path fill="none" stroke="#63b8ff" d="M589.37,-106.28C568.09,-115.49 541.91,-126.36 518,-135 509.42,-138.1 500.23,-141.15 491.26,-143.98"/>
<polygon fill="#63b8ff" stroke="#63b8ff" points="591.01,-109.39 598.78,-102.18 588.22,-102.97 591.01,-109.39"/>
</a>
</g>
</g>
<!-- Node3 -->
<g id="Node000003" class="node">
<title>Node3</title>
<g id="a_Node000003"><a xlink:href="classtracking_1_1math_1_1SquareMatrix.html#a911f645174c9ebb677deeeef12a71a34" target="_top" xlink:title="Compute the matrix inverse using QR decomposition.">
<polygon fill="white" stroke="#666666" points="518,-126 359,-126 359,-96 518,-96 518,-126"/>
<text text-anchor="start" x="367" y="-114" font-family="Helvetica,sans-Serif" font-size="10.00">tracking::math::SquareMatrix</text>
<text text-anchor="middle" x="438.5" y="-103" font-family="Helvetica,sans-Serif" font-size="10.00">::inverse</text>
</a>
</g>
</g>
<!-- Node1&#45;&gt;Node3 -->
<g id="edge2_Node000001_Node000003" class="edge">
<title>Node1&#45;&gt;Node3</title>
<g id="a_edge2_Node000001_Node000003"><a xlink:title=" ">
<path fill="none" stroke="#63b8ff" d="M543.98,-98.01C535.39,-99.08 526.72,-100.15 518.24,-101.21"/>
<polygon fill="#63b8ff" stroke="#63b8ff" points="544.51,-101.47 554,-96.76 543.64,-94.52 544.51,-101.47"/>
</a>
</g>
</g>
<!-- Node6 -->
<g id="Node000006" class="node">
<title>Node6</title>
<g id="a_Node000006"><a xlink:href="classtracking_1_1math_1_1SquareMatrix.html#aedb954fb72fb9da713fe0d36b826b681" target="_top" xlink:title="Checks if the matrix is orthogonal within a specified tolerance.">
<polygon fill="white" stroke="#666666" points="518,-78 359,-78 359,-48 518,-48 518,-78"/>
<text text-anchor="start" x="367" y="-66" font-family="Helvetica,sans-Serif" font-size="10.00">tracking::math::SquareMatrix</text>
<text text-anchor="middle" x="438.5" y="-55" font-family="Helvetica,sans-Serif" font-size="10.00">::isOrthogonal</text>
</a>
</g>
</g>
<!-- Node1&#45;&gt;Node6 -->
<g id="edge5_Node000001_Node000006" class="edge">
<title>Node1&#45;&gt;Node6</title>
<g id="a_edge5_Node000001_Node000006"><a xlink:title=" ">
<path fill="none" stroke="#63b8ff" d="M543.98,-75.99C535.39,-74.92 526.72,-73.85 518.24,-72.79"/>
<polygon fill="#63b8ff" stroke="#63b8ff" points="543.64,-79.48 554,-77.24 544.51,-72.53 543.64,-79.48"/>
</a>
</g>
</g>
<!-- Node7 -->
<g id="Node000007" class="node">
<title>Node7</title>
<g id="a_Node000007"><a xlink:href="classtracking_1_1math_1_1CovarianceMatrixFactored.html#ade6e7f2800cf91037769424fb92dccd6" target="_top" xlink:title="Set the variance at (idx,idx) and clears any correlations.">
<polygon fill="white" stroke="#666666" points="514.5,-30 362.5,-30 362.5,0 514.5,0 514.5,-30"/>
<text text-anchor="start" x="370.5" y="-18" font-family="Helvetica,sans-Serif" font-size="10.00">tracking::math::Covariance</text>
<text text-anchor="middle" x="438.5" y="-7" font-family="Helvetica,sans-Serif" font-size="10.00">MatrixFactored::setVariance</text>
</a>
</g>
</g>
<!-- Node1&#45;&gt;Node7 -->
<g id="edge6_Node000001_Node000007" class="edge">
<title>Node1&#45;&gt;Node7</title>
<g id="a_edge6_Node000001_Node000007"><a xlink:title=" ">
<path fill="none" stroke="#63b8ff" d="M589.37,-67.72C568.09,-58.51 541.91,-47.64 518,-39 509.42,-35.9 500.23,-32.85 491.26,-30.02"/>
<polygon fill="#63b8ff" stroke="#63b8ff" points="588.22,-71.03 598.78,-71.82 591.01,-64.61 588.22,-71.03"/>
</a>
</g>
</g>
<!-- Node4 -->
<g id="Node000004" class="node">
<title>Node4</title>
<g id="a_Node000004"><a xlink:href="classtracking_1_1filter_1_1InformationFilter.html#a10fd3d15b0f1cde43be4d74f7ba28404" target="_top" xlink:title=" ">
<polygon fill="white" stroke="#666666" points="323,-126 175,-126 175,-96 323,-96 323,-126"/>
<text text-anchor="start" x="183" y="-114" font-family="Helvetica,sans-Serif" font-size="10.00">tracking::filter::Information</text>
<text text-anchor="middle" x="249" y="-103" font-family="Helvetica,sans-Serif" font-size="10.00">Filter::predictCovariance</text>
</a>
</g>
</g>
<!-- Node3&#45;&gt;Node4 -->
<g id="edge3_Node000003_Node000004" class="edge">
<title>Node3&#45;&gt;Node4</title>
<g id="a_edge3_Node000003_Node000004"><a xlink:title=" ">
<path fill="none" stroke="#63b8ff" d="M348.76,-111C340.17,-111 331.53,-111 323.12,-111"/>
<polygon fill="#63b8ff" stroke="#63b8ff" points="348.8,-114.5 358.8,-111 348.8,-107.5 348.8,-114.5"/>
</a>
</g>
</g>
<!-- Node5 -->
<g id="Node000005" class="node">
<title>Node5</title>
<g id="a_Node000005"><a xlink:href="classtracking_1_1motion_1_1generic_1_1Predict.html#ad6bc834949fd3d8f75ec79ddf2d734d5" target="_top" xlink:title="State prediction with ego motion compensation using an InformationFilter.">
<polygon fill="white" stroke="#666666" points="139,-126 0,-126 0,-96 139,-96 139,-126"/>
<text text-anchor="start" x="8" y="-114" font-family="Helvetica,sans-Serif" font-size="10.00">tracking::motion::generic</text>
<text text-anchor="middle" x="69.5" y="-103" font-family="Helvetica,sans-Serif" font-size="10.00">::Predict::run</text>
</a>
</g>
</g>
<!-- Node4&#45;&gt;Node5 -->
<g id="edge4_Node000004_Node000005" class="edge">
<title>Node4&#45;&gt;Node5</title>
<g id="a_edge4_Node000004_Node000005"><a xlink:title=" ">
<path fill="none" stroke="#63b8ff" d="M164.52,-111C156.07,-111 147.55,-111 139.27,-111"/>
<polygon fill="#63b8ff" stroke="#63b8ff" points="164.78,-114.5 174.78,-111 164.78,-107.5 164.78,-114.5"/>
</a>
</g>
</g>
</g>
</svg>
