<?xml version="1.0" encoding="UTF-8" standalone="no"?>
<!DOCTYPE svg PUBLIC "-//W3C//DTD SVG 1.1//EN"
 "http://www.w3.org/Graphics/SVG/1.1/DTD/svg11.dtd">
<!-- Generated by graphviz version 2.43.0 (0)
 -->
<!-- Title: tracking::motion::generic::PredictCommon&lt; MotionModel_, CovarianceMatrixPolicy_ &gt; Pages: 1 -->
<!--zoomable 1002 -->

<svg id="main" version="1.1" xmlns="http://www.w3.org/2000/svg" xmlns:xlink="http://www.w3.org/1999/xlink" xml:space="preserve" onload="init(evt)">
<style type="text/css"><![CDATA[
.node, .edge {opacity: 0.7;}
.node.selected, .edge.selected {opacity: 1;}
.edge:hover path { stroke: red; }
.edge:hover polygon { stroke: red; fill: red; }
]]></style>

<defs>
  <circle id="rim" cx="0" cy="0" r="7"/>
  <circle id="rim2" cx="0" cy="0" r="3.5"/>
  <g id="zoomPlus">
    <use xlink:href="#rim" fill="#404040"><set attributeName="fill" to="#808080" begin="zoomplus.mouseover" end="zoomplus.mouseout"/></use>
    <path d="M-4,0h8M0,-4v8" fill="none" stroke="white" stroke-width="1.5" pointer-events="none"/>
  </g>
  <g id="zoomMin">
    <use xlink:href="#rim" fill="#404040"><set attributeName="fill" to="#808080" begin="zoomminus.mouseover" end="zoomminus.mouseout"/></use>
    <path d="M-4,0h8" fill="none" stroke="white" stroke-width="1.5" pointer-events="none"/>
  </g>
  <g id="arrowUp" transform="translate(30 24)">
    <use xlink:href="#rim"/>
    <path pointer-events="none" fill="none" stroke="white" stroke-width="1.5" d="M0,-3.0v7 M-2.5,-0.5L0,-3.0L2.5,-0.5"/>
  </g>
  <g id="arrowRight" transform="rotate(90) translate(36 -43)">
    <use xlink:href="#rim"/>
    <path pointer-events="none" fill="none" stroke="white" stroke-width="1.5" d="M0,-3.0v7 M-2.5,-0.5L0,-3.0L2.5,-0.5"/>
  </g>
  <g id="arrowDown" transform="rotate(180) translate(-30 -48)">
    <use xlink:href="#rim"/>
    <path pointer-events="none" fill="none" stroke="white" stroke-width="1.5" d="M0,-3.0v7 M-2.5,-0.5L0,-3.0L2.5,-0.5"/>
  </g>
  <g id="arrowLeft" transform="rotate(270) translate(-36 17)">
    <use xlink:href="#rim"/>
    <path pointer-events="none" fill="none" stroke="white" stroke-width="1.5" d="M0,-3.0v7 M-2.5,-0.5L0,-3.0L2.5,-0.5"/>
  </g>
  <g id="resetDef">
    <use xlink:href="#rim2" fill="#404040"><set attributeName="fill" to="#808080" begin="reset.mouseover" end="reset.mouseout"/></use>
  </g>
</defs>
<script type="application/ecmascript">
var viewWidth = 906;
var viewHeight = 1002;
var sectionId = 'dynsection-0';
</script>
<script type="application/ecmascript" xlink:href="svg.min.js"/>
<svg id="graph" class="graph">
<g id="viewport">
<title>tracking::motion::generic::PredictCommon&lt; MotionModel_, CovarianceMatrixPolicy_ &gt;</title>
<!-- Node1 -->
<g id="Node000001" class="node">
<title>Node1</title>
<g id="a_Node000001"><a xlink:title="Base class for common calculations needed for any prediction.">
<polygon fill="#999999" stroke="transparent" points="471.5,-994 301.5,-994 301.5,-923 471.5,-923 471.5,-994"/>
<text text-anchor="start" x="306.5" y="-981.5" font-family="Helvetica,sans-Serif" font-size="10.00">tracking::motion::generic</text>
<text text-anchor="start" x="306.5" y="-970.5" font-family="Helvetica,sans-Serif" font-size="10.00">::PredictCommon&lt; MotionModel</text>
<text text-anchor="start" x="314.5" y="-959.5" font-family="Helvetica,sans-Serif" font-size="10.00">_, CovarianceMatrixPolicy_ &gt;</text>
<text text-anchor="start" x="384.5" y="-944.5" font-family="Helvetica,sans-Serif" font-size="10.00"> </text>
<text text-anchor="start" x="336.5" y="-929.5" font-family="Helvetica,sans-Serif" font-size="10.00">+</text>
<text text-anchor="start" x="380.5" y="-929.5" font-family="Helvetica,sans-Serif" font-size="10.00">run()</text>
<polygon fill="#666666" stroke="#666666" points="301.5,-954.5 301.5,-954.5 471.5,-954.5 471.5,-954.5 301.5,-954.5"/>
<polygon fill="#666666" stroke="#666666" points="301.5,-939.5 301.5,-939.5 471.5,-939.5 471.5,-939.5 301.5,-939.5"/>
<polygon fill="none" stroke="#666666" points="301.5,-923 301.5,-994 471.5,-994 471.5,-923 301.5,-923"/>
</a>
</g>
</g>
<!-- Node2 -->
<g id="Node000002" class="node">
<title>Node2</title>
<g id="a_Node000002"><a xlink:href="classtracking_1_1motion_1_1generic_1_1Predict.html" target="_top" xlink:title=" ">
<polygon fill="white" stroke="transparent" points="175,-881.5 2,-881.5 2,-784.5 175,-784.5 175,-881.5"/>
<text text-anchor="start" x="7.5" y="-869" font-family="Helvetica,sans-Serif" font-size="10.00">tracking::motion::generic</text>
<text text-anchor="start" x="7.5" y="-858" font-family="Helvetica,sans-Serif" font-size="10.00">::Predict&lt; MotionModel</text>
<text text-anchor="start" x="7.5" y="-847" font-family="Helvetica,sans-Serif" font-size="10.00">_, MotionModelTrait_::Covariance</text>
<text text-anchor="start" x="52.5" y="-836" font-family="Helvetica,sans-Serif" font-size="10.00">MatrixPolicy &gt;</text>
<text text-anchor="start" x="87" y="-821" font-family="Helvetica,sans-Serif" font-size="10.00"> </text>
<text text-anchor="start" x="38.5" y="-806" font-family="Helvetica,sans-Serif" font-size="10.00">+</text>
<text text-anchor="start" x="83.5" y="-806" font-family="Helvetica,sans-Serif" font-size="10.00">run()</text>
<text text-anchor="start" x="38.5" y="-791" font-family="Helvetica,sans-Serif" font-size="10.00">+</text>
<text text-anchor="start" x="83.5" y="-791" font-family="Helvetica,sans-Serif" font-size="10.00">run()</text>
<polygon fill="#666666" stroke="#666666" points="2.5,-831 2.5,-831 175.5,-831 175.5,-831 2.5,-831"/>
<polygon fill="#666666" stroke="#666666" points="2.5,-816 2.5,-816 175.5,-816 175.5,-816 2.5,-816"/>
<polygon fill="none" stroke="#666666" points="2,-784.5 2,-881.5 175,-881.5 175,-784.5 2,-784.5"/>
</a>
</g>
</g>
<!-- Node1&#45;&gt;Node2 -->
<g id="edge1_Node000001_Node000002" class="edge">
<title>Node1&#45;&gt;Node2</title>
<g id="a_edge1_Node000001_Node000002"><a xlink:title=" ">
<path fill="none" stroke="#63b8ff" d="M291.69,-928.09C257.42,-916.5 218.75,-902.3 184.5,-887 180.68,-885.29 176.8,-883.49 172.91,-881.61"/>
<polygon fill="none" stroke="#63b8ff" points="290.64,-931.43 301.23,-931.29 292.86,-924.79 290.64,-931.43"/>
</a>
</g>
</g>
<!-- Node4 -->
<g id="Node000004" class="node">
<title>Node4</title>
<g id="a_Node000004"><a xlink:href="classtracking_1_1motion_1_1generic_1_1Predict.html" target="_top" xlink:title=" ">
<polygon fill="white" stroke="transparent" points="377.5,-887 193.5,-887 193.5,-779 377.5,-779 377.5,-887"/>
<text text-anchor="start" x="198.5" y="-875" font-family="Helvetica,sans-Serif" font-size="10.00">tracking::motion::generic</text>
<text text-anchor="start" x="198.5" y="-864" font-family="Helvetica,sans-Serif" font-size="10.00">::Predict&lt; MotionModelCA</text>
<text text-anchor="start" x="198.5" y="-853" font-family="Helvetica,sans-Serif" font-size="10.00">&lt; CovarianceMatrixPolicy</text>
<text text-anchor="start" x="198.5" y="-842" font-family="Helvetica,sans-Serif" font-size="10.00">_ &gt;, MotionModelTrait_::Covariance</text>
<text text-anchor="start" x="249" y="-831" font-family="Helvetica,sans-Serif" font-size="10.00">MatrixPolicy &gt;</text>
<text text-anchor="start" x="283.5" y="-816" font-family="Helvetica,sans-Serif" font-size="10.00"> </text>
<text text-anchor="start" x="232" y="-801" font-family="Helvetica,sans-Serif" font-size="10.00">+</text>
<text text-anchor="start" x="279.5" y="-801" font-family="Helvetica,sans-Serif" font-size="10.00">run()</text>
<text text-anchor="start" x="232" y="-786" font-family="Helvetica,sans-Serif" font-size="10.00">+</text>
<text text-anchor="start" x="279.5" y="-786" font-family="Helvetica,sans-Serif" font-size="10.00">run()</text>
<polygon fill="#666666" stroke="#666666" points="193.5,-826 193.5,-826 377.5,-826 377.5,-826 193.5,-826"/>
<polygon fill="#666666" stroke="#666666" points="193.5,-811 193.5,-811 377.5,-811 377.5,-811 193.5,-811"/>
<polygon fill="none" stroke="#666666" points="193.5,-779 193.5,-887 377.5,-887 377.5,-779 193.5,-779"/>
</a>
</g>
</g>
<!-- Node1&#45;&gt;Node4 -->
<g id="edge3_Node000001_Node000004" class="edge">
<title>Node1&#45;&gt;Node4</title>
<g id="a_edge3_Node000001_Node000004"><a xlink:title=" ">
<path fill="none" stroke="#63b8ff" d="M351.61,-914.83C344.37,-905.99 336.67,-896.57 329.17,-887.39"/>
<polygon fill="none" stroke="#63b8ff" points="349.06,-917.24 358.1,-922.77 354.48,-912.81 349.06,-917.24"/>
</a>
</g>
</g>
<!-- Node5 -->
<g id="Node000005" class="node">
<title>Node5</title>
<g id="a_Node000005"><a xlink:href="classtracking_1_1motion_1_1generic_1_1Predict.html" target="_top" xlink:title=" ">
<polygon fill="white" stroke="transparent" points="579.5,-887 395.5,-887 395.5,-779 579.5,-779 579.5,-887"/>
<text text-anchor="start" x="400.5" y="-875" font-family="Helvetica,sans-Serif" font-size="10.00">tracking::motion::generic</text>
<text text-anchor="start" x="400.5" y="-864" font-family="Helvetica,sans-Serif" font-size="10.00">::Predict&lt; MotionModelCV</text>
<text text-anchor="start" x="400.5" y="-853" font-family="Helvetica,sans-Serif" font-size="10.00">&lt; CovarianceMatrixPolicy</text>
<text text-anchor="start" x="400.5" y="-842" font-family="Helvetica,sans-Serif" font-size="10.00">_ &gt;, MotionModelTrait_::Covariance</text>
<text text-anchor="start" x="451" y="-831" font-family="Helvetica,sans-Serif" font-size="10.00">MatrixPolicy &gt;</text>
<text text-anchor="start" x="485.5" y="-816" font-family="Helvetica,sans-Serif" font-size="10.00"> </text>
<text text-anchor="start" x="434" y="-801" font-family="Helvetica,sans-Serif" font-size="10.00">+</text>
<text text-anchor="start" x="481.5" y="-801" font-family="Helvetica,sans-Serif" font-size="10.00">run()</text>
<text text-anchor="start" x="434" y="-786" font-family="Helvetica,sans-Serif" font-size="10.00">+</text>
<text text-anchor="start" x="481.5" y="-786" font-family="Helvetica,sans-Serif" font-size="10.00">run()</text>
<polygon fill="#666666" stroke="#666666" points="395.5,-826 395.5,-826 579.5,-826 579.5,-826 395.5,-826"/>
<polygon fill="#666666" stroke="#666666" points="395.5,-811 395.5,-811 579.5,-811 579.5,-811 395.5,-811"/>
<polygon fill="none" stroke="#666666" points="395.5,-779 395.5,-887 579.5,-887 579.5,-779 395.5,-779"/>
</a>
</g>
</g>
<!-- Node1&#45;&gt;Node5 -->
<g id="edge4_Node000001_Node000005" class="edge">
<title>Node1&#45;&gt;Node5</title>
<g id="a_edge4_Node000001_Node000005"><a xlink:title=" ">
<path fill="none" stroke="#63b8ff" d="M421.39,-914.83C428.63,-905.99 436.33,-896.57 443.83,-887.39"/>
<polygon fill="none" stroke="#63b8ff" points="418.52,-912.81 414.9,-922.77 423.94,-917.24 418.52,-912.81"/>
</a>
</g>
</g>
<!-- Node6 -->
<g id="Node000006" class="node">
<title>Node6</title>
<g id="a_Node000006"><a xlink:href="classtracking_1_1motion_1_1generic_1_1Predict.html" target="_top" xlink:title="Base class to extend any motion model with a generic prediction functionality using the CRTP pattern.">
<polygon fill="white" stroke="transparent" points="751.5,-876 597.5,-876 597.5,-790 751.5,-790 751.5,-876"/>
<text text-anchor="start" x="602.5" y="-864" font-family="Helvetica,sans-Serif" font-size="10.00">tracking::motion::generic</text>
<text text-anchor="start" x="602.5" y="-853" font-family="Helvetica,sans-Serif" font-size="10.00">::Predict&lt; MotionModel</text>
<text text-anchor="start" x="602.5" y="-842" font-family="Helvetica,sans-Serif" font-size="10.00">_, CovarianceMatrixPolicy_ &gt;</text>
<text text-anchor="start" x="672.5" y="-827" font-family="Helvetica,sans-Serif" font-size="10.00"> </text>
<text text-anchor="start" x="628.5" y="-812" font-family="Helvetica,sans-Serif" font-size="10.00">+</text>
<text text-anchor="start" x="668.5" y="-812" font-family="Helvetica,sans-Serif" font-size="10.00">run()</text>
<text text-anchor="start" x="628.5" y="-797" font-family="Helvetica,sans-Serif" font-size="10.00">+</text>
<text text-anchor="start" x="668.5" y="-797" font-family="Helvetica,sans-Serif" font-size="10.00">run()</text>
<polygon fill="#666666" stroke="#666666" points="597.5,-837 597.5,-837 751.5,-837 751.5,-837 597.5,-837"/>
<polygon fill="#666666" stroke="#666666" points="597.5,-822 597.5,-822 751.5,-822 751.5,-822 597.5,-822"/>
<polygon fill="none" stroke="#666666" points="597.5,-790 597.5,-876 751.5,-876 751.5,-790 597.5,-790"/>
</a>
</g>
</g>
<!-- Node1&#45;&gt;Node6 -->
<g id="edge5_Node000001_Node000006" class="edge">
<title>Node1&#45;&gt;Node6</title>
<g id="a_edge5_Node000001_Node000006"><a xlink:title=" ">
<path fill="none" stroke="#63b8ff" d="M481.26,-929.14C515.68,-917.62 554.47,-903.19 588.5,-887 595.47,-883.68 602.58,-879.94 609.58,-876.02"/>
<polygon fill="none" stroke="#63b8ff" points="480.06,-925.85 471.67,-932.32 482.26,-932.5 480.06,-925.85"/>
</a>
</g>
</g>
<!-- Node3 -->
<g id="Node000003" class="node">
<title>Node3</title>
<g id="a_Node000003"><a xlink:href="classtracking_1_1motion_1_1ExtendedMotionModel.html" target="_top" xlink:title="Abstract MotionModel with known dimension, keeping the model memory for State and StateCovariance.">
<polygon fill="white" stroke="transparent" points="177,-732 0,-732 0,-354 177,-354 177,-732"/>
<text text-anchor="start" x="19.5" y="-720" font-family="Helvetica,sans-Serif" font-size="10.00">tracking::motion::Extended</text>
<text text-anchor="start" x="19.5" y="-709" font-family="Helvetica,sans-Serif" font-size="10.00">MotionModel&lt; MotionModel</text>
<text text-anchor="start" x="32.5" y="-698" font-family="Helvetica,sans-Serif" font-size="10.00">_, MotionModelTrait_ &gt;</text>
<text text-anchor="start" x="87" y="-683" font-family="Helvetica,sans-Serif" font-size="10.00"> </text>
<text text-anchor="start" x="4.5" y="-668" font-family="Helvetica,sans-Serif" font-size="10.00">+</text>
<text text-anchor="start" x="17.5" y="-668" font-family="Helvetica,sans-Serif" font-size="10.00">ExtendedMotionModel()</text>
<text text-anchor="start" x="4.5" y="-653" font-family="Helvetica,sans-Serif" font-size="10.00">+</text>
<text text-anchor="start" x="17.5" y="-653" font-family="Helvetica,sans-Serif" font-size="10.00">~ExtendedMotionModel()</text>
<text text-anchor="start" x="4.5" y="-638" font-family="Helvetica,sans-Serif" font-size="10.00">+</text>
<text text-anchor="start" x="17.5" y="-638" font-family="Helvetica,sans-Serif" font-size="10.00">getX()</text>
<text text-anchor="start" x="4.5" y="-623" font-family="Helvetica,sans-Serif" font-size="10.00">+</text>
<text text-anchor="start" x="17.5" y="-623" font-family="Helvetica,sans-Serif" font-size="10.00">getY()</text>
<text text-anchor="start" x="4.5" y="-608" font-family="Helvetica,sans-Serif" font-size="10.00">+</text>
<text text-anchor="start" x="17.5" y="-608" font-family="Helvetica,sans-Serif" font-size="10.00">invertCov()</text>
<text text-anchor="start" x="4.5" y="-593" font-family="Helvetica,sans-Serif" font-size="10.00">+</text>
<text text-anchor="start" x="17.5" y="-593" font-family="Helvetica,sans-Serif" font-size="10.00">predict()</text>
<text text-anchor="start" x="4.5" y="-578" font-family="Helvetica,sans-Serif" font-size="10.00">+</text>
<text text-anchor="start" x="17.5" y="-578" font-family="Helvetica,sans-Serif" font-size="10.00">predict()</text>
<text text-anchor="start" x="4.5" y="-563" font-family="Helvetica,sans-Serif" font-size="10.00">+</text>
<text text-anchor="start" x="17.5" y="-563" font-family="Helvetica,sans-Serif" font-size="10.00">update()</text>
<text text-anchor="start" x="4.5" y="-548" font-family="Helvetica,sans-Serif" font-size="10.00">+</text>
<text text-anchor="start" x="17.5" y="-548" font-family="Helvetica,sans-Serif" font-size="10.00">update()</text>
<text text-anchor="start" x="4.5" y="-533" font-family="Helvetica,sans-Serif" font-size="10.00">+</text>
<text text-anchor="start" x="17.5" y="-533" font-family="Helvetica,sans-Serif" font-size="10.00">convertStateVecIntoState</text>
<text text-anchor="start" x="17.5" y="-522" font-family="Helvetica,sans-Serif" font-size="10.00">Space()</text>
<text text-anchor="start" x="4.5" y="-507" font-family="Helvetica,sans-Serif" font-size="10.00">+</text>
<text text-anchor="start" x="17.5" y="-507" font-family="Helvetica,sans-Serif" font-size="10.00">convertStateVecIntoInformation</text>
<text text-anchor="start" x="17.5" y="-496" font-family="Helvetica,sans-Serif" font-size="10.00">Space()</text>
<text text-anchor="start" x="4.5" y="-481" font-family="Helvetica,sans-Serif" font-size="10.00">+</text>
<text text-anchor="start" x="17.5" y="-481" font-family="Helvetica,sans-Serif" font-size="10.00">StateVecFromList()</text>
<text text-anchor="start" x="4.5" y="-466" font-family="Helvetica,sans-Serif" font-size="10.00">+</text>
<text text-anchor="start" x="17.5" y="-466" font-family="Helvetica,sans-Serif" font-size="10.00">StateCovFromList()</text>
<text text-anchor="start" x="4.5" y="-451" font-family="Helvetica,sans-Serif" font-size="10.00">+</text>
<text text-anchor="start" x="17.5" y="-451" font-family="Helvetica,sans-Serif" font-size="10.00">StateCovFromList()</text>
<text text-anchor="start" x="4.5" y="-436" font-family="Helvetica,sans-Serif" font-size="10.00">+</text>
<text text-anchor="start" x="17.5" y="-436" font-family="Helvetica,sans-Serif" font-size="10.00">FromLists()</text>
<text text-anchor="start" x="4.5" y="-421" font-family="Helvetica,sans-Serif" font-size="10.00">#</text>
<text text-anchor="start" x="17.5" y="-421" font-family="Helvetica,sans-Serif" font-size="10.00">ExtendedMotionModel()</text>
<text text-anchor="start" x="4.5" y="-406" font-family="Helvetica,sans-Serif" font-size="10.00">#</text>
<text text-anchor="start" x="17.5" y="-406" font-family="Helvetica,sans-Serif" font-size="10.00">ExtendedMotionModel()</text>
<text text-anchor="start" x="4.5" y="-391" font-family="Helvetica,sans-Serif" font-size="10.00">#</text>
<text text-anchor="start" x="17.5" y="-391" font-family="Helvetica,sans-Serif" font-size="10.00">operator=()</text>
<text text-anchor="start" x="4.5" y="-376" font-family="Helvetica,sans-Serif" font-size="10.00">#</text>
<text text-anchor="start" x="17.5" y="-376" font-family="Helvetica,sans-Serif" font-size="10.00">operator=()</text>
<text text-anchor="start" x="4.5" y="-361" font-family="Helvetica,sans-Serif" font-size="10.00">#</text>
<text text-anchor="start" x="17.5" y="-361" font-family="Helvetica,sans-Serif" font-size="10.00">ExtendedMotionModel()</text>
<polygon fill="#666666" stroke="#666666" points="0.5,-693 0.5,-693 177.5,-693 177.5,-693 0.5,-693"/>
<polygon fill="#666666" stroke="#666666" points="0.5,-678 0.5,-678 177.5,-678 177.5,-678 0.5,-678"/>
<polygon fill="none" stroke="#666666" points="0,-354 0,-732 177,-732 177,-354 0,-354"/>
</a>
</g>
</g>
<!-- Node2&#45;&gt;Node3 -->
<g id="edge2_Node000002_Node000003" class="edge">
<title>Node2&#45;&gt;Node3</title>
<g id="a_edge2_Node000002_Node000003"><a xlink:title=" ">
<path fill="none" stroke="#63b8ff" d="M88.5,-774.06C88.5,-761.29 88.5,-747.08 88.5,-732.18"/>
<polygon fill="none" stroke="#63b8ff" points="85,-774.44 88.5,-784.44 92,-774.44 85,-774.44"/>
</a>
</g>
</g>
<!-- Node7 -->
<g id="Node000007" class="node">
<title>Node7</title>
<g id="a_Node000007"><a xlink:href="classtracking_1_1motion_1_1ExtendedMotionModel.html" target="_top" xlink:title=" ">
<polygon fill="white" stroke="transparent" points="665,-743 450,-743 450,-343 665,-343 665,-743"/>
<text text-anchor="start" x="455.5" y="-731" font-family="Helvetica,sans-Serif" font-size="10.00">tracking::motion::Extended</text>
<text text-anchor="start" x="455.5" y="-720" font-family="Helvetica,sans-Serif" font-size="10.00">MotionModel&lt; MotionModelCA</text>
<text text-anchor="start" x="455.5" y="-709" font-family="Helvetica,sans-Serif" font-size="10.00">&lt; CovarianceMatrixPolicy_</text>
<text text-anchor="start" x="455.5" y="-698" font-family="Helvetica,sans-Serif" font-size="10.00"> &gt;, MotionModelTraits&lt; CovarianceMatrix</text>
<text text-anchor="start" x="498" y="-687" font-family="Helvetica,sans-Serif" font-size="10.00">Policy_, StateDefCA &gt; &gt;</text>
<text text-anchor="start" x="556" y="-672" font-family="Helvetica,sans-Serif" font-size="10.00"> </text>
<text text-anchor="start" x="464" y="-657" font-family="Helvetica,sans-Serif" font-size="10.00">+</text>
<text text-anchor="start" x="486.5" y="-657" font-family="Helvetica,sans-Serif" font-size="10.00">ExtendedMotionModel()</text>
<text text-anchor="start" x="464" y="-642" font-family="Helvetica,sans-Serif" font-size="10.00">+</text>
<text text-anchor="start" x="486.5" y="-642" font-family="Helvetica,sans-Serif" font-size="10.00">~ExtendedMotionModel()</text>
<text text-anchor="start" x="464" y="-627" font-family="Helvetica,sans-Serif" font-size="10.00">+</text>
<text text-anchor="start" x="486.5" y="-627" font-family="Helvetica,sans-Serif" font-size="10.00">getX()</text>
<text text-anchor="start" x="464" y="-612" font-family="Helvetica,sans-Serif" font-size="10.00">+</text>
<text text-anchor="start" x="486.5" y="-612" font-family="Helvetica,sans-Serif" font-size="10.00">getY()</text>
<text text-anchor="start" x="464" y="-597" font-family="Helvetica,sans-Serif" font-size="10.00">+</text>
<text text-anchor="start" x="486.5" y="-597" font-family="Helvetica,sans-Serif" font-size="10.00">invertCov()</text>
<text text-anchor="start" x="464" y="-582" font-family="Helvetica,sans-Serif" font-size="10.00">+</text>
<text text-anchor="start" x="486.5" y="-582" font-family="Helvetica,sans-Serif" font-size="10.00">predict()</text>
<text text-anchor="start" x="464" y="-567" font-family="Helvetica,sans-Serif" font-size="10.00">+</text>
<text text-anchor="start" x="486.5" y="-567" font-family="Helvetica,sans-Serif" font-size="10.00">predict()</text>
<text text-anchor="start" x="464" y="-552" font-family="Helvetica,sans-Serif" font-size="10.00">+</text>
<text text-anchor="start" x="486.5" y="-552" font-family="Helvetica,sans-Serif" font-size="10.00">update()</text>
<text text-anchor="start" x="464" y="-537" font-family="Helvetica,sans-Serif" font-size="10.00">+</text>
<text text-anchor="start" x="486.5" y="-537" font-family="Helvetica,sans-Serif" font-size="10.00">update()</text>
<text text-anchor="start" x="464" y="-522" font-family="Helvetica,sans-Serif" font-size="10.00">+</text>
<text text-anchor="start" x="486.5" y="-522" font-family="Helvetica,sans-Serif" font-size="10.00">convertStateVecIntoState</text>
<text text-anchor="start" x="486.5" y="-511" font-family="Helvetica,sans-Serif" font-size="10.00">Space()</text>
<text text-anchor="start" x="464" y="-496" font-family="Helvetica,sans-Serif" font-size="10.00">+</text>
<text text-anchor="start" x="486.5" y="-496" font-family="Helvetica,sans-Serif" font-size="10.00">convertStateVecIntoInformation</text>
<text text-anchor="start" x="486.5" y="-485" font-family="Helvetica,sans-Serif" font-size="10.00">Space()</text>
<text text-anchor="start" x="464" y="-470" font-family="Helvetica,sans-Serif" font-size="10.00">+</text>
<text text-anchor="start" x="486.5" y="-470" font-family="Helvetica,sans-Serif" font-size="10.00">StateVecFromList()</text>
<text text-anchor="start" x="464" y="-455" font-family="Helvetica,sans-Serif" font-size="10.00">+</text>
<text text-anchor="start" x="486.5" y="-455" font-family="Helvetica,sans-Serif" font-size="10.00">StateCovFromList()</text>
<text text-anchor="start" x="464" y="-440" font-family="Helvetica,sans-Serif" font-size="10.00">+</text>
<text text-anchor="start" x="486.5" y="-440" font-family="Helvetica,sans-Serif" font-size="10.00">StateCovFromList()</text>
<text text-anchor="start" x="464" y="-425" font-family="Helvetica,sans-Serif" font-size="10.00">+</text>
<text text-anchor="start" x="486.5" y="-425" font-family="Helvetica,sans-Serif" font-size="10.00">FromLists()</text>
<text text-anchor="start" x="464" y="-410" font-family="Helvetica,sans-Serif" font-size="10.00">#</text>
<text text-anchor="start" x="486.5" y="-410" font-family="Helvetica,sans-Serif" font-size="10.00">ExtendedMotionModel()</text>
<text text-anchor="start" x="464" y="-395" font-family="Helvetica,sans-Serif" font-size="10.00">#</text>
<text text-anchor="start" x="486.5" y="-395" font-family="Helvetica,sans-Serif" font-size="10.00">ExtendedMotionModel()</text>
<text text-anchor="start" x="464" y="-380" font-family="Helvetica,sans-Serif" font-size="10.00">#</text>
<text text-anchor="start" x="486.5" y="-380" font-family="Helvetica,sans-Serif" font-size="10.00">ExtendedMotionModel()</text>
<text text-anchor="start" x="464" y="-365" font-family="Helvetica,sans-Serif" font-size="10.00">#</text>
<text text-anchor="start" x="486.5" y="-365" font-family="Helvetica,sans-Serif" font-size="10.00">operator=()</text>
<text text-anchor="start" x="464" y="-350" font-family="Helvetica,sans-Serif" font-size="10.00">#</text>
<text text-anchor="start" x="486.5" y="-350" font-family="Helvetica,sans-Serif" font-size="10.00">operator=()</text>
<polygon fill="#666666" stroke="#666666" points="450.5,-682 450.5,-682 665.5,-682 665.5,-682 450.5,-682"/>
<polygon fill="#666666" stroke="#666666" points="450.5,-667 450.5,-667 665.5,-667 665.5,-667 450.5,-667"/>
<polygon fill="none" stroke="#666666" points="450,-343 450,-743 665,-743 665,-343 450,-343"/>
</a>
</g>
</g>
<!-- Node6&#45;&gt;Node7 -->
<g id="edge6_Node000006_Node000007" class="edge">
<title>Node6&#45;&gt;Node7</title>
<g id="a_edge6_Node000006_Node000007"><a xlink:title=" ">
<path fill="none" stroke="#63b8ff" d="M653.48,-780.26C648.91,-769 643.8,-756.44 638.4,-743.13"/>
<polygon fill="none" stroke="#63b8ff" points="650.36,-781.87 657.36,-789.81 656.84,-779.23 650.36,-781.87"/>
</a>
</g>
</g>
<!-- Node9 -->
<g id="Node000009" class="node">
<title>Node9</title>
<g id="a_Node000009"><a xlink:href="classtracking_1_1motion_1_1ExtendedMotionModel.html" target="_top" xlink:title=" ">
<polygon fill="white" stroke="transparent" points="898,-743 683,-743 683,-343 898,-343 898,-743"/>
<text text-anchor="start" x="688.5" y="-731" font-family="Helvetica,sans-Serif" font-size="10.00">tracking::motion::Extended</text>
<text text-anchor="start" x="688.5" y="-720" font-family="Helvetica,sans-Serif" font-size="10.00">MotionModel&lt; MotionModelCV</text>
<text text-anchor="start" x="688.5" y="-709" font-family="Helvetica,sans-Serif" font-size="10.00">&lt; CovarianceMatrixPolicy_</text>
<text text-anchor="start" x="688.5" y="-698" font-family="Helvetica,sans-Serif" font-size="10.00"> &gt;, MotionModelTraits&lt; CovarianceMatrix</text>
<text text-anchor="start" x="731" y="-687" font-family="Helvetica,sans-Serif" font-size="10.00">Policy_, StateDefCV &gt; &gt;</text>
<text text-anchor="start" x="789" y="-672" font-family="Helvetica,sans-Serif" font-size="10.00"> </text>
<text text-anchor="start" x="697" y="-657" font-family="Helvetica,sans-Serif" font-size="10.00">+</text>
<text text-anchor="start" x="719.5" y="-657" font-family="Helvetica,sans-Serif" font-size="10.00">ExtendedMotionModel()</text>
<text text-anchor="start" x="697" y="-642" font-family="Helvetica,sans-Serif" font-size="10.00">+</text>
<text text-anchor="start" x="719.5" y="-642" font-family="Helvetica,sans-Serif" font-size="10.00">~ExtendedMotionModel()</text>
<text text-anchor="start" x="697" y="-627" font-family="Helvetica,sans-Serif" font-size="10.00">+</text>
<text text-anchor="start" x="719.5" y="-627" font-family="Helvetica,sans-Serif" font-size="10.00">getX()</text>
<text text-anchor="start" x="697" y="-612" font-family="Helvetica,sans-Serif" font-size="10.00">+</text>
<text text-anchor="start" x="719.5" y="-612" font-family="Helvetica,sans-Serif" font-size="10.00">getY()</text>
<text text-anchor="start" x="697" y="-597" font-family="Helvetica,sans-Serif" font-size="10.00">+</text>
<text text-anchor="start" x="719.5" y="-597" font-family="Helvetica,sans-Serif" font-size="10.00">invertCov()</text>
<text text-anchor="start" x="697" y="-582" font-family="Helvetica,sans-Serif" font-size="10.00">+</text>
<text text-anchor="start" x="719.5" y="-582" font-family="Helvetica,sans-Serif" font-size="10.00">predict()</text>
<text text-anchor="start" x="697" y="-567" font-family="Helvetica,sans-Serif" font-size="10.00">+</text>
<text text-anchor="start" x="719.5" y="-567" font-family="Helvetica,sans-Serif" font-size="10.00">predict()</text>
<text text-anchor="start" x="697" y="-552" font-family="Helvetica,sans-Serif" font-size="10.00">+</text>
<text text-anchor="start" x="719.5" y="-552" font-family="Helvetica,sans-Serif" font-size="10.00">update()</text>
<text text-anchor="start" x="697" y="-537" font-family="Helvetica,sans-Serif" font-size="10.00">+</text>
<text text-anchor="start" x="719.5" y="-537" font-family="Helvetica,sans-Serif" font-size="10.00">update()</text>
<text text-anchor="start" x="697" y="-522" font-family="Helvetica,sans-Serif" font-size="10.00">+</text>
<text text-anchor="start" x="719.5" y="-522" font-family="Helvetica,sans-Serif" font-size="10.00">convertStateVecIntoState</text>
<text text-anchor="start" x="719.5" y="-511" font-family="Helvetica,sans-Serif" font-size="10.00">Space()</text>
<text text-anchor="start" x="697" y="-496" font-family="Helvetica,sans-Serif" font-size="10.00">+</text>
<text text-anchor="start" x="719.5" y="-496" font-family="Helvetica,sans-Serif" font-size="10.00">convertStateVecIntoInformation</text>
<text text-anchor="start" x="719.5" y="-485" font-family="Helvetica,sans-Serif" font-size="10.00">Space()</text>
<text text-anchor="start" x="697" y="-470" font-family="Helvetica,sans-Serif" font-size="10.00">+</text>
<text text-anchor="start" x="719.5" y="-470" font-family="Helvetica,sans-Serif" font-size="10.00">StateVecFromList()</text>
<text text-anchor="start" x="697" y="-455" font-family="Helvetica,sans-Serif" font-size="10.00">+</text>
<text text-anchor="start" x="719.5" y="-455" font-family="Helvetica,sans-Serif" font-size="10.00">StateCovFromList()</text>
<text text-anchor="start" x="697" y="-440" font-family="Helvetica,sans-Serif" font-size="10.00">+</text>
<text text-anchor="start" x="719.5" y="-440" font-family="Helvetica,sans-Serif" font-size="10.00">StateCovFromList()</text>
<text text-anchor="start" x="697" y="-425" font-family="Helvetica,sans-Serif" font-size="10.00">+</text>
<text text-anchor="start" x="719.5" y="-425" font-family="Helvetica,sans-Serif" font-size="10.00">FromLists()</text>
<text text-anchor="start" x="697" y="-410" font-family="Helvetica,sans-Serif" font-size="10.00">#</text>
<text text-anchor="start" x="719.5" y="-410" font-family="Helvetica,sans-Serif" font-size="10.00">ExtendedMotionModel()</text>
<text text-anchor="start" x="697" y="-395" font-family="Helvetica,sans-Serif" font-size="10.00">#</text>
<text text-anchor="start" x="719.5" y="-395" font-family="Helvetica,sans-Serif" font-size="10.00">ExtendedMotionModel()</text>
<text text-anchor="start" x="697" y="-380" font-family="Helvetica,sans-Serif" font-size="10.00">#</text>
<text text-anchor="start" x="719.5" y="-380" font-family="Helvetica,sans-Serif" font-size="10.00">ExtendedMotionModel()</text>
<text text-anchor="start" x="697" y="-365" font-family="Helvetica,sans-Serif" font-size="10.00">#</text>
<text text-anchor="start" x="719.5" y="-365" font-family="Helvetica,sans-Serif" font-size="10.00">operator=()</text>
<text text-anchor="start" x="697" y="-350" font-family="Helvetica,sans-Serif" font-size="10.00">#</text>
<text text-anchor="start" x="719.5" y="-350" font-family="Helvetica,sans-Serif" font-size="10.00">operator=()</text>
<polygon fill="#666666" stroke="#666666" points="683.5,-682 683.5,-682 898.5,-682 898.5,-682 683.5,-682"/>
<polygon fill="#666666" stroke="#666666" points="683.5,-667 683.5,-667 898.5,-667 898.5,-667 683.5,-667"/>
<polygon fill="none" stroke="#666666" points="683,-343 683,-743 898,-743 898,-343 683,-343"/>
</a>
</g>
</g>
<!-- Node6&#45;&gt;Node9 -->
<g id="edge8_Node000006_Node000009" class="edge">
<title>Node6&#45;&gt;Node9</title>
<g id="a_edge8_Node000006_Node000009"><a xlink:title=" ">
<path fill="none" stroke="#63b8ff" d="M695.34,-780.26C699.87,-769 704.93,-756.44 710.29,-743.13"/>
<polygon fill="none" stroke="#63b8ff" points="691.98,-779.23 691.49,-789.81 698.47,-781.85 691.98,-779.23"/>
</a>
</g>
</g>
<!-- Node8 -->
<g id="Node000008" class="node">
<title>Node8</title>
<g id="a_Node000008"><a xlink:href="classtracking_1_1motion_1_1TEST__REMOVE__FINAL.html" target="_top" xlink:title=" ">
<polygon fill="white" stroke="transparent" points="768,-307 579,-307 579,0 768,0 768,-307"/>
<text text-anchor="start" x="584.5" y="-294.5" font-family="Helvetica,sans-Serif" font-size="10.00">tracking::motion::TEST</text>
<text text-anchor="start" x="584.5" y="-283.5" font-family="Helvetica,sans-Serif" font-size="10.00">_REMOVE_FINAL&lt; CovarianceMatrix</text>
<text text-anchor="start" x="651" y="-272.5" font-family="Helvetica,sans-Serif" font-size="10.00">Policy_ &gt;</text>
<text text-anchor="start" x="595.5" y="-257.5" font-family="Helvetica,sans-Serif" font-size="10.00">+</text>
<text text-anchor="start" x="620.5" y="-257.5" font-family="Helvetica,sans-Serif" font-size="10.00">NUM_AUG_PROC_NOISE</text>
<text text-anchor="start" x="620.5" y="-246.5" font-family="Helvetica,sans-Serif" font-size="10.00">_VARIABLES</text>
<text text-anchor="start" x="595.5" y="-231.5" font-family="Helvetica,sans-Serif" font-size="10.00">+</text>
<text text-anchor="start" x="620.5" y="-231.5" font-family="Helvetica,sans-Serif" font-size="10.00">MotionModelCA()</text>
<text text-anchor="start" x="595.5" y="-216.5" font-family="Helvetica,sans-Serif" font-size="10.00">+</text>
<text text-anchor="start" x="620.5" y="-216.5" font-family="Helvetica,sans-Serif" font-size="10.00">MotionModelCA()</text>
<text text-anchor="start" x="595.5" y="-201.5" font-family="Helvetica,sans-Serif" font-size="10.00">+</text>
<text text-anchor="start" x="620.5" y="-201.5" font-family="Helvetica,sans-Serif" font-size="10.00">MotionModelCA()</text>
<text text-anchor="start" x="595.5" y="-186.5" font-family="Helvetica,sans-Serif" font-size="10.00">+</text>
<text text-anchor="start" x="620.5" y="-186.5" font-family="Helvetica,sans-Serif" font-size="10.00">operator=()</text>
<text text-anchor="start" x="595.5" y="-171.5" font-family="Helvetica,sans-Serif" font-size="10.00">+</text>
<text text-anchor="start" x="620.5" y="-171.5" font-family="Helvetica,sans-Serif" font-size="10.00">operator=()</text>
<text text-anchor="start" x="595.5" y="-156.5" font-family="Helvetica,sans-Serif" font-size="10.00">+</text>
<text text-anchor="start" x="620.5" y="-156.5" font-family="Helvetica,sans-Serif" font-size="10.00">~MotionModelCA()</text>
<text text-anchor="start" x="595.5" y="-141.5" font-family="Helvetica,sans-Serif" font-size="10.00">+</text>
<text text-anchor="start" x="620.5" y="-141.5" font-family="Helvetica,sans-Serif" font-size="10.00">getVx()</text>
<text text-anchor="start" x="595.5" y="-126.5" font-family="Helvetica,sans-Serif" font-size="10.00">+</text>
<text text-anchor="start" x="620.5" y="-126.5" font-family="Helvetica,sans-Serif" font-size="10.00">getVy()</text>
<text text-anchor="start" x="595.5" y="-111.5" font-family="Helvetica,sans-Serif" font-size="10.00">+</text>
<text text-anchor="start" x="620.5" y="-111.5" font-family="Helvetica,sans-Serif" font-size="10.00">getAx()</text>
<text text-anchor="start" x="595.5" y="-96.5" font-family="Helvetica,sans-Serif" font-size="10.00">+</text>
<text text-anchor="start" x="620.5" y="-96.5" font-family="Helvetica,sans-Serif" font-size="10.00">getAy()</text>
<text text-anchor="start" x="620.5" y="-81.5" font-family="Helvetica,sans-Serif" font-size="10.00">and 21 more...</text>
<text text-anchor="start" x="595.5" y="-66.5" font-family="Helvetica,sans-Serif" font-size="10.00">+</text>
<text text-anchor="start" x="620.5" y="-66.5" font-family="Helvetica,sans-Serif" font-size="10.00">computeQ()</text>
<text text-anchor="start" x="595.5" y="-51.5" font-family="Helvetica,sans-Serif" font-size="10.00">+</text>
<text text-anchor="start" x="620.5" y="-51.5" font-family="Helvetica,sans-Serif" font-size="10.00">computeG()</text>
<text text-anchor="start" x="595.5" y="-36.5" font-family="Helvetica,sans-Serif" font-size="10.00">+</text>
<text text-anchor="start" x="620.5" y="-36.5" font-family="Helvetica,sans-Serif" font-size="10.00">computeQ()</text>
<text text-anchor="start" x="595.5" y="-21.5" font-family="Helvetica,sans-Serif" font-size="10.00">+</text>
<text text-anchor="start" x="620.5" y="-21.5" font-family="Helvetica,sans-Serif" font-size="10.00">computeG()</text>
<text text-anchor="start" x="598" y="-6.5" font-family="Helvetica,sans-Serif" font-size="10.00">&#45;</text>
<text text-anchor="start" x="620.5" y="-6.5" font-family="Helvetica,sans-Serif" font-size="10.00">MotionModelCA()</text>
<polygon fill="#666666" stroke="#666666" points="579.5,-267.5 579.5,-267.5 768.5,-267.5 768.5,-267.5 579.5,-267.5"/>
<polygon fill="#666666" stroke="#666666" points="579.5,-241.5 579.5,-241.5 618.5,-241.5 618.5,-241.5 579.5,-241.5"/>
<polygon fill="#666666" stroke="#666666" points="618.5,-241.5 618.5,-241.5 768.5,-241.5 768.5,-241.5 618.5,-241.5"/>
<polygon fill="none" stroke="#666666" points="579,0 579,-307 768,-307 768,0 579,0"/>
</a>
</g>
</g>
<!-- Node7&#45;&gt;Node8 -->
<g id="edge7_Node000007_Node000008" class="edge">
<title>Node7&#45;&gt;Node8</title>
<g id="a_edge7_Node000007_Node000008"><a xlink:title=" ">
<path fill="none" stroke="#63b8ff" d="M620.05,-333.05C622.65,-324.37 625.24,-315.73 627.79,-307.2"/>
<polygon fill="none" stroke="#63b8ff" points="616.63,-332.27 617.11,-342.86 623.33,-334.28 616.63,-332.27"/>
</a>
</g>
</g>
<!-- Node9&#45;&gt;Node8 -->
<g id="edge9_Node000009_Node000008" class="edge">
<title>Node9&#45;&gt;Node8</title>
<g id="a_edge9_Node000009_Node000008"><a xlink:title=" ">
<path fill="none" stroke="#63b8ff" d="M727.41,-333.05C724.79,-324.37 722.18,-315.73 719.61,-307.2"/>
<polygon fill="none" stroke="#63b8ff" points="724.13,-334.3 730.37,-342.86 730.83,-332.27 724.13,-334.3"/>
</a>
</g>
</g>
</g>
</svg>

<g id="navigator" transform="translate(0 0)" fill="#404254">
  <rect fill="#f2f5e9" fill-opacity="0.5" stroke="#606060" stroke-width=".5" x="0" y="0" width="60" height="60"/>
  <use id="zoomplus" xlink:href="#zoomPlus" x="17" y="9" onmousedown="handleZoom(evt,'in')"/>
  <use id="zoomminus" xlink:href="#zoomMin" x="42" y="9" onmousedown="handleZoom(evt,'out')"/>
  <use id="reset" xlink:href="#resetDef" x="30" y="36" onmousedown="handleReset()"/>
   <use id="arrowup" xlink:href="#arrowUp" x="0" y="0" onmousedown="handlePan(0,-1)"/>
  <use id="arrowright" xlink:href="#arrowRight" x="0" y="0" onmousedown="handlePan(1,0)"/>
  <use id="arrowdown" xlink:href="#arrowDown" x="0" y="0" onmousedown="handlePan(0,1)"/>
  <use id="arrowleft" xlink:href="#arrowLeft" x="0" y="0" onmousedown="handlePan(-1,0)"/>
</g>
<svg viewBox="0 0 15 15" width="100%" height="30px" preserveAspectRatio="xMaxYMin meet">
 <g id="arrow_out" transform="scale(0.3 0.3)">
  <a xlink:href="classtracking_1_1motion_1_1generic_1_1PredictCommon__inherit__graph_org.svg" target="_base">
   <rect id="button" ry="5" rx="5" y="6" x="6" height="38" width="38"
        fill="#f2f5e9" fill-opacity="0.5" stroke="#606060" stroke-width="1.0"/>
   <path id="arrow"
     d="M 11.500037,31.436501 C 11.940474,20.09759 22.043105,11.32322 32.158766,21.979434 L 37.068811,17.246167 C 37.068811,17.246167 37.088388,32 37.088388,32 L 22.160133,31.978069 C 22.160133,31.978069 26.997745,27.140456 26.997745,27.140456 C 18.528582,18.264221 13.291696,25.230495 11.500037,31.436501 z"
     style="fill:#404040;"/>
  </a>
 </g>
</svg>

<style type='text/css'>
<![CDATA[
[data-mouse-over-selected='false'] { opacity: 0.7; }
[data-mouse-over-selected='true']  { opacity: 1.0; }
]]>
</style>
<script type="application/ecmascript"><![CDATA[
document.addEventListener('DOMContentLoaded', (event) => {
  highlightEdges();
  highlightAdjacentNodes();
});
]]></script>
</svg>
