<?xml version="1.0" encoding="UTF-8" standalone="no"?>
<!DOCTYPE svg PUBLIC "-//W3C//DTD SVG 1.1//EN"
 "http://www.w3.org/Graphics/SVG/1.1/DTD/svg11.dtd">
<!-- Generated by graphviz version 2.43.0 (0)
 -->
<!-- Title: tracking::math::CovarianceMatrixFull&lt; ValueType_, Size_ &gt; Pages: 1 -->
<svg width="611pt" height="1238pt"
 viewBox="0.00 0.00 611.00 1238.00" xmlns="http://www.w3.org/2000/svg" xmlns:xlink="http://www.w3.org/1999/xlink">
<g id="graph0" class="graph" transform="scale(1 1) rotate(0) translate(4 1234)">
<title>tracking::math::CovarianceMatrixFull&lt; ValueType_, Size_ &gt;</title>
<!-- Node1 -->
<g id="Node000001" class="node">
<title>Node1</title>
<g id="a_Node000001"><a xlink:title="Full covariance matrix representation for Kalman filtering.">
<polygon fill="#999999" stroke="transparent" points="326.5,-266 183.5,-266 183.5,0 326.5,0 326.5,-266"/>
<text text-anchor="start" x="189" y="-254" font-family="Helvetica,sans-Serif" font-size="10.00">tracking::math::Covariance</text>
<text text-anchor="start" x="189" y="-243" font-family="Helvetica,sans-Serif" font-size="10.00">MatrixFull&lt; ValueType_,</text>
<text text-anchor="start" x="235.5" y="-232" font-family="Helvetica,sans-Serif" font-size="10.00"> Size_ &gt;</text>
<text text-anchor="start" x="188.5" y="-217" font-family="Helvetica,sans-Serif" font-size="10.00">+</text>
<text text-anchor="start" x="202" y="-217" font-family="Helvetica,sans-Serif" font-size="10.00">dim</text>
<text text-anchor="start" x="188.5" y="-202" font-family="Helvetica,sans-Serif" font-size="10.00">+</text>
<text text-anchor="start" x="202" y="-202" font-family="Helvetica,sans-Serif" font-size="10.00">CovarianceMatrixFull()</text>
<text text-anchor="start" x="188.5" y="-187" font-family="Helvetica,sans-Serif" font-size="10.00">+</text>
<text text-anchor="start" x="202" y="-187" font-family="Helvetica,sans-Serif" font-size="10.00">CovarianceMatrixFull()</text>
<text text-anchor="start" x="188.5" y="-172" font-family="Helvetica,sans-Serif" font-size="10.00">+</text>
<text text-anchor="start" x="202" y="-172" font-family="Helvetica,sans-Serif" font-size="10.00">CovarianceMatrixFull()</text>
<text text-anchor="start" x="188.5" y="-157" font-family="Helvetica,sans-Serif" font-size="10.00">+</text>
<text text-anchor="start" x="202" y="-157" font-family="Helvetica,sans-Serif" font-size="10.00">operator=()</text>
<text text-anchor="start" x="188.5" y="-142" font-family="Helvetica,sans-Serif" font-size="10.00">+</text>
<text text-anchor="start" x="202" y="-142" font-family="Helvetica,sans-Serif" font-size="10.00">operator=()</text>
<text text-anchor="start" x="188.5" y="-127" font-family="Helvetica,sans-Serif" font-size="10.00">+</text>
<text text-anchor="start" x="202" y="-127" font-family="Helvetica,sans-Serif" font-size="10.00">~CovarianceMatrixFull()</text>
<text text-anchor="start" x="188.5" y="-112" font-family="Helvetica,sans-Serif" font-size="10.00">+</text>
<text text-anchor="start" x="202" y="-112" font-family="Helvetica,sans-Serif" font-size="10.00">CovarianceMatrixFull()</text>
<text text-anchor="start" x="188.5" y="-97" font-family="Helvetica,sans-Serif" font-size="10.00">+</text>
<text text-anchor="start" x="202" y="-97" font-family="Helvetica,sans-Serif" font-size="10.00">CovarianceMatrixFull()</text>
<text text-anchor="start" x="188.5" y="-82" font-family="Helvetica,sans-Serif" font-size="10.00">+</text>
<text text-anchor="start" x="202" y="-82" font-family="Helvetica,sans-Serif" font-size="10.00">CovarianceMatrixFull()</text>
<text text-anchor="start" x="188.5" y="-67" font-family="Helvetica,sans-Serif" font-size="10.00">+</text>
<text text-anchor="start" x="202" y="-67" font-family="Helvetica,sans-Serif" font-size="10.00">CovarianceMatrixFull()</text>
<text text-anchor="start" x="202" y="-52" font-family="Helvetica,sans-Serif" font-size="10.00">and 8 more...</text>
<text text-anchor="start" x="188.5" y="-37" font-family="Helvetica,sans-Serif" font-size="10.00">+</text>
<text text-anchor="start" x="202" y="-37" font-family="Helvetica,sans-Serif" font-size="10.00">Identity()</text>
<text text-anchor="start" x="188.5" y="-22" font-family="Helvetica,sans-Serif" font-size="10.00">+</text>
<text text-anchor="start" x="202" y="-22" font-family="Helvetica,sans-Serif" font-size="10.00">FromDiagonal()</text>
<text text-anchor="start" x="188.5" y="-7" font-family="Helvetica,sans-Serif" font-size="10.00">+</text>
<text text-anchor="start" x="202" y="-7" font-family="Helvetica,sans-Serif" font-size="10.00">FromList()</text>
<polygon fill="#666666" stroke="#666666" points="184,-227 184,-227 327,-227 327,-227 184,-227"/>
<polygon fill="#666666" stroke="#666666" points="184,-212 184,-212 200,-212 200,-212 184,-212"/>
<polygon fill="#666666" stroke="#666666" points="200,-212 200,-212 327,-212 327,-212 200,-212"/>
<polygon fill="none" stroke="#666666" points="183.5,0 183.5,-266 326.5,-266 326.5,0 183.5,0"/>
</a>
</g>
</g>
<!-- Node2 -->
<g id="Node000002" class="node">
<title>Node2</title>
<g id="a_Node000002"><a xlink:href="classtracking_1_1math_1_1SquareMatrix.html" target="_top" xlink:title=" ">
<polygon fill="white" stroke="transparent" points="252,-568 96,-568 96,-302 252,-302 252,-568"/>
<text text-anchor="start" x="102.5" y="-556" font-family="Helvetica,sans-Serif" font-size="10.00">tracking::math::SquareMatrix</text>
<text text-anchor="start" x="106.5" y="-545" font-family="Helvetica,sans-Serif" font-size="10.00">&lt; ValueType_, Size_, true &gt;</text>
<text text-anchor="start" x="172" y="-530" font-family="Helvetica,sans-Serif" font-size="10.00"> </text>
<text text-anchor="start" x="100" y="-515" font-family="Helvetica,sans-Serif" font-size="10.00">+</text>
<text text-anchor="start" x="113" y="-515" font-family="Helvetica,sans-Serif" font-size="10.00">SquareMatrix()</text>
<text text-anchor="start" x="100" y="-500" font-family="Helvetica,sans-Serif" font-size="10.00">+</text>
<text text-anchor="start" x="113" y="-500" font-family="Helvetica,sans-Serif" font-size="10.00">SquareMatrix()</text>
<text text-anchor="start" x="100" y="-485" font-family="Helvetica,sans-Serif" font-size="10.00">+</text>
<text text-anchor="start" x="113" y="-485" font-family="Helvetica,sans-Serif" font-size="10.00">SquareMatrix()</text>
<text text-anchor="start" x="100" y="-470" font-family="Helvetica,sans-Serif" font-size="10.00">+</text>
<text text-anchor="start" x="113" y="-470" font-family="Helvetica,sans-Serif" font-size="10.00">setIdentity()</text>
<text text-anchor="start" x="100" y="-455" font-family="Helvetica,sans-Serif" font-size="10.00">+</text>
<text text-anchor="start" x="113" y="-455" font-family="Helvetica,sans-Serif" font-size="10.00">transpose()</text>
<text text-anchor="start" x="100" y="-440" font-family="Helvetica,sans-Serif" font-size="10.00">+</text>
<text text-anchor="start" x="113" y="-440" font-family="Helvetica,sans-Serif" font-size="10.00">transpose()</text>
<text text-anchor="start" x="100" y="-425" font-family="Helvetica,sans-Serif" font-size="10.00">+</text>
<text text-anchor="start" x="113" y="-425" font-family="Helvetica,sans-Serif" font-size="10.00">trace()</text>
<text text-anchor="start" x="100" y="-410" font-family="Helvetica,sans-Serif" font-size="10.00">+</text>
<text text-anchor="start" x="113" y="-410" font-family="Helvetica,sans-Serif" font-size="10.00">determinant()</text>
<text text-anchor="start" x="100" y="-395" font-family="Helvetica,sans-Serif" font-size="10.00">+</text>
<text text-anchor="start" x="113" y="-395" font-family="Helvetica,sans-Serif" font-size="10.00">householderQR()</text>
<text text-anchor="start" x="100" y="-380" font-family="Helvetica,sans-Serif" font-size="10.00">+</text>
<text text-anchor="start" x="113" y="-380" font-family="Helvetica,sans-Serif" font-size="10.00">qrSolve()</text>
<text text-anchor="start" x="113" y="-365" font-family="Helvetica,sans-Serif" font-size="10.00">and 14 more...</text>
<text text-anchor="start" x="100" y="-350" font-family="Helvetica,sans-Serif" font-size="10.00">+</text>
<text text-anchor="start" x="113" y="-350" font-family="Helvetica,sans-Serif" font-size="10.00">Identity()</text>
<text text-anchor="start" x="100" y="-335" font-family="Helvetica,sans-Serif" font-size="10.00">+</text>
<text text-anchor="start" x="113" y="-335" font-family="Helvetica,sans-Serif" font-size="10.00">FromList()</text>
<text text-anchor="start" x="102.5" y="-320" font-family="Helvetica,sans-Serif" font-size="10.00">&#45;</text>
<text text-anchor="start" x="113" y="-320" font-family="Helvetica,sans-Serif" font-size="10.00">hasStrictlyPositiveDiagonal</text>
<text text-anchor="start" x="113" y="-309" font-family="Helvetica,sans-Serif" font-size="10.00">Elems()</text>
<polygon fill="#666666" stroke="#666666" points="96,-540 96,-540 252,-540 252,-540 96,-540"/>
<polygon fill="#666666" stroke="#666666" points="96,-525 96,-525 252,-525 252,-525 96,-525"/>
<polygon fill="none" stroke="#666666" points="96,-302 96,-568 252,-568 252,-302 96,-302"/>
</a>
</g>
</g>
<!-- Node2&#45;&gt;Node1 -->
<g id="edge1_Node000001_Node000002" class="edge">
<title>Node2&#45;&gt;Node1</title>
<g id="a_edge1_Node000001_Node000002"><a xlink:title=" ">
<path fill="none" stroke="#63b8ff" d="M212.26,-292.28C214.59,-283.67 216.92,-275.02 219.24,-266.46"/>
<polygon fill="none" stroke="#63b8ff" points="208.87,-291.41 209.65,-301.98 215.63,-293.24 208.87,-291.41"/>
</a>
</g>
</g>
<!-- Node3 -->
<g id="Node000003" class="node">
<title>Node3</title>
<g id="a_Node000003"><a xlink:href="classtracking_1_1math_1_1Matrix.html" target="_top" xlink:title=" ">
<polygon fill="white" stroke="transparent" points="240.5,-1027 101.5,-1027 101.5,-604 240.5,-604 240.5,-1027"/>
<text text-anchor="start" x="109.5" y="-1014.5" font-family="Helvetica,sans-Serif" font-size="10.00">tracking::math::Matrix</text>
<text text-anchor="start" x="109.5" y="-1003.5" font-family="Helvetica,sans-Serif" font-size="10.00">&lt; ValueType_, Size_, Size</text>
<text text-anchor="start" x="129" y="-992.5" font-family="Helvetica,sans-Serif" font-size="10.00">_, IsRowMajor_ &gt;</text>
<text text-anchor="start" x="106" y="-977.5" font-family="Helvetica,sans-Serif" font-size="10.00">+</text>
<text text-anchor="start" x="119" y="-977.5" font-family="Helvetica,sans-Serif" font-size="10.00">Rows</text>
<text text-anchor="start" x="106" y="-962.5" font-family="Helvetica,sans-Serif" font-size="10.00">+</text>
<text text-anchor="start" x="119" y="-962.5" font-family="Helvetica,sans-Serif" font-size="10.00">Cols</text>
<text text-anchor="start" x="106" y="-947.5" font-family="Helvetica,sans-Serif" font-size="10.00">+</text>
<text text-anchor="start" x="119" y="-947.5" font-family="Helvetica,sans-Serif" font-size="10.00">IsRowMajor</text>
<text text-anchor="start" x="106" y="-932.5" font-family="Helvetica,sans-Serif" font-size="10.00">#</text>
<text text-anchor="start" x="119" y="-932.5" font-family="Helvetica,sans-Serif" font-size="10.00">RowsInMem</text>
<text text-anchor="start" x="106" y="-917.5" font-family="Helvetica,sans-Serif" font-size="10.00">#</text>
<text text-anchor="start" x="119" y="-917.5" font-family="Helvetica,sans-Serif" font-size="10.00">ColsInMem</text>
<text text-anchor="start" x="108.5" y="-902.5" font-family="Helvetica,sans-Serif" font-size="10.00">&#45;</text>
<text text-anchor="start" x="119" y="-902.5" font-family="Helvetica,sans-Serif" font-size="10.00">_data</text>
<text text-anchor="start" x="106" y="-887.5" font-family="Helvetica,sans-Serif" font-size="10.00">+</text>
<text text-anchor="start" x="119" y="-887.5" font-family="Helvetica,sans-Serif" font-size="10.00">Matrix()</text>
<text text-anchor="start" x="106" y="-872.5" font-family="Helvetica,sans-Serif" font-size="10.00">+</text>
<text text-anchor="start" x="119" y="-872.5" font-family="Helvetica,sans-Serif" font-size="10.00">Matrix()</text>
<text text-anchor="start" x="106" y="-857.5" font-family="Helvetica,sans-Serif" font-size="10.00">+</text>
<text text-anchor="start" x="119" y="-857.5" font-family="Helvetica,sans-Serif" font-size="10.00">Matrix()</text>
<text text-anchor="start" x="106" y="-842.5" font-family="Helvetica,sans-Serif" font-size="10.00">+</text>
<text text-anchor="start" x="119" y="-842.5" font-family="Helvetica,sans-Serif" font-size="10.00">operator=()</text>
<text text-anchor="start" x="106" y="-827.5" font-family="Helvetica,sans-Serif" font-size="10.00">+</text>
<text text-anchor="start" x="119" y="-827.5" font-family="Helvetica,sans-Serif" font-size="10.00">operator=()</text>
<text text-anchor="start" x="106" y="-812.5" font-family="Helvetica,sans-Serif" font-size="10.00">+</text>
<text text-anchor="start" x="119" y="-812.5" font-family="Helvetica,sans-Serif" font-size="10.00">~Matrix()</text>
<text text-anchor="start" x="106" y="-797.5" font-family="Helvetica,sans-Serif" font-size="10.00">+</text>
<text text-anchor="start" x="119" y="-797.5" font-family="Helvetica,sans-Serif" font-size="10.00">operator()()</text>
<text text-anchor="start" x="106" y="-782.5" font-family="Helvetica,sans-Serif" font-size="10.00">+</text>
<text text-anchor="start" x="119" y="-782.5" font-family="Helvetica,sans-Serif" font-size="10.00">operator()()</text>
<text text-anchor="start" x="106" y="-767.5" font-family="Helvetica,sans-Serif" font-size="10.00">+</text>
<text text-anchor="start" x="119" y="-767.5" font-family="Helvetica,sans-Serif" font-size="10.00">operator==()</text>
<text text-anchor="start" x="106" y="-752.5" font-family="Helvetica,sans-Serif" font-size="10.00">+</text>
<text text-anchor="start" x="119" y="-752.5" font-family="Helvetica,sans-Serif" font-size="10.00">operator!=()</text>
<text text-anchor="start" x="119" y="-737.5" font-family="Helvetica,sans-Serif" font-size="10.00">and 27 more...</text>
<text text-anchor="start" x="106" y="-722.5" font-family="Helvetica,sans-Serif" font-size="10.00">+</text>
<text text-anchor="start" x="119" y="-722.5" font-family="Helvetica,sans-Serif" font-size="10.00">Zeros()</text>
<text text-anchor="start" x="106" y="-707.5" font-family="Helvetica,sans-Serif" font-size="10.00">+</text>
<text text-anchor="start" x="119" y="-707.5" font-family="Helvetica,sans-Serif" font-size="10.00">Ones()</text>
<text text-anchor="start" x="106" y="-692.5" font-family="Helvetica,sans-Serif" font-size="10.00">+</text>
<text text-anchor="start" x="119" y="-692.5" font-family="Helvetica,sans-Serif" font-size="10.00">FromList()</text>
<text text-anchor="start" x="106" y="-677.5" font-family="Helvetica,sans-Serif" font-size="10.00">#</text>
<text text-anchor="start" x="119" y="-677.5" font-family="Helvetica,sans-Serif" font-size="10.00">data()</text>
<text text-anchor="start" x="106" y="-662.5" font-family="Helvetica,sans-Serif" font-size="10.00">#</text>
<text text-anchor="start" x="119" y="-662.5" font-family="Helvetica,sans-Serif" font-size="10.00">data()</text>
<text text-anchor="start" x="108.5" y="-647.5" font-family="Helvetica,sans-Serif" font-size="10.00">&#45;</text>
<text text-anchor="start" x="119" y="-647.5" font-family="Helvetica,sans-Serif" font-size="10.00">inplace_div_by_int</text>
<text text-anchor="start" x="119" y="-636.5" font-family="Helvetica,sans-Serif" font-size="10.00">_unsafe()</text>
<text text-anchor="start" x="108.5" y="-621.5" font-family="Helvetica,sans-Serif" font-size="10.00">&#45;</text>
<text text-anchor="start" x="119" y="-621.5" font-family="Helvetica,sans-Serif" font-size="10.00">inplace_mul_by_inverse</text>
<text text-anchor="start" x="119" y="-610.5" font-family="Helvetica,sans-Serif" font-size="10.00">_factor_unsafe()</text>
<polygon fill="#666666" stroke="#666666" points="102,-987.5 102,-987.5 241,-987.5 241,-987.5 102,-987.5"/>
<polygon fill="#666666" stroke="#666666" points="102,-897.5 102,-897.5 117,-897.5 117,-897.5 102,-897.5"/>
<polygon fill="#666666" stroke="#666666" points="117,-897.5 117,-897.5 241,-897.5 241,-897.5 117,-897.5"/>
<polygon fill="none" stroke="#666666" points="101.5,-604 101.5,-1027 240.5,-1027 240.5,-604 101.5,-604"/>
</a>
</g>
</g>
<!-- Node3&#45;&gt;Node2 -->
<g id="edge2_Node000002_Node000003" class="edge">
<title>Node3&#45;&gt;Node2</title>
<g id="a_edge2_Node000002_Node000003"><a xlink:title=" ">
<path fill="none" stroke="#63b8ff" d="M172.75,-593.8C172.82,-585.18 172.89,-576.66 172.95,-568.3"/>
<polygon fill="none" stroke="#63b8ff" points="169.25,-593.92 172.67,-603.94 176.25,-593.97 169.25,-593.92"/>
</a>
</g>
</g>
<!-- Node4 -->
<g id="Node000004" class="node">
<title>Node4</title>
<g id="a_Node000004"><a xlink:href="structtracking_1_1math_1_1contract_1_1MatrixIntf.html" target="_top" xlink:title=" ">
<polygon fill="white" stroke="transparent" points="259,-1134 83,-1134 83,-1063 259,-1063 259,-1134"/>
<text text-anchor="start" x="88" y="-1121.5" font-family="Helvetica,sans-Serif" font-size="10.00">tracking::math::contract</text>
<text text-anchor="start" x="88" y="-1110.5" font-family="Helvetica,sans-Serif" font-size="10.00">::MatrixIntf&lt; Matrix&lt; ValueType</text>
<text text-anchor="start" x="88" y="-1099.5" font-family="Helvetica,sans-Serif" font-size="10.00">_, Rows_, Cols_, IsRowMajor_ &gt; &gt;</text>
<text text-anchor="start" x="169" y="-1084.5" font-family="Helvetica,sans-Serif" font-size="10.00"> </text>
<text text-anchor="start" x="111.5" y="-1069.5" font-family="Helvetica,sans-Serif" font-size="10.00">+</text>
<text text-anchor="start" x="149" y="-1069.5" font-family="Helvetica,sans-Serif" font-size="10.00">MatrixIntf()</text>
<polygon fill="#666666" stroke="#666666" points="83,-1094.5 83,-1094.5 259,-1094.5 259,-1094.5 83,-1094.5"/>
<polygon fill="#666666" stroke="#666666" points="83,-1079.5 83,-1079.5 259,-1079.5 259,-1079.5 83,-1079.5"/>
<polygon fill="none" stroke="#666666" points="83,-1063 83,-1134 259,-1134 259,-1063 83,-1063"/>
</a>
</g>
</g>
<!-- Node4&#45;&gt;Node3 -->
<g id="edge3_Node000003_Node000004" class="edge">
<title>Node4&#45;&gt;Node3</title>
<g id="a_edge3_Node000003_Node000004"><a xlink:title=" ">
<path fill="none" stroke="#63b8ff" d="M171,-1052.62C171,-1044.83 171,-1036.29 171,-1027.23"/>
<polygon fill="none" stroke="#63b8ff" points="167.5,-1052.76 171,-1062.76 174.5,-1052.76 167.5,-1052.76"/>
</a>
</g>
</g>
<!-- Node5 -->
<g id="Node000005" class="node">
<title>Node5</title>
<g id="a_Node000005"><a xlink:href="classtracking_1_1base_1_1contract_1_1RequireCopyIntf.html" target="_top" xlink:title=" ">
<polygon fill="white" stroke="transparent" points="162,-1230 0,-1230 0,-1170 162,-1170 162,-1230"/>
<text text-anchor="start" x="5" y="-1218" font-family="Helvetica,sans-Serif" font-size="10.00">tracking::base::contract</text>
<text text-anchor="start" x="5" y="-1207" font-family="Helvetica,sans-Serif" font-size="10.00">::RequireCopyIntf&lt; ImplType &gt;</text>
<text text-anchor="start" x="79" y="-1192" font-family="Helvetica,sans-Serif" font-size="10.00"> </text>
<text text-anchor="start" x="17.5" y="-1177" font-family="Helvetica,sans-Serif" font-size="10.00">+</text>
<text text-anchor="start" x="44" y="-1177" font-family="Helvetica,sans-Serif" font-size="10.00">RequireCopyIntf()</text>
<polygon fill="#666666" stroke="#666666" points="0,-1202 0,-1202 162,-1202 162,-1202 0,-1202"/>
<polygon fill="#666666" stroke="#666666" points="0,-1187 0,-1187 162,-1187 162,-1187 0,-1187"/>
<polygon fill="none" stroke="#666666" points="0,-1170 0,-1230 162,-1230 162,-1170 0,-1170"/>
</a>
</g>
</g>
<!-- Node5&#45;&gt;Node4 -->
<g id="edge4_Node000004_Node000005" class="edge">
<title>Node5&#45;&gt;Node4</title>
<g id="a_edge4_Node000004_Node000005"><a xlink:title=" ">
<path fill="none" stroke="#63b8ff" d="M114.14,-1162.36C122.52,-1153.1 131.48,-1143.19 139.76,-1134.04"/>
<polygon fill="none" stroke="#63b8ff" points="111.39,-1160.19 107.27,-1169.95 116.58,-1164.88 111.39,-1160.19"/>
</a>
</g>
</g>
<!-- Node6 -->
<g id="Node000006" class="node">
<title>Node6</title>
<g id="a_Node000006"><a xlink:href="classtracking_1_1base_1_1contract_1_1RequireMoveIntf.html" target="_top" xlink:title=" ">
<polygon fill="white" stroke="transparent" points="344,-1230 180,-1230 180,-1170 344,-1170 344,-1230"/>
<text text-anchor="start" x="185" y="-1218" font-family="Helvetica,sans-Serif" font-size="10.00">tracking::base::contract</text>
<text text-anchor="start" x="185" y="-1207" font-family="Helvetica,sans-Serif" font-size="10.00">::RequireMoveIntf&lt; ImplType &gt;</text>
<text text-anchor="start" x="260" y="-1192" font-family="Helvetica,sans-Serif" font-size="10.00"> </text>
<text text-anchor="start" x="197.5" y="-1177" font-family="Helvetica,sans-Serif" font-size="10.00">+</text>
<text text-anchor="start" x="224" y="-1177" font-family="Helvetica,sans-Serif" font-size="10.00">RequireMoveIntf()</text>
<polygon fill="#666666" stroke="#666666" points="180,-1202 180,-1202 344,-1202 344,-1202 180,-1202"/>
<polygon fill="#666666" stroke="#666666" points="180,-1187 180,-1187 344,-1187 344,-1187 180,-1187"/>
<polygon fill="none" stroke="#666666" points="180,-1170 180,-1230 344,-1230 344,-1170 180,-1170"/>
</a>
</g>
</g>
<!-- Node6&#45;&gt;Node4 -->
<g id="edge5_Node000004_Node000006" class="edge">
<title>Node6&#45;&gt;Node4</title>
<g id="a_edge5_Node000004_Node000006"><a xlink:title=" ">
<path fill="none" stroke="#63b8ff" d="M228.49,-1162.36C220.02,-1153.1 210.96,-1143.19 202.59,-1134.04"/>
<polygon fill="none" stroke="#63b8ff" points="226.1,-1164.94 235.43,-1169.95 231.27,-1160.21 226.1,-1164.94"/>
</a>
</g>
</g>
<!-- Node7 -->
<g id="Node000007" class="node">
<title>Node7</title>
<g id="a_Node000007"><a xlink:href="structtracking_1_1math_1_1contract_1_1CovarianceMatrixIntf.html" target="_top" xlink:title=" ">
<polygon fill="white" stroke="transparent" points="407,-476 273,-476 273,-394 407,-394 407,-476"/>
<text text-anchor="start" x="278" y="-464" font-family="Helvetica,sans-Serif" font-size="10.00">tracking::math::contract</text>
<text text-anchor="start" x="278" y="-453" font-family="Helvetica,sans-Serif" font-size="10.00">::CovarianceMatrixIntf</text>
<text text-anchor="start" x="278" y="-442" font-family="Helvetica,sans-Serif" font-size="10.00">&lt; CovarianceMatrixFull&lt;</text>
<text text-anchor="start" x="284" y="-431" font-family="Helvetica,sans-Serif" font-size="10.00"> ValueType_, Size_ &gt; &gt;</text>
<text text-anchor="start" x="338" y="-416" font-family="Helvetica,sans-Serif" font-size="10.00"> </text>
<text text-anchor="start" x="277.5" y="-401" font-family="Helvetica,sans-Serif" font-size="10.00">+</text>
<text text-anchor="start" x="291" y="-401" font-family="Helvetica,sans-Serif" font-size="10.00">CovarianceMatrixIntf()</text>
<polygon fill="#666666" stroke="#666666" points="273,-426 273,-426 407,-426 407,-426 273,-426"/>
<polygon fill="#666666" stroke="#666666" points="273,-411 273,-411 407,-411 407,-411 273,-411"/>
<polygon fill="none" stroke="#666666" points="273,-394 273,-476 407,-476 407,-394 273,-394"/>
</a>
</g>
</g>
<!-- Node7&#45;&gt;Node1 -->
<g id="edge6_Node000001_Node000007" class="edge">
<title>Node7&#45;&gt;Node1</title>
<g id="a_edge6_Node000001_Node000007"><a xlink:title=" ">
<path fill="none" stroke="#63b8ff" d="M325.89,-384.2C316.74,-351.89 304.34,-308.14 292.47,-266.26"/>
<polygon fill="none" stroke="#63b8ff" points="322.53,-385.18 328.62,-393.85 329.27,-383.28 322.53,-385.18"/>
</a>
</g>
</g>
<!-- Node8 -->
<g id="Node000008" class="node">
<title>Node8</title>
<g id="a_Node000008"><a xlink:href="classtracking_1_1base_1_1contract_1_1RequireCopyIntf.html" target="_top" xlink:title=" ">
<polygon fill="white" stroke="transparent" points="421,-845.5 259,-845.5 259,-785.5 421,-785.5 421,-845.5"/>
<text text-anchor="start" x="264" y="-833.5" font-family="Helvetica,sans-Serif" font-size="10.00">tracking::base::contract</text>
<text text-anchor="start" x="264" y="-822.5" font-family="Helvetica,sans-Serif" font-size="10.00">::RequireCopyIntf&lt; ImplType &gt;</text>
<text text-anchor="start" x="338" y="-807.5" font-family="Helvetica,sans-Serif" font-size="10.00"> </text>
<text text-anchor="start" x="276.5" y="-792.5" font-family="Helvetica,sans-Serif" font-size="10.00">+</text>
<text text-anchor="start" x="303" y="-792.5" font-family="Helvetica,sans-Serif" font-size="10.00">RequireCopyIntf()</text>
<polygon fill="#666666" stroke="#666666" points="259,-817.5 259,-817.5 421,-817.5 421,-817.5 259,-817.5"/>
<polygon fill="#666666" stroke="#666666" points="259,-802.5 259,-802.5 421,-802.5 421,-802.5 259,-802.5"/>
<polygon fill="none" stroke="#666666" points="259,-785.5 259,-845.5 421,-845.5 421,-785.5 259,-785.5"/>
</a>
</g>
</g>
<!-- Node8&#45;&gt;Node7 -->
<g id="edge7_Node000007_Node000008" class="edge">
<title>Node8&#45;&gt;Node7</title>
<g id="a_edge7_Node000007_Node000008"><a xlink:title=" ">
<path fill="none" stroke="#63b8ff" d="M340,-775.36C340,-703.01 340,-549.06 340,-476.04"/>
<polygon fill="none" stroke="#63b8ff" points="336.5,-775.43 340,-785.43 343.5,-775.43 336.5,-775.43"/>
</a>
</g>
</g>
<!-- Node9 -->
<g id="Node000009" class="node">
<title>Node9</title>
<g id="a_Node000009"><a xlink:href="classtracking_1_1base_1_1contract_1_1RequireMoveIntf.html" target="_top" xlink:title=" ">
<polygon fill="white" stroke="transparent" points="603,-845.5 439,-845.5 439,-785.5 603,-785.5 603,-845.5"/>
<text text-anchor="start" x="444" y="-833.5" font-family="Helvetica,sans-Serif" font-size="10.00">tracking::base::contract</text>
<text text-anchor="start" x="444" y="-822.5" font-family="Helvetica,sans-Serif" font-size="10.00">::RequireMoveIntf&lt; ImplType &gt;</text>
<text text-anchor="start" x="519" y="-807.5" font-family="Helvetica,sans-Serif" font-size="10.00"> </text>
<text text-anchor="start" x="456.5" y="-792.5" font-family="Helvetica,sans-Serif" font-size="10.00">+</text>
<text text-anchor="start" x="483" y="-792.5" font-family="Helvetica,sans-Serif" font-size="10.00">RequireMoveIntf()</text>
<polygon fill="#666666" stroke="#666666" points="439,-817.5 439,-817.5 603,-817.5 603,-817.5 439,-817.5"/>
<polygon fill="#666666" stroke="#666666" points="439,-802.5 439,-802.5 603,-802.5 603,-802.5 439,-802.5"/>
<polygon fill="none" stroke="#666666" points="439,-785.5 439,-845.5 603,-845.5 603,-785.5 439,-785.5"/>
</a>
</g>
</g>
<!-- Node9&#45;&gt;Node7 -->
<g id="edge8_Node000007_Node000009" class="edge">
<title>Node9&#45;&gt;Node7</title>
<g id="a_edge8_Node000007_Node000009"><a xlink:title=" ">
<path fill="none" stroke="#63b8ff" d="M505.41,-775.79C488,-733.22 458.51,-663.04 430,-604 408.56,-559.6 381.59,-509.98 362.79,-476.25"/>
<polygon fill="none" stroke="#63b8ff" points="502.23,-777.27 509.25,-785.21 508.71,-774.63 502.23,-777.27"/>
</a>
</g>
</g>
</g>
</svg>
