<?xml version="1.0" encoding="UTF-8" standalone="no"?>
<!DOCTYPE svg PUBLIC "-//W3C//DTD SVG 1.1//EN"
 "http://www.w3.org/Graphics/SVG/1.1/DTD/svg11.dtd">
<!-- Generated by graphviz version 2.43.0 (0)
 -->
<!-- Title: tracking::math::CovarianceMatrixFactored::composed_inverse Pages: 1 -->
<svg width="732pt" height="108pt"
 viewBox="0.00 0.00 732.00 108.00" xmlns="http://www.w3.org/2000/svg" xmlns:xlink="http://www.w3.org/1999/xlink">
<g id="graph0" class="graph" transform="scale(1 1) rotate(0) translate(4 104)">
<title>tracking::math::CovarianceMatrixFactored::composed_inverse</title>
<!-- Node1 -->
<g id="Node000001" class="node">
<title>Node1</title>
<g id="a_Node000001"><a xlink:title="Compute inverse as full covariance matrix.">
<polygon fill="#999999" stroke="#666666" points="149,-67 0,-67 0,-26 149,-26 149,-67"/>
<text text-anchor="start" x="8" y="-55" font-family="Helvetica,sans-Serif" font-size="10.00">tracking::math::Covariance</text>
<text text-anchor="start" x="8" y="-44" font-family="Helvetica,sans-Serif" font-size="10.00">MatrixFactored::composed</text>
<text text-anchor="middle" x="74.5" y="-33" font-family="Helvetica,sans-Serif" font-size="10.00">_inverse</text>
</a>
</g>
</g>
<!-- Node2 -->
<g id="Node000002" class="node">
<title>Node2</title>
<g id="a_Node000002"><a xlink:href="classtracking_1_1math_1_1CovarianceMatrixFull.html#a3ca0f4a537a5362a74ef765ef46c1986" target="_top" xlink:title="Calculates the matrix inverse using Cholesky decomposition.">
<polygon fill="white" stroke="#666666" points="334,-83.5 185,-83.5 185,-53.5 334,-53.5 334,-83.5"/>
<text text-anchor="start" x="193" y="-71.5" font-family="Helvetica,sans-Serif" font-size="10.00">tracking::math::Covariance</text>
<text text-anchor="middle" x="259.5" y="-60.5" font-family="Helvetica,sans-Serif" font-size="10.00">MatrixFull::inverse</text>
</a>
</g>
</g>
<!-- Node1&#45;&gt;Node2 -->
<g id="edge1_Node000001_Node000002" class="edge">
<title>Node1&#45;&gt;Node2</title>
<g id="a_edge1_Node000001_Node000002"><a xlink:title=" ">
<path fill="none" stroke="#63b8ff" d="M149.14,-55.35C157.57,-56.37 166.2,-57.4 174.74,-58.43"/>
<polygon fill="#63b8ff" stroke="#63b8ff" points="174.36,-61.91 184.71,-59.63 175.2,-54.96 174.36,-61.91"/>
</a>
</g>
</g>
<!-- Node5 -->
<g id="Node000005" class="node">
<title>Node5</title>
<g id="a_Node000005"><a xlink:href="classtracking_1_1math_1_1SquareMatrix.html#a83aee3d96b9a570cf86fd8b82151f1a3" target="_top" xlink:title="Fast transpose without changing the layout (zero&#45;copy view)">
<polygon fill="white" stroke="#666666" points="529,-40.5 370,-40.5 370,-10.5 529,-10.5 529,-40.5"/>
<text text-anchor="start" x="378" y="-28.5" font-family="Helvetica,sans-Serif" font-size="10.00">tracking::math::SquareMatrix</text>
<text text-anchor="middle" x="449.5" y="-17.5" font-family="Helvetica,sans-Serif" font-size="10.00">::transpose</text>
</a>
</g>
</g>
<!-- Node1&#45;&gt;Node5 -->
<g id="edge6_Node000001_Node000005" class="edge">
<title>Node1&#45;&gt;Node5</title>
<g id="a_edge6_Node000001_Node000005"><a xlink:title=" ">
<path fill="none" stroke="#63b8ff" d="M149.19,-42.35C209.65,-38.95 295.45,-34.12 359.69,-30.5"/>
<polygon fill="#63b8ff" stroke="#63b8ff" points="360.02,-33.99 369.81,-29.93 359.63,-27 360.02,-33.99"/>
</a>
</g>
</g>
<!-- Node3 -->
<g id="Node000003" class="node">
<title>Node3</title>
<g id="a_Node000003"><a xlink:href="classtracking_1_1math_1_1CovarianceMatrixFull.html#a39cbdd384d2c9714aa87c4a80983a0e6" target="_top" xlink:title="Construct an Identity matrix.">
<polygon fill="white" stroke="#666666" points="524,-91.5 375,-91.5 375,-61.5 524,-61.5 524,-91.5"/>
<text text-anchor="start" x="383" y="-79.5" font-family="Helvetica,sans-Serif" font-size="10.00">tracking::math::Covariance</text>
<text text-anchor="middle" x="449.5" y="-68.5" font-family="Helvetica,sans-Serif" font-size="10.00">MatrixFull::Identity</text>
</a>
</g>
</g>
<!-- Node2&#45;&gt;Node3 -->
<g id="edge2_Node000002_Node000003" class="edge">
<title>Node2&#45;&gt;Node3</title>
<g id="a_edge2_Node000002_Node000003"><a xlink:title=" ">
<path fill="none" stroke="#63b8ff" d="M334.26,-71.64C344.29,-72.07 354.65,-72.51 364.83,-72.94"/>
<polygon fill="#63b8ff" stroke="#63b8ff" points="364.81,-76.44 374.95,-73.37 365.11,-69.45 364.81,-76.44"/>
</a>
</g>
</g>
<!-- Node2&#45;&gt;Node5 -->
<g id="edge4_Node000002_Node000005" class="edge">
<title>Node2&#45;&gt;Node5</title>
<g id="a_edge4_Node000002_Node000005"><a xlink:title=" ">
<path fill="none" stroke="#63b8ff" d="M326.25,-53.46C341.28,-50.02 357.37,-46.34 372.78,-42.82"/>
<polygon fill="#63b8ff" stroke="#63b8ff" points="373.82,-46.17 382.78,-40.53 372.26,-39.35 373.82,-46.17"/>
</a>
</g>
</g>
<!-- Node4 -->
<g id="Node000004" class="node">
<title>Node4</title>
<g id="a_Node000004"><a xlink:href="classtracking_1_1math_1_1SquareMatrix.html#a1767678675efd8983ce5beab4c53b2d7" target="_top" xlink:title="Construct an identity matrix with ones on the diagonal and zeros elsewhere.">
<polygon fill="white" stroke="#666666" points="724,-100 565,-100 565,-59 724,-59 724,-100"/>
<text text-anchor="start" x="573" y="-88" font-family="Helvetica,sans-Serif" font-size="10.00">tracking::math::SquareMatrix</text>
<text text-anchor="start" x="573" y="-77" font-family="Helvetica,sans-Serif" font-size="10.00">&lt; ValueType_, Size_, true</text>
<text text-anchor="middle" x="644.5" y="-66" font-family="Helvetica,sans-Serif" font-size="10.00"> &gt;::Identity</text>
</a>
</g>
</g>
<!-- Node3&#45;&gt;Node4 -->
<g id="edge3_Node000003_Node000004" class="edge">
<title>Node3&#45;&gt;Node4</title>
<g id="a_edge3_Node000003_Node000004"><a xlink:title=" ">
<path fill="none" stroke="#63b8ff" d="M524.02,-77.64C534,-77.8 544.34,-77.96 554.56,-78.12"/>
<polygon fill="#63b8ff" stroke="#63b8ff" points="554.67,-81.62 564.73,-78.28 554.78,-74.62 554.67,-81.62"/>
</a>
</g>
</g>
<!-- Node6 -->
<g id="Node000006" class="node">
<title>Node6</title>
<g id="a_Node000006"><a xlink:href="classtracking_1_1math_1_1Matrix.html#a478f0eea63246477537c07d88584371d" target="_top" xlink:title="Fast transpose without changing the layout (zero&#45;copy view)">
<polygon fill="white" stroke="#666666" points="722,-41 567,-41 567,0 722,0 722,-41"/>
<text text-anchor="start" x="575" y="-29" font-family="Helvetica,sans-Serif" font-size="10.00">tracking::math::Matrix</text>
<text text-anchor="start" x="575" y="-18" font-family="Helvetica,sans-Serif" font-size="10.00">&lt; ValueType_, Size_, Size</text>
<text text-anchor="middle" x="644.5" y="-7" font-family="Helvetica,sans-Serif" font-size="10.00">_, IsRowMajor_ &gt;::transpose</text>
</a>
</g>
</g>
<!-- Node5&#45;&gt;Node6 -->
<g id="edge5_Node000005_Node000006" class="edge">
<title>Node5&#45;&gt;Node6</title>
<g id="a_edge5_Node000005_Node000006"><a xlink:title=" ">
<path fill="none" stroke="#63b8ff" d="M529,-23.47C538.2,-23.23 547.62,-22.98 556.92,-22.74"/>
<polygon fill="#63b8ff" stroke="#63b8ff" points="557.04,-26.24 566.94,-22.48 556.86,-19.24 557.04,-26.24"/>
</a>
</g>
</g>
</g>
</svg>
