<?xml version="1.0" encoding="UTF-8" standalone="no"?>
<!DOCTYPE svg PUBLIC "-//W3C//DTD SVG 1.1//EN"
 "http://www.w3.org/Graphics/SVG/1.1/DTD/svg11.dtd">
<!-- Generated by graphviz version 2.43.0 (0)
 -->
<!-- Title: tracking::motion::generic::Predict&lt; MotionModel_, CovarianceMatrixPolicy_ &gt; Pages: 1 -->
<svg width="456pt" height="980pt"
 viewBox="0.00 0.00 456.00 980.00" xmlns="http://www.w3.org/2000/svg" xmlns:xlink="http://www.w3.org/1999/xlink">
<g id="graph0" class="graph" transform="scale(1 1) rotate(0) translate(4 976)">
<title>tracking::motion::generic::Predict&lt; MotionModel_, CovarianceMatrixPolicy_ &gt;</title>
<!-- Node1 -->
<g id="Node000001" class="node">
<title>Node1</title>
<g id="a_Node000001"><a xlink:title="Base class to extend any motion model with a generic prediction functionality using the CRTP pattern.">
<polygon fill="#999999" stroke="transparent" points="300.5,-865 146.5,-865 146.5,-779 300.5,-779 300.5,-865"/>
<text text-anchor="start" x="151.5" y="-853" font-family="Helvetica,sans-Serif" font-size="10.00">tracking::motion::generic</text>
<text text-anchor="start" x="151.5" y="-842" font-family="Helvetica,sans-Serif" font-size="10.00">::Predict&lt; MotionModel</text>
<text text-anchor="start" x="151.5" y="-831" font-family="Helvetica,sans-Serif" font-size="10.00">_, CovarianceMatrixPolicy_ &gt;</text>
<text text-anchor="start" x="221.5" y="-816" font-family="Helvetica,sans-Serif" font-size="10.00"> </text>
<text text-anchor="start" x="177.5" y="-801" font-family="Helvetica,sans-Serif" font-size="10.00">+</text>
<text text-anchor="start" x="217.5" y="-801" font-family="Helvetica,sans-Serif" font-size="10.00">run()</text>
<text text-anchor="start" x="177.5" y="-786" font-family="Helvetica,sans-Serif" font-size="10.00">+</text>
<text text-anchor="start" x="217.5" y="-786" font-family="Helvetica,sans-Serif" font-size="10.00">run()</text>
<polygon fill="#666666" stroke="#666666" points="146.5,-826 146.5,-826 300.5,-826 300.5,-826 146.5,-826"/>
<polygon fill="#666666" stroke="#666666" points="146.5,-811 146.5,-811 300.5,-811 300.5,-811 146.5,-811"/>
<polygon fill="none" stroke="#666666" points="146.5,-779 146.5,-865 300.5,-865 300.5,-779 146.5,-779"/>
</a>
</g>
</g>
<!-- Node3 -->
<g id="Node000003" class="node">
<title>Node3</title>
<g id="a_Node000003"><a xlink:href="classtracking_1_1motion_1_1ExtendedMotionModel.html" target="_top" xlink:title=" ">
<polygon fill="white" stroke="transparent" points="215,-743 0,-743 0,-343 215,-343 215,-743"/>
<text text-anchor="start" x="5.5" y="-731" font-family="Helvetica,sans-Serif" font-size="10.00">tracking::motion::Extended</text>
<text text-anchor="start" x="5.5" y="-720" font-family="Helvetica,sans-Serif" font-size="10.00">MotionModel&lt; MotionModelCA</text>
<text text-anchor="start" x="5.5" y="-709" font-family="Helvetica,sans-Serif" font-size="10.00">&lt; CovarianceMatrixPolicy_</text>
<text text-anchor="start" x="5.5" y="-698" font-family="Helvetica,sans-Serif" font-size="10.00"> &gt;, MotionModelTraits&lt; CovarianceMatrix</text>
<text text-anchor="start" x="48" y="-687" font-family="Helvetica,sans-Serif" font-size="10.00">Policy_, StateDefCA &gt; &gt;</text>
<text text-anchor="start" x="106" y="-672" font-family="Helvetica,sans-Serif" font-size="10.00"> </text>
<text text-anchor="start" x="14" y="-657" font-family="Helvetica,sans-Serif" font-size="10.00">+</text>
<text text-anchor="start" x="36.5" y="-657" font-family="Helvetica,sans-Serif" font-size="10.00">ExtendedMotionModel()</text>
<text text-anchor="start" x="14" y="-642" font-family="Helvetica,sans-Serif" font-size="10.00">+</text>
<text text-anchor="start" x="36.5" y="-642" font-family="Helvetica,sans-Serif" font-size="10.00">~ExtendedMotionModel()</text>
<text text-anchor="start" x="14" y="-627" font-family="Helvetica,sans-Serif" font-size="10.00">+</text>
<text text-anchor="start" x="36.5" y="-627" font-family="Helvetica,sans-Serif" font-size="10.00">getX()</text>
<text text-anchor="start" x="14" y="-612" font-family="Helvetica,sans-Serif" font-size="10.00">+</text>
<text text-anchor="start" x="36.5" y="-612" font-family="Helvetica,sans-Serif" font-size="10.00">getY()</text>
<text text-anchor="start" x="14" y="-597" font-family="Helvetica,sans-Serif" font-size="10.00">+</text>
<text text-anchor="start" x="36.5" y="-597" font-family="Helvetica,sans-Serif" font-size="10.00">invertCov()</text>
<text text-anchor="start" x="14" y="-582" font-family="Helvetica,sans-Serif" font-size="10.00">+</text>
<text text-anchor="start" x="36.5" y="-582" font-family="Helvetica,sans-Serif" font-size="10.00">predict()</text>
<text text-anchor="start" x="14" y="-567" font-family="Helvetica,sans-Serif" font-size="10.00">+</text>
<text text-anchor="start" x="36.5" y="-567" font-family="Helvetica,sans-Serif" font-size="10.00">predict()</text>
<text text-anchor="start" x="14" y="-552" font-family="Helvetica,sans-Serif" font-size="10.00">+</text>
<text text-anchor="start" x="36.5" y="-552" font-family="Helvetica,sans-Serif" font-size="10.00">update()</text>
<text text-anchor="start" x="14" y="-537" font-family="Helvetica,sans-Serif" font-size="10.00">+</text>
<text text-anchor="start" x="36.5" y="-537" font-family="Helvetica,sans-Serif" font-size="10.00">update()</text>
<text text-anchor="start" x="14" y="-522" font-family="Helvetica,sans-Serif" font-size="10.00">+</text>
<text text-anchor="start" x="36.5" y="-522" font-family="Helvetica,sans-Serif" font-size="10.00">convertStateVecIntoState</text>
<text text-anchor="start" x="36.5" y="-511" font-family="Helvetica,sans-Serif" font-size="10.00">Space()</text>
<text text-anchor="start" x="14" y="-496" font-family="Helvetica,sans-Serif" font-size="10.00">+</text>
<text text-anchor="start" x="36.5" y="-496" font-family="Helvetica,sans-Serif" font-size="10.00">convertStateVecIntoInformation</text>
<text text-anchor="start" x="36.5" y="-485" font-family="Helvetica,sans-Serif" font-size="10.00">Space()</text>
<text text-anchor="start" x="14" y="-470" font-family="Helvetica,sans-Serif" font-size="10.00">+</text>
<text text-anchor="start" x="36.5" y="-470" font-family="Helvetica,sans-Serif" font-size="10.00">StateVecFromList()</text>
<text text-anchor="start" x="14" y="-455" font-family="Helvetica,sans-Serif" font-size="10.00">+</text>
<text text-anchor="start" x="36.5" y="-455" font-family="Helvetica,sans-Serif" font-size="10.00">StateCovFromList()</text>
<text text-anchor="start" x="14" y="-440" font-family="Helvetica,sans-Serif" font-size="10.00">+</text>
<text text-anchor="start" x="36.5" y="-440" font-family="Helvetica,sans-Serif" font-size="10.00">StateCovFromList()</text>
<text text-anchor="start" x="14" y="-425" font-family="Helvetica,sans-Serif" font-size="10.00">+</text>
<text text-anchor="start" x="36.5" y="-425" font-family="Helvetica,sans-Serif" font-size="10.00">FromLists()</text>
<text text-anchor="start" x="14" y="-410" font-family="Helvetica,sans-Serif" font-size="10.00">#</text>
<text text-anchor="start" x="36.5" y="-410" font-family="Helvetica,sans-Serif" font-size="10.00">ExtendedMotionModel()</text>
<text text-anchor="start" x="14" y="-395" font-family="Helvetica,sans-Serif" font-size="10.00">#</text>
<text text-anchor="start" x="36.5" y="-395" font-family="Helvetica,sans-Serif" font-size="10.00">ExtendedMotionModel()</text>
<text text-anchor="start" x="14" y="-380" font-family="Helvetica,sans-Serif" font-size="10.00">#</text>
<text text-anchor="start" x="36.5" y="-380" font-family="Helvetica,sans-Serif" font-size="10.00">ExtendedMotionModel()</text>
<text text-anchor="start" x="14" y="-365" font-family="Helvetica,sans-Serif" font-size="10.00">#</text>
<text text-anchor="start" x="36.5" y="-365" font-family="Helvetica,sans-Serif" font-size="10.00">operator=()</text>
<text text-anchor="start" x="14" y="-350" font-family="Helvetica,sans-Serif" font-size="10.00">#</text>
<text text-anchor="start" x="36.5" y="-350" font-family="Helvetica,sans-Serif" font-size="10.00">operator=()</text>
<polygon fill="#666666" stroke="#666666" points="0.5,-682 0.5,-682 215.5,-682 215.5,-682 0.5,-682"/>
<polygon fill="#666666" stroke="#666666" points="0.5,-667 0.5,-667 215.5,-667 215.5,-667 0.5,-667"/>
<polygon fill="none" stroke="#666666" points="0,-343 0,-743 215,-743 215,-343 0,-343"/>
</a>
</g>
</g>
<!-- Node1&#45;&gt;Node3 -->
<g id="edge2_Node000001_Node000003" class="edge">
<title>Node1&#45;&gt;Node3</title>
<g id="a_edge2_Node000001_Node000003"><a xlink:title=" ">
<path fill="none" stroke="#63b8ff" d="M202,-769.65C198.57,-761.47 194.85,-752.6 190.95,-743.27"/>
<polygon fill="none" stroke="#63b8ff" points="198.79,-771.06 205.88,-778.93 205.25,-768.35 198.79,-771.06"/>
</a>
</g>
</g>
<!-- Node5 -->
<g id="Node000005" class="node">
<title>Node5</title>
<g id="a_Node000005"><a xlink:href="classtracking_1_1motion_1_1ExtendedMotionModel.html" target="_top" xlink:title=" ">
<polygon fill="white" stroke="transparent" points="448,-743 233,-743 233,-343 448,-343 448,-743"/>
<text text-anchor="start" x="238.5" y="-731" font-family="Helvetica,sans-Serif" font-size="10.00">tracking::motion::Extended</text>
<text text-anchor="start" x="238.5" y="-720" font-family="Helvetica,sans-Serif" font-size="10.00">MotionModel&lt; MotionModelCV</text>
<text text-anchor="start" x="238.5" y="-709" font-family="Helvetica,sans-Serif" font-size="10.00">&lt; CovarianceMatrixPolicy_</text>
<text text-anchor="start" x="238.5" y="-698" font-family="Helvetica,sans-Serif" font-size="10.00"> &gt;, MotionModelTraits&lt; CovarianceMatrix</text>
<text text-anchor="start" x="281" y="-687" font-family="Helvetica,sans-Serif" font-size="10.00">Policy_, StateDefCV &gt; &gt;</text>
<text text-anchor="start" x="339" y="-672" font-family="Helvetica,sans-Serif" font-size="10.00"> </text>
<text text-anchor="start" x="247" y="-657" font-family="Helvetica,sans-Serif" font-size="10.00">+</text>
<text text-anchor="start" x="269.5" y="-657" font-family="Helvetica,sans-Serif" font-size="10.00">ExtendedMotionModel()</text>
<text text-anchor="start" x="247" y="-642" font-family="Helvetica,sans-Serif" font-size="10.00">+</text>
<text text-anchor="start" x="269.5" y="-642" font-family="Helvetica,sans-Serif" font-size="10.00">~ExtendedMotionModel()</text>
<text text-anchor="start" x="247" y="-627" font-family="Helvetica,sans-Serif" font-size="10.00">+</text>
<text text-anchor="start" x="269.5" y="-627" font-family="Helvetica,sans-Serif" font-size="10.00">getX()</text>
<text text-anchor="start" x="247" y="-612" font-family="Helvetica,sans-Serif" font-size="10.00">+</text>
<text text-anchor="start" x="269.5" y="-612" font-family="Helvetica,sans-Serif" font-size="10.00">getY()</text>
<text text-anchor="start" x="247" y="-597" font-family="Helvetica,sans-Serif" font-size="10.00">+</text>
<text text-anchor="start" x="269.5" y="-597" font-family="Helvetica,sans-Serif" font-size="10.00">invertCov()</text>
<text text-anchor="start" x="247" y="-582" font-family="Helvetica,sans-Serif" font-size="10.00">+</text>
<text text-anchor="start" x="269.5" y="-582" font-family="Helvetica,sans-Serif" font-size="10.00">predict()</text>
<text text-anchor="start" x="247" y="-567" font-family="Helvetica,sans-Serif" font-size="10.00">+</text>
<text text-anchor="start" x="269.5" y="-567" font-family="Helvetica,sans-Serif" font-size="10.00">predict()</text>
<text text-anchor="start" x="247" y="-552" font-family="Helvetica,sans-Serif" font-size="10.00">+</text>
<text text-anchor="start" x="269.5" y="-552" font-family="Helvetica,sans-Serif" font-size="10.00">update()</text>
<text text-anchor="start" x="247" y="-537" font-family="Helvetica,sans-Serif" font-size="10.00">+</text>
<text text-anchor="start" x="269.5" y="-537" font-family="Helvetica,sans-Serif" font-size="10.00">update()</text>
<text text-anchor="start" x="247" y="-522" font-family="Helvetica,sans-Serif" font-size="10.00">+</text>
<text text-anchor="start" x="269.5" y="-522" font-family="Helvetica,sans-Serif" font-size="10.00">convertStateVecIntoState</text>
<text text-anchor="start" x="269.5" y="-511" font-family="Helvetica,sans-Serif" font-size="10.00">Space()</text>
<text text-anchor="start" x="247" y="-496" font-family="Helvetica,sans-Serif" font-size="10.00">+</text>
<text text-anchor="start" x="269.5" y="-496" font-family="Helvetica,sans-Serif" font-size="10.00">convertStateVecIntoInformation</text>
<text text-anchor="start" x="269.5" y="-485" font-family="Helvetica,sans-Serif" font-size="10.00">Space()</text>
<text text-anchor="start" x="247" y="-470" font-family="Helvetica,sans-Serif" font-size="10.00">+</text>
<text text-anchor="start" x="269.5" y="-470" font-family="Helvetica,sans-Serif" font-size="10.00">StateVecFromList()</text>
<text text-anchor="start" x="247" y="-455" font-family="Helvetica,sans-Serif" font-size="10.00">+</text>
<text text-anchor="start" x="269.5" y="-455" font-family="Helvetica,sans-Serif" font-size="10.00">StateCovFromList()</text>
<text text-anchor="start" x="247" y="-440" font-family="Helvetica,sans-Serif" font-size="10.00">+</text>
<text text-anchor="start" x="269.5" y="-440" font-family="Helvetica,sans-Serif" font-size="10.00">StateCovFromList()</text>
<text text-anchor="start" x="247" y="-425" font-family="Helvetica,sans-Serif" font-size="10.00">+</text>
<text text-anchor="start" x="269.5" y="-425" font-family="Helvetica,sans-Serif" font-size="10.00">FromLists()</text>
<text text-anchor="start" x="247" y="-410" font-family="Helvetica,sans-Serif" font-size="10.00">#</text>
<text text-anchor="start" x="269.5" y="-410" font-family="Helvetica,sans-Serif" font-size="10.00">ExtendedMotionModel()</text>
<text text-anchor="start" x="247" y="-395" font-family="Helvetica,sans-Serif" font-size="10.00">#</text>
<text text-anchor="start" x="269.5" y="-395" font-family="Helvetica,sans-Serif" font-size="10.00">ExtendedMotionModel()</text>
<text text-anchor="start" x="247" y="-380" font-family="Helvetica,sans-Serif" font-size="10.00">#</text>
<text text-anchor="start" x="269.5" y="-380" font-family="Helvetica,sans-Serif" font-size="10.00">ExtendedMotionModel()</text>
<text text-anchor="start" x="247" y="-365" font-family="Helvetica,sans-Serif" font-size="10.00">#</text>
<text text-anchor="start" x="269.5" y="-365" font-family="Helvetica,sans-Serif" font-size="10.00">operator=()</text>
<text text-anchor="start" x="247" y="-350" font-family="Helvetica,sans-Serif" font-size="10.00">#</text>
<text text-anchor="start" x="269.5" y="-350" font-family="Helvetica,sans-Serif" font-size="10.00">operator=()</text>
<polygon fill="#666666" stroke="#666666" points="233.5,-682 233.5,-682 448.5,-682 448.5,-682 233.5,-682"/>
<polygon fill="#666666" stroke="#666666" points="233.5,-667 233.5,-667 448.5,-667 448.5,-667 233.5,-667"/>
<polygon fill="none" stroke="#666666" points="233,-343 233,-743 448,-743 448,-343 233,-343"/>
</a>
</g>
</g>
<!-- Node1&#45;&gt;Node5 -->
<g id="edge4_Node000001_Node000005" class="edge">
<title>Node1&#45;&gt;Node5</title>
<g id="a_edge4_Node000001_Node000005"><a xlink:title=" ">
<path fill="none" stroke="#63b8ff" d="M245.19,-769.65C248.65,-761.47 252.39,-752.6 256.33,-743.27"/>
<polygon fill="none" stroke="#63b8ff" points="241.94,-768.36 241.27,-778.93 248.39,-771.08 241.94,-768.36"/>
</a>
</g>
</g>
<!-- Node2 -->
<g id="Node000002" class="node">
<title>Node2</title>
<g id="a_Node000002"><a xlink:href="classtracking_1_1motion_1_1generic_1_1PredictCommon.html" target="_top" xlink:title="Base class for common calculations needed for any prediction.">
<polygon fill="white" stroke="transparent" points="308.5,-972 138.5,-972 138.5,-901 308.5,-901 308.5,-972"/>
<text text-anchor="start" x="143.5" y="-959.5" font-family="Helvetica,sans-Serif" font-size="10.00">tracking::motion::generic</text>
<text text-anchor="start" x="143.5" y="-948.5" font-family="Helvetica,sans-Serif" font-size="10.00">::PredictCommon&lt; MotionModel</text>
<text text-anchor="start" x="151.5" y="-937.5" font-family="Helvetica,sans-Serif" font-size="10.00">_, CovarianceMatrixPolicy_ &gt;</text>
<text text-anchor="start" x="221.5" y="-922.5" font-family="Helvetica,sans-Serif" font-size="10.00"> </text>
<text text-anchor="start" x="173.5" y="-907.5" font-family="Helvetica,sans-Serif" font-size="10.00">+</text>
<text text-anchor="start" x="217.5" y="-907.5" font-family="Helvetica,sans-Serif" font-size="10.00">run()</text>
<polygon fill="#666666" stroke="#666666" points="138.5,-932.5 138.5,-932.5 308.5,-932.5 308.5,-932.5 138.5,-932.5"/>
<polygon fill="#666666" stroke="#666666" points="138.5,-917.5 138.5,-917.5 308.5,-917.5 308.5,-917.5 138.5,-917.5"/>
<polygon fill="none" stroke="#666666" points="138.5,-901 138.5,-972 308.5,-972 308.5,-901 138.5,-901"/>
</a>
</g>
</g>
<!-- Node2&#45;&gt;Node1 -->
<g id="edge1_Node000001_Node000002" class="edge">
<title>Node2&#45;&gt;Node1</title>
<g id="a_edge1_Node000001_Node000002"><a xlink:title=" ">
<path fill="none" stroke="#63b8ff" d="M223.5,-890.8C223.5,-882.39 223.5,-873.62 223.5,-865.28"/>
<polygon fill="none" stroke="#63b8ff" points="220,-890.83 223.5,-900.83 227,-890.83 220,-890.83"/>
</a>
</g>
</g>
<!-- Node4 -->
<g id="Node000004" class="node">
<title>Node4</title>
<g id="a_Node000004"><a xlink:href="classtracking_1_1motion_1_1TEST__REMOVE__FINAL.html" target="_top" xlink:title=" ">
<polygon fill="white" stroke="transparent" points="318,-307 129,-307 129,0 318,0 318,-307"/>
<text text-anchor="start" x="134.5" y="-294.5" font-family="Helvetica,sans-Serif" font-size="10.00">tracking::motion::TEST</text>
<text text-anchor="start" x="134.5" y="-283.5" font-family="Helvetica,sans-Serif" font-size="10.00">_REMOVE_FINAL&lt; CovarianceMatrix</text>
<text text-anchor="start" x="201" y="-272.5" font-family="Helvetica,sans-Serif" font-size="10.00">Policy_ &gt;</text>
<text text-anchor="start" x="145.5" y="-257.5" font-family="Helvetica,sans-Serif" font-size="10.00">+</text>
<text text-anchor="start" x="170.5" y="-257.5" font-family="Helvetica,sans-Serif" font-size="10.00">NUM_AUG_PROC_NOISE</text>
<text text-anchor="start" x="170.5" y="-246.5" font-family="Helvetica,sans-Serif" font-size="10.00">_VARIABLES</text>
<text text-anchor="start" x="145.5" y="-231.5" font-family="Helvetica,sans-Serif" font-size="10.00">+</text>
<text text-anchor="start" x="170.5" y="-231.5" font-family="Helvetica,sans-Serif" font-size="10.00">MotionModelCA()</text>
<text text-anchor="start" x="145.5" y="-216.5" font-family="Helvetica,sans-Serif" font-size="10.00">+</text>
<text text-anchor="start" x="170.5" y="-216.5" font-family="Helvetica,sans-Serif" font-size="10.00">MotionModelCA()</text>
<text text-anchor="start" x="145.5" y="-201.5" font-family="Helvetica,sans-Serif" font-size="10.00">+</text>
<text text-anchor="start" x="170.5" y="-201.5" font-family="Helvetica,sans-Serif" font-size="10.00">MotionModelCA()</text>
<text text-anchor="start" x="145.5" y="-186.5" font-family="Helvetica,sans-Serif" font-size="10.00">+</text>
<text text-anchor="start" x="170.5" y="-186.5" font-family="Helvetica,sans-Serif" font-size="10.00">operator=()</text>
<text text-anchor="start" x="145.5" y="-171.5" font-family="Helvetica,sans-Serif" font-size="10.00">+</text>
<text text-anchor="start" x="170.5" y="-171.5" font-family="Helvetica,sans-Serif" font-size="10.00">operator=()</text>
<text text-anchor="start" x="145.5" y="-156.5" font-family="Helvetica,sans-Serif" font-size="10.00">+</text>
<text text-anchor="start" x="170.5" y="-156.5" font-family="Helvetica,sans-Serif" font-size="10.00">~MotionModelCA()</text>
<text text-anchor="start" x="145.5" y="-141.5" font-family="Helvetica,sans-Serif" font-size="10.00">+</text>
<text text-anchor="start" x="170.5" y="-141.5" font-family="Helvetica,sans-Serif" font-size="10.00">getVx()</text>
<text text-anchor="start" x="145.5" y="-126.5" font-family="Helvetica,sans-Serif" font-size="10.00">+</text>
<text text-anchor="start" x="170.5" y="-126.5" font-family="Helvetica,sans-Serif" font-size="10.00">getVy()</text>
<text text-anchor="start" x="145.5" y="-111.5" font-family="Helvetica,sans-Serif" font-size="10.00">+</text>
<text text-anchor="start" x="170.5" y="-111.5" font-family="Helvetica,sans-Serif" font-size="10.00">getAx()</text>
<text text-anchor="start" x="145.5" y="-96.5" font-family="Helvetica,sans-Serif" font-size="10.00">+</text>
<text text-anchor="start" x="170.5" y="-96.5" font-family="Helvetica,sans-Serif" font-size="10.00">getAy()</text>
<text text-anchor="start" x="170.5" y="-81.5" font-family="Helvetica,sans-Serif" font-size="10.00">and 21 more...</text>
<text text-anchor="start" x="145.5" y="-66.5" font-family="Helvetica,sans-Serif" font-size="10.00">+</text>
<text text-anchor="start" x="170.5" y="-66.5" font-family="Helvetica,sans-Serif" font-size="10.00">computeQ()</text>
<text text-anchor="start" x="145.5" y="-51.5" font-family="Helvetica,sans-Serif" font-size="10.00">+</text>
<text text-anchor="start" x="170.5" y="-51.5" font-family="Helvetica,sans-Serif" font-size="10.00">computeG()</text>
<text text-anchor="start" x="145.5" y="-36.5" font-family="Helvetica,sans-Serif" font-size="10.00">+</text>
<text text-anchor="start" x="170.5" y="-36.5" font-family="Helvetica,sans-Serif" font-size="10.00">computeQ()</text>
<text text-anchor="start" x="145.5" y="-21.5" font-family="Helvetica,sans-Serif" font-size="10.00">+</text>
<text text-anchor="start" x="170.5" y="-21.5" font-family="Helvetica,sans-Serif" font-size="10.00">computeG()</text>
<text text-anchor="start" x="148" y="-6.5" font-family="Helvetica,sans-Serif" font-size="10.00">&#45;</text>
<text text-anchor="start" x="170.5" y="-6.5" font-family="Helvetica,sans-Serif" font-size="10.00">MotionModelCA()</text>
<polygon fill="#666666" stroke="#666666" points="129.5,-267.5 129.5,-267.5 318.5,-267.5 318.5,-267.5 129.5,-267.5"/>
<polygon fill="#666666" stroke="#666666" points="129.5,-241.5 129.5,-241.5 168.5,-241.5 168.5,-241.5 129.5,-241.5"/>
<polygon fill="#666666" stroke="#666666" points="168.5,-241.5 168.5,-241.5 318.5,-241.5 318.5,-241.5 168.5,-241.5"/>
<polygon fill="none" stroke="#666666" points="129,0 129,-307 318,-307 318,0 129,0"/>
</a>
</g>
</g>
<!-- Node3&#45;&gt;Node4 -->
<g id="edge3_Node000003_Node000004" class="edge">
<title>Node3&#45;&gt;Node4</title>
<g id="a_edge3_Node000003_Node000004"><a xlink:title=" ">
<path fill="none" stroke="#63b8ff" d="M170.05,-333.05C172.65,-324.37 175.24,-315.73 177.79,-307.2"/>
<polygon fill="none" stroke="#63b8ff" points="166.63,-332.27 167.11,-342.86 173.33,-334.28 166.63,-332.27"/>
</a>
</g>
</g>
<!-- Node5&#45;&gt;Node4 -->
<g id="edge5_Node000005_Node000004" class="edge">
<title>Node5&#45;&gt;Node4</title>
<g id="a_edge5_Node000005_Node000004"><a xlink:title=" ">
<path fill="none" stroke="#63b8ff" d="M277.41,-333.05C274.79,-324.37 272.18,-315.73 269.61,-307.2"/>
<polygon fill="none" stroke="#63b8ff" points="274.13,-334.3 280.37,-342.86 280.83,-332.27 274.13,-334.3"/>
</a>
</g>
</g>
</g>
</svg>
