<?xml version="1.0" encoding="UTF-8" standalone="no"?>
<!DOCTYPE svg PUBLIC "-//W3C//DTD SVG 1.1//EN"
 "http://www.w3.org/Graphics/SVG/1.1/DTD/svg11.dtd">
<!-- Generated by graphviz version 2.43.0 (0)
 -->
<!-- Title: tracking::motion::StateMem&lt; CovarianceMatrixPolicy_, Size_ &gt; Pages: 1 -->
<!--zoomable 533 -->

<svg id="main" version="1.1" xmlns="http://www.w3.org/2000/svg" xmlns:xlink="http://www.w3.org/1999/xlink" xml:space="preserve" onload="init(evt)">
<style type="text/css"><![CDATA[
.node, .edge {opacity: 0.7;}
.node.selected, .edge.selected {opacity: 1;}
.edge:hover path { stroke: red; }
.edge:hover polygon { stroke: red; fill: red; }
]]></style>

<defs>
  <circle id="rim" cx="0" cy="0" r="7"/>
  <circle id="rim2" cx="0" cy="0" r="3.5"/>
  <g id="zoomPlus">
    <use xlink:href="#rim" fill="#404040"><set attributeName="fill" to="#808080" begin="zoomplus.mouseover" end="zoomplus.mouseout"/></use>
    <path d="M-4,0h8M0,-4v8" fill="none" stroke="white" stroke-width="1.5" pointer-events="none"/>
  </g>
  <g id="zoomMin">
    <use xlink:href="#rim" fill="#404040"><set attributeName="fill" to="#808080" begin="zoomminus.mouseover" end="zoomminus.mouseout"/></use>
    <path d="M-4,0h8" fill="none" stroke="white" stroke-width="1.5" pointer-events="none"/>
  </g>
  <g id="arrowUp" transform="translate(30 24)">
    <use xlink:href="#rim"/>
    <path pointer-events="none" fill="none" stroke="white" stroke-width="1.5" d="M0,-3.0v7 M-2.5,-0.5L0,-3.0L2.5,-0.5"/>
  </g>
  <g id="arrowRight" transform="rotate(90) translate(36 -43)">
    <use xlink:href="#rim"/>
    <path pointer-events="none" fill="none" stroke="white" stroke-width="1.5" d="M0,-3.0v7 M-2.5,-0.5L0,-3.0L2.5,-0.5"/>
  </g>
  <g id="arrowDown" transform="rotate(180) translate(-30 -48)">
    <use xlink:href="#rim"/>
    <path pointer-events="none" fill="none" stroke="white" stroke-width="1.5" d="M0,-3.0v7 M-2.5,-0.5L0,-3.0L2.5,-0.5"/>
  </g>
  <g id="arrowLeft" transform="rotate(270) translate(-36 17)">
    <use xlink:href="#rim"/>
    <path pointer-events="none" fill="none" stroke="white" stroke-width="1.5" d="M0,-3.0v7 M-2.5,-0.5L0,-3.0L2.5,-0.5"/>
  </g>
  <g id="resetDef">
    <use xlink:href="#rim2" fill="#404040"><set attributeName="fill" to="#808080" begin="reset.mouseover" end="reset.mouseout"/></use>
  </g>
</defs>
<script type="application/ecmascript">
var viewWidth = 431;
var viewHeight = 533;
var sectionId = 'dynsection-0';
</script>
<script type="application/ecmascript" xlink:href="svg.min.js"/>
<svg id="graph" class="graph">
<g id="viewport">
<title>tracking::motion::StateMem&lt; CovarianceMatrixPolicy_, Size_ &gt;</title>
<!-- Node1 -->
<g id="Node000001" class="node">
<title>Node1</title>
<g id="a_Node000001"><a xlink:title="StateMem class to represent a state vector with its uncertainty described by the state covariance mat...">
<polygon fill="#999999" stroke="transparent" points="329.5,-311 182.5,-311 182.5,0 329.5,0 329.5,-311"/>
<text text-anchor="start" x="188" y="-298.5" font-family="Helvetica,sans-Serif" font-size="10.00">tracking::motion::StateMem</text>
<text text-anchor="start" x="188" y="-287.5" font-family="Helvetica,sans-Serif" font-size="10.00">&lt; CovarianceMatrixPolicy</text>
<text text-anchor="start" x="232" y="-276.5" font-family="Helvetica,sans-Serif" font-size="10.00">_, Size_ &gt;</text>
<text text-anchor="start" x="192.5" y="-261.5" font-family="Helvetica,sans-Serif" font-size="10.00">&#45;</text>
<text text-anchor="start" x="206" y="-261.5" font-family="Helvetica,sans-Serif" font-size="10.00">_vec</text>
<text text-anchor="start" x="192.5" y="-246.5" font-family="Helvetica,sans-Serif" font-size="10.00">&#45;</text>
<text text-anchor="start" x="206" y="-246.5" font-family="Helvetica,sans-Serif" font-size="10.00">_cov</text>
<text text-anchor="start" x="190" y="-231.5" font-family="Helvetica,sans-Serif" font-size="10.00">+</text>
<text text-anchor="start" x="206" y="-231.5" font-family="Helvetica,sans-Serif" font-size="10.00">StateMem()</text>
<text text-anchor="start" x="190" y="-216.5" font-family="Helvetica,sans-Serif" font-size="10.00">+</text>
<text text-anchor="start" x="206" y="-216.5" font-family="Helvetica,sans-Serif" font-size="10.00">StateMem()</text>
<text text-anchor="start" x="190" y="-201.5" font-family="Helvetica,sans-Serif" font-size="10.00">+</text>
<text text-anchor="start" x="206" y="-201.5" font-family="Helvetica,sans-Serif" font-size="10.00">StateMem()</text>
<text text-anchor="start" x="190" y="-186.5" font-family="Helvetica,sans-Serif" font-size="10.00">+</text>
<text text-anchor="start" x="206" y="-186.5" font-family="Helvetica,sans-Serif" font-size="10.00">operator=()</text>
<text text-anchor="start" x="190" y="-171.5" font-family="Helvetica,sans-Serif" font-size="10.00">+</text>
<text text-anchor="start" x="206" y="-171.5" font-family="Helvetica,sans-Serif" font-size="10.00">operator=()</text>
<text text-anchor="start" x="190" y="-156.5" font-family="Helvetica,sans-Serif" font-size="10.00">+</text>
<text text-anchor="start" x="206" y="-156.5" font-family="Helvetica,sans-Serif" font-size="10.00">~StateMem()</text>
<text text-anchor="start" x="190" y="-141.5" font-family="Helvetica,sans-Serif" font-size="10.00">+</text>
<text text-anchor="start" x="206" y="-141.5" font-family="Helvetica,sans-Serif" font-size="10.00">getVec()</text>
<text text-anchor="start" x="190" y="-126.5" font-family="Helvetica,sans-Serif" font-size="10.00">+</text>
<text text-anchor="start" x="206" y="-126.5" font-family="Helvetica,sans-Serif" font-size="10.00">getVecForInternalUse()</text>
<text text-anchor="start" x="190" y="-111.5" font-family="Helvetica,sans-Serif" font-size="10.00">+</text>
<text text-anchor="start" x="206" y="-111.5" font-family="Helvetica,sans-Serif" font-size="10.00">getCov()</text>
<text text-anchor="start" x="190" y="-96.5" font-family="Helvetica,sans-Serif" font-size="10.00">+</text>
<text text-anchor="start" x="206" y="-96.5" font-family="Helvetica,sans-Serif" font-size="10.00">getCovForInternalUse()</text>
<text text-anchor="start" x="190" y="-81.5" font-family="Helvetica,sans-Serif" font-size="10.00">+</text>
<text text-anchor="start" x="206" y="-81.5" font-family="Helvetica,sans-Serif" font-size="10.00">operator[]()</text>
<text text-anchor="start" x="190" y="-66.5" font-family="Helvetica,sans-Serif" font-size="10.00">+</text>
<text text-anchor="start" x="206" y="-66.5" font-family="Helvetica,sans-Serif" font-size="10.00">operator()()</text>
<text text-anchor="start" x="190" y="-51.5" font-family="Helvetica,sans-Serif" font-size="10.00">#</text>
<text text-anchor="start" x="206" y="-51.5" font-family="Helvetica,sans-Serif" font-size="10.00">StateMem()</text>
<text text-anchor="start" x="190" y="-36.5" font-family="Helvetica,sans-Serif" font-size="10.00">#</text>
<text text-anchor="start" x="206" y="-36.5" font-family="Helvetica,sans-Serif" font-size="10.00">getVec()</text>
<text text-anchor="start" x="190" y="-21.5" font-family="Helvetica,sans-Serif" font-size="10.00">#</text>
<text text-anchor="start" x="206" y="-21.5" font-family="Helvetica,sans-Serif" font-size="10.00">getCov()</text>
<text text-anchor="start" x="190" y="-6.5" font-family="Helvetica,sans-Serif" font-size="10.00">#</text>
<text text-anchor="start" x="206" y="-6.5" font-family="Helvetica,sans-Serif" font-size="10.00">operator[]()</text>
<polygon fill="#666666" stroke="#666666" points="183,-271.5 183,-271.5 330,-271.5 330,-271.5 183,-271.5"/>
<polygon fill="#666666" stroke="#666666" points="183,-241.5 183,-241.5 204,-241.5 204,-241.5 183,-241.5"/>
<polygon fill="#666666" stroke="#666666" points="204,-241.5 204,-241.5 330,-241.5 330,-241.5 204,-241.5"/>
<polygon fill="none" stroke="#666666" points="182.5,0 182.5,-311 329.5,-311 329.5,0 182.5,0"/>
</a>
</g>
</g>
<!-- Node2 -->
<g id="Node000002" class="node">
<title>Node2</title>
<g id="a_Node000002"><a xlink:href="structtracking_1_1motion_1_1contract_1_1StateMemIntf.html" target="_top" xlink:title=" ">
<polygon fill="white" stroke="transparent" points="243.5,-429 98.5,-429 98.5,-347 243.5,-347 243.5,-429"/>
<text text-anchor="start" x="104" y="-417" font-family="Helvetica,sans-Serif" font-size="10.00">tracking::motion::contract</text>
<text text-anchor="start" x="104" y="-406" font-family="Helvetica,sans-Serif" font-size="10.00">::StateMemIntf&lt; StateMem</text>
<text text-anchor="start" x="104" y="-395" font-family="Helvetica,sans-Serif" font-size="10.00">&lt; CovarianceMatrixPolicy</text>
<text text-anchor="start" x="141.5" y="-384" font-family="Helvetica,sans-Serif" font-size="10.00">_, Size_ &gt; &gt;</text>
<text text-anchor="start" x="169.5" y="-369" font-family="Helvetica,sans-Serif" font-size="10.00"> </text>
<text text-anchor="start" x="115" y="-354" font-family="Helvetica,sans-Serif" font-size="10.00">+</text>
<text text-anchor="start" x="140" y="-354" font-family="Helvetica,sans-Serif" font-size="10.00">StateMemIntf()</text>
<polygon fill="#666666" stroke="#666666" points="99,-379 99,-379 244,-379 244,-379 99,-379"/>
<polygon fill="#666666" stroke="#666666" points="99,-364 99,-364 244,-364 244,-364 99,-364"/>
<polygon fill="none" stroke="#666666" points="98.5,-347 98.5,-429 243.5,-429 243.5,-347 98.5,-347"/>
</a>
</g>
</g>
<!-- Node2&#45;&gt;Node1 -->
<g id="edge1_Node000001_Node000002" class="edge">
<title>Node2&#45;&gt;Node1</title>
<g id="a_edge1_Node000001_Node000002"><a xlink:title=" ">
<path fill="none" stroke="#63b8ff" d="M189.32,-337.32C192.3,-329.23 195.52,-320.5 198.88,-311.39"/>
<polygon fill="none" stroke="#63b8ff" points="185.98,-336.26 185.81,-346.85 192.55,-338.68 185.98,-336.26"/>
</a>
</g>
</g>
<!-- Node3 -->
<g id="Node000003" class="node">
<title>Node3</title>
<g id="a_Node000003"><a xlink:href="classtracking_1_1base_1_1contract_1_1RequireCopyIntf.html" target="_top" xlink:title=" ">
<polygon fill="white" stroke="transparent" points="162,-525 0,-525 0,-465 162,-465 162,-525"/>
<text text-anchor="start" x="5" y="-513" font-family="Helvetica,sans-Serif" font-size="10.00">tracking::base::contract</text>
<text text-anchor="start" x="5" y="-502" font-family="Helvetica,sans-Serif" font-size="10.00">::RequireCopyIntf&lt; ImplType &gt;</text>
<text text-anchor="start" x="79" y="-487" font-family="Helvetica,sans-Serif" font-size="10.00"> </text>
<text text-anchor="start" x="17.5" y="-472" font-family="Helvetica,sans-Serif" font-size="10.00">+</text>
<text text-anchor="start" x="44" y="-472" font-family="Helvetica,sans-Serif" font-size="10.00">RequireCopyIntf()</text>
<polygon fill="#666666" stroke="#666666" points="0,-497 0,-497 162,-497 162,-497 0,-497"/>
<polygon fill="#666666" stroke="#666666" points="0,-482 0,-482 162,-482 162,-482 0,-482"/>
<polygon fill="none" stroke="#666666" points="0,-465 0,-525 162,-525 162,-465 0,-465"/>
</a>
</g>
</g>
<!-- Node3&#45;&gt;Node2 -->
<g id="edge2_Node000002_Node000003" class="edge">
<title>Node3&#45;&gt;Node2</title>
<g id="a_edge2_Node000002_Node000003"><a xlink:title=" ">
<path fill="none" stroke="#63b8ff" d="M112.71,-457.01C120.45,-447.97 128.78,-438.26 136.65,-429.08"/>
<polygon fill="none" stroke="#63b8ff" points="109.92,-454.88 106.07,-464.75 115.24,-459.44 109.92,-454.88"/>
</a>
</g>
</g>
<!-- Node4 -->
<g id="Node000004" class="node">
<title>Node4</title>
<g id="a_Node000004"><a xlink:href="classtracking_1_1base_1_1contract_1_1RequireMoveIntf.html" target="_top" xlink:title=" ">
<polygon fill="white" stroke="transparent" points="344,-525 180,-525 180,-465 344,-465 344,-525"/>
<text text-anchor="start" x="185" y="-513" font-family="Helvetica,sans-Serif" font-size="10.00">tracking::base::contract</text>
<text text-anchor="start" x="185" y="-502" font-family="Helvetica,sans-Serif" font-size="10.00">::RequireMoveIntf&lt; ImplType &gt;</text>
<text text-anchor="start" x="260" y="-487" font-family="Helvetica,sans-Serif" font-size="10.00"> </text>
<text text-anchor="start" x="197.5" y="-472" font-family="Helvetica,sans-Serif" font-size="10.00">+</text>
<text text-anchor="start" x="224" y="-472" font-family="Helvetica,sans-Serif" font-size="10.00">RequireMoveIntf()</text>
<polygon fill="#666666" stroke="#666666" points="180,-497 180,-497 344,-497 344,-497 180,-497"/>
<polygon fill="#666666" stroke="#666666" points="180,-482 180,-482 344,-482 344,-482 180,-482"/>
<polygon fill="none" stroke="#666666" points="180,-465 180,-525 344,-525 344,-465 180,-465"/>
</a>
</g>
</g>
<!-- Node4&#45;&gt;Node2 -->
<g id="edge3_Node000002_Node000004" class="edge">
<title>Node4&#45;&gt;Node2</title>
<g id="a_edge3_Node000002_Node000004"><a xlink:title=" ">
<path fill="none" stroke="#63b8ff" d="M229.94,-457.01C222.11,-447.97 213.69,-438.26 205.73,-429.08"/>
<polygon fill="none" stroke="#63b8ff" points="227.46,-459.49 236.65,-464.75 232.75,-454.9 227.46,-459.49"/>
</a>
</g>
</g>
<!-- Node5 -->
<g id="Node000005" class="node">
<title>Node5</title>
<g id="a_Node000005"><a xlink:href="structtracking_1_1math_1_1contract_1_1CovarianceMatrixPolicyIntf.html" target="_top" xlink:title=" ">
<polygon fill="white" stroke="transparent" points="422.5,-423.5 261.5,-423.5 261.5,-352.5 422.5,-352.5 422.5,-423.5"/>
<text text-anchor="start" x="270.5" y="-411" font-family="Helvetica,sans-Serif" font-size="10.00">tracking::math::contract</text>
<text text-anchor="start" x="270.5" y="-400" font-family="Helvetica,sans-Serif" font-size="10.00">::CovarianceMatrixPolicyIntf</text>
<text text-anchor="start" x="270.5" y="-389" font-family="Helvetica,sans-Serif" font-size="10.00">&lt; CovarianceMatrixPolicy_ &gt;</text>
<text text-anchor="start" x="340.5" y="-374" font-family="Helvetica,sans-Serif" font-size="10.00"> </text>
<text text-anchor="start" x="266" y="-359" font-family="Helvetica,sans-Serif" font-size="10.00">+</text>
<text text-anchor="start" x="279" y="-359" font-family="Helvetica,sans-Serif" font-size="10.00">CovarianceMatrixPolicyIntf()</text>
<polygon fill="#666666" stroke="#666666" points="262,-384 262,-384 423,-384 423,-384 262,-384"/>
<polygon fill="#666666" stroke="#666666" points="262,-369 262,-369 423,-369 423,-369 262,-369"/>
<polygon fill="none" stroke="#666666" points="261.5,-352.5 261.5,-423.5 422.5,-423.5 422.5,-352.5 261.5,-352.5"/>
</a>
</g>
</g>
<!-- Node5&#45;&gt;Node1 -->
<g id="edge4_Node000001_Node000005" class="edge">
<title>Node5&#45;&gt;Node1</title>
<g id="a_edge4_Node000001_Node000005"><a xlink:title=" ">
<path fill="none" stroke="#63b8ff" d="M325.52,-342.82C321.91,-333.14 317.88,-322.37 313.65,-311.01"/>
<polygon fill="none" stroke="#63b8ff" points="322.35,-344.35 329.12,-352.49 328.91,-341.9 322.35,-344.35"/>
</a>
</g>
</g>
</g>
</svg>

<g id="navigator" transform="translate(0 0)" fill="#404254">
  <rect fill="#f2f5e9" fill-opacity="0.5" stroke="#606060" stroke-width=".5" x="0" y="0" width="60" height="60"/>
  <use id="zoomplus" xlink:href="#zoomPlus" x="17" y="9" onmousedown="handleZoom(evt,'in')"/>
  <use id="zoomminus" xlink:href="#zoomMin" x="42" y="9" onmousedown="handleZoom(evt,'out')"/>
  <use id="reset" xlink:href="#resetDef" x="30" y="36" onmousedown="handleReset()"/>
   <use id="arrowup" xlink:href="#arrowUp" x="0" y="0" onmousedown="handlePan(0,-1)"/>
  <use id="arrowright" xlink:href="#arrowRight" x="0" y="0" onmousedown="handlePan(1,0)"/>
  <use id="arrowdown" xlink:href="#arrowDown" x="0" y="0" onmousedown="handlePan(0,1)"/>
  <use id="arrowleft" xlink:href="#arrowLeft" x="0" y="0" onmousedown="handlePan(-1,0)"/>
</g>
<svg viewBox="0 0 15 15" width="100%" height="30px" preserveAspectRatio="xMaxYMin meet">
 <g id="arrow_out" transform="scale(0.3 0.3)">
  <a xlink:href="classtracking_1_1motion_1_1StateMem__inherit__graph_org.svg" target="_base">
   <rect id="button" ry="5" rx="5" y="6" x="6" height="38" width="38"
        fill="#f2f5e9" fill-opacity="0.5" stroke="#606060" stroke-width="1.0"/>
   <path id="arrow"
     d="M 11.500037,31.436501 C 11.940474,20.09759 22.043105,11.32322 32.158766,21.979434 L 37.068811,17.246167 C 37.068811,17.246167 37.088388,32 37.088388,32 L 22.160133,31.978069 C 22.160133,31.978069 26.997745,27.140456 26.997745,27.140456 C 18.528582,18.264221 13.291696,25.230495 11.500037,31.436501 z"
     style="fill:#404040;"/>
  </a>
 </g>
</svg>

<style type='text/css'>
<![CDATA[
[data-mouse-over-selected='false'] { opacity: 0.7; }
[data-mouse-over-selected='true']  { opacity: 1.0; }
]]>
</style>
<script type="application/ecmascript"><![CDATA[
document.addEventListener('DOMContentLoaded', (event) => {
  highlightEdges();
  highlightAdjacentNodes();
});
]]></script>
</svg>
