<?xml version="1.0" encoding="UTF-8" standalone="no"?>
<!DOCTYPE svg PUBLIC "-//W3C//DTD SVG 1.1//EN"
 "http://www.w3.org/Graphics/SVG/1.1/DTD/svg11.dtd">
<!-- Generated by graphviz version 2.43.0 (0)
 -->
<!-- Title: tracking::math::Matrix::at_unsafe Pages: 1 -->
<svg width="578pt" height="580pt"
 viewBox="0.00 0.00 578.00 579.50" xmlns="http://www.w3.org/2000/svg" xmlns:xlink="http://www.w3.org/1999/xlink">
<g id="graph0" class="graph" transform="scale(1 1) rotate(0) translate(4 575.5)">
<title>tracking::math::Matrix::at_unsafe</title>
<!-- Node1 -->
<g id="Node000001" class="node">
<title>Node1</title>
<g id="a_Node000001"><a xlink:title="Unsafe element read&#45;only access (no bounds checking)">
<polygon fill="#999999" stroke="#666666" points="570,-280 445,-280 445,-250 570,-250 570,-280"/>
<text text-anchor="start" x="453" y="-268" font-family="Helvetica,sans-Serif" font-size="10.00">tracking::math::Matrix</text>
<text text-anchor="middle" x="507.5" y="-257" font-family="Helvetica,sans-Serif" font-size="10.00">::at_unsafe</text>
</a>
</g>
</g>
<!-- Node2 -->
<g id="Node000002" class="node">
<title>Node2</title>
<g id="a_Node000002"><a xlink:href="classtracking_1_1motion_1_1StateCovConverter_3_01MotionModelCA_3_01CovarianceMatrixPolicy___01_4cf241df2807db57c4696e14f1c33a9b2.html#aaf37a300d8f7b3ee9e0b1877781cbb19" target="_top" xlink:title=" ">
<polygon fill="white" stroke="#666666" points="409,-571.5 195,-571.5 195,-508.5 409,-508.5 409,-571.5"/>
<text text-anchor="start" x="203" y="-559.5" font-family="Helvetica,sans-Serif" font-size="10.00">tracking::motion::StateCov</text>
<text text-anchor="start" x="203" y="-548.5" font-family="Helvetica,sans-Serif" font-size="10.00">Converter&lt; MotionModelCA</text>
<text text-anchor="start" x="203" y="-537.5" font-family="Helvetica,sans-Serif" font-size="10.00">&lt; CovarianceMatrixPolicy</text>
<text text-anchor="start" x="203" y="-526.5" font-family="Helvetica,sans-Serif" font-size="10.00">_ &gt;, MotionModelCV&lt; CovarianceMatrix</text>
<text text-anchor="middle" x="302" y="-515.5" font-family="Helvetica,sans-Serif" font-size="10.00">Policy_ &gt; &gt;::convertFrom</text>
</a>
</g>
</g>
<!-- Node1&#45;&gt;Node2 -->
<g id="edge1_Node000001_Node000002" class="edge">
<title>Node1&#45;&gt;Node2</title>
<g id="a_edge1_Node000001_Node000002"><a xlink:title=" ">
<path fill="none" stroke="#63b8ff" d="M502.76,-290.28C494.44,-337.78 470.09,-440.86 409,-500 405.89,-503.01 402.53,-505.8 398.99,-508.38"/>
<polygon fill="#63b8ff" stroke="#63b8ff" points="506.24,-290.68 504.42,-280.24 499.33,-289.54 506.24,-290.68"/>
</a>
</g>
</g>
<!-- Node3 -->
<g id="Node000003" class="node">
<title>Node3</title>
<g id="a_Node000003"><a xlink:href="classtracking_1_1motion_1_1StateCovConverter_3_01MotionModelCV_3_01CovarianceMatrixPolicy___01_4eda10a9c0c0b4c9846df0bedca4b51a2.html#ac312b57d2862336f397aab2fde8fb697" target="_top" xlink:title=" ">
<polygon fill="white" stroke="#666666" points="409,-490.5 195,-490.5 195,-427.5 409,-427.5 409,-490.5"/>
<text text-anchor="start" x="203" y="-478.5" font-family="Helvetica,sans-Serif" font-size="10.00">tracking::motion::StateCov</text>
<text text-anchor="start" x="203" y="-467.5" font-family="Helvetica,sans-Serif" font-size="10.00">Converter&lt; MotionModelCV</text>
<text text-anchor="start" x="203" y="-456.5" font-family="Helvetica,sans-Serif" font-size="10.00">&lt; CovarianceMatrixPolicy</text>
<text text-anchor="start" x="203" y="-445.5" font-family="Helvetica,sans-Serif" font-size="10.00">_ &gt;, MotionModelCA&lt; CovarianceMatrix</text>
<text text-anchor="middle" x="302" y="-434.5" font-family="Helvetica,sans-Serif" font-size="10.00">Policy_ &gt; &gt;::convertFrom</text>
</a>
</g>
</g>
<!-- Node1&#45;&gt;Node3 -->
<g id="edge2_Node000001_Node000003" class="edge">
<title>Node1&#45;&gt;Node3</title>
<g id="a_edge2_Node000001_Node000003"><a xlink:title=" ">
<path fill="none" stroke="#63b8ff" d="M496.63,-289.79C482.13,-323.25 452.06,-382.73 409,-418 404.88,-421.38 400.45,-424.5 395.82,-427.38"/>
<polygon fill="#63b8ff" stroke="#63b8ff" points="499.97,-290.87 500.62,-280.29 493.52,-288.15 499.97,-290.87"/>
</a>
</g>
</g>
<!-- Node4 -->
<g id="Node000004" class="node">
<title>Node4</title>
<g id="a_Node000004"><a xlink:href="namespacetracking_1_1math_1_1conversions.html#a5cfb34890c4b8a46be286892155ed213" target="_top" xlink:title="Creates a single&#45;column Matrix from a Vector.">
<polygon fill="white" stroke="#666666" points="378,-409 226,-409 226,-379 378,-379 378,-409"/>
<text text-anchor="start" x="234" y="-397" font-family="Helvetica,sans-Serif" font-size="10.00">tracking::math::conversions</text>
<text text-anchor="middle" x="302" y="-386" font-family="Helvetica,sans-Serif" font-size="10.00">::MatrixFromVector</text>
</a>
</g>
</g>
<!-- Node1&#45;&gt;Node4 -->
<g id="edge3_Node000001_Node000004" class="edge">
<title>Node1&#45;&gt;Node4</title>
<g id="a_edge3_Node000001_Node000004"><a xlink:title=" ">
<path fill="none" stroke="#63b8ff" d="M491.15,-288.5C474.05,-312.74 444.13,-349.76 409,-370 399.52,-375.46 388.89,-379.68 378.12,-382.94"/>
<polygon fill="#63b8ff" stroke="#63b8ff" points="494.08,-290.42 496.86,-280.2 488.31,-286.46 494.08,-290.42"/>
</a>
</g>
</g>
<!-- Node5 -->
<g id="Node000005" class="node">
<title>Node5</title>
<g id="a_Node000005"><a xlink:href="classtracking_1_1math_1_1Matrix.html#abcffe22dc0aafe575bc41673a938828f" target="_top" xlink:title="Calculates matrix multiplication Self * Other.">
<polygon fill="white" stroke="#666666" points="364.5,-361 239.5,-361 239.5,-331 364.5,-331 364.5,-361"/>
<text text-anchor="start" x="247.5" y="-349" font-family="Helvetica,sans-Serif" font-size="10.00">tracking::math::Matrix</text>
<text text-anchor="middle" x="302" y="-338" font-family="Helvetica,sans-Serif" font-size="10.00">::operator*</text>
</a>
</g>
</g>
<!-- Node1&#45;&gt;Node5 -->
<g id="edge4_Node000001_Node000005" class="edge">
<title>Node1&#45;&gt;Node5</title>
<g id="a_edge4_Node000001_Node000005"><a xlink:title=" ">
<path fill="none" stroke="#63b8ff" d="M476.65,-285.69C457.95,-297.82 432.93,-312.56 409,-322 394.96,-327.54 379.34,-331.96 364.51,-335.42"/>
<polygon fill="#63b8ff" stroke="#63b8ff" points="478.61,-288.59 485.03,-280.16 474.75,-282.75 478.61,-288.59"/>
</a>
</g>
</g>
<!-- Node6 -->
<g id="Node000006" class="node">
<title>Node6</title>
<g id="a_Node000006"><a xlink:href="namespacetracking_1_1math.html#ae8c2f6288ea8b30c11b8f6d055edbc06" target="_top" xlink:title=" ">
<polygon fill="white" stroke="#666666" points="372,-312.5 232,-312.5 232,-293.5 372,-293.5 372,-312.5"/>
<text text-anchor="middle" x="302" y="-300.5" font-family="Helvetica,sans-Serif" font-size="10.00">tracking::math::operator*</text>
</a>
</g>
</g>
<!-- Node1&#45;&gt;Node6 -->
<g id="edge5_Node000001_Node000006" class="edge">
<title>Node1&#45;&gt;Node6</title>
<g id="a_edge5_Node000001_Node000006"><a xlink:title=" ">
<path fill="none" stroke="#63b8ff" d="M434.85,-278.38C408.22,-283.35 378.56,-288.89 354.13,-293.45"/>
<polygon fill="#63b8ff" stroke="#63b8ff" points="435.7,-281.78 444.89,-276.5 434.42,-274.9 435.7,-281.78"/>
</a>
</g>
</g>
<!-- Node10 -->
<g id="Node000010" class="node">
<title>Node10</title>
<g id="a_Node000010"><a xlink:href="namespacetracking_1_1math.html#a3cb17735266f10296c8f695c5a160af3" target="_top" xlink:title="Multiply two matrix views.">
<polygon fill="white" stroke="#666666" points="149.5,-274.5 9.5,-274.5 9.5,-255.5 149.5,-255.5 149.5,-274.5"/>
<text text-anchor="middle" x="79.5" y="-262.5" font-family="Helvetica,sans-Serif" font-size="10.00">tracking::math::operator*</text>
</a>
</g>
</g>
<!-- Node1&#45;&gt;Node10 -->
<g id="edge10_Node000001_Node000010" class="edge">
<title>Node1&#45;&gt;Node10</title>
<g id="a_edge10_Node000001_Node000010"><a xlink:title=" ">
<path fill="none" stroke="#63b8ff" d="M434.14,-265C354.61,-265 227.79,-265 149.59,-265"/>
<polygon fill="#63b8ff" stroke="#63b8ff" points="434.56,-268.5 444.56,-265 434.56,-261.5 434.56,-268.5"/>
</a>
</g>
</g>
<!-- Node11 -->
<g id="Node000011" class="node">
<title>Node11</title>
<g id="a_Node000011"><a xlink:href="namespacetracking_1_1math.html#ad59b912a93d23b51952426698d3e6c22" target="_top" xlink:title="Add two matrix views element&#45;wise.">
<polygon fill="white" stroke="#666666" points="373.5,-218.5 230.5,-218.5 230.5,-199.5 373.5,-199.5 373.5,-218.5"/>
<text text-anchor="middle" x="302" y="-206.5" font-family="Helvetica,sans-Serif" font-size="10.00">tracking::math::operator+</text>
</a>
</g>
</g>
<!-- Node1&#45;&gt;Node11 -->
<g id="edge11_Node000001_Node000011" class="edge">
<title>Node1&#45;&gt;Node11</title>
<g id="a_edge11_Node000001_Node000011"><a xlink:title=" ">
<path fill="none" stroke="#63b8ff" d="M441.93,-247.23C407.31,-237.71 366.04,-226.35 337.53,-218.5"/>
<polygon fill="#63b8ff" stroke="#63b8ff" points="441.4,-250.71 451.97,-249.99 443.25,-243.97 441.4,-250.71"/>
</a>
</g>
</g>
<!-- Node12 -->
<g id="Node000012" class="node">
<title>Node12</title>
<g id="a_Node000012"><a xlink:href="namespacetracking_1_1math.html#a202ace75a11abc67e81330e799b8827b" target="_top" xlink:title="Subtract two matrix views element&#45;wise.">
<polygon fill="white" stroke="#666666" points="371.5,-163.5 232.5,-163.5 232.5,-144.5 371.5,-144.5 371.5,-163.5"/>
<text text-anchor="middle" x="302" y="-151.5" font-family="Helvetica,sans-Serif" font-size="10.00">tracking::math::operator&#45;</text>
</a>
</g>
</g>
<!-- Node1&#45;&gt;Node12 -->
<g id="edge13_Node000001_Node000012" class="edge">
<title>Node1&#45;&gt;Node12</title>
<g id="a_edge13_Node000001_Node000012"><a xlink:title=" ">
<path fill="none" stroke="#63b8ff" d="M482.22,-243.12C463.34,-226.99 435.91,-205.44 409,-191 386.84,-179.11 360.1,-169.81 339.02,-163.5"/>
<polygon fill="#63b8ff" stroke="#63b8ff" points="480.16,-245.97 490.01,-249.88 484.75,-240.68 480.16,-245.97"/>
</a>
</g>
</g>
<!-- Node13 -->
<g id="Node000013" class="node">
<title>Node13</title>
<g id="a_Node000013"><a xlink:href="classtracking_1_1math_1_1Matrix.html#a5753d9ec2eb71fb4f171235731b8718e" target="_top" xlink:title="Set a block matrix at given position (compile&#45;time parameters)">
<polygon fill="white" stroke="#666666" points="364.5,-126 239.5,-126 239.5,-96 364.5,-96 364.5,-126"/>
<text text-anchor="start" x="247.5" y="-114" font-family="Helvetica,sans-Serif" font-size="10.00">tracking::math::Matrix</text>
<text text-anchor="middle" x="302" y="-103" font-family="Helvetica,sans-Serif" font-size="10.00">::setBlock</text>
</a>
</g>
</g>
<!-- Node1&#45;&gt;Node13 -->
<g id="edge15_Node000001_Node000013" class="edge">
<title>Node1&#45;&gt;Node13</title>
<g id="a_edge15_Node000001_Node000013"><a xlink:title=" ">
<path fill="none" stroke="#63b8ff" d="M494.94,-240.51C479.6,-210.77 449.63,-161.33 409,-135 395.78,-126.43 379.9,-120.9 364.52,-117.33"/>
<polygon fill="#63b8ff" stroke="#63b8ff" points="491.98,-242.4 499.58,-249.78 498.24,-239.27 491.98,-242.4"/>
</a>
</g>
</g>
<!-- Node15 -->
<g id="Node000015" class="node">
<title>Node15</title>
<g id="a_Node000015"><a xlink:href="classtracking_1_1math_1_1Matrix.html#a5f132cb4f3d87e6f18f53ea59b6d3657" target="_top" xlink:title="Set a block matrix at given position.">
<polygon fill="white" stroke="#666666" points="364.5,-78 239.5,-78 239.5,-48 364.5,-48 364.5,-78"/>
<text text-anchor="start" x="247.5" y="-66" font-family="Helvetica,sans-Serif" font-size="10.00">tracking::math::Matrix</text>
<text text-anchor="middle" x="302" y="-55" font-family="Helvetica,sans-Serif" font-size="10.00">::setBlock</text>
</a>
</g>
</g>
<!-- Node1&#45;&gt;Node15 -->
<g id="edge17_Node000001_Node000015" class="edge">
<title>Node1&#45;&gt;Node15</title>
<g id="a_edge17_Node000001_Node000015"><a xlink:title=" ">
<path fill="none" stroke="#63b8ff" d="M499.93,-239.77C488.4,-200.69 460.69,-125.98 409,-87 396.2,-77.34 380.21,-71.45 364.56,-67.89"/>
<polygon fill="#63b8ff" stroke="#63b8ff" points="496.68,-241.12 502.76,-249.79 503.41,-239.21 496.68,-241.12"/>
</a>
</g>
</g>
<!-- Node16 -->
<g id="Node000016" class="node">
<title>Node16</title>
<g id="a_Node000016"><a xlink:href="namespacetracking_1_1math_1_1conversions.html#a0873ae1f700757d4411181cae96cee65" target="_top" xlink:title="Creates a SquareMatrix from a DiagonalMatrix.">
<polygon fill="white" stroke="#666666" points="378,-30 226,-30 226,0 378,0 378,-30"/>
<text text-anchor="start" x="234" y="-18" font-family="Helvetica,sans-Serif" font-size="10.00">tracking::math::conversions</text>
<text text-anchor="middle" x="302" y="-7" font-family="Helvetica,sans-Serif" font-size="10.00">::SquareFromDiagonal</text>
</a>
</g>
</g>
<!-- Node1&#45;&gt;Node16 -->
<g id="edge18_Node000001_Node000016" class="edge">
<title>Node1&#45;&gt;Node16</title>
<g id="a_edge18_Node000001_Node000016"><a xlink:title=" ">
<path fill="none" stroke="#63b8ff" d="M503.16,-239.89C495.52,-192.87 472.28,-91.56 409,-39 400.07,-31.59 389.32,-26.35 378.13,-22.67"/>
<polygon fill="#63b8ff" stroke="#63b8ff" points="499.71,-240.48 504.67,-249.84 506.63,-239.43 499.71,-240.48"/>
</a>
</g>
</g>
<!-- Node7 -->
<g id="Node000007" class="node">
<title>Node7</title>
<g id="a_Node000007"><a xlink:href="classtracking_1_1math_1_1CovarianceMatrixFull.html#a70d258c33ab8284534f22683e26ec06e" target="_top" xlink:title="Compute A*P*A^T in&#45;place (covariance propagation)">
<polygon fill="white" stroke="#666666" points="154,-408 5,-408 5,-378 154,-378 154,-408"/>
<text text-anchor="start" x="13" y="-396" font-family="Helvetica,sans-Serif" font-size="10.00">tracking::math::Covariance</text>
<text text-anchor="middle" x="79.5" y="-385" font-family="Helvetica,sans-Serif" font-size="10.00">MatrixFull::apaT</text>
</a>
</g>
</g>
<!-- Node6&#45;&gt;Node7 -->
<g id="edge6_Node000006_Node000007" class="edge">
<title>Node6&#45;&gt;Node7</title>
<g id="a_edge6_Node000006_Node000007"><a xlink:title=" ">
<path fill="none" stroke="#63b8ff" d="M221.93,-310.4C212.46,-313.21 203.24,-316.98 195,-322 172.53,-335.69 180.61,-353.99 159,-369 154.08,-372.41 148.67,-375.35 143.05,-377.88"/>
<polygon fill="#63b8ff" stroke="#63b8ff" points="223.08,-313.72 231.86,-307.79 221.3,-306.94 223.08,-313.72"/>
</a>
</g>
</g>
<!-- Node8 -->
<g id="Node000008" class="node">
<title>Node8</title>
<g id="a_Node000008"><a xlink:href="classtracking_1_1math_1_1Vector.html#a0f839b3b261c9a949ba0f0dfa133f7ca" target="_top" xlink:title="Compute the squared Euclidean norm (L2 norm squared) of the vector.">
<polygon fill="white" stroke="#666666" points="142,-360 17,-360 17,-330 142,-330 142,-360"/>
<text text-anchor="start" x="25" y="-348" font-family="Helvetica,sans-Serif" font-size="10.00">tracking::math::Vector</text>
<text text-anchor="middle" x="79.5" y="-337" font-family="Helvetica,sans-Serif" font-size="10.00">::normSq</text>
</a>
</g>
</g>
<!-- Node6&#45;&gt;Node8 -->
<g id="edge7_Node000006_Node000008" class="edge">
<title>Node6&#45;&gt;Node8</title>
<g id="a_edge7_Node000006_Node000008"><a xlink:title=" ">
<path fill="none" stroke="#63b8ff" d="M236.62,-314.32C222.88,-316.8 208.45,-319.44 195,-322 177.87,-325.26 159.33,-328.92 142.25,-332.35"/>
<polygon fill="#63b8ff" stroke="#63b8ff" points="237.27,-317.76 246.49,-312.55 236.03,-310.87 237.27,-317.76"/>
</a>
</g>
</g>
<!-- Node9 -->
<g id="Node000009" class="node">
<title>Node9</title>
<g id="a_Node000009"><a xlink:href="namespacetracking_1_1math.html#a5da1defd9816130013342221228abf76" target="_top" xlink:title="Multiply a matrix by a column view.">
<polygon fill="white" stroke="#666666" points="149.5,-311.5 9.5,-311.5 9.5,-292.5 149.5,-292.5 149.5,-311.5"/>
<text text-anchor="middle" x="79.5" y="-299.5" font-family="Helvetica,sans-Serif" font-size="10.00">tracking::math::operator*</text>
</a>
</g>
</g>
<!-- Node6&#45;&gt;Node9 -->
<g id="edge8_Node000006_Node000009" class="edge">
<title>Node6&#45;&gt;Node9</title>
<g id="a_edge8_Node000006_Node000009"><a xlink:title=" ">
<path fill="none" stroke="#63b8ff" d="M221.56,-302.64C198.09,-302.53 172.58,-302.42 149.8,-302.31"/>
<polygon fill="#63b8ff" stroke="#63b8ff" points="221.82,-306.14 231.84,-302.69 221.85,-299.14 221.82,-306.14"/>
</a>
</g>
</g>
<!-- Node6&#45;&gt;Node10 -->
<g id="edge9_Node000006_Node000010" class="edge">
<title>Node6&#45;&gt;Node10</title>
<g id="a_edge9_Node000006_Node000010"><a xlink:title=" ">
<path fill="none" stroke="#63b8ff" d="M235.57,-291.72C203.85,-286.26 166.16,-279.76 135.88,-274.54"/>
<polygon fill="#63b8ff" stroke="#63b8ff" points="235.19,-295.21 245.64,-293.46 236.38,-288.31 235.19,-295.21"/>
</a>
</g>
</g>
<!-- Node11&#45;&gt;Node11 -->
<g id="edge12_Node000011_Node000011" class="edge">
<title>Node11&#45;&gt;Node11</title>
<g id="a_edge12_Node000011_Node000011"><a xlink:title=" ">
<path fill="none" stroke="#63b8ff" d="M340.25,-226.19C340.24,-231.92 327.49,-236.5 302,-236.5 265.74,-236.5 255.26,-227.23 270.56,-218.58"/>
<polygon fill="#63b8ff" stroke="#63b8ff" points="342.72,-223.7 333.44,-218.58 337.5,-228.37 342.72,-223.7"/>
</a>
</g>
</g>
<!-- Node12&#45;&gt;Node12 -->
<g id="edge14_Node000012_Node000012" class="edge">
<title>Node12&#45;&gt;Node12</title>
<g id="a_edge14_Node000012_Node000012"><a xlink:title=" ">
<path fill="none" stroke="#63b8ff" d="M340.25,-171.19C340.24,-176.92 327.49,-181.5 302,-181.5 265.74,-181.5 255.26,-172.23 270.56,-163.58"/>
<polygon fill="#63b8ff" stroke="#63b8ff" points="342.72,-168.7 333.44,-163.58 337.5,-173.37 342.72,-168.7"/>
</a>
</g>
</g>
<!-- Node14 -->
<g id="Node000014" class="node">
<title>Node14</title>
<g id="a_Node000014"><a xlink:href="classtracking_1_1math_1_1SquareMatrix.html#aa0f3f741e9c040da36cfb465e630bf6b" target="_top" xlink:title="Performs Householder QR decomposition of a square matrix.">
<polygon fill="white" stroke="#666666" points="159,-126 0,-126 0,-96 159,-96 159,-126"/>
<text text-anchor="start" x="8" y="-114" font-family="Helvetica,sans-Serif" font-size="10.00">tracking::math::SquareMatrix</text>
<text text-anchor="middle" x="79.5" y="-103" font-family="Helvetica,sans-Serif" font-size="10.00">::householderQR</text>
</a>
</g>
</g>
<!-- Node13&#45;&gt;Node14 -->
<g id="edge16_Node000013_Node000014" class="edge">
<title>Node13&#45;&gt;Node14</title>
<g id="a_edge16_Node000013_Node000014"><a xlink:title=" ">
<path fill="none" stroke="#63b8ff" d="M229.18,-111C206.8,-111 181.99,-111 159.16,-111"/>
<polygon fill="#63b8ff" stroke="#63b8ff" points="229.29,-114.5 239.29,-111 229.29,-107.5 229.29,-114.5"/>
</a>
</g>
</g>
</g>
</svg>
