<?xml version="1.0" encoding="UTF-8" standalone="no"?>
<!DOCTYPE svg PUBLIC "-//W3C//DTD SVG 1.1//EN"
 "http://www.w3.org/Graphics/SVG/1.1/DTD/svg11.dtd">
<!-- Generated by graphviz version 2.43.0 (0)
 -->
<!-- Title: tracking::observation::ExtendedObservationModel&lt; ObservationModel_, ObservationModelTrait_ &gt; Pages: 1 -->
<!--zoomable 846 -->

<svg id="main" version="1.1" xmlns="http://www.w3.org/2000/svg" xmlns:xlink="http://www.w3.org/1999/xlink" xml:space="preserve" onload="init(evt)">
<style type="text/css"><![CDATA[
.node, .edge {opacity: 0.7;}
.node.selected, .edge.selected {opacity: 1;}
.edge:hover path { stroke: red; }
.edge:hover polygon { stroke: red; fill: red; }
]]></style>

<defs>
  <circle id="rim" cx="0" cy="0" r="7"/>
  <circle id="rim2" cx="0" cy="0" r="3.5"/>
  <g id="zoomPlus">
    <use xlink:href="#rim" fill="#404040"><set attributeName="fill" to="#808080" begin="zoomplus.mouseover" end="zoomplus.mouseout"/></use>
    <path d="M-4,0h8M0,-4v8" fill="none" stroke="white" stroke-width="1.5" pointer-events="none"/>
  </g>
  <g id="zoomMin">
    <use xlink:href="#rim" fill="#404040"><set attributeName="fill" to="#808080" begin="zoomminus.mouseover" end="zoomminus.mouseout"/></use>
    <path d="M-4,0h8" fill="none" stroke="white" stroke-width="1.5" pointer-events="none"/>
  </g>
  <g id="arrowUp" transform="translate(30 24)">
    <use xlink:href="#rim"/>
    <path pointer-events="none" fill="none" stroke="white" stroke-width="1.5" d="M0,-3.0v7 M-2.5,-0.5L0,-3.0L2.5,-0.5"/>
  </g>
  <g id="arrowRight" transform="rotate(90) translate(36 -43)">
    <use xlink:href="#rim"/>
    <path pointer-events="none" fill="none" stroke="white" stroke-width="1.5" d="M0,-3.0v7 M-2.5,-0.5L0,-3.0L2.5,-0.5"/>
  </g>
  <g id="arrowDown" transform="rotate(180) translate(-30 -48)">
    <use xlink:href="#rim"/>
    <path pointer-events="none" fill="none" stroke="white" stroke-width="1.5" d="M0,-3.0v7 M-2.5,-0.5L0,-3.0L2.5,-0.5"/>
  </g>
  <g id="arrowLeft" transform="rotate(270) translate(-36 17)">
    <use xlink:href="#rim"/>
    <path pointer-events="none" fill="none" stroke="white" stroke-width="1.5" d="M0,-3.0v7 M-2.5,-0.5L0,-3.0L2.5,-0.5"/>
  </g>
  <g id="resetDef">
    <use xlink:href="#rim2" fill="#404040"><set attributeName="fill" to="#808080" begin="reset.mouseover" end="reset.mouseout"/></use>
  </g>
</defs>
<script type="application/ecmascript">
var viewWidth = 815;
var viewHeight = 846;
var sectionId = 'dynsection-0';
</script>
<script type="application/ecmascript" xlink:href="svg.min.js"/>
<svg id="graph" class="graph">
<g id="viewport">
<title>tracking::observation::ExtendedObservationModel&lt; ObservationModel_, ObservationModelTrait_ &gt;</title>
<!-- Node1 -->
<g id="Node000001" class="node">
<title>Node1</title>
<g id="a_Node000001"><a xlink:title="Abstract ObservationModel with known dimensions, keeping the model memory for the measurement vector ...">
<polygon fill="#999999" stroke="transparent" points="500.5,-277 318.5,-277 318.5,0 500.5,0 500.5,-277"/>
<text text-anchor="start" x="323.5" y="-264.5" font-family="Helvetica,sans-Serif" font-size="10.00">tracking::observation</text>
<text text-anchor="start" x="323.5" y="-253.5" font-family="Helvetica,sans-Serif" font-size="10.00">::ExtendedObservationModel</text>
<text text-anchor="start" x="323.5" y="-242.5" font-family="Helvetica,sans-Serif" font-size="10.00">&lt; ObservationModel_, Observation</text>
<text text-anchor="start" x="375.5" y="-231.5" font-family="Helvetica,sans-Serif" font-size="10.00">ModelTrait_ &gt;</text>
<text text-anchor="start" x="325" y="-216.5" font-family="Helvetica,sans-Serif" font-size="10.00">+</text>
<text text-anchor="start" x="340.5" y="-216.5" font-family="Helvetica,sans-Serif" font-size="10.00">DimZ</text>
<text text-anchor="start" x="325" y="-201.5" font-family="Helvetica,sans-Serif" font-size="10.00">+</text>
<text text-anchor="start" x="340.5" y="-201.5" font-family="Helvetica,sans-Serif" font-size="10.00">DimX</text>
<text text-anchor="start" x="325" y="-186.5" font-family="Helvetica,sans-Serif" font-size="10.00">+</text>
<text text-anchor="start" x="340.5" y="-186.5" font-family="Helvetica,sans-Serif" font-size="10.00">ExtendedObservationModel()</text>
<text text-anchor="start" x="325" y="-171.5" font-family="Helvetica,sans-Serif" font-size="10.00">+</text>
<text text-anchor="start" x="340.5" y="-171.5" font-family="Helvetica,sans-Serif" font-size="10.00">~ExtendedObservationModel()</text>
<text text-anchor="start" x="325" y="-156.5" font-family="Helvetica,sans-Serif" font-size="10.00">+</text>
<text text-anchor="start" x="340.5" y="-156.5" font-family="Helvetica,sans-Serif" font-size="10.00">getDim()</text>
<text text-anchor="start" x="325" y="-141.5" font-family="Helvetica,sans-Serif" font-size="10.00">+</text>
<text text-anchor="start" x="340.5" y="-141.5" font-family="Helvetica,sans-Serif" font-size="10.00">computeInnovation()</text>
<text text-anchor="start" x="325" y="-126.5" font-family="Helvetica,sans-Serif" font-size="10.00">+</text>
<text text-anchor="start" x="340.5" y="-126.5" font-family="Helvetica,sans-Serif" font-size="10.00">MeasurementVecFromList()</text>
<text text-anchor="start" x="325" y="-111.5" font-family="Helvetica,sans-Serif" font-size="10.00">+</text>
<text text-anchor="start" x="340.5" y="-111.5" font-family="Helvetica,sans-Serif" font-size="10.00">MeasurementCovFromList()</text>
<text text-anchor="start" x="325" y="-96.5" font-family="Helvetica,sans-Serif" font-size="10.00">+</text>
<text text-anchor="start" x="340.5" y="-96.5" font-family="Helvetica,sans-Serif" font-size="10.00">MeasurementCovFromList()</text>
<text text-anchor="start" x="325" y="-81.5" font-family="Helvetica,sans-Serif" font-size="10.00">+</text>
<text text-anchor="start" x="340.5" y="-81.5" font-family="Helvetica,sans-Serif" font-size="10.00">FromLists()</text>
<text text-anchor="start" x="325" y="-66.5" font-family="Helvetica,sans-Serif" font-size="10.00">#</text>
<text text-anchor="start" x="340.5" y="-66.5" font-family="Helvetica,sans-Serif" font-size="10.00">ExtendedObservationModel()</text>
<text text-anchor="start" x="325" y="-51.5" font-family="Helvetica,sans-Serif" font-size="10.00">#</text>
<text text-anchor="start" x="340.5" y="-51.5" font-family="Helvetica,sans-Serif" font-size="10.00">ExtendedObservationModel()</text>
<text text-anchor="start" x="325" y="-36.5" font-family="Helvetica,sans-Serif" font-size="10.00">#</text>
<text text-anchor="start" x="340.5" y="-36.5" font-family="Helvetica,sans-Serif" font-size="10.00">operator=()</text>
<text text-anchor="start" x="325" y="-21.5" font-family="Helvetica,sans-Serif" font-size="10.00">#</text>
<text text-anchor="start" x="340.5" y="-21.5" font-family="Helvetica,sans-Serif" font-size="10.00">operator=()</text>
<text text-anchor="start" x="325" y="-6.5" font-family="Helvetica,sans-Serif" font-size="10.00">#</text>
<text text-anchor="start" x="340.5" y="-6.5" font-family="Helvetica,sans-Serif" font-size="10.00">ExtendedObservationModel()</text>
<polygon fill="#666666" stroke="#666666" points="318.5,-226.5 318.5,-226.5 500.5,-226.5 500.5,-226.5 318.5,-226.5"/>
<polygon fill="#666666" stroke="#666666" points="318.5,-196.5 318.5,-196.5 338.5,-196.5 338.5,-196.5 318.5,-196.5"/>
<polygon fill="#666666" stroke="#666666" points="338.5,-196.5 338.5,-196.5 500.5,-196.5 500.5,-196.5 338.5,-196.5"/>
<polygon fill="none" stroke="#666666" points="318.5,0 318.5,-277 500.5,-277 500.5,0 318.5,0"/>
</a>
</g>
</g>
<!-- Node2 -->
<g id="Node000002" class="node">
<title>Node2</title>
<g id="a_Node000002"><a xlink:href="classtracking_1_1observation_1_1IObservationModel.html" target="_top" xlink:title=" ">
<polygon fill="white" stroke="transparent" points="215,-560 66,-560 66,-388 215,-388 215,-560"/>
<text text-anchor="start" x="71.5" y="-548" font-family="Helvetica,sans-Serif" font-size="10.00">tracking::observation</text>
<text text-anchor="start" x="71.5" y="-537" font-family="Helvetica,sans-Serif" font-size="10.00">::IObservationModel&lt;</text>
<text text-anchor="start" x="71.5" y="-526" font-family="Helvetica,sans-Serif" font-size="10.00"> ObservationModelTrait</text>
<text text-anchor="start" x="71.5" y="-515" font-family="Helvetica,sans-Serif" font-size="10.00">_::CovarianceMatrixPolicy &gt;</text>
<text text-anchor="start" x="139" y="-500" font-family="Helvetica,sans-Serif" font-size="10.00"> </text>
<text text-anchor="start" x="75" y="-485" font-family="Helvetica,sans-Serif" font-size="10.00">+</text>
<text text-anchor="start" x="92.5" y="-485" font-family="Helvetica,sans-Serif" font-size="10.00">IObservationModel()</text>
<text text-anchor="start" x="75" y="-470" font-family="Helvetica,sans-Serif" font-size="10.00">+</text>
<text text-anchor="start" x="92.5" y="-470" font-family="Helvetica,sans-Serif" font-size="10.00">~IObservationModel()</text>
<text text-anchor="start" x="75" y="-455" font-family="Helvetica,sans-Serif" font-size="10.00">+</text>
<text text-anchor="start" x="92.5" y="-455" font-family="Helvetica,sans-Serif" font-size="10.00">getDim()</text>
<text text-anchor="start" x="75" y="-440" font-family="Helvetica,sans-Serif" font-size="10.00">#</text>
<text text-anchor="start" x="92.5" y="-440" font-family="Helvetica,sans-Serif" font-size="10.00">IObservationModel()</text>
<text text-anchor="start" x="75" y="-425" font-family="Helvetica,sans-Serif" font-size="10.00">#</text>
<text text-anchor="start" x="92.5" y="-425" font-family="Helvetica,sans-Serif" font-size="10.00">IObservationModel()</text>
<text text-anchor="start" x="75" y="-410" font-family="Helvetica,sans-Serif" font-size="10.00">#</text>
<text text-anchor="start" x="92.5" y="-410" font-family="Helvetica,sans-Serif" font-size="10.00">operator=()</text>
<text text-anchor="start" x="75" y="-395" font-family="Helvetica,sans-Serif" font-size="10.00">#</text>
<text text-anchor="start" x="92.5" y="-395" font-family="Helvetica,sans-Serif" font-size="10.00">operator=()</text>
<polygon fill="#666666" stroke="#666666" points="66.5,-510 66.5,-510 215.5,-510 215.5,-510 66.5,-510"/>
<polygon fill="#666666" stroke="#666666" points="66.5,-495 66.5,-495 215.5,-495 215.5,-495 66.5,-495"/>
<polygon fill="none" stroke="#666666" points="66,-388 66,-560 215,-560 215,-388 66,-388"/>
</a>
</g>
</g>
<!-- Node2&#45;&gt;Node1 -->
<g id="edge1_Node000001_Node000002" class="edge">
<title>Node2&#45;&gt;Node1</title>
<g id="a_edge1_Node000001_Node000002"><a xlink:title=" ">
<path fill="none" stroke="#63b8ff" d="M182.44,-379.03C194.31,-356.49 208.22,-333.13 223.5,-313 250.74,-277.12 285.8,-242.29 318.12,-213.37"/>
<polygon fill="none" stroke="#63b8ff" points="179.31,-377.47 177.82,-387.96 185.53,-380.69 179.31,-377.47"/>
</a>
</g>
</g>
<!-- Node3 -->
<g id="Node000003" class="node">
<title>Node3</title>
<g id="a_Node000003"><a xlink:href="structtracking_1_1math_1_1contract_1_1CovarianceMatrixPolicyIntf.html" target="_top" xlink:title=" ">
<polygon fill="white" stroke="transparent" points="304,-742 143,-742 143,-671 304,-671 304,-742"/>
<text text-anchor="start" x="154.5" y="-729.5" font-family="Helvetica,sans-Serif" font-size="10.00">tracking::math::contract</text>
<text text-anchor="start" x="154.5" y="-718.5" font-family="Helvetica,sans-Serif" font-size="10.00">::CovarianceMatrixPolicyIntf</text>
<text text-anchor="start" x="186.5" y="-707.5" font-family="Helvetica,sans-Serif" font-size="10.00">&lt; PolicyType &gt;</text>
<text text-anchor="start" x="222" y="-692.5" font-family="Helvetica,sans-Serif" font-size="10.00"> </text>
<text text-anchor="start" x="147.5" y="-677.5" font-family="Helvetica,sans-Serif" font-size="10.00">+</text>
<text text-anchor="start" x="160.5" y="-677.5" font-family="Helvetica,sans-Serif" font-size="10.00">CovarianceMatrixPolicyIntf()</text>
<polygon fill="#666666" stroke="#666666" points="143.5,-702.5 143.5,-702.5 304.5,-702.5 304.5,-702.5 143.5,-702.5"/>
<polygon fill="#666666" stroke="#666666" points="143.5,-687.5 143.5,-687.5 304.5,-687.5 304.5,-687.5 143.5,-687.5"/>
<polygon fill="none" stroke="#666666" points="143,-671 143,-742 304,-742 304,-671 143,-671"/>
</a>
</g>
</g>
<!-- Node3&#45;&gt;Node2 -->
<g id="edge2_Node000002_Node000003" class="edge">
<title>Node3&#45;&gt;Node2</title>
<g id="a_edge2_Node000002_Node000003"><a xlink:title=" ">
<path fill="none" stroke="#63b8ff" d="M207.58,-661.29C197.27,-632.67 183.52,-594.46 171.14,-560.1"/>
<polygon fill="none" stroke="#63b8ff" points="204.39,-662.77 211.07,-670.99 210.98,-660.4 204.39,-662.77"/>
</a>
</g>
</g>
<!-- Node5 -->
<g id="Node000005" class="node">
<title>Node5</title>
<g id="a_Node000005"><a xlink:href="classtracking_1_1motion_1_1StateMem.html" target="_top" xlink:title=" ">
<polygon fill="white" stroke="transparent" points="406,-635 233,-635 233,-313 406,-313 406,-635"/>
<text text-anchor="start" x="238.5" y="-623" font-family="Helvetica,sans-Serif" font-size="10.00">tracking::motion::StateMem</text>
<text text-anchor="start" x="238.5" y="-612" font-family="Helvetica,sans-Serif" font-size="10.00">&lt; ObservationModelTrait</text>
<text text-anchor="start" x="238.5" y="-601" font-family="Helvetica,sans-Serif" font-size="10.00">_::CovarianceMatrixPolicy,</text>
<text text-anchor="start" x="238.5" y="-590" font-family="Helvetica,sans-Serif" font-size="10.00"> ObservationModelTrait_::DimZ &gt;</text>
<text text-anchor="start" x="249.5" y="-575" font-family="Helvetica,sans-Serif" font-size="10.00">&#45;</text>
<text text-anchor="start" x="269.5" y="-575" font-family="Helvetica,sans-Serif" font-size="10.00">_vec</text>
<text text-anchor="start" x="249.5" y="-560" font-family="Helvetica,sans-Serif" font-size="10.00">&#45;</text>
<text text-anchor="start" x="269.5" y="-560" font-family="Helvetica,sans-Serif" font-size="10.00">_cov</text>
<text text-anchor="start" x="247" y="-545" font-family="Helvetica,sans-Serif" font-size="10.00">+</text>
<text text-anchor="start" x="269.5" y="-545" font-family="Helvetica,sans-Serif" font-size="10.00">StateMem()</text>
<text text-anchor="start" x="247" y="-530" font-family="Helvetica,sans-Serif" font-size="10.00">+</text>
<text text-anchor="start" x="269.5" y="-530" font-family="Helvetica,sans-Serif" font-size="10.00">StateMem()</text>
<text text-anchor="start" x="247" y="-515" font-family="Helvetica,sans-Serif" font-size="10.00">+</text>
<text text-anchor="start" x="269.5" y="-515" font-family="Helvetica,sans-Serif" font-size="10.00">StateMem()</text>
<text text-anchor="start" x="247" y="-500" font-family="Helvetica,sans-Serif" font-size="10.00">+</text>
<text text-anchor="start" x="269.5" y="-500" font-family="Helvetica,sans-Serif" font-size="10.00">operator=()</text>
<text text-anchor="start" x="247" y="-485" font-family="Helvetica,sans-Serif" font-size="10.00">+</text>
<text text-anchor="start" x="269.5" y="-485" font-family="Helvetica,sans-Serif" font-size="10.00">operator=()</text>
<text text-anchor="start" x="247" y="-470" font-family="Helvetica,sans-Serif" font-size="10.00">+</text>
<text text-anchor="start" x="269.5" y="-470" font-family="Helvetica,sans-Serif" font-size="10.00">~StateMem()</text>
<text text-anchor="start" x="247" y="-455" font-family="Helvetica,sans-Serif" font-size="10.00">+</text>
<text text-anchor="start" x="269.5" y="-455" font-family="Helvetica,sans-Serif" font-size="10.00">getVec()</text>
<text text-anchor="start" x="247" y="-440" font-family="Helvetica,sans-Serif" font-size="10.00">+</text>
<text text-anchor="start" x="269.5" y="-440" font-family="Helvetica,sans-Serif" font-size="10.00">getVecForInternalUse()</text>
<text text-anchor="start" x="247" y="-425" font-family="Helvetica,sans-Serif" font-size="10.00">+</text>
<text text-anchor="start" x="269.5" y="-425" font-family="Helvetica,sans-Serif" font-size="10.00">getCov()</text>
<text text-anchor="start" x="247" y="-410" font-family="Helvetica,sans-Serif" font-size="10.00">+</text>
<text text-anchor="start" x="269.5" y="-410" font-family="Helvetica,sans-Serif" font-size="10.00">getCovForInternalUse()</text>
<text text-anchor="start" x="247" y="-395" font-family="Helvetica,sans-Serif" font-size="10.00">+</text>
<text text-anchor="start" x="269.5" y="-395" font-family="Helvetica,sans-Serif" font-size="10.00">operator[]()</text>
<text text-anchor="start" x="247" y="-380" font-family="Helvetica,sans-Serif" font-size="10.00">+</text>
<text text-anchor="start" x="269.5" y="-380" font-family="Helvetica,sans-Serif" font-size="10.00">operator()()</text>
<text text-anchor="start" x="247" y="-365" font-family="Helvetica,sans-Serif" font-size="10.00">#</text>
<text text-anchor="start" x="269.5" y="-365" font-family="Helvetica,sans-Serif" font-size="10.00">StateMem()</text>
<text text-anchor="start" x="247" y="-350" font-family="Helvetica,sans-Serif" font-size="10.00">#</text>
<text text-anchor="start" x="269.5" y="-350" font-family="Helvetica,sans-Serif" font-size="10.00">getVec()</text>
<text text-anchor="start" x="247" y="-335" font-family="Helvetica,sans-Serif" font-size="10.00">#</text>
<text text-anchor="start" x="269.5" y="-335" font-family="Helvetica,sans-Serif" font-size="10.00">getCov()</text>
<text text-anchor="start" x="247" y="-320" font-family="Helvetica,sans-Serif" font-size="10.00">#</text>
<text text-anchor="start" x="269.5" y="-320" font-family="Helvetica,sans-Serif" font-size="10.00">operator[]()</text>
<polygon fill="#666666" stroke="#666666" points="233.5,-585 233.5,-585 406.5,-585 406.5,-585 233.5,-585"/>
<polygon fill="#666666" stroke="#666666" points="233.5,-555 233.5,-555 267.5,-555 267.5,-555 233.5,-555"/>
<polygon fill="#666666" stroke="#666666" points="267.5,-555 267.5,-555 406.5,-555 406.5,-555 267.5,-555"/>
<polygon fill="none" stroke="#666666" points="233,-313 233,-635 406,-635 406,-313 233,-313"/>
</a>
</g>
</g>
<!-- Node3&#45;&gt;Node5 -->
<g id="edge8_Node000005_Node000003" class="edge">
<title>Node3&#45;&gt;Node5</title>
<g id="a_edge8_Node000005_Node000003"><a xlink:title=" ">
<path fill="none" stroke="#63b8ff" d="M241.81,-661.53C245.18,-653.44 248.87,-644.58 252.76,-635.26"/>
<polygon fill="none" stroke="#63b8ff" points="238.49,-660.41 237.87,-670.99 244.95,-663.11 238.49,-660.41"/>
</a>
</g>
</g>
<!-- Node4 -->
<g id="Node000004" class="node">
<title>Node4</title>
<g id="a_Node000004"><a xlink:href="classtracking_1_1base_1_1contract_1_1RequireAbstractIntf.html" target="_top" xlink:title=" ">
<polygon fill="white" stroke="transparent" points="125,-742 0,-742 0,-671 125,-671 125,-742"/>
<text text-anchor="start" x="5.5" y="-729.5" font-family="Helvetica,sans-Serif" font-size="10.00">tracking::base::contract</text>
<text text-anchor="start" x="5.5" y="-718.5" font-family="Helvetica,sans-Serif" font-size="10.00">::RequireAbstractIntf&lt;</text>
<text text-anchor="start" x="33.5" y="-707.5" font-family="Helvetica,sans-Serif" font-size="10.00"> ImplType &gt;</text>
<text text-anchor="start" x="61" y="-692.5" font-family="Helvetica,sans-Serif" font-size="10.00"> </text>
<text text-anchor="start" x="4.5" y="-677.5" font-family="Helvetica,sans-Serif" font-size="10.00">+</text>
<text text-anchor="start" x="17.5" y="-677.5" font-family="Helvetica,sans-Serif" font-size="10.00">RequireAbstractIntf()</text>
<polygon fill="#666666" stroke="#666666" points="0.5,-702.5 0.5,-702.5 125.5,-702.5 125.5,-702.5 0.5,-702.5"/>
<polygon fill="#666666" stroke="#666666" points="0.5,-687.5 0.5,-687.5 125.5,-687.5 125.5,-687.5 0.5,-687.5"/>
<polygon fill="none" stroke="#666666" points="0,-671 0,-742 125,-742 125,-671 0,-671"/>
</a>
</g>
</g>
<!-- Node4&#45;&gt;Node2 -->
<g id="edge3_Node000002_Node000004" class="edge">
<title>Node4&#45;&gt;Node2</title>
<g id="a_edge3_Node000002_Node000004"><a xlink:title=" ">
<path fill="none" stroke="#63b8ff" d="M77.46,-661.29C87.15,-632.67 100.08,-594.46 111.7,-560.1"/>
<polygon fill="none" stroke="#63b8ff" points="74.07,-660.4 74.18,-670.99 80.7,-662.64 74.07,-660.4"/>
</a>
</g>
</g>
<!-- Node5&#45;&gt;Node1 -->
<g id="edge4_Node000001_Node000005" class="edge">
<title>Node5&#45;&gt;Node1</title>
<g id="a_edge4_Node000001_Node000005"><a xlink:title=" ">
<path fill="none" stroke="#63b8ff" d="M365.41,-302.88C367.73,-294.26 370.06,-285.66 372.35,-277.17"/>
<polygon fill="none" stroke="#63b8ff" points="362.01,-302.03 362.79,-312.6 368.77,-303.86 362.01,-302.03"/>
</a>
</g>
</g>
<!-- Node6 -->
<g id="Node000006" class="node">
<title>Node6</title>
<g id="a_Node000006"><a xlink:href="structtracking_1_1motion_1_1contract_1_1StateMemIntf.html" target="_top" xlink:title=" ">
<polygon fill="white" stroke="transparent" points="472.5,-736.5 322.5,-736.5 322.5,-676.5 472.5,-676.5 472.5,-736.5"/>
<text text-anchor="start" x="327.5" y="-724.5" font-family="Helvetica,sans-Serif" font-size="10.00">tracking::motion::contract</text>
<text text-anchor="start" x="327.5" y="-713.5" font-family="Helvetica,sans-Serif" font-size="10.00">::StateMemIntf&lt; ImplType &gt;</text>
<text text-anchor="start" x="395.5" y="-698.5" font-family="Helvetica,sans-Serif" font-size="10.00"> </text>
<text text-anchor="start" x="340" y="-683.5" font-family="Helvetica,sans-Serif" font-size="10.00">+</text>
<text text-anchor="start" x="366.5" y="-683.5" font-family="Helvetica,sans-Serif" font-size="10.00">StateMemIntf()</text>
<polygon fill="#666666" stroke="#666666" points="322.5,-708.5 322.5,-708.5 472.5,-708.5 472.5,-708.5 322.5,-708.5"/>
<polygon fill="#666666" stroke="#666666" points="322.5,-693.5 322.5,-693.5 472.5,-693.5 472.5,-693.5 322.5,-693.5"/>
<polygon fill="none" stroke="#666666" points="322.5,-676.5 322.5,-736.5 472.5,-736.5 472.5,-676.5 322.5,-676.5"/>
</a>
</g>
</g>
<!-- Node6&#45;&gt;Node5 -->
<g id="edge5_Node000005_Node000006" class="edge">
<title>Node6&#45;&gt;Node5</title>
<g id="a_edge5_Node000005_Node000006"><a xlink:title=" ">
<path fill="none" stroke="#63b8ff" d="M384.34,-666.6C381.15,-657.18 377.54,-646.53 373.71,-635.19"/>
<polygon fill="none" stroke="#63b8ff" points="381.1,-667.96 387.62,-676.31 387.73,-665.71 381.1,-667.96"/>
</a>
</g>
</g>
<!-- Node7 -->
<g id="Node000007" class="node">
<title>Node7</title>
<g id="a_Node000007"><a xlink:href="classtracking_1_1base_1_1contract_1_1RequireCopyIntf.html" target="_top" xlink:title=" ">
<polygon fill="white" stroke="transparent" points="388.5,-838 226.5,-838 226.5,-778 388.5,-778 388.5,-838"/>
<text text-anchor="start" x="231.5" y="-826" font-family="Helvetica,sans-Serif" font-size="10.00">tracking::base::contract</text>
<text text-anchor="start" x="231.5" y="-815" font-family="Helvetica,sans-Serif" font-size="10.00">::RequireCopyIntf&lt; ImplType &gt;</text>
<text text-anchor="start" x="305.5" y="-800" font-family="Helvetica,sans-Serif" font-size="10.00"> </text>
<text text-anchor="start" x="244" y="-785" font-family="Helvetica,sans-Serif" font-size="10.00">+</text>
<text text-anchor="start" x="270.5" y="-785" font-family="Helvetica,sans-Serif" font-size="10.00">RequireCopyIntf()</text>
<polygon fill="#666666" stroke="#666666" points="226.5,-810 226.5,-810 388.5,-810 388.5,-810 226.5,-810"/>
<polygon fill="#666666" stroke="#666666" points="226.5,-795 226.5,-795 388.5,-795 388.5,-795 226.5,-795"/>
<polygon fill="none" stroke="#666666" points="226.5,-778 226.5,-838 388.5,-838 388.5,-778 226.5,-778"/>
</a>
</g>
</g>
<!-- Node7&#45;&gt;Node6 -->
<g id="edge6_Node000006_Node000007" class="edge">
<title>Node7&#45;&gt;Node6</title>
<g id="a_edge6_Node000006_Node000007"><a xlink:title=" ">
<path fill="none" stroke="#63b8ff" d="M340.56,-770.45C350.6,-759.35 361.49,-747.31 371.04,-736.76"/>
<polygon fill="none" stroke="#63b8ff" points="337.89,-768.19 333.77,-777.95 343.08,-772.88 337.89,-768.19"/>
</a>
</g>
</g>
<!-- Node8 -->
<g id="Node000008" class="node">
<title>Node8</title>
<g id="a_Node000008"><a xlink:href="classtracking_1_1base_1_1contract_1_1RequireMoveIntf.html" target="_top" xlink:title=" ">
<polygon fill="white" stroke="transparent" points="570.5,-838 406.5,-838 406.5,-778 570.5,-778 570.5,-838"/>
<text text-anchor="start" x="411.5" y="-826" font-family="Helvetica,sans-Serif" font-size="10.00">tracking::base::contract</text>
<text text-anchor="start" x="411.5" y="-815" font-family="Helvetica,sans-Serif" font-size="10.00">::RequireMoveIntf&lt; ImplType &gt;</text>
<text text-anchor="start" x="486.5" y="-800" font-family="Helvetica,sans-Serif" font-size="10.00"> </text>
<text text-anchor="start" x="424" y="-785" font-family="Helvetica,sans-Serif" font-size="10.00">+</text>
<text text-anchor="start" x="450.5" y="-785" font-family="Helvetica,sans-Serif" font-size="10.00">RequireMoveIntf()</text>
<polygon fill="#666666" stroke="#666666" points="406.5,-810 406.5,-810 570.5,-810 570.5,-810 406.5,-810"/>
<polygon fill="#666666" stroke="#666666" points="406.5,-795 406.5,-795 570.5,-795 570.5,-795 406.5,-795"/>
<polygon fill="none" stroke="#666666" points="406.5,-778 406.5,-838 570.5,-838 570.5,-778 406.5,-778"/>
</a>
</g>
</g>
<!-- Node8&#45;&gt;Node6 -->
<g id="edge7_Node000006_Node000008" class="edge">
<title>Node8&#45;&gt;Node6</title>
<g id="a_edge7_Node000006_Node000008"><a xlink:title=" ">
<path fill="none" stroke="#63b8ff" d="M455.07,-770.45C444.92,-759.35 433.91,-747.31 424.26,-736.76"/>
<polygon fill="none" stroke="#63b8ff" points="452.6,-772.94 461.93,-777.95 457.77,-768.21 452.6,-772.94"/>
</a>
</g>
</g>
<!-- Node9 -->
<g id="Node000009" class="node">
<title>Node9</title>
<g id="a_Node000009"><a xlink:href="structtracking_1_1observation_1_1contract_1_1ObservationModelIntf.html" target="_top" xlink:title=" ">
<polygon fill="white" stroke="transparent" points="576.5,-509.5 424.5,-509.5 424.5,-438.5 576.5,-438.5 576.5,-509.5"/>
<text text-anchor="start" x="429.5" y="-497" font-family="Helvetica,sans-Serif" font-size="10.00">tracking::observation</text>
<text text-anchor="start" x="429.5" y="-486" font-family="Helvetica,sans-Serif" font-size="10.00">::contract::ObservationModel</text>
<text text-anchor="start" x="433.5" y="-475" font-family="Helvetica,sans-Serif" font-size="10.00">Intf&lt; ObservationModel_ &gt;</text>
<text text-anchor="start" x="498.5" y="-460" font-family="Helvetica,sans-Serif" font-size="10.00"> </text>
<text text-anchor="start" x="432.5" y="-445" font-family="Helvetica,sans-Serif" font-size="10.00">+</text>
<text text-anchor="start" x="449.5" y="-445" font-family="Helvetica,sans-Serif" font-size="10.00">ObservationModelIntf()</text>
<polygon fill="#666666" stroke="#666666" points="424.5,-470 424.5,-470 576.5,-470 576.5,-470 424.5,-470"/>
<polygon fill="#666666" stroke="#666666" points="424.5,-455 424.5,-455 576.5,-455 576.5,-455 424.5,-455"/>
<polygon fill="none" stroke="#666666" points="424.5,-438.5 424.5,-509.5 576.5,-509.5 576.5,-438.5 424.5,-438.5"/>
</a>
</g>
</g>
<!-- Node9&#45;&gt;Node1 -->
<g id="edge9_Node000001_Node000009" class="edge">
<title>Node9&#45;&gt;Node1</title>
<g id="a_edge9_Node000001_Node000009"><a xlink:title=" ">
<path fill="none" stroke="#63b8ff" d="M488.31,-428.33C477.72,-389.5 461.79,-331.14 447.02,-277.02"/>
<polygon fill="none" stroke="#63b8ff" points="485.01,-429.53 491.02,-438.25 491.76,-427.68 485.01,-429.53"/>
</a>
</g>
</g>
<!-- Node10 -->
<g id="Node000010" class="node">
<title>Node10</title>
<g id="a_Node000010"><a xlink:href="classtracking_1_1base_1_1contract_1_1RequireAbstractIntf.html" target="_top" xlink:title=" ">
<polygon fill="white" stroke="transparent" points="806.5,-520.5 594.5,-520.5 594.5,-427.5 806.5,-427.5 806.5,-520.5"/>
<text text-anchor="start" x="599.5" y="-508" font-family="Helvetica,sans-Serif" font-size="10.00">tracking::base::contract</text>
<text text-anchor="start" x="599.5" y="-497" font-family="Helvetica,sans-Serif" font-size="10.00">::RequireAbstractIntf&lt;</text>
<text text-anchor="start" x="599.5" y="-486" font-family="Helvetica,sans-Serif" font-size="10.00"> ExtendedObservationModel</text>
<text text-anchor="start" x="599.5" y="-475" font-family="Helvetica,sans-Serif" font-size="10.00">&lt; ObservationModel_, ObservationModel</text>
<text text-anchor="start" x="676" y="-464" font-family="Helvetica,sans-Serif" font-size="10.00">Trait_ &gt; &gt;</text>
<text text-anchor="start" x="698.5" y="-449" font-family="Helvetica,sans-Serif" font-size="10.00"> </text>
<text text-anchor="start" x="620.5" y="-434" font-family="Helvetica,sans-Serif" font-size="10.00">+</text>
<text text-anchor="start" x="655.5" y="-434" font-family="Helvetica,sans-Serif" font-size="10.00">RequireAbstractIntf()</text>
<polygon fill="#666666" stroke="#666666" points="594.5,-459 594.5,-459 806.5,-459 806.5,-459 594.5,-459"/>
<polygon fill="#666666" stroke="#666666" points="594.5,-444 594.5,-444 806.5,-444 806.5,-444 594.5,-444"/>
<polygon fill="none" stroke="#666666" points="594.5,-427.5 594.5,-520.5 806.5,-520.5 806.5,-427.5 594.5,-427.5"/>
</a>
</g>
</g>
<!-- Node10&#45;&gt;Node1 -->
<g id="edge10_Node000001_Node000010" class="edge">
<title>Node10&#45;&gt;Node1</title>
<g id="a_edge10_Node000001_Node000010"><a xlink:title=" ">
<path fill="none" stroke="#63b8ff" d="M665.08,-419.01C643.37,-387.16 614.29,-346.64 585.5,-313 559.41,-282.52 528.91,-251.16 500.69,-223.63"/>
<polygon fill="none" stroke="#63b8ff" points="662.21,-421.02 670.72,-427.33 668,-417.09 662.21,-421.02"/>
</a>
</g>
</g>
</g>
</svg>

<g id="navigator" transform="translate(0 0)" fill="#404254">
  <rect fill="#f2f5e9" fill-opacity="0.5" stroke="#606060" stroke-width=".5" x="0" y="0" width="60" height="60"/>
  <use id="zoomplus" xlink:href="#zoomPlus" x="17" y="9" onmousedown="handleZoom(evt,'in')"/>
  <use id="zoomminus" xlink:href="#zoomMin" x="42" y="9" onmousedown="handleZoom(evt,'out')"/>
  <use id="reset" xlink:href="#resetDef" x="30" y="36" onmousedown="handleReset()"/>
   <use id="arrowup" xlink:href="#arrowUp" x="0" y="0" onmousedown="handlePan(0,-1)"/>
  <use id="arrowright" xlink:href="#arrowRight" x="0" y="0" onmousedown="handlePan(1,0)"/>
  <use id="arrowdown" xlink:href="#arrowDown" x="0" y="0" onmousedown="handlePan(0,1)"/>
  <use id="arrowleft" xlink:href="#arrowLeft" x="0" y="0" onmousedown="handlePan(-1,0)"/>
</g>
<svg viewBox="0 0 15 15" width="100%" height="30px" preserveAspectRatio="xMaxYMin meet">
 <g id="arrow_out" transform="scale(0.3 0.3)">
  <a xlink:href="classtracking_1_1observation_1_1ExtendedObservationModel__inherit__graph_org.svg" target="_base">
   <rect id="button" ry="5" rx="5" y="6" x="6" height="38" width="38"
        fill="#f2f5e9" fill-opacity="0.5" stroke="#606060" stroke-width="1.0"/>
   <path id="arrow"
     d="M 11.500037,31.436501 C 11.940474,20.09759 22.043105,11.32322 32.158766,21.979434 L 37.068811,17.246167 C 37.068811,17.246167 37.088388,32 37.088388,32 L 22.160133,31.978069 C 22.160133,31.978069 26.997745,27.140456 26.997745,27.140456 C 18.528582,18.264221 13.291696,25.230495 11.500037,31.436501 z"
     style="fill:#404040;"/>
  </a>
 </g>
</svg>

<style type='text/css'>
<![CDATA[
[data-mouse-over-selected='false'] { opacity: 0.7; }
[data-mouse-over-selected='true']  { opacity: 1.0; }
]]>
</style>
<script type="application/ecmascript"><![CDATA[
document.addEventListener('DOMContentLoaded', (event) => {
  highlightEdges();
  highlightAdjacentNodes();
});
]]></script>
</svg>
