<?xml version="1.0" encoding="UTF-8" standalone="no"?>
<!DOCTYPE svg PUBLIC "-//W3C//DTD SVG 1.1//EN"
 "http://www.w3.org/Graphics/SVG/1.1/DTD/svg11.dtd">
<!-- Generated by graphviz version 2.43.0 (0)
 -->
<!-- Title: tracking::math::Point3d::FromValues Pages: 1 -->
<svg width="479pt" height="101pt"
 viewBox="0.00 0.00 479.00 101.00" xmlns="http://www.w3.org/2000/svg" xmlns:xlink="http://www.w3.org/1999/xlink">
<g id="graph0" class="graph" transform="scale(1 1) rotate(0) translate(4 97)">
<title>tracking::math::Point3d::FromValues</title>
<!-- Node1 -->
<g id="Node000001" class="node">
<title>Node1</title>
<g id="a_Node000001"><a xlink:title="Create a 3D point from coordinate values.">
<polygon fill="#999999" stroke="#666666" points="131,-61.5 0,-61.5 0,-31.5 131,-31.5 131,-61.5"/>
<text text-anchor="start" x="8" y="-49.5" font-family="Helvetica,sans-Serif" font-size="10.00">tracking::math::Point3d</text>
<text text-anchor="middle" x="65.5" y="-38.5" font-family="Helvetica,sans-Serif" font-size="10.00">::FromValues</text>
</a>
</g>
</g>
<!-- Node2 -->
<g id="Node000002" class="node">
<title>Node2</title>
<g id="a_Node000002"><a xlink:href="classtracking_1_1math_1_1Point3d.html#a7cdd5d96deabfec4c8f13dcaac2f028d" target="_top" xlink:title="Read access to x&#45;coordinate.">
<polygon fill="white" stroke="#666666" points="310,-93 167,-93 167,-74 310,-74 310,-93"/>
<text text-anchor="middle" x="238.5" y="-81" font-family="Helvetica,sans-Serif" font-size="10.00">tracking::math::Point3d::x</text>
</a>
</g>
</g>
<!-- Node1&#45;&gt;Node2 -->
<g id="edge1_Node000001_Node000002" class="edge">
<title>Node1&#45;&gt;Node2</title>
<g id="a_edge1_Node000001_Node000002"><a xlink:title=" ">
<path fill="none" stroke="#63b8ff" d="M131.15,-60.49C148.38,-64.22 166.81,-68.21 183.41,-71.8"/>
<polygon fill="#63b8ff" stroke="#63b8ff" points="182.97,-75.28 193.48,-73.98 184.45,-68.44 182.97,-75.28"/>
</a>
</g>
</g>
<!-- Node4 -->
<g id="Node000004" class="node">
<title>Node4</title>
<g id="a_Node000004"><a xlink:href="classtracking_1_1math_1_1Point3d.html#ac6e001149c0df058ee7e421a778fc9a2" target="_top" xlink:title="Read access to y&#45;coordinate.">
<polygon fill="white" stroke="#666666" points="310,-56 167,-56 167,-37 310,-37 310,-56"/>
<text text-anchor="middle" x="238.5" y="-44" font-family="Helvetica,sans-Serif" font-size="10.00">tracking::math::Point3d::y</text>
</a>
</g>
</g>
<!-- Node1&#45;&gt;Node4 -->
<g id="edge3_Node000001_Node000004" class="edge">
<title>Node1&#45;&gt;Node4</title>
<g id="a_edge3_Node000001_Node000004"><a xlink:title=" ">
<path fill="none" stroke="#63b8ff" d="M131.15,-46.5C139.51,-46.5 148.15,-46.5 156.73,-46.5"/>
<polygon fill="#63b8ff" stroke="#63b8ff" points="156.76,-50 166.76,-46.5 156.76,-43 156.76,-50"/>
</a>
</g>
</g>
<!-- Node5 -->
<g id="Node000005" class="node">
<title>Node5</title>
<g id="a_Node000005"><a xlink:href="classtracking_1_1math_1_1Point3d.html#a89ce54a5d263b40860d3bb4acdd7c64c" target="_top" xlink:title="Read access to z&#45;coordinate.">
<polygon fill="white" stroke="#666666" points="309.5,-19 167.5,-19 167.5,0 309.5,0 309.5,-19"/>
<text text-anchor="middle" x="238.5" y="-7" font-family="Helvetica,sans-Serif" font-size="10.00">tracking::math::Point3d::z</text>
</a>
</g>
</g>
<!-- Node1&#45;&gt;Node5 -->
<g id="edge5_Node000001_Node000005" class="edge">
<title>Node1&#45;&gt;Node5</title>
<g id="a_edge5_Node000001_Node000005"><a xlink:title=" ">
<path fill="none" stroke="#63b8ff" d="M131.15,-32.51C148.38,-28.78 166.81,-24.79 183.41,-21.2"/>
<polygon fill="#63b8ff" stroke="#63b8ff" points="184.45,-24.56 193.48,-19.02 182.97,-17.72 184.45,-24.56"/>
</a>
</g>
</g>
<!-- Node3 -->
<g id="Node000003" class="node">
<title>Node3</title>
<g id="a_Node000003"><a xlink:href="classtracking_1_1math_1_1Vector.html#a74f4a1dc6f64586863ce3ef351a1e9c8" target="_top" xlink:title="Element read&#45;only access to a scalar vector value (unchecked)">
<polygon fill="white" stroke="#666666" points="471,-67 346,-67 346,-26 471,-26 471,-67"/>
<text text-anchor="start" x="354" y="-55" font-family="Helvetica,sans-Serif" font-size="10.00">tracking::math::Vector</text>
<text text-anchor="start" x="354" y="-44" font-family="Helvetica,sans-Serif" font-size="10.00">&lt; ValueType_, 3 &gt;::at</text>
<text text-anchor="middle" x="408.5" y="-33" font-family="Helvetica,sans-Serif" font-size="10.00">_unsafe</text>
</a>
</g>
</g>
<!-- Node2&#45;&gt;Node3 -->
<g id="edge2_Node000002_Node000003" class="edge">
<title>Node2&#45;&gt;Node3</title>
<g id="a_edge2_Node000002_Node000003"><a xlink:title=" ">
<path fill="none" stroke="#63b8ff" d="M282.76,-73.97C298.92,-70.41 317.74,-66.27 335.78,-62.3"/>
<polygon fill="#63b8ff" stroke="#63b8ff" points="336.69,-65.68 345.7,-60.11 335.18,-58.84 336.69,-65.68"/>
</a>
</g>
</g>
<!-- Node4&#45;&gt;Node3 -->
<g id="edge4_Node000004_Node000003" class="edge">
<title>Node4&#45;&gt;Node3</title>
<g id="a_edge4_Node000004_Node000003"><a xlink:title=" ">
<path fill="none" stroke="#63b8ff" d="M310.26,-46.5C318.68,-46.5 327.27,-46.5 335.7,-46.5"/>
<polygon fill="#63b8ff" stroke="#63b8ff" points="335.88,-50 345.88,-46.5 335.88,-43 335.88,-50"/>
</a>
</g>
</g>
<!-- Node5&#45;&gt;Node3 -->
<g id="edge6_Node000005_Node000003" class="edge">
<title>Node5&#45;&gt;Node3</title>
<g id="a_edge6_Node000005_Node000003"><a xlink:title=" ">
<path fill="none" stroke="#63b8ff" d="M282.76,-19.03C298.92,-22.59 317.74,-26.73 335.78,-30.7"/>
<polygon fill="#63b8ff" stroke="#63b8ff" points="335.18,-34.16 345.7,-32.89 336.69,-27.32 335.18,-34.16"/>
</a>
</g>
</g>
</g>
</svg>
