<?xml version="1.0" encoding="UTF-8" standalone="no"?>
<!DOCTYPE svg PUBLIC "-//W3C//DTD SVG 1.1//EN"
 "http://www.w3.org/Graphics/SVG/1.1/DTD/svg11.dtd">
<!-- Generated by graphviz version 2.43.0 (0)
 -->
<!-- Title: tracking::math::Matrix::data Pages: 1 -->
<svg width="326pt" height="279pt"
 viewBox="0.00 0.00 326.00 279.00" xmlns="http://www.w3.org/2000/svg" xmlns:xlink="http://www.w3.org/1999/xlink">

<svg id="main" version="1.1" xmlns="http://www.w3.org/2000/svg" xmlns:xlink="http://www.w3.org/1999/xlink" xml:space="preserve" onload="init(evt)">
<style type="text/css"><![CDATA[
.node, .edge {opacity: 0.7;}
.node.selected, .edge.selected {opacity: 1;}
.edge:hover path { stroke: red; }
.edge:hover polygon { stroke: red; fill: red; }
]]></style>
<script type="application/ecmascript" xlink:href="svg.min.js"/>
<svg id="graph" class="graph">
<g id="graph0" class="graph" transform="scale(1 1) rotate(0) translate(4 275)">
<title>tracking::math::Matrix::data</title>
<!-- Node1 -->
<g id="Node000001" class="node">
<title>Node1</title>
<g id="a_Node000001"><a xlink:title="Read&#45;only access to the internal data.">
<polygon fill="#999999" stroke="#666666" points="318,-167 193,-167 193,-137 318,-137 318,-167"/>
<text text-anchor="start" x="201" y="-155" font-family="Helvetica,sans-Serif" font-size="10.00">tracking::math::Matrix</text>
<text text-anchor="middle" x="255.5" y="-144" font-family="Helvetica,sans-Serif" font-size="10.00">::data</text>
</a>
</g>
</g>
<!-- Node2 -->
<g id="Node000002" class="node">
<title>Node2</title>
<g id="a_Node000002"><a xlink:href="classtracking_1_1math_1_1Vector.html#a3ca9a4056cd013b54845bd85b663621a" target="_top" xlink:title="Creates a Vector from an initializer list.">
<polygon fill="white" stroke="#666666" points="141,-271 16,-271 16,-241 141,-241 141,-271"/>
<text text-anchor="start" x="24" y="-259" font-family="Helvetica,sans-Serif" font-size="10.00">tracking::math::Vector</text>
<text text-anchor="middle" x="78.5" y="-248" font-family="Helvetica,sans-Serif" font-size="10.00">::FromList</text>
</a>
</g>
</g>
<!-- Node1&#45;&gt;Node2 -->
<g id="edge1_Node000001_Node000002" class="edge">
<title>Node1&#45;&gt;Node2</title>
<g id="a_edge1_Node000001_Node000002"><a xlink:title=" ">
<path fill="none" stroke="#63b8ff" d="M232.6,-174.23C213.95,-192.06 185.68,-216.56 157,-232 150.8,-235.34 144.06,-238.29 137.24,-240.87"/>
<polygon fill="#63b8ff" stroke="#63b8ff" points="235.26,-176.53 239.98,-167.05 230.37,-171.52 235.26,-176.53"/>
</a>
</g>
</g>
<!-- Node3 -->
<g id="Node000003" class="node">
<title>Node3</title>
<g id="a_Node000003"><a xlink:href="classtracking_1_1math_1_1Matrix.html#aba21624386501bb4f47750d245a2ddee" target="_top" xlink:title="Get max value of the matrix.">
<polygon fill="white" stroke="#666666" points="155,-222.5 2,-222.5 2,-203.5 155,-203.5 155,-222.5"/>
<text text-anchor="middle" x="78.5" y="-210.5" font-family="Helvetica,sans-Serif" font-size="10.00">tracking::math::Matrix::max</text>
</a>
</g>
</g>
<!-- Node1&#45;&gt;Node3 -->
<g id="edge2_Node000001_Node000003" class="edge">
<title>Node1&#45;&gt;Node3</title>
<g id="a_edge2_Node000001_Node000003"><a xlink:title=" ">
<path fill="none" stroke="#63b8ff" d="M215.02,-171.43C197.54,-179.5 176.55,-188.48 157,-195 147.43,-198.19 137.02,-201.02 127.02,-203.45"/>
<polygon fill="#63b8ff" stroke="#63b8ff" points="216.77,-174.47 224.34,-167.06 213.8,-168.13 216.77,-174.47"/>
</a>
</g>
</g>
<!-- Node4 -->
<g id="Node000004" class="node">
<title>Node4</title>
<g id="a_Node000004"><a xlink:href="classtracking_1_1math_1_1Matrix.html#a87fa8f08a9f3be4d6cdf9f1e047c6337" target="_top" xlink:title="Get min value of the matrix.">
<polygon fill="white" stroke="#666666" points="153.5,-185.5 3.5,-185.5 3.5,-166.5 153.5,-166.5 153.5,-185.5"/>
<text text-anchor="middle" x="78.5" y="-173.5" font-family="Helvetica,sans-Serif" font-size="10.00">tracking::math::Matrix::min</text>
</a>
</g>
</g>
<!-- Node1&#45;&gt;Node4 -->
<g id="edge3_Node000001_Node000004" class="edge">
<title>Node1&#45;&gt;Node4</title>
<g id="a_edge3_Node000001_Node000004"><a xlink:title=" ">
<path fill="none" stroke="#63b8ff" d="M182.7,-161.85C171.56,-163.37 160.08,-164.95 148.99,-166.47"/>
<polygon fill="#63b8ff" stroke="#63b8ff" points="183.37,-165.29 192.8,-160.46 182.42,-158.35 183.37,-165.29"/>
</a>
</g>
</g>
<!-- Node5 -->
<g id="Node000005" class="node">
<title>Node5</title>
<g id="a_Node000005"><a xlink:href="classtracking_1_1math_1_1Matrix.html#ab49523344a922ba4458b0a3e3435370e" target="_top" xlink:title="Calculates Self * scalar.">
<polygon fill="white" stroke="#666666" points="155.5,-148.5 1.5,-148.5 1.5,-107.5 155.5,-107.5 155.5,-148.5"/>
<text text-anchor="start" x="9.5" y="-136.5" font-family="Helvetica,sans-Serif" font-size="10.00">tracking::math::Matrix</text>
<text text-anchor="start" x="9.5" y="-125.5" font-family="Helvetica,sans-Serif" font-size="10.00">&lt; ValueType_, Size_, Size</text>
<text text-anchor="middle" x="78.5" y="-114.5" font-family="Helvetica,sans-Serif" font-size="10.00">_, IsRowMajor_ &gt;::operator*</text>
</a>
</g>
</g>
<!-- Node1&#45;&gt;Node5 -->
<g id="edge4_Node000001_Node000005" class="edge">
<title>Node1&#45;&gt;Node5</title>
<g id="a_edge4_Node000001_Node000005"><a xlink:title=" ">
<path fill="none" stroke="#63b8ff" d="M182.81,-142.17C173.86,-140.94 164.69,-139.68 155.67,-138.45"/>
<polygon fill="#63b8ff" stroke="#63b8ff" points="182.42,-145.65 192.8,-143.54 183.37,-138.71 182.42,-145.65"/>
</a>
</g>
</g>
<!-- Node6 -->
<g id="Node000006" class="node">
<title>Node6</title>
<g id="a_Node000006"><a xlink:href="classtracking_1_1math_1_1Matrix.html#a5765fc913acf0cfb543bd3e43cddfbf6" target="_top" xlink:title="Calculates Self + scalar (adds scalar to each element)">
<polygon fill="white" stroke="#666666" points="157,-89.5 0,-89.5 0,-48.5 157,-48.5 157,-89.5"/>
<text text-anchor="start" x="8" y="-77.5" font-family="Helvetica,sans-Serif" font-size="10.00">tracking::math::Matrix</text>
<text text-anchor="start" x="8" y="-66.5" font-family="Helvetica,sans-Serif" font-size="10.00">&lt; ValueType_, Size_, Size</text>
<text text-anchor="middle" x="78.5" y="-55.5" font-family="Helvetica,sans-Serif" font-size="10.00">_, IsRowMajor_ &gt;::operator+</text>
</a>
</g>
</g>
<!-- Node1&#45;&gt;Node6 -->
<g id="edge5_Node000001_Node000006" class="edge">
<title>Node1&#45;&gt;Node6</title>
<g id="a_edge5_Node000001_Node000006"><a xlink:title=" ">
<path fill="none" stroke="#63b8ff" d="M220.01,-131.84C201.6,-121.44 178.39,-108.9 157,-99 150.06,-95.79 142.67,-92.62 135.32,-89.61"/>
<polygon fill="#63b8ff" stroke="#63b8ff" points="218.47,-134.99 228.89,-136.9 221.94,-128.91 218.47,-134.99"/>
</a>
</g>
</g>
<!-- Node7 -->
<g id="Node000007" class="node">
<title>Node7</title>
<g id="a_Node000007"><a xlink:href="classtracking_1_1math_1_1Matrix.html#a0e01651def1a4915b20f2eeac7cd9f40" target="_top" xlink:title="Calculates Self = Self + Other.">
<polygon fill="white" stroke="#666666" points="141,-30 16,-30 16,0 141,0 141,-30"/>
<text text-anchor="start" x="24" y="-18" font-family="Helvetica,sans-Serif" font-size="10.00">tracking::math::Matrix</text>
<text text-anchor="middle" x="78.5" y="-7" font-family="Helvetica,sans-Serif" font-size="10.00">::operator+=</text>
</a>
</g>
</g>
<!-- Node1&#45;&gt;Node7 -->
<g id="edge6_Node000001_Node000007" class="edge">
<title>Node1&#45;&gt;Node7</title>
<g id="a_edge6_Node000001_Node000007"><a xlink:title=" ">
<path fill="none" stroke="#63b8ff" d="M239.69,-128.38C222.66,-103.07 192.45,-63.39 157,-40 151.22,-36.18 144.81,-32.91 138.23,-30.12"/>
<polygon fill="#63b8ff" stroke="#63b8ff" points="236.93,-130.56 245.35,-137 242.78,-126.72 236.93,-130.56"/>
</a>
</g>
</g>
</g>
</svg>
</svg>

<style type='text/css'>
<![CDATA[
[data-mouse-over-selected='false'] { opacity: 0.7; }
[data-mouse-over-selected='true']  { opacity: 1.0; }
]]>
</style>
<script type="application/ecmascript"><![CDATA[
document.addEventListener('DOMContentLoaded', (event) => {
  highlightEdges();
  highlightAdjacentNodes();
});
]]></script>
</svg>
