<?xml version="1.0" encoding="UTF-8" standalone="no"?>
<!DOCTYPE svg PUBLIC "-//W3C//DTD SVG 1.1//EN"
 "http://www.w3.org/Graphics/SVG/1.1/DTD/svg11.dtd">
<!-- Generated by graphviz version 2.43.0 (0)
 -->
<!-- Title: tracking::math::CovarianceMatrixFull::inverse Pages: 1 -->
<svg width="547pt" height="108pt"
 viewBox="0.00 0.00 547.00 108.00" xmlns="http://www.w3.org/2000/svg" xmlns:xlink="http://www.w3.org/1999/xlink">
<g id="graph0" class="graph" transform="scale(1 1) rotate(0) translate(4 104)">
<title>tracking::math::CovarianceMatrixFull::inverse</title>
<!-- Node1 -->
<g id="Node000001" class="node">
<title>Node1</title>
<g id="a_Node000001"><a xlink:title="Calculates the matrix inverse using Cholesky decomposition.">
<polygon fill="#999999" stroke="#666666" points="149,-64.5 0,-64.5 0,-34.5 149,-34.5 149,-64.5"/>
<text text-anchor="start" x="8" y="-52.5" font-family="Helvetica,sans-Serif" font-size="10.00">tracking::math::Covariance</text>
<text text-anchor="middle" x="74.5" y="-41.5" font-family="Helvetica,sans-Serif" font-size="10.00">MatrixFull::inverse</text>
</a>
</g>
</g>
<!-- Node2 -->
<g id="Node000002" class="node">
<title>Node2</title>
<g id="a_Node000002"><a xlink:href="classtracking_1_1math_1_1CovarianceMatrixFull.html#a39cbdd384d2c9714aa87c4a80983a0e6" target="_top" xlink:title="Construct an Identity matrix.">
<polygon fill="white" stroke="#666666" points="339,-91.5 190,-91.5 190,-61.5 339,-61.5 339,-91.5"/>
<text text-anchor="start" x="198" y="-79.5" font-family="Helvetica,sans-Serif" font-size="10.00">tracking::math::Covariance</text>
<text text-anchor="middle" x="264.5" y="-68.5" font-family="Helvetica,sans-Serif" font-size="10.00">MatrixFull::Identity</text>
</a>
</g>
</g>
<!-- Node1&#45;&gt;Node2 -->
<g id="edge1_Node000001_Node000002" class="edge">
<title>Node1&#45;&gt;Node2</title>
<g id="a_edge1_Node000001_Node000002"><a xlink:title=" ">
<path fill="none" stroke="#63b8ff" d="M149.26,-60.09C159.29,-61.53 169.65,-63.02 179.83,-64.48"/>
<polygon fill="#63b8ff" stroke="#63b8ff" points="179.55,-67.98 189.95,-65.94 180.55,-61.05 179.55,-67.98"/>
</a>
</g>
</g>
<!-- Node4 -->
<g id="Node000004" class="node">
<title>Node4</title>
<g id="a_Node000004"><a xlink:href="classtracking_1_1math_1_1SquareMatrix.html#a83aee3d96b9a570cf86fd8b82151f1a3" target="_top" xlink:title="Fast transpose without changing the layout (zero&#45;copy view)">
<polygon fill="white" stroke="#666666" points="344,-40.5 185,-40.5 185,-10.5 344,-10.5 344,-40.5"/>
<text text-anchor="start" x="193" y="-28.5" font-family="Helvetica,sans-Serif" font-size="10.00">tracking::math::SquareMatrix</text>
<text text-anchor="middle" x="264.5" y="-17.5" font-family="Helvetica,sans-Serif" font-size="10.00">::transpose</text>
</a>
</g>
</g>
<!-- Node1&#45;&gt;Node4 -->
<g id="edge3_Node000001_Node000004" class="edge">
<title>Node1&#45;&gt;Node4</title>
<g id="a_edge3_Node000001_Node000004"><a xlink:title=" ">
<path fill="none" stroke="#63b8ff" d="M149.26,-40.08C157.69,-39.01 166.35,-37.9 174.94,-36.8"/>
<polygon fill="#63b8ff" stroke="#63b8ff" points="175.51,-40.26 184.99,-35.52 174.63,-33.32 175.51,-40.26"/>
</a>
</g>
</g>
<!-- Node3 -->
<g id="Node000003" class="node">
<title>Node3</title>
<g id="a_Node000003"><a xlink:href="classtracking_1_1math_1_1SquareMatrix.html#a1767678675efd8983ce5beab4c53b2d7" target="_top" xlink:title="Construct an identity matrix with ones on the diagonal and zeros elsewhere.">
<polygon fill="white" stroke="#666666" points="539,-100 380,-100 380,-59 539,-59 539,-100"/>
<text text-anchor="start" x="388" y="-88" font-family="Helvetica,sans-Serif" font-size="10.00">tracking::math::SquareMatrix</text>
<text text-anchor="start" x="388" y="-77" font-family="Helvetica,sans-Serif" font-size="10.00">&lt; ValueType_, Size_, true</text>
<text text-anchor="middle" x="459.5" y="-66" font-family="Helvetica,sans-Serif" font-size="10.00"> &gt;::Identity</text>
</a>
</g>
</g>
<!-- Node2&#45;&gt;Node3 -->
<g id="edge2_Node000002_Node000003" class="edge">
<title>Node2&#45;&gt;Node3</title>
<g id="a_edge2_Node000002_Node000003"><a xlink:title=" ">
<path fill="none" stroke="#63b8ff" d="M339.02,-77.64C349,-77.8 359.34,-77.96 369.56,-78.12"/>
<polygon fill="#63b8ff" stroke="#63b8ff" points="369.67,-81.62 379.73,-78.28 369.78,-74.62 369.67,-81.62"/>
</a>
</g>
</g>
<!-- Node5 -->
<g id="Node000005" class="node">
<title>Node5</title>
<g id="a_Node000005"><a xlink:href="classtracking_1_1math_1_1Matrix.html#a478f0eea63246477537c07d88584371d" target="_top" xlink:title="Fast transpose without changing the layout (zero&#45;copy view)">
<polygon fill="white" stroke="#666666" points="537,-41 382,-41 382,0 537,0 537,-41"/>
<text text-anchor="start" x="390" y="-29" font-family="Helvetica,sans-Serif" font-size="10.00">tracking::math::Matrix</text>
<text text-anchor="start" x="390" y="-18" font-family="Helvetica,sans-Serif" font-size="10.00">&lt; ValueType_, Size_, Size</text>
<text text-anchor="middle" x="459.5" y="-7" font-family="Helvetica,sans-Serif" font-size="10.00">_, IsRowMajor_ &gt;::transpose</text>
</a>
</g>
</g>
<!-- Node4&#45;&gt;Node5 -->
<g id="edge4_Node000004_Node000005" class="edge">
<title>Node4&#45;&gt;Node5</title>
<g id="a_edge4_Node000004_Node000005"><a xlink:title=" ">
<path fill="none" stroke="#63b8ff" d="M344,-23.47C353.2,-23.23 362.62,-22.98 371.92,-22.74"/>
<polygon fill="#63b8ff" stroke="#63b8ff" points="372.04,-26.24 381.94,-22.48 371.86,-19.24 372.04,-26.24"/>
</a>
</g>
</g>
</g>
</svg>
