<?xml version="1.0" encoding="UTF-8" standalone="no"?>
<!DOCTYPE svg PUBLIC "-//W3C//DTD SVG 1.1//EN"
 "http://www.w3.org/Graphics/SVG/1.1/DTD/svg11.dtd">
<!-- Generated by graphviz version 2.43.0 (0)
 -->
<!-- Title: tracking::filter::KalmanFilter::updateState Pages: 1 -->
<!--zoomable 214 -->

<svg id="main" version="1.1" xmlns="http://www.w3.org/2000/svg" xmlns:xlink="http://www.w3.org/1999/xlink" xml:space="preserve" onload="init(evt)">
<style type="text/css"><![CDATA[
.node, .edge {opacity: 0.7;}
.node.selected, .edge.selected {opacity: 1;}
.edge:hover path { stroke: red; }
.edge:hover polygon { stroke: red; fill: red; }
]]></style>

<defs>
  <circle id="rim" cx="0" cy="0" r="7"/>
  <circle id="rim2" cx="0" cy="0" r="3.5"/>
  <g id="zoomPlus">
    <use xlink:href="#rim" fill="#404040"><set attributeName="fill" to="#808080" begin="zoomplus.mouseover" end="zoomplus.mouseout"/></use>
    <path d="M-4,0h8M0,-4v8" fill="none" stroke="white" stroke-width="1.5" pointer-events="none"/>
  </g>
  <g id="zoomMin">
    <use xlink:href="#rim" fill="#404040"><set attributeName="fill" to="#808080" begin="zoomminus.mouseover" end="zoomminus.mouseout"/></use>
    <path d="M-4,0h8" fill="none" stroke="white" stroke-width="1.5" pointer-events="none"/>
  </g>
  <g id="arrowUp" transform="translate(30 24)">
    <use xlink:href="#rim"/>
    <path pointer-events="none" fill="none" stroke="white" stroke-width="1.5" d="M0,-3.0v7 M-2.5,-0.5L0,-3.0L2.5,-0.5"/>
  </g>
  <g id="arrowRight" transform="rotate(90) translate(36 -43)">
    <use xlink:href="#rim"/>
    <path pointer-events="none" fill="none" stroke="white" stroke-width="1.5" d="M0,-3.0v7 M-2.5,-0.5L0,-3.0L2.5,-0.5"/>
  </g>
  <g id="arrowDown" transform="rotate(180) translate(-30 -48)">
    <use xlink:href="#rim"/>
    <path pointer-events="none" fill="none" stroke="white" stroke-width="1.5" d="M0,-3.0v7 M-2.5,-0.5L0,-3.0L2.5,-0.5"/>
  </g>
  <g id="arrowLeft" transform="rotate(270) translate(-36 17)">
    <use xlink:href="#rim"/>
    <path pointer-events="none" fill="none" stroke="white" stroke-width="1.5" d="M0,-3.0v7 M-2.5,-0.5L0,-3.0L2.5,-0.5"/>
  </g>
  <g id="resetDef">
    <use xlink:href="#rim2" fill="#404040"><set attributeName="fill" to="#808080" begin="reset.mouseover" end="reset.mouseout"/></use>
  </g>
</defs>
<script type="application/ecmascript">
var viewWidth = 522;
var viewHeight = 214;
var sectionId = 'dynsection-3';
</script>
<script type="application/ecmascript" xlink:href="svg.min.js"/>
<svg id="graph" class="graph">
<g id="viewport">
<title>tracking::filter::KalmanFilter::updateState</title>
<!-- Node1 -->
<g id="Node000001" class="node">
<title>Node1</title>
<g id="a_Node000001"><a xlink:title="Kalman measurement update of state and covariance.">
<polygon fill="#999999" stroke="#666666" points="128,-104.5 0,-104.5 0,-74.5 128,-74.5 128,-104.5"/>
<text text-anchor="start" x="8" y="-92.5" font-family="Helvetica,sans-Serif" font-size="10.00">tracking::filter::Kalman</text>
<text text-anchor="middle" x="64" y="-81.5" font-family="Helvetica,sans-Serif" font-size="10.00">Filter::updateState</text>
</a>
</g>
</g>
<!-- Node2 -->
<g id="Node000002" class="node">
<title>Node2</title>
<g id="a_Node000002"><a xlink:href="classtracking_1_1math_1_1Vector.html#a74f4a1dc6f64586863ce3ef351a1e9c8" target="_top" xlink:title="Element read&#45;only access to a scalar vector value (unchecked)">
<polygon fill="white" stroke="#666666" points="306,-200.5 181,-200.5 181,-170.5 306,-170.5 306,-200.5"/>
<text text-anchor="start" x="189" y="-188.5" font-family="Helvetica,sans-Serif" font-size="10.00">tracking::math::Vector</text>
<text text-anchor="middle" x="243.5" y="-177.5" font-family="Helvetica,sans-Serif" font-size="10.00">::at_unsafe</text>
</a>
</g>
</g>
<!-- Node1&#45;&gt;Node2 -->
<g id="edge1_Node000001_Node000002" class="edge">
<title>Node1&#45;&gt;Node2</title>
<g id="a_edge1_Node000001_Node000002"><a xlink:title=" ">
<path fill="none" stroke="#63b8ff" d="M82.08,-104.68C100.95,-120.77 132.81,-145.94 164,-161.5 167.73,-163.36 171.63,-165.11 175.62,-166.75"/>
<polygon fill="#63b8ff" stroke="#63b8ff" points="174.44,-170.05 185.03,-170.37 176.96,-163.51 174.44,-170.05"/>
</a>
</g>
</g>
<!-- Node4 -->
<g id="Node000004" class="node">
<title>Node4</title>
<g id="a_Node000004"><a xlink:href="classtracking_1_1math_1_1SquareMatrix.html#a1767678675efd8983ce5beab4c53b2d7" target="_top" xlink:title="Construct an identity matrix with ones on the diagonal and zeros elsewhere.">
<polygon fill="white" stroke="#666666" points="323,-152.5 164,-152.5 164,-122.5 323,-122.5 323,-152.5"/>
<text text-anchor="start" x="172" y="-140.5" font-family="Helvetica,sans-Serif" font-size="10.00">tracking::math::SquareMatrix</text>
<text text-anchor="middle" x="243.5" y="-129.5" font-family="Helvetica,sans-Serif" font-size="10.00">::Identity</text>
</a>
</g>
</g>
<!-- Node1&#45;&gt;Node4 -->
<g id="edge3_Node000001_Node000004" class="edge">
<title>Node1&#45;&gt;Node4</title>
<g id="a_edge3_Node000001_Node000004"><a xlink:title=" ">
<path fill="none" stroke="#63b8ff" d="M120.68,-104.56C138.6,-109.4 158.63,-114.82 177.18,-119.84"/>
<polygon fill="#63b8ff" stroke="#63b8ff" points="176.46,-123.27 187.02,-122.5 178.28,-116.51 176.46,-123.27"/>
</a>
</g>
</g>
<!-- Node5 -->
<g id="Node000005" class="node">
<title>Node5</title>
<g id="a_Node000005"><a xlink:href="classtracking_1_1math_1_1SquareMatrix.html#aa28cafb64caa7a86fd8871ecb30e993d" target="_top" xlink:title="Symmetrize the matrix by averaging with its transpose.">
<polygon fill="white" stroke="#666666" points="323,-104.5 164,-104.5 164,-74.5 323,-74.5 323,-104.5"/>
<text text-anchor="start" x="172" y="-92.5" font-family="Helvetica,sans-Serif" font-size="10.00">tracking::math::SquareMatrix</text>
<text text-anchor="middle" x="243.5" y="-81.5" font-family="Helvetica,sans-Serif" font-size="10.00">::symmetrize</text>
</a>
</g>
</g>
<!-- Node1&#45;&gt;Node5 -->
<g id="edge4_Node000001_Node000005" class="edge">
<title>Node1&#45;&gt;Node5</title>
<g id="a_edge4_Node000001_Node000005"><a xlink:title=" ">
<path fill="none" stroke="#63b8ff" d="M128.08,-89.5C136.39,-89.5 145.02,-89.5 153.66,-89.5"/>
<polygon fill="#63b8ff" stroke="#63b8ff" points="153.78,-93 163.78,-89.5 153.78,-86 153.78,-93"/>
</a>
</g>
</g>
<!-- Node6 -->
<g id="Node000006" class="node">
<title>Node6</title>
<g id="a_Node000006"><a xlink:href="classtracking_1_1math_1_1SquareMatrix.html#a83aee3d96b9a570cf86fd8b82151f1a3" target="_top" xlink:title="Fast transpose without changing the layout (zero&#45;copy view)">
<polygon fill="white" stroke="#666666" points="323,-56.5 164,-56.5 164,-26.5 323,-26.5 323,-56.5"/>
<text text-anchor="start" x="172" y="-44.5" font-family="Helvetica,sans-Serif" font-size="10.00">tracking::math::SquareMatrix</text>
<text text-anchor="middle" x="243.5" y="-33.5" font-family="Helvetica,sans-Serif" font-size="10.00">::transpose</text>
</a>
</g>
</g>
<!-- Node1&#45;&gt;Node6 -->
<g id="edge5_Node000001_Node000006" class="edge">
<title>Node1&#45;&gt;Node6</title>
<g id="a_edge5_Node000001_Node000006"><a xlink:title=" ">
<path fill="none" stroke="#63b8ff" d="M120.68,-74.44C138.6,-69.6 158.63,-64.18 177.18,-59.16"/>
<polygon fill="#63b8ff" stroke="#63b8ff" points="178.28,-62.49 187.02,-56.5 176.46,-55.73 178.28,-62.49"/>
</a>
</g>
</g>
<!-- Node7 -->
<g id="Node000007" class="node">
<title>Node7</title>
<g id="a_Node000007"><a xlink:href="classtracking_1_1math_1_1Matrix.html#a478f0eea63246477537c07d88584371d" target="_top" xlink:title="Fast transpose without changing the layout (zero&#45;copy view)">
<polygon fill="white" stroke="#666666" points="514,-41 359,-41 359,0 514,0 514,-41"/>
<text text-anchor="start" x="367" y="-29" font-family="Helvetica,sans-Serif" font-size="10.00">tracking::math::Matrix</text>
<text text-anchor="start" x="367" y="-18" font-family="Helvetica,sans-Serif" font-size="10.00">&lt; ValueType_, Size_, Size</text>
<text text-anchor="middle" x="436.5" y="-7" font-family="Helvetica,sans-Serif" font-size="10.00">_, IsRowMajor_ &gt;::transpose</text>
</a>
</g>
</g>
<!-- Node1&#45;&gt;Node7 -->
<g id="edge7_Node000001_Node000007" class="edge">
<title>Node1&#45;&gt;Node7</title>
<g id="a_edge7_Node000001_Node000007"><a xlink:title=" ">
<path fill="none" stroke="#63b8ff" d="M79.38,-74.37C97.26,-56.76 129.64,-28.67 164,-17.5 223.61,1.88 294.55,0.32 348.96,-5.66"/>
<polygon fill="#63b8ff" stroke="#63b8ff" points="348.58,-9.14 358.92,-6.82 349.39,-2.18 348.58,-9.14"/>
</a>
</g>
</g>
<!-- Node3 -->
<g id="Node000003" class="node">
<title>Node3</title>
<g id="a_Node000003"><a xlink:href="classtracking_1_1math_1_1Matrix.html#a103ed8d3af53ba865c6a00784ed62de6" target="_top" xlink:title="Unsafe element read&#45;only access (no bounds checking)">
<polygon fill="white" stroke="#666666" points="501,-206 372,-206 372,-165 501,-165 501,-206"/>
<text text-anchor="start" x="380" y="-194" font-family="Helvetica,sans-Serif" font-size="10.00">tracking::math::Matrix</text>
<text text-anchor="start" x="380" y="-183" font-family="Helvetica,sans-Serif" font-size="10.00">&lt; ValueType_, Size_, 1,</text>
<text text-anchor="middle" x="436.5" y="-172" font-family="Helvetica,sans-Serif" font-size="10.00"> true &gt;::at_unsafe</text>
</a>
</g>
</g>
<!-- Node2&#45;&gt;Node3 -->
<g id="edge2_Node000002_Node000003" class="edge">
<title>Node2&#45;&gt;Node3</title>
<g id="a_edge2_Node000002_Node000003"><a xlink:title=" ">
<path fill="none" stroke="#63b8ff" d="M306.25,-185.5C324,-185.5 343.53,-185.5 361.92,-185.5"/>
<polygon fill="#63b8ff" stroke="#63b8ff" points="362,-189 372,-185.5 362,-182 362,-189"/>
</a>
</g>
</g>
<!-- Node6&#45;&gt;Node7 -->
<g id="edge6_Node000006_Node000007" class="edge">
<title>Node6&#45;&gt;Node7</title>
<g id="a_edge6_Node000006_Node000007"><a xlink:title=" ">
<path fill="none" stroke="#63b8ff" d="M323.01,-32.87C331.52,-31.93 340.21,-30.98 348.8,-30.03"/>
<polygon fill="#63b8ff" stroke="#63b8ff" points="349.27,-33.5 358.83,-28.93 348.51,-26.54 349.27,-33.5"/>
</a>
</g>
</g>
</g>
</svg>

<g id="navigator" transform="translate(0 0)" fill="#404254">
  <rect fill="#f2f5e9" fill-opacity="0.5" stroke="#606060" stroke-width=".5" x="0" y="0" width="60" height="60"/>
  <use id="zoomplus" xlink:href="#zoomPlus" x="17" y="9" onmousedown="handleZoom(evt,'in')"/>
  <use id="zoomminus" xlink:href="#zoomMin" x="42" y="9" onmousedown="handleZoom(evt,'out')"/>
  <use id="reset" xlink:href="#resetDef" x="30" y="36" onmousedown="handleReset()"/>
   <use id="arrowup" xlink:href="#arrowUp" x="0" y="0" onmousedown="handlePan(0,-1)"/>
  <use id="arrowright" xlink:href="#arrowRight" x="0" y="0" onmousedown="handlePan(1,0)"/>
  <use id="arrowdown" xlink:href="#arrowDown" x="0" y="0" onmousedown="handlePan(0,1)"/>
  <use id="arrowleft" xlink:href="#arrowLeft" x="0" y="0" onmousedown="handlePan(-1,0)"/>
</g>
<svg viewBox="0 0 15 15" width="100%" height="30px" preserveAspectRatio="xMaxYMin meet">
 <g id="arrow_out" transform="scale(0.3 0.3)">
  <a xlink:href="classtracking_1_1filter_1_1KalmanFilter_a4df70b5fa33fdf85a95d6a528da0344f_cgraph_org.svg" target="_base">
   <rect id="button" ry="5" rx="5" y="6" x="6" height="38" width="38"
        fill="#f2f5e9" fill-opacity="0.5" stroke="#606060" stroke-width="1.0"/>
   <path id="arrow"
     d="M 11.500037,31.436501 C 11.940474,20.09759 22.043105,11.32322 32.158766,21.979434 L 37.068811,17.246167 C 37.068811,17.246167 37.088388,32 37.088388,32 L 22.160133,31.978069 C 22.160133,31.978069 26.997745,27.140456 26.997745,27.140456 C 18.528582,18.264221 13.291696,25.230495 11.500037,31.436501 z"
     style="fill:#404040;"/>
  </a>
 </g>
</svg>

<style type='text/css'>
<![CDATA[
[data-mouse-over-selected='false'] { opacity: 0.7; }
[data-mouse-over-selected='true']  { opacity: 1.0; }
]]>
</style>
<script type="application/ecmascript"><![CDATA[
document.addEventListener('DOMContentLoaded', (event) => {
  highlightEdges();
  highlightAdjacentNodes();
});
]]></script>
</svg>
