<?xml version="1.0" encoding="UTF-8" standalone="no"?>
<!DOCTYPE svg PUBLIC "-//W3C//DTD SVG 1.1//EN"
 "http://www.w3.org/Graphics/SVG/1.1/DTD/svg11.dtd">
<!-- Generated by graphviz version 2.43.0 (0)
 -->
<!-- Title: tracking::math::Matrix::transpose Pages: 1 -->
<svg width="532pt" height="231pt"
 viewBox="0.00 0.00 532.00 231.00" xmlns="http://www.w3.org/2000/svg" xmlns:xlink="http://www.w3.org/1999/xlink">
<g id="graph0" class="graph" transform="scale(1 1) rotate(0) translate(4 227)">
<title>tracking::math::Matrix::transpose</title>
<!-- Node1 -->
<g id="Node000001" class="node">
<title>Node1</title>
<g id="a_Node000001"><a xlink:title="Fast transpose without changing the layout (zero&#45;copy view)">
<polygon fill="#999999" stroke="#666666" points="524,-121 399,-121 399,-91 524,-91 524,-121"/>
<text text-anchor="start" x="407" y="-109" font-family="Helvetica,sans-Serif" font-size="10.00">tracking::math::Matrix</text>
<text text-anchor="middle" x="461.5" y="-98" font-family="Helvetica,sans-Serif" font-size="10.00">::transpose</text>
</a>
</g>
</g>
<!-- Node2 -->
<g id="Node000002" class="node">
<title>Node2</title>
<g id="a_Node000002"><a xlink:href="classtracking_1_1filter_1_1KalmanFilter.html#ab66a65941a9b1adbdd6d2ed0c37c4dc8" target="_top" xlink:title=" ">
<polygon fill="white" stroke="#666666" points="357,-212 221,-212 221,-182 357,-182 357,-212"/>
<text text-anchor="start" x="229" y="-200" font-family="Helvetica,sans-Serif" font-size="10.00">tracking::filter::Kalman</text>
<text text-anchor="middle" x="289" y="-189" font-family="Helvetica,sans-Serif" font-size="10.00">Filter::predictCovariance</text>
</a>
</g>
</g>
<!-- Node1&#45;&gt;Node2 -->
<g id="edge1_Node000001_Node000002" class="edge">
<title>Node1&#45;&gt;Node2</title>
<g id="a_edge1_Node000001_Node000002"><a xlink:title=" ">
<path fill="none" stroke="#63b8ff" d="M433.95,-127.33C415.03,-141.73 388.54,-160.35 363,-173 356.42,-176.26 349.31,-179.22 342.18,-181.87"/>
<polygon fill="#63b8ff" stroke="#63b8ff" points="436.3,-129.93 442.07,-121.05 432.02,-124.4 436.3,-129.93"/>
</a>
</g>
</g>
<!-- Node4 -->
<g id="Node000004" class="node">
<title>Node4</title>
<g id="a_Node000004"><a xlink:href="classtracking_1_1filter_1_1InformationFilter.html#a10fd3d15b0f1cde43be4d74f7ba28404" target="_top" xlink:title=" ">
<polygon fill="white" stroke="#666666" points="363,-164 215,-164 215,-134 363,-134 363,-164"/>
<text text-anchor="start" x="223" y="-152" font-family="Helvetica,sans-Serif" font-size="10.00">tracking::filter::Information</text>
<text text-anchor="middle" x="289" y="-141" font-family="Helvetica,sans-Serif" font-size="10.00">Filter::predictCovariance</text>
</a>
</g>
</g>
<!-- Node1&#45;&gt;Node4 -->
<g id="edge3_Node000001_Node000004" class="edge">
<title>Node1&#45;&gt;Node4</title>
<g id="a_edge3_Node000001_Node000004"><a xlink:title=" ">
<path fill="none" stroke="#63b8ff" d="M390.99,-123.53C377.26,-126.99 362.97,-130.6 349.6,-133.97"/>
<polygon fill="#63b8ff" stroke="#63b8ff" points="392.03,-126.88 400.87,-121.04 390.32,-120.09 392.03,-126.88"/>
</a>
</g>
</g>
<!-- Node5 -->
<g id="Node000005" class="node">
<title>Node5</title>
<g id="a_Node000005"><a xlink:href="classtracking_1_1motion_1_1generic_1_1Predict.html#ad6bc834949fd3d8f75ec79ddf2d734d5" target="_top" xlink:title="State prediction with ego motion compensation using an InformationFilter.">
<polygon fill="white" stroke="#666666" points="159,-137 20,-137 20,-107 159,-107 159,-137"/>
<text text-anchor="start" x="28" y="-125" font-family="Helvetica,sans-Serif" font-size="10.00">tracking::motion::generic</text>
<text text-anchor="middle" x="89.5" y="-114" font-family="Helvetica,sans-Serif" font-size="10.00">::Predict::run</text>
</a>
</g>
</g>
<!-- Node1&#45;&gt;Node5 -->
<g id="edge5_Node000001_Node000005" class="edge">
<title>Node1&#45;&gt;Node5</title>
<g id="a_edge5_Node000001_Node000005"><a xlink:title=" ">
<path fill="none" stroke="#63b8ff" d="M388.62,-109.11C322.25,-111.98 224.37,-116.21 159.08,-119.03"/>
<polygon fill="#63b8ff" stroke="#63b8ff" points="389.15,-112.59 398.99,-108.66 388.84,-105.6 389.15,-112.59"/>
</a>
</g>
</g>
<!-- Node6 -->
<g id="Node000006" class="node">
<title>Node6</title>
<g id="a_Node000006"><a xlink:href="classtracking_1_1filter_1_1KalmanFilter.html#a4df70b5fa33fdf85a95d6a528da0344f" target="_top" xlink:title="Kalman measurement update of state and covariance.">
<polygon fill="white" stroke="#666666" points="353,-78 225,-78 225,-48 353,-48 353,-78"/>
<text text-anchor="start" x="233" y="-66" font-family="Helvetica,sans-Serif" font-size="10.00">tracking::filter::Kalman</text>
<text text-anchor="middle" x="289" y="-55" font-family="Helvetica,sans-Serif" font-size="10.00">Filter::updateState</text>
</a>
</g>
</g>
<!-- Node1&#45;&gt;Node6 -->
<g id="edge6_Node000001_Node000006" class="edge">
<title>Node1&#45;&gt;Node6</title>
<g id="a_edge6_Node000001_Node000006"><a xlink:title=" ">
<path fill="none" stroke="#63b8ff" d="M390.99,-88.47C377.26,-85.01 362.97,-81.4 349.6,-78.03"/>
<polygon fill="#63b8ff" stroke="#63b8ff" points="390.32,-91.91 400.87,-90.96 392.03,-85.12 390.32,-91.91"/>
</a>
</g>
</g>
<!-- Node7 -->
<g id="Node000007" class="node">
<title>Node7</title>
<g id="a_Node000007"><a xlink:href="classtracking_1_1filter_1_1InformationFilter.html#a7b21589d9b27015411de1f4ecc272528" target="_top" xlink:title="Information measurement update of information vector and information matrix.">
<polygon fill="white" stroke="#666666" points="363,-30 215,-30 215,0 363,0 363,-30"/>
<text text-anchor="start" x="223" y="-18" font-family="Helvetica,sans-Serif" font-size="10.00">tracking::filter::Information</text>
<text text-anchor="middle" x="289" y="-7" font-family="Helvetica,sans-Serif" font-size="10.00">Filter::updateState</text>
</a>
</g>
</g>
<!-- Node1&#45;&gt;Node7 -->
<g id="edge7_Node000001_Node000007" class="edge">
<title>Node1&#45;&gt;Node7</title>
<g id="a_edge7_Node000001_Node000007"><a xlink:title=" ">
<path fill="none" stroke="#63b8ff" d="M433.95,-84.67C415.03,-70.27 388.54,-51.65 363,-39 356.42,-35.74 349.31,-32.78 342.18,-30.13"/>
<polygon fill="#63b8ff" stroke="#63b8ff" points="432.02,-87.6 442.07,-90.95 436.3,-82.07 432.02,-87.6"/>
</a>
</g>
</g>
<!-- Node3 -->
<g id="Node000003" class="node">
<title>Node3</title>
<g id="a_Node000003"><a xlink:href="classtracking_1_1motion_1_1generic_1_1Predict.html#ab73d074a9023ed02adbf7c247a263798" target="_top" xlink:title="State prediction with ego motion compensation using a KalmanFilter.">
<polygon fill="white" stroke="#666666" points="179,-223 0,-223 0,-171 179,-171 179,-223"/>
<text text-anchor="start" x="8" y="-211" font-family="Helvetica,sans-Serif" font-size="10.00">tracking::motion::generic</text>
<text text-anchor="start" x="8" y="-200" font-family="Helvetica,sans-Serif" font-size="10.00">::Predict&lt; MotionModel</text>
<text text-anchor="start" x="8" y="-189" font-family="Helvetica,sans-Serif" font-size="10.00">_, MotionModelTrait_::Covariance</text>
<text text-anchor="middle" x="89.5" y="-178" font-family="Helvetica,sans-Serif" font-size="10.00">MatrixPolicy &gt;::run</text>
</a>
</g>
</g>
<!-- Node2&#45;&gt;Node3 -->
<g id="edge2_Node000002_Node000003" class="edge">
<title>Node2&#45;&gt;Node3</title>
<g id="a_edge2_Node000002_Node000003"><a xlink:title=" ">
<path fill="none" stroke="#63b8ff" d="M210.65,-197C200.31,-197 189.65,-197 179.14,-197"/>
<polygon fill="#63b8ff" stroke="#63b8ff" points="210.86,-200.5 220.86,-197 210.86,-193.5 210.86,-200.5"/>
</a>
</g>
</g>
<!-- Node4&#45;&gt;Node5 -->
<g id="edge4_Node000004_Node000005" class="edge">
<title>Node4&#45;&gt;Node5</title>
<g id="a_edge4_Node000004_Node000005"><a xlink:title=" ">
<path fill="none" stroke="#63b8ff" d="M204.81,-137.63C189.57,-135.54 173.82,-133.39 159.06,-131.37"/>
<polygon fill="#63b8ff" stroke="#63b8ff" points="204.36,-141.1 214.74,-138.98 205.31,-134.16 204.36,-141.1"/>
</a>
</g>
</g>
</g>
</svg>
