<?xml version="1.0" encoding="UTF-8" standalone="no"?>
<!DOCTYPE svg PUBLIC "-//W3C//DTD SVG 1.1//EN"
 "http://www.w3.org/Graphics/SVG/1.1/DTD/svg11.dtd">
<!-- Generated by graphviz version 2.43.0 (0)
 -->
<!-- Title: tracking::math::Vector&lt; ValueType_, Size_ &gt; Pages: 1 -->
<!--zoomable 970 -->

<svg id="main" version="1.1" xmlns="http://www.w3.org/2000/svg" xmlns:xlink="http://www.w3.org/1999/xlink" xml:space="preserve" onload="init(evt)">
<style type="text/css"><![CDATA[
.node, .edge {opacity: 0.7;}
.node.selected, .edge.selected {opacity: 1;}
.edge:hover path { stroke: red; }
.edge:hover polygon { stroke: red; fill: red; }
]]></style>

<defs>
  <circle id="rim" cx="0" cy="0" r="7"/>
  <circle id="rim2" cx="0" cy="0" r="3.5"/>
  <g id="zoomPlus">
    <use xlink:href="#rim" fill="#404040"><set attributeName="fill" to="#808080" begin="zoomplus.mouseover" end="zoomplus.mouseout"/></use>
    <path d="M-4,0h8M0,-4v8" fill="none" stroke="white" stroke-width="1.5" pointer-events="none"/>
  </g>
  <g id="zoomMin">
    <use xlink:href="#rim" fill="#404040"><set attributeName="fill" to="#808080" begin="zoomminus.mouseover" end="zoomminus.mouseout"/></use>
    <path d="M-4,0h8" fill="none" stroke="white" stroke-width="1.5" pointer-events="none"/>
  </g>
  <g id="arrowUp" transform="translate(30 24)">
    <use xlink:href="#rim"/>
    <path pointer-events="none" fill="none" stroke="white" stroke-width="1.5" d="M0,-3.0v7 M-2.5,-0.5L0,-3.0L2.5,-0.5"/>
  </g>
  <g id="arrowRight" transform="rotate(90) translate(36 -43)">
    <use xlink:href="#rim"/>
    <path pointer-events="none" fill="none" stroke="white" stroke-width="1.5" d="M0,-3.0v7 M-2.5,-0.5L0,-3.0L2.5,-0.5"/>
  </g>
  <g id="arrowDown" transform="rotate(180) translate(-30 -48)">
    <use xlink:href="#rim"/>
    <path pointer-events="none" fill="none" stroke="white" stroke-width="1.5" d="M0,-3.0v7 M-2.5,-0.5L0,-3.0L2.5,-0.5"/>
  </g>
  <g id="arrowLeft" transform="rotate(270) translate(-36 17)">
    <use xlink:href="#rim"/>
    <path pointer-events="none" fill="none" stroke="white" stroke-width="1.5" d="M0,-3.0v7 M-2.5,-0.5L0,-3.0L2.5,-0.5"/>
  </g>
  <g id="resetDef">
    <use xlink:href="#rim2" fill="#404040"><set attributeName="fill" to="#808080" begin="reset.mouseover" end="reset.mouseout"/></use>
  </g>
</defs>
<script type="application/ecmascript">
var viewWidth = 352;
var viewHeight = 970;
var sectionId = 'dynsection-0';
</script>
<script type="application/ecmascript" xlink:href="svg.min.js"/>
<svg id="graph" class="graph">
<g id="viewport">
<title>tracking::math::Vector&lt; ValueType_, Size_ &gt;</title>
<!-- Node1 -->
<g id="Node000001" class="node">
<title>Node1</title>
<g id="a_Node000001"><a xlink:title="A column vector class template, specializing Matrix for single&#45;column matrixes.">
<polygon fill="#999999" stroke="transparent" points="230.5,-300 111.5,-300 111.5,0 230.5,0 230.5,-300"/>
<text text-anchor="start" x="117" y="-288" font-family="Helvetica,sans-Serif" font-size="10.00">tracking::math::Vector</text>
<text text-anchor="start" x="117" y="-277" font-family="Helvetica,sans-Serif" font-size="10.00">&lt; ValueType_, Size_ &gt;</text>
<text text-anchor="start" x="169.5" y="-262" font-family="Helvetica,sans-Serif" font-size="10.00"> </text>
<text text-anchor="start" x="125.5" y="-247" font-family="Helvetica,sans-Serif" font-size="10.00">+</text>
<text text-anchor="start" x="148" y="-247" font-family="Helvetica,sans-Serif" font-size="10.00">Vector()</text>
<text text-anchor="start" x="125.5" y="-232" font-family="Helvetica,sans-Serif" font-size="10.00">+</text>
<text text-anchor="start" x="148" y="-232" font-family="Helvetica,sans-Serif" font-size="10.00">Vector()</text>
<text text-anchor="start" x="125.5" y="-217" font-family="Helvetica,sans-Serif" font-size="10.00">+</text>
<text text-anchor="start" x="148" y="-217" font-family="Helvetica,sans-Serif" font-size="10.00">Vector()</text>
<text text-anchor="start" x="125.5" y="-202" font-family="Helvetica,sans-Serif" font-size="10.00">+</text>
<text text-anchor="start" x="148" y="-202" font-family="Helvetica,sans-Serif" font-size="10.00">Vector()</text>
<text text-anchor="start" x="125.5" y="-187" font-family="Helvetica,sans-Serif" font-size="10.00">+</text>
<text text-anchor="start" x="148" y="-187" font-family="Helvetica,sans-Serif" font-size="10.00">operator[]()</text>
<text text-anchor="start" x="125.5" y="-172" font-family="Helvetica,sans-Serif" font-size="10.00">+</text>
<text text-anchor="start" x="148" y="-172" font-family="Helvetica,sans-Serif" font-size="10.00">operator[]()</text>
<text text-anchor="start" x="125.5" y="-157" font-family="Helvetica,sans-Serif" font-size="10.00">+</text>
<text text-anchor="start" x="148" y="-157" font-family="Helvetica,sans-Serif" font-size="10.00">operator*()</text>
<text text-anchor="start" x="125.5" y="-142" font-family="Helvetica,sans-Serif" font-size="10.00">+</text>
<text text-anchor="start" x="148" y="-142" font-family="Helvetica,sans-Serif" font-size="10.00">normSq()</text>
<text text-anchor="start" x="125.5" y="-127" font-family="Helvetica,sans-Serif" font-size="10.00">+</text>
<text text-anchor="start" x="148" y="-127" font-family="Helvetica,sans-Serif" font-size="10.00">norm()</text>
<text text-anchor="start" x="125.5" y="-112" font-family="Helvetica,sans-Serif" font-size="10.00">+</text>
<text text-anchor="start" x="148" y="-112" font-family="Helvetica,sans-Serif" font-size="10.00">normalize()</text>
<text text-anchor="start" x="125.5" y="-97" font-family="Helvetica,sans-Serif" font-size="10.00">+</text>
<text text-anchor="start" x="148" y="-97" font-family="Helvetica,sans-Serif" font-size="10.00">normalize()</text>
<text text-anchor="start" x="125.5" y="-82" font-family="Helvetica,sans-Serif" font-size="10.00">+</text>
<text text-anchor="start" x="148" y="-82" font-family="Helvetica,sans-Serif" font-size="10.00">at_unsafe()</text>
<text text-anchor="start" x="125.5" y="-67" font-family="Helvetica,sans-Serif" font-size="10.00">+</text>
<text text-anchor="start" x="148" y="-67" font-family="Helvetica,sans-Serif" font-size="10.00">at_unsafe()</text>
<text text-anchor="start" x="125.5" y="-52" font-family="Helvetica,sans-Serif" font-size="10.00">+</text>
<text text-anchor="start" x="148" y="-52" font-family="Helvetica,sans-Serif" font-size="10.00">Zeros()</text>
<text text-anchor="start" x="125.5" y="-37" font-family="Helvetica,sans-Serif" font-size="10.00">+</text>
<text text-anchor="start" x="148" y="-37" font-family="Helvetica,sans-Serif" font-size="10.00">Ones()</text>
<text text-anchor="start" x="125.5" y="-22" font-family="Helvetica,sans-Serif" font-size="10.00">+</text>
<text text-anchor="start" x="148" y="-22" font-family="Helvetica,sans-Serif" font-size="10.00">UnitVector()</text>
<text text-anchor="start" x="125.5" y="-7" font-family="Helvetica,sans-Serif" font-size="10.00">+</text>
<text text-anchor="start" x="148" y="-7" font-family="Helvetica,sans-Serif" font-size="10.00">FromList()</text>
<polygon fill="#666666" stroke="#666666" points="112,-272 112,-272 231,-272 231,-272 112,-272"/>
<polygon fill="#666666" stroke="#666666" points="112,-257 112,-257 231,-257 231,-257 112,-257"/>
<polygon fill="none" stroke="#666666" points="111.5,0 111.5,-300 230.5,-300 230.5,0 111.5,0"/>
</a>
</g>
</g>
<!-- Node2 -->
<g id="Node000002" class="node">
<title>Node2</title>
<g id="a_Node000002"><a xlink:href="classtracking_1_1math_1_1Matrix.html" target="_top" xlink:title=" ">
<polygon fill="white" stroke="transparent" points="240.5,-759 101.5,-759 101.5,-336 240.5,-336 240.5,-759"/>
<text text-anchor="start" x="115" y="-746.5" font-family="Helvetica,sans-Serif" font-size="10.00">tracking::math::Matrix</text>
<text text-anchor="start" x="115" y="-735.5" font-family="Helvetica,sans-Serif" font-size="10.00">&lt; ValueType_, Size_, 1,</text>
<text text-anchor="start" x="154.5" y="-724.5" font-family="Helvetica,sans-Serif" font-size="10.00"> true &gt;</text>
<text text-anchor="start" x="106" y="-709.5" font-family="Helvetica,sans-Serif" font-size="10.00">+</text>
<text text-anchor="start" x="119" y="-709.5" font-family="Helvetica,sans-Serif" font-size="10.00">Rows</text>
<text text-anchor="start" x="106" y="-694.5" font-family="Helvetica,sans-Serif" font-size="10.00">+</text>
<text text-anchor="start" x="119" y="-694.5" font-family="Helvetica,sans-Serif" font-size="10.00">Cols</text>
<text text-anchor="start" x="106" y="-679.5" font-family="Helvetica,sans-Serif" font-size="10.00">+</text>
<text text-anchor="start" x="119" y="-679.5" font-family="Helvetica,sans-Serif" font-size="10.00">IsRowMajor</text>
<text text-anchor="start" x="106" y="-664.5" font-family="Helvetica,sans-Serif" font-size="10.00">#</text>
<text text-anchor="start" x="119" y="-664.5" font-family="Helvetica,sans-Serif" font-size="10.00">RowsInMem</text>
<text text-anchor="start" x="106" y="-649.5" font-family="Helvetica,sans-Serif" font-size="10.00">#</text>
<text text-anchor="start" x="119" y="-649.5" font-family="Helvetica,sans-Serif" font-size="10.00">ColsInMem</text>
<text text-anchor="start" x="108.5" y="-634.5" font-family="Helvetica,sans-Serif" font-size="10.00">&#45;</text>
<text text-anchor="start" x="119" y="-634.5" font-family="Helvetica,sans-Serif" font-size="10.00">_data</text>
<text text-anchor="start" x="106" y="-619.5" font-family="Helvetica,sans-Serif" font-size="10.00">+</text>
<text text-anchor="start" x="119" y="-619.5" font-family="Helvetica,sans-Serif" font-size="10.00">Matrix()</text>
<text text-anchor="start" x="106" y="-604.5" font-family="Helvetica,sans-Serif" font-size="10.00">+</text>
<text text-anchor="start" x="119" y="-604.5" font-family="Helvetica,sans-Serif" font-size="10.00">Matrix()</text>
<text text-anchor="start" x="106" y="-589.5" font-family="Helvetica,sans-Serif" font-size="10.00">+</text>
<text text-anchor="start" x="119" y="-589.5" font-family="Helvetica,sans-Serif" font-size="10.00">Matrix()</text>
<text text-anchor="start" x="106" y="-574.5" font-family="Helvetica,sans-Serif" font-size="10.00">+</text>
<text text-anchor="start" x="119" y="-574.5" font-family="Helvetica,sans-Serif" font-size="10.00">operator=()</text>
<text text-anchor="start" x="106" y="-559.5" font-family="Helvetica,sans-Serif" font-size="10.00">+</text>
<text text-anchor="start" x="119" y="-559.5" font-family="Helvetica,sans-Serif" font-size="10.00">operator=()</text>
<text text-anchor="start" x="106" y="-544.5" font-family="Helvetica,sans-Serif" font-size="10.00">+</text>
<text text-anchor="start" x="119" y="-544.5" font-family="Helvetica,sans-Serif" font-size="10.00">~Matrix()</text>
<text text-anchor="start" x="106" y="-529.5" font-family="Helvetica,sans-Serif" font-size="10.00">+</text>
<text text-anchor="start" x="119" y="-529.5" font-family="Helvetica,sans-Serif" font-size="10.00">operator()()</text>
<text text-anchor="start" x="106" y="-514.5" font-family="Helvetica,sans-Serif" font-size="10.00">+</text>
<text text-anchor="start" x="119" y="-514.5" font-family="Helvetica,sans-Serif" font-size="10.00">operator()()</text>
<text text-anchor="start" x="106" y="-499.5" font-family="Helvetica,sans-Serif" font-size="10.00">+</text>
<text text-anchor="start" x="119" y="-499.5" font-family="Helvetica,sans-Serif" font-size="10.00">operator==()</text>
<text text-anchor="start" x="106" y="-484.5" font-family="Helvetica,sans-Serif" font-size="10.00">+</text>
<text text-anchor="start" x="119" y="-484.5" font-family="Helvetica,sans-Serif" font-size="10.00">operator!=()</text>
<text text-anchor="start" x="119" y="-469.5" font-family="Helvetica,sans-Serif" font-size="10.00">and 27 more...</text>
<text text-anchor="start" x="106" y="-454.5" font-family="Helvetica,sans-Serif" font-size="10.00">+</text>
<text text-anchor="start" x="119" y="-454.5" font-family="Helvetica,sans-Serif" font-size="10.00">Zeros()</text>
<text text-anchor="start" x="106" y="-439.5" font-family="Helvetica,sans-Serif" font-size="10.00">+</text>
<text text-anchor="start" x="119" y="-439.5" font-family="Helvetica,sans-Serif" font-size="10.00">Ones()</text>
<text text-anchor="start" x="106" y="-424.5" font-family="Helvetica,sans-Serif" font-size="10.00">+</text>
<text text-anchor="start" x="119" y="-424.5" font-family="Helvetica,sans-Serif" font-size="10.00">FromList()</text>
<text text-anchor="start" x="106" y="-409.5" font-family="Helvetica,sans-Serif" font-size="10.00">#</text>
<text text-anchor="start" x="119" y="-409.5" font-family="Helvetica,sans-Serif" font-size="10.00">data()</text>
<text text-anchor="start" x="106" y="-394.5" font-family="Helvetica,sans-Serif" font-size="10.00">#</text>
<text text-anchor="start" x="119" y="-394.5" font-family="Helvetica,sans-Serif" font-size="10.00">data()</text>
<text text-anchor="start" x="108.5" y="-379.5" font-family="Helvetica,sans-Serif" font-size="10.00">&#45;</text>
<text text-anchor="start" x="119" y="-379.5" font-family="Helvetica,sans-Serif" font-size="10.00">inplace_div_by_int</text>
<text text-anchor="start" x="119" y="-368.5" font-family="Helvetica,sans-Serif" font-size="10.00">_unsafe()</text>
<text text-anchor="start" x="108.5" y="-353.5" font-family="Helvetica,sans-Serif" font-size="10.00">&#45;</text>
<text text-anchor="start" x="119" y="-353.5" font-family="Helvetica,sans-Serif" font-size="10.00">inplace_mul_by_inverse</text>
<text text-anchor="start" x="119" y="-342.5" font-family="Helvetica,sans-Serif" font-size="10.00">_factor_unsafe()</text>
<polygon fill="#666666" stroke="#666666" points="102,-719.5 102,-719.5 241,-719.5 241,-719.5 102,-719.5"/>
<polygon fill="#666666" stroke="#666666" points="102,-629.5 102,-629.5 117,-629.5 117,-629.5 102,-629.5"/>
<polygon fill="#666666" stroke="#666666" points="117,-629.5 117,-629.5 241,-629.5 241,-629.5 117,-629.5"/>
<polygon fill="none" stroke="#666666" points="101.5,-336 101.5,-759 240.5,-759 240.5,-336 101.5,-336"/>
</a>
</g>
</g>
<!-- Node2&#45;&gt;Node1 -->
<g id="edge1_Node000001_Node000002" class="edge">
<title>Node2&#45;&gt;Node1</title>
<g id="a_edge1_Node000001_Node000002"><a xlink:title=" ">
<path fill="none" stroke="#63b8ff" d="M171,-325.64C171,-317.06 171,-308.55 171,-300.16"/>
<polygon fill="none" stroke="#63b8ff" points="167.5,-325.72 171,-335.72 174.5,-325.72 167.5,-325.72"/>
</a>
</g>
</g>
<!-- Node3 -->
<g id="Node000003" class="node">
<title>Node3</title>
<g id="a_Node000003"><a xlink:href="structtracking_1_1math_1_1contract_1_1MatrixIntf.html" target="_top" xlink:title=" ">
<polygon fill="white" stroke="transparent" points="259,-866 83,-866 83,-795 259,-795 259,-866"/>
<text text-anchor="start" x="88" y="-853.5" font-family="Helvetica,sans-Serif" font-size="10.00">tracking::math::contract</text>
<text text-anchor="start" x="88" y="-842.5" font-family="Helvetica,sans-Serif" font-size="10.00">::MatrixIntf&lt; Matrix&lt; ValueType</text>
<text text-anchor="start" x="88" y="-831.5" font-family="Helvetica,sans-Serif" font-size="10.00">_, Rows_, Cols_, IsRowMajor_ &gt; &gt;</text>
<text text-anchor="start" x="169" y="-816.5" font-family="Helvetica,sans-Serif" font-size="10.00"> </text>
<text text-anchor="start" x="111.5" y="-801.5" font-family="Helvetica,sans-Serif" font-size="10.00">+</text>
<text text-anchor="start" x="149" y="-801.5" font-family="Helvetica,sans-Serif" font-size="10.00">MatrixIntf()</text>
<polygon fill="#666666" stroke="#666666" points="83,-826.5 83,-826.5 259,-826.5 259,-826.5 83,-826.5"/>
<polygon fill="#666666" stroke="#666666" points="83,-811.5 83,-811.5 259,-811.5 259,-811.5 83,-811.5"/>
<polygon fill="none" stroke="#666666" points="83,-795 83,-866 259,-866 259,-795 83,-795"/>
</a>
</g>
</g>
<!-- Node3&#45;&gt;Node2 -->
<g id="edge2_Node000002_Node000003" class="edge">
<title>Node3&#45;&gt;Node2</title>
<g id="a_edge2_Node000002_Node000003"><a xlink:title=" ">
<path fill="none" stroke="#63b8ff" d="M171,-784.62C171,-776.83 171,-768.29 171,-759.23"/>
<polygon fill="none" stroke="#63b8ff" points="167.5,-784.76 171,-794.76 174.5,-784.76 167.5,-784.76"/>
</a>
</g>
</g>
<!-- Node4 -->
<g id="Node000004" class="node">
<title>Node4</title>
<g id="a_Node000004"><a xlink:href="classtracking_1_1base_1_1contract_1_1RequireCopyIntf.html" target="_top" xlink:title=" ">
<polygon fill="white" stroke="transparent" points="162,-962 0,-962 0,-902 162,-902 162,-962"/>
<text text-anchor="start" x="5" y="-950" font-family="Helvetica,sans-Serif" font-size="10.00">tracking::base::contract</text>
<text text-anchor="start" x="5" y="-939" font-family="Helvetica,sans-Serif" font-size="10.00">::RequireCopyIntf&lt; ImplType &gt;</text>
<text text-anchor="start" x="79" y="-924" font-family="Helvetica,sans-Serif" font-size="10.00"> </text>
<text text-anchor="start" x="17.5" y="-909" font-family="Helvetica,sans-Serif" font-size="10.00">+</text>
<text text-anchor="start" x="44" y="-909" font-family="Helvetica,sans-Serif" font-size="10.00">RequireCopyIntf()</text>
<polygon fill="#666666" stroke="#666666" points="0,-934 0,-934 162,-934 162,-934 0,-934"/>
<polygon fill="#666666" stroke="#666666" points="0,-919 0,-919 162,-919 162,-919 0,-919"/>
<polygon fill="none" stroke="#666666" points="0,-902 0,-962 162,-962 162,-902 0,-902"/>
</a>
</g>
</g>
<!-- Node4&#45;&gt;Node3 -->
<g id="edge3_Node000003_Node000004" class="edge">
<title>Node4&#45;&gt;Node3</title>
<g id="a_edge3_Node000003_Node000004"><a xlink:title=" ">
<path fill="none" stroke="#63b8ff" d="M114.14,-894.36C122.52,-885.1 131.48,-875.19 139.76,-866.04"/>
<polygon fill="none" stroke="#63b8ff" points="111.39,-892.19 107.27,-901.95 116.58,-896.88 111.39,-892.19"/>
</a>
</g>
</g>
<!-- Node5 -->
<g id="Node000005" class="node">
<title>Node5</title>
<g id="a_Node000005"><a xlink:href="classtracking_1_1base_1_1contract_1_1RequireMoveIntf.html" target="_top" xlink:title=" ">
<polygon fill="white" stroke="transparent" points="344,-962 180,-962 180,-902 344,-902 344,-962"/>
<text text-anchor="start" x="185" y="-950" font-family="Helvetica,sans-Serif" font-size="10.00">tracking::base::contract</text>
<text text-anchor="start" x="185" y="-939" font-family="Helvetica,sans-Serif" font-size="10.00">::RequireMoveIntf&lt; ImplType &gt;</text>
<text text-anchor="start" x="260" y="-924" font-family="Helvetica,sans-Serif" font-size="10.00"> </text>
<text text-anchor="start" x="197.5" y="-909" font-family="Helvetica,sans-Serif" font-size="10.00">+</text>
<text text-anchor="start" x="224" y="-909" font-family="Helvetica,sans-Serif" font-size="10.00">RequireMoveIntf()</text>
<polygon fill="#666666" stroke="#666666" points="180,-934 180,-934 344,-934 344,-934 180,-934"/>
<polygon fill="#666666" stroke="#666666" points="180,-919 180,-919 344,-919 344,-919 180,-919"/>
<polygon fill="none" stroke="#666666" points="180,-902 180,-962 344,-962 344,-902 180,-902"/>
</a>
</g>
</g>
<!-- Node5&#45;&gt;Node3 -->
<g id="edge4_Node000003_Node000005" class="edge">
<title>Node5&#45;&gt;Node3</title>
<g id="a_edge4_Node000003_Node000005"><a xlink:title=" ">
<path fill="none" stroke="#63b8ff" d="M228.49,-894.36C220.02,-885.1 210.96,-875.19 202.59,-866.04"/>
<polygon fill="none" stroke="#63b8ff" points="226.1,-896.94 235.43,-901.95 231.27,-892.21 226.1,-896.94"/>
</a>
</g>
</g>
</g>
</svg>

<g id="navigator" transform="translate(0 0)" fill="#404254">
  <rect fill="#f2f5e9" fill-opacity="0.5" stroke="#606060" stroke-width=".5" x="0" y="0" width="60" height="60"/>
  <use id="zoomplus" xlink:href="#zoomPlus" x="17" y="9" onmousedown="handleZoom(evt,'in')"/>
  <use id="zoomminus" xlink:href="#zoomMin" x="42" y="9" onmousedown="handleZoom(evt,'out')"/>
  <use id="reset" xlink:href="#resetDef" x="30" y="36" onmousedown="handleReset()"/>
   <use id="arrowup" xlink:href="#arrowUp" x="0" y="0" onmousedown="handlePan(0,-1)"/>
  <use id="arrowright" xlink:href="#arrowRight" x="0" y="0" onmousedown="handlePan(1,0)"/>
  <use id="arrowdown" xlink:href="#arrowDown" x="0" y="0" onmousedown="handlePan(0,1)"/>
  <use id="arrowleft" xlink:href="#arrowLeft" x="0" y="0" onmousedown="handlePan(-1,0)"/>
</g>
<svg viewBox="0 0 15 15" width="100%" height="30px" preserveAspectRatio="xMaxYMin meet">
 <g id="arrow_out" transform="scale(0.3 0.3)">
  <a xlink:href="classtracking_1_1math_1_1Vector__inherit__graph_org.svg" target="_base">
   <rect id="button" ry="5" rx="5" y="6" x="6" height="38" width="38"
        fill="#f2f5e9" fill-opacity="0.5" stroke="#606060" stroke-width="1.0"/>
   <path id="arrow"
     d="M 11.500037,31.436501 C 11.940474,20.09759 22.043105,11.32322 32.158766,21.979434 L 37.068811,17.246167 C 37.068811,17.246167 37.088388,32 37.088388,32 L 22.160133,31.978069 C 22.160133,31.978069 26.997745,27.140456 26.997745,27.140456 C 18.528582,18.264221 13.291696,25.230495 11.500037,31.436501 z"
     style="fill:#404040;"/>
  </a>
 </g>
</svg>

<style type='text/css'>
<![CDATA[
[data-mouse-over-selected='false'] { opacity: 0.7; }
[data-mouse-over-selected='true']  { opacity: 1.0; }
]]>
</style>
<script type="application/ecmascript"><![CDATA[
document.addEventListener('DOMContentLoaded', (event) => {
  highlightEdges();
  highlightAdjacentNodes();
});
]]></script>
</svg>
