<?xml version="1.0" encoding="UTF-8" standalone="no"?>
<!DOCTYPE svg PUBLIC "-//W3C//DTD SVG 1.1//EN"
 "http://www.w3.org/Graphics/SVG/1.1/DTD/svg11.dtd">
<!-- Generated by graphviz version 2.43.0 (0)
 -->
<!-- Title: include/trackingLib/math/linalg/contracts/covariance_matrix_policy_intf.h Pages: 1 -->
<svg width="1163pt" height="665pt"
 viewBox="0.00 0.00 1163.04 665.00" xmlns="http://www.w3.org/2000/svg" xmlns:xlink="http://www.w3.org/1999/xlink">
<g id="graph0" class="graph" transform="scale(1 1) rotate(0) translate(4 661)">
<title>include/trackingLib/math/linalg/contracts/covariance_matrix_policy_intf.h</title>
<!-- Node1 -->
<g id="Node000001" class="node">
<title>Node1</title>
<g id="a_Node000001"><a xlink:title=" ">
<polygon fill="#999999" stroke="#666666" points="1150.54,-657 1005.54,-657 1005.54,-605 1150.54,-605 1150.54,-657"/>
<text text-anchor="start" x="1013.54" y="-645" font-family="Helvetica,sans-Serif" font-size="10.00">include/trackingLib</text>
<text text-anchor="start" x="1013.54" y="-634" font-family="Helvetica,sans-Serif" font-size="10.00">/math/linalg/contracts</text>
<text text-anchor="start" x="1013.54" y="-623" font-family="Helvetica,sans-Serif" font-size="10.00">/covariance_matrix_policy</text>
<text text-anchor="middle" x="1078.04" y="-612" font-family="Helvetica,sans-Serif" font-size="10.00">_intf.h</text>
</a>
</g>
</g>
<!-- Node2 -->
<g id="Node000002" class="node">
<title>Node2</title>
<g id="a_Node000002"><a xlink:href="first__include_8h.html" target="_top" xlink:title=" ">
<polygon fill="white" stroke="#666666" points="1018.54,-129 907.54,-129 907.54,-110 1018.54,-110 1018.54,-129"/>
<text text-anchor="middle" x="963.04" y="-117" font-family="Helvetica,sans-Serif" font-size="10.00">base/first_include.h</text>
</a>
</g>
</g>
<!-- Node1&#45;&gt;Node2 -->
<g id="edge1_Node000001_Node000002" class="edge">
<title>Node1&#45;&gt;Node2</title>
<g id="a_edge1_Node000001_Node000002"><a xlink:title=" ">
<path fill="none" stroke="#63b8ff" d="M1094.69,-604.94C1111.2,-577.63 1134.04,-532.06 1134.04,-489 1134.04,-489 1134.04,-489 1134.04,-239.5 1134.04,-179.31 1061.79,-147.09 1011.22,-131.91"/>
<polygon fill="#63b8ff" stroke="#63b8ff" points="1012,-128.49 1001.42,-129.1 1010.07,-135.22 1012,-128.49"/>
</a>
</g>
</g>
<!-- Node9 -->
<g id="Node000009" class="node">
<title>Node9</title>
<g id="a_Node000009"><a xlink:href="covariance__matrix__policies_8h.html" target="_top" xlink:title=" ">
<polygon fill="white" stroke="#666666" points="1087.04,-569 959.04,-569 959.04,-539 1087.04,-539 1087.04,-569"/>
<text text-anchor="start" x="967.04" y="-557" font-family="Helvetica,sans-Serif" font-size="10.00">math/linalg/covariance</text>
<text text-anchor="middle" x="1023.04" y="-546" font-family="Helvetica,sans-Serif" font-size="10.00">_matrix_policies.h</text>
</a>
</g>
</g>
<!-- Node1&#45;&gt;Node9 -->
<g id="edge8_Node000001_Node000009" class="edge">
<title>Node1&#45;&gt;Node9</title>
<g id="a_edge8_Node000001_Node000009"><a xlink:title=" ">
<path fill="none" stroke="#63b8ff" d="M1059.42,-604.61C1053.04,-595.9 1045.94,-586.22 1039.72,-577.74"/>
<polygon fill="#63b8ff" stroke="#63b8ff" points="1042.36,-575.42 1033.62,-569.43 1036.72,-579.56 1042.36,-575.42"/>
</a>
</g>
</g>
<!-- Node3 -->
<g id="Node000003" class="node">
<title>Node3</title>
<g id="a_Node000003"><a xlink:href="test__config_8h.html" target="_top" xlink:title=" ">
<polygon fill="white" stroke="#666666" points="1044.54,-74 965.54,-74 965.54,-55 1044.54,-55 1044.54,-74"/>
<text text-anchor="middle" x="1005.04" y="-62" font-family="Helvetica,sans-Serif" font-size="10.00">test_config.h</text>
</a>
</g>
</g>
<!-- Node2&#45;&gt;Node3 -->
<g id="edge2_Node000002_Node000003" class="edge">
<title>Node2&#45;&gt;Node3</title>
<g id="a_edge2_Node000002_Node000003"><a xlink:title=" ">
<path fill="none" stroke="#63b8ff" d="M969.98,-109.75C975.91,-102.26 984.62,-91.28 991.87,-82.13"/>
<polygon fill="#63b8ff" stroke="#63b8ff" points="994.77,-84.1 998.24,-74.09 989.28,-79.75 994.77,-84.1"/>
</a>
</g>
</g>
<!-- Node4 -->
<g id="Node000004" class="node">
<title>Node4</title>
<g id="a_Node000004"><a xlink:href="atomic__types_8h.html" target="_top" xlink:title=" ">
<polygon fill="white" stroke="#666666" points="1155.04,-74 1063.04,-74 1063.04,-55 1155.04,-55 1155.04,-74"/>
<text text-anchor="middle" x="1109.04" y="-62" font-family="Helvetica,sans-Serif" font-size="10.00">atomic_types.h</text>
</a>
</g>
</g>
<!-- Node2&#45;&gt;Node4 -->
<g id="edge3_Node000002_Node000004" class="edge">
<title>Node2&#45;&gt;Node4</title>
<g id="a_edge3_Node000002_Node000004"><a xlink:title=" ">
<path fill="none" stroke="#63b8ff" d="M986.5,-109.98C1010.62,-101.23 1048.41,-87.51 1075.65,-77.62"/>
<polygon fill="#63b8ff" stroke="#63b8ff" points="1076.95,-80.87 1085.16,-74.17 1074.57,-74.29 1076.95,-80.87"/>
</a>
</g>
</g>
<!-- Node6 -->
<g id="Node000006" class="node">
<title>Node6</title>
<g id="a_Node000006"><a xlink:title=" ">
<polygon fill="#e0e0e0" stroke="#999999" points="877.04,-74 785.04,-74 785.04,-55 877.04,-55 877.04,-74"/>
<text text-anchor="middle" x="831.04" y="-62" font-family="Helvetica,sans-Serif" font-size="10.00">tl/expected.hpp</text>
</a>
</g>
</g>
<!-- Node2&#45;&gt;Node6 -->
<g id="edge5_Node000002_Node000006" class="edge">
<title>Node2&#45;&gt;Node6</title>
<g id="a_edge5_Node000002_Node000006"><a xlink:title=" ">
<path fill="none" stroke="#63b8ff" d="M941.84,-109.98C920.31,-101.34 886.76,-87.87 862.22,-78.02"/>
<polygon fill="#63b8ff" stroke="#63b8ff" points="863.22,-74.65 852.64,-74.17 860.61,-81.14 863.22,-74.65"/>
</a>
</g>
</g>
<!-- Node7 -->
<g id="Node000007" class="node">
<title>Node7</title>
<g id="a_Node000007"><a xlink:title=" ">
<polygon fill="#e0e0e0" stroke="#999999" points="947.04,-74 895.04,-74 895.04,-55 947.04,-55 947.04,-74"/>
<text text-anchor="middle" x="921.04" y="-62" font-family="Helvetica,sans-Serif" font-size="10.00">cassert</text>
</a>
</g>
</g>
<!-- Node2&#45;&gt;Node7 -->
<g id="edge6_Node000002_Node000007" class="edge">
<title>Node2&#45;&gt;Node7</title>
<g id="a_edge6_Node000002_Node000007"><a xlink:title=" ">
<path fill="none" stroke="#63b8ff" d="M956.11,-109.75C950.18,-102.26 941.47,-91.28 934.22,-82.13"/>
<polygon fill="#63b8ff" stroke="#63b8ff" points="936.8,-79.75 927.85,-74.09 931.32,-84.1 936.8,-79.75"/>
</a>
</g>
</g>
<!-- Node8 -->
<g id="Node000008" class="node">
<title>Node8</title>
<g id="a_Node000008"><a xlink:title=" ">
<polygon fill="#e0e0e0" stroke="#999999" points="158.54,-74 75.54,-74 75.54,-55 158.54,-55 158.54,-74"/>
<text text-anchor="middle" x="117.04" y="-62" font-family="Helvetica,sans-Serif" font-size="10.00">initializer_list</text>
</a>
</g>
</g>
<!-- Node2&#45;&gt;Node8 -->
<g id="edge7_Node000002_Node000008" class="edge">
<title>Node2&#45;&gt;Node8</title>
<g id="a_edge7_Node000002_Node000008"><a xlink:title=" ">
<path fill="none" stroke="#63b8ff" d="M907.54,-115.02C752.99,-105.34 319.27,-78.17 169.05,-68.76"/>
<polygon fill="#63b8ff" stroke="#63b8ff" points="168.93,-65.24 158.73,-68.11 168.49,-72.23 168.93,-65.24"/>
</a>
</g>
</g>
<!-- Node5 -->
<g id="Node000005" class="node">
<title>Node5</title>
<g id="a_Node000005"><a xlink:title=" ">
<polygon fill="#e0e0e0" stroke="#999999" points="1134.04,-19 1084.04,-19 1084.04,0 1134.04,0 1134.04,-19"/>
<text text-anchor="middle" x="1109.04" y="-7" font-family="Helvetica,sans-Serif" font-size="10.00">cstdint</text>
</a>
</g>
</g>
<!-- Node4&#45;&gt;Node5 -->
<g id="edge4_Node000004_Node000005" class="edge">
<title>Node4&#45;&gt;Node5</title>
<g id="a_edge4_Node000004_Node000005"><a xlink:title=" ">
<path fill="none" stroke="#63b8ff" d="M1109.04,-54.75C1109.04,-47.8 1109.04,-37.85 1109.04,-29.13"/>
<polygon fill="#63b8ff" stroke="#63b8ff" points="1112.54,-29.09 1109.04,-19.09 1105.54,-29.09 1112.54,-29.09"/>
</a>
</g>
</g>
<!-- Node9&#45;&gt;Node2 -->
<g id="edge9_Node000009_Node000002" class="edge">
<title>Node9&#45;&gt;Node2</title>
<g id="a_edge9_Node000009_Node000002"><a xlink:title=" ">
<path fill="none" stroke="#63b8ff" d="M1043.59,-538.8C1055.09,-529.82 1068.73,-517.23 1077.04,-503 1095.47,-471.44 1096.04,-459.54 1096.04,-423 1096.04,-423 1096.04,-423 1096.04,-239.5 1096.04,-202.13 1084,-190.89 1057.04,-165 1041.81,-150.37 1020.87,-139.82 1002.62,-132.67"/>
<polygon fill="#63b8ff" stroke="#63b8ff" points="1003.69,-129.33 993.09,-129.15 1001.26,-135.9 1003.69,-129.33"/>
</a>
</g>
</g>
<!-- Node10 -->
<g id="Node000010" class="node">
<title>Node10</title>
<g id="a_Node000010"><a xlink:href="covariance__matrix__factored_8h.html" target="_top" xlink:title=" ">
<polygon fill="white" stroke="#666666" points="477.04,-503 349.04,-503 349.04,-473 477.04,-473 477.04,-503"/>
<text text-anchor="start" x="357.04" y="-491" font-family="Helvetica,sans-Serif" font-size="10.00">math/linalg/covariance</text>
<text text-anchor="middle" x="413.04" y="-480" font-family="Helvetica,sans-Serif" font-size="10.00">_matrix_factored.h</text>
</a>
</g>
</g>
<!-- Node9&#45;&gt;Node10 -->
<g id="edge10_Node000009_Node000010" class="edge">
<title>Node9&#45;&gt;Node10</title>
<g id="a_edge10_Node000009_Node000010"><a xlink:title=" ">
<path fill="none" stroke="#63b8ff" d="M958.92,-546.27C845.08,-534.33 608.33,-509.49 487.49,-496.81"/>
<polygon fill="#63b8ff" stroke="#63b8ff" points="487.54,-493.3 477.23,-495.73 486.81,-500.26 487.54,-493.3"/>
</a>
</g>
</g>
<!-- Node27 -->
<g id="Node000027" class="node">
<title>Node27</title>
<g id="a_Node000027"><a xlink:href="covariance__matrix__full_8h.html" target="_top" xlink:title=" ">
<polygon fill="white" stroke="#666666" points="1068.04,-503 940.04,-503 940.04,-473 1068.04,-473 1068.04,-503"/>
<text text-anchor="start" x="948.04" y="-491" font-family="Helvetica,sans-Serif" font-size="10.00">math/linalg/covariance</text>
<text text-anchor="middle" x="1004.04" y="-480" font-family="Helvetica,sans-Serif" font-size="10.00">_matrix_full.h</text>
</a>
</g>
</g>
<!-- Node9&#45;&gt;Node27 -->
<g id="edge45_Node000009_Node000027" class="edge">
<title>Node9&#45;&gt;Node27</title>
<g id="a_edge45_Node000009_Node000027"><a xlink:title=" ">
<path fill="none" stroke="#63b8ff" d="M1018.83,-538.8C1016.56,-531.17 1013.71,-521.57 1011.12,-512.84"/>
<polygon fill="#63b8ff" stroke="#63b8ff" points="1014.45,-511.75 1008.25,-503.16 1007.74,-513.75 1014.45,-511.75"/>
</a>
</g>
</g>
<!-- Node10&#45;&gt;Node2 -->
<g id="edge11_Node000010_Node000002" class="edge">
<title>Node10&#45;&gt;Node2</title>
<g id="a_edge11_Node000010_Node000002"><a xlink:title=" ">
<path fill="none" stroke="#63b8ff" d="M477.14,-480.65C633.18,-463.44 1020.04,-409.37 1020.04,-296.5 1020.04,-296.5 1020.04,-296.5 1020.04,-239.5 1020.04,-199.64 993.7,-158.98 976.84,-137.03"/>
<polygon fill="#63b8ff" stroke="#63b8ff" points="979.47,-134.71 970.5,-129.07 973.99,-139.07 979.47,-134.71"/>
</a>
</g>
</g>
<!-- Node10&#45;&gt;Node8 -->
<g id="edge43_Node000010_Node000008" class="edge">
<title>Node10&#45;&gt;Node8</title>
<g id="a_edge43_Node000010_Node000008"><a xlink:title=" ">
<path fill="none" stroke="#63b8ff" d="M349,-487.38C250.45,-486.59 68.05,-479.25 21.04,-437 -6.13,-412.57 2.04,-393.54 2.04,-357 2.04,-357 2.04,-357 2.04,-179 2.04,-130.8 53.86,-96.16 87.93,-78.6"/>
<polygon fill="#63b8ff" stroke="#63b8ff" points="89.6,-81.68 97.01,-74.11 86.5,-75.41 89.6,-81.68"/>
</a>
</g>
</g>
<!-- Node11 -->
<g id="Node000011" class="node">
<title>Node11</title>
<g id="a_Node000011"><a xlink:href="covariance__matrix__intf_8h.html" target="_top" xlink:title=" ">
<polygon fill="white" stroke="#666666" points="483.04,-437 343.04,-437 343.04,-407 483.04,-407 483.04,-437"/>
<text text-anchor="start" x="351.04" y="-425" font-family="Helvetica,sans-Serif" font-size="10.00">math/linalg/contracts</text>
<text text-anchor="middle" x="413.04" y="-414" font-family="Helvetica,sans-Serif" font-size="10.00">/covariance_matrix_intf.h</text>
</a>
</g>
</g>
<!-- Node10&#45;&gt;Node11 -->
<g id="edge12_Node000010_Node000011" class="edge">
<title>Node10&#45;&gt;Node11</title>
<g id="a_edge12_Node000010_Node000011"><a xlink:title=" ">
<path fill="none" stroke="#63b8ff" d="M413.04,-472.8C413.04,-465.34 413.04,-455.99 413.04,-447.41"/>
<polygon fill="#63b8ff" stroke="#63b8ff" points="416.54,-447.16 413.04,-437.16 409.54,-447.16 416.54,-447.16"/>
</a>
</g>
</g>
<!-- Node26 -->
<g id="Node000026" class="node">
<title>Node26</title>
<g id="a_Node000026"><a xlink:title=" ">
<polygon fill="#e0e0e0" stroke="#999999" points="90.04,-431.5 30.04,-431.5 30.04,-412.5 90.04,-412.5 90.04,-431.5"/>
<text text-anchor="middle" x="60.04" y="-419.5" font-family="Helvetica,sans-Serif" font-size="10.00">iostream</text>
</a>
</g>
</g>
<!-- Node10&#45;&gt;Node26 -->
<g id="edge44_Node000010_Node000026" class="edge">
<title>Node10&#45;&gt;Node26</title>
<g id="a_edge44_Node000010_Node000026"><a xlink:title=" ">
<path fill="none" stroke="#63b8ff" d="M348.88,-479.43C286,-471.35 187.69,-456.96 104.04,-437 101.02,-436.28 97.91,-435.46 94.8,-434.58"/>
<polygon fill="#63b8ff" stroke="#63b8ff" points="95.58,-431.16 84.99,-431.64 93.57,-437.86 95.58,-431.16"/>
</a>
</g>
</g>
<!-- Node11&#45;&gt;Node2 -->
<g id="edge13_Node000011_Node000002" class="edge">
<title>Node11&#45;&gt;Node2</title>
<g id="a_edge13_Node000011_Node000002"><a xlink:title=" ">
<path fill="none" stroke="#63b8ff" d="M483.1,-420.24C635.19,-416.71 982.04,-397.56 982.04,-296.5 982.04,-296.5 982.04,-296.5 982.04,-239.5 982.04,-203.54 973.48,-162.23 967.85,-138.96"/>
<polygon fill="#63b8ff" stroke="#63b8ff" points="971.2,-137.93 965.37,-129.09 964.41,-139.64 971.2,-137.93"/>
</a>
</g>
</g>
<!-- Node12 -->
<g id="Node000012" class="node">
<title>Node12</title>
<g id="a_Node000012"><a xlink:href="interface__contract_8h.html" target="_top" xlink:title=" ">
<polygon fill="white" stroke="#666666" points="500.04,-129 360.04,-129 360.04,-110 500.04,-110 500.04,-129"/>
<text text-anchor="middle" x="430.04" y="-117" font-family="Helvetica,sans-Serif" font-size="10.00">base/interface_contract.h</text>
</a>
</g>
</g>
<!-- Node11&#45;&gt;Node12 -->
<g id="edge14_Node000011_Node000012" class="edge">
<title>Node11&#45;&gt;Node12</title>
<g id="a_edge14_Node000011_Node000012"><a xlink:title=" ">
<path fill="none" stroke="#63b8ff" d="M342.95,-414.1C272.43,-402.83 174.04,-373.34 174.04,-296.5 174.04,-296.5 174.04,-296.5 174.04,-239.5 174.04,-193.57 311.28,-151.1 384.79,-131.65"/>
<polygon fill="#63b8ff" stroke="#63b8ff" points="385.92,-134.97 394.72,-129.06 384.16,-128.2 385.92,-134.97"/>
</a>
</g>
</g>
<!-- Node14 -->
<g id="Node000014" class="node">
<title>Node14</title>
<g id="a_Node000014"><a xlink:href="require__copy__intf_8h.html" target="_top" xlink:title=" ">
<polygon fill="white" stroke="#666666" points="786.04,-129 650.04,-129 650.04,-110 786.04,-110 786.04,-129"/>
<text text-anchor="middle" x="718.04" y="-117" font-family="Helvetica,sans-Serif" font-size="10.00">base/require_copy_intf.h</text>
</a>
</g>
</g>
<!-- Node11&#45;&gt;Node14 -->
<g id="edge16_Node000011_Node000014" class="edge">
<title>Node11&#45;&gt;Node14</title>
<g id="a_edge16_Node000011_Node000014"><a xlink:title=" ">
<path fill="none" stroke="#63b8ff" d="M412.96,-406.62C413.28,-381.28 416.1,-327.45 433.04,-286 445.62,-255.22 493.27,-183.28 521.04,-165 542.03,-151.19 601.25,-138.89 649.33,-130.75"/>
<polygon fill="#63b8ff" stroke="#63b8ff" points="650.11,-134.17 659.4,-129.07 648.96,-127.26 650.11,-134.17"/>
</a>
</g>
</g>
<!-- Node15 -->
<g id="Node000015" class="node">
<title>Node15</title>
<g id="a_Node000015"><a xlink:href="require__move__intf_8h.html" target="_top" xlink:title=" ">
<polygon fill="white" stroke="#666666" points="342.04,-129 202.04,-129 202.04,-110 342.04,-110 342.04,-129"/>
<text text-anchor="middle" x="272.04" y="-117" font-family="Helvetica,sans-Serif" font-size="10.00">base/require_move_intf.h</text>
</a>
</g>
</g>
<!-- Node11&#45;&gt;Node15 -->
<g id="edge18_Node000011_Node000015" class="edge">
<title>Node11&#45;&gt;Node15</title>
<g id="a_edge18_Node000011_Node000015"><a xlink:title=" ">
<path fill="none" stroke="#63b8ff" d="M342.79,-418.85C260.72,-412.14 136.04,-387.05 136.04,-296.5 136.04,-296.5 136.04,-296.5 136.04,-239.5 136.04,-185.45 197.65,-150.25 237.93,-133.01"/>
<polygon fill="#63b8ff" stroke="#63b8ff" points="239.5,-136.15 247.42,-129.11 236.84,-129.68 239.5,-136.15"/>
</a>
</g>
</g>
<!-- Node16 -->
<g id="Node000016" class="node">
<title>Node16</title>
<g id="a_Node000016"><a xlink:href="square__matrix_8h.html" target="_top" xlink:title=" ">
<polygon fill="white" stroke="#666666" points="596.04,-371 488.04,-371 488.04,-341 596.04,-341 596.04,-371"/>
<text text-anchor="start" x="496.04" y="-359" font-family="Helvetica,sans-Serif" font-size="10.00">math/linalg/square</text>
<text text-anchor="middle" x="542.04" y="-348" font-family="Helvetica,sans-Serif" font-size="10.00">_matrix.h</text>
</a>
</g>
</g>
<!-- Node11&#45;&gt;Node16 -->
<g id="edge20_Node000011_Node000016" class="edge">
<title>Node11&#45;&gt;Node16</title>
<g id="a_edge20_Node000011_Node000016"><a xlink:title=" ">
<path fill="none" stroke="#63b8ff" d="M441.35,-406.95C459.92,-397.74 484.41,-385.6 504.58,-375.59"/>
<polygon fill="#63b8ff" stroke="#63b8ff" points="506.4,-378.59 513.8,-371.01 503.29,-372.32 506.4,-378.59"/>
</a>
</g>
</g>
<!-- Node13 -->
<g id="Node000013" class="node">
<title>Node13</title>
<g id="a_Node000013"><a xlink:title=" ">
<polygon fill="#e0e0e0" stroke="#999999" points="464.54,-74 395.54,-74 395.54,-55 464.54,-55 464.54,-74"/>
<text text-anchor="middle" x="430.04" y="-62" font-family="Helvetica,sans-Serif" font-size="10.00">type_traits</text>
</a>
</g>
</g>
<!-- Node12&#45;&gt;Node13 -->
<g id="edge15_Node000012_Node000013" class="edge">
<title>Node12&#45;&gt;Node13</title>
<g id="a_edge15_Node000012_Node000013"><a xlink:title=" ">
<path fill="none" stroke="#63b8ff" d="M430.04,-109.75C430.04,-102.8 430.04,-92.85 430.04,-84.13"/>
<polygon fill="#63b8ff" stroke="#63b8ff" points="433.54,-84.09 430.04,-74.09 426.54,-84.09 433.54,-84.09"/>
</a>
</g>
</g>
<!-- Node14&#45;&gt;Node13 -->
<g id="edge17_Node000014_Node000013" class="edge">
<title>Node14&#45;&gt;Node13</title>
<g id="a_edge17_Node000014_Node000013"><a xlink:title=" ">
<path fill="none" stroke="#63b8ff" d="M671.77,-109.98C617.55,-100.01 528.32,-83.59 474.77,-73.73"/>
<polygon fill="#63b8ff" stroke="#63b8ff" points="475.35,-70.28 464.88,-71.91 474.08,-77.16 475.35,-70.28"/>
</a>
</g>
</g>
<!-- Node15&#45;&gt;Node13 -->
<g id="edge19_Node000015_Node000013" class="edge">
<title>Node15&#45;&gt;Node13</title>
<g id="a_edge19_Node000015_Node000013"><a xlink:title=" ">
<path fill="none" stroke="#63b8ff" d="M297.43,-109.98C323.84,-101.13 365.39,-87.19 394.94,-77.28"/>
<polygon fill="#63b8ff" stroke="#63b8ff" points="396.09,-80.58 404.46,-74.08 393.87,-73.94 396.09,-80.58"/>
</a>
</g>
</g>
<!-- Node16&#45;&gt;Node2 -->
<g id="edge21_Node000016_Node000002" class="edge">
<title>Node16&#45;&gt;Node2</title>
<g id="a_edge21_Node000016_Node000002"><a xlink:title=" ">
<path fill="none" stroke="#63b8ff" d="M596.14,-343.16C674.55,-323.72 820.87,-278.56 917.04,-195 934.93,-179.46 948.09,-155.23 955.64,-138.65"/>
<polygon fill="#63b8ff" stroke="#63b8ff" points="959.05,-139.59 959.8,-129.02 952.62,-136.82 959.05,-139.59"/>
</a>
</g>
</g>
<!-- Node16&#45;&gt;Node8 -->
<g id="edge41_Node000016_Node000008" class="edge">
<title>Node16&#45;&gt;Node8</title>
<g id="a_edge41_Node000016_Node000008"><a xlink:title=" ">
<path fill="none" stroke="#63b8ff" d="M489.63,-340.96C459.58,-332.15 421.5,-319.69 389.04,-305 301.55,-265.4 277.26,-255.96 203.04,-195 172.64,-170.02 165.14,-162.21 144.04,-129 135.01,-114.78 127.76,-97.02 123.05,-83.9"/>
<polygon fill="#63b8ff" stroke="#63b8ff" points="126.26,-82.48 119.71,-74.15 119.64,-84.75 126.26,-82.48"/>
</a>
</g>
</g>
<!-- Node17 -->
<g id="Node000017" class="node">
<title>Node17</title>
<g id="a_Node000017"><a xlink:href="errors_8h.html" target="_top" xlink:title="Error types used throughout the math library.">
<polygon fill="white" stroke="#666666" points="631.54,-129 518.54,-129 518.54,-110 631.54,-110 631.54,-129"/>
<text text-anchor="middle" x="575.04" y="-117" font-family="Helvetica,sans-Serif" font-size="10.00">math/linalg/errors.h</text>
</a>
</g>
</g>
<!-- Node16&#45;&gt;Node17 -->
<g id="edge22_Node000016_Node000017" class="edge">
<title>Node16&#45;&gt;Node17</title>
<g id="a_edge22_Node000016_Node000017"><a xlink:title=" ">
<path fill="none" stroke="#63b8ff" d="M503.76,-340.92C428.51,-311.2 273.75,-238.7 335.04,-165 340.67,-158.24 440.01,-141.52 509.1,-130.61"/>
<polygon fill="#63b8ff" stroke="#63b8ff" points="509.72,-134.05 519.06,-129.04 508.64,-127.14 509.72,-134.05"/>
</a>
</g>
</g>
<!-- Node18 -->
<g id="Node000018" class="node">
<title>Node18</title>
<g id="a_Node000018"><a xlink:href="matrix_8h.html" target="_top" xlink:title=" ">
<polygon fill="white" stroke="#666666" points="642.04,-250 526.04,-250 526.04,-231 642.04,-231 642.04,-250"/>
<text text-anchor="middle" x="584.04" y="-238" font-family="Helvetica,sans-Serif" font-size="10.00">math/linalg/matrix.h</text>
</a>
</g>
</g>
<!-- Node16&#45;&gt;Node18 -->
<g id="edge23_Node000016_Node000018" class="edge">
<title>Node16&#45;&gt;Node18</title>
<g id="a_edge23_Node000016_Node000018"><a xlink:title=" ">
<path fill="none" stroke="#63b8ff" d="M549.23,-340.79C554.07,-330.9 560.39,-317.34 565.04,-305 570.64,-290.18 575.71,-272.93 579.2,-260.16"/>
<polygon fill="#63b8ff" stroke="#63b8ff" points="582.65,-260.82 581.84,-250.26 575.89,-259.02 582.65,-260.82"/>
</a>
</g>
</g>
<!-- Node24 -->
<g id="Node000024" class="node">
<title>Node24</title>
<g id="a_Node000024"><a xlink:href="vector_8h.html" target="_top" xlink:title=" ">
<polygon fill="white" stroke="#666666" points="556.04,-305 442.04,-305 442.04,-286 556.04,-286 556.04,-305"/>
<text text-anchor="middle" x="499.04" y="-293" font-family="Helvetica,sans-Serif" font-size="10.00">math/linalg/vector.h</text>
</a>
</g>
</g>
<!-- Node16&#45;&gt;Node24 -->
<g id="edge37_Node000016_Node000024" class="edge">
<title>Node16&#45;&gt;Node24</title>
<g id="a_edge37_Node000016_Node000024"><a xlink:title=" ">
<path fill="none" stroke="#63b8ff" d="M531.64,-340.84C525.58,-332.61 517.92,-322.18 511.54,-313.51"/>
<polygon fill="#63b8ff" stroke="#63b8ff" points="514.23,-311.25 505.49,-305.27 508.59,-315.4 514.23,-311.25"/>
</a>
</g>
</g>
<!-- Node25 -->
<g id="Node000025" class="node">
<title>Node25</title>
<g id="a_Node000025"><a xlink:title=" ">
<polygon fill="#e0e0e0" stroke="#999999" points="657.54,-305 612.54,-305 612.54,-286 657.54,-286 657.54,-305"/>
<text text-anchor="middle" x="635.04" y="-293" font-family="Helvetica,sans-Serif" font-size="10.00">utility</text>
</a>
</g>
</g>
<!-- Node16&#45;&gt;Node25 -->
<g id="edge42_Node000016_Node000025" class="edge">
<title>Node16&#45;&gt;Node25</title>
<g id="a_edge42_Node000016_Node000025"><a xlink:title=" ">
<path fill="none" stroke="#63b8ff" d="M564.56,-340.84C579.11,-331.68 597.98,-319.82 612.53,-310.66"/>
<polygon fill="#63b8ff" stroke="#63b8ff" points="614.78,-313.38 621.38,-305.09 611.05,-307.46 614.78,-313.38"/>
</a>
</g>
</g>
<!-- Node18&#45;&gt;Node2 -->
<g id="edge24_Node000018_Node000002" class="edge">
<title>Node18&#45;&gt;Node2</title>
<g id="a_edge24_Node000018_Node000002"><a xlink:title=" ">
<path fill="none" stroke="#63b8ff" d="M642.13,-237.09C697.2,-233.12 781.35,-222.65 849.04,-195 870.62,-186.19 872.61,-177.86 892.04,-165 907.97,-154.46 926.23,-143.03 940.24,-134.4"/>
<polygon fill="#63b8ff" stroke="#63b8ff" points="942.08,-137.38 948.77,-129.16 938.42,-131.41 942.08,-137.38"/>
</a>
</g>
</g>
<!-- Node18&#45;&gt;Node8 -->
<g id="edge35_Node000018_Node000008" class="edge">
<title>Node18&#45;&gt;Node8</title>
<g id="a_edge35_Node000018_Node000008"><a xlink:title=" ">
<path fill="none" stroke="#63b8ff" d="M525.92,-233.42C474.79,-227.06 398.8,-215.14 335.04,-195 268.68,-174.04 251.8,-166.3 193.04,-129 170.75,-114.85 147.86,-94.83 133.1,-81.07"/>
<polygon fill="#63b8ff" stroke="#63b8ff" points="135.47,-78.49 125.8,-74.15 130.65,-83.57 135.47,-78.49"/>
</a>
</g>
</g>
<!-- Node18&#45;&gt;Node17 -->
<g id="edge31_Node000018_Node000017" class="edge">
<title>Node18&#45;&gt;Node17</title>
<g id="a_edge31_Node000018_Node000017"><a xlink:title=" ">
<path fill="none" stroke="#63b8ff" d="M525.92,-236.95C462.7,-232.82 367.6,-222.15 345.04,-195 336.52,-184.75 336.56,-175.28 345.04,-165 350.42,-158.48 445.78,-141.67 512,-130.68"/>
<polygon fill="#63b8ff" stroke="#63b8ff" points="512.66,-134.12 521.95,-129.03 511.52,-127.21 512.66,-134.12"/>
</a>
</g>
</g>
<!-- Node19 -->
<g id="Node000019" class="node">
<title>Node19</title>
<g id="a_Node000019"><a xlink:href="matrix__intf_8h.html" target="_top" xlink:title=" ">
<polygon fill="white" stroke="#666666" points="474.04,-195 354.04,-195 354.04,-165 474.04,-165 474.04,-195"/>
<text text-anchor="start" x="362.04" y="-183" font-family="Helvetica,sans-Serif" font-size="10.00">math/linalg/contracts</text>
<text text-anchor="middle" x="414.04" y="-172" font-family="Helvetica,sans-Serif" font-size="10.00">/matrix_intf.h</text>
</a>
</g>
</g>
<!-- Node18&#45;&gt;Node19 -->
<g id="edge25_Node000018_Node000019" class="edge">
<title>Node18&#45;&gt;Node19</title>
<g id="a_edge25_Node000018_Node000019"><a xlink:title=" ">
<path fill="none" stroke="#63b8ff" d="M559.32,-230.99C534.65,-222.5 496,-209.2 464.77,-198.45"/>
<polygon fill="#63b8ff" stroke="#63b8ff" points="465.51,-195.01 454.91,-195.06 463.23,-201.63 465.51,-195.01"/>
</a>
</g>
</g>
<!-- Node20 -->
<g id="Node000020" class="node">
<title>Node20</title>
<g id="a_Node000020"><a xlink:href="matrix__types_8h.html" target="_top" xlink:title="Type definitions and enumerations for matrix operations.">
<polygon fill="white" stroke="#666666" points="637.54,-195 530.54,-195 530.54,-165 637.54,-165 637.54,-195"/>
<text text-anchor="start" x="538.54" y="-183" font-family="Helvetica,sans-Serif" font-size="10.00">math/linalg/matrix</text>
<text text-anchor="middle" x="584.04" y="-172" font-family="Helvetica,sans-Serif" font-size="10.00">_types.h</text>
</a>
</g>
</g>
<!-- Node18&#45;&gt;Node20 -->
<g id="edge32_Node000018_Node000020" class="edge">
<title>Node18&#45;&gt;Node20</title>
<g id="a_edge32_Node000018_Node000020"><a xlink:title=" ">
<path fill="none" stroke="#63b8ff" d="M584.04,-230.87C584.04,-224.11 584.04,-214.35 584.04,-205.26"/>
<polygon fill="#63b8ff" stroke="#63b8ff" points="587.54,-205.11 584.04,-195.11 580.54,-205.11 587.54,-205.11"/>
</a>
</g>
</g>
<!-- Node21 -->
<g id="Node000021" class="node">
<title>Node21</title>
<g id="a_Node000021"><a xlink:title=" ">
<polygon fill="#e0e0e0" stroke="#999999" points="720.04,-189.5 656.04,-189.5 656.04,-170.5 720.04,-170.5 720.04,-189.5"/>
<text text-anchor="middle" x="688.04" y="-177.5" font-family="Helvetica,sans-Serif" font-size="10.00">algorithm</text>
</a>
</g>
</g>
<!-- Node18&#45;&gt;Node21 -->
<g id="edge33_Node000018_Node000021" class="edge">
<title>Node18&#45;&gt;Node21</title>
<g id="a_edge33_Node000018_Node000021"><a xlink:title=" ">
<path fill="none" stroke="#63b8ff" d="M599.39,-230.87C616.36,-221.32 643.94,-205.81 663.84,-194.62"/>
<polygon fill="#63b8ff" stroke="#63b8ff" points="665.64,-197.62 672.64,-189.67 662.2,-191.52 665.64,-197.62"/>
</a>
</g>
</g>
<!-- Node22 -->
<g id="Node000022" class="node">
<title>Node22</title>
<g id="a_Node000022"><a xlink:title=" ">
<polygon fill="#e0e0e0" stroke="#999999" points="780.04,-189.5 738.04,-189.5 738.04,-170.5 780.04,-170.5 780.04,-189.5"/>
<text text-anchor="middle" x="759.04" y="-177.5" font-family="Helvetica,sans-Serif" font-size="10.00">array</text>
</a>
</g>
</g>
<!-- Node18&#45;&gt;Node22 -->
<g id="edge34_Node000018_Node000022" class="edge">
<title>Node18&#45;&gt;Node22</title>
<g id="a_edge34_Node000018_Node000022"><a xlink:title=" ">
<path fill="none" stroke="#63b8ff" d="M616.44,-230.95C646.12,-222.79 691.07,-209.61 729.04,-195 730.09,-194.6 731.15,-194.18 732.22,-193.74"/>
<polygon fill="#63b8ff" stroke="#63b8ff" points="734.01,-196.77 741.77,-189.56 731.21,-190.36 734.01,-196.77"/>
</a>
</g>
</g>
<!-- Node23 -->
<g id="Node000023" class="node">
<title>Node23</title>
<g id="a_Node000023"><a xlink:title=" ">
<polygon fill="#e0e0e0" stroke="#999999" points="839.54,-189.5 798.54,-189.5 798.54,-170.5 839.54,-170.5 839.54,-189.5"/>
<text text-anchor="middle" x="819.04" y="-177.5" font-family="Helvetica,sans-Serif" font-size="10.00">tuple</text>
</a>
</g>
</g>
<!-- Node18&#45;&gt;Node23 -->
<g id="edge36_Node000018_Node000023" class="edge">
<title>Node18&#45;&gt;Node23</title>
<g id="a_edge36_Node000018_Node000023"><a xlink:title=" ">
<path fill="none" stroke="#63b8ff" d="M639.33,-230.95C681.11,-223.66 739.52,-211.7 789.04,-195 790.44,-194.53 791.86,-194.01 793.28,-193.46"/>
<polygon fill="#63b8ff" stroke="#63b8ff" points="794.68,-196.67 802.5,-189.52 791.93,-190.24 794.68,-196.67"/>
</a>
</g>
</g>
<!-- Node19&#45;&gt;Node2 -->
<g id="edge26_Node000019_Node000002" class="edge">
<title>Node19&#45;&gt;Node2</title>
<g id="a_edge26_Node000019_Node000002"><a xlink:title=" ">
<path fill="none" stroke="#63b8ff" d="M474.27,-170.8C489.52,-168.81 505.88,-166.76 521.04,-165 654.48,-149.56 810.94,-134.53 897.33,-126.5"/>
<polygon fill="#63b8ff" stroke="#63b8ff" points="897.88,-129.96 907.52,-125.56 897.23,-122.99 897.88,-129.96"/>
</a>
</g>
</g>
<!-- Node19&#45;&gt;Node12 -->
<g id="edge27_Node000019_Node000012" class="edge">
<title>Node19&#45;&gt;Node12</title>
<g id="a_edge27_Node000019_Node000012"><a xlink:title=" ">
<path fill="none" stroke="#63b8ff" d="M417.92,-164.84C420.03,-157.13 422.66,-147.49 424.94,-139.17"/>
<polygon fill="#63b8ff" stroke="#63b8ff" points="428.38,-139.84 427.65,-129.27 421.63,-137.99 428.38,-139.84"/>
</a>
</g>
</g>
<!-- Node19&#45;&gt;Node14 -->
<g id="edge28_Node000019_Node000014" class="edge">
<title>Node19&#45;&gt;Node14</title>
<g id="a_edge28_Node000019_Node000014"><a xlink:title=" ">
<path fill="none" stroke="#63b8ff" d="M474.1,-167.44C529.38,-156.81 610.62,-141.17 663.93,-130.91"/>
<polygon fill="#63b8ff" stroke="#63b8ff" points="664.71,-134.33 673.87,-129 663.39,-127.45 664.71,-134.33"/>
</a>
</g>
</g>
<!-- Node19&#45;&gt;Node15 -->
<g id="edge29_Node000019_Node000015" class="edge">
<title>Node19&#45;&gt;Node15</title>
<g id="a_edge29_Node000019_Node000015"><a xlink:title=" ">
<path fill="none" stroke="#63b8ff" d="M380.03,-164.99C356.45,-155.27 325.3,-142.44 302.53,-133.06"/>
<polygon fill="#63b8ff" stroke="#63b8ff" points="303.59,-129.71 293.01,-129.14 300.93,-136.18 303.59,-129.71"/>
</a>
</g>
</g>
<!-- Node19&#45;&gt;Node17 -->
<g id="edge30_Node000019_Node000017" class="edge">
<title>Node19&#45;&gt;Node17</title>
<g id="a_edge30_Node000019_Node000017"><a xlink:title=" ">
<path fill="none" stroke="#63b8ff" d="M452.61,-164.99C479.83,-155.1 515.93,-141.98 541.86,-132.56"/>
<polygon fill="#63b8ff" stroke="#63b8ff" points="543.06,-135.84 551.27,-129.14 540.67,-129.26 543.06,-135.84"/>
</a>
</g>
</g>
<!-- Node24&#45;&gt;Node2 -->
<g id="edge38_Node000024_Node000002" class="edge">
<title>Node24&#45;&gt;Node2</title>
<g id="a_edge38_Node000024_Node000002"><a xlink:title=" ">
<path fill="none" stroke="#63b8ff" d="M556.18,-288.75C634.38,-278.95 777.22,-253.98 884.04,-195 910.89,-180.18 935.51,-154.12 949.9,-137.08"/>
<polygon fill="#63b8ff" stroke="#63b8ff" points="952.81,-139.05 956.45,-129.1 947.4,-134.61 952.81,-139.05"/>
</a>
</g>
</g>
<!-- Node24&#45;&gt;Node8 -->
<g id="edge40_Node000024_Node000008" class="edge">
<title>Node24&#45;&gt;Node8</title>
<g id="a_edge40_Node000024_Node000008"><a xlink:title=" ">
<path fill="none" stroke="#63b8ff" d="M466.02,-285.96C400.65,-267.55 253.34,-218.37 164.04,-129 150,-114.95 136.81,-96.47 127.99,-83.07"/>
<polygon fill="#63b8ff" stroke="#63b8ff" points="130.74,-80.88 122.4,-74.35 124.85,-84.66 130.74,-80.88"/>
</a>
</g>
</g>
<!-- Node24&#45;&gt;Node18 -->
<g id="edge39_Node000024_Node000018" class="edge">
<title>Node24&#45;&gt;Node18</title>
<g id="a_edge39_Node000024_Node000018"><a xlink:title=" ">
<path fill="none" stroke="#63b8ff" d="M512.7,-285.98C525.88,-277.77 546.07,-265.18 561.61,-255.49"/>
<polygon fill="#63b8ff" stroke="#63b8ff" points="563.51,-258.43 570.14,-250.17 559.8,-252.49 563.51,-258.43"/>
</a>
</g>
</g>
<!-- Node27&#45;&gt;Node2 -->
<g id="edge46_Node000027_Node000002" class="edge">
<title>Node27&#45;&gt;Node2</title>
<g id="a_edge46_Node000027_Node000002"><a xlink:title=" ">
<path fill="none" stroke="#63b8ff" d="M1014.2,-472.98C1029.84,-449.97 1058.04,-402.21 1058.04,-357 1058.04,-357 1058.04,-357 1058.04,-239.5 1058.04,-204.71 1055.41,-192.45 1034.04,-165 1023.59,-151.57 1007.86,-141.12 993.86,-133.73"/>
<polygon fill="#63b8ff" stroke="#63b8ff" points="995.05,-130.41 984.54,-129.11 991.94,-136.68 995.05,-130.41"/>
</a>
</g>
</g>
<!-- Node27&#45;&gt;Node8 -->
<g id="edge49_Node000027_Node000008" class="edge">
<title>Node27&#45;&gt;Node8</title>
<g id="a_edge49_Node000027_Node000008"><a xlink:title=" ">
<path fill="none" stroke="#63b8ff" d="M939.98,-487.81C819.81,-488.11 552.94,-482.94 334.04,-437 247.79,-418.9 205.65,-436.82 147.04,-371 72.92,-287.75 99.89,-136.61 112.24,-84.08"/>
<polygon fill="#63b8ff" stroke="#63b8ff" points="115.69,-84.73 114.68,-74.18 108.89,-83.05 115.69,-84.73"/>
</a>
</g>
</g>
<!-- Node27&#45;&gt;Node11 -->
<g id="edge47_Node000027_Node000011" class="edge">
<title>Node27&#45;&gt;Node11</title>
<g id="a_edge47_Node000027_Node000011"><a xlink:title=" ">
<path fill="none" stroke="#63b8ff" d="M939.95,-480.06C831.5,-468.32 612.06,-444.55 493.46,-431.71"/>
<polygon fill="#63b8ff" stroke="#63b8ff" points="493.67,-428.21 483.35,-430.61 492.92,-435.17 493.67,-428.21"/>
</a>
</g>
</g>
<!-- Node27&#45;&gt;Node16 -->
<g id="edge48_Node000027_Node000016" class="edge">
<title>Node27&#45;&gt;Node16</title>
<g id="a_edge48_Node000027_Node000016"><a xlink:title=" ">
<path fill="none" stroke="#63b8ff" d="M954.16,-472.96C868.5,-448.86 693.8,-399.7 601.79,-373.81"/>
<polygon fill="#63b8ff" stroke="#63b8ff" points="602.64,-370.42 592.07,-371.08 600.74,-377.15 602.64,-370.42"/>
</a>
</g>
</g>
</g>
</svg>
