<?xml version="1.0" encoding="UTF-8" standalone="no"?>
<!DOCTYPE svg PUBLIC "-//W3C//DTD SVG 1.1//EN"
 "http://www.w3.org/Graphics/SVG/1.1/DTD/svg11.dtd">
<!-- Generated by graphviz version 2.43.0 (0)
 -->
<!-- Title: include/trackingLib/math/linalg/contracts/covariance_matrix_intf.h Pages: 1 -->
<!--zoomable 456 -->

<svg id="main" version="1.1" xmlns="http://www.w3.org/2000/svg" xmlns:xlink="http://www.w3.org/1999/xlink" xml:space="preserve" onload="init(evt)">
<style type="text/css"><![CDATA[
.node, .edge {opacity: 0.7;}
.node.selected, .edge.selected {opacity: 1;}
.edge:hover path { stroke: red; }
.edge:hover polygon { stroke: red; fill: red; }
]]></style>

<defs>
  <circle id="rim" cx="0" cy="0" r="7"/>
  <circle id="rim2" cx="0" cy="0" r="3.5"/>
  <g id="zoomPlus">
    <use xlink:href="#rim" fill="#404040"><set attributeName="fill" to="#808080" begin="zoomplus.mouseover" end="zoomplus.mouseout"/></use>
    <path d="M-4,0h8M0,-4v8" fill="none" stroke="white" stroke-width="1.5" pointer-events="none"/>
  </g>
  <g id="zoomMin">
    <use xlink:href="#rim" fill="#404040"><set attributeName="fill" to="#808080" begin="zoomminus.mouseover" end="zoomminus.mouseout"/></use>
    <path d="M-4,0h8" fill="none" stroke="white" stroke-width="1.5" pointer-events="none"/>
  </g>
  <g id="arrowUp" transform="translate(30 24)">
    <use xlink:href="#rim"/>
    <path pointer-events="none" fill="none" stroke="white" stroke-width="1.5" d="M0,-3.0v7 M-2.5,-0.5L0,-3.0L2.5,-0.5"/>
  </g>
  <g id="arrowRight" transform="rotate(90) translate(36 -43)">
    <use xlink:href="#rim"/>
    <path pointer-events="none" fill="none" stroke="white" stroke-width="1.5" d="M0,-3.0v7 M-2.5,-0.5L0,-3.0L2.5,-0.5"/>
  </g>
  <g id="arrowDown" transform="rotate(180) translate(-30 -48)">
    <use xlink:href="#rim"/>
    <path pointer-events="none" fill="none" stroke="white" stroke-width="1.5" d="M0,-3.0v7 M-2.5,-0.5L0,-3.0L2.5,-0.5"/>
  </g>
  <g id="arrowLeft" transform="rotate(270) translate(-36 17)">
    <use xlink:href="#rim"/>
    <path pointer-events="none" fill="none" stroke="white" stroke-width="1.5" d="M0,-3.0v7 M-2.5,-0.5L0,-3.0L2.5,-0.5"/>
  </g>
  <g id="resetDef">
    <use xlink:href="#rim2" fill="#404040"><set attributeName="fill" to="#808080" begin="reset.mouseover" end="reset.mouseout"/></use>
  </g>
</defs>
<script type="application/ecmascript">
var viewWidth = 1112;
var viewHeight = 456;
var sectionId = 'dynsection-0';
</script>
<script type="application/ecmascript" xlink:href="svg.min.js"/>
<svg id="graph" class="graph">
<g id="viewport">
<title>include/trackingLib/math/linalg/contracts/covariance_matrix_intf.h</title>
<!-- Node1 -->
<g id="Node000001" class="node">
<title>Node1</title>
<g id="a_Node000001"><a xlink:title=" ">
<polygon fill="#999999" stroke="#666666" points="879.5,-448 739.5,-448 739.5,-407 879.5,-407 879.5,-448"/>
<text text-anchor="start" x="747.5" y="-436" font-family="Helvetica,sans-Serif" font-size="10.00">include/trackingLib</text>
<text text-anchor="start" x="747.5" y="-425" font-family="Helvetica,sans-Serif" font-size="10.00">/math/linalg/contracts</text>
<text text-anchor="middle" x="809.5" y="-414" font-family="Helvetica,sans-Serif" font-size="10.00">/covariance_matrix_intf.h</text>
</a>
</g>
</g>
<!-- Node2 -->
<g id="Node000002" class="node">
<title>Node2</title>
<g id="a_Node000002"><a xlink:href="first__include_8h.html" target="_top" xlink:title=" ">
<polygon fill="white" stroke="#666666" points="275,-129 164,-129 164,-110 275,-110 275,-129"/>
<text text-anchor="middle" x="219.5" y="-117" font-family="Helvetica,sans-Serif" font-size="10.00">base/first_include.h</text>
</a>
</g>
</g>
<!-- Node1&#45;&gt;Node2 -->
<g id="edge1_Node000001_Node000002" class="edge">
<title>Node1&#45;&gt;Node2</title>
<g id="a_edge1_Node000001_Node000002"><a xlink:title=" ">
<path fill="none" stroke="#63b8ff" d="M739.26,-425C587.46,-419.99 237.57,-398.35 176.5,-305 141.28,-251.16 184.99,-171.88 207.57,-137.47"/>
<polygon fill="#63b8ff" stroke="#63b8ff" points="210.59,-139.26 213.3,-129.01 204.79,-135.33 210.59,-139.26"/>
</a>
</g>
</g>
<!-- Node9 -->
<g id="Node000009" class="node">
<title>Node9</title>
<g id="a_Node000009"><a xlink:href="interface__contract_8h.html" target="_top" xlink:title=" ">
<polygon fill="white" stroke="#666666" points="791.5,-129 651.5,-129 651.5,-110 791.5,-110 791.5,-129"/>
<text text-anchor="middle" x="721.5" y="-117" font-family="Helvetica,sans-Serif" font-size="10.00">base/interface_contract.h</text>
</a>
</g>
</g>
<!-- Node1&#45;&gt;Node9 -->
<g id="edge8_Node000001_Node000009" class="edge">
<title>Node1&#45;&gt;Node9</title>
<g id="a_edge8_Node000001_Node000009"><a xlink:title=" ">
<path fill="none" stroke="#63b8ff" d="M809.5,-406.68C809.5,-381.19 809.5,-335.55 809.5,-296.5 809.5,-296.5 809.5,-296.5 809.5,-239.5 809.5,-205.33 810.46,-192.73 790.5,-165 780.76,-151.46 765.51,-141.01 751.82,-133.64"/>
<polygon fill="#63b8ff" stroke="#63b8ff" points="753.18,-130.41 742.68,-129.03 750.03,-136.66 753.18,-130.41"/>
</a>
</g>
</g>
<!-- Node11 -->
<g id="Node000011" class="node">
<title>Node11</title>
<g id="a_Node000011"><a xlink:href="require__copy__intf_8h.html" target="_top" xlink:title=" ">
<polygon fill="white" stroke="#666666" points="945.5,-129 809.5,-129 809.5,-110 945.5,-110 945.5,-129"/>
<text text-anchor="middle" x="877.5" y="-117" font-family="Helvetica,sans-Serif" font-size="10.00">base/require_copy_intf.h</text>
</a>
</g>
</g>
<!-- Node1&#45;&gt;Node11 -->
<g id="edge10_Node000001_Node000011" class="edge">
<title>Node1&#45;&gt;Node11</title>
<g id="a_edge10_Node000001_Node000011"><a xlink:title=" ">
<path fill="none" stroke="#63b8ff" d="M823.15,-406.81C838.85,-382.18 862.5,-338.18 862.5,-296.5 862.5,-296.5 862.5,-296.5 862.5,-239.5 862.5,-203.71 869.26,-162.34 873.71,-139.01"/>
<polygon fill="#63b8ff" stroke="#63b8ff" points="877.16,-139.6 875.66,-129.11 870.29,-138.25 877.16,-139.6"/>
</a>
</g>
</g>
<!-- Node12 -->
<g id="Node000012" class="node">
<title>Node12</title>
<g id="a_Node000012"><a xlink:href="require__move__intf_8h.html" target="_top" xlink:title=" ">
<polygon fill="white" stroke="#666666" points="1103.5,-129 963.5,-129 963.5,-110 1103.5,-110 1103.5,-129"/>
<text text-anchor="middle" x="1033.5" y="-117" font-family="Helvetica,sans-Serif" font-size="10.00">base/require_move_intf.h</text>
</a>
</g>
</g>
<!-- Node1&#45;&gt;Node12 -->
<g id="edge12_Node000001_Node000012" class="edge">
<title>Node1&#45;&gt;Node12</title>
<g id="a_edge12_Node000001_Node000012"><a xlink:title=" ">
<path fill="none" stroke="#63b8ff" d="M865.2,-406.89C910.69,-386.9 967.5,-351.03 967.5,-296.5 967.5,-296.5 967.5,-296.5 967.5,-239.5 967.5,-198.41 997.96,-158.23 1017.49,-136.69"/>
<polygon fill="#63b8ff" stroke="#63b8ff" points="1020.3,-138.81 1024.6,-129.13 1015.2,-134.02 1020.3,-138.81"/>
</a>
</g>
</g>
<!-- Node13 -->
<g id="Node000013" class="node">
<title>Node13</title>
<g id="a_Node000013"><a xlink:href="square__matrix_8h.html" target="_top" xlink:title=" ">
<polygon fill="white" stroke="#666666" points="444.5,-371 336.5,-371 336.5,-341 444.5,-341 444.5,-371"/>
<text text-anchor="start" x="344.5" y="-359" font-family="Helvetica,sans-Serif" font-size="10.00">math/linalg/square</text>
<text text-anchor="middle" x="390.5" y="-348" font-family="Helvetica,sans-Serif" font-size="10.00">_matrix.h</text>
</a>
</g>
</g>
<!-- Node1&#45;&gt;Node13 -->
<g id="edge14_Node000001_Node000013" class="edge">
<title>Node1&#45;&gt;Node13</title>
<g id="a_edge14_Node000001_Node000013"><a xlink:title=" ">
<path fill="none" stroke="#63b8ff" d="M739.37,-414.87C659.88,-401.68 531.42,-380.37 454.54,-367.62"/>
<polygon fill="#63b8ff" stroke="#63b8ff" points="454.95,-364.14 444.51,-365.96 453.8,-371.05 454.95,-364.14"/>
</a>
</g>
</g>
<!-- Node3 -->
<g id="Node000003" class="node">
<title>Node3</title>
<g id="a_Node000003"><a xlink:href="test__config_8h.html" target="_top" xlink:title=" ">
<polygon fill="white" stroke="#666666" points="361,-74 282,-74 282,-55 361,-55 361,-74"/>
<text text-anchor="middle" x="321.5" y="-62" font-family="Helvetica,sans-Serif" font-size="10.00">test_config.h</text>
</a>
</g>
</g>
<!-- Node2&#45;&gt;Node3 -->
<g id="edge2_Node000002_Node000003" class="edge">
<title>Node2&#45;&gt;Node3</title>
<g id="a_edge2_Node000002_Node000003"><a xlink:title=" ">
<path fill="none" stroke="#63b8ff" d="M235.89,-109.98C252.07,-101.57 277.07,-88.59 295.88,-78.81"/>
<polygon fill="#63b8ff" stroke="#63b8ff" points="297.55,-81.89 304.81,-74.17 294.33,-75.68 297.55,-81.89"/>
</a>
</g>
</g>
<!-- Node4 -->
<g id="Node000004" class="node">
<title>Node4</title>
<g id="a_Node000004"><a xlink:href="atomic__types_8h.html" target="_top" xlink:title=" ">
<polygon fill="white" stroke="#666666" points="471.5,-74 379.5,-74 379.5,-55 471.5,-55 471.5,-74"/>
<text text-anchor="middle" x="425.5" y="-62" font-family="Helvetica,sans-Serif" font-size="10.00">atomic_types.h</text>
</a>
</g>
</g>
<!-- Node2&#45;&gt;Node4 -->
<g id="edge3_Node000002_Node000004" class="edge">
<title>Node2&#45;&gt;Node4</title>
<g id="a_edge3_Node000002_Node000004"><a xlink:title=" ">
<path fill="none" stroke="#63b8ff" d="M252.6,-109.98C287.78,-100.93 343.57,-86.58 382.22,-76.64"/>
<polygon fill="#63b8ff" stroke="#63b8ff" points="383.33,-79.96 392.14,-74.08 381.59,-73.18 383.33,-79.96"/>
</a>
</g>
</g>
<!-- Node6 -->
<g id="Node000006" class="node">
<title>Node6</title>
<g id="a_Node000006"><a xlink:title=" ">
<polygon fill="#e0e0e0" stroke="#999999" points="193.5,-74 101.5,-74 101.5,-55 193.5,-55 193.5,-74"/>
<text text-anchor="middle" x="147.5" y="-62" font-family="Helvetica,sans-Serif" font-size="10.00">tl/expected.hpp</text>
</a>
</g>
</g>
<!-- Node2&#45;&gt;Node6 -->
<g id="edge5_Node000002_Node000006" class="edge">
<title>Node2&#45;&gt;Node6</title>
<g id="a_edge5_Node000002_Node000006"><a xlink:title=" ">
<path fill="none" stroke="#63b8ff" d="M207.93,-109.98C197.08,-102 180.62,-89.88 167.62,-80.31"/>
<polygon fill="#63b8ff" stroke="#63b8ff" points="169.41,-77.28 159.28,-74.17 165.26,-82.92 169.41,-77.28"/>
</a>
</g>
</g>
<!-- Node7 -->
<g id="Node000007" class="node">
<title>Node7</title>
<g id="a_Node000007"><a xlink:title=" ">
<polygon fill="#e0e0e0" stroke="#999999" points="263.5,-74 211.5,-74 211.5,-55 263.5,-55 263.5,-74"/>
<text text-anchor="middle" x="237.5" y="-62" font-family="Helvetica,sans-Serif" font-size="10.00">cassert</text>
</a>
</g>
</g>
<!-- Node2&#45;&gt;Node7 -->
<g id="edge6_Node000002_Node000007" class="edge">
<title>Node2&#45;&gt;Node7</title>
<g id="a_edge6_Node000002_Node000007"><a xlink:title=" ">
<path fill="none" stroke="#63b8ff" d="M222.47,-109.75C224.86,-102.72 228.29,-92.62 231.27,-83.84"/>
<polygon fill="#63b8ff" stroke="#63b8ff" points="234.68,-84.68 234.58,-74.09 228.05,-82.43 234.68,-84.68"/>
</a>
</g>
</g>
<!-- Node8 -->
<g id="Node000008" class="node">
<title>Node8</title>
<g id="a_Node000008"><a xlink:title=" ">
<polygon fill="#e0e0e0" stroke="#999999" points="83,-74 0,-74 0,-55 83,-55 83,-74"/>
<text text-anchor="middle" x="41.5" y="-62" font-family="Helvetica,sans-Serif" font-size="10.00">initializer_list</text>
</a>
</g>
</g>
<!-- Node2&#45;&gt;Node8 -->
<g id="edge7_Node000002_Node000008" class="edge">
<title>Node2&#45;&gt;Node8</title>
<g id="a_edge7_Node000002_Node000008"><a xlink:title=" ">
<path fill="none" stroke="#63b8ff" d="M190.9,-109.98C160.89,-101.05 113.52,-86.94 80.18,-77.02"/>
<polygon fill="#63b8ff" stroke="#63b8ff" points="80.91,-73.58 70.32,-74.08 78.91,-80.29 80.91,-73.58"/>
</a>
</g>
</g>
<!-- Node5 -->
<g id="Node000005" class="node">
<title>Node5</title>
<g id="a_Node000005"><a xlink:title=" ">
<polygon fill="#e0e0e0" stroke="#999999" points="450.5,-19 400.5,-19 400.5,0 450.5,0 450.5,-19"/>
<text text-anchor="middle" x="425.5" y="-7" font-family="Helvetica,sans-Serif" font-size="10.00">cstdint</text>
</a>
</g>
</g>
<!-- Node4&#45;&gt;Node5 -->
<g id="edge4_Node000004_Node000005" class="edge">
<title>Node4&#45;&gt;Node5</title>
<g id="a_edge4_Node000004_Node000005"><a xlink:title=" ">
<path fill="none" stroke="#63b8ff" d="M425.5,-54.75C425.5,-47.8 425.5,-37.85 425.5,-29.13"/>
<polygon fill="#63b8ff" stroke="#63b8ff" points="429,-29.09 425.5,-19.09 422,-29.09 429,-29.09"/>
</a>
</g>
</g>
<!-- Node10 -->
<g id="Node000010" class="node">
<title>Node10</title>
<g id="a_Node000010"><a xlink:title=" ">
<polygon fill="#e0e0e0" stroke="#999999" points="912,-74 843,-74 843,-55 912,-55 912,-74"/>
<text text-anchor="middle" x="877.5" y="-62" font-family="Helvetica,sans-Serif" font-size="10.00">type_traits</text>
</a>
</g>
</g>
<!-- Node9&#45;&gt;Node10 -->
<g id="edge9_Node000009_Node000010" class="edge">
<title>Node9&#45;&gt;Node10</title>
<g id="a_edge9_Node000009_Node000010"><a xlink:title=" ">
<path fill="none" stroke="#63b8ff" d="M746.56,-109.98C772.53,-101.16 813.31,-87.31 842.46,-77.41"/>
<polygon fill="#63b8ff" stroke="#63b8ff" points="843.9,-80.61 852.24,-74.08 841.65,-73.99 843.9,-80.61"/>
</a>
</g>
</g>
<!-- Node11&#45;&gt;Node10 -->
<g id="edge11_Node000011_Node000010" class="edge">
<title>Node11&#45;&gt;Node10</title>
<g id="a_edge11_Node000011_Node000010"><a xlink:title=" ">
<path fill="none" stroke="#63b8ff" d="M877.5,-109.75C877.5,-102.8 877.5,-92.85 877.5,-84.13"/>
<polygon fill="#63b8ff" stroke="#63b8ff" points="881,-84.09 877.5,-74.09 874,-84.09 881,-84.09"/>
</a>
</g>
</g>
<!-- Node12&#45;&gt;Node10 -->
<g id="edge13_Node000012_Node000010" class="edge">
<title>Node12&#45;&gt;Node10</title>
<g id="a_edge13_Node000012_Node000010"><a xlink:title=" ">
<path fill="none" stroke="#63b8ff" d="M1008.44,-109.98C982.47,-101.16 941.69,-87.31 912.54,-77.41"/>
<polygon fill="#63b8ff" stroke="#63b8ff" points="913.35,-73.99 902.76,-74.08 911.1,-80.61 913.35,-73.99"/>
</a>
</g>
</g>
<!-- Node13&#45;&gt;Node2 -->
<g id="edge15_Node000013_Node000002" class="edge">
<title>Node13&#45;&gt;Node2</title>
<g id="a_edge15_Node000013_Node000002"><a xlink:title=" ">
<path fill="none" stroke="#63b8ff" d="M416.11,-341C471.58,-308.97 593.53,-228.24 538.5,-165 506.35,-128.05 368.8,-120.83 285.18,-119.96"/>
<polygon fill="#63b8ff" stroke="#63b8ff" points="285.03,-116.46 275,-119.88 284.98,-123.46 285.03,-116.46"/>
</a>
</g>
</g>
<!-- Node13&#45;&gt;Node8 -->
<g id="edge35_Node000013_Node000008" class="edge">
<title>Node13&#45;&gt;Node8</title>
<g id="a_edge35_Node000013_Node000008"><a xlink:title=" ">
<path fill="none" stroke="#63b8ff" d="M336.35,-353.99C289.87,-350.59 223.17,-339.42 176.5,-305 98.07,-247.16 58.87,-129.25 46.22,-83.87"/>
<polygon fill="#63b8ff" stroke="#63b8ff" points="49.59,-82.95 43.62,-74.2 42.83,-84.76 49.59,-82.95"/>
</a>
</g>
</g>
<!-- Node14 -->
<g id="Node000014" class="node">
<title>Node14</title>
<g id="a_Node000014"><a xlink:href="errors_8h.html" target="_top" xlink:title="Error types used throughout the math library.">
<polygon fill="white" stroke="#666666" points="633,-129 520,-129 520,-110 633,-110 633,-129"/>
<text text-anchor="middle" x="576.5" y="-117" font-family="Helvetica,sans-Serif" font-size="10.00">math/linalg/errors.h</text>
</a>
</g>
</g>
<!-- Node13&#45;&gt;Node14 -->
<g id="edge16_Node000013_Node000014" class="edge">
<title>Node13&#45;&gt;Node14</title>
<g id="a_edge16_Node000013_Node000014"><a xlink:title=" ">
<path fill="none" stroke="#63b8ff" d="M432.1,-340.96C470.81,-325.42 526.22,-296.27 551.5,-250 571.01,-214.29 575.48,-165.76 576.39,-139.41"/>
<polygon fill="#63b8ff" stroke="#63b8ff" points="579.89,-139.35 576.6,-129.28 572.89,-139.21 579.89,-139.35"/>
</a>
</g>
</g>
<!-- Node15 -->
<g id="Node000015" class="node">
<title>Node15</title>
<g id="a_Node000015"><a xlink:href="matrix_8h.html" target="_top" xlink:title=" ">
<polygon fill="white" stroke="#666666" points="405.5,-250 289.5,-250 289.5,-231 405.5,-231 405.5,-250"/>
<text text-anchor="middle" x="347.5" y="-238" font-family="Helvetica,sans-Serif" font-size="10.00">math/linalg/matrix.h</text>
</a>
</g>
</g>
<!-- Node13&#45;&gt;Node15 -->
<g id="edge17_Node000013_Node000015" class="edge">
<title>Node13&#45;&gt;Node15</title>
<g id="a_edge17_Node000013_Node000015"><a xlink:title=" ">
<path fill="none" stroke="#63b8ff" d="M387.61,-340.95C384.48,-326.79 378.9,-304.45 371.5,-286 367.78,-276.73 362.63,-266.92 358.05,-258.87"/>
<polygon fill="#63b8ff" stroke="#63b8ff" points="360.97,-256.93 352.89,-250.08 354.94,-260.48 360.97,-256.93"/>
</a>
</g>
</g>
<!-- Node21 -->
<g id="Node000021" class="node">
<title>Node21</title>
<g id="a_Node000021"><a xlink:href="vector_8h.html" target="_top" xlink:title=" ">
<polygon fill="white" stroke="#666666" points="362.5,-305 248.5,-305 248.5,-286 362.5,-286 362.5,-305"/>
<text text-anchor="middle" x="305.5" y="-293" font-family="Helvetica,sans-Serif" font-size="10.00">math/linalg/vector.h</text>
</a>
</g>
</g>
<!-- Node13&#45;&gt;Node21 -->
<g id="edge31_Node000013_Node000021" class="edge">
<title>Node13&#45;&gt;Node21</title>
<g id="a_edge31_Node000013_Node000021"><a xlink:title=" ">
<path fill="none" stroke="#63b8ff" d="M369.92,-340.84C356.83,-331.83 339.91,-320.18 326.7,-311.09"/>
<polygon fill="#63b8ff" stroke="#63b8ff" points="328.46,-308.05 318.24,-305.27 324.49,-313.82 328.46,-308.05"/>
</a>
</g>
</g>
<!-- Node22 -->
<g id="Node000022" class="node">
<title>Node22</title>
<g id="a_Node000022"><a xlink:title=" ">
<polygon fill="#e0e0e0" stroke="#999999" points="230,-305 185,-305 185,-286 230,-286 230,-305"/>
<text text-anchor="middle" x="207.5" y="-293" font-family="Helvetica,sans-Serif" font-size="10.00">utility</text>
</a>
</g>
</g>
<!-- Node13&#45;&gt;Node22 -->
<g id="edge36_Node000013_Node000022" class="edge">
<title>Node13&#45;&gt;Node22</title>
<g id="a_edge36_Node000013_Node000022"><a xlink:title=" ">
<path fill="none" stroke="#63b8ff" d="M346.67,-340.99C313.84,-330.5 269.67,-316.37 239.97,-306.88"/>
<polygon fill="#63b8ff" stroke="#63b8ff" points="240.7,-303.44 230.11,-303.73 238.57,-310.11 240.7,-303.44"/>
</a>
</g>
</g>
<!-- Node15&#45;&gt;Node2 -->
<g id="edge18_Node000015_Node000002" class="edge">
<title>Node15&#45;&gt;Node2</title>
<g id="a_edge18_Node000015_Node000002"><a xlink:title=" ">
<path fill="none" stroke="#63b8ff" d="M289.34,-235.86C261.01,-230.8 229.29,-219.54 211.5,-195 199.72,-178.76 205.04,-155.05 211.13,-138.76"/>
<polygon fill="#63b8ff" stroke="#63b8ff" points="214.46,-139.86 215.07,-129.29 208,-137.18 214.46,-139.86"/>
</a>
</g>
</g>
<!-- Node15&#45;&gt;Node8 -->
<g id="edge29_Node000015_Node000008" class="edge">
<title>Node15&#45;&gt;Node8</title>
<g id="a_edge29_Node000015_Node000008"><a xlink:title=" ">
<path fill="none" stroke="#63b8ff" d="M302.98,-230.95C272.64,-223.98 232.18,-212.4 199.5,-195 183.93,-186.71 97.13,-113.09 59.22,-80.69"/>
<polygon fill="#63b8ff" stroke="#63b8ff" points="61.38,-77.94 51.51,-74.09 56.83,-83.25 61.38,-77.94"/>
</a>
</g>
</g>
<!-- Node15&#45;&gt;Node14 -->
<g id="edge25_Node000015_Node000014" class="edge">
<title>Node15&#45;&gt;Node14</title>
<g id="a_edge25_Node000015_Node000014"><a xlink:title=" ">
<path fill="none" stroke="#63b8ff" d="M405.61,-238.54C446.59,-235.08 500.69,-224.59 538.5,-195 556.42,-180.98 566.64,-156.22 571.87,-139.11"/>
<polygon fill="#63b8ff" stroke="#63b8ff" points="575.33,-139.74 574.62,-129.16 568.58,-137.87 575.33,-139.74"/>
</a>
</g>
</g>
<!-- Node16 -->
<g id="Node000016" class="node">
<title>Node16</title>
<g id="a_Node000016"><a xlink:href="matrix__intf_8h.html" target="_top" xlink:title=" ">
<polygon fill="white" stroke="#666666" points="781.5,-195 661.5,-195 661.5,-165 781.5,-165 781.5,-195"/>
<text text-anchor="start" x="669.5" y="-183" font-family="Helvetica,sans-Serif" font-size="10.00">math/linalg/contracts</text>
<text text-anchor="middle" x="721.5" y="-172" font-family="Helvetica,sans-Serif" font-size="10.00">/matrix_intf.h</text>
</a>
</g>
</g>
<!-- Node15&#45;&gt;Node16 -->
<g id="edge19_Node000015_Node000016" class="edge">
<title>Node15&#45;&gt;Node16</title>
<g id="a_edge19_Node000015_Node000016"><a xlink:title=" ">
<path fill="none" stroke="#63b8ff" d="M401.88,-230.99C467.86,-220.67 579.23,-203.25 651.54,-191.94"/>
<polygon fill="#63b8ff" stroke="#63b8ff" points="652.14,-195.39 661.48,-190.39 651.06,-188.48 652.14,-195.39"/>
</a>
</g>
</g>
<!-- Node17 -->
<g id="Node000017" class="node">
<title>Node17</title>
<g id="a_Node000017"><a xlink:href="matrix__types_8h.html" target="_top" xlink:title="Type definitions and enumerations for matrix operations.">
<polygon fill="white" stroke="#666666" points="447,-195 340,-195 340,-165 447,-165 447,-195"/>
<text text-anchor="start" x="348" y="-183" font-family="Helvetica,sans-Serif" font-size="10.00">math/linalg/matrix</text>
<text text-anchor="middle" x="393.5" y="-172" font-family="Helvetica,sans-Serif" font-size="10.00">_types.h</text>
</a>
</g>
</g>
<!-- Node15&#45;&gt;Node17 -->
<g id="edge26_Node000015_Node000017" class="edge">
<title>Node15&#45;&gt;Node17</title>
<g id="a_edge26_Node000015_Node000017"><a xlink:title=" ">
<path fill="none" stroke="#63b8ff" d="M354.29,-230.87C360.01,-223.59 368.45,-212.85 376.04,-203.2"/>
<polygon fill="#63b8ff" stroke="#63b8ff" points="378.97,-205.14 382.4,-195.11 373.47,-200.81 378.97,-205.14"/>
</a>
</g>
</g>
<!-- Node18 -->
<g id="Node000018" class="node">
<title>Node18</title>
<g id="a_Node000018"><a xlink:title=" ">
<polygon fill="#e0e0e0" stroke="#999999" points="529.5,-189.5 465.5,-189.5 465.5,-170.5 529.5,-170.5 529.5,-189.5"/>
<text text-anchor="middle" x="497.5" y="-177.5" font-family="Helvetica,sans-Serif" font-size="10.00">algorithm</text>
</a>
</g>
</g>
<!-- Node15&#45;&gt;Node18 -->
<g id="edge27_Node000015_Node000018" class="edge">
<title>Node15&#45;&gt;Node18</title>
<g id="a_edge27_Node000015_Node000018"><a xlink:title=" ">
<path fill="none" stroke="#63b8ff" d="M369.31,-230.99C394.75,-221.07 437.01,-204.59 466.01,-193.28"/>
<polygon fill="#63b8ff" stroke="#63b8ff" points="467.62,-196.41 475.66,-189.52 465.07,-189.89 467.62,-196.41"/>
</a>
</g>
</g>
<!-- Node19 -->
<g id="Node000019" class="node">
<title>Node19</title>
<g id="a_Node000019"><a xlink:title=" ">
<polygon fill="#e0e0e0" stroke="#999999" points="262.5,-189.5 220.5,-189.5 220.5,-170.5 262.5,-170.5 262.5,-189.5"/>
<text text-anchor="middle" x="241.5" y="-177.5" font-family="Helvetica,sans-Serif" font-size="10.00">array</text>
</a>
</g>
</g>
<!-- Node15&#45;&gt;Node19 -->
<g id="edge28_Node000015_Node000019" class="edge">
<title>Node15&#45;&gt;Node19</title>
<g id="a_edge28_Node000015_Node000019"><a xlink:title=" ">
<path fill="none" stroke="#63b8ff" d="M331.86,-230.87C314.56,-221.32 286.45,-205.81 266.17,-194.62"/>
<polygon fill="#63b8ff" stroke="#63b8ff" points="267.65,-191.43 257.2,-189.67 264.27,-197.56 267.65,-191.43"/>
</a>
</g>
</g>
<!-- Node20 -->
<g id="Node000020" class="node">
<title>Node20</title>
<g id="a_Node000020"><a xlink:title=" ">
<polygon fill="#e0e0e0" stroke="#999999" points="322,-189.5 281,-189.5 281,-170.5 322,-170.5 322,-189.5"/>
<text text-anchor="middle" x="301.5" y="-177.5" font-family="Helvetica,sans-Serif" font-size="10.00">tuple</text>
</a>
</g>
</g>
<!-- Node15&#45;&gt;Node20 -->
<g id="edge30_Node000015_Node000020" class="edge">
<title>Node15&#45;&gt;Node20</title>
<g id="a_edge30_Node000015_Node000020"><a xlink:title=" ">
<path fill="none" stroke="#63b8ff" d="M340.71,-230.87C333.85,-222.14 323.07,-208.43 314.55,-197.59"/>
<polygon fill="#63b8ff" stroke="#63b8ff" points="317.25,-195.36 308.32,-189.67 311.75,-199.69 317.25,-195.36"/>
</a>
</g>
</g>
<!-- Node16&#45;&gt;Node2 -->
<g id="edge20_Node000016_Node000002" class="edge">
<title>Node16&#45;&gt;Node2</title>
<g id="a_edge20_Node000016_Node000002"><a xlink:title=" ">
<path fill="none" stroke="#63b8ff" d="M661.45,-172C566.69,-160.96 383.19,-139.58 285.1,-128.14"/>
<polygon fill="#63b8ff" stroke="#63b8ff" points="285.35,-124.65 275.01,-126.97 284.54,-131.6 285.35,-124.65"/>
</a>
</g>
</g>
<!-- Node16&#45;&gt;Node9 -->
<g id="edge21_Node000016_Node000009" class="edge">
<title>Node16&#45;&gt;Node9</title>
<g id="a_edge21_Node000016_Node000009"><a xlink:title=" ">
<path fill="none" stroke="#63b8ff" d="M721.5,-164.84C721.5,-157.21 721.5,-147.7 721.5,-139.45"/>
<polygon fill="#63b8ff" stroke="#63b8ff" points="725,-139.27 721.5,-129.27 718,-139.27 725,-139.27"/>
</a>
</g>
</g>
<!-- Node16&#45;&gt;Node11 -->
<g id="edge22_Node000016_Node000011" class="edge">
<title>Node16&#45;&gt;Node11</title>
<g id="a_edge22_Node000016_Node000011"><a xlink:title=" ">
<path fill="none" stroke="#63b8ff" d="M758.87,-164.99C785.13,-155.14 819.91,-142.1 845.02,-132.68"/>
<polygon fill="#63b8ff" stroke="#63b8ff" points="846.33,-135.93 854.46,-129.14 843.87,-129.37 846.33,-135.93"/>
</a>
</g>
</g>
<!-- Node16&#45;&gt;Node12 -->
<g id="edge23_Node000016_Node000012" class="edge">
<title>Node16&#45;&gt;Node12</title>
<g id="a_edge23_Node000016_Node000012"><a xlink:title=" ">
<path fill="none" stroke="#63b8ff" d="M781.66,-167.72C838.34,-157.09 922.57,-141.3 977.76,-130.95"/>
<polygon fill="#63b8ff" stroke="#63b8ff" points="978.53,-134.37 987.71,-129.08 977.24,-127.49 978.53,-134.37"/>
</a>
</g>
</g>
<!-- Node16&#45;&gt;Node14 -->
<g id="edge24_Node000016_Node000014" class="edge">
<title>Node16&#45;&gt;Node14</title>
<g id="a_edge24_Node000016_Node000014"><a xlink:title=" ">
<path fill="none" stroke="#63b8ff" d="M686.77,-164.99C662.58,-155.23 630.6,-142.33 607.31,-132.93"/>
<polygon fill="#63b8ff" stroke="#63b8ff" points="608.5,-129.63 597.91,-129.14 605.88,-136.13 608.5,-129.63"/>
</a>
</g>
</g>
<!-- Node21&#45;&gt;Node2 -->
<g id="edge32_Node000021_Node000002" class="edge">
<title>Node21&#45;&gt;Node2</title>
<g id="a_edge32_Node000021_Node000002"><a xlink:title=" ">
<path fill="none" stroke="#63b8ff" d="M290.24,-285.91C265.66,-271.09 218.15,-238.08 199.5,-195 191.38,-176.25 200.05,-153.38 208.37,-137.97"/>
<polygon fill="#63b8ff" stroke="#63b8ff" points="211.57,-139.43 213.61,-129.04 205.53,-135.89 211.57,-139.43"/>
</a>
</g>
</g>
<!-- Node21&#45;&gt;Node8 -->
<g id="edge34_Node000021_Node000008" class="edge">
<title>Node21&#45;&gt;Node8</title>
<g id="a_edge34_Node000021_Node000008"><a xlink:title=" ">
<path fill="none" stroke="#63b8ff" d="M285.59,-285.91C267.63,-277.78 240.84,-264.65 219.5,-250 147.08,-200.29 80.53,-117.57 53.84,-82.28"/>
<polygon fill="#63b8ff" stroke="#63b8ff" points="56.45,-79.93 47.66,-74.01 50.84,-84.12 56.45,-79.93"/>
</a>
</g>
</g>
<!-- Node21&#45;&gt;Node15 -->
<g id="edge33_Node000021_Node000015" class="edge">
<title>Node21&#45;&gt;Node15</title>
<g id="a_edge33_Node000021_Node000015"><a xlink:title=" ">
<path fill="none" stroke="#63b8ff" d="M312.44,-285.75C318.37,-278.26 327.07,-267.28 334.32,-258.13"/>
<polygon fill="#63b8ff" stroke="#63b8ff" points="337.23,-260.1 340.69,-250.09 331.74,-255.75 337.23,-260.1"/>
</a>
</g>
</g>
</g>
</svg>

<g id="navigator" transform="translate(0 0)" fill="#404254">
  <rect fill="#f2f5e9" fill-opacity="0.5" stroke="#606060" stroke-width=".5" x="0" y="0" width="60" height="60"/>
  <use id="zoomplus" xlink:href="#zoomPlus" x="17" y="9" onmousedown="handleZoom(evt,'in')"/>
  <use id="zoomminus" xlink:href="#zoomMin" x="42" y="9" onmousedown="handleZoom(evt,'out')"/>
  <use id="reset" xlink:href="#resetDef" x="30" y="36" onmousedown="handleReset()"/>
   <use id="arrowup" xlink:href="#arrowUp" x="0" y="0" onmousedown="handlePan(0,-1)"/>
  <use id="arrowright" xlink:href="#arrowRight" x="0" y="0" onmousedown="handlePan(1,0)"/>
  <use id="arrowdown" xlink:href="#arrowDown" x="0" y="0" onmousedown="handlePan(0,1)"/>
  <use id="arrowleft" xlink:href="#arrowLeft" x="0" y="0" onmousedown="handlePan(-1,0)"/>
</g>
<svg viewBox="0 0 15 15" width="100%" height="30px" preserveAspectRatio="xMaxYMin meet">
 <g id="arrow_out" transform="scale(0.3 0.3)">
  <a xlink:href="covariance__matrix__intf_8h__incl_org.svg" target="_base">
   <rect id="button" ry="5" rx="5" y="6" x="6" height="38" width="38"
        fill="#f2f5e9" fill-opacity="0.5" stroke="#606060" stroke-width="1.0"/>
   <path id="arrow"
     d="M 11.500037,31.436501 C 11.940474,20.09759 22.043105,11.32322 32.158766,21.979434 L 37.068811,17.246167 C 37.068811,17.246167 37.088388,32 37.088388,32 L 22.160133,31.978069 C 22.160133,31.978069 26.997745,27.140456 26.997745,27.140456 C 18.528582,18.264221 13.291696,25.230495 11.500037,31.436501 z"
     style="fill:#404040;"/>
  </a>
 </g>
</svg>

<style type='text/css'>
<![CDATA[
[data-mouse-over-selected='false'] { opacity: 0.7; }
[data-mouse-over-selected='true']  { opacity: 1.0; }
]]>
</style>
<script type="application/ecmascript"><![CDATA[
document.addEventListener('DOMContentLoaded', (event) => {
  highlightEdges();
  highlightAdjacentNodes();
});
]]></script>
</svg>
