<?xml version="1.0" encoding="UTF-8" standalone="no"?>
<!DOCTYPE svg PUBLIC "-//W3C//DTD SVG 1.1//EN"
 "http://www.w3.org/Graphics/SVG/1.1/DTD/svg11.dtd">
<!-- Generated by graphviz version 2.43.0 (0)
 -->
<!-- Title: include/trackingLib/math/linalg/covariance_matrix_policies.h Pages: 1 -->
<svg width="1338pt" height="588pt"
 viewBox="0.00 0.00 1337.50 588.00" xmlns="http://www.w3.org/2000/svg" xmlns:xlink="http://www.w3.org/1999/xlink">
<g id="graph0" class="graph" transform="scale(1 1) rotate(0) translate(4 584)">
<title>include/trackingLib/math/linalg/covariance_matrix_policies.h</title>
<!-- Node1 -->
<g id="Node000001" class="node">
<title>Node1</title>
<g id="a_Node000001"><a xlink:title=" ">
<polygon fill="#999999" stroke="#666666" points="1170.5,-580 1039.5,-580 1039.5,-539 1170.5,-539 1170.5,-580"/>
<text text-anchor="start" x="1047.5" y="-568" font-family="Helvetica,sans-Serif" font-size="10.00">include/trackingLib</text>
<text text-anchor="start" x="1047.5" y="-557" font-family="Helvetica,sans-Serif" font-size="10.00">/math/linalg/covariance</text>
<text text-anchor="middle" x="1105" y="-546" font-family="Helvetica,sans-Serif" font-size="10.00">_matrix_policies.h</text>
</a>
</g>
</g>
<!-- Node2 -->
<g id="Node000002" class="node">
<title>Node2</title>
<g id="a_Node000002"><a xlink:href="first__include_8h.html" target="_top" xlink:title=" ">
<polygon fill="white" stroke="#666666" points="1162.5,-129 1051.5,-129 1051.5,-110 1162.5,-110 1162.5,-129"/>
<text text-anchor="middle" x="1107" y="-117" font-family="Helvetica,sans-Serif" font-size="10.00">base/first_include.h</text>
</a>
</g>
</g>
<!-- Node1&#45;&gt;Node2 -->
<g id="edge1_Node000001_Node000002" class="edge">
<title>Node1&#45;&gt;Node2</title>
<g id="a_edge1_Node000001_Node000002"><a xlink:title=" ">
<path fill="none" stroke="#63b8ff" d="M1136.22,-538.96C1169.05,-515.72 1216,-473.63 1216,-423 1216,-423 1216,-423 1216,-239.5 1216,-190.54 1165.21,-152.97 1132.97,-134.06"/>
<polygon fill="#63b8ff" stroke="#63b8ff" points="1134.46,-130.88 1124.03,-129.01 1131.02,-136.97 1134.46,-130.88"/>
</a>
</g>
</g>
<!-- Node9 -->
<g id="Node000009" class="node">
<title>Node9</title>
<g id="a_Node000009"><a xlink:href="covariance__matrix__factored_8h.html" target="_top" xlink:title=" ">
<polygon fill="white" stroke="#666666" points="1014,-503 886,-503 886,-473 1014,-473 1014,-503"/>
<text text-anchor="start" x="894" y="-491" font-family="Helvetica,sans-Serif" font-size="10.00">math/linalg/covariance</text>
<text text-anchor="middle" x="950" y="-480" font-family="Helvetica,sans-Serif" font-size="10.00">_matrix_factored.h</text>
</a>
</g>
</g>
<!-- Node1&#45;&gt;Node9 -->
<g id="edge8_Node000001_Node000009" class="edge">
<title>Node1&#45;&gt;Node9</title>
<g id="a_edge8_Node000001_Node000009"><a xlink:title=" ">
<path fill="none" stroke="#63b8ff" d="M1061.41,-538.96C1039.26,-529.02 1012.5,-517.03 990.76,-507.28"/>
<polygon fill="#63b8ff" stroke="#63b8ff" points="992.03,-504.01 981.47,-503.11 989.17,-510.4 992.03,-504.01"/>
</a>
</g>
</g>
<!-- Node26 -->
<g id="Node000026" class="node">
<title>Node26</title>
<g id="a_Node000026"><a xlink:href="covariance__matrix__full_8h.html" target="_top" xlink:title=" ">
<polygon fill="white" stroke="#666666" points="1169,-503 1041,-503 1041,-473 1169,-473 1169,-503"/>
<text text-anchor="start" x="1049" y="-491" font-family="Helvetica,sans-Serif" font-size="10.00">math/linalg/covariance</text>
<text text-anchor="middle" x="1105" y="-480" font-family="Helvetica,sans-Serif" font-size="10.00">_matrix_full.h</text>
</a>
</g>
</g>
<!-- Node1&#45;&gt;Node26 -->
<g id="edge43_Node000001_Node000026" class="edge">
<title>Node1&#45;&gt;Node26</title>
<g id="a_edge43_Node000001_Node000026"><a xlink:title=" ">
<path fill="none" stroke="#63b8ff" d="M1105,-538.77C1105,-530.85 1105,-521.63 1105,-513.3"/>
<polygon fill="#63b8ff" stroke="#63b8ff" points="1108.5,-513.04 1105,-503.04 1101.5,-513.04 1108.5,-513.04"/>
</a>
</g>
</g>
<!-- Node3 -->
<g id="Node000003" class="node">
<title>Node3</title>
<g id="a_Node000003"><a xlink:href="test__config_8h.html" target="_top" xlink:title=" ">
<polygon fill="white" stroke="#666666" points="1329.5,-74 1250.5,-74 1250.5,-55 1329.5,-55 1329.5,-74"/>
<text text-anchor="middle" x="1290" y="-62" font-family="Helvetica,sans-Serif" font-size="10.00">test_config.h</text>
</a>
</g>
</g>
<!-- Node2&#45;&gt;Node3 -->
<g id="edge2_Node000002_Node000003" class="edge">
<title>Node2&#45;&gt;Node3</title>
<g id="a_edge2_Node000002_Node000003"><a xlink:title=" ">
<path fill="none" stroke="#63b8ff" d="M1136.4,-109.98C1167.39,-101.01 1216.38,-86.82 1250.67,-76.89"/>
<polygon fill="#63b8ff" stroke="#63b8ff" points="1251.74,-80.23 1260.37,-74.08 1249.79,-73.5 1251.74,-80.23"/>
</a>
</g>
</g>
<!-- Node4 -->
<g id="Node000004" class="node">
<title>Node4</title>
<g id="a_Node000004"><a xlink:href="atomic__types_8h.html" target="_top" xlink:title=" ">
<polygon fill="white" stroke="#666666" points="1052,-74 960,-74 960,-55 1052,-55 1052,-74"/>
<text text-anchor="middle" x="1006" y="-62" font-family="Helvetica,sans-Serif" font-size="10.00">atomic_types.h</text>
</a>
</g>
</g>
<!-- Node2&#45;&gt;Node4 -->
<g id="edge3_Node000002_Node000004" class="edge">
<title>Node2&#45;&gt;Node4</title>
<g id="a_edge3_Node000002_Node000004"><a xlink:title=" ">
<path fill="none" stroke="#63b8ff" d="M1090.77,-109.98C1074.82,-101.61 1050.22,-88.7 1031.62,-78.95"/>
<polygon fill="#63b8ff" stroke="#63b8ff" points="1033,-75.72 1022.52,-74.17 1029.75,-81.92 1033,-75.72"/>
</a>
</g>
</g>
<!-- Node6 -->
<g id="Node000006" class="node">
<title>Node6</title>
<g id="a_Node000006"><a xlink:title=" ">
<polygon fill="#e0e0e0" stroke="#999999" points="1162,-74 1070,-74 1070,-55 1162,-55 1162,-74"/>
<text text-anchor="middle" x="1116" y="-62" font-family="Helvetica,sans-Serif" font-size="10.00">tl/expected.hpp</text>
</a>
</g>
</g>
<!-- Node2&#45;&gt;Node6 -->
<g id="edge5_Node000002_Node000006" class="edge">
<title>Node2&#45;&gt;Node6</title>
<g id="a_edge5_Node000002_Node000006"><a xlink:title=" ">
<path fill="none" stroke="#63b8ff" d="M1108.49,-109.75C1109.67,-102.8 1111.36,-92.85 1112.84,-84.13"/>
<polygon fill="#63b8ff" stroke="#63b8ff" points="1116.32,-84.53 1114.54,-74.09 1109.42,-83.36 1116.32,-84.53"/>
</a>
</g>
</g>
<!-- Node7 -->
<g id="Node000007" class="node">
<title>Node7</title>
<g id="a_Node000007"><a xlink:title=" ">
<polygon fill="#e0e0e0" stroke="#999999" points="1232,-74 1180,-74 1180,-55 1232,-55 1232,-74"/>
<text text-anchor="middle" x="1206" y="-62" font-family="Helvetica,sans-Serif" font-size="10.00">cassert</text>
</a>
</g>
</g>
<!-- Node2&#45;&gt;Node7 -->
<g id="edge6_Node000002_Node000007" class="edge">
<title>Node2&#45;&gt;Node7</title>
<g id="a_edge6_Node000002_Node000007"><a xlink:title=" ">
<path fill="none" stroke="#63b8ff" d="M1122.91,-109.98C1138.55,-101.61 1162.66,-88.7 1180.88,-78.95"/>
<polygon fill="#63b8ff" stroke="#63b8ff" points="1182.64,-81.98 1189.8,-74.17 1179.34,-75.8 1182.64,-81.98"/>
</a>
</g>
</g>
<!-- Node8 -->
<g id="Node000008" class="node">
<title>Node8</title>
<g id="a_Node000008"><a xlink:title=" ">
<polygon fill="#e0e0e0" stroke="#999999" points="941.5,-74 858.5,-74 858.5,-55 941.5,-55 941.5,-74"/>
<text text-anchor="middle" x="900" y="-62" font-family="Helvetica,sans-Serif" font-size="10.00">initializer_list</text>
</a>
</g>
</g>
<!-- Node2&#45;&gt;Node8 -->
<g id="edge7_Node000002_Node000008" class="edge">
<title>Node2&#45;&gt;Node8</title>
<g id="a_edge7_Node000002_Node000008"><a xlink:title=" ">
<path fill="none" stroke="#63b8ff" d="M1073.74,-109.98C1038.39,-100.93 982.33,-86.58 943.49,-76.64"/>
<polygon fill="#63b8ff" stroke="#63b8ff" points="944.07,-73.17 933.52,-74.08 942.34,-79.95 944.07,-73.17"/>
</a>
</g>
</g>
<!-- Node5 -->
<g id="Node000005" class="node">
<title>Node5</title>
<g id="a_Node000005"><a xlink:title=" ">
<polygon fill="#e0e0e0" stroke="#999999" points="1031,-19 981,-19 981,0 1031,0 1031,-19"/>
<text text-anchor="middle" x="1006" y="-7" font-family="Helvetica,sans-Serif" font-size="10.00">cstdint</text>
</a>
</g>
</g>
<!-- Node4&#45;&gt;Node5 -->
<g id="edge4_Node000004_Node000005" class="edge">
<title>Node4&#45;&gt;Node5</title>
<g id="a_edge4_Node000004_Node000005"><a xlink:title=" ">
<path fill="none" stroke="#63b8ff" d="M1006,-54.75C1006,-47.8 1006,-37.85 1006,-29.13"/>
<polygon fill="#63b8ff" stroke="#63b8ff" points="1009.5,-29.09 1006,-19.09 1002.5,-29.09 1009.5,-29.09"/>
</a>
</g>
</g>
<!-- Node9&#45;&gt;Node2 -->
<g id="edge9_Node000009_Node000002" class="edge">
<title>Node9&#45;&gt;Node2</title>
<g id="a_edge9_Node000009_Node000002"><a xlink:title=" ">
<path fill="none" stroke="#63b8ff" d="M981.51,-472.99C997.54,-464.53 1016.28,-452.39 1029,-437 1101.64,-349.15 1100.8,-308.23 1114,-195 1116.21,-176.08 1113.59,-154.39 1110.95,-139.32"/>
<polygon fill="#63b8ff" stroke="#63b8ff" points="1114.33,-138.39 1109.01,-129.23 1107.46,-139.71 1114.33,-138.39"/>
</a>
</g>
</g>
<!-- Node9&#45;&gt;Node8 -->
<g id="edge41_Node000009_Node000008" class="edge">
<title>Node9&#45;&gt;Node8</title>
<g id="a_edge41_Node000009_Node000008"><a xlink:title=" ">
<path fill="none" stroke="#63b8ff" d="M885.67,-483.07C698.61,-470.79 168,-429.56 168,-357 168,-357 168,-357 168,-179 168,-147.19 162.31,-130.06 187,-110 237.96,-68.6 692.47,-65.24 848.04,-65.32"/>
<polygon fill="#63b8ff" stroke="#63b8ff" points="848.28,-68.82 858.29,-65.33 848.29,-61.82 848.28,-68.82"/>
</a>
</g>
</g>
<!-- Node10 -->
<g id="Node000010" class="node">
<title>Node10</title>
<g id="a_Node000010"><a xlink:href="covariance__matrix__intf_8h.html" target="_top" xlink:title=" ">
<polygon fill="white" stroke="#666666" points="1020,-437 880,-437 880,-407 1020,-407 1020,-437"/>
<text text-anchor="start" x="888" y="-425" font-family="Helvetica,sans-Serif" font-size="10.00">math/linalg/contracts</text>
<text text-anchor="middle" x="950" y="-414" font-family="Helvetica,sans-Serif" font-size="10.00">/covariance_matrix_intf.h</text>
</a>
</g>
</g>
<!-- Node9&#45;&gt;Node10 -->
<g id="edge10_Node000009_Node000010" class="edge">
<title>Node9&#45;&gt;Node10</title>
<g id="a_edge10_Node000009_Node000010"><a xlink:title=" ">
<path fill="none" stroke="#63b8ff" d="M950,-472.8C950,-465.34 950,-455.99 950,-447.41"/>
<polygon fill="#63b8ff" stroke="#63b8ff" points="953.5,-447.16 950,-437.16 946.5,-447.16 953.5,-447.16"/>
</a>
</g>
</g>
<!-- Node25 -->
<g id="Node000025" class="node">
<title>Node25</title>
<g id="a_Node000025"><a xlink:title=" ">
<polygon fill="#e0e0e0" stroke="#999999" points="140,-431.5 80,-431.5 80,-412.5 140,-412.5 140,-431.5"/>
<text text-anchor="middle" x="110" y="-419.5" font-family="Helvetica,sans-Serif" font-size="10.00">iostream</text>
</a>
</g>
</g>
<!-- Node9&#45;&gt;Node25 -->
<g id="edge42_Node000009_Node000025" class="edge">
<title>Node9&#45;&gt;Node25</title>
<g id="a_edge42_Node000009_Node000025"><a xlink:title=" ">
<path fill="none" stroke="#63b8ff" d="M885.92,-485C722.62,-479.59 293.92,-463.24 154,-437 150.51,-436.34 146.9,-435.5 143.33,-434.54"/>
<polygon fill="#63b8ff" stroke="#63b8ff" points="144.06,-431.11 133.48,-431.64 142.08,-437.82 144.06,-431.11"/>
</a>
</g>
</g>
<!-- Node10&#45;&gt;Node2 -->
<g id="edge11_Node000010_Node000002" class="edge">
<title>Node10&#45;&gt;Node2</title>
<g id="a_edge11_Node000010_Node000002"><a xlink:title=" ">
<path fill="none" stroke="#63b8ff" d="M973.73,-406.92C987.89,-397.8 1005.64,-385.04 1019,-371 1083.6,-303.11 1101.1,-185.07 1105.56,-139.34"/>
<polygon fill="#63b8ff" stroke="#63b8ff" points="1109.07,-139.4 1106.45,-129.13 1102.1,-138.79 1109.07,-139.4"/>
</a>
</g>
</g>
<!-- Node11 -->
<g id="Node000011" class="node">
<title>Node11</title>
<g id="a_Node000011"><a xlink:href="interface__contract_8h.html" target="_top" xlink:title=" ">
<polygon fill="white" stroke="#666666" points="140,-129 0,-129 0,-110 140,-110 140,-129"/>
<text text-anchor="middle" x="70" y="-117" font-family="Helvetica,sans-Serif" font-size="10.00">base/interface_contract.h</text>
</a>
</g>
</g>
<!-- Node10&#45;&gt;Node11 -->
<g id="edge12_Node000010_Node000011" class="edge">
<title>Node10&#45;&gt;Node11</title>
<g id="a_edge12_Node000010_Node000011"><a xlink:title=" ">
<path fill="none" stroke="#63b8ff" d="M879.87,-418.98C717.38,-413.84 324.85,-398.71 272,-371 169.42,-317.22 100.51,-186.26 78.01,-138.39"/>
<polygon fill="#63b8ff" stroke="#63b8ff" points="81.06,-136.66 73.7,-129.03 74.7,-139.58 81.06,-136.66"/>
</a>
</g>
</g>
<!-- Node13 -->
<g id="Node000013" class="node">
<title>Node13</title>
<g id="a_Node000013"><a xlink:href="require__copy__intf_8h.html" target="_top" xlink:title=" ">
<polygon fill="white" stroke="#666666" points="332,-129 196,-129 196,-110 332,-110 332,-129"/>
<text text-anchor="middle" x="264" y="-117" font-family="Helvetica,sans-Serif" font-size="10.00">base/require_copy_intf.h</text>
</a>
</g>
</g>
<!-- Node10&#45;&gt;Node13 -->
<g id="edge14_Node000010_Node000013" class="edge">
<title>Node10&#45;&gt;Node13</title>
<g id="a_edge14_Node000010_Node000013"><a xlink:title=" ">
<path fill="none" stroke="#63b8ff" d="M879.98,-419.16C746.93,-414.98 462.62,-402.56 370,-371 312,-351.24 254,-357.77 254,-296.5 254,-296.5 254,-296.5 254,-239.5 254,-203.87 258.51,-162.44 261.47,-139.06"/>
<polygon fill="#63b8ff" stroke="#63b8ff" points="264.94,-139.51 262.77,-129.14 258,-138.6 264.94,-139.51"/>
</a>
</g>
</g>
<!-- Node14 -->
<g id="Node000014" class="node">
<title>Node14</title>
<g id="a_Node000014"><a xlink:href="require__move__intf_8h.html" target="_top" xlink:title=" ">
<polygon fill="white" stroke="#666666" points="490,-129 350,-129 350,-110 490,-110 490,-129"/>
<text text-anchor="middle" x="420" y="-117" font-family="Helvetica,sans-Serif" font-size="10.00">base/require_move_intf.h</text>
</a>
</g>
</g>
<!-- Node10&#45;&gt;Node14 -->
<g id="edge16_Node000010_Node000014" class="edge">
<title>Node10&#45;&gt;Node14</title>
<g id="a_edge16_Node000010_Node000014"><a xlink:title=" ">
<path fill="none" stroke="#63b8ff" d="M879.89,-415.04C710.35,-399.7 292,-355.83 292,-296.5 292,-296.5 292,-296.5 292,-239.5 292,-205.33 288.56,-190.77 311,-165 324.89,-149.04 345.37,-138.72 364.84,-132.07"/>
<polygon fill="#63b8ff" stroke="#63b8ff" points="366.09,-135.35 374.58,-129.01 363.99,-128.67 366.09,-135.35"/>
</a>
</g>
</g>
<!-- Node15 -->
<g id="Node000015" class="node">
<title>Node15</title>
<g id="a_Node000015"><a xlink:href="square__matrix_8h.html" target="_top" xlink:title=" ">
<polygon fill="white" stroke="#666666" points="1010,-371 902,-371 902,-341 1010,-341 1010,-371"/>
<text text-anchor="start" x="910" y="-359" font-family="Helvetica,sans-Serif" font-size="10.00">math/linalg/square</text>
<text text-anchor="middle" x="956" y="-348" font-family="Helvetica,sans-Serif" font-size="10.00">_matrix.h</text>
</a>
</g>
</g>
<!-- Node10&#45;&gt;Node15 -->
<g id="edge18_Node000010_Node000015" class="edge">
<title>Node10&#45;&gt;Node15</title>
<g id="a_edge18_Node000010_Node000015"><a xlink:title=" ">
<path fill="none" stroke="#63b8ff" d="M951.33,-406.8C952.04,-399.26 952.93,-389.78 953.74,-381.13"/>
<polygon fill="#63b8ff" stroke="#63b8ff" points="957.22,-381.45 954.67,-371.16 950.25,-380.79 957.22,-381.45"/>
</a>
</g>
</g>
<!-- Node12 -->
<g id="Node000012" class="node">
<title>Node12</title>
<g id="a_Node000012"><a xlink:title=" ">
<polygon fill="#e0e0e0" stroke="#999999" points="298.5,-74 229.5,-74 229.5,-55 298.5,-55 298.5,-74"/>
<text text-anchor="middle" x="264" y="-62" font-family="Helvetica,sans-Serif" font-size="10.00">type_traits</text>
</a>
</g>
</g>
<!-- Node11&#45;&gt;Node12 -->
<g id="edge13_Node000011_Node000012" class="edge">
<title>Node11&#45;&gt;Node12</title>
<g id="a_edge13_Node000011_Node000012"><a xlink:title=" ">
<path fill="none" stroke="#63b8ff" d="M101.17,-109.98C134.16,-100.97 186.4,-86.7 222.77,-76.76"/>
<polygon fill="#63b8ff" stroke="#63b8ff" points="223.86,-80.09 232.59,-74.08 222.02,-73.34 223.86,-80.09"/>
</a>
</g>
</g>
<!-- Node13&#45;&gt;Node12 -->
<g id="edge15_Node000013_Node000012" class="edge">
<title>Node13&#45;&gt;Node12</title>
<g id="a_edge15_Node000013_Node000012"><a xlink:title=" ">
<path fill="none" stroke="#63b8ff" d="M264,-109.75C264,-102.8 264,-92.85 264,-84.13"/>
<polygon fill="#63b8ff" stroke="#63b8ff" points="267.5,-84.09 264,-74.09 260.5,-84.09 267.5,-84.09"/>
</a>
</g>
</g>
<!-- Node14&#45;&gt;Node12 -->
<g id="edge17_Node000014_Node000012" class="edge">
<title>Node14&#45;&gt;Node12</title>
<g id="a_edge17_Node000014_Node000012"><a xlink:title=" ">
<path fill="none" stroke="#63b8ff" d="M394.94,-109.98C368.97,-101.16 328.19,-87.31 299.04,-77.41"/>
<polygon fill="#63b8ff" stroke="#63b8ff" points="299.85,-73.99 289.26,-74.08 297.6,-80.61 299.85,-73.99"/>
</a>
</g>
</g>
<!-- Node15&#45;&gt;Node2 -->
<g id="edge19_Node000015_Node000002" class="edge">
<title>Node15&#45;&gt;Node2</title>
<g id="a_edge19_Node000015_Node000002"><a xlink:title=" ">
<path fill="none" stroke="#63b8ff" d="M992.51,-340.86C1009.38,-332.67 1028.43,-320.81 1041,-305 1081.59,-253.95 1060.7,-225.53 1085,-165 1088.61,-156 1093.3,-146.32 1097.42,-138.29"/>
<polygon fill="#63b8ff" stroke="#63b8ff" points="1100.65,-139.66 1102.21,-129.18 1094.45,-136.4 1100.65,-139.66"/>
</a>
</g>
</g>
<!-- Node15&#45;&gt;Node8 -->
<g id="edge39_Node000015_Node000008" class="edge">
<title>Node15&#45;&gt;Node8</title>
<g id="a_edge39_Node000015_Node000008"><a xlink:title=" ">
<path fill="none" stroke="#63b8ff" d="M953.53,-340.88C946.91,-303.26 928.05,-197.53 910,-110 908.22,-101.36 906.1,-91.82 904.26,-83.79"/>
<polygon fill="#63b8ff" stroke="#63b8ff" points="907.67,-82.97 902.01,-74.01 900.85,-84.54 907.67,-82.97"/>
</a>
</g>
</g>
<!-- Node16 -->
<g id="Node000016" class="node">
<title>Node16</title>
<g id="a_Node000016"><a xlink:href="errors_8h.html" target="_top" xlink:title="Error types used throughout the math library.">
<polygon fill="white" stroke="#666666" points="621.5,-129 508.5,-129 508.5,-110 621.5,-110 621.5,-129"/>
<text text-anchor="middle" x="565" y="-117" font-family="Helvetica,sans-Serif" font-size="10.00">math/linalg/errors.h</text>
</a>
</g>
</g>
<!-- Node15&#45;&gt;Node16 -->
<g id="edge20_Node000015_Node000016" class="edge">
<title>Node15&#45;&gt;Node16</title>
<g id="a_edge20_Node000015_Node000016"><a xlink:title=" ">
<path fill="none" stroke="#63b8ff" d="M901.68,-354.19C804.39,-349.42 602.51,-323.67 516,-195 508.56,-183.94 510.6,-177.19 516,-165 521.32,-152.97 531.68,-142.8 541.51,-135.24"/>
<polygon fill="#63b8ff" stroke="#63b8ff" points="543.76,-137.93 549.87,-129.27 539.7,-132.23 543.76,-137.93"/>
</a>
</g>
</g>
<!-- Node17 -->
<g id="Node000017" class="node">
<title>Node17</title>
<g id="a_Node000017"><a xlink:href="matrix_8h.html" target="_top" xlink:title=" ">
<polygon fill="white" stroke="#666666" points="818,-250 702,-250 702,-231 818,-231 818,-250"/>
<text text-anchor="middle" x="760" y="-238" font-family="Helvetica,sans-Serif" font-size="10.00">math/linalg/matrix.h</text>
</a>
</g>
</g>
<!-- Node15&#45;&gt;Node17 -->
<g id="edge21_Node000015_Node000017" class="edge">
<title>Node15&#45;&gt;Node17</title>
<g id="a_edge21_Node000015_Node000017"><a xlink:title=" ">
<path fill="none" stroke="#63b8ff" d="M901.71,-344.87C872.01,-337.41 835.72,-324.98 808,-305 791.24,-292.92 777.69,-273.29 769.31,-259.05"/>
<polygon fill="#63b8ff" stroke="#63b8ff" points="772.3,-257.23 764.36,-250.21 766.19,-260.65 772.3,-257.23"/>
</a>
</g>
</g>
<!-- Node23 -->
<g id="Node000023" class="node">
<title>Node23</title>
<g id="a_Node000023"><a xlink:href="vector_8h.html" target="_top" xlink:title=" ">
<polygon fill="white" stroke="#666666" points="931,-305 817,-305 817,-286 931,-286 931,-305"/>
<text text-anchor="middle" x="874" y="-293" font-family="Helvetica,sans-Serif" font-size="10.00">math/linalg/vector.h</text>
</a>
</g>
</g>
<!-- Node15&#45;&gt;Node23 -->
<g id="edge35_Node000015_Node000023" class="edge">
<title>Node15&#45;&gt;Node23</title>
<g id="a_edge35_Node000015_Node000023"><a xlink:title=" ">
<path fill="none" stroke="#63b8ff" d="M936.15,-340.84C923.52,-331.83 907.2,-320.18 894.45,-311.09"/>
<polygon fill="#63b8ff" stroke="#63b8ff" points="896.46,-308.22 886.29,-305.27 892.4,-313.92 896.46,-308.22"/>
</a>
</g>
</g>
<!-- Node24 -->
<g id="Node000024" class="node">
<title>Node24</title>
<g id="a_Node000024"><a xlink:title=" ">
<polygon fill="#e0e0e0" stroke="#999999" points="1032.5,-305 987.5,-305 987.5,-286 1032.5,-286 1032.5,-305"/>
<text text-anchor="middle" x="1010" y="-293" font-family="Helvetica,sans-Serif" font-size="10.00">utility</text>
</a>
</g>
</g>
<!-- Node15&#45;&gt;Node24 -->
<g id="edge40_Node000015_Node000024" class="edge">
<title>Node15&#45;&gt;Node24</title>
<g id="a_edge40_Node000015_Node000024"><a xlink:title=" ">
<path fill="none" stroke="#63b8ff" d="M969.07,-340.84C976.91,-332.35 986.91,-321.52 995.06,-312.69"/>
<polygon fill="#63b8ff" stroke="#63b8ff" points="997.7,-314.99 1001.91,-305.27 992.55,-310.24 997.7,-314.99"/>
</a>
</g>
</g>
<!-- Node17&#45;&gt;Node2 -->
<g id="edge22_Node000017_Node000002" class="edge">
<title>Node17&#45;&gt;Node2</title>
<g id="a_edge22_Node000017_Node000002"><a xlink:title=" ">
<path fill="none" stroke="#63b8ff" d="M784.12,-230.9C831.49,-214.04 935.14,-177.2 971,-165 1004.73,-153.53 1043.34,-140.95 1070.78,-132.1"/>
<polygon fill="#63b8ff" stroke="#63b8ff" points="1071.91,-135.41 1080.36,-129.02 1069.77,-128.75 1071.91,-135.41"/>
</a>
</g>
</g>
<!-- Node17&#45;&gt;Node8 -->
<g id="edge33_Node000017_Node000008" class="edge">
<title>Node17&#45;&gt;Node8</title>
<g id="a_edge33_Node000017_Node000008"><a xlink:title=" ">
<path fill="none" stroke="#63b8ff" d="M791.43,-230.95C811.19,-224.13 835.89,-212.73 852,-195 881.07,-163.01 893,-111.87 897.51,-84.4"/>
<polygon fill="#63b8ff" stroke="#63b8ff" points="901.02,-84.61 899.02,-74.21 894.1,-83.59 901.02,-84.61"/>
</a>
</g>
</g>
<!-- Node17&#45;&gt;Node16 -->
<g id="edge29_Node000017_Node000016" class="edge">
<title>Node17&#45;&gt;Node16</title>
<g id="a_edge29_Node000017_Node000016"><a xlink:title=" ">
<path fill="none" stroke="#63b8ff" d="M701.72,-236.73C639.55,-232.4 547.02,-221.58 525,-195 509.95,-176.83 529.56,-152.12 546.24,-136.23"/>
<polygon fill="#63b8ff" stroke="#63b8ff" points="548.95,-138.51 554.03,-129.21 544.26,-133.31 548.95,-138.51"/>
</a>
</g>
</g>
<!-- Node18 -->
<g id="Node000018" class="node">
<title>Node18</title>
<g id="a_Node000018"><a xlink:href="matrix__intf_8h.html" target="_top" xlink:title=" ">
<polygon fill="white" stroke="#666666" points="440,-195 320,-195 320,-165 440,-165 440,-195"/>
<text text-anchor="start" x="328" y="-183" font-family="Helvetica,sans-Serif" font-size="10.00">math/linalg/contracts</text>
<text text-anchor="middle" x="380" y="-172" font-family="Helvetica,sans-Serif" font-size="10.00">/matrix_intf.h</text>
</a>
</g>
</g>
<!-- Node17&#45;&gt;Node18 -->
<g id="edge23_Node000017_Node000018" class="edge">
<title>Node17&#45;&gt;Node18</title>
<g id="a_edge23_Node000017_Node000018"><a xlink:title=" ">
<path fill="none" stroke="#63b8ff" d="M704.74,-230.99C637.41,-220.63 523.56,-203.1 450.11,-191.79"/>
<polygon fill="#63b8ff" stroke="#63b8ff" points="450.44,-188.3 440.03,-190.24 449.38,-195.22 450.44,-188.3"/>
</a>
</g>
</g>
<!-- Node19 -->
<g id="Node000019" class="node">
<title>Node19</title>
<g id="a_Node000019"><a xlink:href="matrix__types_8h.html" target="_top" xlink:title="Type definitions and enumerations for matrix operations.">
<polygon fill="white" stroke="#666666" points="700.5,-195 593.5,-195 593.5,-165 700.5,-165 700.5,-195"/>
<text text-anchor="start" x="601.5" y="-183" font-family="Helvetica,sans-Serif" font-size="10.00">math/linalg/matrix</text>
<text text-anchor="middle" x="647" y="-172" font-family="Helvetica,sans-Serif" font-size="10.00">_types.h</text>
</a>
</g>
</g>
<!-- Node17&#45;&gt;Node19 -->
<g id="edge30_Node000017_Node000019" class="edge">
<title>Node17&#45;&gt;Node19</title>
<g id="a_edge30_Node000017_Node000019"><a xlink:title=" ">
<path fill="none" stroke="#63b8ff" d="M743.33,-230.87C727.57,-222.71 703.4,-210.2 683.21,-199.75"/>
<polygon fill="#63b8ff" stroke="#63b8ff" points="684.75,-196.6 674.26,-195.11 681.54,-202.82 684.75,-196.6"/>
</a>
</g>
</g>
<!-- Node20 -->
<g id="Node000020" class="node">
<title>Node20</title>
<g id="a_Node000020"><a xlink:title=" ">
<polygon fill="#e0e0e0" stroke="#999999" points="783,-189.5 719,-189.5 719,-170.5 783,-170.5 783,-189.5"/>
<text text-anchor="middle" x="751" y="-177.5" font-family="Helvetica,sans-Serif" font-size="10.00">algorithm</text>
</a>
</g>
</g>
<!-- Node17&#45;&gt;Node20 -->
<g id="edge31_Node000017_Node000020" class="edge">
<title>Node17&#45;&gt;Node20</title>
<g id="a_edge31_Node000017_Node000020"><a xlink:title=" ">
<path fill="none" stroke="#63b8ff" d="M758.67,-230.87C757.41,-222.66 755.47,-210.04 753.85,-199.55"/>
<polygon fill="#63b8ff" stroke="#63b8ff" points="757.31,-199.02 752.33,-189.67 750.39,-200.08 757.31,-199.02"/>
</a>
</g>
</g>
<!-- Node21 -->
<g id="Node000021" class="node">
<title>Node21</title>
<g id="a_Node000021"><a xlink:title=" ">
<polygon fill="#e0e0e0" stroke="#999999" points="843,-189.5 801,-189.5 801,-170.5 843,-170.5 843,-189.5"/>
<text text-anchor="middle" x="822" y="-177.5" font-family="Helvetica,sans-Serif" font-size="10.00">array</text>
</a>
</g>
</g>
<!-- Node17&#45;&gt;Node21 -->
<g id="edge32_Node000017_Node000021" class="edge">
<title>Node17&#45;&gt;Node21</title>
<g id="a_edge32_Node000017_Node000021"><a xlink:title=" ">
<path fill="none" stroke="#63b8ff" d="M769.15,-230.87C778.67,-221.88 793.8,-207.61 805.43,-196.64"/>
<polygon fill="#63b8ff" stroke="#63b8ff" points="807.94,-199.08 812.81,-189.67 803.14,-193.98 807.94,-199.08"/>
</a>
</g>
</g>
<!-- Node22 -->
<g id="Node000022" class="node">
<title>Node22</title>
<g id="a_Node000022"><a xlink:title=" ">
<polygon fill="#e0e0e0" stroke="#999999" points="575.5,-189.5 534.5,-189.5 534.5,-170.5 575.5,-170.5 575.5,-189.5"/>
<text text-anchor="middle" x="555" y="-177.5" font-family="Helvetica,sans-Serif" font-size="10.00">tuple</text>
</a>
</g>
</g>
<!-- Node17&#45;&gt;Node22 -->
<g id="edge34_Node000017_Node000022" class="edge">
<title>Node17&#45;&gt;Node22</title>
<g id="a_edge34_Node000017_Node000022"><a xlink:title=" ">
<path fill="none" stroke="#63b8ff" d="M715.86,-230.93C679.81,-223.32 627.84,-210.94 584,-195 582.95,-194.62 581.89,-194.21 580.82,-193.78"/>
<polygon fill="#63b8ff" stroke="#63b8ff" points="581.88,-190.42 571.31,-189.59 579.05,-196.83 581.88,-190.42"/>
</a>
</g>
</g>
<!-- Node18&#45;&gt;Node2 -->
<g id="edge24_Node000018_Node000002" class="edge">
<title>Node18&#45;&gt;Node2</title>
<g id="a_edge24_Node000018_Node000002"><a xlink:title=" ">
<path fill="none" stroke="#63b8ff" d="M440.29,-172.91C466.34,-170.35 497.16,-167.41 525,-165 712.05,-148.82 933.19,-132.75 1041.11,-125.11"/>
<polygon fill="#63b8ff" stroke="#63b8ff" points="1041.47,-128.59 1051.19,-124.4 1040.97,-121.61 1041.47,-128.59"/>
</a>
</g>
</g>
<!-- Node18&#45;&gt;Node11 -->
<g id="edge25_Node000018_Node000011" class="edge">
<title>Node18&#45;&gt;Node11</title>
<g id="a_edge25_Node000018_Node000011"><a xlink:title=" ">
<path fill="none" stroke="#63b8ff" d="M319.86,-167.65C263.5,-157.02 179.96,-141.25 125.25,-130.93"/>
<polygon fill="#63b8ff" stroke="#63b8ff" points="125.86,-127.48 115.38,-129.06 124.56,-134.36 125.86,-127.48"/>
</a>
</g>
</g>
<!-- Node18&#45;&gt;Node13 -->
<g id="edge26_Node000018_Node000013" class="edge">
<title>Node18&#45;&gt;Node13</title>
<g id="a_edge26_Node000018_Node000013"><a xlink:title=" ">
<path fill="none" stroke="#63b8ff" d="M352.22,-164.99C333.38,-155.49 308.65,-143.02 290.16,-133.69"/>
<polygon fill="#63b8ff" stroke="#63b8ff" points="291.64,-130.52 281.13,-129.14 288.48,-136.77 291.64,-130.52"/>
</a>
</g>
</g>
<!-- Node18&#45;&gt;Node14 -->
<g id="edge27_Node000018_Node000014" class="edge">
<title>Node18&#45;&gt;Node14</title>
<g id="a_edge27_Node000018_Node000014"><a xlink:title=" ">
<path fill="none" stroke="#63b8ff" d="M389.68,-164.84C395.25,-156.69 402.29,-146.4 408.18,-137.78"/>
<polygon fill="#63b8ff" stroke="#63b8ff" points="411.25,-139.5 414.01,-129.27 405.47,-135.55 411.25,-139.5"/>
</a>
</g>
</g>
<!-- Node18&#45;&gt;Node16 -->
<g id="edge28_Node000018_Node000016" class="edge">
<title>Node18&#45;&gt;Node16</title>
<g id="a_edge28_Node000018_Node000016"><a xlink:title=" ">
<path fill="none" stroke="#63b8ff" d="M424.31,-164.99C456.1,-154.94 498.42,-141.55 528.32,-132.1"/>
<polygon fill="#63b8ff" stroke="#63b8ff" points="529.47,-135.41 537.95,-129.05 527.36,-128.73 529.47,-135.41"/>
</a>
</g>
</g>
<!-- Node23&#45;&gt;Node2 -->
<g id="edge36_Node000023_Node000002" class="edge">
<title>Node23&#45;&gt;Node2</title>
<g id="a_edge36_Node000023_Node000002"><a xlink:title=" ">
<path fill="none" stroke="#63b8ff" d="M885.32,-286C912.93,-265.27 985.93,-210.5 1047,-165 1060.43,-155 1075.57,-143.77 1087.28,-135.09"/>
<polygon fill="#63b8ff" stroke="#63b8ff" points="1089.53,-137.78 1095.49,-129.02 1085.37,-132.15 1089.53,-137.78"/>
</a>
</g>
</g>
<!-- Node23&#45;&gt;Node8 -->
<g id="edge38_Node000023_Node000008" class="edge">
<title>Node23&#45;&gt;Node8</title>
<g id="a_edge38_Node000023_Node000008"><a xlink:title=" ">
<path fill="none" stroke="#63b8ff" d="M875.24,-285.9C878.73,-261.42 888.81,-189.22 895,-129 896.54,-114.01 897.86,-96.98 898.75,-84.34"/>
<polygon fill="#63b8ff" stroke="#63b8ff" points="902.26,-84.35 899.45,-74.14 895.28,-83.88 902.26,-84.35"/>
</a>
</g>
</g>
<!-- Node23&#45;&gt;Node17 -->
<g id="edge37_Node000023_Node000017" class="edge">
<title>Node23&#45;&gt;Node17</title>
<g id="a_edge37_Node000023_Node000017"><a xlink:title=" ">
<path fill="none" stroke="#63b8ff" d="M855.68,-285.98C837.34,-277.46 808.89,-264.23 787.77,-254.41"/>
<polygon fill="#63b8ff" stroke="#63b8ff" points="789.19,-251.21 778.65,-250.17 786.24,-257.56 789.19,-251.21"/>
</a>
</g>
</g>
<!-- Node26&#45;&gt;Node2 -->
<g id="edge44_Node000026_Node000002" class="edge">
<title>Node26&#45;&gt;Node2</title>
<g id="a_edge44_Node000026_Node000002"><a xlink:title=" ">
<path fill="none" stroke="#63b8ff" d="M1119.42,-472.87C1140.7,-450.44 1178,-404.37 1178,-357 1178,-357 1178,-357 1178,-239.5 1178,-204.28 1169.82,-194.77 1151,-165 1144.07,-154.03 1134.02,-143.61 1125.28,-135.62"/>
<polygon fill="#63b8ff" stroke="#63b8ff" points="1127.58,-132.97 1117.75,-129.01 1122.96,-138.23 1127.58,-132.97"/>
</a>
</g>
</g>
<!-- Node26&#45;&gt;Node8 -->
<g id="edge47_Node000026_Node000008" class="edge">
<title>Node26&#45;&gt;Node8</title>
<g id="a_edge47_Node000026_Node000008"><a xlink:title=" ">
<path fill="none" stroke="#63b8ff" d="M1121.51,-472.8C1160.31,-437.78 1254,-342.71 1254,-241.5 1254,-241.5 1254,-241.5 1254,-179 1254,-60.85 1022.72,-79.03 952,-73.62"/>
<polygon fill="#63b8ff" stroke="#63b8ff" points="952.07,-70.11 941.75,-72.47 951.29,-77.06 952.07,-70.11"/>
</a>
</g>
</g>
<!-- Node26&#45;&gt;Node10 -->
<g id="edge45_Node000026_Node000010" class="edge">
<title>Node26&#45;&gt;Node10</title>
<g id="a_edge45_Node000026_Node000010"><a xlink:title=" ">
<path fill="none" stroke="#63b8ff" d="M1070.98,-472.95C1048.17,-463.53 1017.92,-451.04 993.38,-440.91"/>
<polygon fill="#63b8ff" stroke="#63b8ff" points="994.51,-437.59 983.94,-437.01 991.84,-444.06 994.51,-437.59"/>
</a>
</g>
</g>
<!-- Node26&#45;&gt;Node15 -->
<g id="edge46_Node000026_Node000015" class="edge">
<title>Node26&#45;&gt;Node15</title>
<g id="a_edge46_Node000026_Node000015"><a xlink:title=" ">
<path fill="none" stroke="#63b8ff" d="M1093.17,-472.84C1078.87,-456.14 1053.64,-428 1029,-407 1016.27,-396.15 1001.17,-385.49 988.01,-376.81"/>
<polygon fill="#63b8ff" stroke="#63b8ff" points="989.56,-373.65 979.26,-371.15 985.75,-379.52 989.56,-373.65"/>
</a>
</g>
</g>
</g>
</svg>
