<?xml version="1.0" encoding="UTF-8" standalone="no"?>
<!DOCTYPE svg PUBLIC "-//W3C//DTD SVG 1.1//EN"
 "http://www.w3.org/Graphics/SVG/1.1/DTD/svg11.dtd">
<!-- Generated by graphviz version 2.43.0 (0)
 -->
<!-- Title: include/trackingLib/math/linalg/covariance_matrix_full.h Pages: 1 -->
<!--zoomable 522 -->

<svg id="main" version="1.1" xmlns="http://www.w3.org/2000/svg" xmlns:xlink="http://www.w3.org/1999/xlink" xml:space="preserve" onload="init(evt)">
<style type="text/css"><![CDATA[
.node, .edge {opacity: 0.7;}
.node.selected, .edge.selected {opacity: 1;}
.edge:hover path { stroke: red; }
.edge:hover polygon { stroke: red; fill: red; }
]]></style>

<defs>
  <circle id="rim" cx="0" cy="0" r="7"/>
  <circle id="rim2" cx="0" cy="0" r="3.5"/>
  <g id="zoomPlus">
    <use xlink:href="#rim" fill="#404040"><set attributeName="fill" to="#808080" begin="zoomplus.mouseover" end="zoomplus.mouseout"/></use>
    <path d="M-4,0h8M0,-4v8" fill="none" stroke="white" stroke-width="1.5" pointer-events="none"/>
  </g>
  <g id="zoomMin">
    <use xlink:href="#rim" fill="#404040"><set attributeName="fill" to="#808080" begin="zoomminus.mouseover" end="zoomminus.mouseout"/></use>
    <path d="M-4,0h8" fill="none" stroke="white" stroke-width="1.5" pointer-events="none"/>
  </g>
  <g id="arrowUp" transform="translate(30 24)">
    <use xlink:href="#rim"/>
    <path pointer-events="none" fill="none" stroke="white" stroke-width="1.5" d="M0,-3.0v7 M-2.5,-0.5L0,-3.0L2.5,-0.5"/>
  </g>
  <g id="arrowRight" transform="rotate(90) translate(36 -43)">
    <use xlink:href="#rim"/>
    <path pointer-events="none" fill="none" stroke="white" stroke-width="1.5" d="M0,-3.0v7 M-2.5,-0.5L0,-3.0L2.5,-0.5"/>
  </g>
  <g id="arrowDown" transform="rotate(180) translate(-30 -48)">
    <use xlink:href="#rim"/>
    <path pointer-events="none" fill="none" stroke="white" stroke-width="1.5" d="M0,-3.0v7 M-2.5,-0.5L0,-3.0L2.5,-0.5"/>
  </g>
  <g id="arrowLeft" transform="rotate(270) translate(-36 17)">
    <use xlink:href="#rim"/>
    <path pointer-events="none" fill="none" stroke="white" stroke-width="1.5" d="M0,-3.0v7 M-2.5,-0.5L0,-3.0L2.5,-0.5"/>
  </g>
  <g id="resetDef">
    <use xlink:href="#rim2" fill="#404040"><set attributeName="fill" to="#808080" begin="reset.mouseover" end="reset.mouseout"/></use>
  </g>
</defs>
<script type="application/ecmascript">
var viewWidth = 1157;
var viewHeight = 522;
var sectionId = 'dynsection-0';
</script>
<script type="application/ecmascript" xlink:href="svg.min.js"/>
<svg id="graph" class="graph">
<g id="viewport">
<title>include/trackingLib/math/linalg/covariance_matrix_full.h</title>
<!-- Node1 -->
<g id="Node000001" class="node">
<title>Node1</title>
<g id="a_Node000001"><a xlink:title=" ">
<polygon fill="#999999" stroke="#666666" points="661.5,-514 530.5,-514 530.5,-473 661.5,-473 661.5,-514"/>
<text text-anchor="start" x="538.5" y="-502" font-family="Helvetica,sans-Serif" font-size="10.00">include/trackingLib</text>
<text text-anchor="start" x="538.5" y="-491" font-family="Helvetica,sans-Serif" font-size="10.00">/math/linalg/covariance</text>
<text text-anchor="middle" x="596" y="-480" font-family="Helvetica,sans-Serif" font-size="10.00">_matrix_full.h</text>
</a>
</g>
</g>
<!-- Node2 -->
<g id="Node000002" class="node">
<title>Node2</title>
<g id="a_Node000002"><a xlink:href="first__include_8h.html" target="_top" xlink:title=" ">
<polygon fill="white" stroke="#666666" points="678.5,-129 567.5,-129 567.5,-110 678.5,-110 678.5,-129"/>
<text text-anchor="middle" x="623" y="-117" font-family="Helvetica,sans-Serif" font-size="10.00">base/first_include.h</text>
</a>
</g>
</g>
<!-- Node1&#45;&gt;Node2 -->
<g id="edge1_Node000001_Node000002" class="edge">
<title>Node1&#45;&gt;Node2</title>
<g id="a_edge1_Node000001_Node000002"><a xlink:title=" ">
<path fill="none" stroke="#63b8ff" d="M614.8,-472.72C636.43,-447.8 669,-402.69 669,-357 669,-357 669,-357 669,-239.5 669,-201.1 647.91,-160.14 634.29,-137.7"/>
<polygon fill="#63b8ff" stroke="#63b8ff" points="637.11,-135.62 628.83,-129.02 631.19,-139.34 637.11,-135.62"/>
</a>
</g>
</g>
<!-- Node8 -->
<g id="Node000008" class="node">
<title>Node8</title>
<g id="a_Node000008"><a xlink:title=" ">
<polygon fill="#e0e0e0" stroke="#999999" points="117.5,-74 34.5,-74 34.5,-55 117.5,-55 117.5,-74"/>
<text text-anchor="middle" x="76" y="-62" font-family="Helvetica,sans-Serif" font-size="10.00">initializer_list</text>
</a>
</g>
</g>
<!-- Node1&#45;&gt;Node8 -->
<g id="edge40_Node000001_Node000008" class="edge">
<title>Node1&#45;&gt;Node8</title>
<g id="a_edge40_Node000001_Node000008"><a xlink:title=" ">
<path fill="none" stroke="#63b8ff" d="M530.23,-491.34C375.23,-486.83 0,-464.77 0,-357 0,-357 0,-357 0,-179 0,-138.03 34.62,-100.66 57.13,-80.69"/>
<polygon fill="#63b8ff" stroke="#63b8ff" points="59.46,-83.31 64.79,-74.15 54.91,-77.99 59.46,-83.31"/>
</a>
</g>
</g>
<!-- Node9 -->
<g id="Node000009" class="node">
<title>Node9</title>
<g id="a_Node000009"><a xlink:href="covariance__matrix__intf_8h.html" target="_top" xlink:title=" ">
<polygon fill="white" stroke="#666666" points="895,-437 755,-437 755,-407 895,-407 895,-437"/>
<text text-anchor="start" x="763" y="-425" font-family="Helvetica,sans-Serif" font-size="10.00">math/linalg/contracts</text>
<text text-anchor="middle" x="825" y="-414" font-family="Helvetica,sans-Serif" font-size="10.00">/covariance_matrix_intf.h</text>
</a>
</g>
</g>
<!-- Node1&#45;&gt;Node9 -->
<g id="edge8_Node000001_Node000009" class="edge">
<title>Node1&#45;&gt;Node9</title>
<g id="a_edge8_Node000001_Node000009"><a xlink:title=" ">
<path fill="none" stroke="#63b8ff" d="M660.4,-472.96C694.57,-462.59 736.15,-449.97 768.97,-440"/>
<polygon fill="#63b8ff" stroke="#63b8ff" points="770.31,-443.26 778.86,-437 768.27,-436.56 770.31,-443.26"/>
</a>
</g>
</g>
<!-- Node14 -->
<g id="Node000014" class="node">
<title>Node14</title>
<g id="a_Node000014"><a xlink:href="square__matrix_8h.html" target="_top" xlink:title=" ">
<polygon fill="white" stroke="#666666" points="362,-371 254,-371 254,-341 362,-341 362,-371"/>
<text text-anchor="start" x="262" y="-359" font-family="Helvetica,sans-Serif" font-size="10.00">math/linalg/square</text>
<text text-anchor="middle" x="308" y="-348" font-family="Helvetica,sans-Serif" font-size="10.00">_matrix.h</text>
</a>
</g>
</g>
<!-- Node1&#45;&gt;Node14 -->
<g id="edge39_Node000001_Node000014" class="edge">
<title>Node1&#45;&gt;Node14</title>
<g id="a_edge39_Node000001_Node000014"><a xlink:title=" ">
<path fill="none" stroke="#63b8ff" d="M554.43,-472.94C499.03,-446.88 401.69,-401.08 347.41,-375.54"/>
<polygon fill="#63b8ff" stroke="#63b8ff" points="348.65,-372.26 338.11,-371.17 345.67,-378.59 348.65,-372.26"/>
</a>
</g>
</g>
<!-- Node3 -->
<g id="Node000003" class="node">
<title>Node3</title>
<g id="a_Node000003"><a xlink:href="test__config_8h.html" target="_top" xlink:title=" ">
<polygon fill="white" stroke="#666666" points="602.5,-74 523.5,-74 523.5,-55 602.5,-55 602.5,-74"/>
<text text-anchor="middle" x="563" y="-62" font-family="Helvetica,sans-Serif" font-size="10.00">test_config.h</text>
</a>
</g>
</g>
<!-- Node2&#45;&gt;Node3 -->
<g id="edge2_Node000002_Node000003" class="edge">
<title>Node2&#45;&gt;Node3</title>
<g id="a_edge2_Node000002_Node000003"><a xlink:title=" ">
<path fill="none" stroke="#63b8ff" d="M613.36,-109.98C604.49,-102.15 591.13,-90.34 580.39,-80.86"/>
<polygon fill="#63b8ff" stroke="#63b8ff" points="582.63,-78.17 572.82,-74.17 577.99,-83.41 582.63,-78.17"/>
</a>
</g>
</g>
<!-- Node4 -->
<g id="Node000004" class="node">
<title>Node4</title>
<g id="a_Node000004"><a xlink:href="atomic__types_8h.html" target="_top" xlink:title=" ">
<polygon fill="white" stroke="#666666" points="713,-74 621,-74 621,-55 713,-55 713,-74"/>
<text text-anchor="middle" x="667" y="-62" font-family="Helvetica,sans-Serif" font-size="10.00">atomic_types.h</text>
</a>
</g>
</g>
<!-- Node2&#45;&gt;Node4 -->
<g id="edge3_Node000002_Node000004" class="edge">
<title>Node2&#45;&gt;Node4</title>
<g id="a_edge3_Node000002_Node000004"><a xlink:title=" ">
<path fill="none" stroke="#63b8ff" d="M630.27,-109.75C636.54,-102.18 645.79,-91.05 653.43,-81.84"/>
<polygon fill="#63b8ff" stroke="#63b8ff" points="656.17,-84.02 659.87,-74.09 650.79,-79.55 656.17,-84.02"/>
</a>
</g>
</g>
<!-- Node6 -->
<g id="Node000006" class="node">
<title>Node6</title>
<g id="a_Node000006"><a xlink:title=" ">
<polygon fill="#e0e0e0" stroke="#999999" points="823,-74 731,-74 731,-55 823,-55 823,-74"/>
<text text-anchor="middle" x="777" y="-62" font-family="Helvetica,sans-Serif" font-size="10.00">tl/expected.hpp</text>
</a>
</g>
</g>
<!-- Node2&#45;&gt;Node6 -->
<g id="edge5_Node000002_Node000006" class="edge">
<title>Node2&#45;&gt;Node6</title>
<g id="a_edge5_Node000002_Node000006"><a xlink:title=" ">
<path fill="none" stroke="#63b8ff" d="M647.74,-109.98C673.37,-101.16 713.63,-87.31 742.41,-77.41"/>
<polygon fill="#63b8ff" stroke="#63b8ff" points="743.75,-80.65 752.06,-74.08 741.47,-74.03 743.75,-80.65"/>
</a>
</g>
</g>
<!-- Node7 -->
<g id="Node000007" class="node">
<title>Node7</title>
<g id="a_Node000007"><a xlink:title=" ">
<polygon fill="#e0e0e0" stroke="#999999" points="505,-74 453,-74 453,-55 505,-55 505,-74"/>
<text text-anchor="middle" x="479" y="-62" font-family="Helvetica,sans-Serif" font-size="10.00">cassert</text>
</a>
</g>
</g>
<!-- Node2&#45;&gt;Node7 -->
<g id="edge6_Node000002_Node000007" class="edge">
<title>Node2&#45;&gt;Node7</title>
<g id="a_edge6_Node000002_Node000007"><a xlink:title=" ">
<path fill="none" stroke="#63b8ff" d="M599.86,-109.98C576.18,-101.27 539.13,-87.63 512.29,-77.75"/>
<polygon fill="#63b8ff" stroke="#63b8ff" points="513.15,-74.34 502.56,-74.17 510.73,-80.91 513.15,-74.34"/>
</a>
</g>
</g>
<!-- Node2&#45;&gt;Node8 -->
<g id="edge7_Node000002_Node000008" class="edge">
<title>Node2&#45;&gt;Node8</title>
<g id="a_edge7_Node000002_Node000008"><a xlink:title=" ">
<path fill="none" stroke="#63b8ff" d="M567.29,-113.1C461.07,-102.81 231,-80.52 127.86,-70.52"/>
<polygon fill="#63b8ff" stroke="#63b8ff" points="127.98,-67.02 117.69,-69.54 127.31,-73.99 127.98,-67.02"/>
</a>
</g>
</g>
<!-- Node5 -->
<g id="Node000005" class="node">
<title>Node5</title>
<g id="a_Node000005"><a xlink:title=" ">
<polygon fill="#e0e0e0" stroke="#999999" points="692,-19 642,-19 642,0 692,0 692,-19"/>
<text text-anchor="middle" x="667" y="-7" font-family="Helvetica,sans-Serif" font-size="10.00">cstdint</text>
</a>
</g>
</g>
<!-- Node4&#45;&gt;Node5 -->
<g id="edge4_Node000004_Node000005" class="edge">
<title>Node4&#45;&gt;Node5</title>
<g id="a_edge4_Node000004_Node000005"><a xlink:title=" ">
<path fill="none" stroke="#63b8ff" d="M667,-54.75C667,-47.8 667,-37.85 667,-29.13"/>
<polygon fill="#63b8ff" stroke="#63b8ff" points="670.5,-29.09 667,-19.09 663.5,-29.09 670.5,-29.09"/>
</a>
</g>
</g>
<!-- Node9&#45;&gt;Node2 -->
<g id="edge9_Node000009_Node000002" class="edge">
<title>Node9&#45;&gt;Node2</title>
<g id="a_edge9_Node000009_Node000002"><a xlink:title=" ">
<path fill="none" stroke="#63b8ff" d="M796.74,-406.98C761.83,-387.44 707,-348.47 707,-296.5 707,-296.5 707,-296.5 707,-239.5 707,-204.71 703.27,-193.27 683,-165 674.03,-152.49 660.47,-142.01 648.51,-134.37"/>
<polygon fill="#63b8ff" stroke="#63b8ff" points="650.15,-131.27 639.78,-129.09 646.53,-137.26 650.15,-131.27"/>
</a>
</g>
</g>
<!-- Node10 -->
<g id="Node000010" class="node">
<title>Node10</title>
<g id="a_Node000010"><a xlink:href="interface__contract_8h.html" target="_top" xlink:title=" ">
<polygon fill="white" stroke="#666666" points="1149,-129 1009,-129 1009,-110 1149,-110 1149,-129"/>
<text text-anchor="middle" x="1079" y="-117" font-family="Helvetica,sans-Serif" font-size="10.00">base/interface_contract.h</text>
</a>
</g>
</g>
<!-- Node9&#45;&gt;Node10 -->
<g id="edge10_Node000009_Node000010" class="edge">
<title>Node9&#45;&gt;Node10</title>
<g id="a_edge10_Node000009_Node000010"><a xlink:title=" ">
<path fill="none" stroke="#63b8ff" d="M892.31,-406.96C948.34,-390.88 1019,-358.33 1019,-296.5 1019,-296.5 1019,-296.5 1019,-239.5 1019,-199.24 1046.73,-158.72 1064.48,-136.91"/>
<polygon fill="#63b8ff" stroke="#63b8ff" points="1067.38,-138.9 1071.16,-129 1062.03,-134.39 1067.38,-138.9"/>
</a>
</g>
</g>
<!-- Node12 -->
<g id="Node000012" class="node">
<title>Node12</title>
<g id="a_Node000012"><a xlink:href="require__copy__intf_8h.html" target="_top" xlink:title=" ">
<polygon fill="white" stroke="#666666" points="833,-129 697,-129 697,-110 833,-110 833,-129"/>
<text text-anchor="middle" x="765" y="-117" font-family="Helvetica,sans-Serif" font-size="10.00">base/require_copy_intf.h</text>
</a>
</g>
</g>
<!-- Node9&#45;&gt;Node12 -->
<g id="edge12_Node000009_Node000012" class="edge">
<title>Node9&#45;&gt;Node12</title>
<g id="a_edge12_Node000009_Node000012"><a xlink:title=" ">
<path fill="none" stroke="#63b8ff" d="M836.74,-406.68C853.68,-384.52 883,-339.9 883,-296.5 883,-296.5 883,-296.5 883,-239.5 883,-205.33 885.99,-191.16 864,-165 850.95,-149.47 831.36,-139.13 813.05,-132.37"/>
<polygon fill="#63b8ff" stroke="#63b8ff" points="813.94,-128.97 803.35,-129.06 811.68,-135.6 813.94,-128.97"/>
</a>
</g>
</g>
<!-- Node13 -->
<g id="Node000013" class="node">
<title>Node13</title>
<g id="a_Node000013"><a xlink:href="require__move__intf_8h.html" target="_top" xlink:title=" ">
<polygon fill="white" stroke="#666666" points="991,-129 851,-129 851,-110 991,-110 991,-129"/>
<text text-anchor="middle" x="921" y="-117" font-family="Helvetica,sans-Serif" font-size="10.00">base/require_move_intf.h</text>
</a>
</g>
</g>
<!-- Node9&#45;&gt;Node13 -->
<g id="edge14_Node000009_Node000013" class="edge">
<title>Node9&#45;&gt;Node13</title>
<g id="a_edge14_Node000009_Node000013"><a xlink:title=" ">
<path fill="none" stroke="#63b8ff" d="M846.31,-406.9C874.59,-386.3 921,-345.08 921,-296.5 921,-296.5 921,-296.5 921,-239.5 921,-204.15 921,-162.9 921,-139.42"/>
<polygon fill="#63b8ff" stroke="#63b8ff" points="924.5,-139.16 921,-129.16 917.5,-139.16 924.5,-139.16"/>
</a>
</g>
</g>
<!-- Node9&#45;&gt;Node14 -->
<g id="edge16_Node000009_Node000014" class="edge">
<title>Node9&#45;&gt;Node14</title>
<g id="a_edge16_Node000009_Node000014"><a xlink:title=" ">
<path fill="none" stroke="#63b8ff" d="M754.74,-412.3C653.94,-399.82 469.75,-377.02 372.35,-364.97"/>
<polygon fill="#63b8ff" stroke="#63b8ff" points="372.69,-361.48 362.34,-363.73 371.83,-368.43 372.69,-361.48"/>
</a>
</g>
</g>
<!-- Node11 -->
<g id="Node000011" class="node">
<title>Node11</title>
<g id="a_Node000011"><a xlink:title=" ">
<polygon fill="#e0e0e0" stroke="#999999" points="955.5,-74 886.5,-74 886.5,-55 955.5,-55 955.5,-74"/>
<text text-anchor="middle" x="921" y="-62" font-family="Helvetica,sans-Serif" font-size="10.00">type_traits</text>
</a>
</g>
</g>
<!-- Node10&#45;&gt;Node11 -->
<g id="edge11_Node000010_Node000011" class="edge">
<title>Node10&#45;&gt;Node11</title>
<g id="a_edge11_Node000010_Node000011"><a xlink:title=" ">
<path fill="none" stroke="#63b8ff" d="M1053.61,-109.98C1027.2,-101.13 985.65,-87.19 956.11,-77.28"/>
<polygon fill="#63b8ff" stroke="#63b8ff" points="957.18,-73.94 946.58,-74.08 954.95,-80.58 957.18,-73.94"/>
</a>
</g>
</g>
<!-- Node12&#45;&gt;Node11 -->
<g id="edge13_Node000012_Node000011" class="edge">
<title>Node12&#45;&gt;Node11</title>
<g id="a_edge13_Node000012_Node000011"><a xlink:title=" ">
<path fill="none" stroke="#63b8ff" d="M790.06,-109.98C816.03,-101.16 856.81,-87.31 885.96,-77.41"/>
<polygon fill="#63b8ff" stroke="#63b8ff" points="887.4,-80.61 895.74,-74.08 885.15,-73.99 887.4,-80.61"/>
</a>
</g>
</g>
<!-- Node13&#45;&gt;Node11 -->
<g id="edge15_Node000013_Node000011" class="edge">
<title>Node13&#45;&gt;Node11</title>
<g id="a_edge15_Node000013_Node000011"><a xlink:title=" ">
<path fill="none" stroke="#63b8ff" d="M921,-109.75C921,-102.8 921,-92.85 921,-84.13"/>
<polygon fill="#63b8ff" stroke="#63b8ff" points="924.5,-84.09 921,-74.09 917.5,-84.09 924.5,-84.09"/>
</a>
</g>
</g>
<!-- Node14&#45;&gt;Node2 -->
<g id="edge17_Node000014_Node000002" class="edge">
<title>Node14&#45;&gt;Node2</title>
<g id="a_edge17_Node000014_Node000002"><a xlink:title=" ">
<path fill="none" stroke="#63b8ff" d="M357.74,-340.97C423.12,-319.98 537.12,-274.15 601,-195 613.94,-178.97 619.27,-155.55 621.46,-139.26"/>
<polygon fill="#63b8ff" stroke="#63b8ff" points="624.95,-139.62 622.54,-129.3 617.99,-138.87 624.95,-139.62"/>
</a>
</g>
</g>
<!-- Node14&#45;&gt;Node8 -->
<g id="edge37_Node000014_Node000008" class="edge">
<title>Node14&#45;&gt;Node8</title>
<g id="a_edge37_Node000014_Node000008"><a xlink:title=" ">
<path fill="none" stroke="#63b8ff" d="M253.69,-355.24C174.84,-352.42 38,-334.17 38,-241.5 38,-241.5 38,-241.5 38,-179 38,-143.48 54.94,-104.79 66.2,-83"/>
<polygon fill="#63b8ff" stroke="#63b8ff" points="69.39,-84.47 71.03,-74 63.22,-81.16 69.39,-84.47"/>
</a>
</g>
</g>
<!-- Node15 -->
<g id="Node000015" class="node">
<title>Node15</title>
<g id="a_Node000015"><a xlink:href="errors_8h.html" target="_top" xlink:title="Error types used throughout the math library.">
<polygon fill="white" stroke="#666666" points="284.5,-129 171.5,-129 171.5,-110 284.5,-110 284.5,-129"/>
<text text-anchor="middle" x="228" y="-117" font-family="Helvetica,sans-Serif" font-size="10.00">math/linalg/errors.h</text>
</a>
</g>
</g>
<!-- Node14&#45;&gt;Node15 -->
<g id="edge18_Node000014_Node000015" class="edge">
<title>Node14&#45;&gt;Node15</title>
<g id="a_edge18_Node000014_Node000015"><a xlink:title=" ">
<path fill="none" stroke="#63b8ff" d="M253.83,-344.86C231.35,-337.69 207.42,-325.53 194,-305 159.3,-251.89 197.08,-172.8 217.14,-138"/>
<polygon fill="#63b8ff" stroke="#63b8ff" points="220.36,-139.44 222.48,-129.06 214.35,-135.85 220.36,-139.44"/>
</a>
</g>
</g>
<!-- Node16 -->
<g id="Node000016" class="node">
<title>Node16</title>
<g id="a_Node000016"><a xlink:href="matrix_8h.html" target="_top" xlink:title=" ">
<polygon fill="white" stroke="#666666" points="421,-250 305,-250 305,-231 421,-231 421,-250"/>
<text text-anchor="middle" x="363" y="-238" font-family="Helvetica,sans-Serif" font-size="10.00">math/linalg/matrix.h</text>
</a>
</g>
</g>
<!-- Node14&#45;&gt;Node16 -->
<g id="edge19_Node000014_Node000016" class="edge">
<title>Node14&#45;&gt;Node16</title>
<g id="a_edge19_Node000014_Node000016"><a xlink:title=" ">
<path fill="none" stroke="#63b8ff" d="M314.97,-340.63C324.99,-319.93 343.48,-281.78 354.36,-259.32"/>
<polygon fill="#63b8ff" stroke="#63b8ff" points="357.56,-260.75 358.77,-250.23 351.26,-257.7 357.56,-260.75"/>
</a>
</g>
</g>
<!-- Node22 -->
<g id="Node000022" class="node">
<title>Node22</title>
<g id="a_Node000022"><a xlink:href="vector_8h.html" target="_top" xlink:title=" ">
<polygon fill="white" stroke="#666666" points="317,-305 203,-305 203,-286 317,-286 317,-305"/>
<text text-anchor="middle" x="260" y="-293" font-family="Helvetica,sans-Serif" font-size="10.00">math/linalg/vector.h</text>
</a>
</g>
</g>
<!-- Node14&#45;&gt;Node22 -->
<g id="edge33_Node000014_Node000022" class="edge">
<title>Node14&#45;&gt;Node22</title>
<g id="a_edge33_Node000014_Node000022"><a xlink:title=" ">
<path fill="none" stroke="#63b8ff" d="M296.38,-340.84C289.56,-332.52 280.89,-321.96 273.73,-313.23"/>
<polygon fill="#63b8ff" stroke="#63b8ff" points="276.24,-310.78 267.19,-305.27 270.83,-315.22 276.24,-310.78"/>
</a>
</g>
</g>
<!-- Node23 -->
<g id="Node000023" class="node">
<title>Node23</title>
<g id="a_Node000023"><a xlink:title=" ">
<polygon fill="#e0e0e0" stroke="#999999" points="123.5,-305 78.5,-305 78.5,-286 123.5,-286 123.5,-305"/>
<text text-anchor="middle" x="101" y="-293" font-family="Helvetica,sans-Serif" font-size="10.00">utility</text>
</a>
</g>
</g>
<!-- Node14&#45;&gt;Node23 -->
<g id="edge38_Node000014_Node000023" class="edge">
<title>Node14&#45;&gt;Node23</title>
<g id="a_edge38_Node000014_Node000023"><a xlink:title=" ">
<path fill="none" stroke="#63b8ff" d="M258.42,-340.99C219.61,-330.02 166.78,-315.09 133.28,-305.62"/>
<polygon fill="#63b8ff" stroke="#63b8ff" points="134.11,-302.22 123.54,-302.87 132.21,-308.96 134.11,-302.22"/>
</a>
</g>
</g>
<!-- Node16&#45;&gt;Node2 -->
<g id="edge20_Node000016_Node000002" class="edge">
<title>Node16&#45;&gt;Node2</title>
<g id="a_edge20_Node000016_Node000002"><a xlink:title=" ">
<path fill="none" stroke="#63b8ff" d="M421.38,-238.97C466.56,-235.94 528.84,-225.79 574,-195 594.34,-181.13 608.31,-155.75 615.99,-138.51"/>
<polygon fill="#63b8ff" stroke="#63b8ff" points="619.33,-139.58 619.95,-129 612.87,-136.89 619.33,-139.58"/>
</a>
</g>
</g>
<!-- Node16&#45;&gt;Node8 -->
<g id="edge31_Node000016_Node000008" class="edge">
<title>Node16&#45;&gt;Node8</title>
<g id="a_edge31_Node000016_Node000008"><a xlink:title=" ">
<path fill="none" stroke="#63b8ff" d="M324.71,-230.95C297,-223.78 259.25,-211.98 229,-195 172.07,-163.04 116.42,-108.38 90.74,-81.45"/>
<polygon fill="#63b8ff" stroke="#63b8ff" points="93.17,-78.93 83.77,-74.04 88.07,-83.72 93.17,-78.93"/>
</a>
</g>
</g>
<!-- Node16&#45;&gt;Node15 -->
<g id="edge27_Node000016_Node000015" class="edge">
<title>Node16&#45;&gt;Node15</title>
<g id="a_edge27_Node000016_Node000015"><a xlink:title=" ">
<path fill="none" stroke="#63b8ff" d="M312.08,-230.98C289.23,-224.68 263.7,-213.77 247,-195 233.3,-179.61 229.22,-155.69 228.13,-139.12"/>
<polygon fill="#63b8ff" stroke="#63b8ff" points="231.62,-138.9 227.78,-129.02 224.63,-139.14 231.62,-138.9"/>
</a>
</g>
</g>
<!-- Node17 -->
<g id="Node000017" class="node">
<title>Node17</title>
<g id="a_Node000017"><a xlink:href="matrix__intf_8h.html" target="_top" xlink:title=" ">
<polygon fill="white" stroke="#666666" points="855,-195 735,-195 735,-165 855,-165 855,-195"/>
<text text-anchor="start" x="743" y="-183" font-family="Helvetica,sans-Serif" font-size="10.00">math/linalg/contracts</text>
<text text-anchor="middle" x="795" y="-172" font-family="Helvetica,sans-Serif" font-size="10.00">/matrix_intf.h</text>
</a>
</g>
</g>
<!-- Node16&#45;&gt;Node17 -->
<g id="edge21_Node000016_Node000017" class="edge">
<title>Node16&#45;&gt;Node17</title>
<g id="a_edge21_Node000016_Node000017"><a xlink:title=" ">
<path fill="none" stroke="#63b8ff" d="M421.26,-231.61C500.05,-220.94 640.4,-201.94 724.87,-190.5"/>
<polygon fill="#63b8ff" stroke="#63b8ff" points="725.45,-193.95 734.89,-189.14 724.51,-187.01 725.45,-193.95"/>
</a>
</g>
</g>
<!-- Node18 -->
<g id="Node000018" class="node">
<title>Node18</title>
<g id="a_Node000018"><a xlink:href="matrix__types_8h.html" target="_top" xlink:title="Type definitions and enumerations for matrix operations.">
<polygon fill="white" stroke="#666666" points="422.5,-195 315.5,-195 315.5,-165 422.5,-165 422.5,-195"/>
<text text-anchor="start" x="323.5" y="-183" font-family="Helvetica,sans-Serif" font-size="10.00">math/linalg/matrix</text>
<text text-anchor="middle" x="369" y="-172" font-family="Helvetica,sans-Serif" font-size="10.00">_types.h</text>
</a>
</g>
</g>
<!-- Node16&#45;&gt;Node18 -->
<g id="edge28_Node000016_Node000018" class="edge">
<title>Node16&#45;&gt;Node18</title>
<g id="a_edge28_Node000016_Node000018"><a xlink:title=" ">
<path fill="none" stroke="#63b8ff" d="M363.89,-230.87C364.58,-224.11 365.58,-214.35 366.51,-205.26"/>
<polygon fill="#63b8ff" stroke="#63b8ff" points="370.01,-205.42 367.55,-195.11 363.05,-204.71 370.01,-205.42"/>
</a>
</g>
</g>
<!-- Node19 -->
<g id="Node000019" class="node">
<title>Node19</title>
<g id="a_Node000019"><a xlink:title=" ">
<polygon fill="#e0e0e0" stroke="#999999" points="505,-189.5 441,-189.5 441,-170.5 505,-170.5 505,-189.5"/>
<text text-anchor="middle" x="473" y="-177.5" font-family="Helvetica,sans-Serif" font-size="10.00">algorithm</text>
</a>
</g>
</g>
<!-- Node16&#45;&gt;Node19 -->
<g id="edge29_Node000016_Node000019" class="edge">
<title>Node16&#45;&gt;Node19</title>
<g id="a_edge29_Node000016_Node000019"><a xlink:title=" ">
<path fill="none" stroke="#63b8ff" d="M379.23,-230.87C397.27,-221.28 426.62,-205.67 447.68,-194.47"/>
<polygon fill="#63b8ff" stroke="#63b8ff" points="449.52,-197.45 456.7,-189.67 446.23,-191.27 449.52,-197.45"/>
</a>
</g>
</g>
<!-- Node20 -->
<g id="Node000020" class="node">
<title>Node20</title>
<g id="a_Node000020"><a xlink:title=" ">
<polygon fill="#e0e0e0" stroke="#999999" points="565,-189.5 523,-189.5 523,-170.5 565,-170.5 565,-189.5"/>
<text text-anchor="middle" x="544" y="-177.5" font-family="Helvetica,sans-Serif" font-size="10.00">array</text>
</a>
</g>
</g>
<!-- Node16&#45;&gt;Node20 -->
<g id="edge30_Node000016_Node000020" class="edge">
<title>Node16&#45;&gt;Node20</title>
<g id="a_edge30_Node000016_Node000020"><a xlink:title=" ">
<path fill="none" stroke="#63b8ff" d="M397.37,-230.95C428.29,-222.88 474.76,-209.84 514,-195 515.05,-194.6 516.11,-194.19 517.18,-193.75"/>
<polygon fill="#63b8ff" stroke="#63b8ff" points="518.97,-196.79 526.74,-189.59 516.17,-190.37 518.97,-196.79"/>
</a>
</g>
</g>
<!-- Node21 -->
<g id="Node000021" class="node">
<title>Node21</title>
<g id="a_Node000021"><a xlink:title=" ">
<polygon fill="#e0e0e0" stroke="#999999" points="297.5,-189.5 256.5,-189.5 256.5,-170.5 297.5,-170.5 297.5,-189.5"/>
<text text-anchor="middle" x="277" y="-177.5" font-family="Helvetica,sans-Serif" font-size="10.00">tuple</text>
</a>
</g>
</g>
<!-- Node16&#45;&gt;Node21 -->
<g id="edge32_Node000016_Node000021" class="edge">
<title>Node16&#45;&gt;Node21</title>
<g id="a_edge32_Node000016_Node000021"><a xlink:title=" ">
<path fill="none" stroke="#63b8ff" d="M350.31,-230.87C336.59,-221.54 314.5,-206.51 298.15,-195.38"/>
<polygon fill="#63b8ff" stroke="#63b8ff" points="299.98,-192.4 289.74,-189.67 296.04,-198.19 299.98,-192.4"/>
</a>
</g>
</g>
<!-- Node17&#45;&gt;Node2 -->
<g id="edge22_Node000017_Node000002" class="edge">
<title>Node17&#45;&gt;Node2</title>
<g id="a_edge22_Node000017_Node000002"><a xlink:title=" ">
<path fill="none" stroke="#63b8ff" d="M753.8,-164.99C724.5,-155.02 685.58,-141.78 657.83,-132.35"/>
<polygon fill="#63b8ff" stroke="#63b8ff" points="658.74,-128.96 648.15,-129.05 656.49,-135.59 658.74,-128.96"/>
</a>
</g>
</g>
<!-- Node17&#45;&gt;Node10 -->
<g id="edge23_Node000017_Node000010" class="edge">
<title>Node17&#45;&gt;Node10</title>
<g id="a_edge23_Node000017_Node000010"><a xlink:title=" ">
<path fill="none" stroke="#63b8ff" d="M855.23,-166.59C906.46,-156.04 979.22,-141.05 1027.71,-131.06"/>
<polygon fill="#63b8ff" stroke="#63b8ff" points="1028.59,-134.46 1037.68,-129.01 1027.17,-127.6 1028.59,-134.46"/>
</a>
</g>
</g>
<!-- Node17&#45;&gt;Node12 -->
<g id="edge24_Node000017_Node000012" class="edge">
<title>Node17&#45;&gt;Node12</title>
<g id="a_edge24_Node000017_Node000012"><a xlink:title=" ">
<path fill="none" stroke="#63b8ff" d="M787.74,-164.84C783.65,-156.87 778.51,-146.84 774.14,-138.33"/>
<polygon fill="#63b8ff" stroke="#63b8ff" points="777.17,-136.57 769.5,-129.27 770.94,-139.76 777.17,-136.57"/>
</a>
</g>
</g>
<!-- Node17&#45;&gt;Node13 -->
<g id="edge25_Node000017_Node000013" class="edge">
<title>Node17&#45;&gt;Node13</title>
<g id="a_edge25_Node000017_Node000013"><a xlink:title=" ">
<path fill="none" stroke="#63b8ff" d="M825.18,-164.99C845.83,-155.4 873,-142.79 893.13,-133.44"/>
<polygon fill="#63b8ff" stroke="#63b8ff" points="894.8,-136.52 902.39,-129.14 891.85,-130.18 894.8,-136.52"/>
</a>
</g>
</g>
<!-- Node17&#45;&gt;Node15 -->
<g id="edge26_Node000017_Node000015" class="edge">
<title>Node17&#45;&gt;Node15</title>
<g id="a_edge26_Node000017_Node000015"><a xlink:title=" ">
<path fill="none" stroke="#63b8ff" d="M734.86,-172.79C628.04,-161.77 406,-138.87 294.67,-127.38"/>
<polygon fill="#63b8ff" stroke="#63b8ff" points="294.88,-123.88 284.58,-126.34 294.16,-130.85 294.88,-123.88"/>
</a>
</g>
</g>
<!-- Node22&#45;&gt;Node2 -->
<g id="edge34_Node000022_Node000002" class="edge">
<title>Node22&#45;&gt;Node2</title>
<g id="a_edge34_Node000022_Node000002"><a xlink:title=" ">
<path fill="none" stroke="#63b8ff" d="M255.34,-285.93C243.61,-263.05 215.93,-199.96 247,-165 267.21,-142.26 454.85,-129.14 557.17,-123.61"/>
<polygon fill="#63b8ff" stroke="#63b8ff" points="557.6,-127.1 567.4,-123.07 557.23,-120.11 557.6,-127.1"/>
</a>
</g>
</g>
<!-- Node22&#45;&gt;Node8 -->
<g id="edge36_Node000022_Node000008" class="edge">
<title>Node22&#45;&gt;Node8</title>
<g id="a_edge36_Node000022_Node000008"><a xlink:title=" ">
<path fill="none" stroke="#63b8ff" d="M251.8,-285.89C229.16,-261.96 164.36,-192.21 117,-129 105.84,-114.1 94.46,-96.22 86.53,-83.23"/>
<polygon fill="#63b8ff" stroke="#63b8ff" points="89.36,-81.14 81.2,-74.39 83.36,-84.76 89.36,-81.14"/>
</a>
</g>
</g>
<!-- Node22&#45;&gt;Node16 -->
<g id="edge35_Node000022_Node000016" class="edge">
<title>Node22&#45;&gt;Node16</title>
<g id="a_edge35_Node000022_Node000016"><a xlink:title=" ">
<path fill="none" stroke="#63b8ff" d="M276.55,-285.98C292.89,-277.57 318.13,-264.59 337.13,-254.81"/>
<polygon fill="#63b8ff" stroke="#63b8ff" points="338.86,-257.86 346.15,-250.17 335.66,-251.63 338.86,-257.86"/>
</a>
</g>
</g>
</g>
</svg>

<g id="navigator" transform="translate(0 0)" fill="#404254">
  <rect fill="#f2f5e9" fill-opacity="0.5" stroke="#606060" stroke-width=".5" x="0" y="0" width="60" height="60"/>
  <use id="zoomplus" xlink:href="#zoomPlus" x="17" y="9" onmousedown="handleZoom(evt,'in')"/>
  <use id="zoomminus" xlink:href="#zoomMin" x="42" y="9" onmousedown="handleZoom(evt,'out')"/>
  <use id="reset" xlink:href="#resetDef" x="30" y="36" onmousedown="handleReset()"/>
   <use id="arrowup" xlink:href="#arrowUp" x="0" y="0" onmousedown="handlePan(0,-1)"/>
  <use id="arrowright" xlink:href="#arrowRight" x="0" y="0" onmousedown="handlePan(1,0)"/>
  <use id="arrowdown" xlink:href="#arrowDown" x="0" y="0" onmousedown="handlePan(0,1)"/>
  <use id="arrowleft" xlink:href="#arrowLeft" x="0" y="0" onmousedown="handlePan(-1,0)"/>
</g>
<svg viewBox="0 0 15 15" width="100%" height="30px" preserveAspectRatio="xMaxYMin meet">
 <g id="arrow_out" transform="scale(0.3 0.3)">
  <a xlink:href="covariance__matrix__full_8h__incl_org.svg" target="_base">
   <rect id="button" ry="5" rx="5" y="6" x="6" height="38" width="38"
        fill="#f2f5e9" fill-opacity="0.5" stroke="#606060" stroke-width="1.0"/>
   <path id="arrow"
     d="M 11.500037,31.436501 C 11.940474,20.09759 22.043105,11.32322 32.158766,21.979434 L 37.068811,17.246167 C 37.068811,17.246167 37.088388,32 37.088388,32 L 22.160133,31.978069 C 22.160133,31.978069 26.997745,27.140456 26.997745,27.140456 C 18.528582,18.264221 13.291696,25.230495 11.500037,31.436501 z"
     style="fill:#404040;"/>
  </a>
 </g>
</svg>

<style type='text/css'>
<![CDATA[
[data-mouse-over-selected='false'] { opacity: 0.7; }
[data-mouse-over-selected='true']  { opacity: 1.0; }
]]>
</style>
<script type="application/ecmascript"><![CDATA[
document.addEventListener('DOMContentLoaded', (event) => {
  highlightEdges();
  highlightAdjacentNodes();
});
]]></script>
</svg>
