<?xml version="1.0" encoding="UTF-8" standalone="no"?>
<!DOCTYPE svg PUBLIC "-//W3C//DTD SVG 1.1//EN"
 "http://www.w3.org/Graphics/SVG/1.1/DTD/svg11.dtd">
<!-- Generated by graphviz version 2.43.0 (0)
 -->
<!-- Title: include/trackingLib/math/linalg/covariance_matrix_factored.h Pages: 1 -->
<svg width="1387pt" height="522pt"
 viewBox="0.00 0.00 1387.00 522.00" xmlns="http://www.w3.org/2000/svg" xmlns:xlink="http://www.w3.org/1999/xlink">
<g id="graph0" class="graph" transform="scale(1 1) rotate(0) translate(4 518)">
<title>include/trackingLib/math/linalg/covariance_matrix_factored.h</title>
<!-- Node1 -->
<g id="Node000001" class="node">
<title>Node1</title>
<g id="a_Node000001"><a xlink:title=" ">
<polygon fill="#999999" stroke="#666666" points="406.5,-514 275.5,-514 275.5,-473 406.5,-473 406.5,-514"/>
<text text-anchor="start" x="283.5" y="-502" font-family="Helvetica,sans-Serif" font-size="10.00">include/trackingLib</text>
<text text-anchor="start" x="283.5" y="-491" font-family="Helvetica,sans-Serif" font-size="10.00">/math/linalg/covariance</text>
<text text-anchor="middle" x="341" y="-480" font-family="Helvetica,sans-Serif" font-size="10.00">_matrix_factored.h</text>
</a>
</g>
</g>
<!-- Node2 -->
<g id="Node000002" class="node">
<title>Node2</title>
<g id="a_Node000002"><a xlink:href="first__include_8h.html" target="_top" xlink:title=" ">
<polygon fill="white" stroke="#666666" points="325.5,-129 214.5,-129 214.5,-110 325.5,-110 325.5,-129"/>
<text text-anchor="middle" x="270" y="-117" font-family="Helvetica,sans-Serif" font-size="10.00">base/first_include.h</text>
</a>
</g>
</g>
<!-- Node1&#45;&gt;Node2 -->
<g id="edge1_Node000001_Node000002" class="edge">
<title>Node1&#45;&gt;Node2</title>
<g id="a_edge1_Node000001_Node000002"><a xlink:title=" ">
<path fill="none" stroke="#63b8ff" d="M298.16,-472.99C257.32,-451.11 202,-411.43 202,-357 202,-357 202,-357 202,-239.5 202,-197.93 233.66,-157.69 253.78,-136.31"/>
<polygon fill="#63b8ff" stroke="#63b8ff" points="256.35,-138.68 260.83,-129.08 251.34,-133.79 256.35,-138.68"/>
</a>
</g>
</g>
<!-- Node8 -->
<g id="Node000008" class="node">
<title>Node8</title>
<g id="a_Node000008"><a xlink:title=" ">
<polygon fill="#e0e0e0" stroke="#999999" points="471.5,-74 388.5,-74 388.5,-55 471.5,-55 471.5,-74"/>
<text text-anchor="middle" x="430" y="-62" font-family="Helvetica,sans-Serif" font-size="10.00">initializer_list</text>
</a>
</g>
</g>
<!-- Node1&#45;&gt;Node8 -->
<g id="edge39_Node000001_Node000008" class="edge">
<title>Node1&#45;&gt;Node8</title>
<g id="a_edge39_Node000001_Node000008"><a xlink:title=" ">
<path fill="none" stroke="#63b8ff" d="M341.05,-472.85C341.68,-421.25 346.55,-278.11 380,-165 387.47,-139.75 390.05,-133.46 402,-110 406.76,-100.65 412.9,-90.72 418.21,-82.62"/>
<polygon fill="#63b8ff" stroke="#63b8ff" points="421.27,-84.34 423.94,-74.09 415.46,-80.44 421.27,-84.34"/>
</a>
</g>
</g>
<!-- Node9 -->
<g id="Node000009" class="node">
<title>Node9</title>
<g id="a_Node000009"><a xlink:href="covariance__matrix__intf_8h.html" target="_top" xlink:title=" ">
<polygon fill="white" stroke="#666666" points="524,-437 384,-437 384,-407 524,-407 524,-437"/>
<text text-anchor="start" x="392" y="-425" font-family="Helvetica,sans-Serif" font-size="10.00">math/linalg/contracts</text>
<text text-anchor="middle" x="454" y="-414" font-family="Helvetica,sans-Serif" font-size="10.00">/covariance_matrix_intf.h</text>
</a>
</g>
</g>
<!-- Node1&#45;&gt;Node9 -->
<g id="edge8_Node000001_Node000009" class="edge">
<title>Node1&#45;&gt;Node9</title>
<g id="a_edge8_Node000001_Node000009"><a xlink:title=" ">
<path fill="none" stroke="#63b8ff" d="M372.78,-472.96C388.28,-463.42 406.86,-451.99 422.34,-442.47"/>
<polygon fill="#63b8ff" stroke="#63b8ff" points="424.37,-445.33 431.05,-437.11 420.7,-439.37 424.37,-445.33"/>
</a>
</g>
</g>
<!-- Node24 -->
<g id="Node000024" class="node">
<title>Node24</title>
<g id="a_Node000024"><a xlink:title=" ">
<polygon fill="#e0e0e0" stroke="#999999" points="602,-431.5 542,-431.5 542,-412.5 602,-412.5 602,-431.5"/>
<text text-anchor="middle" x="572" y="-419.5" font-family="Helvetica,sans-Serif" font-size="10.00">iostream</text>
</a>
</g>
</g>
<!-- Node1&#45;&gt;Node24 -->
<g id="edge40_Node000001_Node000024" class="edge">
<title>Node1&#45;&gt;Node24</title>
<g id="a_edge40_Node000001_Node000024"><a xlink:title=" ">
<path fill="none" stroke="#63b8ff" d="M406.63,-474.64C443.87,-464.23 491.24,-450.52 533,-437 535.11,-436.32 537.28,-435.59 539.47,-434.85"/>
<polygon fill="#63b8ff" stroke="#63b8ff" points="540.69,-438.13 548.99,-431.53 538.39,-431.52 540.69,-438.13"/>
</a>
</g>
</g>
<!-- Node3 -->
<g id="Node000003" class="node">
<title>Node3</title>
<g id="a_Node000003"><a xlink:href="test__config_8h.html" target="_top" xlink:title=" ">
<polygon fill="white" stroke="#666666" points="259.5,-74 180.5,-74 180.5,-55 259.5,-55 259.5,-74"/>
<text text-anchor="middle" x="220" y="-62" font-family="Helvetica,sans-Serif" font-size="10.00">test_config.h</text>
</a>
</g>
</g>
<!-- Node2&#45;&gt;Node3 -->
<g id="edge2_Node000002_Node000003" class="edge">
<title>Node2&#45;&gt;Node3</title>
<g id="a_edge2_Node000002_Node000003"><a xlink:title=" ">
<path fill="none" stroke="#63b8ff" d="M261.74,-109.75C254.54,-102.11 243.89,-90.82 235.15,-81.56"/>
<polygon fill="#63b8ff" stroke="#63b8ff" points="237.51,-78.96 228.1,-74.09 232.42,-83.76 237.51,-78.96"/>
</a>
</g>
</g>
<!-- Node4 -->
<g id="Node000004" class="node">
<title>Node4</title>
<g id="a_Node000004"><a xlink:href="atomic__types_8h.html" target="_top" xlink:title=" ">
<polygon fill="white" stroke="#666666" points="370,-74 278,-74 278,-55 370,-55 370,-74"/>
<text text-anchor="middle" x="324" y="-62" font-family="Helvetica,sans-Serif" font-size="10.00">atomic_types.h</text>
</a>
</g>
</g>
<!-- Node2&#45;&gt;Node4 -->
<g id="edge3_Node000002_Node000004" class="edge">
<title>Node2&#45;&gt;Node4</title>
<g id="a_edge3_Node000002_Node000004"><a xlink:title=" ">
<path fill="none" stroke="#63b8ff" d="M278.92,-109.75C286.78,-102.03 298.43,-90.6 307.92,-81.28"/>
<polygon fill="#63b8ff" stroke="#63b8ff" points="310.56,-83.59 315.25,-74.09 305.66,-78.6 310.56,-83.59"/>
</a>
</g>
</g>
<!-- Node6 -->
<g id="Node000006" class="node">
<title>Node6</title>
<g id="a_Node000006"><a xlink:title=" ">
<polygon fill="#e0e0e0" stroke="#999999" points="92,-74 0,-74 0,-55 92,-55 92,-74"/>
<text text-anchor="middle" x="46" y="-62" font-family="Helvetica,sans-Serif" font-size="10.00">tl/expected.hpp</text>
</a>
</g>
</g>
<!-- Node2&#45;&gt;Node6 -->
<g id="edge5_Node000002_Node000006" class="edge">
<title>Node2&#45;&gt;Node6</title>
<g id="a_edge5_Node000002_Node000006"><a xlink:title=" ">
<path fill="none" stroke="#63b8ff" d="M234.01,-109.98C195.51,-100.87 134.31,-86.4 92.26,-76.45"/>
<polygon fill="#63b8ff" stroke="#63b8ff" points="92.81,-72.98 82.27,-74.08 91.2,-79.79 92.81,-72.98"/>
</a>
</g>
</g>
<!-- Node7 -->
<g id="Node000007" class="node">
<title>Node7</title>
<g id="a_Node000007"><a xlink:title=" ">
<polygon fill="#e0e0e0" stroke="#999999" points="162,-74 110,-74 110,-55 162,-55 162,-74"/>
<text text-anchor="middle" x="136" y="-62" font-family="Helvetica,sans-Serif" font-size="10.00">cassert</text>
</a>
</g>
</g>
<!-- Node2&#45;&gt;Node7 -->
<g id="edge6_Node000002_Node000007" class="edge">
<title>Node2&#45;&gt;Node7</title>
<g id="a_edge6_Node000002_Node000007"><a xlink:title=" ">
<path fill="none" stroke="#63b8ff" d="M248.47,-109.98C226.53,-101.3 192.26,-87.75 167.31,-77.88"/>
<polygon fill="#63b8ff" stroke="#63b8ff" points="168.51,-74.59 157.92,-74.17 165.93,-81.1 168.51,-74.59"/>
</a>
</g>
</g>
<!-- Node2&#45;&gt;Node8 -->
<g id="edge7_Node000002_Node000008" class="edge">
<title>Node2&#45;&gt;Node8</title>
<g id="a_edge7_Node000002_Node000008"><a xlink:title=" ">
<path fill="none" stroke="#63b8ff" d="M295.71,-109.98C322.45,-101.13 364.53,-87.19 394.45,-77.28"/>
<polygon fill="#63b8ff" stroke="#63b8ff" points="395.7,-80.55 404.09,-74.08 393.5,-73.9 395.7,-80.55"/>
</a>
</g>
</g>
<!-- Node5 -->
<g id="Node000005" class="node">
<title>Node5</title>
<g id="a_Node000005"><a xlink:title=" ">
<polygon fill="#e0e0e0" stroke="#999999" points="349,-19 299,-19 299,0 349,0 349,-19"/>
<text text-anchor="middle" x="324" y="-7" font-family="Helvetica,sans-Serif" font-size="10.00">cstdint</text>
</a>
</g>
</g>
<!-- Node4&#45;&gt;Node5 -->
<g id="edge4_Node000004_Node000005" class="edge">
<title>Node4&#45;&gt;Node5</title>
<g id="a_edge4_Node000004_Node000005"><a xlink:title=" ">
<path fill="none" stroke="#63b8ff" d="M324,-54.75C324,-47.8 324,-37.85 324,-29.13"/>
<polygon fill="#63b8ff" stroke="#63b8ff" points="327.5,-29.09 324,-19.09 320.5,-29.09 327.5,-29.09"/>
</a>
</g>
</g>
<!-- Node9&#45;&gt;Node2 -->
<g id="edge9_Node000009_Node000002" class="edge">
<title>Node9&#45;&gt;Node2</title>
<g id="a_edge9_Node000009_Node000002"><a xlink:title=" ">
<path fill="none" stroke="#63b8ff" d="M433.34,-406.99C405.18,-387.06 354.53,-348.1 322,-305 289.87,-262.42 284.24,-247.35 274,-195 270.35,-176.36 269.57,-154.63 269.57,-139.47"/>
<polygon fill="#63b8ff" stroke="#63b8ff" points="273.07,-139.35 269.69,-129.31 266.07,-139.27 273.07,-139.35"/>
</a>
</g>
</g>
<!-- Node10 -->
<g id="Node000010" class="node">
<title>Node10</title>
<g id="a_Node000010"><a xlink:href="interface__contract_8h.html" target="_top" xlink:title=" ">
<polygon fill="white" stroke="#666666" points="1067,-129 927,-129 927,-110 1067,-110 1067,-129"/>
<text text-anchor="middle" x="997" y="-117" font-family="Helvetica,sans-Serif" font-size="10.00">base/interface_contract.h</text>
</a>
</g>
</g>
<!-- Node9&#45;&gt;Node10 -->
<g id="edge10_Node000009_Node000010" class="edge">
<title>Node9&#45;&gt;Node10</title>
<g id="a_edge10_Node000009_Node000010"><a xlink:title=" ">
<path fill="none" stroke="#63b8ff" d="M524.24,-408.06C688.72,-377.63 1085,-303.58 1085,-296.5 1085,-296.5 1085,-296.5 1085,-239.5 1085,-205.33 1085.96,-192.73 1066,-165 1056.26,-151.46 1041.01,-141.01 1027.32,-133.64"/>
<polygon fill="#63b8ff" stroke="#63b8ff" points="1028.68,-130.41 1018.18,-129.03 1025.53,-136.66 1028.68,-130.41"/>
</a>
</g>
</g>
<!-- Node12 -->
<g id="Node000012" class="node">
<title>Node12</title>
<g id="a_Node000012"><a xlink:href="require__copy__intf_8h.html" target="_top" xlink:title=" ">
<polygon fill="white" stroke="#666666" points="1221,-129 1085,-129 1085,-110 1221,-110 1221,-129"/>
<text text-anchor="middle" x="1153" y="-117" font-family="Helvetica,sans-Serif" font-size="10.00">base/require_copy_intf.h</text>
</a>
</g>
</g>
<!-- Node9&#45;&gt;Node12 -->
<g id="edge12_Node000009_Node000012" class="edge">
<title>Node9&#45;&gt;Node12</title>
<g id="a_edge12_Node000009_Node000012"><a xlink:title=" ">
<path fill="none" stroke="#63b8ff" d="M524.18,-408.39C527.16,-407.91 530.11,-407.44 533,-407 668.09,-386.29 1138,-433.17 1138,-296.5 1138,-296.5 1138,-296.5 1138,-239.5 1138,-203.71 1144.76,-162.34 1149.21,-139.01"/>
<polygon fill="#63b8ff" stroke="#63b8ff" points="1152.66,-139.6 1151.16,-129.11 1145.79,-138.25 1152.66,-139.6"/>
</a>
</g>
</g>
<!-- Node13 -->
<g id="Node000013" class="node">
<title>Node13</title>
<g id="a_Node000013"><a xlink:href="require__move__intf_8h.html" target="_top" xlink:title=" ">
<polygon fill="white" stroke="#666666" points="1379,-129 1239,-129 1239,-110 1379,-110 1379,-129"/>
<text text-anchor="middle" x="1309" y="-117" font-family="Helvetica,sans-Serif" font-size="10.00">base/require_move_intf.h</text>
</a>
</g>
</g>
<!-- Node9&#45;&gt;Node13 -->
<g id="edge14_Node000009_Node000013" class="edge">
<title>Node9&#45;&gt;Node13</title>
<g id="a_edge14_Node000009_Node000013"><a xlink:title=" ">
<path fill="none" stroke="#63b8ff" d="M524.15,-408.15C527.14,-407.73 530.1,-407.35 533,-407 782.83,-377 855.44,-437.9 1098,-371 1167.84,-351.74 1243,-368.95 1243,-296.5 1243,-296.5 1243,-296.5 1243,-239.5 1243,-198.41 1273.46,-158.23 1292.99,-136.69"/>
<polygon fill="#63b8ff" stroke="#63b8ff" points="1295.8,-138.81 1300.1,-129.13 1290.7,-134.02 1295.8,-138.81"/>
</a>
</g>
</g>
<!-- Node14 -->
<g id="Node000014" class="node">
<title>Node14</title>
<g id="a_Node000014"><a xlink:href="square__matrix_8h.html" target="_top" xlink:title=" ">
<polygon fill="white" stroke="#666666" points="508,-371 400,-371 400,-341 508,-341 508,-371"/>
<text text-anchor="start" x="408" y="-359" font-family="Helvetica,sans-Serif" font-size="10.00">math/linalg/square</text>
<text text-anchor="middle" x="454" y="-348" font-family="Helvetica,sans-Serif" font-size="10.00">_matrix.h</text>
</a>
</g>
</g>
<!-- Node9&#45;&gt;Node14 -->
<g id="edge16_Node000009_Node000014" class="edge">
<title>Node9&#45;&gt;Node14</title>
<g id="a_edge16_Node000009_Node000014"><a xlink:title=" ">
<path fill="none" stroke="#63b8ff" d="M454,-406.8C454,-399.34 454,-389.99 454,-381.41"/>
<polygon fill="#63b8ff" stroke="#63b8ff" points="457.5,-381.16 454,-371.16 450.5,-381.16 457.5,-381.16"/>
</a>
</g>
</g>
<!-- Node11 -->
<g id="Node000011" class="node">
<title>Node11</title>
<g id="a_Node000011"><a xlink:title=" ">
<polygon fill="#e0e0e0" stroke="#999999" points="1187.5,-74 1118.5,-74 1118.5,-55 1187.5,-55 1187.5,-74"/>
<text text-anchor="middle" x="1153" y="-62" font-family="Helvetica,sans-Serif" font-size="10.00">type_traits</text>
</a>
</g>
</g>
<!-- Node10&#45;&gt;Node11 -->
<g id="edge11_Node000010_Node000011" class="edge">
<title>Node10&#45;&gt;Node11</title>
<g id="a_edge11_Node000010_Node000011"><a xlink:title=" ">
<path fill="none" stroke="#63b8ff" d="M1022.06,-109.98C1048.03,-101.16 1088.81,-87.31 1117.96,-77.41"/>
<polygon fill="#63b8ff" stroke="#63b8ff" points="1119.4,-80.61 1127.74,-74.08 1117.15,-73.99 1119.4,-80.61"/>
</a>
</g>
</g>
<!-- Node12&#45;&gt;Node11 -->
<g id="edge13_Node000012_Node000011" class="edge">
<title>Node12&#45;&gt;Node11</title>
<g id="a_edge13_Node000012_Node000011"><a xlink:title=" ">
<path fill="none" stroke="#63b8ff" d="M1153,-109.75C1153,-102.8 1153,-92.85 1153,-84.13"/>
<polygon fill="#63b8ff" stroke="#63b8ff" points="1156.5,-84.09 1153,-74.09 1149.5,-84.09 1156.5,-84.09"/>
</a>
</g>
</g>
<!-- Node13&#45;&gt;Node11 -->
<g id="edge15_Node000013_Node000011" class="edge">
<title>Node13&#45;&gt;Node11</title>
<g id="a_edge15_Node000013_Node000011"><a xlink:title=" ">
<path fill="none" stroke="#63b8ff" d="M1283.94,-109.98C1257.97,-101.16 1217.19,-87.31 1188.04,-77.41"/>
<polygon fill="#63b8ff" stroke="#63b8ff" points="1188.85,-73.99 1178.26,-74.08 1186.6,-80.61 1188.85,-73.99"/>
</a>
</g>
</g>
<!-- Node14&#45;&gt;Node2 -->
<g id="edge17_Node000014_Node000002" class="edge">
<title>Node14&#45;&gt;Node2</title>
<g id="a_edge17_Node000014_Node000002"><a xlink:title=" ">
<path fill="none" stroke="#63b8ff" d="M399.87,-341.15C378.88,-333.46 356.08,-321.92 340,-305 294.21,-256.83 277.62,-175.71 272.27,-139.24"/>
<polygon fill="#63b8ff" stroke="#63b8ff" points="275.71,-138.52 270.91,-129.07 268.77,-139.45 275.71,-138.52"/>
</a>
</g>
</g>
<!-- Node14&#45;&gt;Node8 -->
<g id="edge37_Node000014_Node000008" class="edge">
<title>Node14&#45;&gt;Node8</title>
<g id="a_edge37_Node000014_Node000008"><a xlink:title=" ">
<path fill="none" stroke="#63b8ff" d="M414.93,-340.89C398.95,-332.96 382.1,-321.31 373,-305 351.32,-266.14 402.62,-132.05 422.52,-83.35"/>
<polygon fill="#63b8ff" stroke="#63b8ff" points="425.77,-84.66 426.35,-74.08 419.3,-81.99 425.77,-84.66"/>
</a>
</g>
</g>
<!-- Node15 -->
<g id="Node000015" class="node">
<title>Node15</title>
<g id="a_Node000015"><a xlink:href="errors_8h.html" target="_top" xlink:title="Error types used throughout the math library.">
<polygon fill="white" stroke="#666666" points="908.5,-129 795.5,-129 795.5,-110 908.5,-110 908.5,-129"/>
<text text-anchor="middle" x="852" y="-117" font-family="Helvetica,sans-Serif" font-size="10.00">math/linalg/errors.h</text>
</a>
</g>
</g>
<!-- Node14&#45;&gt;Node15 -->
<g id="edge18_Node000014_Node000015" class="edge">
<title>Node14&#45;&gt;Node15</title>
<g id="a_edge18_Node000014_Node000015"><a xlink:title=" ">
<path fill="none" stroke="#63b8ff" d="M508.07,-352.7C600.79,-345.49 788.04,-315.89 870,-195 881.62,-177.85 872.45,-154.01 863.48,-137.95"/>
<polygon fill="#63b8ff" stroke="#63b8ff" points="866.29,-135.83 858.11,-129.09 860.3,-139.46 866.29,-135.83"/>
</a>
</g>
</g>
<!-- Node16 -->
<g id="Node000016" class="node">
<title>Node16</title>
<g id="a_Node000016"><a xlink:href="matrix_8h.html" target="_top" xlink:title=" ">
<polygon fill="white" stroke="#666666" points="690,-250 574,-250 574,-231 690,-231 690,-250"/>
<text text-anchor="middle" x="632" y="-238" font-family="Helvetica,sans-Serif" font-size="10.00">math/linalg/matrix.h</text>
</a>
</g>
</g>
<!-- Node14&#45;&gt;Node16 -->
<g id="edge19_Node000014_Node000016" class="edge">
<title>Node14&#45;&gt;Node16</title>
<g id="a_edge19_Node000014_Node000016"><a xlink:title=" ">
<path fill="none" stroke="#63b8ff" d="M496.42,-340.98C519.04,-332.44 546.72,-320.24 569,-305 588.32,-291.79 606.73,-272.12 618.6,-258.18"/>
<polygon fill="#63b8ff" stroke="#63b8ff" points="621.41,-260.28 625.1,-250.35 616.02,-255.81 621.41,-260.28"/>
</a>
</g>
</g>
<!-- Node22 -->
<g id="Node000022" class="node">
<title>Node22</title>
<g id="a_Node000022"><a xlink:href="vector_8h.html" target="_top" xlink:title=" ">
<polygon fill="white" stroke="#666666" points="560,-305 446,-305 446,-286 560,-286 560,-305"/>
<text text-anchor="middle" x="503" y="-293" font-family="Helvetica,sans-Serif" font-size="10.00">math/linalg/vector.h</text>
</a>
</g>
</g>
<!-- Node14&#45;&gt;Node22 -->
<g id="edge33_Node000014_Node000022" class="edge">
<title>Node14&#45;&gt;Node22</title>
<g id="a_edge33_Node000014_Node000022"><a xlink:title=" ">
<path fill="none" stroke="#63b8ff" d="M465.86,-340.84C472.9,-332.43 481.86,-321.74 489.21,-312.96"/>
<polygon fill="#63b8ff" stroke="#63b8ff" points="491.92,-315.18 495.66,-305.27 486.55,-310.68 491.92,-315.18"/>
</a>
</g>
</g>
<!-- Node23 -->
<g id="Node000023" class="node">
<title>Node23</title>
<g id="a_Node000023"><a xlink:title=" ">
<polygon fill="#e0e0e0" stroke="#999999" points="427.5,-305 382.5,-305 382.5,-286 427.5,-286 427.5,-305"/>
<text text-anchor="middle" x="405" y="-293" font-family="Helvetica,sans-Serif" font-size="10.00">utility</text>
</a>
</g>
</g>
<!-- Node14&#45;&gt;Node23 -->
<g id="edge38_Node000014_Node000023" class="edge">
<title>Node14&#45;&gt;Node23</title>
<g id="a_edge38_Node000014_Node000023"><a xlink:title=" ">
<path fill="none" stroke="#63b8ff" d="M442.14,-340.84C435.1,-332.43 426.14,-321.74 418.79,-312.96"/>
<polygon fill="#63b8ff" stroke="#63b8ff" points="421.45,-310.68 412.34,-305.27 416.08,-315.18 421.45,-310.68"/>
</a>
</g>
</g>
<!-- Node16&#45;&gt;Node2 -->
<g id="edge20_Node000016_Node000002" class="edge">
<title>Node16&#45;&gt;Node2</title>
<g id="a_edge20_Node000016_Node000002"><a xlink:title=" ">
<path fill="none" stroke="#63b8ff" d="M604.6,-230.93C576.34,-222.06 531.03,-207.75 492,-195 425.5,-173.27 348.08,-147.09 304.48,-132.26"/>
<polygon fill="#63b8ff" stroke="#63b8ff" points="305.52,-128.92 294.93,-129.01 303.27,-135.55 305.52,-128.92"/>
</a>
</g>
</g>
<!-- Node16&#45;&gt;Node8 -->
<g id="edge31_Node000016_Node000008" class="edge">
<title>Node16&#45;&gt;Node8</title>
<g id="a_edge31_Node000016_Node000008"><a xlink:title=" ">
<path fill="none" stroke="#63b8ff" d="M599.97,-230.99C577.63,-223.94 547.99,-212.25 526,-195 485.78,-163.45 454.08,-110.99 439.22,-83.53"/>
<polygon fill="#63b8ff" stroke="#63b8ff" points="442.12,-81.53 434.36,-74.32 435.93,-84.8 442.12,-81.53"/>
</a>
</g>
</g>
<!-- Node16&#45;&gt;Node15 -->
<g id="edge27_Node000016_Node000015" class="edge">
<title>Node16&#45;&gt;Node15</title>
<g id="a_edge27_Node000016_Node000015"><a xlink:title=" ">
<path fill="none" stroke="#63b8ff" d="M690.05,-235.88C748.2,-230.9 831.89,-219.58 852,-195 864.64,-179.54 862.04,-155.64 857.98,-139.09"/>
<polygon fill="#63b8ff" stroke="#63b8ff" points="861.21,-137.67 855.1,-129.01 854.48,-139.59 861.21,-137.67"/>
</a>
</g>
</g>
<!-- Node17 -->
<g id="Node000017" class="node">
<title>Node17</title>
<g id="a_Node000017"><a xlink:href="matrix__intf_8h.html" target="_top" xlink:title=" ">
<polygon fill="white" stroke="#666666" points="1057,-195 937,-195 937,-165 1057,-165 1057,-195"/>
<text text-anchor="start" x="945" y="-183" font-family="Helvetica,sans-Serif" font-size="10.00">math/linalg/contracts</text>
<text text-anchor="middle" x="997" y="-172" font-family="Helvetica,sans-Serif" font-size="10.00">/matrix_intf.h</text>
</a>
</g>
</g>
<!-- Node16&#45;&gt;Node17 -->
<g id="edge21_Node000016_Node000017" class="edge">
<title>Node16&#45;&gt;Node17</title>
<g id="a_edge21_Node000016_Node000017"><a xlink:title=" ">
<path fill="none" stroke="#63b8ff" d="M685.07,-230.99C748.86,-220.77 856.12,-203.58 926.73,-192.26"/>
<polygon fill="#63b8ff" stroke="#63b8ff" points="927.56,-195.67 936.88,-190.64 926.45,-188.76 927.56,-195.67"/>
</a>
</g>
</g>
<!-- Node18 -->
<g id="Node000018" class="node">
<title>Node18</title>
<g id="a_Node000018"><a xlink:href="matrix__types_8h.html" target="_top" xlink:title="Type definitions and enumerations for matrix operations.">
<polygon fill="white" stroke="#666666" points="700.5,-195 593.5,-195 593.5,-165 700.5,-165 700.5,-195"/>
<text text-anchor="start" x="601.5" y="-183" font-family="Helvetica,sans-Serif" font-size="10.00">math/linalg/matrix</text>
<text text-anchor="middle" x="647" y="-172" font-family="Helvetica,sans-Serif" font-size="10.00">_types.h</text>
</a>
</g>
</g>
<!-- Node16&#45;&gt;Node18 -->
<g id="edge28_Node000016_Node000018" class="edge">
<title>Node16&#45;&gt;Node18</title>
<g id="a_edge28_Node000016_Node000018"><a xlink:title=" ">
<path fill="none" stroke="#63b8ff" d="M634.21,-230.87C635.97,-224.03 638.5,-214.14 640.85,-204.97"/>
<polygon fill="#63b8ff" stroke="#63b8ff" points="644.29,-205.67 643.38,-195.11 637.51,-203.93 644.29,-205.67"/>
</a>
</g>
</g>
<!-- Node19 -->
<g id="Node000019" class="node">
<title>Node19</title>
<g id="a_Node000019"><a xlink:title=" ">
<polygon fill="#e0e0e0" stroke="#999999" points="783,-189.5 719,-189.5 719,-170.5 783,-170.5 783,-189.5"/>
<text text-anchor="middle" x="751" y="-177.5" font-family="Helvetica,sans-Serif" font-size="10.00">algorithm</text>
</a>
</g>
</g>
<!-- Node16&#45;&gt;Node19 -->
<g id="edge29_Node000016_Node000019" class="edge">
<title>Node16&#45;&gt;Node19</title>
<g id="a_edge29_Node000016_Node000019"><a xlink:title=" ">
<path fill="none" stroke="#63b8ff" d="M649.3,-230.99C669.05,-221.29 701.55,-205.31 724.49,-194.03"/>
<polygon fill="#63b8ff" stroke="#63b8ff" points="726.25,-197.07 733.68,-189.52 723.16,-190.79 726.25,-197.07"/>
</a>
</g>
</g>
<!-- Node20 -->
<g id="Node000020" class="node">
<title>Node20</title>
<g id="a_Node000020"><a xlink:title=" ">
<polygon fill="#e0e0e0" stroke="#999999" points="843,-189.5 801,-189.5 801,-170.5 843,-170.5 843,-189.5"/>
<text text-anchor="middle" x="822" y="-177.5" font-family="Helvetica,sans-Serif" font-size="10.00">array</text>
</a>
</g>
</g>
<!-- Node16&#45;&gt;Node20 -->
<g id="edge30_Node000016_Node000020" class="edge">
<title>Node16&#45;&gt;Node20</title>
<g id="a_edge30_Node000016_Node000020"><a xlink:title=" ">
<path fill="none" stroke="#63b8ff" d="M669.41,-230.96C702.19,-223.03 750.89,-210.19 792,-195 793.05,-194.61 794.12,-194.2 795.19,-193.77"/>
<polygon fill="#63b8ff" stroke="#63b8ff" points="796.97,-196.82 804.76,-189.64 794.19,-190.39 796.97,-196.82"/>
</a>
</g>
</g>
<!-- Node21 -->
<g id="Node000021" class="node">
<title>Node21</title>
<g id="a_Node000021"><a xlink:title=" ">
<polygon fill="#e0e0e0" stroke="#999999" points="575.5,-189.5 534.5,-189.5 534.5,-170.5 575.5,-170.5 575.5,-189.5"/>
<text text-anchor="middle" x="555" y="-177.5" font-family="Helvetica,sans-Serif" font-size="10.00">tuple</text>
</a>
</g>
</g>
<!-- Node16&#45;&gt;Node21 -->
<g id="edge32_Node000016_Node000021" class="edge">
<title>Node16&#45;&gt;Node21</title>
<g id="a_edge32_Node000016_Node000021"><a xlink:title=" ">
<path fill="none" stroke="#63b8ff" d="M620.64,-230.87C608.58,-221.71 589.3,-207.06 574.75,-196.01"/>
<polygon fill="#63b8ff" stroke="#63b8ff" points="576.49,-192.93 566.41,-189.67 572.25,-198.5 576.49,-192.93"/>
</a>
</g>
</g>
<!-- Node17&#45;&gt;Node2 -->
<g id="edge22_Node000017_Node000002" class="edge">
<title>Node17&#45;&gt;Node2</title>
<g id="a_edge22_Node000017_Node000002"><a xlink:title=" ">
<path fill="none" stroke="#63b8ff" d="M936.71,-172.91C910.66,-170.35 879.84,-167.41 852,-165 664.95,-148.82 443.81,-132.75 335.89,-125.11"/>
<polygon fill="#63b8ff" stroke="#63b8ff" points="336.03,-121.61 325.81,-124.4 335.53,-128.59 336.03,-121.61"/>
</a>
</g>
</g>
<!-- Node17&#45;&gt;Node10 -->
<g id="edge23_Node000017_Node000010" class="edge">
<title>Node17&#45;&gt;Node10</title>
<g id="a_edge23_Node000017_Node000010"><a xlink:title=" ">
<path fill="none" stroke="#63b8ff" d="M997,-164.84C997,-157.21 997,-147.7 997,-139.45"/>
<polygon fill="#63b8ff" stroke="#63b8ff" points="1000.5,-139.27 997,-129.27 993.5,-139.27 1000.5,-139.27"/>
</a>
</g>
</g>
<!-- Node17&#45;&gt;Node12 -->
<g id="edge24_Node000017_Node000012" class="edge">
<title>Node17&#45;&gt;Node12</title>
<g id="a_edge24_Node000017_Node000012"><a xlink:title=" ">
<path fill="none" stroke="#63b8ff" d="M1034.37,-164.99C1060.63,-155.14 1095.41,-142.1 1120.52,-132.68"/>
<polygon fill="#63b8ff" stroke="#63b8ff" points="1121.83,-135.93 1129.96,-129.14 1119.37,-129.37 1121.83,-135.93"/>
</a>
</g>
</g>
<!-- Node17&#45;&gt;Node13 -->
<g id="edge25_Node000017_Node000013" class="edge">
<title>Node17&#45;&gt;Node13</title>
<g id="a_edge25_Node000017_Node000013"><a xlink:title=" ">
<path fill="none" stroke="#63b8ff" d="M1057.16,-167.72C1113.84,-157.09 1198.07,-141.3 1253.26,-130.95"/>
<polygon fill="#63b8ff" stroke="#63b8ff" points="1254.03,-134.37 1263.21,-129.08 1252.74,-127.49 1254.03,-134.37"/>
</a>
</g>
</g>
<!-- Node17&#45;&gt;Node15 -->
<g id="edge26_Node000017_Node000015" class="edge">
<title>Node17&#45;&gt;Node15</title>
<g id="a_edge26_Node000017_Node000015"><a xlink:title=" ">
<path fill="none" stroke="#63b8ff" d="M962.27,-164.99C938.08,-155.23 906.1,-142.33 882.81,-132.93"/>
<polygon fill="#63b8ff" stroke="#63b8ff" points="884,-129.63 873.41,-129.14 881.38,-136.13 884,-129.63"/>
</a>
</g>
</g>
<!-- Node22&#45;&gt;Node2 -->
<g id="edge34_Node000022_Node000002" class="edge">
<title>Node22&#45;&gt;Node2</title>
<g id="a_edge34_Node000022_Node000002"><a xlink:title=" ">
<path fill="none" stroke="#63b8ff" d="M482.85,-285.95C464.68,-277.85 437.58,-264.73 416,-250 364.24,-214.65 311.05,-162.77 285.53,-136.71"/>
<polygon fill="#63b8ff" stroke="#63b8ff" points="287.72,-133.95 278.25,-129.21 282.7,-138.82 287.72,-133.95"/>
</a>
</g>
</g>
<!-- Node22&#45;&gt;Node8 -->
<g id="edge36_Node000022_Node000008" class="edge">
<title>Node22&#45;&gt;Node8</title>
<g id="a_edge36_Node000022_Node000008"><a xlink:title=" ">
<path fill="none" stroke="#63b8ff" d="M500.23,-285.8C489.52,-252.22 450.74,-130.57 435.87,-83.9"/>
<polygon fill="#63b8ff" stroke="#63b8ff" points="439.15,-82.67 432.78,-74.21 432.48,-84.8 439.15,-82.67"/>
</a>
</g>
</g>
<!-- Node22&#45;&gt;Node16 -->
<g id="edge35_Node000022_Node000016" class="edge">
<title>Node22&#45;&gt;Node16</title>
<g id="a_edge35_Node000022_Node000016"><a xlink:title=" ">
<path fill="none" stroke="#63b8ff" d="M523.73,-285.98C544.76,-277.34 577.55,-263.87 601.54,-254.02"/>
<polygon fill="#63b8ff" stroke="#63b8ff" points="602.98,-257.21 610.9,-250.17 600.32,-250.73 602.98,-257.21"/>
</a>
</g>
</g>
</g>
</svg>
