<?xml version="1.0" encoding="UTF-8" standalone="no"?>
<!DOCTYPE svg PUBLIC "-//W3C//DTD SVG 1.1//EN"
 "http://www.w3.org/Graphics/SVG/1.1/DTD/svg11.dtd">
<!-- Generated by graphviz version 2.43.0 (0)
 -->
<!-- Title: include/trackingLib/math/linalg/diagonal_matrix.hpp Pages: 1 -->
<svg width="1281pt" height="654pt"
 viewBox="0.00 0.00 1281.00 654.00" xmlns="http://www.w3.org/2000/svg" xmlns:xlink="http://www.w3.org/1999/xlink">
<g id="graph0" class="graph" transform="scale(1 1) rotate(0) translate(4 650)">
<title>include/trackingLib/math/linalg/diagonal_matrix.hpp</title>
<!-- Node1 -->
<g id="Node000001" class="node">
<title>Node1</title>
<g id="a_Node000001"><a xlink:title=" ">
<polygon fill="#999999" stroke="#666666" points="907.5,-646 787.5,-646 787.5,-605 907.5,-605 907.5,-646"/>
<text text-anchor="start" x="795.5" y="-634" font-family="Helvetica,sans-Serif" font-size="10.00">include/trackingLib</text>
<text text-anchor="start" x="795.5" y="-623" font-family="Helvetica,sans-Serif" font-size="10.00">/math/linalg/diagonal</text>
<text text-anchor="middle" x="847.5" y="-612" font-family="Helvetica,sans-Serif" font-size="10.00">_matrix.hpp</text>
</a>
</g>
</g>
<!-- Node2 -->
<g id="Node000002" class="node">
<title>Node2</title>
<g id="a_Node000002"><a xlink:href="diagonal__matrix_8h.html" target="_top" xlink:title=" ">
<polygon fill="white" stroke="#666666" points="593,-569 476,-569 476,-539 593,-539 593,-569"/>
<text text-anchor="start" x="484" y="-557" font-family="Helvetica,sans-Serif" font-size="10.00">math/linalg/diagonal</text>
<text text-anchor="middle" x="534.5" y="-546" font-family="Helvetica,sans-Serif" font-size="10.00">_matrix.h</text>
</a>
</g>
</g>
<!-- Node1&#45;&gt;Node2 -->
<g id="edge1_Node000001_Node000002" class="edge">
<title>Node1&#45;&gt;Node2</title>
<g id="a_edge1_Node000001_Node000002"><a xlink:title=" ">
<path fill="none" stroke="#63b8ff" d="M787.15,-611.1C734.47,-599.4 658.06,-582.44 603.08,-570.23"/>
<polygon fill="#63b8ff" stroke="#63b8ff" points="603.6,-566.76 593.07,-568.01 602.08,-573.59 603.6,-566.76"/>
</a>
</g>
</g>
<!-- Node28 -->
<g id="Node000028" class="node">
<title>Node28</title>
<g id="a_Node000028"><a xlink:href="matrix_8hpp.html" target="_top" xlink:title=" ">
<polygon fill="white" stroke="#666666" points="1025.5,-305 897.5,-305 897.5,-286 1025.5,-286 1025.5,-305"/>
<text text-anchor="middle" x="961.5" y="-293" font-family="Helvetica,sans-Serif" font-size="10.00">math/linalg/matrix.hpp</text>
</a>
</g>
</g>
<!-- Node1&#45;&gt;Node28 -->
<g id="edge45_Node000001_Node000028" class="edge">
<title>Node1&#45;&gt;Node28</title>
<g id="a_edge45_Node000001_Node000028"><a xlink:title=" ">
<path fill="none" stroke="#63b8ff" d="M852.95,-604.93C859.75,-578.74 870.5,-530.76 870.5,-489 870.5,-489 870.5,-489 870.5,-421 870.5,-384.46 868.11,-370.63 889.5,-341 899.52,-327.12 915.33,-316.66 929.58,-309.38"/>
<polygon fill="#63b8ff" stroke="#63b8ff" points="931.13,-312.52 938.65,-305.05 928.12,-306.2 931.13,-312.52"/>
</a>
</g>
</g>
<!-- Node34 -->
<g id="Node000034" class="node">
<title>Node34</title>
<g id="a_Node000034"><a xlink:href="triangular__matrix_8hpp.html" target="_top" xlink:title=" ">
<polygon fill="white" stroke="#666666" points="842.5,-503 720.5,-503 720.5,-473 842.5,-473 842.5,-503"/>
<text text-anchor="start" x="728.5" y="-491" font-family="Helvetica,sans-Serif" font-size="10.00">math/linalg/triangular</text>
<text text-anchor="middle" x="781.5" y="-480" font-family="Helvetica,sans-Serif" font-size="10.00">_matrix.hpp</text>
</a>
</g>
</g>
<!-- Node1&#45;&gt;Node34 -->
<g id="edge54_Node000001_Node000034" class="edge">
<title>Node1&#45;&gt;Node34</title>
<g id="a_edge54_Node000001_Node000034"><a xlink:title=" ">
<path fill="none" stroke="#63b8ff" d="M837.9,-604.8C825.98,-580.33 805.67,-538.62 792.95,-512.51"/>
<polygon fill="#63b8ff" stroke="#63b8ff" points="796,-510.79 788.48,-503.33 789.71,-513.85 796,-510.79"/>
</a>
</g>
</g>
<!-- Node35 -->
<g id="Node000035" class="node">
<title>Node35</title>
<g id="a_Node000035"><a xlink:href="vector_8hpp.html" target="_top" xlink:title=" ">
<polygon fill="white" stroke="#666666" points="1024.5,-365.5 898.5,-365.5 898.5,-346.5 1024.5,-346.5 1024.5,-365.5"/>
<text text-anchor="middle" x="961.5" y="-353.5" font-family="Helvetica,sans-Serif" font-size="10.00">math/linalg/vector.hpp</text>
</a>
</g>
</g>
<!-- Node1&#45;&gt;Node35 -->
<g id="edge57_Node000001_Node000035" class="edge">
<title>Node1&#45;&gt;Node35</title>
<g id="a_edge57_Node000001_Node000035"><a xlink:title=" ">
<path fill="none" stroke="#63b8ff" d="M862.24,-604.91C869.56,-594.59 878.18,-581.5 884.5,-569 918.93,-500.91 945.56,-413.66 956.31,-375.86"/>
<polygon fill="#63b8ff" stroke="#63b8ff" points="959.8,-376.36 959.13,-365.79 953.06,-374.48 959.8,-376.36"/>
</a>
</g>
</g>
<!-- Node3 -->
<g id="Node000003" class="node">
<title>Node3</title>
<g id="a_Node000003"><a xlink:href="first__include_8h.html" target="_top" xlink:title=" ">
<polygon fill="white" stroke="#666666" points="300,-129 189,-129 189,-110 300,-110 300,-129"/>
<text text-anchor="middle" x="244.5" y="-117" font-family="Helvetica,sans-Serif" font-size="10.00">base/first_include.h</text>
</a>
</g>
</g>
<!-- Node2&#45;&gt;Node3 -->
<g id="edge2_Node000002_Node000003" class="edge">
<title>Node2&#45;&gt;Node3</title>
<g id="a_edge2_Node000002_Node000003"><a xlink:title=" ">
<path fill="none" stroke="#63b8ff" d="M475.7,-544.57C372.24,-528.07 168.5,-487.4 168.5,-423 168.5,-423 168.5,-423 168.5,-239.5 168.5,-196.71 203.84,-156.94 226.32,-135.97"/>
<polygon fill="#63b8ff" stroke="#63b8ff" points="228.84,-138.42 233.93,-129.13 224.16,-133.21 228.84,-138.42"/>
</a>
</g>
</g>
<!-- Node9 -->
<g id="Node000009" class="node">
<title>Node9</title>
<g id="a_Node000009"><a xlink:title=" ">
<polygon fill="#e0e0e0" stroke="#999999" points="488,-74 405,-74 405,-55 488,-55 488,-74"/>
<text text-anchor="middle" x="446.5" y="-62" font-family="Helvetica,sans-Serif" font-size="10.00">initializer_list</text>
</a>
</g>
</g>
<!-- Node2&#45;&gt;Node9 -->
<g id="edge44_Node000002_Node000009" class="edge">
<title>Node2&#45;&gt;Node9</title>
<g id="a_edge44_Node000002_Node000009"><a xlink:title=" ">
<path fill="none" stroke="#63b8ff" d="M537.28,-538.93C542.05,-510.3 548.38,-444.8 515.5,-407 475.87,-361.45 421.1,-419.02 384.5,-371 366.78,-347.75 423.12,-146.19 441.14,-83.82"/>
<polygon fill="#63b8ff" stroke="#63b8ff" points="444.52,-84.74 443.95,-74.16 437.8,-82.78 444.52,-84.74"/>
</a>
</g>
</g>
<!-- Node10 -->
<g id="Node000010" class="node">
<title>Node10</title>
<g id="a_Node000010"><a xlink:href="errors_8h.html" target="_top" xlink:title="Error types used throughout the math library.">
<polygon fill="white" stroke="#666666" points="634,-129 521,-129 521,-110 634,-110 634,-129"/>
<text text-anchor="middle" x="577.5" y="-117" font-family="Helvetica,sans-Serif" font-size="10.00">math/linalg/errors.h</text>
</a>
</g>
</g>
<!-- Node2&#45;&gt;Node10 -->
<g id="edge9_Node000002_Node000010" class="edge">
<title>Node2&#45;&gt;Node10</title>
<g id="a_edge9_Node000002_Node000010"><a xlink:title=" ">
<path fill="none" stroke="#63b8ff" d="M566.94,-538.89C606.6,-519.19 668.5,-479.4 668.5,-423 668.5,-423 668.5,-423 668.5,-355 668.5,-323.19 660.09,-315.99 649.5,-286 644.28,-271.22 603.22,-178.42 585.55,-138.6"/>
<polygon fill="#63b8ff" stroke="#63b8ff" points="588.67,-137.01 581.41,-129.29 582.27,-139.85 588.67,-137.01"/>
</a>
</g>
</g>
<!-- Node11 -->
<g id="Node000011" class="node">
<title>Node11</title>
<g id="a_Node000011"><a xlink:href="matrix__io_8h.html" target="_top" xlink:title="Stream output operators for all matrix types in the trackingLib math library.">
<polygon fill="white" stroke="#666666" points="455,-497.5 324,-497.5 324,-478.5 455,-478.5 455,-497.5"/>
<text text-anchor="middle" x="389.5" y="-485.5" font-family="Helvetica,sans-Serif" font-size="10.00">math/linalg/matrix_io.h</text>
</a>
</g>
</g>
<!-- Node2&#45;&gt;Node11 -->
<g id="edge10_Node000002_Node000011" class="edge">
<title>Node2&#45;&gt;Node11</title>
<g id="a_edge10_Node000002_Node000011"><a xlink:title=" ">
<path fill="none" stroke="#63b8ff" d="M502.68,-538.95C477.47,-527.83 442.57,-512.42 418.21,-501.67"/>
<polygon fill="#63b8ff" stroke="#63b8ff" points="419.36,-498.35 408.8,-497.52 416.53,-504.76 419.36,-498.35"/>
</a>
</g>
</g>
<!-- Node4 -->
<g id="Node000004" class="node">
<title>Node4</title>
<g id="a_Node000004"><a xlink:href="test__config_8h.html" target="_top" xlink:title=" ">
<polygon fill="white" stroke="#666666" points="79,-74 0,-74 0,-55 79,-55 79,-74"/>
<text text-anchor="middle" x="39.5" y="-62" font-family="Helvetica,sans-Serif" font-size="10.00">test_config.h</text>
</a>
</g>
</g>
<!-- Node3&#45;&gt;Node4 -->
<g id="edge3_Node000003_Node000004" class="edge">
<title>Node3&#45;&gt;Node4</title>
<g id="a_edge3_Node000003_Node000004"><a xlink:title=" ">
<path fill="none" stroke="#63b8ff" d="M211.56,-109.98C176.55,-100.93 121.03,-86.58 82.57,-76.64"/>
<polygon fill="#63b8ff" stroke="#63b8ff" points="83.25,-73.2 72.69,-74.08 81.5,-79.97 83.25,-73.2"/>
</a>
</g>
</g>
<!-- Node5 -->
<g id="Node000005" class="node">
<title>Node5</title>
<g id="a_Node000005"><a xlink:href="atomic__types_8h.html" target="_top" xlink:title=" ">
<polygon fill="white" stroke="#666666" points="189.5,-74 97.5,-74 97.5,-55 189.5,-55 189.5,-74"/>
<text text-anchor="middle" x="143.5" y="-62" font-family="Helvetica,sans-Serif" font-size="10.00">atomic_types.h</text>
</a>
</g>
</g>
<!-- Node3&#45;&gt;Node5 -->
<g id="edge4_Node000003_Node000005" class="edge">
<title>Node3&#45;&gt;Node5</title>
<g id="a_edge4_Node000003_Node000005"><a xlink:title=" ">
<path fill="none" stroke="#63b8ff" d="M228.27,-109.98C212.32,-101.61 187.72,-88.7 169.12,-78.95"/>
<polygon fill="#63b8ff" stroke="#63b8ff" points="170.5,-75.72 160.02,-74.17 167.25,-81.92 170.5,-75.72"/>
</a>
</g>
</g>
<!-- Node7 -->
<g id="Node000007" class="node">
<title>Node7</title>
<g id="a_Node000007"><a xlink:title=" ">
<polygon fill="#e0e0e0" stroke="#999999" points="299.5,-74 207.5,-74 207.5,-55 299.5,-55 299.5,-74"/>
<text text-anchor="middle" x="253.5" y="-62" font-family="Helvetica,sans-Serif" font-size="10.00">tl/expected.hpp</text>
</a>
</g>
</g>
<!-- Node3&#45;&gt;Node7 -->
<g id="edge6_Node000003_Node000007" class="edge">
<title>Node3&#45;&gt;Node7</title>
<g id="a_edge6_Node000003_Node000007"><a xlink:title=" ">
<path fill="none" stroke="#63b8ff" d="M245.99,-109.75C247.17,-102.8 248.86,-92.85 250.34,-84.13"/>
<polygon fill="#63b8ff" stroke="#63b8ff" points="253.82,-84.53 252.04,-74.09 246.92,-83.36 253.82,-84.53"/>
</a>
</g>
</g>
<!-- Node8 -->
<g id="Node000008" class="node">
<title>Node8</title>
<g id="a_Node000008"><a xlink:title=" ">
<polygon fill="#e0e0e0" stroke="#999999" points="369.5,-74 317.5,-74 317.5,-55 369.5,-55 369.5,-74"/>
<text text-anchor="middle" x="343.5" y="-62" font-family="Helvetica,sans-Serif" font-size="10.00">cassert</text>
</a>
</g>
</g>
<!-- Node3&#45;&gt;Node8 -->
<g id="edge7_Node000003_Node000008" class="edge">
<title>Node3&#45;&gt;Node8</title>
<g id="a_edge7_Node000003_Node000008"><a xlink:title=" ">
<path fill="none" stroke="#63b8ff" d="M260.41,-109.98C276.05,-101.61 300.16,-88.7 318.38,-78.95"/>
<polygon fill="#63b8ff" stroke="#63b8ff" points="320.14,-81.98 327.3,-74.17 316.84,-75.8 320.14,-81.98"/>
</a>
</g>
</g>
<!-- Node3&#45;&gt;Node9 -->
<g id="edge8_Node000003_Node000009" class="edge">
<title>Node3&#45;&gt;Node9</title>
<g id="a_edge8_Node000003_Node000009"><a xlink:title=" ">
<path fill="none" stroke="#63b8ff" d="M276.95,-109.98C311.46,-100.93 366.16,-86.58 404.06,-76.64"/>
<polygon fill="#63b8ff" stroke="#63b8ff" points="405.01,-80.01 413.79,-74.08 403.23,-73.23 405.01,-80.01"/>
</a>
</g>
</g>
<!-- Node6 -->
<g id="Node000006" class="node">
<title>Node6</title>
<g id="a_Node000006"><a xlink:title=" ">
<polygon fill="#e0e0e0" stroke="#999999" points="168.5,-19 118.5,-19 118.5,0 168.5,0 168.5,-19"/>
<text text-anchor="middle" x="143.5" y="-7" font-family="Helvetica,sans-Serif" font-size="10.00">cstdint</text>
</a>
</g>
</g>
<!-- Node5&#45;&gt;Node6 -->
<g id="edge5_Node000005_Node000006" class="edge">
<title>Node5&#45;&gt;Node6</title>
<g id="a_edge5_Node000005_Node000006"><a xlink:title=" ">
<path fill="none" stroke="#63b8ff" d="M143.5,-54.75C143.5,-47.8 143.5,-37.85 143.5,-29.13"/>
<polygon fill="#63b8ff" stroke="#63b8ff" points="147,-29.09 143.5,-19.09 140,-29.09 147,-29.09"/>
</a>
</g>
</g>
<!-- Node11&#45;&gt;Node3 -->
<g id="edge11_Node000011_Node000003" class="edge">
<title>Node11&#45;&gt;Node3</title>
<g id="a_edge11_Node000011_Node000003"><a xlink:title=" ">
<path fill="none" stroke="#63b8ff" d="M323.81,-482.29C290.03,-476.48 250.77,-463.91 225.5,-437 200.48,-410.36 206.5,-393.54 206.5,-357 206.5,-357 206.5,-357 206.5,-239.5 206.5,-202.07 223.77,-161.03 235.02,-138.25"/>
<polygon fill="#63b8ff" stroke="#63b8ff" points="238.24,-139.65 239.69,-129.15 232.01,-136.46 238.24,-139.65"/>
</a>
</g>
</g>
<!-- Node12 -->
<g id="Node000012" class="node">
<title>Node12</title>
<g id="a_Node000012"><a xlink:href="triangular__matrix_8h.html" target="_top" xlink:title=" ">
<polygon fill="white" stroke="#666666" points="506.5,-437 384.5,-437 384.5,-407 506.5,-407 506.5,-437"/>
<text text-anchor="start" x="392.5" y="-425" font-family="Helvetica,sans-Serif" font-size="10.00">math/linalg/triangular</text>
<text text-anchor="middle" x="445.5" y="-414" font-family="Helvetica,sans-Serif" font-size="10.00">_matrix.h</text>
</a>
</g>
</g>
<!-- Node11&#45;&gt;Node12 -->
<g id="edge12_Node000011_Node000012" class="edge">
<title>Node11&#45;&gt;Node12</title>
<g id="a_edge12_Node000011_Node000012"><a xlink:title=" ">
<path fill="none" stroke="#63b8ff" d="M397.05,-478.37C404.52,-469.83 416.27,-456.41 426.32,-444.92"/>
<polygon fill="#63b8ff" stroke="#63b8ff" points="428.98,-447.19 432.93,-437.36 423.72,-442.58 428.98,-447.19"/>
</a>
</g>
</g>
<!-- Node17 -->
<g id="Node000017" class="node">
<title>Node17</title>
<g id="a_Node000017"><a xlink:title=" ">
<polygon fill="#e0e0e0" stroke="#999999" points="1107,-74 1038,-74 1038,-55 1107,-55 1107,-74"/>
<text text-anchor="middle" x="1072.5" y="-62" font-family="Helvetica,sans-Serif" font-size="10.00">type_traits</text>
</a>
</g>
</g>
<!-- Node11&#45;&gt;Node17 -->
<g id="edge43_Node000011_Node000017" class="edge">
<title>Node11&#45;&gt;Node17</title>
<g id="a_edge43_Node000011_Node000017"><a xlink:title=" ">
<path fill="none" stroke="#63b8ff" d="M414.08,-478.39C439.8,-469.12 481.12,-453.48 515.5,-437 682.78,-356.82 704.45,-295.16 878.5,-231 957.91,-201.73 988.3,-229.7 1065.5,-195 1068.25,-193.77 1150.17,-131.7 1151.5,-129 1162.85,-105.98 1135.62,-88.58 1110.09,-77.86"/>
<polygon fill="#63b8ff" stroke="#63b8ff" points="1111.06,-74.48 1100.47,-74.09 1108.5,-81 1111.06,-74.48"/>
</a>
</g>
</g>
<!-- Node26 -->
<g id="Node000026" class="node">
<title>Node26</title>
<g id="a_Node000026"><a xlink:title=" ">
<polygon fill="#e0e0e0" stroke="#999999" points="290.5,-431.5 234.5,-431.5 234.5,-412.5 290.5,-412.5 290.5,-431.5"/>
<text text-anchor="middle" x="262.5" y="-419.5" font-family="Helvetica,sans-Serif" font-size="10.00">iomanip</text>
</a>
</g>
</g>
<!-- Node11&#45;&gt;Node26 -->
<g id="edge41_Node000011_Node000026" class="edge">
<title>Node11&#45;&gt;Node26</title>
<g id="a_edge41_Node000011_Node000026"><a xlink:title=" ">
<path fill="none" stroke="#63b8ff" d="M372.37,-478.37C350.88,-467.54 313.8,-448.85 288.73,-436.22"/>
<polygon fill="#63b8ff" stroke="#63b8ff" points="290.27,-433.07 279.76,-431.7 287.12,-439.32 290.27,-433.07"/>
</a>
</g>
</g>
<!-- Node27 -->
<g id="Node000027" class="node">
<title>Node27</title>
<g id="a_Node000027"><a xlink:title=" ">
<polygon fill="#e0e0e0" stroke="#999999" points="366,-431.5 309,-431.5 309,-412.5 366,-412.5 366,-431.5"/>
<text text-anchor="middle" x="337.5" y="-419.5" font-family="Helvetica,sans-Serif" font-size="10.00">ostream</text>
</a>
</g>
</g>
<!-- Node11&#45;&gt;Node27 -->
<g id="edge42_Node000011_Node000027" class="edge">
<title>Node11&#45;&gt;Node27</title>
<g id="a_edge42_Node000011_Node000027"><a xlink:title=" ">
<path fill="none" stroke="#63b8ff" d="M382.49,-478.37C374.47,-468.5 361.15,-452.11 351.08,-439.72"/>
<polygon fill="#63b8ff" stroke="#63b8ff" points="353.76,-437.46 344.74,-431.91 348.33,-441.87 353.76,-437.46"/>
</a>
</g>
</g>
<!-- Node12&#45;&gt;Node3 -->
<g id="edge13_Node000012_Node000003" class="edge">
<title>Node12&#45;&gt;Node3</title>
<g id="a_edge13_Node000012_Node000003"><a xlink:title=" ">
<path fill="none" stroke="#63b8ff" d="M384.98,-406.89C337.2,-395.26 277.18,-379.37 268.5,-371 243.46,-346.85 244.5,-331.29 244.5,-296.5 244.5,-296.5 244.5,-296.5 244.5,-239.5 244.5,-204.15 244.5,-162.9 244.5,-139.42"/>
<polygon fill="#63b8ff" stroke="#63b8ff" points="248,-139.16 244.5,-129.16 241,-139.16 248,-139.16"/>
</a>
</g>
</g>
<!-- Node12&#45;&gt;Node9 -->
<g id="edge40_Node000012_Node000009" class="edge">
<title>Node12&#45;&gt;Node9</title>
<g id="a_edge40_Node000012_Node000009"><a xlink:title=" ">
<path fill="none" stroke="#63b8ff" d="M397.48,-406.95C349.4,-389.57 282.5,-354.9 282.5,-296.5 282.5,-296.5 282.5,-296.5 282.5,-239.5 282.5,-160.86 372.31,-103.32 419.01,-78.72"/>
<polygon fill="#63b8ff" stroke="#63b8ff" points="420.7,-81.78 428.01,-74.11 417.51,-75.56 420.7,-81.78"/>
</a>
</g>
</g>
<!-- Node13 -->
<g id="Node000013" class="node">
<title>Node13</title>
<g id="a_Node000013"><a xlink:href="square__matrix_8h.html" target="_top" xlink:title=" ">
<polygon fill="white" stroke="#666666" points="501.5,-371 393.5,-371 393.5,-341 501.5,-341 501.5,-371"/>
<text text-anchor="start" x="401.5" y="-359" font-family="Helvetica,sans-Serif" font-size="10.00">math/linalg/square</text>
<text text-anchor="middle" x="447.5" y="-348" font-family="Helvetica,sans-Serif" font-size="10.00">_matrix.h</text>
</a>
</g>
</g>
<!-- Node12&#45;&gt;Node13 -->
<g id="edge14_Node000012_Node000013" class="edge">
<title>Node12&#45;&gt;Node13</title>
<g id="a_edge14_Node000012_Node000013"><a xlink:title=" ">
<path fill="none" stroke="#63b8ff" d="M445.94,-406.8C446.18,-399.34 446.47,-389.99 446.74,-381.41"/>
<polygon fill="#63b8ff" stroke="#63b8ff" points="450.24,-381.27 447.06,-371.16 443.25,-381.05 450.24,-381.27"/>
</a>
</g>
</g>
<!-- Node13&#45;&gt;Node3 -->
<g id="edge15_Node000013_Node000003" class="edge">
<title>Node13&#45;&gt;Node3</title>
<g id="a_edge15_Node000013_Node000003"><a xlink:title=" ">
<path fill="none" stroke="#63b8ff" d="M426.11,-340.8C412.82,-331.45 395.8,-318.48 382.5,-305 328.04,-249.8 276.92,-172.4 255.32,-138.08"/>
<polygon fill="#63b8ff" stroke="#63b8ff" points="258.07,-135.87 249.81,-129.23 252.13,-139.57 258.07,-135.87"/>
</a>
</g>
</g>
<!-- Node13&#45;&gt;Node9 -->
<g id="edge38_Node000013_Node000009" class="edge">
<title>Node13&#45;&gt;Node9</title>
<g id="a_edge38_Node000013_Node000009"><a xlink:title=" ">
<path fill="none" stroke="#63b8ff" d="M436.43,-340.87C421.43,-320.25 396.5,-280.17 396.5,-241.5 396.5,-241.5 396.5,-241.5 396.5,-179 396.5,-142.05 418.97,-103.64 433.78,-82.33"/>
<polygon fill="#63b8ff" stroke="#63b8ff" points="436.74,-84.2 439.76,-74.05 431.07,-80.11 436.74,-84.2"/>
</a>
</g>
</g>
<!-- Node13&#45;&gt;Node10 -->
<g id="edge16_Node000013_Node000010" class="edge">
<title>Node13&#45;&gt;Node10</title>
<g id="a_edge16_Node000013_Node000010"><a xlink:title=" ">
<path fill="none" stroke="#63b8ff" d="M457.06,-340.75C463.59,-330.85 472.32,-317.28 479.5,-305 514.5,-245.09 551.92,-171.7 568.59,-138.42"/>
<polygon fill="#63b8ff" stroke="#63b8ff" points="571.91,-139.6 573.25,-129.09 565.65,-136.48 571.91,-139.6"/>
</a>
</g>
</g>
<!-- Node14 -->
<g id="Node000014" class="node">
<title>Node14</title>
<g id="a_Node000014"><a xlink:href="matrix_8h.html" target="_top" xlink:title=" ">
<polygon fill="white" stroke="#666666" points="801.5,-250 685.5,-250 685.5,-231 801.5,-231 801.5,-250"/>
<text text-anchor="middle" x="743.5" y="-238" font-family="Helvetica,sans-Serif" font-size="10.00">math/linalg/matrix.h</text>
</a>
</g>
</g>
<!-- Node13&#45;&gt;Node14 -->
<g id="edge17_Node000013_Node000014" class="edge">
<title>Node13&#45;&gt;Node14</title>
<g id="a_edge17_Node000013_Node000014"><a xlink:title=" ">
<path fill="none" stroke="#63b8ff" d="M501.93,-346.88C543.59,-339.41 601.8,-326.21 649.5,-305 678.11,-292.28 707.44,-270.87 725.56,-256.47"/>
<polygon fill="#63b8ff" stroke="#63b8ff" points="727.94,-259.04 733.5,-250.03 723.53,-253.61 727.94,-259.04"/>
</a>
</g>
</g>
<!-- Node24 -->
<g id="Node000024" class="node">
<title>Node24</title>
<g id="a_Node000024"><a xlink:href="vector_8h.html" target="_top" xlink:title=" ">
<polygon fill="white" stroke="#666666" points="640.5,-305 526.5,-305 526.5,-286 640.5,-286 640.5,-305"/>
<text text-anchor="middle" x="583.5" y="-293" font-family="Helvetica,sans-Serif" font-size="10.00">math/linalg/vector.h</text>
</a>
</g>
</g>
<!-- Node13&#45;&gt;Node24 -->
<g id="edge34_Node000013_Node000024" class="edge">
<title>Node13&#45;&gt;Node24</title>
<g id="a_edge34_Node000013_Node000024"><a xlink:title=" ">
<path fill="none" stroke="#63b8ff" d="M480.08,-340.99C502.56,-331.31 532.22,-318.56 554.01,-309.18"/>
<polygon fill="#63b8ff" stroke="#63b8ff" points="555.61,-312.31 563.42,-305.14 552.85,-305.88 555.61,-312.31"/>
</a>
</g>
</g>
<!-- Node25 -->
<g id="Node000025" class="node">
<title>Node25</title>
<g id="a_Node000025"><a xlink:title=" ">
<polygon fill="#e0e0e0" stroke="#999999" points="470,-305 425,-305 425,-286 470,-286 470,-305"/>
<text text-anchor="middle" x="447.5" y="-293" font-family="Helvetica,sans-Serif" font-size="10.00">utility</text>
</a>
</g>
</g>
<!-- Node13&#45;&gt;Node25 -->
<g id="edge39_Node000013_Node000025" class="edge">
<title>Node13&#45;&gt;Node25</title>
<g id="a_edge39_Node000013_Node000025"><a xlink:title=" ">
<path fill="none" stroke="#63b8ff" d="M447.5,-340.84C447.5,-333.21 447.5,-323.7 447.5,-315.45"/>
<polygon fill="#63b8ff" stroke="#63b8ff" points="451,-315.27 447.5,-305.27 444,-315.27 451,-315.27"/>
</a>
</g>
</g>
<!-- Node14&#45;&gt;Node3 -->
<g id="edge18_Node000014_Node000003" class="edge">
<title>Node14&#45;&gt;Node3</title>
<g id="a_edge18_Node000014_Node000003"><a xlink:title=" ">
<path fill="none" stroke="#63b8ff" d="M707.61,-230.94C618.8,-209.76 388.82,-154.92 290.34,-131.43"/>
<polygon fill="#63b8ff" stroke="#63b8ff" points="290.94,-127.98 280.4,-129.06 289.31,-134.78 290.94,-127.98"/>
</a>
</g>
</g>
<!-- Node14&#45;&gt;Node9 -->
<g id="edge32_Node000014_Node000009" class="edge">
<title>Node14&#45;&gt;Node9</title>
<g id="a_edge32_Node000014_Node000009"><a xlink:title=" ">
<path fill="none" stroke="#63b8ff" d="M727.46,-230.92C714,-223.05 695.03,-210.32 682.5,-195 656.19,-162.82 675.78,-136.18 643.5,-110 621.53,-92.18 548.97,-79.14 498.34,-71.94"/>
<polygon fill="#63b8ff" stroke="#63b8ff" points="498.59,-68.44 488.21,-70.53 497.63,-75.38 498.59,-68.44"/>
</a>
</g>
</g>
<!-- Node14&#45;&gt;Node10 -->
<g id="edge28_Node000014_Node000010" class="edge">
<title>Node14&#45;&gt;Node10</title>
<g id="a_edge28_Node000014_Node000010"><a xlink:title=" ">
<path fill="none" stroke="#63b8ff" d="M719.13,-230.98C699.1,-223.32 670.53,-210.85 648.5,-195 625.5,-178.45 603.74,-153.8 590.52,-137.45"/>
<polygon fill="#63b8ff" stroke="#63b8ff" points="593.04,-135 584.1,-129.32 587.55,-139.34 593.04,-135"/>
</a>
</g>
</g>
<!-- Node15 -->
<g id="Node000015" class="node">
<title>Node15</title>
<g id="a_Node000015"><a xlink:href="matrix__intf_8h.html" target="_top" xlink:title=" ">
<polygon fill="white" stroke="#666666" points="1056.5,-195 936.5,-195 936.5,-165 1056.5,-165 1056.5,-195"/>
<text text-anchor="start" x="944.5" y="-183" font-family="Helvetica,sans-Serif" font-size="10.00">math/linalg/contracts</text>
<text text-anchor="middle" x="996.5" y="-172" font-family="Helvetica,sans-Serif" font-size="10.00">/matrix_intf.h</text>
</a>
</g>
</g>
<!-- Node14&#45;&gt;Node15 -->
<g id="edge19_Node000014_Node000015" class="edge">
<title>Node14&#45;&gt;Node15</title>
<g id="a_edge19_Node000014_Node000015"><a xlink:title=" ">
<path fill="none" stroke="#63b8ff" d="M780.29,-230.99C818.42,-222.18 878.95,-208.18 926.28,-197.24"/>
<polygon fill="#63b8ff" stroke="#63b8ff" points="927.21,-200.61 936.16,-194.95 925.63,-193.79 927.21,-200.61"/>
</a>
</g>
</g>
<!-- Node20 -->
<g id="Node000020" class="node">
<title>Node20</title>
<g id="a_Node000020"><a xlink:href="matrix__types_8h.html" target="_top" xlink:title="Type definitions and enumerations for matrix operations.">
<polygon fill="white" stroke="#666666" points="798,-195 691,-195 691,-165 798,-165 798,-195"/>
<text text-anchor="start" x="699" y="-183" font-family="Helvetica,sans-Serif" font-size="10.00">math/linalg/matrix</text>
<text text-anchor="middle" x="744.5" y="-172" font-family="Helvetica,sans-Serif" font-size="10.00">_types.h</text>
</a>
</g>
</g>
<!-- Node14&#45;&gt;Node20 -->
<g id="edge29_Node000014_Node000020" class="edge">
<title>Node14&#45;&gt;Node20</title>
<g id="a_edge29_Node000014_Node000020"><a xlink:title=" ">
<path fill="none" stroke="#63b8ff" d="M743.65,-230.87C743.76,-224.11 743.93,-214.35 744.09,-205.26"/>
<polygon fill="#63b8ff" stroke="#63b8ff" points="747.59,-205.17 744.26,-195.11 740.59,-205.05 747.59,-205.17"/>
</a>
</g>
</g>
<!-- Node21 -->
<g id="Node000021" class="node">
<title>Node21</title>
<g id="a_Node000021"><a xlink:title=" ">
<polygon fill="#e0e0e0" stroke="#999999" points="1228.5,-189.5 1164.5,-189.5 1164.5,-170.5 1228.5,-170.5 1228.5,-189.5"/>
<text text-anchor="middle" x="1196.5" y="-177.5" font-family="Helvetica,sans-Serif" font-size="10.00">algorithm</text>
</a>
</g>
</g>
<!-- Node14&#45;&gt;Node21 -->
<g id="edge30_Node000014_Node000021" class="edge">
<title>Node14&#45;&gt;Node21</title>
<g id="a_edge30_Node000014_Node000021"><a xlink:title=" ">
<path fill="none" stroke="#63b8ff" d="M801.79,-231.97C894.3,-220.03 1072.56,-197 1154.02,-186.49"/>
<polygon fill="#63b8ff" stroke="#63b8ff" points="1154.92,-189.9 1164.39,-185.15 1154.02,-182.96 1154.92,-189.9"/>
</a>
</g>
</g>
<!-- Node22 -->
<g id="Node000022" class="node">
<title>Node22</title>
<g id="a_Node000022"><a xlink:title=" ">
<polygon fill="#e0e0e0" stroke="#999999" points="858.5,-189.5 816.5,-189.5 816.5,-170.5 858.5,-170.5 858.5,-189.5"/>
<text text-anchor="middle" x="837.5" y="-177.5" font-family="Helvetica,sans-Serif" font-size="10.00">array</text>
</a>
</g>
</g>
<!-- Node14&#45;&gt;Node22 -->
<g id="edge31_Node000014_Node000022" class="edge">
<title>Node14&#45;&gt;Node22</title>
<g id="a_edge31_Node000014_Node000022"><a xlink:title=" ">
<path fill="none" stroke="#63b8ff" d="M757.37,-230.87C772.5,-221.45 796.96,-206.23 814.88,-195.08"/>
<polygon fill="#63b8ff" stroke="#63b8ff" points="816.93,-197.92 823.57,-189.67 813.23,-191.98 816.93,-197.92"/>
</a>
</g>
</g>
<!-- Node23 -->
<g id="Node000023" class="node">
<title>Node23</title>
<g id="a_Node000023"><a xlink:title=" ">
<polygon fill="#e0e0e0" stroke="#999999" points="918,-189.5 877,-189.5 877,-170.5 918,-170.5 918,-189.5"/>
<text text-anchor="middle" x="897.5" y="-177.5" font-family="Helvetica,sans-Serif" font-size="10.00">tuple</text>
</a>
</g>
</g>
<!-- Node14&#45;&gt;Node23 -->
<g id="edge33_Node000014_Node000023" class="edge">
<title>Node14&#45;&gt;Node23</title>
<g id="a_edge33_Node000014_Node000023"><a xlink:title=" ">
<path fill="none" stroke="#63b8ff" d="M769.41,-230.98C794.68,-222.49 834.08,-208.76 867.5,-195 868.51,-194.58 869.53,-194.15 870.57,-193.71"/>
<polygon fill="#63b8ff" stroke="#63b8ff" points="872.15,-196.84 879.85,-189.56 869.29,-190.45 872.15,-196.84"/>
</a>
</g>
</g>
<!-- Node15&#45;&gt;Node3 -->
<g id="edge20_Node000015_Node000003" class="edge">
<title>Node15&#45;&gt;Node3</title>
<g id="a_edge20_Node000015_Node000003"><a xlink:title=" ">
<path fill="none" stroke="#63b8ff" d="M936.37,-166.3C933.38,-165.83 930.41,-165.39 927.5,-165 702.32,-134.96 432.56,-124.97 310.38,-121.84"/>
<polygon fill="#63b8ff" stroke="#63b8ff" points="310.17,-118.33 300.08,-121.58 309.99,-125.33 310.17,-118.33"/>
</a>
</g>
</g>
<!-- Node15&#45;&gt;Node10 -->
<g id="edge27_Node000015_Node000010" class="edge">
<title>Node15&#45;&gt;Node10</title>
<g id="a_edge27_Node000015_Node000010"><a xlink:title=" ">
<path fill="none" stroke="#63b8ff" d="M936.34,-166.52C933.35,-165.99 930.39,-165.48 927.5,-165 829.28,-148.81 714.72,-135.25 644.15,-127.49"/>
<polygon fill="#63b8ff" stroke="#63b8ff" points="644.38,-124 634.06,-126.39 643.62,-130.96 644.38,-124"/>
</a>
</g>
</g>
<!-- Node16 -->
<g id="Node000016" class="node">
<title>Node16</title>
<g id="a_Node000016"><a xlink:href="interface__contract_8h.html" target="_top" xlink:title=" ">
<polygon fill="white" stroke="#666666" points="1142.5,-129 1002.5,-129 1002.5,-110 1142.5,-110 1142.5,-129"/>
<text text-anchor="middle" x="1072.5" y="-117" font-family="Helvetica,sans-Serif" font-size="10.00">base/interface_contract.h</text>
</a>
</g>
</g>
<!-- Node15&#45;&gt;Node16 -->
<g id="edge21_Node000015_Node000016" class="edge">
<title>Node15&#45;&gt;Node16</title>
<g id="a_edge21_Node000015_Node000016"><a xlink:title=" ">
<path fill="none" stroke="#63b8ff" d="M1014.9,-164.84C1026.38,-156 1041.15,-144.63 1052.86,-135.62"/>
<polygon fill="#63b8ff" stroke="#63b8ff" points="1055.32,-138.14 1061.11,-129.27 1051.05,-132.59 1055.32,-138.14"/>
</a>
</g>
</g>
<!-- Node18 -->
<g id="Node000018" class="node">
<title>Node18</title>
<g id="a_Node000018"><a xlink:href="require__copy__intf_8h.html" target="_top" xlink:title=" ">
<polygon fill="white" stroke="#666666" points="984.5,-129 848.5,-129 848.5,-110 984.5,-110 984.5,-129"/>
<text text-anchor="middle" x="916.5" y="-117" font-family="Helvetica,sans-Serif" font-size="10.00">base/require_copy_intf.h</text>
</a>
</g>
</g>
<!-- Node15&#45;&gt;Node18 -->
<g id="edge23_Node000015_Node000018" class="edge">
<title>Node15&#45;&gt;Node18</title>
<g id="a_edge23_Node000015_Node000018"><a xlink:title=" ">
<path fill="none" stroke="#63b8ff" d="M977.13,-164.84C964.93,-155.91 949.19,-144.41 936.81,-135.35"/>
<polygon fill="#63b8ff" stroke="#63b8ff" points="938.63,-132.34 928.49,-129.27 934.49,-137.99 938.63,-132.34"/>
</a>
</g>
</g>
<!-- Node19 -->
<g id="Node000019" class="node">
<title>Node19</title>
<g id="a_Node000019"><a xlink:href="require__move__intf_8h.html" target="_top" xlink:title=" ">
<polygon fill="white" stroke="#666666" points="830.5,-129 690.5,-129 690.5,-110 830.5,-110 830.5,-129"/>
<text text-anchor="middle" x="760.5" y="-117" font-family="Helvetica,sans-Serif" font-size="10.00">base/require_move_intf.h</text>
</a>
</g>
</g>
<!-- Node15&#45;&gt;Node19 -->
<g id="edge25_Node000015_Node000019" class="edge">
<title>Node15&#45;&gt;Node19</title>
<g id="a_edge25_Node000015_Node000019"><a xlink:title=" ">
<path fill="none" stroke="#63b8ff" d="M939.97,-164.99C898.54,-154.72 843.07,-140.97 804.83,-131.49"/>
<polygon fill="#63b8ff" stroke="#63b8ff" points="805.56,-128.06 795.01,-129.05 803.87,-134.86 805.56,-128.06"/>
</a>
</g>
</g>
<!-- Node16&#45;&gt;Node17 -->
<g id="edge22_Node000016_Node000017" class="edge">
<title>Node16&#45;&gt;Node17</title>
<g id="a_edge22_Node000016_Node000017"><a xlink:title=" ">
<path fill="none" stroke="#63b8ff" d="M1072.5,-109.75C1072.5,-102.8 1072.5,-92.85 1072.5,-84.13"/>
<polygon fill="#63b8ff" stroke="#63b8ff" points="1076,-84.09 1072.5,-74.09 1069,-84.09 1076,-84.09"/>
</a>
</g>
</g>
<!-- Node18&#45;&gt;Node17 -->
<g id="edge24_Node000018_Node000017" class="edge">
<title>Node18&#45;&gt;Node17</title>
<g id="a_edge24_Node000018_Node000017"><a xlink:title=" ">
<path fill="none" stroke="#63b8ff" d="M941.56,-109.98C967.53,-101.16 1008.31,-87.31 1037.46,-77.41"/>
<polygon fill="#63b8ff" stroke="#63b8ff" points="1038.9,-80.61 1047.24,-74.08 1036.65,-73.99 1038.9,-80.61"/>
</a>
</g>
</g>
<!-- Node19&#45;&gt;Node17 -->
<g id="edge26_Node000019_Node000017" class="edge">
<title>Node19&#45;&gt;Node17</title>
<g id="a_edge26_Node000019_Node000017"><a xlink:title=" ">
<path fill="none" stroke="#63b8ff" d="M810.63,-109.98C870.75,-99.77 970.61,-82.81 1028.08,-73.05"/>
<polygon fill="#63b8ff" stroke="#63b8ff" points="1028.68,-76.49 1037.95,-71.37 1027.51,-69.59 1028.68,-76.49"/>
</a>
</g>
</g>
<!-- Node24&#45;&gt;Node3 -->
<g id="edge35_Node000024_Node000003" class="edge">
<title>Node24&#45;&gt;Node3</title>
<g id="a_edge35_Node000024_Node000003"><a xlink:title=" ">
<path fill="none" stroke="#63b8ff" d="M567.24,-285.9C527.6,-264.96 422.72,-209.74 334.5,-165 313.38,-154.29 289.33,-142.42 271.41,-133.63"/>
<polygon fill="#63b8ff" stroke="#63b8ff" points="272.66,-130.34 262.14,-129.09 269.59,-136.63 272.66,-130.34"/>
</a>
</g>
</g>
<!-- Node24&#45;&gt;Node9 -->
<g id="edge37_Node000024_Node000009" class="edge">
<title>Node24&#45;&gt;Node9</title>
<g id="a_edge37_Node000024_Node000009"><a xlink:title=" ">
<path fill="none" stroke="#63b8ff" d="M578.3,-285.8C558.08,-252.01 484.5,-129.02 456.98,-83.02"/>
<polygon fill="#63b8ff" stroke="#63b8ff" points="459.85,-80.99 451.71,-74.21 453.84,-84.58 459.85,-80.99"/>
</a>
</g>
</g>
<!-- Node24&#45;&gt;Node14 -->
<g id="edge36_Node000024_Node000014" class="edge">
<title>Node24&#45;&gt;Node14</title>
<g id="a_edge36_Node000024_Node000014"><a xlink:title=" ">
<path fill="none" stroke="#63b8ff" d="M609.21,-285.98C635.95,-277.13 678.03,-263.19 707.95,-253.28"/>
<polygon fill="#63b8ff" stroke="#63b8ff" points="709.2,-256.55 717.59,-250.08 707,-249.9 709.2,-256.55"/>
</a>
</g>
</g>
<!-- Node28&#45;&gt;Node14 -->
<g id="edge46_Node000028_Node000014" class="edge">
<title>Node28&#45;&gt;Node14</title>
<g id="a_edge46_Node000028_Node000014"><a xlink:title=" ">
<path fill="none" stroke="#63b8ff" d="M926.47,-285.98C889,-276.87 829.45,-262.4 788.52,-252.45"/>
<polygon fill="#63b8ff" stroke="#63b8ff" points="789.34,-249.04 778.8,-250.08 787.69,-255.85 789.34,-249.04"/>
</a>
</g>
</g>
<!-- Node28&#45;&gt;Node17 -->
<g id="edge53_Node000028_Node000017" class="edge">
<title>Node28&#45;&gt;Node17</title>
<g id="a_edge53_Node000028_Node000017"><a xlink:title=" ">
<path fill="none" stroke="#63b8ff" d="M937.23,-285.84C909,-274.48 868.54,-253.33 887.5,-231 951.34,-155.81 1016.95,-236.35 1106.5,-195 1127.11,-185.48 1174.95,-149.6 1184.5,-129 1199.16,-97.4 1154.46,-80.74 1117.24,-72.54"/>
<polygon fill="#63b8ff" stroke="#63b8ff" points="1117.5,-69.02 1107,-70.45 1116.1,-75.88 1117.5,-69.02"/>
</a>
</g>
</g>
<!-- Node28&#45;&gt;Node21 -->
<g id="edge47_Node000028_Node000021" class="edge">
<title>Node28&#45;&gt;Node21</title>
<g id="a_edge47_Node000028_Node000021"><a xlink:title=" ">
<path fill="none" stroke="#63b8ff" d="M1025.54,-288.82C1081.4,-282.57 1156.8,-270.58 1178.5,-250 1192.09,-237.11 1195.9,-215.36 1196.75,-199.72"/>
<polygon fill="#63b8ff" stroke="#63b8ff" points="1200.25,-199.69 1196.94,-189.63 1193.25,-199.56 1200.25,-199.69"/>
</a>
</g>
</g>
<!-- Node29 -->
<g id="Node000029" class="node">
<title>Node29</title>
<g id="a_Node000029"><a xlink:title=" ">
<polygon fill="#e0e0e0" stroke="#999999" points="1273,-250 1226,-250 1226,-231 1273,-231 1273,-250"/>
<text text-anchor="middle" x="1249.5" y="-238" font-family="Helvetica,sans-Serif" font-size="10.00">cmath</text>
</a>
</g>
</g>
<!-- Node28&#45;&gt;Node29 -->
<g id="edge48_Node000028_Node000029" class="edge">
<title>Node28&#45;&gt;Node29</title>
<g id="a_edge48_Node000028_Node000029"><a xlink:title=" ">
<path fill="none" stroke="#63b8ff" d="M1013.34,-285.96C1063.98,-277.45 1143.21,-263.71 1211.5,-250 1212.95,-249.71 1214.43,-249.41 1215.92,-249.09"/>
<polygon fill="#63b8ff" stroke="#63b8ff" points="1216.78,-252.49 1225.82,-246.97 1215.31,-245.65 1216.78,-252.49"/>
</a>
</g>
</g>
<!-- Node30 -->
<g id="Node000030" class="node">
<title>Node30</title>
<g id="a_Node000030"><a xlink:title=" ">
<polygon fill="#e0e0e0" stroke="#999999" points="961,-250 896,-250 896,-231 961,-231 961,-250"/>
<text text-anchor="middle" x="928.5" y="-238" font-family="Helvetica,sans-Serif" font-size="10.00">functional</text>
</a>
</g>
</g>
<!-- Node28&#45;&gt;Node30 -->
<g id="edge49_Node000028_Node000030" class="edge">
<title>Node28&#45;&gt;Node30</title>
<g id="a_edge49_Node000028_Node000030"><a xlink:title=" ">
<path fill="none" stroke="#63b8ff" d="M956.05,-285.75C951.49,-278.42 944.83,-267.73 939.21,-258.7"/>
<polygon fill="#63b8ff" stroke="#63b8ff" points="942.1,-256.73 933.85,-250.09 936.16,-260.43 942.1,-256.73"/>
</a>
</g>
</g>
<!-- Node31 -->
<g id="Node000031" class="node">
<title>Node31</title>
<g id="a_Node000031"><a xlink:title=" ">
<polygon fill="#e0e0e0" stroke="#999999" points="1023.5,-250 979.5,-250 979.5,-231 1023.5,-231 1023.5,-250"/>
<text text-anchor="middle" x="1001.5" y="-238" font-family="Helvetica,sans-Serif" font-size="10.00">limits</text>
</a>
</g>
</g>
<!-- Node28&#45;&gt;Node31 -->
<g id="edge50_Node000028_Node000031" class="edge">
<title>Node28&#45;&gt;Node31</title>
<g id="a_edge50_Node000028_Node000031"><a xlink:title=" ">
<path fill="none" stroke="#63b8ff" d="M968.11,-285.75C973.76,-278.26 982.04,-267.28 988.95,-258.13"/>
<polygon fill="#63b8ff" stroke="#63b8ff" points="991.79,-260.18 995.02,-250.09 986.2,-255.96 991.79,-260.18"/>
</a>
</g>
</g>
<!-- Node32 -->
<g id="Node000032" class="node">
<title>Node32</title>
<g id="a_Node000032"><a xlink:title=" ">
<polygon fill="#e0e0e0" stroke="#999999" points="1107,-250 1042,-250 1042,-231 1107,-231 1107,-250"/>
<text text-anchor="middle" x="1074.5" y="-238" font-family="Helvetica,sans-Serif" font-size="10.00">stdexcept</text>
</a>
</g>
</g>
<!-- Node28&#45;&gt;Node32 -->
<g id="edge51_Node000028_Node000032" class="edge">
<title>Node28&#45;&gt;Node32</title>
<g id="a_edge51_Node000028_Node000032"><a xlink:title=" ">
<path fill="none" stroke="#63b8ff" d="M979.66,-285.98C997.75,-277.5 1025.78,-264.35 1046.69,-254.54"/>
<polygon fill="#63b8ff" stroke="#63b8ff" points="1048.45,-257.59 1056.01,-250.17 1045.47,-251.25 1048.45,-257.59"/>
</a>
</g>
</g>
<!-- Node33 -->
<g id="Node000033" class="node">
<title>Node33</title>
<g id="a_Node000033"><a xlink:title=" ">
<polygon fill="#e0e0e0" stroke="#999999" points="1169.5,-250 1125.5,-250 1125.5,-231 1169.5,-231 1169.5,-250"/>
<text text-anchor="middle" x="1147.5" y="-238" font-family="Helvetica,sans-Serif" font-size="10.00">string</text>
</a>
</g>
</g>
<!-- Node28&#45;&gt;Node33 -->
<g id="edge52_Node000028_Node000033" class="edge">
<title>Node28&#45;&gt;Node33</title>
<g id="a_edge52_Node000028_Node000033"><a xlink:title=" ">
<path fill="none" stroke="#63b8ff" d="M991.38,-285.98C1025.41,-276.29 1080.76,-260.52 1115.6,-250.59"/>
<polygon fill="#63b8ff" stroke="#63b8ff" points="1116.62,-253.94 1125.28,-247.83 1114.7,-247.21 1116.62,-253.94"/>
</a>
</g>
</g>
<!-- Node34&#45;&gt;Node12 -->
<g id="edge55_Node000034_Node000012" class="edge">
<title>Node34&#45;&gt;Node12</title>
<g id="a_edge55_Node000034_Node000012"><a xlink:title=" ">
<path fill="none" stroke="#63b8ff" d="M720.26,-475.34C662.8,-464.39 576.87,-448.02 516.44,-436.51"/>
<polygon fill="#63b8ff" stroke="#63b8ff" points="517.08,-433.07 506.6,-434.64 515.77,-439.95 517.08,-433.07"/>
</a>
</g>
</g>
<!-- Node34&#45;&gt;Node28 -->
<g id="edge56_Node000034_Node000028" class="edge">
<title>Node34&#45;&gt;Node28</title>
<g id="a_edge56_Node000034_Node000028"><a xlink:title=" ">
<path fill="none" stroke="#63b8ff" d="M785.18,-472.96C793.35,-444.4 815.58,-379.01 856.5,-341 873.08,-325.6 895.79,-315.08 915.84,-308.15"/>
<polygon fill="#63b8ff" stroke="#63b8ff" points="917.01,-311.45 925.44,-305.04 914.84,-304.8 917.01,-311.45"/>
</a>
</g>
</g>
<!-- Node35&#45;&gt;Node24 -->
<g id="edge58_Node000035_Node000024" class="edge">
<title>Node35&#45;&gt;Node24</title>
<g id="a_edge58_Node000035_Node000024"><a xlink:title=" ">
<path fill="none" stroke="#63b8ff" d="M906.54,-346.49C838.09,-335.9 721.32,-317.83 648.5,-306.56"/>
<polygon fill="#63b8ff" stroke="#63b8ff" points="648.95,-303.09 638.53,-305.02 647.88,-310 648.95,-303.09"/>
</a>
</g>
</g>
<!-- Node35&#45;&gt;Node28 -->
<g id="edge59_Node000035_Node000028" class="edge">
<title>Node35&#45;&gt;Node28</title>
<g id="a_edge59_Node000035_Node000028"><a xlink:title=" ">
<path fill="none" stroke="#63b8ff" d="M961.5,-346.37C961.5,-338.25 961.5,-325.81 961.5,-315.39"/>
<polygon fill="#63b8ff" stroke="#63b8ff" points="965,-315.17 961.5,-305.17 958,-315.17 965,-315.17"/>
</a>
</g>
</g>
<!-- Node35&#45;&gt;Node29 -->
<g id="edge60_Node000035_Node000029" class="edge">
<title>Node35&#45;&gt;Node29</title>
<g id="a_edge60_Node000035_Node000029"><a xlink:title=" ">
<path fill="none" stroke="#63b8ff" d="M983.15,-346.47C1033.6,-326.59 1159.18,-277.09 1218.08,-253.88"/>
<polygon fill="#63b8ff" stroke="#63b8ff" points="1219.58,-257.05 1227.6,-250.13 1217.02,-250.54 1219.58,-257.05"/>
</a>
</g>
</g>
</g>
</svg>
