<?xml version="1.0" encoding="UTF-8" standalone="no"?>
<!DOCTYPE svg PUBLIC "-//W3C//DTD SVG 1.1//EN"
 "http://www.w3.org/Graphics/SVG/1.1/DTD/svg11.dtd">
<!-- Generated by graphviz version 2.43.0 (0)
 -->
<!-- Title: include/trackingLib/math/linalg/diagonal_matrix.h Pages: 1 -->
<!--zoomable 577 -->

<svg id="main" version="1.1" xmlns="http://www.w3.org/2000/svg" xmlns:xlink="http://www.w3.org/1999/xlink" xml:space="preserve" onload="init(evt)">
<style type="text/css"><![CDATA[
.node, .edge {opacity: 0.7;}
.node.selected, .edge.selected {opacity: 1;}
.edge:hover path { stroke: red; }
.edge:hover polygon { stroke: red; fill: red; }
]]></style>

<defs>
  <circle id="rim" cx="0" cy="0" r="7"/>
  <circle id="rim2" cx="0" cy="0" r="3.5"/>
  <g id="zoomPlus">
    <use xlink:href="#rim" fill="#404040"><set attributeName="fill" to="#808080" begin="zoomplus.mouseover" end="zoomplus.mouseout"/></use>
    <path d="M-4,0h8M0,-4v8" fill="none" stroke="white" stroke-width="1.5" pointer-events="none"/>
  </g>
  <g id="zoomMin">
    <use xlink:href="#rim" fill="#404040"><set attributeName="fill" to="#808080" begin="zoomminus.mouseover" end="zoomminus.mouseout"/></use>
    <path d="M-4,0h8" fill="none" stroke="white" stroke-width="1.5" pointer-events="none"/>
  </g>
  <g id="arrowUp" transform="translate(30 24)">
    <use xlink:href="#rim"/>
    <path pointer-events="none" fill="none" stroke="white" stroke-width="1.5" d="M0,-3.0v7 M-2.5,-0.5L0,-3.0L2.5,-0.5"/>
  </g>
  <g id="arrowRight" transform="rotate(90) translate(36 -43)">
    <use xlink:href="#rim"/>
    <path pointer-events="none" fill="none" stroke="white" stroke-width="1.5" d="M0,-3.0v7 M-2.5,-0.5L0,-3.0L2.5,-0.5"/>
  </g>
  <g id="arrowDown" transform="rotate(180) translate(-30 -48)">
    <use xlink:href="#rim"/>
    <path pointer-events="none" fill="none" stroke="white" stroke-width="1.5" d="M0,-3.0v7 M-2.5,-0.5L0,-3.0L2.5,-0.5"/>
  </g>
  <g id="arrowLeft" transform="rotate(270) translate(-36 17)">
    <use xlink:href="#rim"/>
    <path pointer-events="none" fill="none" stroke="white" stroke-width="1.5" d="M0,-3.0v7 M-2.5,-0.5L0,-3.0L2.5,-0.5"/>
  </g>
  <g id="resetDef">
    <use xlink:href="#rim2" fill="#404040"><set attributeName="fill" to="#808080" begin="reset.mouseover" end="reset.mouseout"/></use>
  </g>
</defs>
<script type="application/ecmascript">
var viewWidth = 1047;
var viewHeight = 577;
var sectionId = 'dynsection-0';
</script>
<script type="application/ecmascript" xlink:href="svg.min.js"/>
<svg id="graph" class="graph">
<g id="viewport">
<title>include/trackingLib/math/linalg/diagonal_matrix.h</title>
<!-- Node1 -->
<g id="Node000001" class="node">
<title>Node1</title>
<g id="a_Node000001"><a xlink:title=" ">
<polygon fill="#999999" stroke="#666666" points="725,-569 605,-569 605,-528 725,-528 725,-569"/>
<text text-anchor="start" x="613" y="-557" font-family="Helvetica,sans-Serif" font-size="10.00">include/trackingLib</text>
<text text-anchor="start" x="613" y="-546" font-family="Helvetica,sans-Serif" font-size="10.00">/math/linalg/diagonal</text>
<text text-anchor="middle" x="665" y="-535" font-family="Helvetica,sans-Serif" font-size="10.00">_matrix.h</text>
</a>
</g>
</g>
<!-- Node2 -->
<g id="Node000002" class="node">
<title>Node2</title>
<g id="a_Node000002"><a xlink:href="first__include_8h.html" target="_top" xlink:title=" ">
<polygon fill="white" stroke="#666666" points="791.5,-129 680.5,-129 680.5,-110 791.5,-110 791.5,-129"/>
<text text-anchor="middle" x="736" y="-117" font-family="Helvetica,sans-Serif" font-size="10.00">base/first_include.h</text>
</a>
</g>
</g>
<!-- Node1&#45;&gt;Node2 -->
<g id="edge1_Node000001_Node000002" class="edge">
<title>Node1&#45;&gt;Node2</title>
<g id="a_edge1_Node000001_Node000002"><a xlink:title=" ">
<path fill="none" stroke="#63b8ff" d="M725.07,-537.92C821.72,-520.79 1001,-481.17 1001,-423 1001,-423 1001,-423 1001,-239.5 1001,-152.38 880.34,-128.65 801.85,-122.43"/>
<polygon fill="#63b8ff" stroke="#63b8ff" points="801.78,-118.91 791.55,-121.69 801.28,-125.9 801.78,-118.91"/>
</a>
</g>
</g>
<!-- Node8 -->
<g id="Node000008" class="node">
<title>Node8</title>
<g id="a_Node000008"><a xlink:title=" ">
<polygon fill="#e0e0e0" stroke="#999999" points="964.5,-74 881.5,-74 881.5,-55 964.5,-55 964.5,-74"/>
<text text-anchor="middle" x="923" y="-62" font-family="Helvetica,sans-Serif" font-size="10.00">initializer_list</text>
</a>
</g>
</g>
<!-- Node1&#45;&gt;Node8 -->
<g id="edge43_Node000001_Node000008" class="edge">
<title>Node1&#45;&gt;Node8</title>
<g id="a_edge43_Node000001_Node000008"><a xlink:title=" ">
<path fill="none" stroke="#63b8ff" d="M725.09,-540.14C830.81,-525.49 1039,-488.35 1039,-423 1039,-423 1039,-423 1039,-179 1039,-130.58 986.73,-96.02 952.37,-78.54"/>
<polygon fill="#63b8ff" stroke="#63b8ff" points="953.73,-75.31 943.21,-74.06 950.65,-81.59 953.73,-75.31"/>
</a>
</g>
</g>
<!-- Node9 -->
<g id="Node000009" class="node">
<title>Node9</title>
<g id="a_Node000009"><a xlink:href="errors_8h.html" target="_top" xlink:title="Error types used throughout the math library.">
<polygon fill="white" stroke="#666666" points="179.5,-129 66.5,-129 66.5,-110 179.5,-110 179.5,-129"/>
<text text-anchor="middle" x="123" y="-117" font-family="Helvetica,sans-Serif" font-size="10.00">math/linalg/errors.h</text>
</a>
</g>
</g>
<!-- Node1&#45;&gt;Node9 -->
<g id="edge8_Node000001_Node000009" class="edge">
<title>Node1&#45;&gt;Node9</title>
<g id="a_edge8_Node000001_Node000009"><a xlink:title=" ">
<path fill="none" stroke="#63b8ff" d="M604.81,-542.56C441.12,-528.31 0,-484.22 0,-423 0,-423 0,-423 0,-239.5 0,-187.81 56.79,-151.42 93.2,-133.41"/>
<polygon fill="#63b8ff" stroke="#63b8ff" points="94.89,-136.48 102.41,-129.02 91.88,-130.16 94.89,-136.48"/>
</a>
</g>
</g>
<!-- Node10 -->
<g id="Node000010" class="node">
<title>Node10</title>
<g id="a_Node000010"><a xlink:href="matrix__io_8h.html" target="_top" xlink:title="Stream output operators for all matrix types in the trackingLib math library.">
<polygon fill="white" stroke="#666666" points="367.5,-492 236.5,-492 236.5,-473 367.5,-473 367.5,-492"/>
<text text-anchor="middle" x="302" y="-480" font-family="Helvetica,sans-Serif" font-size="10.00">math/linalg/matrix_io.h</text>
</a>
</g>
</g>
<!-- Node1&#45;&gt;Node10 -->
<g id="edge9_Node000001_Node000010" class="edge">
<title>Node1&#45;&gt;Node10</title>
<g id="a_edge9_Node000001_Node000010"><a xlink:title=" ">
<path fill="none" stroke="#63b8ff" d="M604.65,-536.86C536.77,-524.89 427.27,-505.59 360.26,-493.77"/>
<polygon fill="#63b8ff" stroke="#63b8ff" points="360.74,-490.3 350.29,-492.01 359.53,-497.2 360.74,-490.3"/>
</a>
</g>
</g>
<!-- Node3 -->
<g id="Node000003" class="node">
<title>Node3</title>
<g id="a_Node000003"><a xlink:href="test__config_8h.html" target="_top" xlink:title=" ">
<polygon fill="white" stroke="#666666" points="860.5,-74 781.5,-74 781.5,-55 860.5,-55 860.5,-74"/>
<text text-anchor="middle" x="821" y="-62" font-family="Helvetica,sans-Serif" font-size="10.00">test_config.h</text>
</a>
</g>
</g>
<!-- Node2&#45;&gt;Node3 -->
<g id="edge2_Node000002_Node000003" class="edge">
<title>Node2&#45;&gt;Node3</title>
<g id="a_edge2_Node000002_Node000003"><a xlink:title=" ">
<path fill="none" stroke="#63b8ff" d="M749.66,-109.98C762.84,-101.77 783.03,-89.18 798.57,-79.49"/>
<polygon fill="#63b8ff" stroke="#63b8ff" points="800.46,-82.43 807.09,-74.17 796.76,-76.49 800.46,-82.43"/>
</a>
</g>
</g>
<!-- Node4 -->
<g id="Node000004" class="node">
<title>Node4</title>
<g id="a_Node000004"><a xlink:href="atomic__types_8h.html" target="_top" xlink:title=" ">
<polygon fill="white" stroke="#666666" points="583,-74 491,-74 491,-55 583,-55 583,-74"/>
<text text-anchor="middle" x="537" y="-62" font-family="Helvetica,sans-Serif" font-size="10.00">atomic_types.h</text>
</a>
</g>
</g>
<!-- Node2&#45;&gt;Node4 -->
<g id="edge3_Node000002_Node000004" class="edge">
<title>Node2&#45;&gt;Node4</title>
<g id="a_edge3_Node000002_Node000004"><a xlink:title=" ">
<path fill="none" stroke="#63b8ff" d="M704.03,-109.98C670.18,-100.97 616.6,-86.7 579.29,-76.76"/>
<polygon fill="#63b8ff" stroke="#63b8ff" points="579.79,-73.27 569.22,-74.08 577.99,-80.04 579.79,-73.27"/>
</a>
</g>
</g>
<!-- Node6 -->
<g id="Node000006" class="node">
<title>Node6</title>
<g id="a_Node000006"><a xlink:title=" ">
<polygon fill="#e0e0e0" stroke="#999999" points="693,-74 601,-74 601,-55 693,-55 693,-74"/>
<text text-anchor="middle" x="647" y="-62" font-family="Helvetica,sans-Serif" font-size="10.00">tl/expected.hpp</text>
</a>
</g>
</g>
<!-- Node2&#45;&gt;Node6 -->
<g id="edge5_Node000002_Node000006" class="edge">
<title>Node2&#45;&gt;Node6</title>
<g id="a_edge5_Node000002_Node000006"><a xlink:title=" ">
<path fill="none" stroke="#63b8ff" d="M721.7,-109.98C707.9,-101.77 686.76,-89.18 670.49,-79.49"/>
<polygon fill="#63b8ff" stroke="#63b8ff" points="671.94,-76.28 661.56,-74.17 668.36,-82.29 671.94,-76.28"/>
</a>
</g>
</g>
<!-- Node7 -->
<g id="Node000007" class="node">
<title>Node7</title>
<g id="a_Node000007"><a xlink:title=" ">
<polygon fill="#e0e0e0" stroke="#999999" points="763,-74 711,-74 711,-55 763,-55 763,-74"/>
<text text-anchor="middle" x="737" y="-62" font-family="Helvetica,sans-Serif" font-size="10.00">cassert</text>
</a>
</g>
</g>
<!-- Node2&#45;&gt;Node7 -->
<g id="edge6_Node000002_Node000007" class="edge">
<title>Node2&#45;&gt;Node7</title>
<g id="a_edge6_Node000002_Node000007"><a xlink:title=" ">
<path fill="none" stroke="#63b8ff" d="M736.17,-109.75C736.3,-102.8 736.48,-92.85 736.65,-84.13"/>
<polygon fill="#63b8ff" stroke="#63b8ff" points="740.15,-84.15 736.84,-74.09 733.15,-84.02 740.15,-84.15"/>
</a>
</g>
</g>
<!-- Node2&#45;&gt;Node8 -->
<g id="edge7_Node000002_Node000008" class="edge">
<title>Node2&#45;&gt;Node8</title>
<g id="a_edge7_Node000002_Node000008"><a xlink:title=" ">
<path fill="none" stroke="#63b8ff" d="M766.04,-109.98C797.71,-101.01 847.77,-86.82 882.81,-76.89"/>
<polygon fill="#63b8ff" stroke="#63b8ff" points="884.05,-80.18 892.72,-74.08 882.14,-73.44 884.05,-80.18"/>
</a>
</g>
</g>
<!-- Node5 -->
<g id="Node000005" class="node">
<title>Node5</title>
<g id="a_Node000005"><a xlink:title=" ">
<polygon fill="#e0e0e0" stroke="#999999" points="562,-19 512,-19 512,0 562,0 562,-19"/>
<text text-anchor="middle" x="537" y="-7" font-family="Helvetica,sans-Serif" font-size="10.00">cstdint</text>
</a>
</g>
</g>
<!-- Node4&#45;&gt;Node5 -->
<g id="edge4_Node000004_Node000005" class="edge">
<title>Node4&#45;&gt;Node5</title>
<g id="a_edge4_Node000004_Node000005"><a xlink:title=" ">
<path fill="none" stroke="#63b8ff" d="M537,-54.75C537,-47.8 537,-37.85 537,-29.13"/>
<polygon fill="#63b8ff" stroke="#63b8ff" points="540.5,-29.09 537,-19.09 533.5,-29.09 540.5,-29.09"/>
</a>
</g>
</g>
<!-- Node10&#45;&gt;Node2 -->
<g id="edge10_Node000010_Node000002" class="edge">
<title>Node10&#45;&gt;Node2</title>
<g id="a_edge10_Node000010_Node000002"><a xlink:title=" ">
<path fill="none" stroke="#63b8ff" d="M305.44,-472.91C313.12,-452.92 331,-401.61 331,-357 331,-357 331,-357 331,-239.5 331,-202.92 336.35,-186.42 366,-165 369.06,-162.79 564.62,-140.12 670.15,-128.02"/>
<polygon fill="#63b8ff" stroke="#63b8ff" points="670.84,-131.46 680.38,-126.84 670.05,-124.5 670.84,-131.46"/>
</a>
</g>
</g>
<!-- Node11 -->
<g id="Node000011" class="node">
<title>Node11</title>
<g id="a_Node000011"><a xlink:href="triangular__matrix_8h.html" target="_top" xlink:title=" ">
<polygon fill="white" stroke="#666666" points="620,-437 498,-437 498,-407 620,-407 620,-437"/>
<text text-anchor="start" x="506" y="-425" font-family="Helvetica,sans-Serif" font-size="10.00">math/linalg/triangular</text>
<text text-anchor="middle" x="559" y="-414" font-family="Helvetica,sans-Serif" font-size="10.00">_matrix.h</text>
</a>
</g>
</g>
<!-- Node10&#45;&gt;Node11 -->
<g id="edge11_Node000010_Node000011" class="edge">
<title>Node10&#45;&gt;Node11</title>
<g id="a_edge11_Node000010_Node000011"><a xlink:title=" ">
<path fill="none" stroke="#63b8ff" d="M339.37,-472.99C378.1,-464.18 439.59,-450.18 487.67,-439.24"/>
<polygon fill="#63b8ff" stroke="#63b8ff" points="488.74,-442.58 497.71,-436.95 487.18,-435.76 488.74,-442.58"/>
</a>
</g>
</g>
<!-- Node16 -->
<g id="Node000016" class="node">
<title>Node16</title>
<g id="a_Node000016"><a xlink:title=" ">
<polygon fill="#e0e0e0" stroke="#999999" points="380.5,-74 311.5,-74 311.5,-55 380.5,-55 380.5,-74"/>
<text text-anchor="middle" x="346" y="-62" font-family="Helvetica,sans-Serif" font-size="10.00">type_traits</text>
</a>
</g>
</g>
<!-- Node10&#45;&gt;Node16 -->
<g id="edge42_Node000010_Node000016" class="edge">
<title>Node10&#45;&gt;Node16</title>
<g id="a_edge42_Node000010_Node000016"><a xlink:title=" ">
<path fill="none" stroke="#63b8ff" d="M236.4,-478.34C158.22,-470.63 38,-444.54 38,-357 38,-357 38,-357 38,-179 38,-147.19 33.24,-131.15 57,-110 92.32,-78.55 229.34,-69.31 301.29,-66.61"/>
<polygon fill="#63b8ff" stroke="#63b8ff" points="301.54,-70.1 311.42,-66.25 301.3,-63.1 301.54,-70.1"/>
</a>
</g>
</g>
<!-- Node25 -->
<g id="Node000025" class="node">
<title>Node25</title>
<g id="a_Node000025"><a xlink:title=" ">
<polygon fill="#e0e0e0" stroke="#999999" points="227,-431.5 171,-431.5 171,-412.5 227,-412.5 227,-431.5"/>
<text text-anchor="middle" x="199" y="-419.5" font-family="Helvetica,sans-Serif" font-size="10.00">iomanip</text>
</a>
</g>
</g>
<!-- Node10&#45;&gt;Node25 -->
<g id="edge40_Node000010_Node000025" class="edge">
<title>Node10&#45;&gt;Node25</title>
<g id="a_edge40_Node000010_Node000025"><a xlink:title=" ">
<path fill="none" stroke="#63b8ff" d="M286.8,-472.87C269.99,-463.32 242.68,-447.81 222.98,-436.62"/>
<polygon fill="#63b8ff" stroke="#63b8ff" points="224.68,-433.56 214.26,-431.67 221.23,-439.65 224.68,-433.56"/>
</a>
</g>
</g>
<!-- Node26 -->
<g id="Node000026" class="node">
<title>Node26</title>
<g id="a_Node000026"><a xlink:title=" ">
<polygon fill="#e0e0e0" stroke="#999999" points="302.5,-431.5 245.5,-431.5 245.5,-412.5 302.5,-412.5 302.5,-431.5"/>
<text text-anchor="middle" x="274" y="-419.5" font-family="Helvetica,sans-Serif" font-size="10.00">ostream</text>
</a>
</g>
</g>
<!-- Node10&#45;&gt;Node26 -->
<g id="edge41_Node000010_Node000026" class="edge">
<title>Node10&#45;&gt;Node26</title>
<g id="a_edge41_Node000010_Node000026"><a xlink:title=" ">
<path fill="none" stroke="#63b8ff" d="M297.87,-472.87C293.86,-464.49 287.65,-451.51 282.56,-440.89"/>
<polygon fill="#63b8ff" stroke="#63b8ff" points="285.62,-439.18 278.15,-431.67 279.31,-442.2 285.62,-439.18"/>
</a>
</g>
</g>
<!-- Node11&#45;&gt;Node2 -->
<g id="edge12_Node000011_Node000002" class="edge">
<title>Node11&#45;&gt;Node2</title>
<g id="a_edge12_Node000011_Node000002"><a xlink:title=" ">
<path fill="none" stroke="#63b8ff" d="M497.84,-407.93C442.29,-392.05 369,-359.2 369,-296.5 369,-296.5 369,-296.5 369,-239.5 369,-205.33 362.4,-187.64 388,-165 393.25,-160.36 571.07,-139.36 670.43,-127.95"/>
<polygon fill="#63b8ff" stroke="#63b8ff" points="670.84,-131.42 680.38,-126.81 670.05,-124.47 670.84,-131.42"/>
</a>
</g>
</g>
<!-- Node11&#45;&gt;Node8 -->
<g id="edge39_Node000011_Node000008" class="edge">
<title>Node11&#45;&gt;Node8</title>
<g id="a_edge39_Node000011_Node000008"><a xlink:title=" ">
<path fill="none" stroke="#63b8ff" d="M620.36,-414.96C733.38,-402.12 963,-367.33 963,-296.5 963,-296.5 963,-296.5 963,-179 963,-143.31 945.19,-104.71 933.34,-82.98"/>
<polygon fill="#63b8ff" stroke="#63b8ff" points="936.37,-81.23 928.39,-74.25 930.28,-84.68 936.37,-81.23"/>
</a>
</g>
</g>
<!-- Node12 -->
<g id="Node000012" class="node">
<title>Node12</title>
<g id="a_Node000012"><a xlink:href="square__matrix_8h.html" target="_top" xlink:title=" ">
<polygon fill="white" stroke="#666666" points="751,-371 643,-371 643,-341 751,-341 751,-371"/>
<text text-anchor="start" x="651" y="-359" font-family="Helvetica,sans-Serif" font-size="10.00">math/linalg/square</text>
<text text-anchor="middle" x="697" y="-348" font-family="Helvetica,sans-Serif" font-size="10.00">_matrix.h</text>
</a>
</g>
</g>
<!-- Node11&#45;&gt;Node12 -->
<g id="edge13_Node000011_Node000012" class="edge">
<title>Node11&#45;&gt;Node12</title>
<g id="a_edge13_Node000011_Node000012"><a xlink:title=" ">
<path fill="none" stroke="#63b8ff" d="M589.28,-406.95C609.33,-397.66 635.81,-385.38 657.51,-375.32"/>
<polygon fill="#63b8ff" stroke="#63b8ff" points="659.19,-378.39 666.79,-371.01 656.24,-372.04 659.19,-378.39"/>
</a>
</g>
</g>
<!-- Node12&#45;&gt;Node2 -->
<g id="edge14_Node000012_Node000002" class="edge">
<title>Node12&#45;&gt;Node2</title>
<g id="a_edge14_Node000012_Node000002"><a xlink:title=" ">
<path fill="none" stroke="#63b8ff" d="M708.49,-340.61C715.42,-331.09 723.72,-318 728,-305 747.03,-247.25 742.26,-173.82 738.5,-139.62"/>
<polygon fill="#63b8ff" stroke="#63b8ff" points="741.92,-138.77 737.26,-129.26 734.97,-139.6 741.92,-138.77"/>
</a>
</g>
</g>
<!-- Node12&#45;&gt;Node8 -->
<g id="edge37_Node000012_Node000008" class="edge">
<title>Node12&#45;&gt;Node8</title>
<g id="a_edge37_Node000012_Node000008"><a xlink:title=" ">
<path fill="none" stroke="#63b8ff" d="M751.46,-348.2C805.7,-340.36 883.97,-325.83 906,-305 927.4,-284.76 925,-270.96 925,-241.5 925,-241.5 925,-241.5 925,-179 925,-145.6 924.12,-106.69 923.53,-84.19"/>
<polygon fill="#63b8ff" stroke="#63b8ff" points="927.03,-83.94 923.25,-74.04 920.03,-84.13 927.03,-83.94"/>
</a>
</g>
</g>
<!-- Node12&#45;&gt;Node9 -->
<g id="edge15_Node000012_Node000009" class="edge">
<title>Node12&#45;&gt;Node9</title>
<g id="a_edge15_Node000012_Node000009"><a xlink:title=" ">
<path fill="none" stroke="#63b8ff" d="M642.59,-346.43C516.78,-325.53 211.17,-268.27 141,-195 126.79,-180.17 123.17,-156.13 122.54,-139.39"/>
<polygon fill="#63b8ff" stroke="#63b8ff" points="126.04,-139.14 122.49,-129.16 119.04,-139.18 126.04,-139.14"/>
</a>
</g>
</g>
<!-- Node13 -->
<g id="Node000013" class="node">
<title>Node13</title>
<g id="a_Node000013"><a xlink:href="matrix_8h.html" target="_top" xlink:title=" ">
<polygon fill="white" stroke="#666666" points="688,-250 572,-250 572,-231 688,-231 688,-250"/>
<text text-anchor="middle" x="630" y="-238" font-family="Helvetica,sans-Serif" font-size="10.00">math/linalg/matrix.h</text>
</a>
</g>
</g>
<!-- Node12&#45;&gt;Node13 -->
<g id="edge16_Node000012_Node000013" class="edge">
<title>Node12&#45;&gt;Node13</title>
<g id="a_edge16_Node000012_Node000013"><a xlink:title=" ">
<path fill="none" stroke="#63b8ff" d="M687.5,-340.72C681,-330.8 672.27,-317.22 665,-305 655.96,-289.8 646.31,-272.17 639.43,-259.34"/>
<polygon fill="#63b8ff" stroke="#63b8ff" points="642.37,-257.41 634.58,-250.23 636.19,-260.7 642.37,-257.41"/>
</a>
</g>
</g>
<!-- Node23 -->
<g id="Node000023" class="node">
<title>Node23</title>
<g id="a_Node000023"><a xlink:href="vector_8h.html" target="_top" xlink:title=" ">
<polygon fill="white" stroke="#666666" points="897,-305 783,-305 783,-286 897,-286 897,-305"/>
<text text-anchor="middle" x="840" y="-293" font-family="Helvetica,sans-Serif" font-size="10.00">math/linalg/vector.h</text>
</a>
</g>
</g>
<!-- Node12&#45;&gt;Node23 -->
<g id="edge33_Node000012_Node000023" class="edge">
<title>Node12&#45;&gt;Node23</title>
<g id="a_edge33_Node000012_Node000023"><a xlink:title=" ">
<path fill="none" stroke="#63b8ff" d="M731.25,-340.99C755.11,-331.23 786.65,-318.33 809.61,-308.93"/>
<polygon fill="#63b8ff" stroke="#63b8ff" points="810.95,-312.17 818.88,-305.14 808.3,-305.69 810.95,-312.17"/>
</a>
</g>
</g>
<!-- Node24 -->
<g id="Node000024" class="node">
<title>Node24</title>
<g id="a_Node000024"><a xlink:title=" ">
<polygon fill="#e0e0e0" stroke="#999999" points="719.5,-305 674.5,-305 674.5,-286 719.5,-286 719.5,-305"/>
<text text-anchor="middle" x="697" y="-293" font-family="Helvetica,sans-Serif" font-size="10.00">utility</text>
</a>
</g>
</g>
<!-- Node12&#45;&gt;Node24 -->
<g id="edge38_Node000012_Node000024" class="edge">
<title>Node12&#45;&gt;Node24</title>
<g id="a_edge38_Node000012_Node000024"><a xlink:title=" ">
<path fill="none" stroke="#63b8ff" d="M697,-340.84C697,-333.21 697,-323.7 697,-315.45"/>
<polygon fill="#63b8ff" stroke="#63b8ff" points="700.5,-315.27 697,-305.27 693.5,-315.27 700.5,-315.27"/>
</a>
</g>
</g>
<!-- Node13&#45;&gt;Node2 -->
<g id="edge17_Node000013_Node000002" class="edge">
<title>Node13&#45;&gt;Node2</title>
<g id="a_edge17_Node000013_Node000002"><a xlink:title=" ">
<path fill="none" stroke="#63b8ff" d="M659.11,-230.93C677.63,-224.05 700.73,-212.59 715,-195 727.93,-179.06 732.91,-155.62 734.82,-139.3"/>
<polygon fill="#63b8ff" stroke="#63b8ff" points="738.31,-139.6 735.71,-129.32 731.33,-138.97 738.31,-139.6"/>
</a>
</g>
</g>
<!-- Node13&#45;&gt;Node8 -->
<g id="edge31_Node000013_Node000008" class="edge">
<title>Node13&#45;&gt;Node8</title>
<g id="a_edge31_Node000013_Node000008"><a xlink:title=" ">
<path fill="none" stroke="#63b8ff" d="M654.91,-230.87C677.06,-222.8 710,-209.79 737,-195 801.66,-159.58 871.32,-106.63 904.01,-80.79"/>
<polygon fill="#63b8ff" stroke="#63b8ff" points="906.57,-83.22 912.22,-74.26 902.21,-77.75 906.57,-83.22"/>
</a>
</g>
</g>
<!-- Node13&#45;&gt;Node9 -->
<g id="edge27_Node000013_Node000009" class="edge">
<title>Node13&#45;&gt;Node9</title>
<g id="a_edge27_Node000013_Node000009"><a xlink:title=" ">
<path fill="none" stroke="#63b8ff" d="M571.68,-236.56C456.39,-230.34 207.51,-214.81 174,-195 152.34,-182.2 137.8,-156.16 129.96,-138.52"/>
<polygon fill="#63b8ff" stroke="#63b8ff" points="133.18,-137.16 126.11,-129.27 126.72,-139.85 133.18,-137.16"/>
</a>
</g>
</g>
<!-- Node14 -->
<g id="Node000014" class="node">
<title>Node14</title>
<g id="a_Node000014"><a xlink:href="matrix__intf_8h.html" target="_top" xlink:title=" ">
<polygon fill="white" stroke="#666666" points="303,-195 183,-195 183,-165 303,-165 303,-195"/>
<text text-anchor="start" x="191" y="-183" font-family="Helvetica,sans-Serif" font-size="10.00">math/linalg/contracts</text>
<text text-anchor="middle" x="243" y="-172" font-family="Helvetica,sans-Serif" font-size="10.00">/matrix_intf.h</text>
</a>
</g>
</g>
<!-- Node13&#45;&gt;Node14 -->
<g id="edge18_Node000013_Node000014" class="edge">
<title>Node13&#45;&gt;Node14</title>
<g id="a_edge18_Node000013_Node000014"><a xlink:title=" ">
<path fill="none" stroke="#63b8ff" d="M573.73,-230.99C504.85,-220.58 388.19,-202.95 313.43,-191.65"/>
<polygon fill="#63b8ff" stroke="#63b8ff" points="313.57,-188.13 303.16,-190.09 312.53,-195.05 313.57,-188.13"/>
</a>
</g>
</g>
<!-- Node19 -->
<g id="Node000019" class="node">
<title>Node19</title>
<g id="a_Node000019"><a xlink:href="matrix__types_8h.html" target="_top" xlink:title="Type definitions and enumerations for matrix operations.">
<polygon fill="white" stroke="#666666" points="504.5,-195 397.5,-195 397.5,-165 504.5,-165 504.5,-195"/>
<text text-anchor="start" x="405.5" y="-183" font-family="Helvetica,sans-Serif" font-size="10.00">math/linalg/matrix</text>
<text text-anchor="middle" x="451" y="-172" font-family="Helvetica,sans-Serif" font-size="10.00">_types.h</text>
</a>
</g>
</g>
<!-- Node13&#45;&gt;Node19 -->
<g id="edge28_Node000013_Node000019" class="edge">
<title>Node13&#45;&gt;Node19</title>
<g id="a_edge28_Node000013_Node000019"><a xlink:title=" ">
<path fill="none" stroke="#63b8ff" d="M603.97,-230.99C577.76,-222.43 536.59,-208.97 503.56,-198.18"/>
<polygon fill="#63b8ff" stroke="#63b8ff" points="504.63,-194.84 494.03,-195.06 502.45,-201.5 504.63,-194.84"/>
</a>
</g>
</g>
<!-- Node20 -->
<g id="Node000020" class="node">
<title>Node20</title>
<g id="a_Node000020"><a xlink:title=" ">
<polygon fill="#e0e0e0" stroke="#999999" points="587,-189.5 523,-189.5 523,-170.5 587,-170.5 587,-189.5"/>
<text text-anchor="middle" x="555" y="-177.5" font-family="Helvetica,sans-Serif" font-size="10.00">algorithm</text>
</a>
</g>
</g>
<!-- Node13&#45;&gt;Node20 -->
<g id="edge29_Node000013_Node000020" class="edge">
<title>Node13&#45;&gt;Node20</title>
<g id="a_edge29_Node000013_Node000020"><a xlink:title=" ">
<path fill="none" stroke="#63b8ff" d="M618.93,-230.87C607.19,-221.71 588.41,-207.06 574.24,-196.01"/>
<polygon fill="#63b8ff" stroke="#63b8ff" points="576.15,-193.06 566.11,-189.67 571.84,-198.58 576.15,-193.06"/>
</a>
</g>
</g>
<!-- Node21 -->
<g id="Node000021" class="node">
<title>Node21</title>
<g id="a_Node000021"><a xlink:title=" ">
<polygon fill="#e0e0e0" stroke="#999999" points="647,-189.5 605,-189.5 605,-170.5 647,-170.5 647,-189.5"/>
<text text-anchor="middle" x="626" y="-177.5" font-family="Helvetica,sans-Serif" font-size="10.00">array</text>
</a>
</g>
</g>
<!-- Node13&#45;&gt;Node21 -->
<g id="edge30_Node000013_Node000021" class="edge">
<title>Node13&#45;&gt;Node21</title>
<g id="a_edge30_Node000013_Node000021"><a xlink:title=" ">
<path fill="none" stroke="#63b8ff" d="M629.41,-230.87C628.85,-222.75 628,-210.31 627.29,-199.89"/>
<polygon fill="#63b8ff" stroke="#63b8ff" points="630.77,-199.41 626.59,-189.67 623.78,-199.88 630.77,-199.41"/>
</a>
</g>
</g>
<!-- Node22 -->
<g id="Node000022" class="node">
<title>Node22</title>
<g id="a_Node000022"><a xlink:title=" ">
<polygon fill="#e0e0e0" stroke="#999999" points="706.5,-189.5 665.5,-189.5 665.5,-170.5 706.5,-170.5 706.5,-189.5"/>
<text text-anchor="middle" x="686" y="-177.5" font-family="Helvetica,sans-Serif" font-size="10.00">tuple</text>
</a>
</g>
</g>
<!-- Node13&#45;&gt;Node22 -->
<g id="edge32_Node000013_Node000022" class="edge">
<title>Node13&#45;&gt;Node22</title>
<g id="a_edge32_Node000013_Node000022"><a xlink:title=" ">
<path fill="none" stroke="#63b8ff" d="M638.26,-230.87C646.78,-221.97 660.26,-207.89 670.73,-196.95"/>
<polygon fill="#63b8ff" stroke="#63b8ff" points="673.32,-199.31 677.7,-189.67 668.26,-194.47 673.32,-199.31"/>
</a>
</g>
</g>
<!-- Node14&#45;&gt;Node2 -->
<g id="edge19_Node000014_Node000002" class="edge">
<title>Node14&#45;&gt;Node2</title>
<g id="a_edge19_Node000014_Node000002"><a xlink:title=" ">
<path fill="none" stroke="#63b8ff" d="M303.11,-167.2C307.8,-166.41 312.47,-165.67 317,-165 468.22,-142.78 507.04,-145.39 659,-129 662.69,-128.6 666.49,-128.19 670.32,-127.77"/>
<polygon fill="#63b8ff" stroke="#63b8ff" points="670.93,-131.23 680.49,-126.66 670.17,-124.27 670.93,-131.23"/>
</a>
</g>
</g>
<!-- Node14&#45;&gt;Node9 -->
<g id="edge26_Node000014_Node000009" class="edge">
<title>Node14&#45;&gt;Node9</title>
<g id="a_edge26_Node000014_Node000009"><a xlink:title=" ">
<path fill="none" stroke="#63b8ff" d="M214.26,-164.99C194.68,-155.45 168.95,-142.9 149.8,-133.57"/>
<polygon fill="#63b8ff" stroke="#63b8ff" points="151.24,-130.38 140.72,-129.14 148.18,-136.67 151.24,-130.38"/>
</a>
</g>
</g>
<!-- Node15 -->
<g id="Node000015" class="node">
<title>Node15</title>
<g id="a_Node000015"><a xlink:href="interface__contract_8h.html" target="_top" xlink:title=" ">
<polygon fill="white" stroke="#666666" points="338,-129 198,-129 198,-110 338,-110 338,-129"/>
<text text-anchor="middle" x="268" y="-117" font-family="Helvetica,sans-Serif" font-size="10.00">base/interface_contract.h</text>
</a>
</g>
</g>
<!-- Node14&#45;&gt;Node15 -->
<g id="edge20_Node000014_Node000015" class="edge">
<title>Node14&#45;&gt;Node15</title>
<g id="a_edge20_Node000014_Node000015"><a xlink:title=" ">
<path fill="none" stroke="#63b8ff" d="M249.05,-164.84C252.42,-156.95 256.65,-147.05 260.26,-138.61"/>
<polygon fill="#63b8ff" stroke="#63b8ff" points="263.54,-139.84 264.25,-129.27 257.11,-137.09 263.54,-139.84"/>
</a>
</g>
</g>
<!-- Node17 -->
<g id="Node000017" class="node">
<title>Node17</title>
<g id="a_Node000017"><a xlink:href="require__copy__intf_8h.html" target="_top" xlink:title=" ">
<polygon fill="white" stroke="#666666" points="492,-129 356,-129 356,-110 492,-110 492,-129"/>
<text text-anchor="middle" x="424" y="-117" font-family="Helvetica,sans-Serif" font-size="10.00">base/require_copy_intf.h</text>
</a>
</g>
</g>
<!-- Node14&#45;&gt;Node17 -->
<g id="edge22_Node000014_Node000017" class="edge">
<title>Node14&#45;&gt;Node17</title>
<g id="a_edge22_Node000014_Node000017"><a xlink:title=" ">
<path fill="none" stroke="#63b8ff" d="M286.35,-164.99C317.32,-154.98 358.5,-141.67 387.73,-132.22"/>
<polygon fill="#63b8ff" stroke="#63b8ff" points="389.1,-135.46 397.53,-129.05 386.94,-128.8 389.1,-135.46"/>
</a>
</g>
</g>
<!-- Node18 -->
<g id="Node000018" class="node">
<title>Node18</title>
<g id="a_Node000018"><a xlink:href="require__move__intf_8h.html" target="_top" xlink:title=" ">
<polygon fill="white" stroke="#666666" points="650,-129 510,-129 510,-110 650,-110 650,-129"/>
<text text-anchor="middle" x="580" y="-117" font-family="Helvetica,sans-Serif" font-size="10.00">base/require_move_intf.h</text>
</a>
</g>
</g>
<!-- Node14&#45;&gt;Node18 -->
<g id="edge24_Node000014_Node000018" class="edge">
<title>Node14&#45;&gt;Node18</title>
<g id="a_edge24_Node000014_Node000018"><a xlink:title=" ">
<path fill="none" stroke="#63b8ff" d="M303.16,-167.52C307.84,-166.66 312.5,-165.81 317,-165 385.52,-152.72 464.24,-139.52 517.57,-130.71"/>
<polygon fill="#63b8ff" stroke="#63b8ff" points="518.26,-134.15 527.55,-129.07 517.12,-127.24 518.26,-134.15"/>
</a>
</g>
</g>
<!-- Node15&#45;&gt;Node16 -->
<g id="edge21_Node000015_Node000016" class="edge">
<title>Node15&#45;&gt;Node16</title>
<g id="a_edge21_Node000015_Node000016"><a xlink:title=" ">
<path fill="none" stroke="#63b8ff" d="M280.53,-109.98C292.4,-101.92 310.46,-89.65 324.61,-80.03"/>
<polygon fill="#63b8ff" stroke="#63b8ff" points="326.94,-82.69 333.24,-74.17 323,-76.9 326.94,-82.69"/>
</a>
</g>
</g>
<!-- Node17&#45;&gt;Node16 -->
<g id="edge23_Node000017_Node000016" class="edge">
<title>Node17&#45;&gt;Node16</title>
<g id="a_edge23_Node000017_Node000016"><a xlink:title=" ">
<path fill="none" stroke="#63b8ff" d="M411.47,-109.98C399.6,-101.92 381.54,-89.65 367.39,-80.03"/>
<polygon fill="#63b8ff" stroke="#63b8ff" points="369,-76.9 358.76,-74.17 365.06,-82.69 369,-76.9"/>
</a>
</g>
</g>
<!-- Node18&#45;&gt;Node16 -->
<g id="edge25_Node000018_Node000016" class="edge">
<title>Node18&#45;&gt;Node16</title>
<g id="a_edge25_Node000018_Node000016"><a xlink:title=" ">
<path fill="none" stroke="#63b8ff" d="M542.4,-109.98C501.05,-100.62 434.65,-85.58 390.67,-75.62"/>
<polygon fill="#63b8ff" stroke="#63b8ff" points="391.35,-72.18 380.83,-73.39 389.81,-79.01 391.35,-72.18"/>
</a>
</g>
</g>
<!-- Node23&#45;&gt;Node2 -->
<g id="edge34_Node000023_Node000002" class="edge">
<title>Node23&#45;&gt;Node2</title>
<g id="a_edge34_Node000023_Node000002"><a xlink:title=" ">
<path fill="none" stroke="#63b8ff" d="M837.98,-285.95C832.53,-264.18 815.97,-205.5 787,-165 778.77,-153.5 767.02,-142.98 756.86,-135.06"/>
<polygon fill="#63b8ff" stroke="#63b8ff" points="758.93,-132.24 748.82,-129.05 754.74,-137.84 758.93,-132.24"/>
</a>
</g>
</g>
<!-- Node23&#45;&gt;Node8 -->
<g id="edge36_Node000023_Node000008" class="edge">
<title>Node23&#45;&gt;Node8</title>
<g id="a_edge36_Node000023_Node000008"><a xlink:title=" ">
<path fill="none" stroke="#63b8ff" d="M843.15,-285.8C855.32,-252.22 899.42,-130.57 916.33,-83.9"/>
<polygon fill="#63b8ff" stroke="#63b8ff" points="919.73,-84.8 919.84,-74.21 913.15,-82.41 919.73,-84.8"/>
</a>
</g>
</g>
<!-- Node23&#45;&gt;Node13 -->
<g id="edge35_Node000023_Node000013" class="edge">
<title>Node23&#45;&gt;Node13</title>
<g id="a_edge35_Node000023_Node000013"><a xlink:title=" ">
<path fill="none" stroke="#63b8ff" d="M806.26,-285.98C770.32,-276.91 713.28,-262.52 673.87,-252.57"/>
<polygon fill="#63b8ff" stroke="#63b8ff" points="674.56,-249.14 664,-250.08 672.84,-255.92 674.56,-249.14"/>
</a>
</g>
</g>
</g>
</svg>

<g id="navigator" transform="translate(0 0)" fill="#404254">
  <rect fill="#f2f5e9" fill-opacity="0.5" stroke="#606060" stroke-width=".5" x="0" y="0" width="60" height="60"/>
  <use id="zoomplus" xlink:href="#zoomPlus" x="17" y="9" onmousedown="handleZoom(evt,'in')"/>
  <use id="zoomminus" xlink:href="#zoomMin" x="42" y="9" onmousedown="handleZoom(evt,'out')"/>
  <use id="reset" xlink:href="#resetDef" x="30" y="36" onmousedown="handleReset()"/>
   <use id="arrowup" xlink:href="#arrowUp" x="0" y="0" onmousedown="handlePan(0,-1)"/>
  <use id="arrowright" xlink:href="#arrowRight" x="0" y="0" onmousedown="handlePan(1,0)"/>
  <use id="arrowdown" xlink:href="#arrowDown" x="0" y="0" onmousedown="handlePan(0,1)"/>
  <use id="arrowleft" xlink:href="#arrowLeft" x="0" y="0" onmousedown="handlePan(-1,0)"/>
</g>
<svg viewBox="0 0 15 15" width="100%" height="30px" preserveAspectRatio="xMaxYMin meet">
 <g id="arrow_out" transform="scale(0.3 0.3)">
  <a xlink:href="diagonal__matrix_8h__incl_org.svg" target="_base">
   <rect id="button" ry="5" rx="5" y="6" x="6" height="38" width="38"
        fill="#f2f5e9" fill-opacity="0.5" stroke="#606060" stroke-width="1.0"/>
   <path id="arrow"
     d="M 11.500037,31.436501 C 11.940474,20.09759 22.043105,11.32322 32.158766,21.979434 L 37.068811,17.246167 C 37.068811,17.246167 37.088388,32 37.088388,32 L 22.160133,31.978069 C 22.160133,31.978069 26.997745,27.140456 26.997745,27.140456 C 18.528582,18.264221 13.291696,25.230495 11.500037,31.436501 z"
     style="fill:#404040;"/>
  </a>
 </g>
</svg>

<style type='text/css'>
<![CDATA[
[data-mouse-over-selected='false'] { opacity: 0.7; }
[data-mouse-over-selected='true']  { opacity: 1.0; }
]]>
</style>
<script type="application/ecmascript"><![CDATA[
document.addEventListener('DOMContentLoaded', (event) => {
  highlightEdges();
  highlightAdjacentNodes();
});
]]></script>
</svg>
