<?xml version="1.0" encoding="UTF-8" standalone="no"?>
<!DOCTYPE svg PUBLIC "-//W3C//DTD SVG 1.1//EN"
 "http://www.w3.org/Graphics/SVG/1.1/DTD/svg11.dtd">
<!-- Generated by graphviz version 2.43.0 (0)
 -->
<!-- Title: include/trackingLib/env/ego_motion.h Pages: 1 -->
<svg width="1617pt" height="720pt"
 viewBox="0.00 0.00 1616.50 720.00" xmlns="http://www.w3.org/2000/svg" xmlns:xlink="http://www.w3.org/1999/xlink">
<g id="graph0" class="graph" transform="scale(1 1) rotate(0) translate(4 716)">
<title>include/trackingLib/env/ego_motion.h</title>
<!-- Node1 -->
<g id="Node000001" class="node">
<title>Node1</title>
<g id="a_Node000001"><a xlink:title=" ">
<polygon fill="#999999" stroke="#666666" points="304.5,-712 195.5,-712 195.5,-682 304.5,-682 304.5,-712"/>
<text text-anchor="start" x="203.5" y="-700" font-family="Helvetica,sans-Serif" font-size="10.00">include/trackingLib</text>
<text text-anchor="middle" x="250" y="-689" font-family="Helvetica,sans-Serif" font-size="10.00">/env/ego_motion.h</text>
</a>
</g>
</g>
<!-- Node2 -->
<g id="Node000002" class="node">
<title>Node2</title>
<g id="a_Node000002"><a xlink:href="first__include_8h.html" target="_top" xlink:title=" ">
<polygon fill="white" stroke="#666666" points="272.5,-129 161.5,-129 161.5,-110 272.5,-110 272.5,-129"/>
<text text-anchor="middle" x="217" y="-117" font-family="Helvetica,sans-Serif" font-size="10.00">base/first_include.h</text>
</a>
</g>
</g>
<!-- Node1&#45;&gt;Node2 -->
<g id="edge1_Node000001_Node000002" class="edge">
<title>Node1&#45;&gt;Node2</title>
<g id="a_edge1_Node000001_Node000002"><a xlink:title=" ">
<path fill="none" stroke="#63b8ff" d="M195.49,-689.24C122.75,-676.82 3,-643.01 3,-555 3,-555 3,-555 3,-239.5 3,-170.7 88.53,-141.33 151.45,-129.03"/>
<polygon fill="#63b8ff" stroke="#63b8ff" points="152.14,-132.46 161.33,-127.2 150.86,-125.58 152.14,-132.46"/>
</a>
</g>
</g>
<!-- Node9 -->
<g id="Node000009" class="node">
<title>Node9</title>
<g id="a_Node000009"><a xlink:href="covariance__matrix__policy__intf_8h.html" target="_top" xlink:title=" ">
<polygon fill="white" stroke="#666666" points="221.5,-646 76.5,-646 76.5,-605 221.5,-605 221.5,-646"/>
<text text-anchor="start" x="84.5" y="-634" font-family="Helvetica,sans-Serif" font-size="10.00">math/linalg/contracts</text>
<text text-anchor="start" x="84.5" y="-623" font-family="Helvetica,sans-Serif" font-size="10.00">/covariance_matrix_policy</text>
<text text-anchor="middle" x="149" y="-612" font-family="Helvetica,sans-Serif" font-size="10.00">_intf.h</text>
</a>
</g>
</g>
<!-- Node1&#45;&gt;Node9 -->
<g id="edge8_Node000001_Node000009" class="edge">
<title>Node1&#45;&gt;Node9</title>
<g id="a_edge8_Node000001_Node000009"><a xlink:title=" ">
<path fill="none" stroke="#63b8ff" d="M229.56,-681.94C217.03,-673.31 200.62,-662.02 185.89,-651.88"/>
<polygon fill="#63b8ff" stroke="#63b8ff" points="187.67,-648.86 177.44,-646.07 183.7,-654.63 187.67,-648.86"/>
</a>
</g>
</g>
<!-- Node10 -->
<g id="Node000010" class="node">
<title>Node10</title>
<g id="a_Node000010"><a xlink:href="covariance__matrix__policies_8h.html" target="_top" xlink:title=" ">
<polygon fill="white" stroke="#666666" points="259,-569 131,-569 131,-539 259,-539 259,-569"/>
<text text-anchor="start" x="139" y="-557" font-family="Helvetica,sans-Serif" font-size="10.00">math/linalg/covariance</text>
<text text-anchor="middle" x="195" y="-546" font-family="Helvetica,sans-Serif" font-size="10.00">_matrix_policies.h</text>
</a>
</g>
</g>
<!-- Node1&#45;&gt;Node10 -->
<g id="edge52_Node000001_Node000010" class="edge">
<title>Node1&#45;&gt;Node10</title>
<g id="a_edge52_Node000001_Node000010"><a xlink:title=" ">
<path fill="none" stroke="#63b8ff" d="M248.89,-681.88C247.03,-663.5 242.32,-630.7 231,-605 226.71,-595.26 220.32,-585.55 214.11,-577.3"/>
<polygon fill="#63b8ff" stroke="#63b8ff" points="216.74,-574.99 207.8,-569.31 211.25,-579.32 216.74,-574.99"/>
</a>
</g>
</g>
<!-- Node25 -->
<g id="Node000025" class="node">
<title>Node25</title>
<g id="a_Node000025"><a xlink:href="vector_8h.html" target="_top" xlink:title=" ">
<polygon fill="white" stroke="#666666" points="769,-305 655,-305 655,-286 769,-286 769,-305"/>
<text text-anchor="middle" x="712" y="-293" font-family="Helvetica,sans-Serif" font-size="10.00">math/linalg/vector.h</text>
</a>
</g>
</g>
<!-- Node1&#45;&gt;Node25 -->
<g id="edge67_Node000001_Node000025" class="edge">
<title>Node1&#45;&gt;Node25</title>
<g id="a_edge67_Node000001_Node000025"><a xlink:title=" ">
<path fill="none" stroke="#63b8ff" d="M304.59,-694.38C449.52,-688.6 833,-663.1 833,-555 833,-555 833,-555 833,-421 833,-367.88 775.65,-328.89 739.91,-309.75"/>
<polygon fill="#63b8ff" stroke="#63b8ff" points="741.4,-306.58 730.91,-305.1 738.19,-312.8 741.4,-306.58"/>
</a>
</g>
</g>
<!-- Node29 -->
<g id="Node000029" class="node">
<title>Node29</title>
<g id="a_Node000029"><a xlink:href="point2d_8h.html" target="_top" xlink:title="2D point class with named coordinate access">
<polygon fill="white" stroke="#666666" points="982.5,-431.5 861.5,-431.5 861.5,-412.5 982.5,-412.5 982.5,-431.5"/>
<text text-anchor="middle" x="922" y="-419.5" font-family="Helvetica,sans-Serif" font-size="10.00">math/linalg/point2d.h</text>
</a>
</g>
</g>
<!-- Node1&#45;&gt;Node29 -->
<g id="edge53_Node000001_Node000029" class="edge">
<title>Node1&#45;&gt;Node29</title>
<g id="a_edge53_Node000001_Node000029"><a xlink:title=" ">
<path fill="none" stroke="#63b8ff" d="M304.6,-694.81C443.96,-691.29 804.85,-679.05 847,-646 911.92,-595.1 921.08,-485.73 922.06,-441.82"/>
<polygon fill="#63b8ff" stroke="#63b8ff" points="925.56,-441.73 922.16,-431.7 918.56,-441.66 925.56,-441.73"/>
</a>
</g>
</g>
<!-- Node3 -->
<g id="Node000003" class="node">
<title>Node3</title>
<g id="a_Node000003"><a xlink:href="test__config_8h.html" target="_top" xlink:title=" ">
<polygon fill="white" stroke="#666666" points="259.5,-74 180.5,-74 180.5,-55 259.5,-55 259.5,-74"/>
<text text-anchor="middle" x="220" y="-62" font-family="Helvetica,sans-Serif" font-size="10.00">test_config.h</text>
</a>
</g>
</g>
<!-- Node2&#45;&gt;Node3 -->
<g id="edge2_Node000002_Node000003" class="edge">
<title>Node2&#45;&gt;Node3</title>
<g id="a_edge2_Node000002_Node000003"><a xlink:title=" ">
<path fill="none" stroke="#63b8ff" d="M217.5,-109.75C217.89,-102.8 218.45,-92.85 218.95,-84.13"/>
<polygon fill="#63b8ff" stroke="#63b8ff" points="222.44,-84.27 219.51,-74.09 215.45,-83.88 222.44,-84.27"/>
</a>
</g>
</g>
<!-- Node4 -->
<g id="Node000004" class="node">
<title>Node4</title>
<g id="a_Node000004"><a xlink:href="atomic__types_8h.html" target="_top" xlink:title=" ">
<polygon fill="white" stroke="#666666" points="370,-74 278,-74 278,-55 370,-55 370,-74"/>
<text text-anchor="middle" x="324" y="-62" font-family="Helvetica,sans-Serif" font-size="10.00">atomic_types.h</text>
</a>
</g>
</g>
<!-- Node2&#45;&gt;Node4 -->
<g id="edge3_Node000002_Node000004" class="edge">
<title>Node2&#45;&gt;Node4</title>
<g id="a_edge3_Node000002_Node000004"><a xlink:title=" ">
<path fill="none" stroke="#63b8ff" d="M234.19,-109.98C251.25,-101.54 277.63,-88.47 297.4,-78.68"/>
<polygon fill="#63b8ff" stroke="#63b8ff" points="299.09,-81.75 306.5,-74.17 295.98,-75.47 299.09,-81.75"/>
</a>
</g>
</g>
<!-- Node6 -->
<g id="Node000006" class="node">
<title>Node6</title>
<g id="a_Node000006"><a xlink:title=" ">
<polygon fill="#e0e0e0" stroke="#999999" points="92,-74 0,-74 0,-55 92,-55 92,-74"/>
<text text-anchor="middle" x="46" y="-62" font-family="Helvetica,sans-Serif" font-size="10.00">tl/expected.hpp</text>
</a>
</g>
</g>
<!-- Node2&#45;&gt;Node6 -->
<g id="edge5_Node000002_Node000006" class="edge">
<title>Node2&#45;&gt;Node6</title>
<g id="a_edge5_Node000002_Node000006"><a xlink:title=" ">
<path fill="none" stroke="#63b8ff" d="M189.53,-109.98C160.82,-101.09 115.58,-87.07 83.58,-77.15"/>
<polygon fill="#63b8ff" stroke="#63b8ff" points="84.28,-73.7 73.69,-74.08 82.2,-80.39 84.28,-73.7"/>
</a>
</g>
</g>
<!-- Node7 -->
<g id="Node000007" class="node">
<title>Node7</title>
<g id="a_Node000007"><a xlink:title=" ">
<polygon fill="#e0e0e0" stroke="#999999" points="162,-74 110,-74 110,-55 162,-55 162,-74"/>
<text text-anchor="middle" x="136" y="-62" font-family="Helvetica,sans-Serif" font-size="10.00">cassert</text>
</a>
</g>
</g>
<!-- Node2&#45;&gt;Node7 -->
<g id="edge6_Node000002_Node000007" class="edge">
<title>Node2&#45;&gt;Node7</title>
<g id="a_edge6_Node000002_Node000007"><a xlink:title=" ">
<path fill="none" stroke="#63b8ff" d="M203.99,-109.98C191.54,-101.84 172.54,-89.41 157.79,-79.76"/>
<polygon fill="#63b8ff" stroke="#63b8ff" points="159.54,-76.72 149.25,-74.17 155.7,-82.57 159.54,-76.72"/>
</a>
</g>
</g>
<!-- Node8 -->
<g id="Node000008" class="node">
<title>Node8</title>
<g id="a_Node000008"><a xlink:title=" ">
<polygon fill="#e0e0e0" stroke="#999999" points="480.5,-74 397.5,-74 397.5,-55 480.5,-55 480.5,-74"/>
<text text-anchor="middle" x="439" y="-62" font-family="Helvetica,sans-Serif" font-size="10.00">initializer_list</text>
</a>
</g>
</g>
<!-- Node2&#45;&gt;Node8 -->
<g id="edge7_Node000002_Node000008" class="edge">
<title>Node2&#45;&gt;Node8</title>
<g id="a_edge7_Node000002_Node000008"><a xlink:title=" ">
<path fill="none" stroke="#63b8ff" d="M252.67,-109.98C290.83,-100.87 351.47,-86.4 393.15,-76.45"/>
<polygon fill="#63b8ff" stroke="#63b8ff" points="394.14,-79.81 403.05,-74.08 392.51,-73 394.14,-79.81"/>
</a>
</g>
</g>
<!-- Node5 -->
<g id="Node000005" class="node">
<title>Node5</title>
<g id="a_Node000005"><a xlink:title=" ">
<polygon fill="#e0e0e0" stroke="#999999" points="349,-19 299,-19 299,0 349,0 349,-19"/>
<text text-anchor="middle" x="324" y="-7" font-family="Helvetica,sans-Serif" font-size="10.00">cstdint</text>
</a>
</g>
</g>
<!-- Node4&#45;&gt;Node5 -->
<g id="edge4_Node000004_Node000005" class="edge">
<title>Node4&#45;&gt;Node5</title>
<g id="a_edge4_Node000004_Node000005"><a xlink:title=" ">
<path fill="none" stroke="#63b8ff" d="M324,-54.75C324,-47.8 324,-37.85 324,-29.13"/>
<polygon fill="#63b8ff" stroke="#63b8ff" points="327.5,-29.09 324,-19.09 320.5,-29.09 327.5,-29.09"/>
</a>
</g>
</g>
<!-- Node9&#45;&gt;Node2 -->
<g id="edge9_Node000009_Node000002" class="edge">
<title>Node9&#45;&gt;Node2</title>
<g id="a_edge9_Node000009_Node000002"><a xlink:title=" ">
<path fill="none" stroke="#63b8ff" d="M118.92,-604.97C86.96,-581.59 41,-539.24 41,-489 41,-489 41,-489 41,-239.5 41,-178.51 114.42,-146.67 166.42,-131.76"/>
<polygon fill="#63b8ff" stroke="#63b8ff" points="167.46,-135.1 176.18,-129.08 165.61,-128.35 167.46,-135.1"/>
</a>
</g>
</g>
<!-- Node9&#45;&gt;Node10 -->
<g id="edge10_Node000009_Node000010" class="edge">
<title>Node9&#45;&gt;Node10</title>
<g id="a_edge10_Node000009_Node000010"><a xlink:title=" ">
<path fill="none" stroke="#63b8ff" d="M162.06,-604.77C167.66,-596.31 174.23,-586.38 180.02,-577.63"/>
<polygon fill="#63b8ff" stroke="#63b8ff" points="183.11,-579.31 185.71,-569.04 177.27,-575.45 183.11,-579.31"/>
</a>
</g>
</g>
<!-- Node10&#45;&gt;Node2 -->
<g id="edge11_Node000010_Node000002" class="edge">
<title>Node10&#45;&gt;Node2</title>
<g id="a_edge11_Node000010_Node000002"><a xlink:title=" ">
<path fill="none" stroke="#63b8ff" d="M168.97,-538.97C134.77,-518.42 79,-476.69 79,-423 79,-423 79,-423 79,-239.5 79,-184.88 141.77,-149.8 182.65,-132.76"/>
<polygon fill="#63b8ff" stroke="#63b8ff" points="184.03,-135.97 192.01,-129 181.42,-129.48 184.03,-135.97"/>
</a>
</g>
</g>
<!-- Node11 -->
<g id="Node000011" class="node">
<title>Node11</title>
<g id="a_Node000011"><a xlink:href="covariance__matrix__factored_8h.html" target="_top" xlink:title=" ">
<polygon fill="white" stroke="#666666" points="259,-503 131,-503 131,-473 259,-473 259,-503"/>
<text text-anchor="start" x="139" y="-491" font-family="Helvetica,sans-Serif" font-size="10.00">math/linalg/covariance</text>
<text text-anchor="middle" x="195" y="-480" font-family="Helvetica,sans-Serif" font-size="10.00">_matrix_factored.h</text>
</a>
</g>
</g>
<!-- Node10&#45;&gt;Node11 -->
<g id="edge12_Node000010_Node000011" class="edge">
<title>Node10&#45;&gt;Node11</title>
<g id="a_edge12_Node000010_Node000011"><a xlink:title=" ">
<path fill="none" stroke="#63b8ff" d="M195,-538.8C195,-531.34 195,-521.99 195,-513.41"/>
<polygon fill="#63b8ff" stroke="#63b8ff" points="198.5,-513.16 195,-503.16 191.5,-513.16 198.5,-513.16"/>
</a>
</g>
</g>
<!-- Node28 -->
<g id="Node000028" class="node">
<title>Node28</title>
<g id="a_Node000028"><a xlink:href="covariance__matrix__full_8h.html" target="_top" xlink:title=" ">
<polygon fill="white" stroke="#666666" points="405,-503 277,-503 277,-473 405,-473 405,-503"/>
<text text-anchor="start" x="285" y="-491" font-family="Helvetica,sans-Serif" font-size="10.00">math/linalg/covariance</text>
<text text-anchor="middle" x="341" y="-480" font-family="Helvetica,sans-Serif" font-size="10.00">_matrix_full.h</text>
</a>
</g>
</g>
<!-- Node10&#45;&gt;Node28 -->
<g id="edge47_Node000010_Node000028" class="edge">
<title>Node10&#45;&gt;Node28</title>
<g id="a_edge47_Node000010_Node000028"><a xlink:title=" ">
<path fill="none" stroke="#63b8ff" d="M227.04,-538.95C248.44,-529.58 276.77,-517.16 299.83,-507.05"/>
<polygon fill="#63b8ff" stroke="#63b8ff" points="301.28,-510.23 309.03,-503.01 298.47,-503.82 301.28,-510.23"/>
</a>
</g>
</g>
<!-- Node11&#45;&gt;Node2 -->
<g id="edge13_Node000011_Node000002" class="edge">
<title>Node11&#45;&gt;Node2</title>
<g id="a_edge13_Node000011_Node000002"><a xlink:title=" ">
<path fill="none" stroke="#63b8ff" d="M191.58,-472.99C178.55,-418.47 134.12,-220.69 161,-165 167.22,-152.12 179.18,-141.82 190.46,-134.38"/>
<polygon fill="#63b8ff" stroke="#63b8ff" points="192.51,-137.23 199.23,-129.04 188.87,-131.25 192.51,-137.23"/>
</a>
</g>
</g>
<!-- Node11&#45;&gt;Node8 -->
<g id="edge45_Node000011_Node000008" class="edge">
<title>Node11&#45;&gt;Node8</title>
<g id="a_edge45_Node000011_Node000008"><a xlink:title=" ">
<path fill="none" stroke="#63b8ff" d="M203.12,-472.98C239.61,-409.94 388.43,-152.86 428.84,-83.06"/>
<polygon fill="#63b8ff" stroke="#63b8ff" points="432,-84.57 433.98,-74.16 425.95,-81.07 432,-84.57"/>
</a>
</g>
</g>
<!-- Node12 -->
<g id="Node000012" class="node">
<title>Node12</title>
<g id="a_Node000012"><a xlink:href="covariance__matrix__intf_8h.html" target="_top" xlink:title=" ">
<polygon fill="white" stroke="#666666" points="531,-437 391,-437 391,-407 531,-407 531,-437"/>
<text text-anchor="start" x="399" y="-425" font-family="Helvetica,sans-Serif" font-size="10.00">math/linalg/contracts</text>
<text text-anchor="middle" x="461" y="-414" font-family="Helvetica,sans-Serif" font-size="10.00">/covariance_matrix_intf.h</text>
</a>
</g>
</g>
<!-- Node11&#45;&gt;Node12 -->
<g id="edge14_Node000011_Node000012" class="edge">
<title>Node11&#45;&gt;Node12</title>
<g id="a_edge14_Node000011_Node000012"><a xlink:title=" ">
<path fill="none" stroke="#63b8ff" d="M253.37,-472.95C294.52,-463.06 349.75,-449.77 392.91,-439.38"/>
<polygon fill="#63b8ff" stroke="#63b8ff" points="393.86,-442.75 402.76,-437.01 392.22,-435.95 393.86,-442.75"/>
</a>
</g>
</g>
<!-- Node27 -->
<g id="Node000027" class="node">
<title>Node27</title>
<g id="a_Node000027"><a xlink:title=" ">
<polygon fill="#e0e0e0" stroke="#999999" points="167,-431.5 107,-431.5 107,-412.5 167,-412.5 167,-431.5"/>
<text text-anchor="middle" x="137" y="-419.5" font-family="Helvetica,sans-Serif" font-size="10.00">iostream</text>
</a>
</g>
</g>
<!-- Node11&#45;&gt;Node27 -->
<g id="edge46_Node000011_Node000027" class="edge">
<title>Node11&#45;&gt;Node27</title>
<g id="a_edge46_Node000011_Node000027"><a xlink:title=" ">
<path fill="none" stroke="#63b8ff" d="M182.13,-472.8C173.17,-462.92 161.21,-449.72 151.86,-439.39"/>
<polygon fill="#63b8ff" stroke="#63b8ff" points="154.32,-436.9 145.02,-431.84 149.14,-441.6 154.32,-436.9"/>
</a>
</g>
</g>
<!-- Node12&#45;&gt;Node2 -->
<g id="edge15_Node000012_Node000002" class="edge">
<title>Node12&#45;&gt;Node2</title>
<g id="a_edge15_Node000012_Node000002"><a xlink:title=" ">
<path fill="none" stroke="#63b8ff" d="M428.8,-406.89C388.91,-388.16 320.63,-351.93 275,-305 254.29,-283.7 247.99,-277.6 237,-250 222.11,-212.61 218.25,-165.05 217.28,-139.24"/>
<polygon fill="#63b8ff" stroke="#63b8ff" points="220.78,-138.93 217.02,-129.02 213.78,-139.11 220.78,-138.93"/>
</a>
</g>
</g>
<!-- Node13 -->
<g id="Node000013" class="node">
<title>Node13</title>
<g id="a_Node000013"><a xlink:href="interface__contract_8h.html" target="_top" xlink:title=" ">
<polygon fill="white" stroke="#666666" points="1205,-129 1065,-129 1065,-110 1205,-110 1205,-129"/>
<text text-anchor="middle" x="1135" y="-117" font-family="Helvetica,sans-Serif" font-size="10.00">base/interface_contract.h</text>
</a>
</g>
</g>
<!-- Node12&#45;&gt;Node13 -->
<g id="edge16_Node000012_Node000013" class="edge">
<title>Node12&#45;&gt;Node13</title>
<g id="a_edge16_Node000012_Node000013"><a xlink:title=" ">
<path fill="none" stroke="#63b8ff" d="M531.16,-413.11C643.6,-397.68 867.39,-355.31 1024,-250 1069.5,-219.41 1107.25,-165.32 1124.66,-137.73"/>
<polygon fill="#63b8ff" stroke="#63b8ff" points="1127.68,-139.51 1129.95,-129.16 1121.72,-135.83 1127.68,-139.51"/>
</a>
</g>
</g>
<!-- Node15 -->
<g id="Node000015" class="node">
<title>Node15</title>
<g id="a_Node000015"><a xlink:href="require__copy__intf_8h.html" target="_top" xlink:title=" ">
<polygon fill="white" stroke="#666666" points="757,-129 621,-129 621,-110 757,-110 757,-129"/>
<text text-anchor="middle" x="689" y="-117" font-family="Helvetica,sans-Serif" font-size="10.00">base/require_copy_intf.h</text>
</a>
</g>
</g>
<!-- Node12&#45;&gt;Node15 -->
<g id="edge18_Node000012_Node000015" class="edge">
<title>Node12&#45;&gt;Node15</title>
<g id="a_edge18_Node000012_Node000015"><a xlink:title=" ">
<path fill="none" stroke="#63b8ff" d="M483.65,-406.99C496.77,-397.99 512.84,-385.32 524,-371 585.75,-291.77 550.71,-240.48 617,-165 628.69,-151.69 645.35,-141.04 659.69,-133.5"/>
<polygon fill="#63b8ff" stroke="#63b8ff" points="661.32,-136.6 668.71,-129 658.2,-130.34 661.32,-136.6"/>
</a>
</g>
</g>
<!-- Node16 -->
<g id="Node000016" class="node">
<title>Node16</title>
<g id="a_Node000016"><a xlink:href="require__move__intf_8h.html" target="_top" xlink:title=" ">
<polygon fill="white" stroke="#666666" points="915,-129 775,-129 775,-110 915,-110 915,-129"/>
<text text-anchor="middle" x="845" y="-117" font-family="Helvetica,sans-Serif" font-size="10.00">base/require_move_intf.h</text>
</a>
</g>
</g>
<!-- Node12&#45;&gt;Node16 -->
<g id="edge20_Node000012_Node000016" class="edge">
<title>Node12&#45;&gt;Node16</title>
<g id="a_edge20_Node000012_Node000016"><a xlink:title=" ">
<path fill="none" stroke="#63b8ff" d="M495.17,-406.87C512.37,-398.44 532.58,-386.36 547,-371 617.07,-296.38 569.5,-228.22 650,-165 668.93,-150.13 724.55,-138.32 771.56,-130.61"/>
<polygon fill="#63b8ff" stroke="#63b8ff" points="772.13,-134.06 781.45,-129.03 771.02,-127.15 772.13,-134.06"/>
</a>
</g>
</g>
<!-- Node17 -->
<g id="Node000017" class="node">
<title>Node17</title>
<g id="a_Node000017"><a xlink:href="square__matrix_8h.html" target="_top" xlink:title=" ">
<polygon fill="white" stroke="#666666" points="515,-371 407,-371 407,-341 515,-341 515,-371"/>
<text text-anchor="start" x="415" y="-359" font-family="Helvetica,sans-Serif" font-size="10.00">math/linalg/square</text>
<text text-anchor="middle" x="461" y="-348" font-family="Helvetica,sans-Serif" font-size="10.00">_matrix.h</text>
</a>
</g>
</g>
<!-- Node12&#45;&gt;Node17 -->
<g id="edge22_Node000012_Node000017" class="edge">
<title>Node12&#45;&gt;Node17</title>
<g id="a_edge22_Node000012_Node000017"><a xlink:title=" ">
<path fill="none" stroke="#63b8ff" d="M461,-406.8C461,-399.34 461,-389.99 461,-381.41"/>
<polygon fill="#63b8ff" stroke="#63b8ff" points="464.5,-381.16 461,-371.16 457.5,-381.16 464.5,-381.16"/>
</a>
</g>
</g>
<!-- Node14 -->
<g id="Node000014" class="node">
<title>Node14</title>
<g id="a_Node000014"><a xlink:title=" ">
<polygon fill="#e0e0e0" stroke="#999999" points="1024.5,-74 955.5,-74 955.5,-55 1024.5,-55 1024.5,-74"/>
<text text-anchor="middle" x="990" y="-62" font-family="Helvetica,sans-Serif" font-size="10.00">type_traits</text>
</a>
</g>
</g>
<!-- Node13&#45;&gt;Node14 -->
<g id="edge17_Node000013_Node000014" class="edge">
<title>Node13&#45;&gt;Node14</title>
<g id="a_edge17_Node000013_Node000014"><a xlink:title=" ">
<path fill="none" stroke="#63b8ff" d="M1111.7,-109.98C1087.75,-101.23 1050.22,-87.51 1023.17,-77.62"/>
<polygon fill="#63b8ff" stroke="#63b8ff" points="1024.31,-74.32 1013.72,-74.17 1021.91,-80.89 1024.31,-74.32"/>
</a>
</g>
</g>
<!-- Node15&#45;&gt;Node14 -->
<g id="edge19_Node000015_Node000014" class="edge">
<title>Node15&#45;&gt;Node14</title>
<g id="a_edge19_Node000015_Node000014"><a xlink:title=" ">
<path fill="none" stroke="#63b8ff" d="M737.36,-109.98C794.78,-99.87 889.74,-83.15 945.44,-73.35"/>
<polygon fill="#63b8ff" stroke="#63b8ff" points="946.12,-76.78 955.36,-71.6 944.91,-69.89 946.12,-76.78"/>
</a>
</g>
</g>
<!-- Node16&#45;&gt;Node14 -->
<g id="edge21_Node000016_Node000014" class="edge">
<title>Node16&#45;&gt;Node14</title>
<g id="a_edge21_Node000016_Node000014"><a xlink:title=" ">
<path fill="none" stroke="#63b8ff" d="M868.3,-109.98C892.25,-101.23 929.78,-87.51 956.83,-77.62"/>
<polygon fill="#63b8ff" stroke="#63b8ff" points="958.09,-80.89 966.28,-74.17 955.69,-74.32 958.09,-80.89"/>
</a>
</g>
</g>
<!-- Node17&#45;&gt;Node2 -->
<g id="edge23_Node000017_Node000002" class="edge">
<title>Node17&#45;&gt;Node2</title>
<g id="a_edge23_Node000017_Node000002"><a xlink:title=" ">
<path fill="none" stroke="#63b8ff" d="M446.36,-340.59C413.91,-308.7 333.44,-229.88 265,-165 254.79,-155.33 243.24,-144.61 234.02,-136.11"/>
<polygon fill="#63b8ff" stroke="#63b8ff" points="236.35,-133.5 226.62,-129.3 231.61,-138.65 236.35,-133.5"/>
</a>
</g>
</g>
<!-- Node17&#45;&gt;Node8 -->
<g id="edge43_Node000017_Node000008" class="edge">
<title>Node17&#45;&gt;Node8</title>
<g id="a_edge43_Node000017_Node000008"><a xlink:title=" ">
<path fill="none" stroke="#63b8ff" d="M456.86,-340.81C451,-319.46 441,-277.72 441,-241.5 441,-241.5 441,-241.5 441,-179 441,-145.6 440.12,-106.69 439.53,-84.19"/>
<polygon fill="#63b8ff" stroke="#63b8ff" points="443.03,-83.94 439.25,-74.04 436.03,-84.13 443.03,-83.94"/>
</a>
</g>
</g>
<!-- Node18 -->
<g id="Node000018" class="node">
<title>Node18</title>
<g id="a_Node000018"><a xlink:href="errors_8h.html" target="_top" xlink:title="Error types used throughout the math library.">
<polygon fill="white" stroke="#666666" points="1046.5,-129 933.5,-129 933.5,-110 1046.5,-110 1046.5,-129"/>
<text text-anchor="middle" x="990" y="-117" font-family="Helvetica,sans-Serif" font-size="10.00">math/linalg/errors.h</text>
</a>
</g>
</g>
<!-- Node17&#45;&gt;Node18 -->
<g id="edge24_Node000017_Node000018" class="edge">
<title>Node17&#45;&gt;Node18</title>
<g id="a_edge24_Node000017_Node000018"><a xlink:title=" ">
<path fill="none" stroke="#63b8ff" d="M515.25,-351.58C583.18,-346.26 702.57,-333.49 801,-305 916.82,-271.48 983.26,-296.08 1049,-195 1056.27,-183.82 1054.95,-176.93 1049,-165 1042.43,-151.82 1029.9,-141.52 1018.07,-134.16"/>
<polygon fill="#63b8ff" stroke="#63b8ff" points="1019.68,-131.05 1009.27,-129.1 1016.2,-137.12 1019.68,-131.05"/>
</a>
</g>
</g>
<!-- Node19 -->
<g id="Node000019" class="node">
<title>Node19</title>
<g id="a_Node000019"><a xlink:href="matrix_8h.html" target="_top" xlink:title=" ">
<polygon fill="white" stroke="#666666" points="876,-250 760,-250 760,-231 876,-231 876,-250"/>
<text text-anchor="middle" x="818" y="-238" font-family="Helvetica,sans-Serif" font-size="10.00">math/linalg/matrix.h</text>
</a>
</g>
</g>
<!-- Node17&#45;&gt;Node19 -->
<g id="edge25_Node000017_Node000019" class="edge">
<title>Node17&#45;&gt;Node19</title>
<g id="a_edge25_Node000017_Node000019"><a xlink:title=" ">
<path fill="none" stroke="#63b8ff" d="M515.19,-351.83C594.08,-346.32 735.78,-332.82 778,-305 794.28,-294.27 805.2,-274.38 811.46,-259.71"/>
<polygon fill="#63b8ff" stroke="#63b8ff" points="814.81,-260.74 815.2,-250.16 808.3,-258.19 814.81,-260.74"/>
</a>
</g>
</g>
<!-- Node17&#45;&gt;Node25 -->
<g id="edge39_Node000017_Node000025" class="edge">
<title>Node17&#45;&gt;Node25</title>
<g id="a_edge39_Node000017_Node000025"><a xlink:title=" ">
<path fill="none" stroke="#63b8ff" d="M515.15,-342.38C559.98,-331.93 623,-317.24 665.56,-307.32"/>
<polygon fill="#63b8ff" stroke="#63b8ff" points="666.43,-310.71 675.38,-305.04 664.84,-303.9 666.43,-310.71"/>
</a>
</g>
</g>
<!-- Node26 -->
<g id="Node000026" class="node">
<title>Node26</title>
<g id="a_Node000026"><a xlink:title=" ">
<polygon fill="#e0e0e0" stroke="#999999" points="514.5,-305 469.5,-305 469.5,-286 514.5,-286 514.5,-305"/>
<text text-anchor="middle" x="492" y="-293" font-family="Helvetica,sans-Serif" font-size="10.00">utility</text>
</a>
</g>
</g>
<!-- Node17&#45;&gt;Node26 -->
<g id="edge44_Node000017_Node000026" class="edge">
<title>Node17&#45;&gt;Node26</title>
<g id="a_edge44_Node000017_Node000026"><a xlink:title=" ">
<path fill="none" stroke="#63b8ff" d="M468.5,-340.84C472.73,-332.87 478.04,-322.84 482.55,-314.33"/>
<polygon fill="#63b8ff" stroke="#63b8ff" points="485.77,-315.74 487.35,-305.27 479.58,-312.46 485.77,-315.74"/>
</a>
</g>
</g>
<!-- Node19&#45;&gt;Node2 -->
<g id="edge26_Node000019_Node000002" class="edge">
<title>Node19&#45;&gt;Node2</title>
<g id="a_edge26_Node000019_Node000002"><a xlink:title=" ">
<path fill="none" stroke="#63b8ff" d="M770.79,-230.98C722.54,-222.21 645.48,-208.03 579,-195 467.37,-173.12 336.75,-145.82 266.97,-131.09"/>
<polygon fill="#63b8ff" stroke="#63b8ff" points="267.63,-127.66 257.13,-129.02 266.19,-134.51 267.63,-127.66"/>
</a>
</g>
</g>
<!-- Node19&#45;&gt;Node8 -->
<g id="edge37_Node000019_Node000008" class="edge">
<title>Node19&#45;&gt;Node8</title>
<g id="a_edge37_Node000019_Node000008"><a xlink:title=" ">
<path fill="none" stroke="#63b8ff" d="M767.09,-231C732.89,-224.1 687.41,-212.59 650,-195 591.18,-167.34 586.9,-143.16 531,-110 510.82,-98.03 486.94,-86.55 468.57,-78.25"/>
<polygon fill="#63b8ff" stroke="#63b8ff" points="469.81,-74.97 459.25,-74.1 466.96,-81.37 469.81,-74.97"/>
</a>
</g>
</g>
<!-- Node19&#45;&gt;Node18 -->
<g id="edge33_Node000019_Node000018" class="edge">
<title>Node19&#45;&gt;Node18</title>
<g id="a_edge33_Node000019_Node000018"><a xlink:title=" ">
<path fill="none" stroke="#63b8ff" d="M876.05,-235.57C932.84,-230.37 1013.54,-218.91 1033,-195 1048.29,-176.22 1026.96,-151.34 1009.26,-135.62"/>
<polygon fill="#63b8ff" stroke="#63b8ff" points="1011.43,-132.87 1001.53,-129.1 1006.92,-138.22 1011.43,-132.87"/>
</a>
</g>
</g>
<!-- Node20 -->
<g id="Node000020" class="node">
<title>Node20</title>
<g id="a_Node000020"><a xlink:href="matrix__intf_8h.html" target="_top" xlink:title=" ">
<polygon fill="white" stroke="#666666" points="779,-195 659,-195 659,-165 779,-165 779,-195"/>
<text text-anchor="start" x="667" y="-183" font-family="Helvetica,sans-Serif" font-size="10.00">math/linalg/contracts</text>
<text text-anchor="middle" x="719" y="-172" font-family="Helvetica,sans-Serif" font-size="10.00">/matrix_intf.h</text>
</a>
</g>
</g>
<!-- Node19&#45;&gt;Node20 -->
<g id="edge27_Node000019_Node000020" class="edge">
<title>Node19&#45;&gt;Node20</title>
<g id="a_edge27_Node000019_Node000020"><a xlink:title=" ">
<path fill="none" stroke="#63b8ff" d="M803.39,-230.87C789.83,-222.86 769.17,-210.65 751.69,-200.31"/>
<polygon fill="#63b8ff" stroke="#63b8ff" points="753.28,-197.19 742.89,-195.11 749.71,-203.22 753.28,-197.19"/>
</a>
</g>
</g>
<!-- Node21 -->
<g id="Node000021" class="node">
<title>Node21</title>
<g id="a_Node000021"><a xlink:href="matrix__types_8h.html" target="_top" xlink:title="Type definitions and enumerations for matrix operations.">
<polygon fill="white" stroke="#666666" points="1023.5,-195 916.5,-195 916.5,-165 1023.5,-165 1023.5,-195"/>
<text text-anchor="start" x="924.5" y="-183" font-family="Helvetica,sans-Serif" font-size="10.00">math/linalg/matrix</text>
<text text-anchor="middle" x="970" y="-172" font-family="Helvetica,sans-Serif" font-size="10.00">_types.h</text>
</a>
</g>
</g>
<!-- Node19&#45;&gt;Node21 -->
<g id="edge34_Node000019_Node000021" class="edge">
<title>Node19&#45;&gt;Node21</title>
<g id="a_edge34_Node000019_Node000021"><a xlink:title=" ">
<path fill="none" stroke="#63b8ff" d="M840.1,-230.99C861.98,-222.57 896.13,-209.43 923.92,-198.73"/>
<polygon fill="#63b8ff" stroke="#63b8ff" points="925.38,-201.92 933.46,-195.06 922.87,-195.39 925.38,-201.92"/>
</a>
</g>
</g>
<!-- Node22 -->
<g id="Node000022" class="node">
<title>Node22</title>
<g id="a_Node000022"><a xlink:title=" ">
<polygon fill="#e0e0e0" stroke="#999999" points="1220,-189.5 1156,-189.5 1156,-170.5 1220,-170.5 1220,-189.5"/>
<text text-anchor="middle" x="1188" y="-177.5" font-family="Helvetica,sans-Serif" font-size="10.00">algorithm</text>
</a>
</g>
</g>
<!-- Node19&#45;&gt;Node22 -->
<g id="edge35_Node000019_Node000022" class="edge">
<title>Node19&#45;&gt;Node22</title>
<g id="a_edge35_Node000019_Node000022"><a xlink:title=" ">
<path fill="none" stroke="#63b8ff" d="M871.8,-230.99C945.96,-219.27 1078.07,-198.38 1145.64,-187.7"/>
<polygon fill="#63b8ff" stroke="#63b8ff" points="1146.19,-191.15 1155.52,-186.14 1145.1,-184.24 1146.19,-191.15"/>
</a>
</g>
</g>
<!-- Node23 -->
<g id="Node000023" class="node">
<title>Node23</title>
<g id="a_Node000023"><a xlink:title=" ">
<polygon fill="#e0e0e0" stroke="#999999" points="839,-189.5 797,-189.5 797,-170.5 839,-170.5 839,-189.5"/>
<text text-anchor="middle" x="818" y="-177.5" font-family="Helvetica,sans-Serif" font-size="10.00">array</text>
</a>
</g>
</g>
<!-- Node19&#45;&gt;Node23 -->
<g id="edge36_Node000019_Node000023" class="edge">
<title>Node19&#45;&gt;Node23</title>
<g id="a_edge36_Node000019_Node000023"><a xlink:title=" ">
<path fill="none" stroke="#63b8ff" d="M818,-230.87C818,-222.75 818,-210.31 818,-199.89"/>
<polygon fill="#63b8ff" stroke="#63b8ff" points="821.5,-199.67 818,-189.67 814.5,-199.67 821.5,-199.67"/>
</a>
</g>
</g>
<!-- Node24 -->
<g id="Node000024" class="node">
<title>Node24</title>
<g id="a_Node000024"><a xlink:title=" ">
<polygon fill="#e0e0e0" stroke="#999999" points="898.5,-189.5 857.5,-189.5 857.5,-170.5 898.5,-170.5 898.5,-189.5"/>
<text text-anchor="middle" x="878" y="-177.5" font-family="Helvetica,sans-Serif" font-size="10.00">tuple</text>
</a>
</g>
</g>
<!-- Node19&#45;&gt;Node24 -->
<g id="edge38_Node000019_Node000024" class="edge">
<title>Node19&#45;&gt;Node24</title>
<g id="a_edge38_Node000019_Node000024"><a xlink:title=" ">
<path fill="none" stroke="#63b8ff" d="M826.85,-230.87C835.98,-221.97 850.42,-207.89 861.64,-196.95"/>
<polygon fill="#63b8ff" stroke="#63b8ff" points="864.39,-199.15 869.11,-189.67 859.51,-194.14 864.39,-199.15"/>
</a>
</g>
</g>
<!-- Node20&#45;&gt;Node2 -->
<g id="edge28_Node000020_Node000002" class="edge">
<title>Node20&#45;&gt;Node2</title>
<g id="a_edge28_Node000020_Node000002"><a xlink:title=" ">
<path fill="none" stroke="#63b8ff" d="M658.95,-172C564.19,-160.96 380.69,-139.58 282.6,-128.14"/>
<polygon fill="#63b8ff" stroke="#63b8ff" points="282.85,-124.65 272.51,-126.97 282.04,-131.6 282.85,-124.65"/>
</a>
</g>
</g>
<!-- Node20&#45;&gt;Node13 -->
<g id="edge29_Node000020_Node000013" class="edge">
<title>Node20&#45;&gt;Node13</title>
<g id="a_edge29_Node000020_Node000013"><a xlink:title=" ">
<path fill="none" stroke="#63b8ff" d="M779.16,-166.53C782.15,-165.99 785.11,-165.48 788,-165 837.72,-156.78 968.76,-140.52 1054.82,-130.1"/>
<polygon fill="#63b8ff" stroke="#63b8ff" points="1055.32,-133.56 1064.83,-128.89 1054.48,-126.61 1055.32,-133.56"/>
</a>
</g>
</g>
<!-- Node20&#45;&gt;Node15 -->
<g id="edge30_Node000020_Node000015" class="edge">
<title>Node20&#45;&gt;Node15</title>
<g id="a_edge30_Node000020_Node000015"><a xlink:title=" ">
<path fill="none" stroke="#63b8ff" d="M711.74,-164.84C707.65,-156.87 702.51,-146.84 698.14,-138.33"/>
<polygon fill="#63b8ff" stroke="#63b8ff" points="701.17,-136.57 693.5,-129.27 694.94,-139.76 701.17,-136.57"/>
</a>
</g>
</g>
<!-- Node20&#45;&gt;Node16 -->
<g id="edge31_Node000020_Node000016" class="edge">
<title>Node20&#45;&gt;Node16</title>
<g id="a_edge31_Node000020_Node000016"><a xlink:title=" ">
<path fill="none" stroke="#63b8ff" d="M749.18,-164.99C769.83,-155.4 797,-142.79 817.13,-133.44"/>
<polygon fill="#63b8ff" stroke="#63b8ff" points="818.8,-136.52 826.39,-129.14 815.85,-130.18 818.8,-136.52"/>
</a>
</g>
</g>
<!-- Node20&#45;&gt;Node18 -->
<g id="edge32_Node000020_Node000018" class="edge">
<title>Node20&#45;&gt;Node18</title>
<g id="a_edge32_Node000020_Node000018"><a xlink:title=" ">
<path fill="none" stroke="#63b8ff" d="M779.14,-166.02C827.71,-155.53 895.21,-140.96 940.64,-131.15"/>
<polygon fill="#63b8ff" stroke="#63b8ff" points="941.52,-134.55 950.55,-129.02 940.04,-127.7 941.52,-134.55"/>
</a>
</g>
</g>
<!-- Node25&#45;&gt;Node2 -->
<g id="edge40_Node000025_Node000002" class="edge">
<title>Node25&#45;&gt;Node2</title>
<g id="a_edge40_Node000025_Node000002"><a xlink:title=" ">
<path fill="none" stroke="#63b8ff" d="M687.79,-285.99C606.79,-257.52 345.09,-165.53 251.05,-132.47"/>
<polygon fill="#63b8ff" stroke="#63b8ff" points="252.05,-129.11 241.46,-129.1 249.73,-135.71 252.05,-129.11"/>
</a>
</g>
</g>
<!-- Node25&#45;&gt;Node8 -->
<g id="edge42_Node000025_Node000008" class="edge">
<title>Node25&#45;&gt;Node8</title>
<g id="a_edge42_Node000025_Node000008"><a xlink:title=" ">
<path fill="none" stroke="#63b8ff" d="M701.63,-285.8C660.67,-251.44 509.78,-124.87 457.21,-80.77"/>
<polygon fill="#63b8ff" stroke="#63b8ff" points="459.29,-77.95 449.38,-74.21 454.79,-83.31 459.29,-77.95"/>
</a>
</g>
</g>
<!-- Node25&#45;&gt;Node19 -->
<g id="edge41_Node000025_Node000019" class="edge">
<title>Node25&#45;&gt;Node19</title>
<g id="a_edge41_Node000025_Node000019"><a xlink:title=" ">
<path fill="none" stroke="#63b8ff" d="M729.03,-285.98C745.93,-277.54 772.06,-264.47 791.64,-254.68"/>
<polygon fill="#63b8ff" stroke="#63b8ff" points="793.28,-257.77 800.66,-250.17 790.15,-251.51 793.28,-257.77"/>
</a>
</g>
</g>
<!-- Node28&#45;&gt;Node2 -->
<g id="edge48_Node000028_Node000002" class="edge">
<title>Node28&#45;&gt;Node2</title>
<g id="a_edge48_Node000028_Node000002"><a xlink:title=" ">
<path fill="none" stroke="#63b8ff" d="M325.23,-472.95C315.46,-463.55 303.24,-450.49 295,-437 248.8,-361.41 250.09,-335.25 226,-250 219.22,-226.01 217.46,-219.81 215,-195 213.69,-181.73 214.7,-178.33 215,-165 215.19,-156.49 215.59,-147.06 215.98,-139.09"/>
<polygon fill="#63b8ff" stroke="#63b8ff" points="219.48,-139.2 216.5,-129.03 212.49,-138.83 219.48,-139.2"/>
</a>
</g>
</g>
<!-- Node28&#45;&gt;Node8 -->
<g id="edge51_Node000028_Node000008" class="edge">
<title>Node28&#45;&gt;Node8</title>
<g id="a_edge51_Node000028_Node000008"><a xlink:title=" ">
<path fill="none" stroke="#63b8ff" d="M343.91,-472.82C347.22,-456.81 352.83,-430 358,-407 385.77,-283.47 421.82,-135.49 434.42,-84.13"/>
<polygon fill="#63b8ff" stroke="#63b8ff" points="437.87,-84.74 436.86,-74.19 431.08,-83.07 437.87,-84.74"/>
</a>
</g>
</g>
<!-- Node28&#45;&gt;Node12 -->
<g id="edge49_Node000028_Node000012" class="edge">
<title>Node28&#45;&gt;Node12</title>
<g id="a_edge49_Node000028_Node000012"><a xlink:title=" ">
<path fill="none" stroke="#63b8ff" d="M367.33,-472.95C384.53,-463.78 407.18,-451.71 425.89,-441.72"/>
<polygon fill="#63b8ff" stroke="#63b8ff" points="427.55,-444.81 434.73,-437.01 424.26,-438.63 427.55,-444.81"/>
</a>
</g>
</g>
<!-- Node28&#45;&gt;Node17 -->
<g id="edge50_Node000028_Node000017" class="edge">
<title>Node28&#45;&gt;Node17</title>
<g id="a_edge50_Node000028_Node000017"><a xlink:title=" ">
<path fill="none" stroke="#63b8ff" d="M345.61,-472.92C351.76,-455.78 364,-426.71 382,-407 393.22,-394.71 408.13,-384.24 421.97,-376.11"/>
<polygon fill="#63b8ff" stroke="#63b8ff" points="423.86,-379.06 430.86,-371.11 420.43,-372.96 423.86,-379.06"/>
</a>
</g>
</g>
<!-- Node29&#45;&gt;Node2 -->
<g id="edge54_Node000029_Node000002" class="edge">
<title>Node29&#45;&gt;Node2</title>
<g id="a_edge54_Node000029_Node000002"><a xlink:title=" ">
<path fill="none" stroke="#63b8ff" d="M861.1,-421.24C740.46,-420.75 475.99,-414.56 398,-371 301.09,-316.87 242.6,-186.63 223.73,-138.65"/>
<polygon fill="#63b8ff" stroke="#63b8ff" points="226.88,-137.09 220.04,-129.01 220.35,-139.6 226.88,-137.09"/>
</a>
</g>
</g>
<!-- Node30 -->
<g id="Node000030" class="node">
<title>Node30</title>
<g id="a_Node000030"><a xlink:href="vector_8hpp.html" target="_top" xlink:title=" ">
<polygon fill="white" stroke="#666666" points="1234,-365.5 1108,-365.5 1108,-346.5 1234,-346.5 1234,-365.5"/>
<text text-anchor="middle" x="1171" y="-353.5" font-family="Helvetica,sans-Serif" font-size="10.00">math/linalg/vector.hpp</text>
</a>
</g>
</g>
<!-- Node29&#45;&gt;Node30 -->
<g id="edge55_Node000029_Node000030" class="edge">
<title>Node29&#45;&gt;Node30</title>
<g id="a_edge55_Node000029_Node000030"><a xlink:title=" ">
<path fill="none" stroke="#63b8ff" d="M955.32,-412.44C999.86,-400.99 1078.86,-380.68 1127.89,-368.08"/>
<polygon fill="#63b8ff" stroke="#63b8ff" points="1129.06,-371.39 1137.87,-365.51 1127.32,-364.61 1129.06,-371.39"/>
</a>
</g>
</g>
<!-- Node30&#45;&gt;Node25 -->
<g id="edge56_Node000030_Node000025" class="edge">
<title>Node30&#45;&gt;Node25</title>
<g id="a_edge56_Node000030_Node000025"><a xlink:title=" ">
<path fill="none" stroke="#63b8ff" d="M1107.66,-346.93C1021.43,-335.94 867.76,-316.35 779.45,-305.1"/>
<polygon fill="#63b8ff" stroke="#63b8ff" points="779.64,-301.59 769.27,-303.8 778.75,-308.54 779.64,-301.59"/>
</a>
</g>
</g>
<!-- Node31 -->
<g id="Node000031" class="node">
<title>Node31</title>
<g id="a_Node000031"><a xlink:href="matrix_8hpp.html" target="_top" xlink:title=" ">
<polygon fill="white" stroke="#666666" points="1356,-305 1228,-305 1228,-286 1356,-286 1356,-305"/>
<text text-anchor="middle" x="1292" y="-293" font-family="Helvetica,sans-Serif" font-size="10.00">math/linalg/matrix.hpp</text>
</a>
</g>
</g>
<!-- Node30&#45;&gt;Node31 -->
<g id="edge57_Node000030_Node000031" class="edge">
<title>Node30&#45;&gt;Node31</title>
<g id="a_edge57_Node000030_Node000031"><a xlink:title=" ">
<path fill="none" stroke="#63b8ff" d="M1188.59,-346.49C1208.76,-336.75 1242.02,-320.66 1265.36,-309.38"/>
<polygon fill="#63b8ff" stroke="#63b8ff" points="1266.9,-312.52 1274.38,-305.02 1263.86,-306.22 1266.9,-312.52"/>
</a>
</g>
</g>
<!-- Node32 -->
<g id="Node000032" class="node">
<title>Node32</title>
<g id="a_Node000032"><a xlink:title=" ">
<polygon fill="#e0e0e0" stroke="#999999" points="1608.5,-250 1561.5,-250 1561.5,-231 1608.5,-231 1608.5,-250"/>
<text text-anchor="middle" x="1585" y="-238" font-family="Helvetica,sans-Serif" font-size="10.00">cmath</text>
</a>
</g>
</g>
<!-- Node30&#45;&gt;Node32 -->
<g id="edge66_Node000030_Node000032" class="edge">
<title>Node30&#45;&gt;Node32</title>
<g id="a_edge66_Node000030_Node000032"><a xlink:title=" ">
<path fill="none" stroke="#63b8ff" d="M1205.42,-346.45C1244.27,-336.72 1309.3,-320.21 1365,-305 1431.39,-286.87 1508.6,-264.22 1551.63,-251.46"/>
<polygon fill="#63b8ff" stroke="#63b8ff" points="1552.71,-254.79 1561.3,-248.58 1550.71,-248.08 1552.71,-254.79"/>
</a>
</g>
</g>
<!-- Node31&#45;&gt;Node14 -->
<g id="edge65_Node000031_Node000014" class="edge">
<title>Node31&#45;&gt;Node14</title>
<g id="a_edge65_Node000031_Node000014"><a xlink:title=" ">
<path fill="none" stroke="#63b8ff" d="M1284.79,-285.77C1277.93,-277.13 1267.69,-263.29 1261,-250 1231.5,-191.37 1263.28,-153.35 1214,-110 1187.94,-87.07 1092.73,-74.69 1035.16,-69.15"/>
<polygon fill="#63b8ff" stroke="#63b8ff" points="1035.16,-65.64 1024.88,-68.2 1034.51,-72.61 1035.16,-65.64"/>
</a>
</g>
</g>
<!-- Node31&#45;&gt;Node19 -->
<g id="edge58_Node000031_Node000019" class="edge">
<title>Node31&#45;&gt;Node19</title>
<g id="a_edge58_Node000031_Node000019"><a xlink:title=" ">
<path fill="none" stroke="#63b8ff" d="M1227.58,-287.3C1138.28,-277.31 977.6,-259.35 886.29,-249.14"/>
<polygon fill="#63b8ff" stroke="#63b8ff" points="886.65,-245.65 876.32,-248.02 885.87,-252.61 886.65,-245.65"/>
</a>
</g>
</g>
<!-- Node31&#45;&gt;Node22 -->
<g id="edge59_Node000031_Node000022" class="edge">
<title>Node31&#45;&gt;Node22</title>
<g id="a_edge59_Node000031_Node000022"><a xlink:title=" ">
<path fill="none" stroke="#63b8ff" d="M1275.79,-285.93C1261.88,-277.98 1241.94,-265.13 1228,-250 1213.98,-234.77 1202.69,-213.8 1195.73,-198.98"/>
<polygon fill="#63b8ff" stroke="#63b8ff" points="1198.91,-197.54 1191.62,-189.86 1192.53,-200.41 1198.91,-197.54"/>
</a>
</g>
</g>
<!-- Node31&#45;&gt;Node32 -->
<g id="edge60_Node000031_Node000032" class="edge">
<title>Node31&#45;&gt;Node32</title>
<g id="a_edge60_Node000031_Node000032"><a xlink:title=" ">
<path fill="none" stroke="#63b8ff" d="M1351.12,-285.99C1401.93,-278.31 1477.35,-266.08 1551.34,-250.21"/>
<polygon fill="#63b8ff" stroke="#63b8ff" points="1552.26,-253.59 1561.29,-248.05 1550.78,-246.75 1552.26,-253.59"/>
</a>
</g>
</g>
<!-- Node33 -->
<g id="Node000033" class="node">
<title>Node33</title>
<g id="a_Node000033"><a xlink:title=" ">
<polygon fill="#e0e0e0" stroke="#999999" points="1397.5,-250 1332.5,-250 1332.5,-231 1397.5,-231 1397.5,-250"/>
<text text-anchor="middle" x="1365" y="-238" font-family="Helvetica,sans-Serif" font-size="10.00">functional</text>
</a>
</g>
</g>
<!-- Node31&#45;&gt;Node33 -->
<g id="edge61_Node000031_Node000033" class="edge">
<title>Node31&#45;&gt;Node33</title>
<g id="a_edge61_Node000031_Node000033"><a xlink:title=" ">
<path fill="none" stroke="#63b8ff" d="M1303.73,-285.98C1314.73,-278 1331.42,-265.88 1344.6,-256.31"/>
<polygon fill="#63b8ff" stroke="#63b8ff" points="1347.02,-258.88 1353.06,-250.17 1342.91,-253.21 1347.02,-258.88"/>
</a>
</g>
</g>
<!-- Node34 -->
<g id="Node000034" class="node">
<title>Node34</title>
<g id="a_Node000034"><a xlink:title=" ">
<polygon fill="#e0e0e0" stroke="#999999" points="1460,-250 1416,-250 1416,-231 1460,-231 1460,-250"/>
<text text-anchor="middle" x="1438" y="-238" font-family="Helvetica,sans-Serif" font-size="10.00">limits</text>
</a>
</g>
</g>
<!-- Node31&#45;&gt;Node34 -->
<g id="edge62_Node000031_Node000034" class="edge">
<title>Node31&#45;&gt;Node34</title>
<g id="a_edge62_Node000031_Node000034"><a xlink:title=" ">
<path fill="none" stroke="#63b8ff" d="M1315.46,-285.98C1340.01,-277.07 1378.72,-263.02 1406.05,-253.1"/>
<polygon fill="#63b8ff" stroke="#63b8ff" points="1407.35,-256.35 1415.56,-249.65 1404.97,-249.77 1407.35,-256.35"/>
</a>
</g>
</g>
<!-- Node35 -->
<g id="Node000035" class="node">
<title>Node35</title>
<g id="a_Node000035"><a xlink:title=" ">
<polygon fill="#e0e0e0" stroke="#999999" points="1543.5,-250 1478.5,-250 1478.5,-231 1543.5,-231 1543.5,-250"/>
<text text-anchor="middle" x="1511" y="-238" font-family="Helvetica,sans-Serif" font-size="10.00">stdexcept</text>
</a>
</g>
</g>
<!-- Node31&#45;&gt;Node35 -->
<g id="edge63_Node000031_Node000035" class="edge">
<title>Node31&#45;&gt;Node35</title>
<g id="a_edge63_Node000031_Node000035"><a xlink:title=" ">
<path fill="none" stroke="#63b8ff" d="M1327.19,-285.98C1365.72,-276.66 1427.51,-261.71 1468.67,-251.74"/>
<polygon fill="#63b8ff" stroke="#63b8ff" points="1469.51,-255.14 1478.4,-249.39 1467.86,-248.34 1469.51,-255.14"/>
</a>
</g>
</g>
<!-- Node36 -->
<g id="Node000036" class="node">
<title>Node36</title>
<g id="a_Node000036"><a xlink:title=" ">
<polygon fill="#e0e0e0" stroke="#999999" points="1314,-250 1270,-250 1270,-231 1314,-231 1314,-250"/>
<text text-anchor="middle" x="1292" y="-238" font-family="Helvetica,sans-Serif" font-size="10.00">string</text>
</a>
</g>
</g>
<!-- Node31&#45;&gt;Node36 -->
<g id="edge64_Node000031_Node000036" class="edge">
<title>Node31&#45;&gt;Node36</title>
<g id="a_edge64_Node000031_Node000036"><a xlink:title=" ">
<path fill="none" stroke="#63b8ff" d="M1292,-285.75C1292,-278.8 1292,-268.85 1292,-260.13"/>
<polygon fill="#63b8ff" stroke="#63b8ff" points="1295.5,-260.09 1292,-250.09 1288.5,-260.09 1295.5,-260.09"/>
</a>
</g>
</g>
</g>
</svg>
