<?xml version="1.0" encoding="UTF-8" standalone="no"?>
<!DOCTYPE svg PUBLIC "-//W3C//DTD SVG 1.1//EN"
 "http://www.w3.org/Graphics/SVG/1.1/DTD/svg11.dtd">
<!-- Generated by graphviz version 2.43.0 (0)
 -->
<!-- Title: include/trackingLib/filter/information_filter.h Pages: 1 -->
<!--zoomable 731 -->

<svg id="main" version="1.1" xmlns="http://www.w3.org/2000/svg" xmlns:xlink="http://www.w3.org/1999/xlink" xml:space="preserve" onload="init(evt)">
<style type="text/css"><![CDATA[
.node, .edge {opacity: 0.7;}
.node.selected, .edge.selected {opacity: 1;}
.edge:hover path { stroke: red; }
.edge:hover polygon { stroke: red; fill: red; }
]]></style>

<defs>
  <circle id="rim" cx="0" cy="0" r="7"/>
  <circle id="rim2" cx="0" cy="0" r="3.5"/>
  <g id="zoomPlus">
    <use xlink:href="#rim" fill="#404040"><set attributeName="fill" to="#808080" begin="zoomplus.mouseover" end="zoomplus.mouseout"/></use>
    <path d="M-4,0h8M0,-4v8" fill="none" stroke="white" stroke-width="1.5" pointer-events="none"/>
  </g>
  <g id="zoomMin">
    <use xlink:href="#rim" fill="#404040"><set attributeName="fill" to="#808080" begin="zoomminus.mouseover" end="zoomminus.mouseout"/></use>
    <path d="M-4,0h8" fill="none" stroke="white" stroke-width="1.5" pointer-events="none"/>
  </g>
  <g id="arrowUp" transform="translate(30 24)">
    <use xlink:href="#rim"/>
    <path pointer-events="none" fill="none" stroke="white" stroke-width="1.5" d="M0,-3.0v7 M-2.5,-0.5L0,-3.0L2.5,-0.5"/>
  </g>
  <g id="arrowRight" transform="rotate(90) translate(36 -43)">
    <use xlink:href="#rim"/>
    <path pointer-events="none" fill="none" stroke="white" stroke-width="1.5" d="M0,-3.0v7 M-2.5,-0.5L0,-3.0L2.5,-0.5"/>
  </g>
  <g id="arrowDown" transform="rotate(180) translate(-30 -48)">
    <use xlink:href="#rim"/>
    <path pointer-events="none" fill="none" stroke="white" stroke-width="1.5" d="M0,-3.0v7 M-2.5,-0.5L0,-3.0L2.5,-0.5"/>
  </g>
  <g id="arrowLeft" transform="rotate(270) translate(-36 17)">
    <use xlink:href="#rim"/>
    <path pointer-events="none" fill="none" stroke="white" stroke-width="1.5" d="M0,-3.0v7 M-2.5,-0.5L0,-3.0L2.5,-0.5"/>
  </g>
  <g id="resetDef">
    <use xlink:href="#rim2" fill="#404040"><set attributeName="fill" to="#808080" begin="reset.mouseover" end="reset.mouseout"/></use>
  </g>
</defs>
<script type="application/ecmascript">
var viewWidth = 1470;
var viewHeight = 731;
var sectionId = 'dynsection-0';
</script>
<script type="application/ecmascript" xlink:href="svg.min.js"/>
<svg id="graph" class="graph">
<g id="viewport">
<title>include/trackingLib/filter/information_filter.h</title>
<!-- Node1 -->
<g id="Node000001" class="node">
<title>Node1</title>
<g id="a_Node000001"><a xlink:title=" ">
<polygon fill="#999999" stroke="#666666" points="1092.5,-723 983.5,-723 983.5,-682 1092.5,-682 1092.5,-723"/>
<text text-anchor="start" x="991.5" y="-711" font-family="Helvetica,sans-Serif" font-size="10.00">include/trackingLib</text>
<text text-anchor="start" x="991.5" y="-700" font-family="Helvetica,sans-Serif" font-size="10.00">/filter/information</text>
<text text-anchor="middle" x="1038" y="-689" font-family="Helvetica,sans-Serif" font-size="10.00">_filter.h</text>
</a>
</g>
</g>
<!-- Node2 -->
<g id="Node000002" class="node">
<title>Node2</title>
<g id="a_Node000002"><a xlink:href="first__include_8h.html" target="_top" xlink:title=" ">
<polygon fill="white" stroke="#666666" points="1224.5,-129 1113.5,-129 1113.5,-110 1224.5,-110 1224.5,-129"/>
<text text-anchor="middle" x="1169" y="-117" font-family="Helvetica,sans-Serif" font-size="10.00">base/first_include.h</text>
</a>
</g>
</g>
<!-- Node1&#45;&gt;Node2 -->
<g id="edge1_Node000001_Node000002" class="edge">
<title>Node1&#45;&gt;Node2</title>
<g id="a_edge1_Node000001_Node000002"><a xlink:title=" ">
<path fill="none" stroke="#63b8ff" d="M1092.56,-694.35C1207.08,-677.8 1462,-632.3 1462,-555 1462,-555 1462,-555 1462,-239.5 1462,-198.86 1443.26,-186.86 1409,-165 1380.76,-146.98 1295.86,-134.25 1235.06,-127.14"/>
<polygon fill="#63b8ff" stroke="#63b8ff" points="1235.1,-123.62 1224.76,-125.96 1234.3,-130.58 1235.1,-123.62"/>
</a>
</g>
</g>
<!-- Node9 -->
<g id="Node000009" class="node">
<title>Node9</title>
<g id="a_Node000009"><a xlink:href="covariance__matrix__policy__intf_8h.html" target="_top" xlink:title=" ">
<polygon fill="white" stroke="#666666" points="1287.5,-646 1142.5,-646 1142.5,-605 1287.5,-605 1287.5,-646"/>
<text text-anchor="start" x="1150.5" y="-634" font-family="Helvetica,sans-Serif" font-size="10.00">math/linalg/contracts</text>
<text text-anchor="start" x="1150.5" y="-623" font-family="Helvetica,sans-Serif" font-size="10.00">/covariance_matrix_policy</text>
<text text-anchor="middle" x="1215" y="-612" font-family="Helvetica,sans-Serif" font-size="10.00">_intf.h</text>
</a>
</g>
</g>
<!-- Node1&#45;&gt;Node9 -->
<g id="edge8_Node000001_Node000009" class="edge">
<title>Node1&#45;&gt;Node9</title>
<g id="a_edge8_Node000001_Node000009"><a xlink:title=" ">
<path fill="none" stroke="#63b8ff" d="M1084.04,-681.99C1107.1,-672.22 1135.2,-660.31 1159.45,-650.04"/>
<polygon fill="#63b8ff" stroke="#63b8ff" points="1161.04,-653.17 1168.88,-646.04 1158.31,-646.72 1161.04,-653.17"/>
</a>
</g>
</g>
<!-- Node10 -->
<g id="Node000010" class="node">
<title>Node10</title>
<g id="a_Node000010"><a xlink:href="covariance__matrix__policies_8h.html" target="_top" xlink:title=" ">
<polygon fill="white" stroke="#666666" points="1279,-569 1151,-569 1151,-539 1279,-539 1279,-569"/>
<text text-anchor="start" x="1159" y="-557" font-family="Helvetica,sans-Serif" font-size="10.00">math/linalg/covariance</text>
<text text-anchor="middle" x="1215" y="-546" font-family="Helvetica,sans-Serif" font-size="10.00">_matrix_policies.h</text>
</a>
</g>
</g>
<!-- Node1&#45;&gt;Node10 -->
<g id="edge52_Node000001_Node000010" class="edge">
<title>Node1&#45;&gt;Node10</title>
<g id="a_edge52_Node000001_Node000010"><a xlink:title=" ">
<path fill="none" stroke="#63b8ff" d="M1055.19,-681.64C1073.53,-661.11 1104,-628.79 1134,-605 1148.26,-593.69 1165.24,-582.86 1179.97,-574.18"/>
<polygon fill="#63b8ff" stroke="#63b8ff" points="1181.89,-577.11 1188.8,-569.08 1178.39,-571.05 1181.89,-577.11"/>
</a>
</g>
</g>
<!-- Node17 -->
<g id="Node000017" class="node">
<title>Node17</title>
<g id="a_Node000017"><a xlink:href="square__matrix_8h.html" target="_top" xlink:title=" ">
<polygon fill="white" stroke="#666666" points="425,-371 317,-371 317,-341 425,-341 425,-371"/>
<text text-anchor="start" x="325" y="-359" font-family="Helvetica,sans-Serif" font-size="10.00">math/linalg/square</text>
<text text-anchor="middle" x="371" y="-348" font-family="Helvetica,sans-Serif" font-size="10.00">_matrix.h</text>
</a>
</g>
</g>
<!-- Node1&#45;&gt;Node17 -->
<g id="edge67_Node000001_Node000017" class="edge">
<title>Node1&#45;&gt;Node17</title>
<g id="a_edge67_Node000001_Node000017"><a xlink:title=" ">
<path fill="none" stroke="#63b8ff" d="M983.48,-698.79C843.07,-690.31 480,-658.41 480,-555 480,-555 480,-555 480,-487 480,-450.35 482.24,-436.13 460,-407 449.76,-393.58 434.82,-383.23 420.1,-375.52"/>
<polygon fill="#63b8ff" stroke="#63b8ff" points="421.52,-372.32 411,-371.05 418.44,-378.6 421.52,-372.32"/>
</a>
</g>
</g>
<!-- Node19 -->
<g id="Node000019" class="node">
<title>Node19</title>
<g id="a_Node000019"><a xlink:href="matrix_8h.html" target="_top" xlink:title=" ">
<polygon fill="white" stroke="#666666" points="607,-250 491,-250 491,-231 607,-231 607,-250"/>
<text text-anchor="middle" x="549" y="-238" font-family="Helvetica,sans-Serif" font-size="10.00">math/linalg/matrix.h</text>
</a>
</g>
</g>
<!-- Node1&#45;&gt;Node19 -->
<g id="edge66_Node000001_Node000019" class="edge">
<title>Node1&#45;&gt;Node19</title>
<g id="a_edge66_Node000001_Node000019"><a xlink:title=" ">
<path fill="none" stroke="#63b8ff" d="M993.04,-682C947.59,-658.88 884,-615.7 884,-555 884,-555 884,-555 884,-355 884,-299.25 715.47,-265.49 617.48,-250.57"/>
<polygon fill="#63b8ff" stroke="#63b8ff" points="617.76,-247.07 607.35,-249.05 616.73,-253.99 617.76,-247.07"/>
</a>
</g>
</g>
<!-- Node29 -->
<g id="Node000029" class="node">
<title>Node29</title>
<g id="a_Node000029"><a xlink:href="diagonal__matrix_8h.html" target="_top" xlink:title=" ">
<polygon fill="white" stroke="#666666" points="406.5,-569 289.5,-569 289.5,-539 406.5,-539 406.5,-569"/>
<text text-anchor="start" x="297.5" y="-557" font-family="Helvetica,sans-Serif" font-size="10.00">math/linalg/diagonal</text>
<text text-anchor="middle" x="348" y="-546" font-family="Helvetica,sans-Serif" font-size="10.00">_matrix.h</text>
</a>
</g>
</g>
<!-- Node1&#45;&gt;Node29 -->
<g id="edge53_Node000001_Node000029" class="edge">
<title>Node1&#45;&gt;Node29</title>
<g id="a_edge53_Node000001_Node000029"><a xlink:title=" ">
<path fill="none" stroke="#63b8ff" d="M983.05,-700.02C858.68,-696.07 559.24,-682.9 466,-646 426.84,-630.5 389.76,-597.91 367.96,-576.24"/>
<polygon fill="#63b8ff" stroke="#63b8ff" points="370.41,-573.74 360.9,-569.07 365.43,-578.65 370.41,-573.74"/>
</a>
</g>
</g>
<!-- Node3 -->
<g id="Node000003" class="node">
<title>Node3</title>
<g id="a_Node000003"><a xlink:href="test__config_8h.html" target="_top" xlink:title=" ">
<polygon fill="white" stroke="#666666" points="1250.5,-74 1171.5,-74 1171.5,-55 1250.5,-55 1250.5,-74"/>
<text text-anchor="middle" x="1211" y="-62" font-family="Helvetica,sans-Serif" font-size="10.00">test_config.h</text>
</a>
</g>
</g>
<!-- Node2&#45;&gt;Node3 -->
<g id="edge2_Node000002_Node000003" class="edge">
<title>Node2&#45;&gt;Node3</title>
<g id="a_edge2_Node000002_Node000003"><a xlink:title=" ">
<path fill="none" stroke="#63b8ff" d="M1175.94,-109.75C1181.87,-102.26 1190.57,-91.28 1197.82,-82.13"/>
<polygon fill="#63b8ff" stroke="#63b8ff" points="1200.73,-84.1 1204.19,-74.09 1195.24,-79.75 1200.73,-84.1"/>
</a>
</g>
</g>
<!-- Node4 -->
<g id="Node000004" class="node">
<title>Node4</title>
<g id="a_Node000004"><a xlink:href="atomic__types_8h.html" target="_top" xlink:title=" ">
<polygon fill="white" stroke="#666666" points="1361,-74 1269,-74 1269,-55 1361,-55 1361,-74"/>
<text text-anchor="middle" x="1315" y="-62" font-family="Helvetica,sans-Serif" font-size="10.00">atomic_types.h</text>
</a>
</g>
</g>
<!-- Node2&#45;&gt;Node4 -->
<g id="edge3_Node000002_Node000004" class="edge">
<title>Node2&#45;&gt;Node4</title>
<g id="a_edge3_Node000002_Node000004"><a xlink:title=" ">
<path fill="none" stroke="#63b8ff" d="M1192.46,-109.98C1216.58,-101.23 1254.37,-87.51 1281.6,-77.62"/>
<polygon fill="#63b8ff" stroke="#63b8ff" points="1282.91,-80.87 1291.12,-74.17 1280.52,-74.29 1282.91,-80.87"/>
</a>
</g>
</g>
<!-- Node6 -->
<g id="Node000006" class="node">
<title>Node6</title>
<g id="a_Node000006"><a xlink:title=" ">
<polygon fill="#e0e0e0" stroke="#999999" points="1083,-74 991,-74 991,-55 1083,-55 1083,-74"/>
<text text-anchor="middle" x="1037" y="-62" font-family="Helvetica,sans-Serif" font-size="10.00">tl/expected.hpp</text>
</a>
</g>
</g>
<!-- Node2&#45;&gt;Node6 -->
<g id="edge5_Node000002_Node000006" class="edge">
<title>Node2&#45;&gt;Node6</title>
<g id="a_edge5_Node000002_Node000006"><a xlink:title=" ">
<path fill="none" stroke="#63b8ff" d="M1147.79,-109.98C1126.27,-101.34 1092.72,-87.87 1068.17,-78.02"/>
<polygon fill="#63b8ff" stroke="#63b8ff" points="1069.18,-74.65 1058.59,-74.17 1066.57,-81.14 1069.18,-74.65"/>
</a>
</g>
</g>
<!-- Node7 -->
<g id="Node000007" class="node">
<title>Node7</title>
<g id="a_Node000007"><a xlink:title=" ">
<polygon fill="#e0e0e0" stroke="#999999" points="1153,-74 1101,-74 1101,-55 1153,-55 1153,-74"/>
<text text-anchor="middle" x="1127" y="-62" font-family="Helvetica,sans-Serif" font-size="10.00">cassert</text>
</a>
</g>
</g>
<!-- Node2&#45;&gt;Node7 -->
<g id="edge6_Node000002_Node000007" class="edge">
<title>Node2&#45;&gt;Node7</title>
<g id="a_edge6_Node000002_Node000007"><a xlink:title=" ">
<path fill="none" stroke="#63b8ff" d="M1162.06,-109.75C1156.13,-102.26 1147.43,-91.28 1140.18,-82.13"/>
<polygon fill="#63b8ff" stroke="#63b8ff" points="1142.76,-79.75 1133.81,-74.09 1137.27,-84.1 1142.76,-79.75"/>
</a>
</g>
</g>
<!-- Node8 -->
<g id="Node000008" class="node">
<title>Node8</title>
<g id="a_Node000008"><a xlink:title=" ">
<polygon fill="#e0e0e0" stroke="#999999" points="174.5,-74 91.5,-74 91.5,-55 174.5,-55 174.5,-74"/>
<text text-anchor="middle" x="133" y="-62" font-family="Helvetica,sans-Serif" font-size="10.00">initializer_list</text>
</a>
</g>
</g>
<!-- Node2&#45;&gt;Node8 -->
<g id="edge7_Node000002_Node000008" class="edge">
<title>Node2&#45;&gt;Node8</title>
<g id="a_edge7_Node000002_Node000008"><a xlink:title=" ">
<path fill="none" stroke="#63b8ff" d="M1113.3,-115.65C931.98,-106.37 360.25,-77.13 184.74,-68.15"/>
<polygon fill="#63b8ff" stroke="#63b8ff" points="184.9,-64.65 174.73,-67.64 184.54,-71.64 184.9,-64.65"/>
</a>
</g>
</g>
<!-- Node5 -->
<g id="Node000005" class="node">
<title>Node5</title>
<g id="a_Node000005"><a xlink:title=" ">
<polygon fill="#e0e0e0" stroke="#999999" points="1340,-19 1290,-19 1290,0 1340,0 1340,-19"/>
<text text-anchor="middle" x="1315" y="-7" font-family="Helvetica,sans-Serif" font-size="10.00">cstdint</text>
</a>
</g>
</g>
<!-- Node4&#45;&gt;Node5 -->
<g id="edge4_Node000004_Node000005" class="edge">
<title>Node4&#45;&gt;Node5</title>
<g id="a_edge4_Node000004_Node000005"><a xlink:title=" ">
<path fill="none" stroke="#63b8ff" d="M1315,-54.75C1315,-47.8 1315,-37.85 1315,-29.13"/>
<polygon fill="#63b8ff" stroke="#63b8ff" points="1318.5,-29.09 1315,-19.09 1311.5,-29.09 1318.5,-29.09"/>
</a>
</g>
</g>
<!-- Node9&#45;&gt;Node2 -->
<g id="edge9_Node000009_Node000002" class="edge">
<title>Node9&#45;&gt;Node2</title>
<g id="a_edge9_Node000009_Node000002"><a xlink:title=" ">
<path fill="none" stroke="#63b8ff" d="M1287.51,-609C1347.88,-591.33 1424,-555.81 1424,-489 1424,-489 1424,-489 1424,-239.5 1424,-156.1 1310.6,-131.01 1235.04,-123.55"/>
<polygon fill="#63b8ff" stroke="#63b8ff" points="1234.92,-120.03 1224.65,-122.61 1234.29,-127 1234.92,-120.03"/>
</a>
</g>
</g>
<!-- Node9&#45;&gt;Node10 -->
<g id="edge10_Node000009_Node000010" class="edge">
<title>Node9&#45;&gt;Node10</title>
<g id="a_edge10_Node000009_Node000010"><a xlink:title=" ">
<path fill="none" stroke="#63b8ff" d="M1215,-604.77C1215,-596.85 1215,-587.63 1215,-579.3"/>
<polygon fill="#63b8ff" stroke="#63b8ff" points="1218.5,-579.04 1215,-569.04 1211.5,-579.04 1218.5,-579.04"/>
</a>
</g>
</g>
<!-- Node10&#45;&gt;Node2 -->
<g id="edge11_Node000010_Node000002" class="edge">
<title>Node10&#45;&gt;Node2</title>
<g id="a_edge11_Node000010_Node000002"><a xlink:title=" ">
<path fill="none" stroke="#63b8ff" d="M1279.09,-545.77C1308.97,-539.21 1342.76,-526.74 1365,-503 1390.13,-476.18 1386,-459.76 1386,-423 1386,-423 1386,-423 1386,-239.5 1386,-169.66 1298.51,-140.53 1234.63,-128.57"/>
<polygon fill="#63b8ff" stroke="#63b8ff" points="1235.06,-125.09 1224.6,-126.8 1233.84,-131.99 1235.06,-125.09"/>
</a>
</g>
</g>
<!-- Node11 -->
<g id="Node000011" class="node">
<title>Node11</title>
<g id="a_Node000011"><a xlink:href="covariance__matrix__factored_8h.html" target="_top" xlink:title=" ">
<polygon fill="white" stroke="#666666" points="1356,-503 1228,-503 1228,-473 1356,-473 1356,-503"/>
<text text-anchor="start" x="1236" y="-491" font-family="Helvetica,sans-Serif" font-size="10.00">math/linalg/covariance</text>
<text text-anchor="middle" x="1292" y="-480" font-family="Helvetica,sans-Serif" font-size="10.00">_matrix_factored.h</text>
</a>
</g>
</g>
<!-- Node10&#45;&gt;Node11 -->
<g id="edge12_Node000010_Node000011" class="edge">
<title>Node10&#45;&gt;Node11</title>
<g id="a_edge12_Node000010_Node000011"><a xlink:title=" ">
<path fill="none" stroke="#63b8ff" d="M1232.09,-538.8C1242.36,-530.26 1255.6,-519.25 1267.03,-509.75"/>
<polygon fill="#63b8ff" stroke="#63b8ff" points="1269.51,-512.25 1274.96,-503.16 1265.03,-506.86 1269.51,-512.25"/>
</a>
</g>
</g>
<!-- Node28 -->
<g id="Node000028" class="node">
<title>Node28</title>
<g id="a_Node000028"><a xlink:href="covariance__matrix__full_8h.html" target="_top" xlink:title=" ">
<polygon fill="white" stroke="#666666" points="1122,-503 994,-503 994,-473 1122,-473 1122,-503"/>
<text text-anchor="start" x="1002" y="-491" font-family="Helvetica,sans-Serif" font-size="10.00">math/linalg/covariance</text>
<text text-anchor="middle" x="1058" y="-480" font-family="Helvetica,sans-Serif" font-size="10.00">_matrix_full.h</text>
</a>
</g>
</g>
<!-- Node10&#45;&gt;Node28 -->
<g id="edge47_Node000010_Node000028" class="edge">
<title>Node10&#45;&gt;Node28</title>
<g id="a_edge47_Node000010_Node000028"><a xlink:title=" ">
<path fill="none" stroke="#63b8ff" d="M1180.55,-538.95C1157.44,-529.53 1126.8,-517.04 1101.94,-506.91"/>
<polygon fill="#63b8ff" stroke="#63b8ff" points="1102.96,-503.55 1092.37,-503.01 1100.31,-510.03 1102.96,-503.55"/>
</a>
</g>
</g>
<!-- Node11&#45;&gt;Node2 -->
<g id="edge13_Node000011_Node000002" class="edge">
<title>Node11&#45;&gt;Node2</title>
<g id="a_edge13_Node000011_Node000002"><a xlink:title=" ">
<path fill="none" stroke="#63b8ff" d="M1305.04,-472.7C1313.05,-463.21 1322.9,-450.12 1329,-437 1344.4,-403.86 1348,-393.54 1348,-357 1348,-357 1348,-357 1348,-239.5 1348,-178.15 1274.18,-146.52 1221.35,-131.74"/>
<polygon fill="#63b8ff" stroke="#63b8ff" points="1221.98,-128.29 1211.42,-129.09 1220.18,-135.05 1221.98,-128.29"/>
</a>
</g>
</g>
<!-- Node11&#45;&gt;Node8 -->
<g id="edge45_Node000011_Node000008" class="edge">
<title>Node11&#45;&gt;Node8</title>
<g id="a_edge45_Node000011_Node000008"><a xlink:title=" ">
<path fill="none" stroke="#63b8ff" d="M1227.74,-480.21C1012.19,-457.33 327.34,-383.78 308,-371 200.64,-300.05 151.51,-139.19 137.44,-84.28"/>
<polygon fill="#63b8ff" stroke="#63b8ff" points="140.76,-83.11 134.96,-74.24 133.96,-84.79 140.76,-83.11"/>
</a>
</g>
</g>
<!-- Node12 -->
<g id="Node000012" class="node">
<title>Node12</title>
<g id="a_Node000012"><a xlink:href="covariance__matrix__intf_8h.html" target="_top" xlink:title=" ">
<polygon fill="white" stroke="#666666" points="1128,-437 988,-437 988,-407 1128,-407 1128,-437"/>
<text text-anchor="start" x="996" y="-425" font-family="Helvetica,sans-Serif" font-size="10.00">math/linalg/contracts</text>
<text text-anchor="middle" x="1058" y="-414" font-family="Helvetica,sans-Serif" font-size="10.00">/covariance_matrix_intf.h</text>
</a>
</g>
</g>
<!-- Node11&#45;&gt;Node12 -->
<g id="edge14_Node000011_Node000012" class="edge">
<title>Node11&#45;&gt;Node12</title>
<g id="a_edge14_Node000011_Node000012"><a xlink:title=" ">
<path fill="none" stroke="#63b8ff" d="M1240.65,-472.95C1204.83,-463.16 1156.88,-450.05 1119.1,-439.71"/>
<polygon fill="#63b8ff" stroke="#63b8ff" points="1119.8,-436.27 1109.23,-437.01 1117.95,-443.03 1119.8,-436.27"/>
</a>
</g>
</g>
<!-- Node27 -->
<g id="Node000027" class="node">
<title>Node27</title>
<g id="a_Node000027"><a xlink:title=" ">
<polygon fill="#e0e0e0" stroke="#999999" points="1320,-431.5 1260,-431.5 1260,-412.5 1320,-412.5 1320,-431.5"/>
<text text-anchor="middle" x="1290" y="-419.5" font-family="Helvetica,sans-Serif" font-size="10.00">iostream</text>
</a>
</g>
</g>
<!-- Node11&#45;&gt;Node27 -->
<g id="edge46_Node000011_Node000027" class="edge">
<title>Node11&#45;&gt;Node27</title>
<g id="a_edge46_Node000011_Node000027"><a xlink:title=" ">
<path fill="none" stroke="#63b8ff" d="M1291.56,-472.8C1291.27,-463.7 1290.9,-451.79 1290.59,-441.9"/>
<polygon fill="#63b8ff" stroke="#63b8ff" points="1294.09,-441.73 1290.28,-431.84 1287.09,-441.95 1294.09,-441.73"/>
</a>
</g>
</g>
<!-- Node12&#45;&gt;Node2 -->
<g id="edge15_Node000012_Node000002" class="edge">
<title>Node12&#45;&gt;Node2</title>
<g id="a_edge15_Node000012_Node000002"><a xlink:title=" ">
<path fill="none" stroke="#63b8ff" d="M1078.42,-406.69C1105.52,-385.84 1150,-344.34 1150,-296.5 1150,-296.5 1150,-296.5 1150,-239.5 1150,-203.54 1158.56,-162.23 1164.19,-138.96"/>
<polygon fill="#63b8ff" stroke="#63b8ff" points="1167.63,-139.64 1166.67,-129.09 1160.84,-137.93 1167.63,-139.64"/>
</a>
</g>
</g>
<!-- Node13 -->
<g id="Node000013" class="node">
<title>Node13</title>
<g id="a_Node000013"><a xlink:href="interface__contract_8h.html" target="_top" xlink:title=" ">
<polygon fill="white" stroke="#666666" points="622,-129 482,-129 482,-110 622,-110 622,-129"/>
<text text-anchor="middle" x="552" y="-117" font-family="Helvetica,sans-Serif" font-size="10.00">base/interface_contract.h</text>
</a>
</g>
</g>
<!-- Node12&#45;&gt;Node13 -->
<g id="edge16_Node000012_Node000013" class="edge">
<title>Node12&#45;&gt;Node13</title>
<g id="a_edge16_Node000012_Node000013"><a xlink:title=" ">
<path fill="none" stroke="#63b8ff" d="M987.87,-408.89C837.58,-382.67 496.44,-321.69 477,-305 427.91,-262.84 400.42,-218.38 437,-165 447.98,-148.98 465.61,-138.73 483.8,-132.17"/>
<polygon fill="#63b8ff" stroke="#63b8ff" points="484.91,-135.49 493.34,-129.06 482.74,-128.83 484.91,-135.49"/>
</a>
</g>
</g>
<!-- Node15 -->
<g id="Node000015" class="node">
<title>Node15</title>
<g id="a_Node000015"><a xlink:href="require__copy__intf_8h.html" target="_top" xlink:title=" ">
<polygon fill="white" stroke="#666666" points="776,-129 640,-129 640,-110 776,-110 776,-129"/>
<text text-anchor="middle" x="708" y="-117" font-family="Helvetica,sans-Serif" font-size="10.00">base/require_copy_intf.h</text>
</a>
</g>
</g>
<!-- Node12&#45;&gt;Node15 -->
<g id="edge18_Node000012_Node000015" class="edge">
<title>Node12&#45;&gt;Node15</title>
<g id="a_edge18_Node000012_Node000015"><a xlink:title=" ">
<path fill="none" stroke="#63b8ff" d="M1045.86,-406.75C1028.33,-384.67 998,-340.17 998,-296.5 998,-296.5 998,-296.5 998,-239.5 998,-185.84 951.44,-188.08 903,-165 866.61,-147.66 823.13,-136.89 786.46,-130.31"/>
<polygon fill="#63b8ff" stroke="#63b8ff" points="786.77,-126.81 776.32,-128.56 785.58,-133.71 786.77,-126.81"/>
</a>
</g>
</g>
<!-- Node16 -->
<g id="Node000016" class="node">
<title>Node16</title>
<g id="a_Node000016"><a xlink:href="require__move__intf_8h.html" target="_top" xlink:title=" ">
<polygon fill="white" stroke="#666666" points="934,-129 794,-129 794,-110 934,-110 934,-129"/>
<text text-anchor="middle" x="864" y="-117" font-family="Helvetica,sans-Serif" font-size="10.00">base/require_move_intf.h</text>
</a>
</g>
</g>
<!-- Node12&#45;&gt;Node16 -->
<g id="edge20_Node000012_Node000016" class="edge">
<title>Node12&#45;&gt;Node16</title>
<g id="a_edge20_Node000012_Node000016"><a xlink:title=" ">
<path fill="none" stroke="#63b8ff" d="M1060.08,-406.94C1065.5,-364.52 1075.57,-236.28 1012,-165 994.66,-145.55 969.18,-134.46 944.23,-128.17"/>
<polygon fill="#63b8ff" stroke="#63b8ff" points="944.87,-124.73 934.34,-125.92 943.31,-131.56 944.87,-124.73"/>
</a>
</g>
</g>
<!-- Node12&#45;&gt;Node17 -->
<g id="edge22_Node000012_Node000017" class="edge">
<title>Node12&#45;&gt;Node17</title>
<g id="a_edge22_Node000012_Node000017"><a xlink:title=" ">
<path fill="none" stroke="#63b8ff" d="M987.95,-408.8C983.23,-408.14 978.55,-407.53 974,-407 737.29,-379.38 675.14,-403.1 439,-371 437.72,-370.83 436.44,-370.64 435.14,-370.45"/>
<polygon fill="#63b8ff" stroke="#63b8ff" points="435.51,-366.97 425.08,-368.82 434.39,-373.88 435.51,-366.97"/>
</a>
</g>
</g>
<!-- Node14 -->
<g id="Node000014" class="node">
<title>Node14</title>
<g id="a_Node000014"><a xlink:title=" ">
<polygon fill="#e0e0e0" stroke="#999999" points="664.5,-74 595.5,-74 595.5,-55 664.5,-55 664.5,-74"/>
<text text-anchor="middle" x="630" y="-62" font-family="Helvetica,sans-Serif" font-size="10.00">type_traits</text>
</a>
</g>
</g>
<!-- Node13&#45;&gt;Node14 -->
<g id="edge17_Node000013_Node000014" class="edge">
<title>Node13&#45;&gt;Node14</title>
<g id="a_edge17_Node000013_Node000014"><a xlink:title=" ">
<path fill="none" stroke="#63b8ff" d="M564.53,-109.98C576.4,-101.92 594.46,-89.65 608.61,-80.03"/>
<polygon fill="#63b8ff" stroke="#63b8ff" points="610.94,-82.69 617.24,-74.17 607,-76.9 610.94,-82.69"/>
</a>
</g>
</g>
<!-- Node15&#45;&gt;Node14 -->
<g id="edge19_Node000015_Node000014" class="edge">
<title>Node15&#45;&gt;Node14</title>
<g id="a_edge19_Node000015_Node000014"><a xlink:title=" ">
<path fill="none" stroke="#63b8ff" d="M695.47,-109.98C683.6,-101.92 665.54,-89.65 651.39,-80.03"/>
<polygon fill="#63b8ff" stroke="#63b8ff" points="653,-76.9 642.76,-74.17 649.06,-82.69 653,-76.9"/>
</a>
</g>
</g>
<!-- Node16&#45;&gt;Node14 -->
<g id="edge21_Node000016_Node000014" class="edge">
<title>Node16&#45;&gt;Node14</title>
<g id="a_edge21_Node000016_Node000014"><a xlink:title=" ">
<path fill="none" stroke="#63b8ff" d="M826.4,-109.98C785.05,-100.62 718.65,-85.58 674.67,-75.62"/>
<polygon fill="#63b8ff" stroke="#63b8ff" points="675.35,-72.18 664.83,-73.39 673.81,-79.01 675.35,-72.18"/>
</a>
</g>
</g>
<!-- Node17&#45;&gt;Node2 -->
<g id="edge23_Node000017_Node000002" class="edge">
<title>Node17&#45;&gt;Node2</title>
<g id="a_edge23_Node000017_Node000002"><a xlink:title=" ">
<path fill="none" stroke="#63b8ff" d="M425.37,-344.76C535.54,-323.23 792.19,-269.08 999,-195 1050.91,-176.41 1109.37,-149.39 1142.44,-133.51"/>
<polygon fill="#63b8ff" stroke="#63b8ff" points="1143.98,-136.65 1151.46,-129.15 1140.93,-130.35 1143.98,-136.65"/>
</a>
</g>
</g>
<!-- Node17&#45;&gt;Node8 -->
<g id="edge43_Node000017_Node000008" class="edge">
<title>Node17&#45;&gt;Node8</title>
<g id="a_edge43_Node000017_Node000008"><a xlink:title=" ">
<path fill="none" stroke="#63b8ff" d="M340.34,-340.82C280.71,-311.31 150.52,-236.91 100,-129 92.24,-112.41 104.35,-93.87 116.03,-81.13"/>
<polygon fill="#63b8ff" stroke="#63b8ff" points="118.53,-83.59 123.06,-74.01 113.55,-78.67 118.53,-83.59"/>
</a>
</g>
</g>
<!-- Node18 -->
<g id="Node000018" class="node">
<title>Node18</title>
<g id="a_Node000018"><a xlink:href="errors_8h.html" target="_top" xlink:title="Error types used throughout the math library.">
<polygon fill="white" stroke="#666666" points="384.5,-129 271.5,-129 271.5,-110 384.5,-110 384.5,-129"/>
<text text-anchor="middle" x="328" y="-117" font-family="Helvetica,sans-Serif" font-size="10.00">math/linalg/errors.h</text>
</a>
</g>
</g>
<!-- Node17&#45;&gt;Node18 -->
<g id="edge24_Node000017_Node000018" class="edge">
<title>Node17&#45;&gt;Node18</title>
<g id="a_edge24_Node000017_Node000018"><a xlink:title=" ">
<path fill="none" stroke="#63b8ff" d="M367.27,-340.62C364.75,-330.66 361.46,-317.07 359,-305 346.76,-244.93 335.72,-173.14 330.76,-139.57"/>
<polygon fill="#63b8ff" stroke="#63b8ff" points="334.18,-138.76 329.27,-129.37 327.25,-139.77 334.18,-138.76"/>
</a>
</g>
</g>
<!-- Node17&#45;&gt;Node19 -->
<g id="edge25_Node000017_Node000019" class="edge">
<title>Node17&#45;&gt;Node19</title>
<g id="a_edge25_Node000017_Node000019"><a xlink:title=" ">
<path fill="none" stroke="#63b8ff" d="M366.1,-340.95C361.76,-325.74 357.82,-301.57 370,-286 383.84,-268.29 436.33,-256.62 480.92,-249.7"/>
<polygon fill="#63b8ff" stroke="#63b8ff" points="481.51,-253.15 490.88,-248.2 480.47,-246.22 481.51,-253.15"/>
</a>
</g>
</g>
<!-- Node25 -->
<g id="Node000025" class="node">
<title>Node25</title>
<g id="a_Node000025"><a xlink:href="vector_8h.html" target="_top" xlink:title=" ">
<polygon fill="white" stroke="#666666" points="600,-305 486,-305 486,-286 600,-286 600,-305"/>
<text text-anchor="middle" x="543" y="-293" font-family="Helvetica,sans-Serif" font-size="10.00">math/linalg/vector.h</text>
</a>
</g>
</g>
<!-- Node17&#45;&gt;Node25 -->
<g id="edge39_Node000017_Node000025" class="edge">
<title>Node17&#45;&gt;Node25</title>
<g id="a_edge39_Node000017_Node000025"><a xlink:title=" ">
<path fill="none" stroke="#63b8ff" d="M412.2,-340.99C441.5,-331.02 480.42,-317.78 508.17,-308.35"/>
<polygon fill="#63b8ff" stroke="#63b8ff" points="509.51,-311.59 517.85,-305.05 507.26,-304.96 509.51,-311.59"/>
</a>
</g>
</g>
<!-- Node26 -->
<g id="Node000026" class="node">
<title>Node26</title>
<g id="a_Node000026"><a xlink:title=" ">
<polygon fill="#e0e0e0" stroke="#999999" points="424.5,-305 379.5,-305 379.5,-286 424.5,-286 424.5,-305"/>
<text text-anchor="middle" x="402" y="-293" font-family="Helvetica,sans-Serif" font-size="10.00">utility</text>
</a>
</g>
</g>
<!-- Node17&#45;&gt;Node26 -->
<g id="edge44_Node000017_Node000026" class="edge">
<title>Node17&#45;&gt;Node26</title>
<g id="a_edge44_Node000017_Node000026"><a xlink:title=" ">
<path fill="none" stroke="#63b8ff" d="M378.5,-340.84C382.73,-332.87 388.04,-322.84 392.55,-314.33"/>
<polygon fill="#63b8ff" stroke="#63b8ff" points="395.77,-315.74 397.35,-305.27 389.58,-312.46 395.77,-315.74"/>
</a>
</g>
</g>
<!-- Node19&#45;&gt;Node2 -->
<g id="edge26_Node000019_Node000002" class="edge">
<title>Node19&#45;&gt;Node2</title>
<g id="a_edge26_Node000019_Node000002"><a xlink:title=" ">
<path fill="none" stroke="#63b8ff" d="M607.09,-235.59C693.23,-229.23 850.32,-215.26 903,-195 924.75,-186.64 924.56,-174.14 946,-165 996.3,-143.55 1057.46,-132.28 1103,-126.46"/>
<polygon fill="#63b8ff" stroke="#63b8ff" points="1103.55,-129.92 1113.05,-125.23 1102.7,-122.97 1103.55,-129.92"/>
</a>
</g>
</g>
<!-- Node19&#45;&gt;Node8 -->
<g id="edge37_Node000019_Node000008" class="edge">
<title>Node19&#45;&gt;Node8</title>
<g id="a_edge37_Node000019_Node000008"><a xlink:title=" ">
<path fill="none" stroke="#63b8ff" d="M508.7,-230.96C485.51,-224.36 457.09,-213.18 437,-195 405.46,-166.45 427.34,-135.11 393,-110 360.63,-86.33 250.87,-74.22 184.75,-68.93"/>
<polygon fill="#63b8ff" stroke="#63b8ff" points="184.78,-65.42 174.54,-68.14 184.24,-72.4 184.78,-65.42"/>
</a>
</g>
</g>
<!-- Node19&#45;&gt;Node18 -->
<g id="edge33_Node000019_Node000018" class="edge">
<title>Node19&#45;&gt;Node18</title>
<g id="a_edge33_Node000019_Node000018"><a xlink:title=" ">
<path fill="none" stroke="#63b8ff" d="M501.59,-230.95C472.06,-224.22 434.1,-212.9 404,-195 378.31,-179.72 354.73,-153.99 340.86,-137.13"/>
<polygon fill="#63b8ff" stroke="#63b8ff" points="343.51,-134.84 334.53,-129.22 338.05,-139.22 343.51,-134.84"/>
</a>
</g>
</g>
<!-- Node20 -->
<g id="Node000020" class="node">
<title>Node20</title>
<g id="a_Node000020"><a xlink:href="matrix__intf_8h.html" target="_top" xlink:title=" ">
<polygon fill="white" stroke="#666666" points="768,-195 648,-195 648,-165 768,-165 768,-195"/>
<text text-anchor="start" x="656" y="-183" font-family="Helvetica,sans-Serif" font-size="10.00">math/linalg/contracts</text>
<text text-anchor="middle" x="708" y="-172" font-family="Helvetica,sans-Serif" font-size="10.00">/matrix_intf.h</text>
</a>
</g>
</g>
<!-- Node19&#45;&gt;Node20 -->
<g id="edge27_Node000019_Node000020" class="edge">
<title>Node19&#45;&gt;Node20</title>
<g id="a_edge27_Node000019_Node000020"><a xlink:title=" ">
<path fill="none" stroke="#63b8ff" d="M572.12,-230.99C595.1,-222.54 631.04,-209.32 660.18,-198.59"/>
<polygon fill="#63b8ff" stroke="#63b8ff" points="661.6,-201.8 669.77,-195.06 659.18,-195.23 661.6,-201.8"/>
</a>
</g>
</g>
<!-- Node21 -->
<g id="Node000021" class="node">
<title>Node21</title>
<g id="a_Node000021"><a xlink:href="matrix__types_8h.html" target="_top" xlink:title="Type definitions and enumerations for matrix operations.">
<polygon fill="white" stroke="#666666" points="893.5,-195 786.5,-195 786.5,-165 893.5,-165 893.5,-195"/>
<text text-anchor="start" x="794.5" y="-183" font-family="Helvetica,sans-Serif" font-size="10.00">math/linalg/matrix</text>
<text text-anchor="middle" x="840" y="-172" font-family="Helvetica,sans-Serif" font-size="10.00">_types.h</text>
</a>
</g>
</g>
<!-- Node19&#45;&gt;Node21 -->
<g id="edge34_Node000019_Node000021" class="edge">
<title>Node19&#45;&gt;Node21</title>
<g id="a_edge34_Node000019_Node000021"><a xlink:title=" ">
<path fill="none" stroke="#63b8ff" d="M594.49,-230.98C638.4,-222.68 707.02,-209.49 776.2,-195.14"/>
<polygon fill="#63b8ff" stroke="#63b8ff" points="777.33,-198.47 786.4,-193.01 775.9,-191.62 777.33,-198.47"/>
</a>
</g>
</g>
<!-- Node22 -->
<g id="Node000022" class="node">
<title>Node22</title>
<g id="a_Node000022"><a xlink:title=" ">
<polygon fill="#e0e0e0" stroke="#999999" points="510,-189.5 446,-189.5 446,-170.5 510,-170.5 510,-189.5"/>
<text text-anchor="middle" x="478" y="-177.5" font-family="Helvetica,sans-Serif" font-size="10.00">algorithm</text>
</a>
</g>
</g>
<!-- Node19&#45;&gt;Node22 -->
<g id="edge35_Node000019_Node000022" class="edge">
<title>Node19&#45;&gt;Node22</title>
<g id="a_edge35_Node000019_Node000022"><a xlink:title=" ">
<path fill="none" stroke="#63b8ff" d="M538.52,-230.87C527.51,-221.8 509.96,-207.34 496.59,-196.32"/>
<polygon fill="#63b8ff" stroke="#63b8ff" points="498.46,-193.33 488.52,-189.67 494.01,-198.73 498.46,-193.33"/>
</a>
</g>
</g>
<!-- Node23 -->
<g id="Node000023" class="node">
<title>Node23</title>
<g id="a_Node000023"><a xlink:title=" ">
<polygon fill="#e0e0e0" stroke="#999999" points="570,-189.5 528,-189.5 528,-170.5 570,-170.5 570,-189.5"/>
<text text-anchor="middle" x="549" y="-177.5" font-family="Helvetica,sans-Serif" font-size="10.00">array</text>
</a>
</g>
</g>
<!-- Node19&#45;&gt;Node23 -->
<g id="edge36_Node000019_Node000023" class="edge">
<title>Node19&#45;&gt;Node23</title>
<g id="a_edge36_Node000019_Node000023"><a xlink:title=" ">
<path fill="none" stroke="#63b8ff" d="M549,-230.87C549,-222.75 549,-210.31 549,-199.89"/>
<polygon fill="#63b8ff" stroke="#63b8ff" points="552.5,-199.67 549,-189.67 545.5,-199.67 552.5,-199.67"/>
</a>
</g>
</g>
<!-- Node24 -->
<g id="Node000024" class="node">
<title>Node24</title>
<g id="a_Node000024"><a xlink:title=" ">
<polygon fill="#e0e0e0" stroke="#999999" points="629.5,-189.5 588.5,-189.5 588.5,-170.5 629.5,-170.5 629.5,-189.5"/>
<text text-anchor="middle" x="609" y="-177.5" font-family="Helvetica,sans-Serif" font-size="10.00">tuple</text>
</a>
</g>
</g>
<!-- Node19&#45;&gt;Node24 -->
<g id="edge38_Node000019_Node000024" class="edge">
<title>Node19&#45;&gt;Node24</title>
<g id="a_edge38_Node000019_Node000024"><a xlink:title=" ">
<path fill="none" stroke="#63b8ff" d="M557.85,-230.87C566.98,-221.97 581.42,-207.89 592.64,-196.95"/>
<polygon fill="#63b8ff" stroke="#63b8ff" points="595.39,-199.15 600.11,-189.67 590.51,-194.14 595.39,-199.15"/>
</a>
</g>
</g>
<!-- Node20&#45;&gt;Node2 -->
<g id="edge28_Node000020_Node000002" class="edge">
<title>Node20&#45;&gt;Node2</title>
<g id="a_edge28_Node000020_Node000002"><a xlink:title=" ">
<path fill="none" stroke="#63b8ff" d="M768.27,-166.61C771.56,-166.04 774.82,-165.5 778,-165 891.85,-147.17 1025.42,-133.52 1103.3,-126.28"/>
<polygon fill="#63b8ff" stroke="#63b8ff" points="1103.8,-129.74 1113.44,-125.34 1103.16,-122.77 1103.8,-129.74"/>
</a>
</g>
</g>
<!-- Node20&#45;&gt;Node13 -->
<g id="edge29_Node000020_Node000013" class="edge">
<title>Node20&#45;&gt;Node13</title>
<g id="a_edge29_Node000020_Node000013"><a xlink:title=" ">
<path fill="none" stroke="#63b8ff" d="M670.63,-164.99C644.37,-155.14 609.59,-142.1 584.48,-132.68"/>
<polygon fill="#63b8ff" stroke="#63b8ff" points="585.63,-129.37 575.04,-129.14 583.17,-135.93 585.63,-129.37"/>
</a>
</g>
</g>
<!-- Node20&#45;&gt;Node15 -->
<g id="edge30_Node000020_Node000015" class="edge">
<title>Node20&#45;&gt;Node15</title>
<g id="a_edge30_Node000020_Node000015"><a xlink:title=" ">
<path fill="none" stroke="#63b8ff" d="M708,-164.84C708,-157.21 708,-147.7 708,-139.45"/>
<polygon fill="#63b8ff" stroke="#63b8ff" points="711.5,-139.27 708,-129.27 704.5,-139.27 711.5,-139.27"/>
</a>
</g>
</g>
<!-- Node20&#45;&gt;Node16 -->
<g id="edge31_Node000020_Node000016" class="edge">
<title>Node20&#45;&gt;Node16</title>
<g id="a_edge31_Node000020_Node000016"><a xlink:title=" ">
<path fill="none" stroke="#63b8ff" d="M745.37,-164.99C771.63,-155.14 806.41,-142.1 831.52,-132.68"/>
<polygon fill="#63b8ff" stroke="#63b8ff" points="832.83,-135.93 840.96,-129.14 830.37,-129.37 832.83,-135.93"/>
</a>
</g>
</g>
<!-- Node20&#45;&gt;Node18 -->
<g id="edge32_Node000020_Node000018" class="edge">
<title>Node20&#45;&gt;Node18</title>
<g id="a_edge32_Node000020_Node000018"><a xlink:title=" ">
<path fill="none" stroke="#63b8ff" d="M647.83,-166.58C644.85,-166.03 641.89,-165.5 639,-165 555.12,-150.5 457.93,-137.14 394.83,-128.92"/>
<polygon fill="#63b8ff" stroke="#63b8ff" points="394.99,-125.41 384.62,-127.6 394.09,-132.35 394.99,-125.41"/>
</a>
</g>
</g>
<!-- Node25&#45;&gt;Node2 -->
<g id="edge40_Node000025_Node000002" class="edge">
<title>Node25&#45;&gt;Node2</title>
<g id="a_edge40_Node000025_Node000002"><a xlink:title=" ">
<path fill="none" stroke="#63b8ff" d="M580.25,-285.97C650.55,-269.69 807.48,-232.44 938,-195 1008.42,-174.8 1089.73,-147.68 1134.66,-132.35"/>
<polygon fill="#63b8ff" stroke="#63b8ff" points="1135.88,-135.63 1144.21,-129.08 1133.61,-129.01 1135.88,-135.63"/>
</a>
</g>
</g>
<!-- Node25&#45;&gt;Node8 -->
<g id="edge42_Node000025_Node000008" class="edge">
<title>Node25&#45;&gt;Node8</title>
<g id="a_edge42_Node000025_Node000008"><a xlink:title=" ">
<path fill="none" stroke="#63b8ff" d="M527.19,-285.73C495.97,-268.43 424.23,-228.62 364,-195 288.4,-152.79 199.01,-102.6 157.04,-79.02"/>
<polygon fill="#63b8ff" stroke="#63b8ff" points="158.56,-75.85 148.12,-74 155.13,-81.95 158.56,-75.85"/>
</a>
</g>
</g>
<!-- Node25&#45;&gt;Node19 -->
<g id="edge41_Node000025_Node000019" class="edge">
<title>Node25&#45;&gt;Node19</title>
<g id="a_edge41_Node000025_Node000019"><a xlink:title=" ">
<path fill="none" stroke="#63b8ff" d="M543.99,-285.75C544.78,-278.8 545.9,-268.85 546.89,-260.13"/>
<polygon fill="#63b8ff" stroke="#63b8ff" points="550.38,-260.42 548.03,-250.09 543.42,-259.63 550.38,-260.42"/>
</a>
</g>
</g>
<!-- Node28&#45;&gt;Node2 -->
<g id="edge48_Node000028_Node000002" class="edge">
<title>Node28&#45;&gt;Node2</title>
<g id="a_edge48_Node000028_Node000002"><a xlink:title=" ">
<path fill="none" stroke="#63b8ff" d="M1108.47,-472.98C1129.5,-465.14 1152.95,-453.52 1170,-437 1218.28,-390.22 1226,-363.72 1226,-296.5 1226,-296.5 1226,-296.5 1226,-239.5 1226,-204.71 1217.91,-195.94 1202,-165 1196.9,-155.07 1189.64,-145 1183.23,-136.96"/>
<polygon fill="#63b8ff" stroke="#63b8ff" points="1185.82,-134.6 1176.75,-129.13 1180.43,-139.06 1185.82,-134.6"/>
</a>
</g>
</g>
<!-- Node28&#45;&gt;Node8 -->
<g id="edge51_Node000028_Node000008" class="edge">
<title>Node28&#45;&gt;Node8</title>
<g id="a_edge51_Node000028_Node000008"><a xlink:title=" ">
<path fill="none" stroke="#63b8ff" d="M993.76,-481.08C908.39,-472.88 752.96,-456.83 621,-437 621,-437 267,-371 267,-371 258.23,-366.56 142.03,-258.96 138,-250 112.87,-194.07 122.52,-118.66 128.99,-84.15"/>
<polygon fill="#63b8ff" stroke="#63b8ff" points="132.47,-84.59 131.01,-74.1 125.61,-83.21 132.47,-84.59"/>
</a>
</g>
</g>
<!-- Node28&#45;&gt;Node12 -->
<g id="edge49_Node000028_Node000012" class="edge">
<title>Node28&#45;&gt;Node12</title>
<g id="a_edge49_Node000028_Node000012"><a xlink:title=" ">
<path fill="none" stroke="#63b8ff" d="M1058,-472.8C1058,-465.34 1058,-455.99 1058,-447.41"/>
<polygon fill="#63b8ff" stroke="#63b8ff" points="1061.5,-447.16 1058,-437.16 1054.5,-447.16 1061.5,-447.16"/>
</a>
</g>
</g>
<!-- Node28&#45;&gt;Node17 -->
<g id="edge50_Node000028_Node000017" class="edge">
<title>Node28&#45;&gt;Node17</title>
<g id="a_edge50_Node000028_Node000017"><a xlink:title=" ">
<path fill="none" stroke="#63b8ff" d="M993.77,-475.35C881.25,-454.86 641.23,-410.76 439,-371 437.74,-370.75 436.46,-370.5 435.17,-370.24"/>
<polygon fill="#63b8ff" stroke="#63b8ff" points="435.67,-366.77 425.17,-368.24 434.29,-373.64 435.67,-366.77"/>
</a>
</g>
</g>
<!-- Node29&#45;&gt;Node2 -->
<g id="edge54_Node000029_Node000002" class="edge">
<title>Node29&#45;&gt;Node2</title>
<g id="a_edge54_Node000029_Node000002"><a xlink:title=" ">
<path fill="none" stroke="#63b8ff" d="M406.61,-551.64C577.22,-547.34 1065.6,-532.56 1131,-503 1230.47,-458.03 1264,-405.67 1264,-296.5 1264,-296.5 1264,-296.5 1264,-239.5 1264,-193.22 1219.58,-154.59 1191.49,-134.79"/>
<polygon fill="#63b8ff" stroke="#63b8ff" points="1193.26,-131.76 1183.02,-129.03 1189.32,-137.55 1193.26,-131.76"/>
</a>
</g>
</g>
<!-- Node29&#45;&gt;Node8 -->
<g id="edge65_Node000029_Node000008" class="edge">
<title>Node29&#45;&gt;Node8</title>
<g id="a_edge65_Node000029_Node000008"><a xlink:title=" ">
<path fill="none" stroke="#63b8ff" d="M289.36,-543.54C190.18,-525.87 0,-484.03 0,-423 0,-423 0,-423 0,-179 0,-127.37 58.71,-94.24 98.12,-77.82"/>
<polygon fill="#63b8ff" stroke="#63b8ff" points="99.68,-80.97 107.67,-74.01 97.09,-74.47 99.68,-80.97"/>
</a>
</g>
</g>
<!-- Node29&#45;&gt;Node18 -->
<g id="edge55_Node000029_Node000018" class="edge">
<title>Node29&#45;&gt;Node18</title>
<g id="a_edge55_Node000029_Node000018"><a xlink:title=" ">
<path fill="none" stroke="#63b8ff" d="M289.25,-546.07C219.94,-534.23 114,-503.05 114,-423 114,-423 114,-423 114,-355 114,-245.1 243.83,-164.13 301.24,-133.7"/>
<polygon fill="#63b8ff" stroke="#63b8ff" points="302.86,-136.81 310.12,-129.1 299.63,-130.59 302.86,-136.81"/>
</a>
</g>
</g>
<!-- Node30 -->
<g id="Node000030" class="node">
<title>Node30</title>
<g id="a_Node000030"><a xlink:href="matrix__io_8h.html" target="_top" xlink:title="Stream output operators for all matrix types in the trackingLib math library.">
<polygon fill="white" stroke="#666666" points="413.5,-497.5 282.5,-497.5 282.5,-478.5 413.5,-478.5 413.5,-497.5"/>
<text text-anchor="middle" x="348" y="-485.5" font-family="Helvetica,sans-Serif" font-size="10.00">math/linalg/matrix_io.h</text>
</a>
</g>
</g>
<!-- Node29&#45;&gt;Node30 -->
<g id="edge56_Node000029_Node000030" class="edge">
<title>Node29&#45;&gt;Node30</title>
<g id="a_edge56_Node000029_Node000030"><a xlink:title=" ">
<path fill="none" stroke="#63b8ff" d="M348,-538.8C348,-529.7 348,-517.79 348,-507.9"/>
<polygon fill="#63b8ff" stroke="#63b8ff" points="351.5,-507.84 348,-497.84 344.5,-507.84 351.5,-507.84"/>
</a>
</g>
</g>
<!-- Node30&#45;&gt;Node2 -->
<g id="edge57_Node000030_Node000002" class="edge">
<title>Node30&#45;&gt;Node2</title>
<g id="a_edge57_Node000030_Node000002"><a xlink:title=" ">
<path fill="none" stroke="#63b8ff" d="M413.82,-486.9C592.97,-486.08 1079.78,-479.87 1137,-437 1190.17,-397.17 1188,-362.93 1188,-296.5 1188,-296.5 1188,-296.5 1188,-239.5 1188,-203.54 1179.44,-162.23 1173.81,-138.96"/>
<polygon fill="#63b8ff" stroke="#63b8ff" points="1177.16,-137.93 1171.33,-129.09 1170.37,-139.64 1177.16,-137.93"/>
</a>
</g>
</g>
<!-- Node30&#45;&gt;Node14 -->
<g id="edge64_Node000030_Node000014" class="edge">
<title>Node30&#45;&gt;Node14</title>
<g id="a_edge64_Node000030_Node000014"><a xlink:title=" ">
<path fill="none" stroke="#63b8ff" d="M290.89,-478.45C244.9,-470.26 185.59,-456.29 171,-437 136.56,-391.48 -32.02,-356.1 262,-110 310.07,-69.76 498.12,-65 585.24,-65.02"/>
<polygon fill="#63b8ff" stroke="#63b8ff" points="585.34,-68.52 595.35,-65.04 585.36,-61.52 585.34,-68.52"/>
</a>
</g>
</g>
<!-- Node31 -->
<g id="Node000031" class="node">
<title>Node31</title>
<g id="a_Node000031"><a xlink:href="triangular__matrix_8h.html" target="_top" xlink:title=" ">
<polygon fill="white" stroke="#666666" points="302,-437 180,-437 180,-407 302,-407 302,-437"/>
<text text-anchor="start" x="188" y="-425" font-family="Helvetica,sans-Serif" font-size="10.00">math/linalg/triangular</text>
<text text-anchor="middle" x="241" y="-414" font-family="Helvetica,sans-Serif" font-size="10.00">_matrix.h</text>
</a>
</g>
</g>
<!-- Node30&#45;&gt;Node31 -->
<g id="edge58_Node000030_Node000031" class="edge">
<title>Node30&#45;&gt;Node31</title>
<g id="a_edge58_Node000030_Node000031"><a xlink:title=" ">
<path fill="none" stroke="#63b8ff" d="M333.57,-478.37C318.23,-469.2 293.48,-454.39 273.43,-442.4"/>
<polygon fill="#63b8ff" stroke="#63b8ff" points="274.98,-439.25 264.6,-437.12 271.38,-445.25 274.98,-439.25"/>
</a>
</g>
</g>
<!-- Node32 -->
<g id="Node000032" class="node">
<title>Node32</title>
<g id="a_Node000032"><a xlink:title=" ">
<polygon fill="#e0e0e0" stroke="#999999" points="376,-431.5 320,-431.5 320,-412.5 376,-412.5 376,-431.5"/>
<text text-anchor="middle" x="348" y="-419.5" font-family="Helvetica,sans-Serif" font-size="10.00">iomanip</text>
</a>
</g>
</g>
<!-- Node30&#45;&gt;Node32 -->
<g id="edge62_Node000030_Node000032" class="edge">
<title>Node30&#45;&gt;Node32</title>
<g id="a_edge62_Node000030_Node000032"><a xlink:title=" ">
<path fill="none" stroke="#63b8ff" d="M348,-478.37C348,-469.16 348,-454.29 348,-442.27"/>
<polygon fill="#63b8ff" stroke="#63b8ff" points="351.5,-441.91 348,-431.91 344.5,-441.91 351.5,-441.91"/>
</a>
</g>
</g>
<!-- Node33 -->
<g id="Node000033" class="node">
<title>Node33</title>
<g id="a_Node000033"><a xlink:title=" ">
<polygon fill="#e0e0e0" stroke="#999999" points="451.5,-431.5 394.5,-431.5 394.5,-412.5 451.5,-412.5 451.5,-431.5"/>
<text text-anchor="middle" x="423" y="-419.5" font-family="Helvetica,sans-Serif" font-size="10.00">ostream</text>
</a>
</g>
</g>
<!-- Node30&#45;&gt;Node33 -->
<g id="edge63_Node000030_Node000033" class="edge">
<title>Node30&#45;&gt;Node33</title>
<g id="a_edge63_Node000030_Node000033"><a xlink:title=" ">
<path fill="none" stroke="#63b8ff" d="M358.11,-478.37C370.01,-468.21 390,-451.16 404.65,-438.65"/>
<polygon fill="#63b8ff" stroke="#63b8ff" points="407.23,-441.06 412.56,-431.91 402.69,-435.73 407.23,-441.06"/>
</a>
</g>
</g>
<!-- Node31&#45;&gt;Node2 -->
<g id="edge59_Node000031_Node000002" class="edge">
<title>Node31&#45;&gt;Node2</title>
<g id="a_edge59_Node000031_Node000002"><a xlink:title=" ">
<path fill="none" stroke="#63b8ff" d="M300.02,-406.93C338.39,-397.48 389.4,-384.36 434,-371 708.65,-288.75 1034.22,-170.28 1136.56,-132.53"/>
<polygon fill="#63b8ff" stroke="#63b8ff" points="1137.86,-135.78 1146.03,-129.03 1135.44,-129.21 1137.86,-135.78"/>
</a>
</g>
</g>
<!-- Node31&#45;&gt;Node8 -->
<g id="edge61_Node000031_Node000008" class="edge">
<title>Node31&#45;&gt;Node8</title>
<g id="a_edge61_Node000031_Node000008"><a xlink:title=" ">
<path fill="none" stroke="#63b8ff" d="M230.04,-406.9C199.54,-366.52 114.58,-245.82 94,-129 92.53,-120.68 91.03,-117.9 94,-110 98.18,-98.89 106.52,-88.75 114.43,-80.96"/>
<polygon fill="#63b8ff" stroke="#63b8ff" points="117.01,-83.35 122.01,-74.01 112.28,-78.19 117.01,-83.35"/>
</a>
</g>
</g>
<!-- Node31&#45;&gt;Node17 -->
<g id="edge60_Node000031_Node000017" class="edge">
<title>Node31&#45;&gt;Node17</title>
<g id="a_edge60_Node000031_Node000017"><a xlink:title=" ">
<path fill="none" stroke="#63b8ff" d="M269.53,-406.95C288.33,-397.7 313.14,-385.49 333.52,-375.45"/>
<polygon fill="#63b8ff" stroke="#63b8ff" points="335.11,-378.57 342.54,-371.01 332.02,-372.29 335.11,-378.57"/>
</a>
</g>
</g>
</g>
</svg>

<g id="navigator" transform="translate(0 0)" fill="#404254">
  <rect fill="#f2f5e9" fill-opacity="0.5" stroke="#606060" stroke-width=".5" x="0" y="0" width="60" height="60"/>
  <use id="zoomplus" xlink:href="#zoomPlus" x="17" y="9" onmousedown="handleZoom(evt,'in')"/>
  <use id="zoomminus" xlink:href="#zoomMin" x="42" y="9" onmousedown="handleZoom(evt,'out')"/>
  <use id="reset" xlink:href="#resetDef" x="30" y="36" onmousedown="handleReset()"/>
   <use id="arrowup" xlink:href="#arrowUp" x="0" y="0" onmousedown="handlePan(0,-1)"/>
  <use id="arrowright" xlink:href="#arrowRight" x="0" y="0" onmousedown="handlePan(1,0)"/>
  <use id="arrowdown" xlink:href="#arrowDown" x="0" y="0" onmousedown="handlePan(0,1)"/>
  <use id="arrowleft" xlink:href="#arrowLeft" x="0" y="0" onmousedown="handlePan(-1,0)"/>
</g>
<svg viewBox="0 0 15 15" width="100%" height="30px" preserveAspectRatio="xMaxYMin meet">
 <g id="arrow_out" transform="scale(0.3 0.3)">
  <a xlink:href="information__filter_8h__incl_org.svg" target="_base">
   <rect id="button" ry="5" rx="5" y="6" x="6" height="38" width="38"
        fill="#f2f5e9" fill-opacity="0.5" stroke="#606060" stroke-width="1.0"/>
   <path id="arrow"
     d="M 11.500037,31.436501 C 11.940474,20.09759 22.043105,11.32322 32.158766,21.979434 L 37.068811,17.246167 C 37.068811,17.246167 37.088388,32 37.088388,32 L 22.160133,31.978069 C 22.160133,31.978069 26.997745,27.140456 26.997745,27.140456 C 18.528582,18.264221 13.291696,25.230495 11.500037,31.436501 z"
     style="fill:#404040;"/>
  </a>
 </g>
</svg>

<style type='text/css'>
<![CDATA[
[data-mouse-over-selected='false'] { opacity: 0.7; }
[data-mouse-over-selected='true']  { opacity: 1.0; }
]]>
</style>
<script type="application/ecmascript"><![CDATA[
document.addEventListener('DOMContentLoaded', (event) => {
  highlightEdges();
  highlightAdjacentNodes();
});
]]></script>
</svg>
