<?xml version="1.0" encoding="UTF-8" standalone="no"?>
<!DOCTYPE svg PUBLIC "-//W3C//DTD SVG 1.1//EN"
 "http://www.w3.org/Graphics/SVG/1.1/DTD/svg11.dtd">
<!-- Generated by graphviz version 2.43.0 (0)
 -->
<!-- Title: Graphical Class Hierarchy Pages: 1 -->
<svg width="359pt" height="98pt"
 viewBox="0.00 0.00 359.00 97.50" xmlns="http://www.w3.org/2000/svg" xmlns:xlink="http://www.w3.org/1999/xlink">
<g id="graph0" class="graph" transform="scale(1 1) rotate(0) translate(4 93.5)">
<title>Graphical Class Hierarchy</title>
<!-- Node0 -->
<g id="Node000000" class="node">
<title>Node0</title>
<g id="a_Node000000"><a xlink:href="structtracking_1_1math_1_1CovarianceMatrixPolicyBase.html" target="_top" xlink:title="Base class for covariance matrix policy types.">
<polygon fill="white" stroke="#666666" points="149,-57 0,-57 0,-27 149,-27 149,-57"/>
<text text-anchor="start" x="8" y="-45" font-family="Helvetica,sans-Serif" font-size="10.00">tracking::math::Covariance</text>
<text text-anchor="middle" x="74.5" y="-34" font-family="Helvetica,sans-Serif" font-size="10.00">MatrixPolicyBase</text>
</a>
</g>
</g>
<!-- Node1 -->
<g id="Node000001" class="node">
<title>Node1</title>
<g id="a_Node000001"><a xlink:href="structtracking_1_1math_1_1FactoredCovarianceMatrixPolicy.html" target="_top" xlink:title="Policy for using UDU factored covariance matrix representation.">
<polygon fill="white" stroke="#666666" points="335.5,-89.5 200.5,-89.5 200.5,-48.5 335.5,-48.5 335.5,-89.5"/>
<text text-anchor="start" x="208.5" y="-77.5" font-family="Helvetica,sans-Serif" font-size="10.00">tracking::math::Factored</text>
<text text-anchor="start" x="208.5" y="-66.5" font-family="Helvetica,sans-Serif" font-size="10.00">CovarianceMatrixPolicy</text>
<text text-anchor="middle" x="268" y="-55.5" font-family="Helvetica,sans-Serif" font-size="10.00">&lt; ValueType_ &gt;</text>
</a>
</g>
</g>
<!-- Node0&#45;&gt;Node1 -->
<g id="edge74_Node000000_Node000001" class="edge">
<title>Node0&#45;&gt;Node1</title>
<g id="a_edge74_Node000000_Node000001"><a xlink:title=" ">
<path fill="none" stroke="#63b8ff" d="M159.24,-53.81C173.03,-55.75 187.17,-57.74 200.48,-59.62"/>
<polygon fill="#63b8ff" stroke="#63b8ff" points="159.66,-50.33 149.26,-52.4 158.68,-57.26 159.66,-50.33"/>
</a>
</g>
</g>
<!-- Node2 -->
<g id="Node000002" class="node">
<title>Node2</title>
<g id="a_Node000002"><a xlink:href="structtracking_1_1math_1_1FullCovarianceMatrixPolicy.html" target="_top" xlink:title="Policy for using full covariance matrix representation.">
<polygon fill="white" stroke="#666666" points="351,-30 185,-30 185,0 351,0 351,-30"/>
<text text-anchor="start" x="193" y="-18" font-family="Helvetica,sans-Serif" font-size="10.00">tracking::math::FullCovariance</text>
<text text-anchor="middle" x="268" y="-7" font-family="Helvetica,sans-Serif" font-size="10.00">MatrixPolicy&lt; ValueType_ &gt;</text>
</a>
</g>
</g>
<!-- Node0&#45;&gt;Node2 -->
<g id="edge75_Node000000_Node000002" class="edge">
<title>Node0&#45;&gt;Node2</title>
<g id="a_edge75_Node000000_Node000002"><a xlink:title=" ">
<path fill="none" stroke="#63b8ff" d="M159.23,-30.2C167.78,-28.99 176.46,-27.77 184.99,-26.56"/>
<polygon fill="#63b8ff" stroke="#63b8ff" points="158.68,-26.74 149.26,-31.6 159.66,-33.67 158.68,-26.74"/>
</a>
</g>
</g>
</g>
</svg>
