<?xml version="1.0" encoding="UTF-8" standalone="no"?>
<!DOCTYPE svg PUBLIC "-//W3C//DTD SVG 1.1//EN"
 "http://www.w3.org/Graphics/SVG/1.1/DTD/svg11.dtd">
<!-- Generated by graphviz version 2.43.0 (0)
 -->
<!-- Title: Graphical Class Hierarchy Pages: 1 -->
<svg width="294pt" height="216pt"
 viewBox="0.00 0.00 294.00 215.50" xmlns="http://www.w3.org/2000/svg" xmlns:xlink="http://www.w3.org/1999/xlink">
<g id="graph0" class="graph" transform="scale(1 1) rotate(0) translate(4 211.5)">
<title>Graphical Class Hierarchy</title>
<!-- Node0 -->
<g id="Node000000" class="node">
<title>Node0</title>
<g id="a_Node000000"><a xlink:title=" ">
<polygon fill="#e0e0e0" stroke="#999999" points="89,-118 0,-118 0,-99 89,-99 89,-118"/>
<text text-anchor="middle" x="44.5" y="-106" font-family="Helvetica,sans-Serif" font-size="10.00">std::false_type</text>
</a>
</g>
</g>
<!-- Node1 -->
<g id="Node000001" class="node">
<title>Node1</title>
<g id="a_Node000001"><a xlink:href="structtracking_1_1math_1_1is__matrix__like.html" target="_top" xlink:title="SFINAE helper to detect matrix&#45;like types at compile time.">
<polygon fill="white" stroke="#666666" points="286,-207.5 125,-207.5 125,-177.5 286,-177.5 286,-207.5"/>
<text text-anchor="start" x="133" y="-195.5" font-family="Helvetica,sans-Serif" font-size="10.00">tracking::math::is</text>
<text text-anchor="middle" x="205.5" y="-184.5" font-family="Helvetica,sans-Serif" font-size="10.00">_matrix_like&lt; T, typename &gt;</text>
</a>
</g>
</g>
<!-- Node0&#45;&gt;Node1 -->
<g id="edge1_Node000000_Node000001" class="edge">
<title>Node0&#45;&gt;Node1</title>
<g id="a_edge1_Node000000_Node000001"><a xlink:title=" ">
<path fill="none" stroke="#63b8ff" d="M63.67,-125.2C79.02,-138.55 102.1,-156.87 125,-168.5 131.56,-171.83 138.66,-174.78 145.82,-177.38"/>
<polygon fill="#63b8ff" stroke="#63b8ff" points="65.79,-122.4 55.99,-118.38 61.14,-127.64 65.79,-122.4"/>
</a>
</g>
</g>
<!-- Node2 -->
<g id="Node000002" class="node">
<title>Node2</title>
<g id="a_Node000002"><a xlink:href="structtracking_1_1motion_1_1detail_1_1has__acceleration.html" target="_top" xlink:title="Detection trait for StateDefs providing an acceleration (AX and AY enumerators)">
<polygon fill="white" stroke="#666666" points="285,-159 126,-159 126,-118 285,-118 285,-159"/>
<text text-anchor="start" x="134" y="-147" font-family="Helvetica,sans-Serif" font-size="10.00">tracking::motion::detail</text>
<text text-anchor="start" x="134" y="-136" font-family="Helvetica,sans-Serif" font-size="10.00">::has_acceleration&lt; StateDef</text>
<text text-anchor="middle" x="205.5" y="-125" font-family="Helvetica,sans-Serif" font-size="10.00">_, typename &gt;</text>
</a>
</g>
</g>
<!-- Node0&#45;&gt;Node2 -->
<g id="edge2_Node000000_Node000002" class="edge">
<title>Node0&#45;&gt;Node2</title>
<g id="a_edge2_Node000000_Node000002"><a xlink:title=" ">
<path fill="none" stroke="#63b8ff" d="M99.25,-118.64C107.87,-120.27 116.94,-121.98 125.99,-123.69"/>
<polygon fill="#63b8ff" stroke="#63b8ff" points="99.84,-115.19 89.37,-116.78 98.55,-122.07 99.84,-115.19"/>
</a>
</g>
</g>
<!-- Node3 -->
<g id="Node000003" class="node">
<title>Node3</title>
<g id="a_Node000003"><a xlink:href="structtracking_1_1motion_1_1detail_1_1has__position.html" target="_top" xlink:title="Detection trait for StateDefs providing a position (X and Y enumerators)">
<polygon fill="white" stroke="#666666" points="274.5,-100 136.5,-100 136.5,-59 274.5,-59 274.5,-100"/>
<text text-anchor="start" x="144.5" y="-88" font-family="Helvetica,sans-Serif" font-size="10.00">tracking::motion::detail</text>
<text text-anchor="start" x="144.5" y="-77" font-family="Helvetica,sans-Serif" font-size="10.00">::has_position&lt; StateDef</text>
<text text-anchor="middle" x="205.5" y="-66" font-family="Helvetica,sans-Serif" font-size="10.00">_, typename &gt;</text>
</a>
</g>
</g>
<!-- Node0&#45;&gt;Node3 -->
<g id="edge3_Node000000_Node000003" class="edge">
<title>Node0&#45;&gt;Node3</title>
<g id="a_edge3_Node000000_Node000003"><a xlink:title=" ">
<path fill="none" stroke="#63b8ff" d="M99.52,-98.65C111.35,-96.49 124.02,-94.18 136.32,-91.94"/>
<polygon fill="#63b8ff" stroke="#63b8ff" points="98.58,-95.26 89.37,-100.5 99.83,-102.15 98.58,-95.26"/>
</a>
</g>
</g>
<!-- Node4 -->
<g id="Node000004" class="node">
<title>Node4</title>
<g id="a_Node000004"><a xlink:href="structtracking_1_1motion_1_1detail_1_1has__velocity.html" target="_top" xlink:title="Detection trait for StateDefs providing a velocity (VX and VY enumerators)">
<polygon fill="white" stroke="#666666" points="274.5,-41 136.5,-41 136.5,0 274.5,0 274.5,-41"/>
<text text-anchor="start" x="144.5" y="-29" font-family="Helvetica,sans-Serif" font-size="10.00">tracking::motion::detail</text>
<text text-anchor="start" x="144.5" y="-18" font-family="Helvetica,sans-Serif" font-size="10.00">::has_velocity&lt; StateDef</text>
<text text-anchor="middle" x="205.5" y="-7" font-family="Helvetica,sans-Serif" font-size="10.00">_, typename &gt;</text>
</a>
</g>
</g>
<!-- Node0&#45;&gt;Node4 -->
<g id="edge4_Node000000_Node000004" class="edge">
<title>Node0&#45;&gt;Node4</title>
<g id="a_edge4_Node000000_Node000004"><a xlink:title=" ">
<path fill="none" stroke="#63b8ff" d="M64.51,-92.36C80.03,-79.75 102.93,-62.43 125,-50.5 131.23,-47.13 137.92,-43.97 144.67,-41.06"/>
<polygon fill="#63b8ff" stroke="#63b8ff" points="62.18,-89.74 56.7,-98.81 66.63,-95.14 62.18,-89.74"/>
</a>
</g>
</g>
</g>
</svg>
