<?xml version="1.0" encoding="UTF-8" standalone="no"?>
<!DOCTYPE svg PUBLIC "-//W3C//DTD SVG 1.1//EN"
 "http://www.w3.org/Graphics/SVG/1.1/DTD/svg11.dtd">
<!-- Generated by graphviz version 2.43.0 (0)
 -->
<!-- Title: include/trackingLib/observation/iobservation_model.h Pages: 1 -->
<svg width="1449pt" height="731pt"
 viewBox="0.00 0.00 1448.86 731.00" xmlns="http://www.w3.org/2000/svg" xmlns:xlink="http://www.w3.org/1999/xlink">
<g id="graph0" class="graph" transform="scale(1 1) rotate(0) translate(4 727)">
<title>include/trackingLib/observation/iobservation_model.h</title>
<!-- Node1 -->
<g id="Node000001" class="node">
<title>Node1</title>
<g id="a_Node000001"><a xlink:title=" ">
<polygon fill="#999999" stroke="#666666" points="246.5,-723 105.5,-723 105.5,-682 246.5,-682 246.5,-723"/>
<text text-anchor="start" x="113.5" y="-711" font-family="Helvetica,sans-Serif" font-size="10.00">include/trackingLib</text>
<text text-anchor="start" x="113.5" y="-700" font-family="Helvetica,sans-Serif" font-size="10.00">/observation/iobservation</text>
<text text-anchor="middle" x="176" y="-689" font-family="Helvetica,sans-Serif" font-size="10.00">_model.h</text>
</a>
</g>
</g>
<!-- Node2 -->
<g id="Node000002" class="node">
<title>Node2</title>
<g id="a_Node000002"><a xlink:href="first__include_8h.html" target="_top" xlink:title=" ">
<polygon fill="white" stroke="#666666" points="270.5,-129 159.5,-129 159.5,-110 270.5,-110 270.5,-129"/>
<text text-anchor="middle" x="215" y="-117" font-family="Helvetica,sans-Serif" font-size="10.00">base/first_include.h</text>
</a>
</g>
</g>
<!-- Node1&#45;&gt;Node2 -->
<g id="edge1_Node000001_Node000002" class="edge">
<title>Node1&#45;&gt;Node2</title>
<g id="a_edge1_Node000001_Node000002"><a xlink:title=" ">
<path fill="none" stroke="#63b8ff" d="M105.27,-685.78C82.7,-677.47 59.57,-664.9 44,-646 17.72,-614.12 25,-596.32 25,-555 25,-555 25,-555 25,-239.5 25,-200.11 41.67,-188.87 73,-165 95.04,-148.21 123.54,-137.67 149.22,-131.1"/>
<polygon fill="#63b8ff" stroke="#63b8ff" points="150.37,-134.43 159.27,-128.69 148.73,-127.62 150.37,-134.43"/>
</a>
</g>
</g>
<!-- Node9 -->
<g id="Node000009" class="node">
<title>Node9</title>
<g id="a_Node000009"><a xlink:href="require__abstract__intf_8h.html" target="_top" xlink:title=" ">
<polygon fill="white" stroke="#666666" points="958,-569 836,-569 836,-539 958,-539 958,-569"/>
<text text-anchor="start" x="844" y="-557" font-family="Helvetica,sans-Serif" font-size="10.00">base/require_abstract</text>
<text text-anchor="middle" x="897" y="-546" font-family="Helvetica,sans-Serif" font-size="10.00">_intf.h</text>
</a>
</g>
</g>
<!-- Node1&#45;&gt;Node9 -->
<g id="edge8_Node000001_Node000009" class="edge">
<title>Node1&#45;&gt;Node9</title>
<g id="a_edge8_Node000001_Node000009"><a xlink:title=" ">
<path fill="none" stroke="#63b8ff" d="M246.78,-687.12C384.54,-659.13 687.31,-597.61 825.58,-569.51"/>
<polygon fill="#63b8ff" stroke="#63b8ff" points="826.55,-572.89 835.65,-567.47 825.15,-566.03 826.55,-572.89"/>
</a>
</g>
</g>
<!-- Node11 -->
<g id="Node000011" class="node">
<title>Node11</title>
<g id="a_Node000011"><a xlink:href="covariance__matrix__policy__intf_8h.html" target="_top" xlink:title=" ">
<polygon fill="white" stroke="#666666" points="198.5,-646 53.5,-646 53.5,-605 198.5,-605 198.5,-646"/>
<text text-anchor="start" x="61.5" y="-634" font-family="Helvetica,sans-Serif" font-size="10.00">math/linalg/contracts</text>
<text text-anchor="start" x="61.5" y="-623" font-family="Helvetica,sans-Serif" font-size="10.00">/covariance_matrix_policy</text>
<text text-anchor="middle" x="126" y="-612" font-family="Helvetica,sans-Serif" font-size="10.00">_intf.h</text>
</a>
</g>
</g>
<!-- Node1&#45;&gt;Node11 -->
<g id="edge10_Node000001_Node000011" class="edge">
<title>Node1&#45;&gt;Node11</title>
<g id="a_edge10_Node000001_Node000011"><a xlink:title=" ">
<path fill="none" stroke="#63b8ff" d="M162.86,-681.79C157.29,-673.44 150.7,-663.55 144.64,-654.47"/>
<polygon fill="#63b8ff" stroke="#63b8ff" points="147.51,-652.45 139.05,-646.07 141.68,-656.34 147.51,-652.45"/>
</a>
</g>
</g>
<!-- Node12 -->
<g id="Node000012" class="node">
<title>Node12</title>
<g id="a_Node000012"><a xlink:href="covariance__matrix__policies_8h.html" target="_top" xlink:title=" ">
<polygon fill="white" stroke="#666666" points="276,-569 148,-569 148,-539 276,-539 276,-569"/>
<text text-anchor="start" x="156" y="-557" font-family="Helvetica,sans-Serif" font-size="10.00">math/linalg/covariance</text>
<text text-anchor="middle" x="212" y="-546" font-family="Helvetica,sans-Serif" font-size="10.00">_matrix_policies.h</text>
</a>
</g>
</g>
<!-- Node1&#45;&gt;Node12 -->
<g id="edge54_Node000001_Node000012" class="edge">
<title>Node1&#45;&gt;Node12</title>
<g id="a_edge54_Node000001_Node000012"><a xlink:title=" ">
<path fill="none" stroke="#63b8ff" d="M190.5,-681.75C197.12,-671.59 204.3,-658.71 208,-646 214.4,-624.04 214.84,-597.85 214.02,-579.22"/>
<polygon fill="#63b8ff" stroke="#63b8ff" points="217.51,-578.99 213.42,-569.21 210.52,-579.4 217.51,-578.99"/>
</a>
</g>
</g>
<!-- Node3 -->
<g id="Node000003" class="node">
<title>Node3</title>
<g id="a_Node000003"><a xlink:href="test__config_8h.html" target="_top" xlink:title=" ">
<polygon fill="white" stroke="#666666" points="259.5,-74 180.5,-74 180.5,-55 259.5,-55 259.5,-74"/>
<text text-anchor="middle" x="220" y="-62" font-family="Helvetica,sans-Serif" font-size="10.00">test_config.h</text>
</a>
</g>
</g>
<!-- Node2&#45;&gt;Node3 -->
<g id="edge2_Node000002_Node000003" class="edge">
<title>Node2&#45;&gt;Node3</title>
<g id="a_edge2_Node000002_Node000003"><a xlink:title=" ">
<path fill="none" stroke="#63b8ff" d="M215.83,-109.75C216.48,-102.8 217.42,-92.85 218.24,-84.13"/>
<polygon fill="#63b8ff" stroke="#63b8ff" points="221.73,-84.37 219.19,-74.09 214.77,-83.72 221.73,-84.37"/>
</a>
</g>
</g>
<!-- Node4 -->
<g id="Node000004" class="node">
<title>Node4</title>
<g id="a_Node000004"><a xlink:href="atomic__types_8h.html" target="_top" xlink:title=" ">
<polygon fill="white" stroke="#666666" points="370,-74 278,-74 278,-55 370,-55 370,-74"/>
<text text-anchor="middle" x="324" y="-62" font-family="Helvetica,sans-Serif" font-size="10.00">atomic_types.h</text>
</a>
</g>
</g>
<!-- Node2&#45;&gt;Node4 -->
<g id="edge3_Node000002_Node000004" class="edge">
<title>Node2&#45;&gt;Node4</title>
<g id="a_edge3_Node000002_Node000004"><a xlink:title=" ">
<path fill="none" stroke="#63b8ff" d="M232.51,-109.98C249.97,-101.5 277.01,-88.35 297.17,-78.54"/>
<polygon fill="#63b8ff" stroke="#63b8ff" points="298.71,-81.69 306.17,-74.17 295.64,-75.4 298.71,-81.69"/>
</a>
</g>
</g>
<!-- Node6 -->
<g id="Node000006" class="node">
<title>Node6</title>
<g id="a_Node000006"><a xlink:title=" ">
<polygon fill="#e0e0e0" stroke="#999999" points="92,-74 0,-74 0,-55 92,-55 92,-74"/>
<text text-anchor="middle" x="46" y="-62" font-family="Helvetica,sans-Serif" font-size="10.00">tl/expected.hpp</text>
</a>
</g>
</g>
<!-- Node2&#45;&gt;Node6 -->
<g id="edge5_Node000002_Node000006" class="edge">
<title>Node2&#45;&gt;Node6</title>
<g id="a_edge5_Node000002_Node000006"><a xlink:title=" ">
<path fill="none" stroke="#63b8ff" d="M187.85,-109.98C159.47,-101.09 114.77,-87.07 83.14,-77.15"/>
<polygon fill="#63b8ff" stroke="#63b8ff" points="83.95,-73.73 73.37,-74.08 81.86,-80.41 83.95,-73.73"/>
</a>
</g>
</g>
<!-- Node7 -->
<g id="Node000007" class="node">
<title>Node7</title>
<g id="a_Node000007"><a xlink:title=" ">
<polygon fill="#e0e0e0" stroke="#999999" points="162,-74 110,-74 110,-55 162,-55 162,-74"/>
<text text-anchor="middle" x="136" y="-62" font-family="Helvetica,sans-Serif" font-size="10.00">cassert</text>
</a>
</g>
</g>
<!-- Node2&#45;&gt;Node7 -->
<g id="edge6_Node000002_Node000007" class="edge">
<title>Node2&#45;&gt;Node7</title>
<g id="a_edge6_Node000002_Node000007"><a xlink:title=" ">
<path fill="none" stroke="#63b8ff" d="M202.31,-109.98C190.17,-101.84 171.64,-89.41 157.25,-79.76"/>
<polygon fill="#63b8ff" stroke="#63b8ff" points="159.18,-76.84 148.92,-74.17 155.28,-82.65 159.18,-76.84"/>
</a>
</g>
</g>
<!-- Node8 -->
<g id="Node000008" class="node">
<title>Node8</title>
<g id="a_Node000008"><a xlink:title=" ">
<polygon fill="#e0e0e0" stroke="#999999" points="480.5,-74 397.5,-74 397.5,-55 480.5,-55 480.5,-74"/>
<text text-anchor="middle" x="439" y="-62" font-family="Helvetica,sans-Serif" font-size="10.00">initializer_list</text>
</a>
</g>
</g>
<!-- Node2&#45;&gt;Node8 -->
<g id="edge7_Node000002_Node000008" class="edge">
<title>Node2&#45;&gt;Node8</title>
<g id="a_edge7_Node000002_Node000008"><a xlink:title=" ">
<path fill="none" stroke="#63b8ff" d="M250.99,-109.98C289.49,-100.87 350.69,-86.4 392.74,-76.45"/>
<polygon fill="#63b8ff" stroke="#63b8ff" points="393.8,-79.79 402.73,-74.08 392.19,-72.98 393.8,-79.79"/>
</a>
</g>
</g>
<!-- Node5 -->
<g id="Node000005" class="node">
<title>Node5</title>
<g id="a_Node000005"><a xlink:title=" ">
<polygon fill="#e0e0e0" stroke="#999999" points="349,-19 299,-19 299,0 349,0 349,-19"/>
<text text-anchor="middle" x="324" y="-7" font-family="Helvetica,sans-Serif" font-size="10.00">cstdint</text>
</a>
</g>
</g>
<!-- Node4&#45;&gt;Node5 -->
<g id="edge4_Node000004_Node000005" class="edge">
<title>Node4&#45;&gt;Node5</title>
<g id="a_edge4_Node000004_Node000005"><a xlink:title=" ">
<path fill="none" stroke="#63b8ff" d="M324,-54.75C324,-47.8 324,-37.85 324,-29.13"/>
<polygon fill="#63b8ff" stroke="#63b8ff" points="327.5,-29.09 324,-19.09 320.5,-29.09 327.5,-29.09"/>
</a>
</g>
</g>
<!-- Node10 -->
<g id="Node000010" class="node">
<title>Node10</title>
<g id="a_Node000010"><a xlink:title=" ">
<polygon fill="#e0e0e0" stroke="#999999" points="1297.5,-74 1228.5,-74 1228.5,-55 1297.5,-55 1297.5,-74"/>
<text text-anchor="middle" x="1263" y="-62" font-family="Helvetica,sans-Serif" font-size="10.00">type_traits</text>
</a>
</g>
</g>
<!-- Node9&#45;&gt;Node10 -->
<g id="edge9_Node000009_Node000010" class="edge">
<title>Node9&#45;&gt;Node10</title>
<g id="a_edge9_Node000009_Node000010"><a xlink:title=" ">
<path fill="none" stroke="#63b8ff" d="M958.23,-551.2C1100.24,-545.36 1440,-521.15 1440,-423 1440,-423 1440,-423 1440,-179 1440,-147.19 1443.43,-132.56 1421,-110 1391.28,-80.11 1343.17,-69.9 1307.83,-66.61"/>
<polygon fill="#63b8ff" stroke="#63b8ff" points="1308.01,-63.12 1297.77,-65.83 1307.47,-70.1 1308.01,-63.12"/>
</a>
</g>
</g>
<!-- Node11&#45;&gt;Node2 -->
<g id="edge11_Node000011_Node000002" class="edge">
<title>Node11&#45;&gt;Node2</title>
<g id="a_edge11_Node000011_Node000002"><a xlink:title=" ">
<path fill="none" stroke="#63b8ff" d="M110.1,-604.72C91.44,-579.45 63,-533.62 63,-489 63,-489 63,-489 63,-239.5 63,-200.59 79.43,-190.29 109,-165 126.73,-149.84 150.36,-139.25 170.81,-132.21"/>
<polygon fill="#63b8ff" stroke="#63b8ff" points="172.13,-135.46 180.56,-129.04 169.97,-128.8 172.13,-135.46"/>
</a>
</g>
</g>
<!-- Node11&#45;&gt;Node12 -->
<g id="edge12_Node000011_Node000012" class="edge">
<title>Node11&#45;&gt;Node12</title>
<g id="a_edge12_Node000011_Node000012"><a xlink:title=" ">
<path fill="none" stroke="#63b8ff" d="M150.41,-604.77C161.76,-595.6 175.25,-584.7 186.71,-575.44"/>
<polygon fill="#63b8ff" stroke="#63b8ff" points="189.05,-578.05 194.63,-569.04 184.65,-572.6 189.05,-578.05"/>
</a>
</g>
</g>
<!-- Node12&#45;&gt;Node2 -->
<g id="edge13_Node000012_Node000002" class="edge">
<title>Node12&#45;&gt;Node2</title>
<g id="a_edge13_Node000012_Node000002"><a xlink:title=" ">
<path fill="none" stroke="#63b8ff" d="M184.37,-538.8C169.45,-530.06 151.57,-517.72 139,-503 113.44,-473.07 101,-462.36 101,-423 101,-423 101,-423 101,-239.5 101,-201.92 115.08,-192.21 141,-165 153.47,-151.91 170.61,-141.28 185.25,-133.69"/>
<polygon fill="#63b8ff" stroke="#63b8ff" points="187.03,-136.72 194.44,-129.15 183.93,-130.44 187.03,-136.72"/>
</a>
</g>
</g>
<!-- Node13 -->
<g id="Node000013" class="node">
<title>Node13</title>
<g id="a_Node000013"><a xlink:href="covariance__matrix__factored_8h.html" target="_top" xlink:title=" ">
<polygon fill="white" stroke="#666666" points="276,-503 148,-503 148,-473 276,-473 276,-503"/>
<text text-anchor="start" x="156" y="-491" font-family="Helvetica,sans-Serif" font-size="10.00">math/linalg/covariance</text>
<text text-anchor="middle" x="212" y="-480" font-family="Helvetica,sans-Serif" font-size="10.00">_matrix_factored.h</text>
</a>
</g>
</g>
<!-- Node12&#45;&gt;Node13 -->
<g id="edge14_Node000012_Node000013" class="edge">
<title>Node12&#45;&gt;Node13</title>
<g id="a_edge14_Node000012_Node000013"><a xlink:title=" ">
<path fill="none" stroke="#63b8ff" d="M212,-538.8C212,-531.34 212,-521.99 212,-513.41"/>
<polygon fill="#63b8ff" stroke="#63b8ff" points="215.5,-513.16 212,-503.16 208.5,-513.16 215.5,-513.16"/>
</a>
</g>
</g>
<!-- Node29 -->
<g id="Node000029" class="node">
<title>Node29</title>
<g id="a_Node000029"><a xlink:href="covariance__matrix__full_8h.html" target="_top" xlink:title=" ">
<polygon fill="white" stroke="#666666" points="497,-503 369,-503 369,-473 497,-473 497,-503"/>
<text text-anchor="start" x="377" y="-491" font-family="Helvetica,sans-Serif" font-size="10.00">math/linalg/covariance</text>
<text text-anchor="middle" x="433" y="-480" font-family="Helvetica,sans-Serif" font-size="10.00">_matrix_full.h</text>
</a>
</g>
</g>
<!-- Node12&#45;&gt;Node29 -->
<g id="edge49_Node000012_Node000029" class="edge">
<title>Node12&#45;&gt;Node29</title>
<g id="a_edge49_Node000012_Node000029"><a xlink:title=" ">
<path fill="none" stroke="#63b8ff" d="M260.5,-538.95C294.18,-529.2 339.22,-516.16 374.84,-505.84"/>
<polygon fill="#63b8ff" stroke="#63b8ff" points="375.98,-509.16 384.61,-503.01 374.03,-502.43 375.98,-509.16"/>
</a>
</g>
</g>
<!-- Node13&#45;&gt;Node2 -->
<g id="edge15_Node000013_Node000002" class="edge">
<title>Node13&#45;&gt;Node2</title>
<g id="a_edge15_Node000013_Node000002"><a xlink:title=" ">
<path fill="none" stroke="#63b8ff" d="M191.45,-472.8C179.96,-463.82 166.31,-451.23 158,-437 139.57,-405.44 139,-393.54 139,-357 139,-357 139,-357 139,-239.5 139,-204.71 143.72,-193.96 163,-165 170.82,-153.25 182.57,-142.83 192.93,-135.03"/>
<polygon fill="#63b8ff" stroke="#63b8ff" points="195.09,-137.79 201.18,-129.12 191.01,-132.1 195.09,-137.79"/>
</a>
</g>
</g>
<!-- Node13&#45;&gt;Node8 -->
<g id="edge47_Node000013_Node000008" class="edge">
<title>Node13&#45;&gt;Node8</title>
<g id="a_edge47_Node000013_Node000008"><a xlink:title=" ">
<path fill="none" stroke="#63b8ff" d="M218.93,-472.79C238.28,-433.15 292.76,-321.9 312,-286 353.2,-209.16 406.36,-119.74 428.55,-82.81"/>
<polygon fill="#63b8ff" stroke="#63b8ff" points="431.56,-84.59 433.72,-74.21 425.57,-80.98 431.56,-84.59"/>
</a>
</g>
</g>
<!-- Node14 -->
<g id="Node000014" class="node">
<title>Node14</title>
<g id="a_Node000014"><a xlink:href="covariance__matrix__intf_8h.html" target="_top" xlink:title=" ">
<polygon fill="white" stroke="#666666" points="601,-437 461,-437 461,-407 601,-407 601,-437"/>
<text text-anchor="start" x="469" y="-425" font-family="Helvetica,sans-Serif" font-size="10.00">math/linalg/contracts</text>
<text text-anchor="middle" x="531" y="-414" font-family="Helvetica,sans-Serif" font-size="10.00">/covariance_matrix_intf.h</text>
</a>
</g>
</g>
<!-- Node13&#45;&gt;Node14 -->
<g id="edge16_Node000013_Node000014" class="edge">
<title>Node13&#45;&gt;Node14</title>
<g id="a_edge16_Node000013_Node000014"><a xlink:title=" ">
<path fill="none" stroke="#63b8ff" d="M276.17,-474.13C326.61,-464.01 397.15,-449.85 451.22,-439.01"/>
<polygon fill="#63b8ff" stroke="#63b8ff" points="452,-442.42 461.12,-437.02 450.63,-435.56 452,-442.42"/>
</a>
</g>
</g>
<!-- Node28 -->
<g id="Node000028" class="node">
<title>Node28</title>
<g id="a_Node000028"><a xlink:title=" ">
<polygon fill="#e0e0e0" stroke="#999999" points="227,-431.5 167,-431.5 167,-412.5 227,-412.5 227,-431.5"/>
<text text-anchor="middle" x="197" y="-419.5" font-family="Helvetica,sans-Serif" font-size="10.00">iostream</text>
</a>
</g>
</g>
<!-- Node13&#45;&gt;Node28 -->
<g id="edge48_Node000013_Node000028" class="edge">
<title>Node13&#45;&gt;Node28</title>
<g id="a_edge48_Node000013_Node000028"><a xlink:title=" ">
<path fill="none" stroke="#63b8ff" d="M208.67,-472.8C206.54,-463.7 203.75,-451.79 201.43,-441.9"/>
<polygon fill="#63b8ff" stroke="#63b8ff" points="204.76,-440.78 199.07,-431.84 197.95,-442.38 204.76,-440.78"/>
</a>
</g>
</g>
<!-- Node14&#45;&gt;Node2 -->
<g id="edge17_Node000014_Node000002" class="edge">
<title>Node14&#45;&gt;Node2</title>
<g id="a_edge17_Node000014_Node000002"><a xlink:title=" ">
<path fill="none" stroke="#63b8ff" d="M460.87,-407.99C367.77,-388.67 215,-348.98 215,-296.5 215,-296.5 215,-296.5 215,-239.5 215,-204.15 215,-162.9 215,-139.42"/>
<polygon fill="#63b8ff" stroke="#63b8ff" points="218.5,-139.16 215,-129.16 211.5,-139.16 218.5,-139.16"/>
</a>
</g>
</g>
<!-- Node15 -->
<g id="Node000015" class="node">
<title>Node15</title>
<g id="a_Node000015"><a xlink:href="interface__contract_8h.html" target="_top" xlink:title=" ">
<polygon fill="white" stroke="#666666" points="1412,-129 1272,-129 1272,-110 1412,-110 1412,-129"/>
<text text-anchor="middle" x="1342" y="-117" font-family="Helvetica,sans-Serif" font-size="10.00">base/interface_contract.h</text>
</a>
</g>
</g>
<!-- Node14&#45;&gt;Node15 -->
<g id="edge18_Node000014_Node000015" class="edge">
<title>Node14&#45;&gt;Node15</title>
<g id="a_edge18_Node000014_Node000015"><a xlink:title=" ">
<path fill="none" stroke="#63b8ff" d="M601.11,-419.58C701.16,-416.35 890.15,-405.75 1047,-371 1144.1,-349.49 1258,-395.95 1258,-296.5 1258,-296.5 1258,-296.5 1258,-239.5 1258,-195.39 1297,-156.14 1321.85,-135.61"/>
<polygon fill="#63b8ff" stroke="#63b8ff" points="1324.32,-138.12 1329.96,-129.15 1319.96,-132.64 1324.32,-138.12"/>
</a>
</g>
</g>
<!-- Node16 -->
<g id="Node000016" class="node">
<title>Node16</title>
<g id="a_Node000016"><a xlink:href="require__copy__intf_8h.html" target="_top" xlink:title=" ">
<polygon fill="white" stroke="#666666" points="1058,-129 922,-129 922,-110 1058,-110 1058,-129"/>
<text text-anchor="middle" x="990" y="-117" font-family="Helvetica,sans-Serif" font-size="10.00">base/require_copy_intf.h</text>
</a>
</g>
</g>
<!-- Node14&#45;&gt;Node16 -->
<g id="edge20_Node000014_Node000016" class="edge">
<title>Node14&#45;&gt;Node16</title>
<g id="a_edge20_Node000014_Node000016"><a xlink:title=" ">
<path fill="none" stroke="#63b8ff" d="M601.11,-419.1C745.15,-413.29 1061,-389.9 1061,-296.5 1061,-296.5 1061,-296.5 1061,-239.5 1061,-205.33 1060.04,-194.02 1042,-165 1034.65,-153.18 1023.13,-142.85 1012.8,-135.13"/>
<polygon fill="#63b8ff" stroke="#63b8ff" points="1014.71,-132.2 1004.52,-129.29 1010.67,-137.91 1014.71,-132.2"/>
</a>
</g>
</g>
<!-- Node17 -->
<g id="Node000017" class="node">
<title>Node17</title>
<g id="a_Node000017"><a xlink:href="require__move__intf_8h.html" target="_top" xlink:title=" ">
<polygon fill="white" stroke="#666666" points="1254,-129 1114,-129 1114,-110 1254,-110 1254,-129"/>
<text text-anchor="middle" x="1184" y="-117" font-family="Helvetica,sans-Serif" font-size="10.00">base/require_move_intf.h</text>
</a>
</g>
</g>
<!-- Node14&#45;&gt;Node17 -->
<g id="edge22_Node000014_Node000017" class="edge">
<title>Node14&#45;&gt;Node17</title>
<g id="a_edge22_Node000014_Node000017"><a xlink:title=" ">
<path fill="none" stroke="#63b8ff" d="M601.2,-419.67C716.83,-416.5 941.57,-405.9 1012,-371 1110.22,-322.33 1162.31,-187.64 1178.45,-138.63"/>
<polygon fill="#63b8ff" stroke="#63b8ff" points="1181.8,-139.65 1181.5,-129.06 1175.13,-137.52 1181.8,-139.65"/>
</a>
</g>
</g>
<!-- Node18 -->
<g id="Node000018" class="node">
<title>Node18</title>
<g id="a_Node000018"><a xlink:href="square__matrix_8h.html" target="_top" xlink:title=" ">
<polygon fill="white" stroke="#666666" points="536,-371 428,-371 428,-341 536,-341 536,-371"/>
<text text-anchor="start" x="436" y="-359" font-family="Helvetica,sans-Serif" font-size="10.00">math/linalg/square</text>
<text text-anchor="middle" x="482" y="-348" font-family="Helvetica,sans-Serif" font-size="10.00">_matrix.h</text>
</a>
</g>
</g>
<!-- Node14&#45;&gt;Node18 -->
<g id="edge24_Node000014_Node000018" class="edge">
<title>Node14&#45;&gt;Node18</title>
<g id="a_edge24_Node000014_Node000018"><a xlink:title=" ">
<path fill="none" stroke="#63b8ff" d="M520.13,-406.8C513.91,-398.68 505.98,-388.31 498.96,-379.15"/>
<polygon fill="#63b8ff" stroke="#63b8ff" points="501.7,-376.98 492.84,-371.16 496.14,-381.23 501.7,-376.98"/>
</a>
</g>
</g>
<!-- Node15&#45;&gt;Node10 -->
<g id="edge19_Node000015_Node000010" class="edge">
<title>Node15&#45;&gt;Node10</title>
<g id="a_edge19_Node000015_Node000010"><a xlink:title=" ">
<path fill="none" stroke="#63b8ff" d="M1329.31,-109.98C1317.17,-101.84 1298.64,-89.41 1284.25,-79.76"/>
<polygon fill="#63b8ff" stroke="#63b8ff" points="1286.18,-76.84 1275.92,-74.17 1282.28,-82.65 1286.18,-76.84"/>
</a>
</g>
</g>
<!-- Node16&#45;&gt;Node10 -->
<g id="edge21_Node000016_Node000010" class="edge">
<title>Node16&#45;&gt;Node10</title>
<g id="a_edge21_Node000016_Node000010"><a xlink:title=" ">
<path fill="none" stroke="#63b8ff" d="M1033.86,-109.98C1084.48,-100.16 1167.29,-84.08 1218.28,-74.18"/>
<polygon fill="#63b8ff" stroke="#63b8ff" points="1219.19,-77.57 1228.34,-72.23 1217.86,-70.7 1219.19,-77.57"/>
</a>
</g>
</g>
<!-- Node17&#45;&gt;Node10 -->
<g id="edge23_Node000017_Node000010" class="edge">
<title>Node17&#45;&gt;Node10</title>
<g id="a_edge23_Node000017_Node000010"><a xlink:title=" ">
<path fill="none" stroke="#63b8ff" d="M1196.69,-109.98C1208.83,-101.84 1227.36,-89.41 1241.75,-79.76"/>
<polygon fill="#63b8ff" stroke="#63b8ff" points="1243.72,-82.65 1250.08,-74.17 1239.82,-76.84 1243.72,-82.65"/>
</a>
</g>
</g>
<!-- Node18&#45;&gt;Node2 -->
<g id="edge25_Node000018_Node000002" class="edge">
<title>Node18&#45;&gt;Node2</title>
<g id="a_edge25_Node000018_Node000002"><a xlink:title=" ">
<path fill="none" stroke="#63b8ff" d="M427.87,-350.07C391.67,-344.33 344.84,-331.91 312,-305 283.74,-281.85 239.73,-180.46 222.38,-138.64"/>
<polygon fill="#63b8ff" stroke="#63b8ff" points="225.61,-137.29 218.57,-129.37 219.14,-139.95 225.61,-137.29"/>
</a>
</g>
</g>
<!-- Node18&#45;&gt;Node8 -->
<g id="edge45_Node000018_Node000008" class="edge">
<title>Node18&#45;&gt;Node8</title>
<g id="a_edge45_Node000018_Node000008"><a xlink:title=" ">
<path fill="none" stroke="#63b8ff" d="M479.87,-340.64C472.75,-292.71 449.79,-138.15 441.79,-84.25"/>
<polygon fill="#63b8ff" stroke="#63b8ff" points="445.21,-83.47 440.28,-74.09 438.28,-84.5 445.21,-83.47"/>
</a>
</g>
</g>
<!-- Node19 -->
<g id="Node000019" class="node">
<title>Node19</title>
<g id="a_Node000019"><a xlink:href="errors_8h.html" target="_top" xlink:title="Error types used throughout the math library.">
<polygon fill="white" stroke="#666666" points="903.5,-129 790.5,-129 790.5,-110 903.5,-110 903.5,-129"/>
<text text-anchor="middle" x="847" y="-117" font-family="Helvetica,sans-Serif" font-size="10.00">math/linalg/errors.h</text>
</a>
</g>
</g>
<!-- Node18&#45;&gt;Node19 -->
<g id="edge26_Node000018_Node000019" class="edge">
<title>Node18&#45;&gt;Node19</title>
<g id="a_edge26_Node000018_Node000019"><a xlink:title=" ">
<path fill="none" stroke="#63b8ff" d="M536.13,-349.54C619.99,-337.84 778.93,-301.99 849,-195 859.83,-178.47 857.02,-155.14 853,-139.01"/>
<polygon fill="#63b8ff" stroke="#63b8ff" points="856.3,-137.81 850.17,-129.17 849.57,-139.75 856.3,-137.81"/>
</a>
</g>
</g>
<!-- Node20 -->
<g id="Node000020" class="node">
<title>Node20</title>
<g id="a_Node000020"><a xlink:href="matrix_8h.html" target="_top" xlink:title=" ">
<polygon fill="white" stroke="#666666" points="673,-250 557,-250 557,-231 673,-231 673,-250"/>
<text text-anchor="middle" x="615" y="-238" font-family="Helvetica,sans-Serif" font-size="10.00">math/linalg/matrix.h</text>
</a>
</g>
</g>
<!-- Node18&#45;&gt;Node20 -->
<g id="edge27_Node000018_Node000020" class="edge">
<title>Node18&#45;&gt;Node20</title>
<g id="a_edge27_Node000018_Node000020"><a xlink:title=" ">
<path fill="none" stroke="#63b8ff" d="M486.98,-340.9C492.98,-325.66 504.38,-301.46 521,-286 536.69,-271.41 558.03,-260.78 576.42,-253.58"/>
<polygon fill="#63b8ff" stroke="#63b8ff" points="577.83,-256.79 585.99,-250.03 575.4,-250.22 577.83,-256.79"/>
</a>
</g>
</g>
<!-- Node26 -->
<g id="Node000026" class="node">
<title>Node26</title>
<g id="a_Node000026"><a xlink:href="vector_8h.html" target="_top" xlink:title=" ">
<polygon fill="white" stroke="#666666" points="435,-305 321,-305 321,-286 435,-286 435,-305"/>
<text text-anchor="middle" x="378" y="-293" font-family="Helvetica,sans-Serif" font-size="10.00">math/linalg/vector.h</text>
</a>
</g>
</g>
<!-- Node18&#45;&gt;Node26 -->
<g id="edge41_Node000018_Node000026" class="edge">
<title>Node18&#45;&gt;Node26</title>
<g id="a_edge41_Node000018_Node000026"><a xlink:title=" ">
<path fill="none" stroke="#63b8ff" d="M457.09,-340.99C440.51,-331.66 418.84,-319.47 402.37,-310.21"/>
<polygon fill="#63b8ff" stroke="#63b8ff" points="403.79,-306.99 393.36,-305.14 400.36,-313.09 403.79,-306.99"/>
</a>
</g>
</g>
<!-- Node27 -->
<g id="Node000027" class="node">
<title>Node27</title>
<g id="a_Node000027"><a xlink:title=" ">
<polygon fill="#e0e0e0" stroke="#999999" points="574.5,-305 529.5,-305 529.5,-286 574.5,-286 574.5,-305"/>
<text text-anchor="middle" x="552" y="-293" font-family="Helvetica,sans-Serif" font-size="10.00">utility</text>
</a>
</g>
</g>
<!-- Node18&#45;&gt;Node27 -->
<g id="edge46_Node000018_Node000027" class="edge">
<title>Node18&#45;&gt;Node27</title>
<g id="a_edge46_Node000018_Node000027"><a xlink:title=" ">
<path fill="none" stroke="#63b8ff" d="M498.95,-340.84C509.42,-332.09 522.86,-320.85 533.59,-311.88"/>
<polygon fill="#63b8ff" stroke="#63b8ff" points="536.08,-314.36 541.51,-305.27 531.59,-308.99 536.08,-314.36"/>
</a>
</g>
</g>
<!-- Node20&#45;&gt;Node2 -->
<g id="edge28_Node000020_Node000002" class="edge">
<title>Node20&#45;&gt;Node2</title>
<g id="a_edge28_Node000020_Node000002"><a xlink:title=" ">
<path fill="none" stroke="#63b8ff" d="M586.23,-230.94C515.54,-209.91 333.29,-155.69 253.44,-131.94"/>
<polygon fill="#63b8ff" stroke="#63b8ff" points="254.36,-128.56 243.77,-129.06 252.36,-135.27 254.36,-128.56"/>
</a>
</g>
</g>
<!-- Node20&#45;&gt;Node8 -->
<g id="edge39_Node000020_Node000008" class="edge">
<title>Node20&#45;&gt;Node8</title>
<g id="a_edge39_Node000020_Node000008"><a xlink:title=" ">
<path fill="none" stroke="#63b8ff" d="M572.4,-230.97C548.99,-224.45 520.78,-213.36 501,-195 492.18,-186.81 461.39,-117.3 446.79,-83.63"/>
<polygon fill="#63b8ff" stroke="#63b8ff" points="449.85,-81.87 442.67,-74.08 443.42,-84.65 449.85,-81.87"/>
</a>
</g>
</g>
<!-- Node20&#45;&gt;Node19 -->
<g id="edge35_Node000020_Node000019" class="edge">
<title>Node20&#45;&gt;Node19</title>
<g id="a_edge35_Node000020_Node000019"><a xlink:title=" ">
<path fill="none" stroke="#63b8ff" d="M673.18,-234.24C728.42,-228.06 806.17,-215.9 828,-195 842.89,-180.75 846.73,-156.6 847.43,-139.66"/>
<polygon fill="#63b8ff" stroke="#63b8ff" points="850.93,-139.33 847.52,-129.31 843.94,-139.28 850.93,-139.33"/>
</a>
</g>
</g>
<!-- Node21 -->
<g id="Node000021" class="node">
<title>Node21</title>
<g id="a_Node000021"><a xlink:href="matrix__intf_8h.html" target="_top" xlink:title=" ">
<polygon fill="white" stroke="#666666" points="1033,-195 913,-195 913,-165 1033,-165 1033,-195"/>
<text text-anchor="start" x="921" y="-183" font-family="Helvetica,sans-Serif" font-size="10.00">math/linalg/contracts</text>
<text text-anchor="middle" x="973" y="-172" font-family="Helvetica,sans-Serif" font-size="10.00">/matrix_intf.h</text>
</a>
</g>
</g>
<!-- Node20&#45;&gt;Node21 -->
<g id="edge29_Node000020_Node000021" class="edge">
<title>Node20&#45;&gt;Node21</title>
<g id="a_edge29_Node000020_Node000021"><a xlink:title=" ">
<path fill="none" stroke="#63b8ff" d="M667.06,-230.99C729.25,-220.83 833.58,-203.78 902.85,-192.46"/>
<polygon fill="#63b8ff" stroke="#63b8ff" points="903.5,-195.9 912.81,-190.84 902.37,-188.99 903.5,-195.9"/>
</a>
</g>
</g>
<!-- Node22 -->
<g id="Node000022" class="node">
<title>Node22</title>
<g id="a_Node000022"><a xlink:href="matrix__types_8h.html" target="_top" xlink:title="Type definitions and enumerations for matrix operations.">
<polygon fill="white" stroke="#666666" points="616.5,-195 509.5,-195 509.5,-165 616.5,-165 616.5,-195"/>
<text text-anchor="start" x="517.5" y="-183" font-family="Helvetica,sans-Serif" font-size="10.00">math/linalg/matrix</text>
<text text-anchor="middle" x="563" y="-172" font-family="Helvetica,sans-Serif" font-size="10.00">_types.h</text>
</a>
</g>
</g>
<!-- Node20&#45;&gt;Node22 -->
<g id="edge36_Node000020_Node000022" class="edge">
<title>Node20&#45;&gt;Node22</title>
<g id="a_edge36_Node000020_Node000022"><a xlink:title=" ">
<path fill="none" stroke="#63b8ff" d="M607.33,-230.87C600.73,-223.44 590.93,-212.42 582.22,-202.62"/>
<polygon fill="#63b8ff" stroke="#63b8ff" points="584.81,-200.26 575.55,-195.11 579.57,-204.91 584.81,-200.26"/>
</a>
</g>
</g>
<!-- Node23 -->
<g id="Node000023" class="node">
<title>Node23</title>
<g id="a_Node000023"><a xlink:title=" ">
<polygon fill="#e0e0e0" stroke="#999999" points="699,-189.5 635,-189.5 635,-170.5 699,-170.5 699,-189.5"/>
<text text-anchor="middle" x="667" y="-177.5" font-family="Helvetica,sans-Serif" font-size="10.00">algorithm</text>
</a>
</g>
</g>
<!-- Node20&#45;&gt;Node23 -->
<g id="edge37_Node000020_Node000023" class="edge">
<title>Node20&#45;&gt;Node23</title>
<g id="a_edge37_Node000020_Node000023"><a xlink:title=" ">
<path fill="none" stroke="#63b8ff" d="M622.67,-230.87C630.51,-222.05 642.86,-208.16 652.54,-197.27"/>
<polygon fill="#63b8ff" stroke="#63b8ff" points="655.27,-199.47 659.3,-189.67 650.04,-194.82 655.27,-199.47"/>
</a>
</g>
</g>
<!-- Node24 -->
<g id="Node000024" class="node">
<title>Node24</title>
<g id="a_Node000024"><a xlink:title=" ">
<polygon fill="#e0e0e0" stroke="#999999" points="759,-189.5 717,-189.5 717,-170.5 759,-170.5 759,-189.5"/>
<text text-anchor="middle" x="738" y="-177.5" font-family="Helvetica,sans-Serif" font-size="10.00">array</text>
</a>
</g>
</g>
<!-- Node20&#45;&gt;Node24 -->
<g id="edge38_Node000020_Node000024" class="edge">
<title>Node20&#45;&gt;Node24</title>
<g id="a_edge38_Node000020_Node000024"><a xlink:title=" ">
<path fill="none" stroke="#63b8ff" d="M632.89,-230.99C653.38,-221.25 687.19,-205.16 710.92,-193.88"/>
<polygon fill="#63b8ff" stroke="#63b8ff" points="712.57,-196.97 720.09,-189.52 709.56,-190.65 712.57,-196.97"/>
</a>
</g>
</g>
<!-- Node25 -->
<g id="Node000025" class="node">
<title>Node25</title>
<g id="a_Node000025"><a xlink:title=" ">
<polygon fill="#e0e0e0" stroke="#999999" points="818.5,-189.5 777.5,-189.5 777.5,-170.5 818.5,-170.5 818.5,-189.5"/>
<text text-anchor="middle" x="798" y="-177.5" font-family="Helvetica,sans-Serif" font-size="10.00">tuple</text>
</a>
</g>
</g>
<!-- Node20&#45;&gt;Node25 -->
<g id="edge40_Node000020_Node000025" class="edge">
<title>Node20&#45;&gt;Node25</title>
<g id="a_edge40_Node000020_Node000025"><a xlink:title=" ">
<path fill="none" stroke="#63b8ff" d="M650.13,-230.92C681.47,-222.89 728.39,-209.9 768,-195 769.05,-194.61 770.11,-194.19 771.18,-193.76"/>
<polygon fill="#63b8ff" stroke="#63b8ff" points="772.97,-196.8 780.74,-189.6 770.18,-190.38 772.97,-196.8"/>
</a>
</g>
</g>
<!-- Node21&#45;&gt;Node2 -->
<g id="edge30_Node000021_Node000002" class="edge">
<title>Node21&#45;&gt;Node2</title>
<g id="a_edge30_Node000021_Node000002"><a xlink:title=" ">
<path fill="none" stroke="#63b8ff" d="M912.71,-172.86C886.67,-170.29 855.85,-167.35 828,-165 629.01,-148.17 393.34,-132.17 280.98,-124.77"/>
<polygon fill="#63b8ff" stroke="#63b8ff" points="281.03,-121.27 270.82,-124.11 280.57,-128.25 281.03,-121.27"/>
</a>
</g>
</g>
<!-- Node21&#45;&gt;Node15 -->
<g id="edge31_Node000021_Node000015" class="edge">
<title>Node21&#45;&gt;Node15</title>
<g id="a_edge31_Node000021_Node000015"><a xlink:title=" ">
<path fill="none" stroke="#63b8ff" d="M1033.11,-169.47C1100.41,-158.8 1209.06,-141.58 1277.94,-130.66"/>
<polygon fill="#63b8ff" stroke="#63b8ff" points="1278.89,-134.05 1288.22,-129.03 1277.8,-127.13 1278.89,-134.05"/>
</a>
</g>
</g>
<!-- Node21&#45;&gt;Node16 -->
<g id="edge32_Node000021_Node000016" class="edge">
<title>Node21&#45;&gt;Node16</title>
<g id="a_edge32_Node000021_Node000016"><a xlink:title=" ">
<path fill="none" stroke="#63b8ff" d="M977.12,-164.84C979.38,-157.04 982.22,-147.27 984.66,-138.89"/>
<polygon fill="#63b8ff" stroke="#63b8ff" points="988.02,-139.85 987.45,-129.27 981.3,-137.89 988.02,-139.85"/>
</a>
</g>
</g>
<!-- Node21&#45;&gt;Node17 -->
<g id="edge33_Node000021_Node000017" class="edge">
<title>Node21&#45;&gt;Node17</title>
<g id="a_edge33_Node000021_Node000017"><a xlink:title=" ">
<path fill="none" stroke="#63b8ff" d="M1023.54,-164.99C1060.27,-154.8 1109.33,-141.2 1143.49,-131.73"/>
<polygon fill="#63b8ff" stroke="#63b8ff" points="1144.45,-135.1 1153.15,-129.05 1142.58,-128.35 1144.45,-135.1"/>
</a>
</g>
</g>
<!-- Node21&#45;&gt;Node19 -->
<g id="edge34_Node000021_Node000019" class="edge">
<title>Node21&#45;&gt;Node19</title>
<g id="a_edge34_Node000021_Node000019"><a xlink:title=" ">
<path fill="none" stroke="#63b8ff" d="M942.82,-164.99C922.17,-155.4 895,-142.79 874.87,-133.44"/>
<polygon fill="#63b8ff" stroke="#63b8ff" points="876.15,-130.18 865.61,-129.14 873.2,-136.52 876.15,-130.18"/>
</a>
</g>
</g>
<!-- Node26&#45;&gt;Node2 -->
<g id="edge42_Node000026_Node000002" class="edge">
<title>Node26&#45;&gt;Node2</title>
<g id="a_edge42_Node000026_Node000002"><a xlink:title=" ">
<path fill="none" stroke="#63b8ff" d="M371.41,-285.93C354.85,-264.58 309.73,-207.7 267,-165 256.62,-154.63 244.17,-143.92 234.04,-135.6"/>
<polygon fill="#63b8ff" stroke="#63b8ff" points="236.16,-132.81 226.19,-129.24 231.76,-138.25 236.16,-132.81"/>
</a>
</g>
</g>
<!-- Node26&#45;&gt;Node8 -->
<g id="edge44_Node000026_Node000008" class="edge">
<title>Node26&#45;&gt;Node8</title>
<g id="a_edge44_Node000026_Node000008"><a xlink:title=" ">
<path fill="none" stroke="#63b8ff" d="M380.32,-285.8C389.26,-252.22 421.67,-130.57 434.1,-83.9"/>
<polygon fill="#63b8ff" stroke="#63b8ff" points="437.49,-84.77 436.68,-74.21 430.72,-82.97 437.49,-84.77"/>
</a>
</g>
</g>
<!-- Node26&#45;&gt;Node20 -->
<g id="edge43_Node000026_Node000020" class="edge">
<title>Node26&#45;&gt;Node20</title>
<g id="a_edge43_Node000026_Node000020"><a xlink:title=" ">
<path fill="none" stroke="#63b8ff" d="M416.08,-285.98C456.99,-276.84 522.11,-262.27 566.62,-252.32"/>
<polygon fill="#63b8ff" stroke="#63b8ff" points="567.63,-255.68 576.62,-250.08 566.1,-248.85 567.63,-255.68"/>
</a>
</g>
</g>
<!-- Node29&#45;&gt;Node2 -->
<g id="edge50_Node000029_Node000002" class="edge">
<title>Node29&#45;&gt;Node2</title>
<g id="a_edge50_Node000029_Node000002"><a xlink:title=" ">
<path fill="none" stroke="#63b8ff" d="M378.71,-472.97C303.56,-449.89 177,-396.22 177,-296.5 177,-296.5 177,-296.5 177,-239.5 177,-202.07 194.27,-161.03 205.52,-138.25"/>
<polygon fill="#63b8ff" stroke="#63b8ff" points="208.74,-139.65 210.19,-129.15 202.51,-136.46 208.74,-139.65"/>
</a>
</g>
</g>
<!-- Node29&#45;&gt;Node8 -->
<g id="edge53_Node000029_Node000008" class="edge">
<title>Node29&#45;&gt;Node8</title>
<g id="a_edge53_Node000029_Node000008"><a xlink:title=" ">
<path fill="none" stroke="#63b8ff" d="M497.3,-486.64C609,-483.39 843.08,-464.86 1012,-371 1115.62,-313.42 1150.63,-194.02 1067,-110 1026.76,-69.57 634.48,-65.49 491.12,-65.36"/>
<polygon fill="#63b8ff" stroke="#63b8ff" points="490.83,-61.86 480.83,-65.35 490.83,-68.86 490.83,-61.86"/>
</a>
</g>
</g>
<!-- Node29&#45;&gt;Node14 -->
<g id="edge51_Node000029_Node000014" class="edge">
<title>Node29&#45;&gt;Node14</title>
<g id="a_edge51_Node000029_Node000014"><a xlink:title=" ">
<path fill="none" stroke="#63b8ff" d="M454.75,-472.8C468.33,-463.93 485.99,-452.39 500.9,-442.66"/>
<polygon fill="#63b8ff" stroke="#63b8ff" points="502.85,-445.56 509.31,-437.16 499.02,-439.7 502.85,-445.56"/>
</a>
</g>
</g>
<!-- Node29&#45;&gt;Node18 -->
<g id="edge52_Node000029_Node000018" class="edge">
<title>Node29&#45;&gt;Node18</title>
<g id="a_edge52_Node000029_Node000018"><a xlink:title=" ">
<path fill="none" stroke="#63b8ff" d="M435.03,-472.72C437.66,-456.4 443.01,-429.08 452,-407 455.81,-397.64 461.22,-387.97 466.39,-379.66"/>
<polygon fill="#63b8ff" stroke="#63b8ff" points="469.34,-381.55 471.83,-371.25 463.46,-377.75 469.34,-381.55"/>
</a>
</g>
</g>
</g>
</svg>
