<?xml version="1.0" encoding="UTF-8" standalone="no"?>
<!DOCTYPE svg PUBLIC "-//W3C//DTD SVG 1.1//EN"
 "http://www.w3.org/Graphics/SVG/1.1/DTD/svg11.dtd">
<!-- Generated by graphviz version 2.43.0 (0)
 -->
<!-- Title: include/trackingLib/math/linalg/matrix.hpp Pages: 1 -->
<svg width="940pt" height="324pt"
 viewBox="0.00 0.00 939.89 324.00" xmlns="http://www.w3.org/2000/svg" xmlns:xlink="http://www.w3.org/1999/xlink">
<g id="graph0" class="graph" transform="scale(1 1) rotate(0) translate(4 320)">
<title>include/trackingLib/math/linalg/matrix.hpp</title>
<!-- Node1 -->
<g id="Node000001" class="node">
<title>Node1</title>
<g id="a_Node000001"><a xlink:title=" ">
<polygon fill="#999999" stroke="#666666" points="719.39,-316 588.39,-316 588.39,-286 719.39,-286 719.39,-316"/>
<text text-anchor="start" x="596.39" y="-304" font-family="Helvetica,sans-Serif" font-size="10.00">include/trackingLib</text>
<text text-anchor="middle" x="653.89" y="-293" font-family="Helvetica,sans-Serif" font-size="10.00">/math/linalg/matrix.hpp</text>
</a>
</g>
</g>
<!-- Node2 -->
<g id="Node000002" class="node">
<title>Node2</title>
<g id="a_Node000002"><a xlink:href="matrix_8h.html" target="_top" xlink:title=" ">
<polygon fill="white" stroke="#666666" points="536.89,-250 420.89,-250 420.89,-231 536.89,-231 536.89,-250"/>
<text text-anchor="middle" x="478.89" y="-238" font-family="Helvetica,sans-Serif" font-size="10.00">math/linalg/matrix.h</text>
</a>
</g>
</g>
<!-- Node1&#45;&gt;Node2 -->
<g id="edge1_Node000001_Node000002" class="edge">
<title>Node1&#45;&gt;Node2</title>
<g id="a_edge1_Node000001_Node000002"><a xlink:title=" ">
<path fill="none" stroke="#63b8ff" d="M611.98,-285.99C582.17,-276.02 542.57,-262.78 514.33,-253.35"/>
<polygon fill="#63b8ff" stroke="#63b8ff" points="515.07,-249.9 504.48,-250.05 512.86,-256.54 515.07,-249.9"/>
</a>
</g>
</g>
<!-- Node12 -->
<g id="Node000012" class="node">
<title>Node12</title>
<g id="a_Node000012"><a xlink:title=" ">
<polygon fill="#e0e0e0" stroke="#999999" points="341.39,-74 272.39,-74 272.39,-55 341.39,-55 341.39,-74"/>
<text text-anchor="middle" x="306.89" y="-62" font-family="Helvetica,sans-Serif" font-size="10.00">type_traits</text>
</a>
</g>
</g>
<!-- Node1&#45;&gt;Node12 -->
<g id="edge30_Node000001_Node000012" class="edge">
<title>Node1&#45;&gt;Node12</title>
<g id="a_edge30_Node000001_Node000012"><a xlink:title=" ">
<path fill="none" stroke="#63b8ff" d="M588.34,-293.72C436.19,-277.54 67.22,-228.57 3.89,-129 -0.64,-121.87 -1.63,-116.39 3.89,-110 36.72,-72.01 186.03,-65.85 262.08,-65.24"/>
<polygon fill="#63b8ff" stroke="#63b8ff" points="262.33,-68.74 272.31,-65.18 262.29,-61.74 262.33,-68.74"/>
</a>
</g>
</g>
<!-- Node17 -->
<g id="Node000017" class="node">
<title>Node17</title>
<g id="a_Node000017"><a xlink:title=" ">
<polygon fill="#e0e0e0" stroke="#999999" points="846.89,-189.5 782.89,-189.5 782.89,-170.5 846.89,-170.5 846.89,-189.5"/>
<text text-anchor="middle" x="814.89" y="-177.5" font-family="Helvetica,sans-Serif" font-size="10.00">algorithm</text>
</a>
</g>
</g>
<!-- Node1&#45;&gt;Node17 -->
<g id="edge24_Node000001_Node000017" class="edge">
<title>Node1&#45;&gt;Node17</title>
<g id="a_edge24_Node000001_Node000017"><a xlink:title=" ">
<path fill="none" stroke="#63b8ff" d="M622.84,-285.98C597.39,-272.56 568.1,-251.4 584.89,-231 637.86,-166.67 688.04,-215.16 768.89,-195 772.05,-194.21 775.32,-193.34 778.58,-192.43"/>
<polygon fill="#63b8ff" stroke="#63b8ff" points="779.64,-195.76 788.27,-189.61 777.69,-189.04 779.64,-195.76"/>
</a>
</g>
</g>
<!-- Node20 -->
<g id="Node000020" class="node">
<title>Node20</title>
<g id="a_Node000020"><a xlink:title=" ">
<polygon fill="#e0e0e0" stroke="#999999" points="640.39,-250 593.39,-250 593.39,-231 640.39,-231 640.39,-250"/>
<text text-anchor="middle" x="616.89" y="-238" font-family="Helvetica,sans-Serif" font-size="10.00">cmath</text>
</a>
</g>
</g>
<!-- Node1&#45;&gt;Node20 -->
<g id="edge25_Node000001_Node000020" class="edge">
<title>Node1&#45;&gt;Node20</title>
<g id="a_edge25_Node000001_Node000020"><a xlink:title=" ">
<path fill="none" stroke="#63b8ff" d="M644.94,-285.84C639.78,-277.69 633.27,-267.4 627.82,-258.78"/>
<polygon fill="#63b8ff" stroke="#63b8ff" points="630.74,-256.85 622.44,-250.27 624.82,-260.59 630.74,-256.85"/>
</a>
</g>
</g>
<!-- Node21 -->
<g id="Node000021" class="node">
<title>Node21</title>
<g id="a_Node000021"><a xlink:title=" ">
<polygon fill="#e0e0e0" stroke="#999999" points="723.39,-250 658.39,-250 658.39,-231 723.39,-231 723.39,-250"/>
<text text-anchor="middle" x="690.89" y="-238" font-family="Helvetica,sans-Serif" font-size="10.00">functional</text>
</a>
</g>
</g>
<!-- Node1&#45;&gt;Node21 -->
<g id="edge26_Node000001_Node000021" class="edge">
<title>Node1&#45;&gt;Node21</title>
<g id="a_edge26_Node000001_Node000021"><a xlink:title=" ">
<path fill="none" stroke="#63b8ff" d="M662.85,-285.84C668,-277.69 674.51,-267.4 679.96,-258.78"/>
<polygon fill="#63b8ff" stroke="#63b8ff" points="682.96,-260.59 685.35,-250.27 677.05,-256.85 682.96,-260.59"/>
</a>
</g>
</g>
<!-- Node22 -->
<g id="Node000022" class="node">
<title>Node22</title>
<g id="a_Node000022"><a xlink:title=" ">
<polygon fill="#e0e0e0" stroke="#999999" points="785.89,-250 741.89,-250 741.89,-231 785.89,-231 785.89,-250"/>
<text text-anchor="middle" x="763.89" y="-238" font-family="Helvetica,sans-Serif" font-size="10.00">limits</text>
</a>
</g>
</g>
<!-- Node1&#45;&gt;Node22 -->
<g id="edge27_Node000001_Node000022" class="edge">
<title>Node1&#45;&gt;Node22</title>
<g id="a_edge27_Node000001_Node000022"><a xlink:title=" ">
<path fill="none" stroke="#63b8ff" d="M680.24,-285.99C697.94,-276.58 721.13,-264.24 738.6,-254.95"/>
<polygon fill="#63b8ff" stroke="#63b8ff" points="740.46,-257.92 747.65,-250.14 737.18,-251.74 740.46,-257.92"/>
</a>
</g>
</g>
<!-- Node23 -->
<g id="Node000023" class="node">
<title>Node23</title>
<g id="a_Node000023"><a xlink:title=" ">
<polygon fill="#e0e0e0" stroke="#999999" points="869.39,-250 804.39,-250 804.39,-231 869.39,-231 869.39,-250"/>
<text text-anchor="middle" x="836.89" y="-238" font-family="Helvetica,sans-Serif" font-size="10.00">stdexcept</text>
</a>
</g>
</g>
<!-- Node1&#45;&gt;Node23 -->
<g id="edge28_Node000001_Node000023" class="edge">
<title>Node1&#45;&gt;Node23</title>
<g id="a_edge28_Node000001_Node000023"><a xlink:title=" ">
<path fill="none" stroke="#63b8ff" d="M697.73,-285.99C729.03,-275.98 770.67,-262.67 800.22,-253.22"/>
<polygon fill="#63b8ff" stroke="#63b8ff" points="801.68,-256.43 810.14,-250.05 799.54,-249.76 801.68,-256.43"/>
</a>
</g>
</g>
<!-- Node24 -->
<g id="Node000024" class="node">
<title>Node24</title>
<g id="a_Node000024"><a xlink:title=" ">
<polygon fill="#e0e0e0" stroke="#999999" points="931.89,-250 887.89,-250 887.89,-231 931.89,-231 931.89,-250"/>
<text text-anchor="middle" x="909.89" y="-238" font-family="Helvetica,sans-Serif" font-size="10.00">string</text>
</a>
</g>
</g>
<!-- Node1&#45;&gt;Node24 -->
<g id="edge29_Node000001_Node000024" class="edge">
<title>Node1&#45;&gt;Node24</title>
<g id="a_edge29_Node000001_Node000024"><a xlink:title=" ">
<path fill="none" stroke="#63b8ff" d="M719.56,-286.29C762.17,-277.19 819.11,-264.65 877.77,-250.19"/>
<polygon fill="#63b8ff" stroke="#63b8ff" points="878.71,-253.56 887.58,-247.76 877.03,-246.77 878.71,-253.56"/>
</a>
</g>
</g>
<!-- Node3 -->
<g id="Node000003" class="node">
<title>Node3</title>
<g id="a_Node000003"><a xlink:href="first__include_8h.html" target="_top" xlink:title=" ">
<polygon fill="white" stroke="#666666" points="726.39,-129 615.39,-129 615.39,-110 726.39,-110 726.39,-129"/>
<text text-anchor="middle" x="670.89" y="-117" font-family="Helvetica,sans-Serif" font-size="10.00">base/first_include.h</text>
</a>
</g>
</g>
<!-- Node2&#45;&gt;Node3 -->
<g id="edge2_Node000002_Node000003" class="edge">
<title>Node2&#45;&gt;Node3</title>
<g id="a_edge2_Node000002_Node000003"><a xlink:title=" ">
<path fill="none" stroke="#63b8ff" d="M513.31,-230.97C538.13,-223.82 571.73,-212.02 597.89,-195 622.23,-179.17 644.71,-153.95 658.12,-137.31"/>
<polygon fill="#63b8ff" stroke="#63b8ff" points="661.17,-139.09 664.59,-129.06 655.66,-134.77 661.17,-139.09"/>
</a>
</g>
</g>
<!-- Node9 -->
<g id="Node000009" class="node">
<title>Node9</title>
<g id="a_Node000009"><a xlink:title=" ">
<polygon fill="#e0e0e0" stroke="#999999" points="870.39,-74 787.39,-74 787.39,-55 870.39,-55 870.39,-74"/>
<text text-anchor="middle" x="828.89" y="-62" font-family="Helvetica,sans-Serif" font-size="10.00">initializer_list</text>
</a>
</g>
</g>
<!-- Node2&#45;&gt;Node9 -->
<g id="edge22_Node000002_Node000009" class="edge">
<title>Node2&#45;&gt;Node9</title>
<g id="a_edge22_Node000002_Node000009"><a xlink:title=" ">
<path fill="none" stroke="#63b8ff" d="M517.81,-230.96C548.69,-223.47 592.57,-211.25 628.89,-195 679.9,-172.19 689.03,-159.43 735.89,-129 761.12,-112.62 789.61,-93 808.33,-79.94"/>
<polygon fill="#63b8ff" stroke="#63b8ff" points="810.49,-82.7 816.68,-74.11 806.48,-76.97 810.49,-82.7"/>
</a>
</g>
</g>
<!-- Node10 -->
<g id="Node000010" class="node">
<title>Node10</title>
<g id="a_Node000010"><a xlink:href="matrix__intf_8h.html" target="_top" xlink:title=" ">
<polygon fill="white" stroke="#666666" points="588.89,-195 468.89,-195 468.89,-165 588.89,-165 588.89,-195"/>
<text text-anchor="start" x="476.89" y="-183" font-family="Helvetica,sans-Serif" font-size="10.00">math/linalg/contracts</text>
<text text-anchor="middle" x="528.89" y="-172" font-family="Helvetica,sans-Serif" font-size="10.00">/matrix_intf.h</text>
</a>
</g>
</g>
<!-- Node2&#45;&gt;Node10 -->
<g id="edge9_Node000002_Node000010" class="edge">
<title>Node2&#45;&gt;Node10</title>
<g id="a_edge9_Node000002_Node000010"><a xlink:title=" ">
<path fill="none" stroke="#63b8ff" d="M486.27,-230.87C492.55,-223.52 501.85,-212.63 510.17,-202.91"/>
<polygon fill="#63b8ff" stroke="#63b8ff" points="512.99,-204.99 516.83,-195.11 507.67,-200.44 512.99,-204.99"/>
</a>
</g>
</g>
<!-- Node15 -->
<g id="Node000015" class="node">
<title>Node15</title>
<g id="a_Node000015"><a xlink:href="errors_8h.html" target="_top" xlink:title="Error types used throughout the math library.">
<polygon fill="white" stroke="#666666" points="126.39,-129 13.39,-129 13.39,-110 126.39,-110 126.39,-129"/>
<text text-anchor="middle" x="69.89" y="-117" font-family="Helvetica,sans-Serif" font-size="10.00">math/linalg/errors.h</text>
</a>
</g>
</g>
<!-- Node2&#45;&gt;Node15 -->
<g id="edge18_Node000002_Node000015" class="edge">
<title>Node2&#45;&gt;Node15</title>
<g id="a_edge18_Node000002_Node000015"><a xlink:title=" ">
<path fill="none" stroke="#63b8ff" d="M420.78,-234.97C366.23,-229.51 282.93,-218.02 213.89,-195 168.27,-179.78 119.4,-151.69 91.95,-134.69"/>
<polygon fill="#63b8ff" stroke="#63b8ff" points="93.5,-131.53 83.17,-129.18 89.77,-137.46 93.5,-131.53"/>
</a>
</g>
</g>
<!-- Node16 -->
<g id="Node000016" class="node">
<title>Node16</title>
<g id="a_Node000016"><a xlink:href="matrix__types_8h.html" target="_top" xlink:title="Type definitions and enumerations for matrix operations.">
<polygon fill="white" stroke="#666666" points="330.39,-195 223.39,-195 223.39,-165 330.39,-165 330.39,-195"/>
<text text-anchor="start" x="231.39" y="-183" font-family="Helvetica,sans-Serif" font-size="10.00">math/linalg/matrix</text>
<text text-anchor="middle" x="276.89" y="-172" font-family="Helvetica,sans-Serif" font-size="10.00">_types.h</text>
</a>
</g>
</g>
<!-- Node2&#45;&gt;Node16 -->
<g id="edge19_Node000002_Node000016" class="edge">
<title>Node2&#45;&gt;Node16</title>
<g id="a_edge19_Node000002_Node000016"><a xlink:title=" ">
<path fill="none" stroke="#63b8ff" d="M449.52,-230.99C419.69,-222.35 372.68,-208.74 335.24,-197.9"/>
<polygon fill="#63b8ff" stroke="#63b8ff" points="336.04,-194.48 325.46,-195.06 334.09,-201.21 336.04,-194.48"/>
</a>
</g>
</g>
<!-- Node2&#45;&gt;Node17 -->
<g id="edge20_Node000002_Node000017" class="edge">
<title>Node2&#45;&gt;Node17</title>
<g id="a_edge20_Node000002_Node000017"><a xlink:title=" ">
<path fill="none" stroke="#63b8ff" d="M537.03,-231.58C608.6,-221.66 725.93,-204.78 768.89,-195 772.33,-194.22 775.89,-193.31 779.44,-192.34"/>
<polygon fill="#63b8ff" stroke="#63b8ff" points="780.64,-195.64 789.28,-189.51 778.7,-188.91 780.64,-195.64"/>
</a>
</g>
</g>
<!-- Node18 -->
<g id="Node000018" class="node">
<title>Node18</title>
<g id="a_Node000018"><a xlink:title=" ">
<polygon fill="#e0e0e0" stroke="#999999" points="390.89,-189.5 348.89,-189.5 348.89,-170.5 390.89,-170.5 390.89,-189.5"/>
<text text-anchor="middle" x="369.89" y="-177.5" font-family="Helvetica,sans-Serif" font-size="10.00">array</text>
</a>
</g>
</g>
<!-- Node2&#45;&gt;Node18 -->
<g id="edge21_Node000002_Node000018" class="edge">
<title>Node2&#45;&gt;Node18</title>
<g id="a_edge21_Node000002_Node000018"><a xlink:title=" ">
<path fill="none" stroke="#63b8ff" d="M462.81,-230.87C444.94,-221.28 415.85,-205.67 394.98,-194.47"/>
<polygon fill="#63b8ff" stroke="#63b8ff" points="396.51,-191.31 386.04,-189.67 393.2,-197.48 396.51,-191.31"/>
</a>
</g>
</g>
<!-- Node19 -->
<g id="Node000019" class="node">
<title>Node19</title>
<g id="a_Node000019"><a xlink:title=" ">
<polygon fill="#e0e0e0" stroke="#999999" points="450.39,-189.5 409.39,-189.5 409.39,-170.5 450.39,-170.5 450.39,-189.5"/>
<text text-anchor="middle" x="429.89" y="-177.5" font-family="Helvetica,sans-Serif" font-size="10.00">tuple</text>
</a>
</g>
</g>
<!-- Node2&#45;&gt;Node19 -->
<g id="edge23_Node000002_Node000019" class="edge">
<title>Node2&#45;&gt;Node19</title>
<g id="a_edge23_Node000002_Node000019"><a xlink:title=" ">
<path fill="none" stroke="#63b8ff" d="M471.66,-230.87C464.35,-222.14 452.87,-208.43 443.79,-197.59"/>
<polygon fill="#63b8ff" stroke="#63b8ff" points="446.26,-195.09 437.15,-189.67 440.89,-199.58 446.26,-195.09"/>
</a>
</g>
</g>
<!-- Node4 -->
<g id="Node000004" class="node">
<title>Node4</title>
<g id="a_Node000004"><a xlink:href="test__config_8h.html" target="_top" xlink:title=" ">
<polygon fill="white" stroke="#666666" points="658.39,-74 579.39,-74 579.39,-55 658.39,-55 658.39,-74"/>
<text text-anchor="middle" x="618.89" y="-62" font-family="Helvetica,sans-Serif" font-size="10.00">test_config.h</text>
</a>
</g>
</g>
<!-- Node3&#45;&gt;Node4 -->
<g id="edge3_Node000003_Node000004" class="edge">
<title>Node3&#45;&gt;Node4</title>
<g id="a_edge3_Node000003_Node000004"><a xlink:title=" ">
<path fill="none" stroke="#63b8ff" d="M662.31,-109.75C654.73,-102.03 643.51,-90.6 634.38,-81.28"/>
<polygon fill="#63b8ff" stroke="#63b8ff" points="636.82,-78.78 627.32,-74.09 631.83,-83.68 636.82,-78.78"/>
</a>
</g>
</g>
<!-- Node5 -->
<g id="Node000005" class="node">
<title>Node5</title>
<g id="a_Node000005"><a xlink:href="atomic__types_8h.html" target="_top" xlink:title=" ">
<polygon fill="white" stroke="#666666" points="768.89,-74 676.89,-74 676.89,-55 768.89,-55 768.89,-74"/>
<text text-anchor="middle" x="722.89" y="-62" font-family="Helvetica,sans-Serif" font-size="10.00">atomic_types.h</text>
</a>
</g>
</g>
<!-- Node3&#45;&gt;Node5 -->
<g id="edge4_Node000003_Node000005" class="edge">
<title>Node3&#45;&gt;Node5</title>
<g id="a_edge4_Node000003_Node000005"><a xlink:title=" ">
<path fill="none" stroke="#63b8ff" d="M679.48,-109.75C687.05,-102.03 698.27,-90.6 707.41,-81.28"/>
<polygon fill="#63b8ff" stroke="#63b8ff" points="709.96,-83.68 714.47,-74.09 704.96,-78.78 709.96,-83.68"/>
</a>
</g>
</g>
<!-- Node7 -->
<g id="Node000007" class="node">
<title>Node7</title>
<g id="a_Node000007"><a xlink:title=" ">
<polygon fill="#e0e0e0" stroke="#999999" points="490.89,-74 398.89,-74 398.89,-55 490.89,-55 490.89,-74"/>
<text text-anchor="middle" x="444.89" y="-62" font-family="Helvetica,sans-Serif" font-size="10.00">tl/expected.hpp</text>
</a>
</g>
</g>
<!-- Node3&#45;&gt;Node7 -->
<g id="edge6_Node000003_Node000007" class="edge">
<title>Node3&#45;&gt;Node7</title>
<g id="a_edge6_Node000003_Node000007"><a xlink:title=" ">
<path fill="none" stroke="#63b8ff" d="M634.58,-109.98C595.65,-100.86 533.73,-86.33 491.3,-76.38"/>
<polygon fill="#63b8ff" stroke="#63b8ff" points="492.02,-72.96 481.49,-74.08 490.43,-79.77 492.02,-72.96"/>
</a>
</g>
</g>
<!-- Node8 -->
<g id="Node000008" class="node">
<title>Node8</title>
<g id="a_Node000008"><a xlink:title=" ">
<polygon fill="#e0e0e0" stroke="#999999" points="560.89,-74 508.89,-74 508.89,-55 560.89,-55 560.89,-74"/>
<text text-anchor="middle" x="534.89" y="-62" font-family="Helvetica,sans-Serif" font-size="10.00">cassert</text>
</a>
</g>
</g>
<!-- Node3&#45;&gt;Node8 -->
<g id="edge7_Node000003_Node000008" class="edge">
<title>Node3&#45;&gt;Node8</title>
<g id="a_edge7_Node000003_Node000008"><a xlink:title=" ">
<path fill="none" stroke="#63b8ff" d="M649.04,-109.98C626.77,-101.3 591.99,-87.75 566.67,-77.88"/>
<polygon fill="#63b8ff" stroke="#63b8ff" points="567.73,-74.54 557.14,-74.17 565.19,-81.06 567.73,-74.54"/>
</a>
</g>
</g>
<!-- Node3&#45;&gt;Node9 -->
<g id="edge8_Node000003_Node000009" class="edge">
<title>Node3&#45;&gt;Node9</title>
<g id="a_edge8_Node000003_Node000009"><a xlink:title=" ">
<path fill="none" stroke="#63b8ff" d="M696.28,-109.98C722.69,-101.13 764.24,-87.19 793.79,-77.28"/>
<polygon fill="#63b8ff" stroke="#63b8ff" points="794.94,-80.58 803.31,-74.08 792.71,-73.94 794.94,-80.58"/>
</a>
</g>
</g>
<!-- Node6 -->
<g id="Node000006" class="node">
<title>Node6</title>
<g id="a_Node000006"><a xlink:title=" ">
<polygon fill="#e0e0e0" stroke="#999999" points="747.89,-19 697.89,-19 697.89,0 747.89,0 747.89,-19"/>
<text text-anchor="middle" x="722.89" y="-7" font-family="Helvetica,sans-Serif" font-size="10.00">cstdint</text>
</a>
</g>
</g>
<!-- Node5&#45;&gt;Node6 -->
<g id="edge5_Node000005_Node000006" class="edge">
<title>Node5&#45;&gt;Node6</title>
<g id="a_edge5_Node000005_Node000006"><a xlink:title=" ">
<path fill="none" stroke="#63b8ff" d="M722.89,-54.75C722.89,-47.8 722.89,-37.85 722.89,-29.13"/>
<polygon fill="#63b8ff" stroke="#63b8ff" points="726.39,-29.09 722.89,-19.09 719.39,-29.09 726.39,-29.09"/>
</a>
</g>
</g>
<!-- Node10&#45;&gt;Node3 -->
<g id="edge10_Node000010_Node000003" class="edge">
<title>Node10&#45;&gt;Node3</title>
<g id="a_edge10_Node000010_Node000003"><a xlink:title=" ">
<path fill="none" stroke="#63b8ff" d="M562.91,-164.99C586.49,-155.27 617.63,-142.44 640.41,-133.06"/>
<polygon fill="#63b8ff" stroke="#63b8ff" points="642.01,-136.18 649.92,-129.14 639.34,-129.71 642.01,-136.18"/>
</a>
</g>
</g>
<!-- Node11 -->
<g id="Node000011" class="node">
<title>Node11</title>
<g id="a_Node000011"><a xlink:href="interface__contract_8h.html" target="_top" xlink:title=" ">
<polygon fill="white" stroke="#666666" points="442.89,-129 302.89,-129 302.89,-110 442.89,-110 442.89,-129"/>
<text text-anchor="middle" x="372.89" y="-117" font-family="Helvetica,sans-Serif" font-size="10.00">base/interface_contract.h</text>
</a>
</g>
</g>
<!-- Node10&#45;&gt;Node11 -->
<g id="edge11_Node000010_Node000011" class="edge">
<title>Node10&#45;&gt;Node11</title>
<g id="a_edge11_Node000010_Node000011"><a xlink:title=" ">
<path fill="none" stroke="#63b8ff" d="M491.53,-164.99C465.27,-155.14 430.48,-142.1 405.38,-132.68"/>
<polygon fill="#63b8ff" stroke="#63b8ff" points="406.52,-129.37 395.93,-129.14 404.07,-135.93 406.52,-129.37"/>
</a>
</g>
</g>
<!-- Node13 -->
<g id="Node000013" class="node">
<title>Node13</title>
<g id="a_Node000013"><a xlink:href="require__copy__intf_8h.html" target="_top" xlink:title=" ">
<polygon fill="white" stroke="#666666" points="596.89,-129 460.89,-129 460.89,-110 596.89,-110 596.89,-129"/>
<text text-anchor="middle" x="528.89" y="-117" font-family="Helvetica,sans-Serif" font-size="10.00">base/require_copy_intf.h</text>
</a>
</g>
</g>
<!-- Node10&#45;&gt;Node13 -->
<g id="edge13_Node000010_Node000013" class="edge">
<title>Node10&#45;&gt;Node13</title>
<g id="a_edge13_Node000010_Node000013"><a xlink:title=" ">
<path fill="none" stroke="#63b8ff" d="M528.89,-164.84C528.89,-157.21 528.89,-147.7 528.89,-139.45"/>
<polygon fill="#63b8ff" stroke="#63b8ff" points="532.39,-139.27 528.89,-129.27 525.39,-139.27 532.39,-139.27"/>
</a>
</g>
</g>
<!-- Node14 -->
<g id="Node000014" class="node">
<title>Node14</title>
<g id="a_Node000014"><a xlink:href="require__move__intf_8h.html" target="_top" xlink:title=" ">
<polygon fill="white" stroke="#666666" points="284.89,-129 144.89,-129 144.89,-110 284.89,-110 284.89,-129"/>
<text text-anchor="middle" x="214.89" y="-117" font-family="Helvetica,sans-Serif" font-size="10.00">base/require_move_intf.h</text>
</a>
</g>
</g>
<!-- Node10&#45;&gt;Node14 -->
<g id="edge15_Node000010_Node000014" class="edge">
<title>Node10&#45;&gt;Node14</title>
<g id="a_edge15_Node000010_Node000014"><a xlink:title=" ">
<path fill="none" stroke="#63b8ff" d="M468.7,-166.71C465.72,-166.13 462.77,-165.55 459.89,-165 396.35,-152.78 323.35,-139.64 273.68,-130.83"/>
<polygon fill="#63b8ff" stroke="#63b8ff" points="274.21,-127.37 263.76,-129.07 272.99,-134.26 274.21,-127.37"/>
</a>
</g>
</g>
<!-- Node10&#45;&gt;Node15 -->
<g id="edge17_Node000010_Node000015" class="edge">
<title>Node10&#45;&gt;Node15</title>
<g id="a_edge17_Node000010_Node000015"><a xlink:title=" ">
<path fill="none" stroke="#63b8ff" d="M468.74,-166.46C465.75,-165.95 462.79,-165.45 459.89,-165 319.97,-143.08 281.46,-146.1 136.57,-129.05"/>
<polygon fill="#63b8ff" stroke="#63b8ff" points="136.75,-125.55 126.41,-127.84 135.93,-132.5 136.75,-125.55"/>
</a>
</g>
</g>
<!-- Node11&#45;&gt;Node12 -->
<g id="edge12_Node000011_Node000012" class="edge">
<title>Node11&#45;&gt;Node12</title>
<g id="a_edge12_Node000011_Node000012"><a xlink:title=" ">
<path fill="none" stroke="#63b8ff" d="M362.29,-109.98C352.44,-102.07 337.54,-90.11 325.68,-80.58"/>
<polygon fill="#63b8ff" stroke="#63b8ff" points="327.68,-77.7 317.69,-74.17 323.3,-83.16 327.68,-77.7"/>
</a>
</g>
</g>
<!-- Node13&#45;&gt;Node12 -->
<g id="edge14_Node000013_Node000012" class="edge">
<title>Node13&#45;&gt;Node12</title>
<g id="a_edge14_Node000013_Node000012"><a xlink:title=" ">
<path fill="none" stroke="#63b8ff" d="M493.23,-109.98C454.73,-100.79 393.34,-86.14 351.63,-76.18"/>
<polygon fill="#63b8ff" stroke="#63b8ff" points="352.28,-72.74 341.74,-73.82 350.65,-79.55 352.28,-72.74"/>
</a>
</g>
</g>
<!-- Node14&#45;&gt;Node12 -->
<g id="edge16_Node000014_Node000012" class="edge">
<title>Node14&#45;&gt;Node12</title>
<g id="a_edge16_Node000014_Node000012"><a xlink:title=" ">
<path fill="none" stroke="#63b8ff" d="M229.67,-109.98C244.07,-101.69 266.2,-88.94 283.09,-79.22"/>
<polygon fill="#63b8ff" stroke="#63b8ff" points="284.92,-82.19 291.84,-74.17 281.43,-76.13 284.92,-82.19"/>
</a>
</g>
</g>
</g>
</svg>
