<?xml version="1.0" encoding="UTF-8" standalone="no"?>
<!DOCTYPE svg PUBLIC "-//W3C//DTD SVG 1.1//EN"
 "http://www.w3.org/Graphics/SVG/1.1/DTD/svg11.dtd">
<!-- Generated by graphviz version 2.43.0 (0)
 -->
<!-- Title: include/trackingLib/math/linalg/matrix_io.h Pages: 1 -->
<!--zoomable 511 -->

<svg id="main" version="1.1" xmlns="http://www.w3.org/2000/svg" xmlns:xlink="http://www.w3.org/1999/xlink" xml:space="preserve" onload="init(evt)">
<style type="text/css"><![CDATA[
.node, .edge {opacity: 0.7;}
.node.selected, .edge.selected {opacity: 1;}
.edge:hover path { stroke: red; }
.edge:hover polygon { stroke: red; fill: red; }
]]></style>

<defs>
  <circle id="rim" cx="0" cy="0" r="7"/>
  <circle id="rim2" cx="0" cy="0" r="3.5"/>
  <g id="zoomPlus">
    <use xlink:href="#rim" fill="#404040"><set attributeName="fill" to="#808080" begin="zoomplus.mouseover" end="zoomplus.mouseout"/></use>
    <path d="M-4,0h8M0,-4v8" fill="none" stroke="white" stroke-width="1.5" pointer-events="none"/>
  </g>
  <g id="zoomMin">
    <use xlink:href="#rim" fill="#404040"><set attributeName="fill" to="#808080" begin="zoomminus.mouseover" end="zoomminus.mouseout"/></use>
    <path d="M-4,0h8" fill="none" stroke="white" stroke-width="1.5" pointer-events="none"/>
  </g>
  <g id="arrowUp" transform="translate(30 24)">
    <use xlink:href="#rim"/>
    <path pointer-events="none" fill="none" stroke="white" stroke-width="1.5" d="M0,-3.0v7 M-2.5,-0.5L0,-3.0L2.5,-0.5"/>
  </g>
  <g id="arrowRight" transform="rotate(90) translate(36 -43)">
    <use xlink:href="#rim"/>
    <path pointer-events="none" fill="none" stroke="white" stroke-width="1.5" d="M0,-3.0v7 M-2.5,-0.5L0,-3.0L2.5,-0.5"/>
  </g>
  <g id="arrowDown" transform="rotate(180) translate(-30 -48)">
    <use xlink:href="#rim"/>
    <path pointer-events="none" fill="none" stroke="white" stroke-width="1.5" d="M0,-3.0v7 M-2.5,-0.5L0,-3.0L2.5,-0.5"/>
  </g>
  <g id="arrowLeft" transform="rotate(270) translate(-36 17)">
    <use xlink:href="#rim"/>
    <path pointer-events="none" fill="none" stroke="white" stroke-width="1.5" d="M0,-3.0v7 M-2.5,-0.5L0,-3.0L2.5,-0.5"/>
  </g>
  <g id="resetDef">
    <use xlink:href="#rim2" fill="#404040"><set attributeName="fill" to="#808080" begin="reset.mouseover" end="reset.mouseout"/></use>
  </g>
</defs>
<script type="application/ecmascript">
var viewWidth = 1283;
var viewHeight = 511;
var sectionId = 'dynsection-0';
</script>
<script type="application/ecmascript" xlink:href="svg.min.js"/>
<svg id="graph" class="graph">
<g id="viewport">
<title>include/trackingLib/math/linalg/matrix_io.h</title>
<!-- Node1 -->
<g id="Node000001" class="node">
<title>Node1</title>
<g id="a_Node000001"><a xlink:title="Stream output operators for all matrix types in the trackingLib math library.">
<polygon fill="#999999" stroke="#666666" points="1182.5,-503 1048.5,-503 1048.5,-473 1182.5,-473 1182.5,-503"/>
<text text-anchor="start" x="1056.5" y="-491" font-family="Helvetica,sans-Serif" font-size="10.00">include/trackingLib</text>
<text text-anchor="middle" x="1115.5" y="-480" font-family="Helvetica,sans-Serif" font-size="10.00">/math/linalg/matrix_io.h</text>
</a>
</g>
</g>
<!-- Node2 -->
<g id="Node000002" class="node">
<title>Node2</title>
<g id="a_Node000002"><a xlink:href="first__include_8h.html" target="_top" xlink:title=" ">
<polygon fill="white" stroke="#666666" points="309,-129 198,-129 198,-110 309,-110 309,-129"/>
<text text-anchor="middle" x="253.5" y="-117" font-family="Helvetica,sans-Serif" font-size="10.00">base/first_include.h</text>
</a>
</g>
</g>
<!-- Node1&#45;&gt;Node2 -->
<g id="edge1_Node000001_Node000002" class="edge">
<title>Node1&#45;&gt;Node2</title>
<g id="a_edge1_Node000001_Node000002"><a xlink:title=" ">
<path fill="none" stroke="#63b8ff" d="M1048.24,-484.68C834.62,-476.42 185.5,-444.17 185.5,-357 185.5,-357 185.5,-357 185.5,-239.5 185.5,-197.93 217.16,-157.69 237.28,-136.31"/>
<polygon fill="#63b8ff" stroke="#63b8ff" points="239.85,-138.68 244.33,-129.08 234.84,-133.79 239.85,-138.68"/>
</a>
</g>
</g>
<!-- Node9 -->
<g id="Node000009" class="node">
<title>Node9</title>
<g id="a_Node000009"><a xlink:href="triangular__matrix_8h.html" target="_top" xlink:title=" ">
<polygon fill="white" stroke="#666666" points="1032.5,-437 910.5,-437 910.5,-407 1032.5,-407 1032.5,-437"/>
<text text-anchor="start" x="918.5" y="-425" font-family="Helvetica,sans-Serif" font-size="10.00">math/linalg/triangular</text>
<text text-anchor="middle" x="971.5" y="-414" font-family="Helvetica,sans-Serif" font-size="10.00">_matrix.h</text>
</a>
</g>
</g>
<!-- Node1&#45;&gt;Node9 -->
<g id="edge8_Node000001_Node000009" class="edge">
<title>Node1&#45;&gt;Node9</title>
<g id="a_edge8_Node000001_Node000009"><a xlink:title=" ">
<path fill="none" stroke="#63b8ff" d="M1083.9,-472.95C1062.89,-463.62 1035.1,-451.27 1012.41,-441.18"/>
<polygon fill="#63b8ff" stroke="#63b8ff" points="1013.59,-437.88 1003.03,-437.01 1010.74,-444.27 1013.59,-437.88"/>
</a>
</g>
</g>
<!-- Node15 -->
<g id="Node000015" class="node">
<title>Node15</title>
<g id="a_Node000015"><a xlink:title=" ">
<polygon fill="#e0e0e0" stroke="#999999" points="766,-74 697,-74 697,-55 766,-55 766,-74"/>
<text text-anchor="middle" x="731.5" y="-62" font-family="Helvetica,sans-Serif" font-size="10.00">type_traits</text>
</a>
</g>
</g>
<!-- Node1&#45;&gt;Node15 -->
<g id="edge39_Node000001_Node000015" class="edge">
<title>Node1&#45;&gt;Node15</title>
<g id="a_edge39_Node000001_Node000015"><a xlink:title=" ">
<path fill="none" stroke="#63b8ff" d="M1115.5,-472.96C1115.5,-449.12 1115.5,-399.2 1115.5,-357 1115.5,-357 1115.5,-357 1115.5,-179 1115.5,-141.13 1098.02,-129.41 1065.5,-110 1017.61,-81.42 855.75,-70.72 776.27,-67.13"/>
<polygon fill="#63b8ff" stroke="#63b8ff" points="776.23,-63.62 766.09,-66.69 775.92,-70.62 776.23,-63.62"/>
</a>
</g>
</g>
<!-- Node24 -->
<g id="Node000024" class="node">
<title>Node24</title>
<g id="a_Node000024"><a xlink:title=" ">
<polygon fill="#e0e0e0" stroke="#999999" points="1199.5,-431.5 1143.5,-431.5 1143.5,-412.5 1199.5,-412.5 1199.5,-431.5"/>
<text text-anchor="middle" x="1171.5" y="-419.5" font-family="Helvetica,sans-Serif" font-size="10.00">iomanip</text>
</a>
</g>
</g>
<!-- Node1&#45;&gt;Node24 -->
<g id="edge37_Node000001_Node000024" class="edge">
<title>Node1&#45;&gt;Node24</title>
<g id="a_edge37_Node000001_Node000024"><a xlink:title=" ">
<path fill="none" stroke="#63b8ff" d="M1127.93,-472.8C1136.57,-462.92 1148.12,-449.72 1157.16,-439.39"/>
<polygon fill="#63b8ff" stroke="#63b8ff" points="1159.81,-441.67 1163.76,-431.84 1154.54,-437.07 1159.81,-441.67"/>
</a>
</g>
</g>
<!-- Node25 -->
<g id="Node000025" class="node">
<title>Node25</title>
<g id="a_Node000025"><a xlink:title=" ">
<polygon fill="#e0e0e0" stroke="#999999" points="1275,-431.5 1218,-431.5 1218,-412.5 1275,-412.5 1275,-431.5"/>
<text text-anchor="middle" x="1246.5" y="-419.5" font-family="Helvetica,sans-Serif" font-size="10.00">ostream</text>
</a>
</g>
</g>
<!-- Node1&#45;&gt;Node25 -->
<g id="edge38_Node000001_Node000025" class="edge">
<title>Node1&#45;&gt;Node25</title>
<g id="a_edge38_Node000001_Node000025"><a xlink:title=" ">
<path fill="none" stroke="#63b8ff" d="M1144.25,-472.95C1166.82,-461.93 1197.99,-446.7 1219.97,-435.96"/>
<polygon fill="#63b8ff" stroke="#63b8ff" points="1221.62,-439.05 1229.07,-431.52 1218.54,-432.76 1221.62,-439.05"/>
</a>
</g>
</g>
<!-- Node3 -->
<g id="Node000003" class="node">
<title>Node3</title>
<g id="a_Node000003"><a xlink:href="test__config_8h.html" target="_top" xlink:title=" ">
<polygon fill="white" stroke="#666666" points="79,-74 0,-74 0,-55 79,-55 79,-74"/>
<text text-anchor="middle" x="39.5" y="-62" font-family="Helvetica,sans-Serif" font-size="10.00">test_config.h</text>
</a>
</g>
</g>
<!-- Node2&#45;&gt;Node3 -->
<g id="edge2_Node000002_Node000003" class="edge">
<title>Node2&#45;&gt;Node3</title>
<g id="a_edge2_Node000002_Node000003"><a xlink:title=" ">
<path fill="none" stroke="#63b8ff" d="M219.12,-109.98C182.41,-100.89 124.12,-86.46 83.95,-76.51"/>
<polygon fill="#63b8ff" stroke="#63b8ff" points="84.7,-73.09 74.15,-74.08 83.02,-79.88 84.7,-73.09"/>
</a>
</g>
</g>
<!-- Node4 -->
<g id="Node000004" class="node">
<title>Node4</title>
<g id="a_Node000004"><a xlink:href="atomic__types_8h.html" target="_top" xlink:title=" ">
<polygon fill="white" stroke="#666666" points="189.5,-74 97.5,-74 97.5,-55 189.5,-55 189.5,-74"/>
<text text-anchor="middle" x="143.5" y="-62" font-family="Helvetica,sans-Serif" font-size="10.00">atomic_types.h</text>
</a>
</g>
</g>
<!-- Node2&#45;&gt;Node4 -->
<g id="edge3_Node000002_Node000004" class="edge">
<title>Node2&#45;&gt;Node4</title>
<g id="a_edge3_Node000002_Node000004"><a xlink:title=" ">
<path fill="none" stroke="#63b8ff" d="M235.83,-109.98C218.21,-101.5 190.92,-88.35 170.57,-78.54"/>
<polygon fill="#63b8ff" stroke="#63b8ff" points="172.02,-75.36 161.49,-74.17 168.98,-81.66 172.02,-75.36"/>
</a>
</g>
</g>
<!-- Node6 -->
<g id="Node000006" class="node">
<title>Node6</title>
<g id="a_Node000006"><a xlink:title=" ">
<polygon fill="#e0e0e0" stroke="#999999" points="299.5,-74 207.5,-74 207.5,-55 299.5,-55 299.5,-74"/>
<text text-anchor="middle" x="253.5" y="-62" font-family="Helvetica,sans-Serif" font-size="10.00">tl/expected.hpp</text>
</a>
</g>
</g>
<!-- Node2&#45;&gt;Node6 -->
<g id="edge5_Node000002_Node000006" class="edge">
<title>Node2&#45;&gt;Node6</title>
<g id="a_edge5_Node000002_Node000006"><a xlink:title=" ">
<path fill="none" stroke="#63b8ff" d="M253.5,-109.75C253.5,-102.8 253.5,-92.85 253.5,-84.13"/>
<polygon fill="#63b8ff" stroke="#63b8ff" points="257,-84.09 253.5,-74.09 250,-84.09 257,-84.09"/>
</a>
</g>
</g>
<!-- Node7 -->
<g id="Node000007" class="node">
<title>Node7</title>
<g id="a_Node000007"><a xlink:title=" ">
<polygon fill="#e0e0e0" stroke="#999999" points="369.5,-74 317.5,-74 317.5,-55 369.5,-55 369.5,-74"/>
<text text-anchor="middle" x="343.5" y="-62" font-family="Helvetica,sans-Serif" font-size="10.00">cassert</text>
</a>
</g>
</g>
<!-- Node2&#45;&gt;Node7 -->
<g id="edge6_Node000002_Node000007" class="edge">
<title>Node2&#45;&gt;Node7</title>
<g id="a_edge6_Node000002_Node000007"><a xlink:title=" ">
<path fill="none" stroke="#63b8ff" d="M267.96,-109.98C281.92,-101.77 303.29,-89.18 319.75,-79.49"/>
<polygon fill="#63b8ff" stroke="#63b8ff" points="321.94,-82.26 328.78,-74.17 318.38,-76.23 321.94,-82.26"/>
</a>
</g>
</g>
<!-- Node8 -->
<g id="Node000008" class="node">
<title>Node8</title>
<g id="a_Node000008"><a xlink:title=" ">
<polygon fill="#e0e0e0" stroke="#999999" points="471,-74 388,-74 388,-55 471,-55 471,-74"/>
<text text-anchor="middle" x="429.5" y="-62" font-family="Helvetica,sans-Serif" font-size="10.00">initializer_list</text>
</a>
</g>
</g>
<!-- Node2&#45;&gt;Node8 -->
<g id="edge7_Node000002_Node000008" class="edge">
<title>Node2&#45;&gt;Node8</title>
<g id="a_edge7_Node000002_Node000008"><a xlink:title=" ">
<path fill="none" stroke="#63b8ff" d="M281.78,-109.98C311.45,-101.05 358.29,-86.94 391.25,-77.02"/>
<polygon fill="#63b8ff" stroke="#63b8ff" points="392.43,-80.32 401,-74.08 390.42,-73.61 392.43,-80.32"/>
</a>
</g>
</g>
<!-- Node5 -->
<g id="Node000005" class="node">
<title>Node5</title>
<g id="a_Node000005"><a xlink:title=" ">
<polygon fill="#e0e0e0" stroke="#999999" points="168.5,-19 118.5,-19 118.5,0 168.5,0 168.5,-19"/>
<text text-anchor="middle" x="143.5" y="-7" font-family="Helvetica,sans-Serif" font-size="10.00">cstdint</text>
</a>
</g>
</g>
<!-- Node4&#45;&gt;Node5 -->
<g id="edge4_Node000004_Node000005" class="edge">
<title>Node4&#45;&gt;Node5</title>
<g id="a_edge4_Node000004_Node000005"><a xlink:title=" ">
<path fill="none" stroke="#63b8ff" d="M143.5,-54.75C143.5,-47.8 143.5,-37.85 143.5,-29.13"/>
<polygon fill="#63b8ff" stroke="#63b8ff" points="147,-29.09 143.5,-19.09 140,-29.09 147,-29.09"/>
</a>
</g>
</g>
<!-- Node9&#45;&gt;Node2 -->
<g id="edge9_Node000009_Node000002" class="edge">
<title>Node9&#45;&gt;Node2</title>
<g id="a_edge9_Node000009_Node000002"><a xlink:title=" ">
<path fill="none" stroke="#63b8ff" d="M910.29,-417.25C731.64,-405.49 223.5,-365.94 223.5,-296.5 223.5,-296.5 223.5,-296.5 223.5,-239.5 223.5,-202.9 237.01,-161.83 245.9,-138.78"/>
<polygon fill="#63b8ff" stroke="#63b8ff" points="249.24,-139.85 249.7,-129.27 242.74,-137.25 249.24,-139.85"/>
</a>
</g>
</g>
<!-- Node9&#45;&gt;Node8 -->
<g id="edge36_Node000009_Node000008" class="edge">
<title>Node9&#45;&gt;Node8</title>
<g id="a_edge36_Node000009_Node000008"><a xlink:title=" ">
<path fill="none" stroke="#63b8ff" d="M995.82,-406.93C1027.11,-386.8 1077.5,-346.6 1077.5,-296.5 1077.5,-296.5 1077.5,-296.5 1077.5,-179 1077.5,-144.41 1070.41,-128.99 1041.5,-110 1018.24,-94.72 624.98,-74.73 481.42,-67.9"/>
<polygon fill="#63b8ff" stroke="#63b8ff" points="481.27,-64.39 471.12,-67.41 480.94,-71.38 481.27,-64.39"/>
</a>
</g>
</g>
<!-- Node10 -->
<g id="Node000010" class="node">
<title>Node10</title>
<g id="a_Node000010"><a xlink:href="square__matrix_8h.html" target="_top" xlink:title=" ">
<polygon fill="white" stroke="#666666" points="889.5,-371 781.5,-371 781.5,-341 889.5,-341 889.5,-371"/>
<text text-anchor="start" x="789.5" y="-359" font-family="Helvetica,sans-Serif" font-size="10.00">math/linalg/square</text>
<text text-anchor="middle" x="835.5" y="-348" font-family="Helvetica,sans-Serif" font-size="10.00">_matrix.h</text>
</a>
</g>
</g>
<!-- Node9&#45;&gt;Node10 -->
<g id="edge10_Node000009_Node000010" class="edge">
<title>Node9&#45;&gt;Node10</title>
<g id="a_edge10_Node000009_Node000010"><a xlink:title=" ">
<path fill="none" stroke="#63b8ff" d="M941.65,-406.95C921.9,-397.66 895.8,-385.38 874.42,-375.32"/>
<polygon fill="#63b8ff" stroke="#63b8ff" points="875.81,-372.1 865.28,-371.01 872.83,-378.44 875.81,-372.1"/>
</a>
</g>
</g>
<!-- Node10&#45;&gt;Node2 -->
<g id="edge11_Node000010_Node000002" class="edge">
<title>Node10&#45;&gt;Node2</title>
<g id="a_edge11_Node000010_Node000002"><a xlink:title=" ">
<path fill="none" stroke="#63b8ff" d="M781.24,-352.69C676.69,-347.66 451.31,-333.75 379.5,-305 317.04,-280 302.14,-256.78 275.5,-195 267.59,-176.66 261.47,-154.62 257.72,-139.28"/>
<polygon fill="#63b8ff" stroke="#63b8ff" points="261.1,-138.39 255.41,-129.46 254.29,-139.99 261.1,-138.39"/>
</a>
</g>
</g>
<!-- Node10&#45;&gt;Node8 -->
<g id="edge34_Node000010_Node000008" class="edge">
<title>Node10&#45;&gt;Node8</title>
<g id="a_edge34_Node000010_Node000008"><a xlink:title=" ">
<path fill="none" stroke="#63b8ff" d="M889.63,-348.41C950.07,-337.68 1039.5,-310.2 1039.5,-241.5 1039.5,-241.5 1039.5,-241.5 1039.5,-179 1039.5,-147.19 1045.06,-130.21 1020.5,-110 999.82,-92.98 621.56,-74.2 481.28,-67.79"/>
<polygon fill="#63b8ff" stroke="#63b8ff" points="481.35,-64.29 471.2,-67.33 481.04,-71.28 481.35,-64.29"/>
</a>
</g>
</g>
<!-- Node11 -->
<g id="Node000011" class="node">
<title>Node11</title>
<g id="a_Node000011"><a xlink:href="errors_8h.html" target="_top" xlink:title="Error types used throughout the math library.">
<polygon fill="white" stroke="#666666" points="1011,-129 898,-129 898,-110 1011,-110 1011,-129"/>
<text text-anchor="middle" x="954.5" y="-117" font-family="Helvetica,sans-Serif" font-size="10.00">math/linalg/errors.h</text>
</a>
</g>
</g>
<!-- Node10&#45;&gt;Node11 -->
<g id="edge12_Node000010_Node000011" class="edge">
<title>Node10&#45;&gt;Node11</title>
<g id="a_edge12_Node000010_Node000011"><a xlink:title=" ">
<path fill="none" stroke="#63b8ff" d="M844.57,-340.85C861.89,-313.43 900.32,-250.85 926.5,-195 935.18,-176.48 943.19,-154.46 948.4,-139.18"/>
<polygon fill="#63b8ff" stroke="#63b8ff" points="951.81,-140 951.66,-129.4 945.17,-137.78 951.81,-140"/>
</a>
</g>
</g>
<!-- Node12 -->
<g id="Node000012" class="node">
<title>Node12</title>
<g id="a_Node000012"><a xlink:href="matrix_8h.html" target="_top" xlink:title=" ">
<polygon fill="white" stroke="#666666" points="632.5,-250 516.5,-250 516.5,-231 632.5,-231 632.5,-250"/>
<text text-anchor="middle" x="574.5" y="-238" font-family="Helvetica,sans-Serif" font-size="10.00">math/linalg/matrix.h</text>
</a>
</g>
</g>
<!-- Node10&#45;&gt;Node12 -->
<g id="edge13_Node000010_Node000012" class="edge">
<title>Node10&#45;&gt;Node12</title>
<g id="a_edge13_Node000010_Node000012"><a xlink:title=" ">
<path fill="none" stroke="#63b8ff" d="M835.75,-340.86C835.22,-325.11 831.8,-300.02 816.5,-286 791.63,-263.2 705.32,-251.6 642.85,-246.05"/>
<polygon fill="#63b8ff" stroke="#63b8ff" points="642.92,-242.54 632.66,-245.18 642.32,-249.52 642.92,-242.54"/>
</a>
</g>
</g>
<!-- Node22 -->
<g id="Node000022" class="node">
<title>Node22</title>
<g id="a_Node000022"><a xlink:href="vector_8h.html" target="_top" xlink:title=" ">
<polygon fill="white" stroke="#666666" points="502.5,-305 388.5,-305 388.5,-286 502.5,-286 502.5,-305"/>
<text text-anchor="middle" x="445.5" y="-293" font-family="Helvetica,sans-Serif" font-size="10.00">math/linalg/vector.h</text>
</a>
</g>
</g>
<!-- Node10&#45;&gt;Node22 -->
<g id="edge30_Node000010_Node000022" class="edge">
<title>Node10&#45;&gt;Node22</title>
<g id="a_edge30_Node000010_Node000022"><a xlink:title=" ">
<path fill="none" stroke="#63b8ff" d="M781.27,-346.87C710.96,-336.32 588.38,-317.93 512.38,-306.53"/>
<polygon fill="#63b8ff" stroke="#63b8ff" points="512.84,-303.06 502.43,-305.04 511.8,-309.98 512.84,-303.06"/>
</a>
</g>
</g>
<!-- Node23 -->
<g id="Node000023" class="node">
<title>Node23</title>
<g id="a_Node000023"><a xlink:title=" ">
<polygon fill="#e0e0e0" stroke="#999999" points="807,-305 762,-305 762,-286 807,-286 807,-305"/>
<text text-anchor="middle" x="784.5" y="-293" font-family="Helvetica,sans-Serif" font-size="10.00">utility</text>
</a>
</g>
</g>
<!-- Node10&#45;&gt;Node23 -->
<g id="edge35_Node000010_Node000023" class="edge">
<title>Node10&#45;&gt;Node23</title>
<g id="a_edge35_Node000010_Node000023"><a xlink:title=" ">
<path fill="none" stroke="#63b8ff" d="M823.15,-340.84C815.83,-332.43 806.5,-321.74 798.85,-312.96"/>
<polygon fill="#63b8ff" stroke="#63b8ff" points="801.35,-310.5 792.14,-305.27 796.08,-315.1 801.35,-310.5"/>
</a>
</g>
</g>
<!-- Node12&#45;&gt;Node2 -->
<g id="edge14_Node000012_Node000002" class="edge">
<title>Node12&#45;&gt;Node2</title>
<g id="a_edge14_Node000012_Node000002"><a xlink:title=" ">
<path fill="none" stroke="#63b8ff" d="M529.43,-230.93C493.57,-223.43 442.48,-211.2 399.5,-195 354.04,-177.87 304.29,-150.46 276.19,-134.1"/>
<polygon fill="#63b8ff" stroke="#63b8ff" points="277.91,-131.05 267.52,-129 274.37,-137.09 277.91,-131.05"/>
</a>
</g>
</g>
<!-- Node12&#45;&gt;Node8 -->
<g id="edge28_Node000012_Node000008" class="edge">
<title>Node12&#45;&gt;Node8</title>
<g id="a_edge28_Node000012_Node000008"><a xlink:title=" ">
<path fill="none" stroke="#63b8ff" d="M516.3,-234.92C487.22,-229.61 453.79,-218.41 432.5,-195 404.85,-164.6 415.15,-111.61 423.3,-83.78"/>
<polygon fill="#63b8ff" stroke="#63b8ff" points="426.67,-84.72 426.35,-74.13 420,-82.62 426.67,-84.72"/>
</a>
</g>
</g>
<!-- Node12&#45;&gt;Node11 -->
<g id="edge24_Node000012_Node000011" class="edge">
<title>Node12&#45;&gt;Node11</title>
<g id="a_edge24_Node000012_Node000011"><a xlink:title=" ">
<path fill="none" stroke="#63b8ff" d="M632.7,-236.76C713.25,-232.09 853.72,-220.49 897.5,-195 920.09,-181.85 936.76,-155.9 946.05,-138.38"/>
<polygon fill="#63b8ff" stroke="#63b8ff" points="949.3,-139.7 950.66,-129.19 943.05,-136.56 949.3,-139.7"/>
</a>
</g>
</g>
<!-- Node13 -->
<g id="Node000013" class="node">
<title>Node13</title>
<g id="a_Node000013"><a xlink:href="matrix__intf_8h.html" target="_top" xlink:title=" ">
<polygon fill="white" stroke="#666666" points="888.5,-195 768.5,-195 768.5,-165 888.5,-165 888.5,-195"/>
<text text-anchor="start" x="776.5" y="-183" font-family="Helvetica,sans-Serif" font-size="10.00">math/linalg/contracts</text>
<text text-anchor="middle" x="828.5" y="-172" font-family="Helvetica,sans-Serif" font-size="10.00">/matrix_intf.h</text>
</a>
</g>
</g>
<!-- Node12&#45;&gt;Node13 -->
<g id="edge15_Node000012_Node000013" class="edge">
<title>Node12&#45;&gt;Node13</title>
<g id="a_edge15_Node000012_Node000013"><a xlink:title=" ">
<path fill="none" stroke="#63b8ff" d="M611.43,-230.99C649.84,-222.15 710.89,-208.09 758.48,-197.13"/>
<polygon fill="#63b8ff" stroke="#63b8ff" points="759.46,-200.49 768.41,-194.84 757.88,-193.67 759.46,-200.49"/>
</a>
</g>
</g>
<!-- Node18 -->
<g id="Node000018" class="node">
<title>Node18</title>
<g id="a_Node000018"><a xlink:href="matrix__types_8h.html" target="_top" xlink:title="Type definitions and enumerations for matrix operations.">
<polygon fill="white" stroke="#666666" points="750,-195 643,-195 643,-165 750,-165 750,-195"/>
<text text-anchor="start" x="651" y="-183" font-family="Helvetica,sans-Serif" font-size="10.00">math/linalg/matrix</text>
<text text-anchor="middle" x="696.5" y="-172" font-family="Helvetica,sans-Serif" font-size="10.00">_types.h</text>
</a>
</g>
</g>
<!-- Node12&#45;&gt;Node18 -->
<g id="edge25_Node000012_Node000018" class="edge">
<title>Node12&#45;&gt;Node18</title>
<g id="a_edge25_Node000012_Node000018"><a xlink:title=" ">
<path fill="none" stroke="#63b8ff" d="M592.24,-230.99C609.36,-222.79 635.84,-210.09 657.82,-199.55"/>
<polygon fill="#63b8ff" stroke="#63b8ff" points="659.43,-202.66 666.93,-195.18 656.4,-196.35 659.43,-202.66"/>
</a>
</g>
</g>
<!-- Node19 -->
<g id="Node000019" class="node">
<title>Node19</title>
<g id="a_Node000019"><a xlink:title=" ">
<polygon fill="#e0e0e0" stroke="#999999" points="505.5,-189.5 441.5,-189.5 441.5,-170.5 505.5,-170.5 505.5,-189.5"/>
<text text-anchor="middle" x="473.5" y="-177.5" font-family="Helvetica,sans-Serif" font-size="10.00">algorithm</text>
</a>
</g>
</g>
<!-- Node12&#45;&gt;Node19 -->
<g id="edge26_Node000012_Node000019" class="edge">
<title>Node12&#45;&gt;Node19</title>
<g id="a_edge26_Node000012_Node000019"><a xlink:title=" ">
<path fill="none" stroke="#63b8ff" d="M559.6,-230.87C543.19,-221.36 516.57,-205.95 497.27,-194.77"/>
<polygon fill="#63b8ff" stroke="#63b8ff" points="498.87,-191.65 488.46,-189.67 495.36,-197.71 498.87,-191.65"/>
</a>
</g>
</g>
<!-- Node20 -->
<g id="Node000020" class="node">
<title>Node20</title>
<g id="a_Node000020"><a xlink:title=" ">
<polygon fill="#e0e0e0" stroke="#999999" points="565.5,-189.5 523.5,-189.5 523.5,-170.5 565.5,-170.5 565.5,-189.5"/>
<text text-anchor="middle" x="544.5" y="-177.5" font-family="Helvetica,sans-Serif" font-size="10.00">array</text>
</a>
</g>
</g>
<!-- Node12&#45;&gt;Node20 -->
<g id="edge27_Node000012_Node000020" class="edge">
<title>Node12&#45;&gt;Node20</title>
<g id="a_edge27_Node000012_Node000020"><a xlink:title=" ">
<path fill="none" stroke="#63b8ff" d="M570.07,-230.87C565.73,-222.4 558.98,-209.24 553.51,-198.57"/>
<polygon fill="#63b8ff" stroke="#63b8ff" points="556.62,-196.97 548.94,-189.67 550.39,-200.16 556.62,-196.97"/>
</a>
</g>
</g>
<!-- Node21 -->
<g id="Node000021" class="node">
<title>Node21</title>
<g id="a_Node000021"><a xlink:title=" ">
<polygon fill="#e0e0e0" stroke="#999999" points="625,-189.5 584,-189.5 584,-170.5 625,-170.5 625,-189.5"/>
<text text-anchor="middle" x="604.5" y="-177.5" font-family="Helvetica,sans-Serif" font-size="10.00">tuple</text>
</a>
</g>
</g>
<!-- Node12&#45;&gt;Node21 -->
<g id="edge29_Node000012_Node000021" class="edge">
<title>Node12&#45;&gt;Node21</title>
<g id="a_edge29_Node000012_Node000021"><a xlink:title=" ">
<path fill="none" stroke="#63b8ff" d="M578.93,-230.87C583.27,-222.4 590.02,-209.24 595.49,-198.57"/>
<polygon fill="#63b8ff" stroke="#63b8ff" points="598.61,-200.16 600.06,-189.67 592.38,-196.97 598.61,-200.16"/>
</a>
</g>
</g>
<!-- Node13&#45;&gt;Node2 -->
<g id="edge16_Node000013_Node000002" class="edge">
<title>Node13&#45;&gt;Node2</title>
<g id="a_edge16_Node000013_Node000002"><a xlink:title=" ">
<path fill="none" stroke="#63b8ff" d="M768.36,-166.38C765.37,-165.89 762.4,-165.42 759.5,-165 602.46,-142.24 416.18,-129.49 319.36,-123.92"/>
<polygon fill="#63b8ff" stroke="#63b8ff" points="319.33,-120.41 309.14,-123.34 318.93,-127.4 319.33,-120.41"/>
</a>
</g>
</g>
<!-- Node13&#45;&gt;Node11 -->
<g id="edge23_Node000013_Node000011" class="edge">
<title>Node13&#45;&gt;Node11</title>
<g id="a_edge23_Node000013_Node000011"><a xlink:title=" ">
<path fill="none" stroke="#63b8ff" d="M858.68,-164.99C879.33,-155.4 906.5,-142.79 926.63,-133.44"/>
<polygon fill="#63b8ff" stroke="#63b8ff" points="928.3,-136.52 935.89,-129.14 925.35,-130.18 928.3,-136.52"/>
</a>
</g>
</g>
<!-- Node14 -->
<g id="Node000014" class="node">
<title>Node14</title>
<g id="a_Node000014"><a xlink:href="interface__contract_8h.html" target="_top" xlink:title=" ">
<polygon fill="white" stroke="#666666" points="567.5,-129 427.5,-129 427.5,-110 567.5,-110 567.5,-129"/>
<text text-anchor="middle" x="497.5" y="-117" font-family="Helvetica,sans-Serif" font-size="10.00">base/interface_contract.h</text>
</a>
</g>
</g>
<!-- Node13&#45;&gt;Node14 -->
<g id="edge17_Node000013_Node000014" class="edge">
<title>Node13&#45;&gt;Node14</title>
<g id="a_edge17_Node000013_Node000014"><a xlink:title=" ">
<path fill="none" stroke="#63b8ff" d="M768.31,-166.67C765.33,-166.1 762.38,-165.54 759.5,-165 691.75,-152.38 613.86,-139.33 560.73,-130.66"/>
<polygon fill="#63b8ff" stroke="#63b8ff" points="561.21,-127.19 550.78,-129.04 560.09,-134.1 561.21,-127.19"/>
</a>
</g>
</g>
<!-- Node16 -->
<g id="Node000016" class="node">
<title>Node16</title>
<g id="a_Node000016"><a xlink:href="require__copy__intf_8h.html" target="_top" xlink:title=" ">
<polygon fill="white" stroke="#666666" points="721.5,-129 585.5,-129 585.5,-110 721.5,-110 721.5,-129"/>
<text text-anchor="middle" x="653.5" y="-117" font-family="Helvetica,sans-Serif" font-size="10.00">base/require_copy_intf.h</text>
</a>
</g>
</g>
<!-- Node13&#45;&gt;Node16 -->
<g id="edge19_Node000013_Node000016" class="edge">
<title>Node13&#45;&gt;Node16</title>
<g id="a_edge19_Node000013_Node000016"><a xlink:title=" ">
<path fill="none" stroke="#63b8ff" d="M786.58,-164.99C756.77,-155.02 717.17,-141.78 688.94,-132.35"/>
<polygon fill="#63b8ff" stroke="#63b8ff" points="689.68,-128.9 679.09,-129.05 687.46,-135.54 689.68,-128.9"/>
</a>
</g>
</g>
<!-- Node17 -->
<g id="Node000017" class="node">
<title>Node17</title>
<g id="a_Node000017"><a xlink:href="require__move__intf_8h.html" target="_top" xlink:title=" ">
<polygon fill="white" stroke="#666666" points="879.5,-129 739.5,-129 739.5,-110 879.5,-110 879.5,-129"/>
<text text-anchor="middle" x="809.5" y="-117" font-family="Helvetica,sans-Serif" font-size="10.00">base/require_move_intf.h</text>
</a>
</g>
</g>
<!-- Node13&#45;&gt;Node17 -->
<g id="edge21_Node000013_Node000017" class="edge">
<title>Node13&#45;&gt;Node17</title>
<g id="a_edge21_Node000013_Node000017"><a xlink:title=" ">
<path fill="none" stroke="#63b8ff" d="M823.9,-164.84C821.37,-157.04 818.19,-147.27 815.47,-138.89"/>
<polygon fill="#63b8ff" stroke="#63b8ff" points="818.76,-137.7 812.35,-129.27 812.11,-139.86 818.76,-137.7"/>
</a>
</g>
</g>
<!-- Node14&#45;&gt;Node15 -->
<g id="edge18_Node000014_Node000015" class="edge">
<title>Node14&#45;&gt;Node15</title>
<g id="a_edge18_Node000014_Node000015"><a xlink:title=" ">
<path fill="none" stroke="#63b8ff" d="M535.1,-109.98C576.45,-100.62 642.85,-85.58 686.83,-75.62"/>
<polygon fill="#63b8ff" stroke="#63b8ff" points="687.69,-79.01 696.67,-73.39 686.15,-72.18 687.69,-79.01"/>
</a>
</g>
</g>
<!-- Node16&#45;&gt;Node15 -->
<g id="edge20_Node000016_Node000015" class="edge">
<title>Node16&#45;&gt;Node15</title>
<g id="a_edge20_Node000016_Node000015"><a xlink:title=" ">
<path fill="none" stroke="#63b8ff" d="M666.03,-109.98C677.9,-101.92 695.96,-89.65 710.11,-80.03"/>
<polygon fill="#63b8ff" stroke="#63b8ff" points="712.44,-82.69 718.74,-74.17 708.5,-76.9 712.44,-82.69"/>
</a>
</g>
</g>
<!-- Node17&#45;&gt;Node15 -->
<g id="edge22_Node000017_Node000015" class="edge">
<title>Node17&#45;&gt;Node15</title>
<g id="a_edge22_Node000017_Node000015"><a xlink:title=" ">
<path fill="none" stroke="#63b8ff" d="M796.97,-109.98C785.1,-101.92 767.04,-89.65 752.89,-80.03"/>
<polygon fill="#63b8ff" stroke="#63b8ff" points="754.5,-76.9 744.26,-74.17 750.56,-82.69 754.5,-76.9"/>
</a>
</g>
</g>
<!-- Node22&#45;&gt;Node2 -->
<g id="edge31_Node000022_Node000002" class="edge">
<title>Node22&#45;&gt;Node2</title>
<g id="a_edge31_Node000022_Node000002"><a xlink:title=" ">
<path fill="none" stroke="#63b8ff" d="M399.11,-285.94C374.41,-279.46 344.83,-268.42 323.5,-250 314.12,-241.9 278.78,-171.75 262.19,-138.21"/>
<polygon fill="#63b8ff" stroke="#63b8ff" points="265.26,-136.51 257.7,-129.09 258.98,-139.61 265.26,-136.51"/>
</a>
</g>
</g>
<!-- Node22&#45;&gt;Node8 -->
<g id="edge33_Node000022_Node000008" class="edge">
<title>Node22&#45;&gt;Node8</title>
<g id="a_edge33_Node000022_Node000008"><a xlink:title=" ">
<path fill="none" stroke="#63b8ff" d="M441.71,-285.94C434.43,-268.98 418.66,-229.77 412.5,-195 407.38,-166.1 410.94,-158.34 410.5,-129 410.37,-120.56 408.81,-118.27 410.5,-110 412.39,-100.74 416.29,-91.03 420.07,-83.04"/>
<polygon fill="#63b8ff" stroke="#63b8ff" points="423.24,-84.53 424.62,-74.02 416.99,-81.37 423.24,-84.53"/>
</a>
</g>
</g>
<!-- Node22&#45;&gt;Node12 -->
<g id="edge32_Node000022_Node000012" class="edge">
<title>Node22&#45;&gt;Node12</title>
<g id="a_edge32_Node000022_Node000012"><a xlink:title=" ">
<path fill="none" stroke="#63b8ff" d="M466.23,-285.98C487.26,-277.34 520.05,-263.87 544.04,-254.02"/>
<polygon fill="#63b8ff" stroke="#63b8ff" points="545.48,-257.21 553.4,-250.17 542.82,-250.73 545.48,-257.21"/>
</a>
</g>
</g>
</g>
</svg>

<g id="navigator" transform="translate(0 0)" fill="#404254">
  <rect fill="#f2f5e9" fill-opacity="0.5" stroke="#606060" stroke-width=".5" x="0" y="0" width="60" height="60"/>
  <use id="zoomplus" xlink:href="#zoomPlus" x="17" y="9" onmousedown="handleZoom(evt,'in')"/>
  <use id="zoomminus" xlink:href="#zoomMin" x="42" y="9" onmousedown="handleZoom(evt,'out')"/>
  <use id="reset" xlink:href="#resetDef" x="30" y="36" onmousedown="handleReset()"/>
   <use id="arrowup" xlink:href="#arrowUp" x="0" y="0" onmousedown="handlePan(0,-1)"/>
  <use id="arrowright" xlink:href="#arrowRight" x="0" y="0" onmousedown="handlePan(1,0)"/>
  <use id="arrowdown" xlink:href="#arrowDown" x="0" y="0" onmousedown="handlePan(0,1)"/>
  <use id="arrowleft" xlink:href="#arrowLeft" x="0" y="0" onmousedown="handlePan(-1,0)"/>
</g>
<svg viewBox="0 0 15 15" width="100%" height="30px" preserveAspectRatio="xMaxYMin meet">
 <g id="arrow_out" transform="scale(0.3 0.3)">
  <a xlink:href="matrix__io_8h__incl_org.svg" target="_base">
   <rect id="button" ry="5" rx="5" y="6" x="6" height="38" width="38"
        fill="#f2f5e9" fill-opacity="0.5" stroke="#606060" stroke-width="1.0"/>
   <path id="arrow"
     d="M 11.500037,31.436501 C 11.940474,20.09759 22.043105,11.32322 32.158766,21.979434 L 37.068811,17.246167 C 37.068811,17.246167 37.088388,32 37.088388,32 L 22.160133,31.978069 C 22.160133,31.978069 26.997745,27.140456 26.997745,27.140456 C 18.528582,18.264221 13.291696,25.230495 11.500037,31.436501 z"
     style="fill:#404040;"/>
  </a>
 </g>
</svg>

<style type='text/css'>
<![CDATA[
[data-mouse-over-selected='false'] { opacity: 0.7; }
[data-mouse-over-selected='true']  { opacity: 1.0; }
]]>
</style>
<script type="application/ecmascript"><![CDATA[
document.addEventListener('DOMContentLoaded', (event) => {
  highlightEdges();
  highlightAdjacentNodes();
});
]]></script>
</svg>
