<?xml version="1.0" encoding="UTF-8" standalone="no"?>
<!DOCTYPE svg PUBLIC "-//W3C//DTD SVG 1.1//EN"
 "http://www.w3.org/Graphics/SVG/1.1/DTD/svg11.dtd">
<!-- Generated by graphviz version 2.43.0 (0)
 -->
<!-- Title: include/trackingLib/math/linalg/contracts/matrix_intf.h Pages: 1 -->
<svg width="919pt" height="214pt"
 viewBox="0.00 0.00 919.00 214.00" xmlns="http://www.w3.org/2000/svg" xmlns:xlink="http://www.w3.org/1999/xlink">
<g id="graph0" class="graph" transform="scale(1 1) rotate(0) translate(4 210)">
<title>include/trackingLib/math/linalg/contracts/matrix_intf.h</title>
<!-- Node1 -->
<g id="Node000001" class="node">
<title>Node1</title>
<g id="a_Node000001"><a xlink:title=" ">
<polygon fill="#999999" stroke="#666666" points="615,-206 492,-206 492,-165 615,-165 615,-206"/>
<text text-anchor="start" x="500" y="-194" font-family="Helvetica,sans-Serif" font-size="10.00">include/trackingLib</text>
<text text-anchor="start" x="500" y="-183" font-family="Helvetica,sans-Serif" font-size="10.00">/math/linalg/contracts</text>
<text text-anchor="middle" x="553.5" y="-172" font-family="Helvetica,sans-Serif" font-size="10.00">/matrix_intf.h</text>
</a>
</g>
</g>
<!-- Node2 -->
<g id="Node000002" class="node">
<title>Node2</title>
<g id="a_Node000002"><a xlink:href="first__include_8h.html" target="_top" xlink:title=" ">
<polygon fill="white" stroke="#666666" points="309,-129 198,-129 198,-110 309,-110 309,-129"/>
<text text-anchor="middle" x="253.5" y="-117" font-family="Helvetica,sans-Serif" font-size="10.00">base/first_include.h</text>
</a>
</g>
</g>
<!-- Node1&#45;&gt;Node2 -->
<g id="edge1_Node000001_Node000002" class="edge">
<title>Node1&#45;&gt;Node2</title>
<g id="a_edge1_Node000001_Node000002"><a xlink:title=" ">
<path fill="none" stroke="#63b8ff" d="M491.7,-171.32C436.06,-159.45 355.32,-142.22 303.61,-131.19"/>
<polygon fill="#63b8ff" stroke="#63b8ff" points="304.18,-127.73 293.67,-129.07 302.72,-134.58 304.18,-127.73"/>
</a>
</g>
</g>
<!-- Node9 -->
<g id="Node000009" class="node">
<title>Node9</title>
<g id="a_Node000009"><a xlink:href="interface__contract_8h.html" target="_top" xlink:title=" ">
<polygon fill="white" stroke="#666666" points="467.5,-129 327.5,-129 327.5,-110 467.5,-110 467.5,-129"/>
<text text-anchor="middle" x="397.5" y="-117" font-family="Helvetica,sans-Serif" font-size="10.00">base/interface_contract.h</text>
</a>
</g>
</g>
<!-- Node1&#45;&gt;Node9 -->
<g id="edge8_Node000001_Node000009" class="edge">
<title>Node1&#45;&gt;Node9</title>
<g id="a_edge8_Node000001_Node000009"><a xlink:title=" ">
<path fill="none" stroke="#63b8ff" d="M505.85,-164.95C480.52,-154.56 450.13,-142.09 427.99,-133.01"/>
<polygon fill="#63b8ff" stroke="#63b8ff" points="429.02,-129.65 418.44,-129.09 426.37,-136.13 429.02,-129.65"/>
</a>
</g>
</g>
<!-- Node11 -->
<g id="Node000011" class="node">
<title>Node11</title>
<g id="a_Node000011"><a xlink:href="require__copy__intf_8h.html" target="_top" xlink:title=" ">
<polygon fill="white" stroke="#666666" points="621.5,-129 485.5,-129 485.5,-110 621.5,-110 621.5,-129"/>
<text text-anchor="middle" x="553.5" y="-117" font-family="Helvetica,sans-Serif" font-size="10.00">base/require_copy_intf.h</text>
</a>
</g>
</g>
<!-- Node1&#45;&gt;Node11 -->
<g id="edge10_Node000001_Node000011" class="edge">
<title>Node1&#45;&gt;Node11</title>
<g id="a_edge10_Node000001_Node000011"><a xlink:title=" ">
<path fill="none" stroke="#63b8ff" d="M553.5,-164.95C553.5,-156.85 553.5,-147.5 553.5,-139.47"/>
<polygon fill="#63b8ff" stroke="#63b8ff" points="557,-139.26 553.5,-129.26 550,-139.26 557,-139.26"/>
</a>
</g>
</g>
<!-- Node12 -->
<g id="Node000012" class="node">
<title>Node12</title>
<g id="a_Node000012"><a xlink:href="require__move__intf_8h.html" target="_top" xlink:title=" ">
<polygon fill="white" stroke="#666666" points="779.5,-129 639.5,-129 639.5,-110 779.5,-110 779.5,-129"/>
<text text-anchor="middle" x="709.5" y="-117" font-family="Helvetica,sans-Serif" font-size="10.00">base/require_move_intf.h</text>
</a>
</g>
</g>
<!-- Node1&#45;&gt;Node12 -->
<g id="edge12_Node000001_Node000012" class="edge">
<title>Node1&#45;&gt;Node12</title>
<g id="a_edge12_Node000001_Node000012"><a xlink:title=" ">
<path fill="none" stroke="#63b8ff" d="M601.15,-164.95C626.48,-154.56 656.87,-142.09 679.01,-133.01"/>
<polygon fill="#63b8ff" stroke="#63b8ff" points="680.63,-136.13 688.56,-129.09 677.98,-129.65 680.63,-136.13"/>
</a>
</g>
</g>
<!-- Node13 -->
<g id="Node000013" class="node">
<title>Node13</title>
<g id="a_Node000013"><a xlink:href="errors_8h.html" target="_top" xlink:title="Error types used throughout the math library.">
<polygon fill="white" stroke="#666666" points="911,-129 798,-129 798,-110 911,-110 911,-129"/>
<text text-anchor="middle" x="854.5" y="-117" font-family="Helvetica,sans-Serif" font-size="10.00">math/linalg/errors.h</text>
</a>
</g>
</g>
<!-- Node1&#45;&gt;Node13 -->
<g id="edge14_Node000001_Node000013" class="edge">
<title>Node1&#45;&gt;Node13</title>
<g id="a_edge14_Node000001_Node000013"><a xlink:title=" ">
<path fill="none" stroke="#63b8ff" d="M615.14,-171.39C670.93,-159.53 752.1,-142.27 804.1,-131.22"/>
<polygon fill="#63b8ff" stroke="#63b8ff" points="805.05,-134.59 814.1,-129.09 803.59,-127.75 805.05,-134.59"/>
</a>
</g>
</g>
<!-- Node3 -->
<g id="Node000003" class="node">
<title>Node3</title>
<g id="a_Node000003"><a xlink:href="test__config_8h.html" target="_top" xlink:title=" ">
<polygon fill="white" stroke="#666666" points="79,-74 0,-74 0,-55 79,-55 79,-74"/>
<text text-anchor="middle" x="39.5" y="-62" font-family="Helvetica,sans-Serif" font-size="10.00">test_config.h</text>
</a>
</g>
</g>
<!-- Node2&#45;&gt;Node3 -->
<g id="edge2_Node000002_Node000003" class="edge">
<title>Node2&#45;&gt;Node3</title>
<g id="a_edge2_Node000002_Node000003"><a xlink:title=" ">
<path fill="none" stroke="#63b8ff" d="M219.12,-109.98C182.41,-100.89 124.12,-86.46 83.95,-76.51"/>
<polygon fill="#63b8ff" stroke="#63b8ff" points="84.7,-73.09 74.15,-74.08 83.02,-79.88 84.7,-73.09"/>
</a>
</g>
</g>
<!-- Node4 -->
<g id="Node000004" class="node">
<title>Node4</title>
<g id="a_Node000004"><a xlink:href="atomic__types_8h.html" target="_top" xlink:title=" ">
<polygon fill="white" stroke="#666666" points="189.5,-74 97.5,-74 97.5,-55 189.5,-55 189.5,-74"/>
<text text-anchor="middle" x="143.5" y="-62" font-family="Helvetica,sans-Serif" font-size="10.00">atomic_types.h</text>
</a>
</g>
</g>
<!-- Node2&#45;&gt;Node4 -->
<g id="edge3_Node000002_Node000004" class="edge">
<title>Node2&#45;&gt;Node4</title>
<g id="a_edge3_Node000002_Node000004"><a xlink:title=" ">
<path fill="none" stroke="#63b8ff" d="M235.83,-109.98C218.21,-101.5 190.92,-88.35 170.57,-78.54"/>
<polygon fill="#63b8ff" stroke="#63b8ff" points="172.02,-75.36 161.49,-74.17 168.98,-81.66 172.02,-75.36"/>
</a>
</g>
</g>
<!-- Node6 -->
<g id="Node000006" class="node">
<title>Node6</title>
<g id="a_Node000006"><a xlink:title=" ">
<polygon fill="#e0e0e0" stroke="#999999" points="299.5,-74 207.5,-74 207.5,-55 299.5,-55 299.5,-74"/>
<text text-anchor="middle" x="253.5" y="-62" font-family="Helvetica,sans-Serif" font-size="10.00">tl/expected.hpp</text>
</a>
</g>
</g>
<!-- Node2&#45;&gt;Node6 -->
<g id="edge5_Node000002_Node000006" class="edge">
<title>Node2&#45;&gt;Node6</title>
<g id="a_edge5_Node000002_Node000006"><a xlink:title=" ">
<path fill="none" stroke="#63b8ff" d="M253.5,-109.75C253.5,-102.8 253.5,-92.85 253.5,-84.13"/>
<polygon fill="#63b8ff" stroke="#63b8ff" points="257,-84.09 253.5,-74.09 250,-84.09 257,-84.09"/>
</a>
</g>
</g>
<!-- Node7 -->
<g id="Node000007" class="node">
<title>Node7</title>
<g id="a_Node000007"><a xlink:title=" ">
<polygon fill="#e0e0e0" stroke="#999999" points="369.5,-74 317.5,-74 317.5,-55 369.5,-55 369.5,-74"/>
<text text-anchor="middle" x="343.5" y="-62" font-family="Helvetica,sans-Serif" font-size="10.00">cassert</text>
</a>
</g>
</g>
<!-- Node2&#45;&gt;Node7 -->
<g id="edge6_Node000002_Node000007" class="edge">
<title>Node2&#45;&gt;Node7</title>
<g id="a_edge6_Node000002_Node000007"><a xlink:title=" ">
<path fill="none" stroke="#63b8ff" d="M267.96,-109.98C281.92,-101.77 303.29,-89.18 319.75,-79.49"/>
<polygon fill="#63b8ff" stroke="#63b8ff" points="321.94,-82.26 328.78,-74.17 318.38,-76.23 321.94,-82.26"/>
</a>
</g>
</g>
<!-- Node8 -->
<g id="Node000008" class="node">
<title>Node8</title>
<g id="a_Node000008"><a xlink:title=" ">
<polygon fill="#e0e0e0" stroke="#999999" points="471,-74 388,-74 388,-55 471,-55 471,-74"/>
<text text-anchor="middle" x="429.5" y="-62" font-family="Helvetica,sans-Serif" font-size="10.00">initializer_list</text>
</a>
</g>
</g>
<!-- Node2&#45;&gt;Node8 -->
<g id="edge7_Node000002_Node000008" class="edge">
<title>Node2&#45;&gt;Node8</title>
<g id="a_edge7_Node000002_Node000008"><a xlink:title=" ">
<path fill="none" stroke="#63b8ff" d="M281.78,-109.98C311.45,-101.05 358.29,-86.94 391.25,-77.02"/>
<polygon fill="#63b8ff" stroke="#63b8ff" points="392.43,-80.32 401,-74.08 390.42,-73.61 392.43,-80.32"/>
</a>
</g>
</g>
<!-- Node5 -->
<g id="Node000005" class="node">
<title>Node5</title>
<g id="a_Node000005"><a xlink:title=" ">
<polygon fill="#e0e0e0" stroke="#999999" points="168.5,-19 118.5,-19 118.5,0 168.5,0 168.5,-19"/>
<text text-anchor="middle" x="143.5" y="-7" font-family="Helvetica,sans-Serif" font-size="10.00">cstdint</text>
</a>
</g>
</g>
<!-- Node4&#45;&gt;Node5 -->
<g id="edge4_Node000004_Node000005" class="edge">
<title>Node4&#45;&gt;Node5</title>
<g id="a_edge4_Node000004_Node000005"><a xlink:title=" ">
<path fill="none" stroke="#63b8ff" d="M143.5,-54.75C143.5,-47.8 143.5,-37.85 143.5,-29.13"/>
<polygon fill="#63b8ff" stroke="#63b8ff" points="147,-29.09 143.5,-19.09 140,-29.09 147,-29.09"/>
</a>
</g>
</g>
<!-- Node10 -->
<g id="Node000010" class="node">
<title>Node10</title>
<g id="a_Node000010"><a xlink:title=" ">
<polygon fill="#e0e0e0" stroke="#999999" points="588,-74 519,-74 519,-55 588,-55 588,-74"/>
<text text-anchor="middle" x="553.5" y="-62" font-family="Helvetica,sans-Serif" font-size="10.00">type_traits</text>
</a>
</g>
</g>
<!-- Node9&#45;&gt;Node10 -->
<g id="edge9_Node000009_Node000010" class="edge">
<title>Node9&#45;&gt;Node10</title>
<g id="a_edge9_Node000009_Node000010"><a xlink:title=" ">
<path fill="none" stroke="#63b8ff" d="M422.56,-109.98C448.53,-101.16 489.31,-87.31 518.46,-77.41"/>
<polygon fill="#63b8ff" stroke="#63b8ff" points="519.9,-80.61 528.24,-74.08 517.65,-73.99 519.9,-80.61"/>
</a>
</g>
</g>
<!-- Node11&#45;&gt;Node10 -->
<g id="edge11_Node000011_Node000010" class="edge">
<title>Node11&#45;&gt;Node10</title>
<g id="a_edge11_Node000011_Node000010"><a xlink:title=" ">
<path fill="none" stroke="#63b8ff" d="M553.5,-109.75C553.5,-102.8 553.5,-92.85 553.5,-84.13"/>
<polygon fill="#63b8ff" stroke="#63b8ff" points="557,-84.09 553.5,-74.09 550,-84.09 557,-84.09"/>
</a>
</g>
</g>
<!-- Node12&#45;&gt;Node10 -->
<g id="edge13_Node000012_Node000010" class="edge">
<title>Node12&#45;&gt;Node10</title>
<g id="a_edge13_Node000012_Node000010"><a xlink:title=" ">
<path fill="none" stroke="#63b8ff" d="M684.44,-109.98C658.47,-101.16 617.69,-87.31 588.54,-77.41"/>
<polygon fill="#63b8ff" stroke="#63b8ff" points="589.35,-73.99 578.76,-74.08 587.1,-80.61 589.35,-73.99"/>
</a>
</g>
</g>
</g>
</svg>
