<?xml version="1.0" encoding="UTF-8" standalone="no"?>
<!DOCTYPE svg PUBLIC "-//W3C//DTD SVG 1.1//EN"
 "http://www.w3.org/Graphics/SVG/1.1/DTD/svg11.dtd">
<!-- Generated by graphviz version 2.43.0 (0)
 -->
<!-- Title: include/trackingLib/math/linalg/matrix.h Pages: 1 -->
<!--zoomable 269 -->

<svg id="main" version="1.1" xmlns="http://www.w3.org/2000/svg" xmlns:xlink="http://www.w3.org/1999/xlink" xml:space="preserve" onload="init(evt)">
<style type="text/css"><![CDATA[
.node, .edge {opacity: 0.7;}
.node.selected, .edge.selected {opacity: 1;}
.edge:hover path { stroke: red; }
.edge:hover polygon { stroke: red; fill: red; }
]]></style>

<defs>
  <circle id="rim" cx="0" cy="0" r="7"/>
  <circle id="rim2" cx="0" cy="0" r="3.5"/>
  <g id="zoomPlus">
    <use xlink:href="#rim" fill="#404040"><set attributeName="fill" to="#808080" begin="zoomplus.mouseover" end="zoomplus.mouseout"/></use>
    <path d="M-4,0h8M0,-4v8" fill="none" stroke="white" stroke-width="1.5" pointer-events="none"/>
  </g>
  <g id="zoomMin">
    <use xlink:href="#rim" fill="#404040"><set attributeName="fill" to="#808080" begin="zoomminus.mouseover" end="zoomminus.mouseout"/></use>
    <path d="M-4,0h8" fill="none" stroke="white" stroke-width="1.5" pointer-events="none"/>
  </g>
  <g id="arrowUp" transform="translate(30 24)">
    <use xlink:href="#rim"/>
    <path pointer-events="none" fill="none" stroke="white" stroke-width="1.5" d="M0,-3.0v7 M-2.5,-0.5L0,-3.0L2.5,-0.5"/>
  </g>
  <g id="arrowRight" transform="rotate(90) translate(36 -43)">
    <use xlink:href="#rim"/>
    <path pointer-events="none" fill="none" stroke="white" stroke-width="1.5" d="M0,-3.0v7 M-2.5,-0.5L0,-3.0L2.5,-0.5"/>
  </g>
  <g id="arrowDown" transform="rotate(180) translate(-30 -48)">
    <use xlink:href="#rim"/>
    <path pointer-events="none" fill="none" stroke="white" stroke-width="1.5" d="M0,-3.0v7 M-2.5,-0.5L0,-3.0L2.5,-0.5"/>
  </g>
  <g id="arrowLeft" transform="rotate(270) translate(-36 17)">
    <use xlink:href="#rim"/>
    <path pointer-events="none" fill="none" stroke="white" stroke-width="1.5" d="M0,-3.0v7 M-2.5,-0.5L0,-3.0L2.5,-0.5"/>
  </g>
  <g id="resetDef">
    <use xlink:href="#rim2" fill="#404040"><set attributeName="fill" to="#808080" begin="reset.mouseover" end="reset.mouseout"/></use>
  </g>
</defs>
<script type="application/ecmascript">
var viewWidth = 976;
var viewHeight = 269;
var sectionId = 'dynsection-0';
</script>
<script type="application/ecmascript" xlink:href="svg.min.js"/>
<svg id="graph" class="graph">
<g id="viewport">
<title>include/trackingLib/math/linalg/matrix.h</title>
<!-- Node1 -->
<g id="Node000001" class="node">
<title>Node1</title>
<g id="a_Node000001"><a xlink:title=" ">
<polygon fill="#999999" stroke="#666666" points="720.5,-261 601.5,-261 601.5,-231 720.5,-231 720.5,-261"/>
<text text-anchor="start" x="609.5" y="-249" font-family="Helvetica,sans-Serif" font-size="10.00">include/trackingLib</text>
<text text-anchor="middle" x="661" y="-238" font-family="Helvetica,sans-Serif" font-size="10.00">/math/linalg/matrix.h</text>
</a>
</g>
</g>
<!-- Node2 -->
<g id="Node000002" class="node">
<title>Node2</title>
<g id="a_Node000002"><a xlink:href="first__include_8h.html" target="_top" xlink:title=" ">
<polygon fill="white" stroke="#666666" points="327.5,-129 216.5,-129 216.5,-110 327.5,-110 327.5,-129"/>
<text text-anchor="middle" x="272" y="-117" font-family="Helvetica,sans-Serif" font-size="10.00">base/first_include.h</text>
</a>
</g>
</g>
<!-- Node1&#45;&gt;Node2 -->
<g id="edge1_Node000001_Node000002" class="edge">
<title>Node1&#45;&gt;Node2</title>
<g id="a_edge1_Node000001_Node000002"><a xlink:title=" ">
<path fill="none" stroke="#63b8ff" d="M601.48,-240.3C521.95,-233.25 385.93,-218.21 342,-195 316.58,-181.57 295.3,-155.3 283.1,-137.83"/>
<polygon fill="#63b8ff" stroke="#63b8ff" points="285.76,-135.51 277.29,-129.16 279.95,-139.41 285.76,-135.51"/>
</a>
</g>
</g>
<!-- Node8 -->
<g id="Node000008" class="node">
<title>Node8</title>
<g id="a_Node000008"><a xlink:title=" ">
<polygon fill="#e0e0e0" stroke="#999999" points="471.5,-74 388.5,-74 388.5,-55 471.5,-55 471.5,-74"/>
<text text-anchor="middle" x="430" y="-62" font-family="Helvetica,sans-Serif" font-size="10.00">initializer_list</text>
</a>
</g>
</g>
<!-- Node1&#45;&gt;Node8 -->
<g id="edge21_Node000001_Node000008" class="edge">
<title>Node1&#45;&gt;Node8</title>
<g id="a_edge21_Node000001_Node000008"><a xlink:title=" ">
<path fill="none" stroke="#63b8ff" d="M601.21,-242.26C530.15,-235.25 416.04,-211.07 375,-129 365.26,-109.52 385.6,-91.16 404.24,-79.24"/>
<polygon fill="#63b8ff" stroke="#63b8ff" points="406.07,-82.22 412.85,-74.08 402.47,-76.22 406.07,-82.22"/>
</a>
</g>
</g>
<!-- Node9 -->
<g id="Node000009" class="node">
<title>Node9</title>
<g id="a_Node000009"><a xlink:href="matrix__intf_8h.html" target="_top" xlink:title=" ">
<polygon fill="white" stroke="#666666" points="592,-195 472,-195 472,-165 592,-165 592,-195"/>
<text text-anchor="start" x="480" y="-183" font-family="Helvetica,sans-Serif" font-size="10.00">math/linalg/contracts</text>
<text text-anchor="middle" x="532" y="-172" font-family="Helvetica,sans-Serif" font-size="10.00">/matrix_intf.h</text>
</a>
</g>
</g>
<!-- Node1&#45;&gt;Node9 -->
<g id="edge8_Node000001_Node000009" class="edge">
<title>Node1&#45;&gt;Node9</title>
<g id="a_edge8_Node000001_Node000009"><a xlink:title=" ">
<path fill="none" stroke="#63b8ff" d="M632.69,-230.95C614.12,-221.74 589.64,-209.6 569.46,-199.59"/>
<polygon fill="#63b8ff" stroke="#63b8ff" points="570.76,-196.32 560.24,-195.01 567.65,-202.59 570.76,-196.32"/>
</a>
</g>
</g>
<!-- Node14 -->
<g id="Node000014" class="node">
<title>Node14</title>
<g id="a_Node000014"><a xlink:href="errors_8h.html" target="_top" xlink:title="Error types used throughout the math library.">
<polygon fill="white" stroke="#666666" points="967.5,-129 854.5,-129 854.5,-110 967.5,-110 967.5,-129"/>
<text text-anchor="middle" x="911" y="-117" font-family="Helvetica,sans-Serif" font-size="10.00">math/linalg/errors.h</text>
</a>
</g>
</g>
<!-- Node1&#45;&gt;Node14 -->
<g id="edge17_Node000001_Node000014" class="edge">
<title>Node1&#45;&gt;Node14</title>
<g id="a_edge17_Node000001_Node000014"><a xlink:title=" ">
<path fill="none" stroke="#63b8ff" d="M650.27,-230.91C638.4,-213.5 622.96,-183.88 639,-165 645.64,-157.18 765.52,-139.86 843.9,-129.28"/>
<polygon fill="#63b8ff" stroke="#63b8ff" points="844.74,-132.7 854.19,-127.9 843.81,-125.76 844.74,-132.7"/>
</a>
</g>
</g>
<!-- Node15 -->
<g id="Node000015" class="node">
<title>Node15</title>
<g id="a_Node000015"><a xlink:href="matrix__types_8h.html" target="_top" xlink:title="Type definitions and enumerations for matrix operations.">
<polygon fill="white" stroke="#666666" points="755.5,-195 648.5,-195 648.5,-165 755.5,-165 755.5,-195"/>
<text text-anchor="start" x="656.5" y="-183" font-family="Helvetica,sans-Serif" font-size="10.00">math/linalg/matrix</text>
<text text-anchor="middle" x="702" y="-172" font-family="Helvetica,sans-Serif" font-size="10.00">_types.h</text>
</a>
</g>
</g>
<!-- Node1&#45;&gt;Node15 -->
<g id="edge18_Node000001_Node000015" class="edge">
<title>Node1&#45;&gt;Node15</title>
<g id="a_edge18_Node000001_Node000015"><a xlink:title=" ">
<path fill="none" stroke="#63b8ff" d="M670.1,-230.8C675.2,-222.84 681.67,-212.74 687.45,-203.71"/>
<polygon fill="#63b8ff" stroke="#63b8ff" points="690.48,-205.47 692.93,-195.16 684.58,-201.7 690.48,-205.47"/>
</a>
</g>
</g>
<!-- Node16 -->
<g id="Node000016" class="node">
<title>Node16</title>
<g id="a_Node000016"><a xlink:title=" ">
<polygon fill="#e0e0e0" stroke="#999999" points="838,-189.5 774,-189.5 774,-170.5 838,-170.5 838,-189.5"/>
<text text-anchor="middle" x="806" y="-177.5" font-family="Helvetica,sans-Serif" font-size="10.00">algorithm</text>
</a>
</g>
</g>
<!-- Node1&#45;&gt;Node16 -->
<g id="edge19_Node000001_Node000016" class="edge">
<title>Node1&#45;&gt;Node16</title>
<g id="a_edge19_Node000001_Node000016"><a xlink:title=" ">
<path fill="none" stroke="#63b8ff" d="M692.82,-230.95C718.03,-219.83 752.93,-204.42 777.29,-193.67"/>
<polygon fill="#63b8ff" stroke="#63b8ff" points="778.97,-196.76 786.7,-189.52 776.14,-190.35 778.97,-196.76"/>
</a>
</g>
</g>
<!-- Node17 -->
<g id="Node000017" class="node">
<title>Node17</title>
<g id="a_Node000017"><a xlink:title=" ">
<polygon fill="#e0e0e0" stroke="#999999" points="898,-189.5 856,-189.5 856,-170.5 898,-170.5 898,-189.5"/>
<text text-anchor="middle" x="877" y="-177.5" font-family="Helvetica,sans-Serif" font-size="10.00">array</text>
</a>
</g>
</g>
<!-- Node1&#45;&gt;Node17 -->
<g id="edge20_Node000001_Node000017" class="edge">
<title>Node1&#45;&gt;Node17</title>
<g id="a_edge20_Node000001_Node000017"><a xlink:title=" ">
<path fill="none" stroke="#63b8ff" d="M720.87,-231.71C757.74,-222.84 805.69,-210.06 847,-195 848.21,-194.56 849.45,-194.08 850.69,-193.59"/>
<polygon fill="#63b8ff" stroke="#63b8ff" points="852.3,-196.71 860.08,-189.52 849.52,-190.28 852.3,-196.71"/>
</a>
</g>
</g>
<!-- Node18 -->
<g id="Node000018" class="node">
<title>Node18</title>
<g id="a_Node000018"><a xlink:title=" ">
<polygon fill="#e0e0e0" stroke="#999999" points="957.5,-189.5 916.5,-189.5 916.5,-170.5 957.5,-170.5 957.5,-189.5"/>
<text text-anchor="middle" x="937" y="-177.5" font-family="Helvetica,sans-Serif" font-size="10.00">tuple</text>
</a>
</g>
</g>
<!-- Node1&#45;&gt;Node18 -->
<g id="edge22_Node000001_Node000018" class="edge">
<title>Node1&#45;&gt;Node18</title>
<g id="a_edge22_Node000001_Node000018"><a xlink:title=" ">
<path fill="none" stroke="#63b8ff" d="M720.67,-236.91C771.13,-229.12 844.92,-215.48 907,-195 908.4,-194.54 909.82,-194.03 911.24,-193.49"/>
<polygon fill="#63b8ff" stroke="#63b8ff" points="912.63,-196.7 920.47,-189.57 909.89,-190.26 912.63,-196.7"/>
</a>
</g>
</g>
<!-- Node3 -->
<g id="Node000003" class="node">
<title>Node3</title>
<g id="a_Node000003"><a xlink:href="test__config_8h.html" target="_top" xlink:title=" ">
<polygon fill="white" stroke="#666666" points="259.5,-74 180.5,-74 180.5,-55 259.5,-55 259.5,-74"/>
<text text-anchor="middle" x="220" y="-62" font-family="Helvetica,sans-Serif" font-size="10.00">test_config.h</text>
</a>
</g>
</g>
<!-- Node2&#45;&gt;Node3 -->
<g id="edge2_Node000002_Node000003" class="edge">
<title>Node2&#45;&gt;Node3</title>
<g id="a_edge2_Node000002_Node000003"><a xlink:title=" ">
<path fill="none" stroke="#63b8ff" d="M263.41,-109.75C255.84,-102.03 244.62,-90.6 235.49,-81.28"/>
<polygon fill="#63b8ff" stroke="#63b8ff" points="237.93,-78.78 228.43,-74.09 232.93,-83.68 237.93,-78.78"/>
</a>
</g>
</g>
<!-- Node4 -->
<g id="Node000004" class="node">
<title>Node4</title>
<g id="a_Node000004"><a xlink:href="atomic__types_8h.html" target="_top" xlink:title=" ">
<polygon fill="white" stroke="#666666" points="370,-74 278,-74 278,-55 370,-55 370,-74"/>
<text text-anchor="middle" x="324" y="-62" font-family="Helvetica,sans-Serif" font-size="10.00">atomic_types.h</text>
</a>
</g>
</g>
<!-- Node2&#45;&gt;Node4 -->
<g id="edge3_Node000002_Node000004" class="edge">
<title>Node2&#45;&gt;Node4</title>
<g id="a_edge3_Node000002_Node000004"><a xlink:title=" ">
<path fill="none" stroke="#63b8ff" d="M280.59,-109.75C288.16,-102.03 299.38,-90.6 308.51,-81.28"/>
<polygon fill="#63b8ff" stroke="#63b8ff" points="311.07,-83.68 315.57,-74.09 306.07,-78.78 311.07,-83.68"/>
</a>
</g>
</g>
<!-- Node6 -->
<g id="Node000006" class="node">
<title>Node6</title>
<g id="a_Node000006"><a xlink:title=" ">
<polygon fill="#e0e0e0" stroke="#999999" points="92,-74 0,-74 0,-55 92,-55 92,-74"/>
<text text-anchor="middle" x="46" y="-62" font-family="Helvetica,sans-Serif" font-size="10.00">tl/expected.hpp</text>
</a>
</g>
</g>
<!-- Node2&#45;&gt;Node6 -->
<g id="edge5_Node000002_Node000006" class="edge">
<title>Node2&#45;&gt;Node6</title>
<g id="a_edge5_Node000002_Node000006"><a xlink:title=" ">
<path fill="none" stroke="#63b8ff" d="M235.69,-109.98C196.76,-100.86 134.84,-86.33 92.4,-76.38"/>
<polygon fill="#63b8ff" stroke="#63b8ff" points="93.13,-72.96 82.6,-74.08 91.53,-79.77 93.13,-72.96"/>
</a>
</g>
</g>
<!-- Node7 -->
<g id="Node000007" class="node">
<title>Node7</title>
<g id="a_Node000007"><a xlink:title=" ">
<polygon fill="#e0e0e0" stroke="#999999" points="162,-74 110,-74 110,-55 162,-55 162,-74"/>
<text text-anchor="middle" x="136" y="-62" font-family="Helvetica,sans-Serif" font-size="10.00">cassert</text>
</a>
</g>
</g>
<!-- Node2&#45;&gt;Node7 -->
<g id="edge6_Node000002_Node000007" class="edge">
<title>Node2&#45;&gt;Node7</title>
<g id="a_edge6_Node000002_Node000007"><a xlink:title=" ">
<path fill="none" stroke="#63b8ff" d="M250.15,-109.98C227.88,-101.3 193.1,-87.75 167.78,-77.88"/>
<polygon fill="#63b8ff" stroke="#63b8ff" points="168.84,-74.54 158.25,-74.17 166.29,-81.06 168.84,-74.54"/>
</a>
</g>
</g>
<!-- Node2&#45;&gt;Node8 -->
<g id="edge7_Node000002_Node000008" class="edge">
<title>Node2&#45;&gt;Node8</title>
<g id="a_edge7_Node000002_Node000008"><a xlink:title=" ">
<path fill="none" stroke="#63b8ff" d="M297.39,-109.98C323.8,-101.13 365.35,-87.19 394.89,-77.28"/>
<polygon fill="#63b8ff" stroke="#63b8ff" points="396.05,-80.58 404.42,-74.08 393.82,-73.94 396.05,-80.58"/>
</a>
</g>
</g>
<!-- Node5 -->
<g id="Node000005" class="node">
<title>Node5</title>
<g id="a_Node000005"><a xlink:title=" ">
<polygon fill="#e0e0e0" stroke="#999999" points="349,-19 299,-19 299,0 349,0 349,-19"/>
<text text-anchor="middle" x="324" y="-7" font-family="Helvetica,sans-Serif" font-size="10.00">cstdint</text>
</a>
</g>
</g>
<!-- Node4&#45;&gt;Node5 -->
<g id="edge4_Node000004_Node000005" class="edge">
<title>Node4&#45;&gt;Node5</title>
<g id="a_edge4_Node000004_Node000005"><a xlink:title=" ">
<path fill="none" stroke="#63b8ff" d="M324,-54.75C324,-47.8 324,-37.85 324,-29.13"/>
<polygon fill="#63b8ff" stroke="#63b8ff" points="327.5,-29.09 324,-19.09 320.5,-29.09 327.5,-29.09"/>
</a>
</g>
</g>
<!-- Node9&#45;&gt;Node2 -->
<g id="edge9_Node000009_Node000002" class="edge">
<title>Node9&#45;&gt;Node2</title>
<g id="a_edge9_Node000009_Node000002"><a xlink:title=" ">
<path fill="none" stroke="#63b8ff" d="M471.7,-165.43C425.45,-155.03 362.5,-140.86 319.72,-131.24"/>
<polygon fill="#63b8ff" stroke="#63b8ff" points="320.37,-127.79 309.84,-129.01 318.83,-134.62 320.37,-127.79"/>
</a>
</g>
</g>
<!-- Node10 -->
<g id="Node000010" class="node">
<title>Node10</title>
<g id="a_Node000010"><a xlink:href="interface__contract_8h.html" target="_top" xlink:title=" ">
<polygon fill="white" stroke="#666666" points="524,-129 384,-129 384,-110 524,-110 524,-129"/>
<text text-anchor="middle" x="454" y="-117" font-family="Helvetica,sans-Serif" font-size="10.00">base/interface_contract.h</text>
</a>
</g>
</g>
<!-- Node9&#45;&gt;Node10 -->
<g id="edge10_Node000009_Node000010" class="edge">
<title>Node9&#45;&gt;Node10</title>
<g id="a_edge10_Node000009_Node000010"><a xlink:title=" ">
<path fill="none" stroke="#63b8ff" d="M513.12,-164.84C501.22,-155.91 485.88,-144.41 473.8,-135.35"/>
<polygon fill="#63b8ff" stroke="#63b8ff" points="475.79,-132.47 465.69,-129.27 471.59,-138.07 475.79,-132.47"/>
</a>
</g>
</g>
<!-- Node12 -->
<g id="Node000012" class="node">
<title>Node12</title>
<g id="a_Node000012"><a xlink:href="require__copy__intf_8h.html" target="_top" xlink:title=" ">
<polygon fill="white" stroke="#666666" points="678,-129 542,-129 542,-110 678,-110 678,-129"/>
<text text-anchor="middle" x="610" y="-117" font-family="Helvetica,sans-Serif" font-size="10.00">base/require_copy_intf.h</text>
</a>
</g>
</g>
<!-- Node9&#45;&gt;Node12 -->
<g id="edge12_Node000009_Node000012" class="edge">
<title>Node9&#45;&gt;Node12</title>
<g id="a_edge12_Node000009_Node000012"><a xlink:title=" ">
<path fill="none" stroke="#63b8ff" d="M550.88,-164.84C562.78,-155.91 578.12,-144.41 590.2,-135.35"/>
<polygon fill="#63b8ff" stroke="#63b8ff" points="592.41,-138.07 598.31,-129.27 588.21,-132.47 592.41,-138.07"/>
</a>
</g>
</g>
<!-- Node13 -->
<g id="Node000013" class="node">
<title>Node13</title>
<g id="a_Node000013"><a xlink:href="require__move__intf_8h.html" target="_top" xlink:title=" ">
<polygon fill="white" stroke="#666666" points="836,-129 696,-129 696,-110 836,-110 836,-129"/>
<text text-anchor="middle" x="766" y="-117" font-family="Helvetica,sans-Serif" font-size="10.00">base/require_move_intf.h</text>
</a>
</g>
</g>
<!-- Node9&#45;&gt;Node13 -->
<g id="edge14_Node000009_Node000013" class="edge">
<title>Node9&#45;&gt;Node13</title>
<g id="a_edge14_Node000009_Node000013"><a xlink:title=" ">
<path fill="none" stroke="#63b8ff" d="M588.05,-164.99C629.13,-154.72 684.12,-140.97 722.05,-131.49"/>
<polygon fill="#63b8ff" stroke="#63b8ff" points="722.93,-134.87 731.79,-129.05 721.24,-128.08 722.93,-134.87"/>
</a>
</g>
</g>
<!-- Node9&#45;&gt;Node14 -->
<g id="edge16_Node000009_Node000014" class="edge">
<title>Node9&#45;&gt;Node14</title>
<g id="a_edge16_Node000009_Node000014"><a xlink:title=" ">
<path fill="none" stroke="#63b8ff" d="M592.14,-167.4C596.82,-166.57 601.49,-165.76 606,-165 687.86,-151.29 782.5,-137.86 844.37,-129.4"/>
<polygon fill="#63b8ff" stroke="#63b8ff" points="844.96,-132.85 854.39,-128.03 844.01,-125.92 844.96,-132.85"/>
</a>
</g>
</g>
<!-- Node11 -->
<g id="Node000011" class="node">
<title>Node11</title>
<g id="a_Node000011"><a xlink:title=" ">
<polygon fill="#e0e0e0" stroke="#999999" points="644.5,-74 575.5,-74 575.5,-55 644.5,-55 644.5,-74"/>
<text text-anchor="middle" x="610" y="-62" font-family="Helvetica,sans-Serif" font-size="10.00">type_traits</text>
</a>
</g>
</g>
<!-- Node10&#45;&gt;Node11 -->
<g id="edge11_Node000010_Node000011" class="edge">
<title>Node10&#45;&gt;Node11</title>
<g id="a_edge11_Node000010_Node000011"><a xlink:title=" ">
<path fill="none" stroke="#63b8ff" d="M479.06,-109.98C505.03,-101.16 545.81,-87.31 574.96,-77.41"/>
<polygon fill="#63b8ff" stroke="#63b8ff" points="576.4,-80.61 584.74,-74.08 574.15,-73.99 576.4,-80.61"/>
</a>
</g>
</g>
<!-- Node12&#45;&gt;Node11 -->
<g id="edge13_Node000012_Node000011" class="edge">
<title>Node12&#45;&gt;Node11</title>
<g id="a_edge13_Node000012_Node000011"><a xlink:title=" ">
<path fill="none" stroke="#63b8ff" d="M610,-109.75C610,-102.8 610,-92.85 610,-84.13"/>
<polygon fill="#63b8ff" stroke="#63b8ff" points="613.5,-84.09 610,-74.09 606.5,-84.09 613.5,-84.09"/>
</a>
</g>
</g>
<!-- Node13&#45;&gt;Node11 -->
<g id="edge15_Node000013_Node000011" class="edge">
<title>Node13&#45;&gt;Node11</title>
<g id="a_edge15_Node000013_Node000011"><a xlink:title=" ">
<path fill="none" stroke="#63b8ff" d="M740.94,-109.98C714.97,-101.16 674.19,-87.31 645.04,-77.41"/>
<polygon fill="#63b8ff" stroke="#63b8ff" points="645.85,-73.99 635.26,-74.08 643.6,-80.61 645.85,-73.99"/>
</a>
</g>
</g>
</g>
</svg>

<g id="navigator" transform="translate(0 0)" fill="#404254">
  <rect fill="#f2f5e9" fill-opacity="0.5" stroke="#606060" stroke-width=".5" x="0" y="0" width="60" height="60"/>
  <use id="zoomplus" xlink:href="#zoomPlus" x="17" y="9" onmousedown="handleZoom(evt,'in')"/>
  <use id="zoomminus" xlink:href="#zoomMin" x="42" y="9" onmousedown="handleZoom(evt,'out')"/>
  <use id="reset" xlink:href="#resetDef" x="30" y="36" onmousedown="handleReset()"/>
   <use id="arrowup" xlink:href="#arrowUp" x="0" y="0" onmousedown="handlePan(0,-1)"/>
  <use id="arrowright" xlink:href="#arrowRight" x="0" y="0" onmousedown="handlePan(1,0)"/>
  <use id="arrowdown" xlink:href="#arrowDown" x="0" y="0" onmousedown="handlePan(0,1)"/>
  <use id="arrowleft" xlink:href="#arrowLeft" x="0" y="0" onmousedown="handlePan(-1,0)"/>
</g>
<svg viewBox="0 0 15 15" width="100%" height="30px" preserveAspectRatio="xMaxYMin meet">
 <g id="arrow_out" transform="scale(0.3 0.3)">
  <a xlink:href="matrix_8h__incl_org.svg" target="_base">
   <rect id="button" ry="5" rx="5" y="6" x="6" height="38" width="38"
        fill="#f2f5e9" fill-opacity="0.5" stroke="#606060" stroke-width="1.0"/>
   <path id="arrow"
     d="M 11.500037,31.436501 C 11.940474,20.09759 22.043105,11.32322 32.158766,21.979434 L 37.068811,17.246167 C 37.068811,17.246167 37.088388,32 37.088388,32 L 22.160133,31.978069 C 22.160133,31.978069 26.997745,27.140456 26.997745,27.140456 C 18.528582,18.264221 13.291696,25.230495 11.500037,31.436501 z"
     style="fill:#404040;"/>
  </a>
 </g>
</svg>

<style type='text/css'>
<![CDATA[
[data-mouse-over-selected='false'] { opacity: 0.7; }
[data-mouse-over-selected='true']  { opacity: 1.0; }
]]>
</style>
<script type="application/ecmascript"><![CDATA[
document.addEventListener('DOMContentLoaded', (event) => {
  highlightEdges();
  highlightAdjacentNodes();
});
]]></script>
</svg>
