<?xml version="1.0" encoding="UTF-8" standalone="no"?>
<!DOCTYPE svg PUBLIC "-//W3C//DTD SVG 1.1//EN"
 "http://www.w3.org/Graphics/SVG/1.1/DTD/svg11.dtd">
<!-- Generated by graphviz version 2.43.0 (0)
 -->
<!-- Title: include/trackingLib/math/linalg/matrix_row_view.hpp Pages: 1 -->
<!--zoomable 522 -->

<svg id="main" version="1.1" xmlns="http://www.w3.org/2000/svg" xmlns:xlink="http://www.w3.org/1999/xlink" xml:space="preserve" onload="init(evt)">
<style type="text/css"><![CDATA[
.node, .edge {opacity: 0.7;}
.node.selected, .edge.selected {opacity: 1;}
.edge:hover path { stroke: red; }
.edge:hover polygon { stroke: red; fill: red; }
]]></style>

<defs>
  <circle id="rim" cx="0" cy="0" r="7"/>
  <circle id="rim2" cx="0" cy="0" r="3.5"/>
  <g id="zoomPlus">
    <use xlink:href="#rim" fill="#404040"><set attributeName="fill" to="#808080" begin="zoomplus.mouseover" end="zoomplus.mouseout"/></use>
    <path d="M-4,0h8M0,-4v8" fill="none" stroke="white" stroke-width="1.5" pointer-events="none"/>
  </g>
  <g id="zoomMin">
    <use xlink:href="#rim" fill="#404040"><set attributeName="fill" to="#808080" begin="zoomminus.mouseover" end="zoomminus.mouseout"/></use>
    <path d="M-4,0h8" fill="none" stroke="white" stroke-width="1.5" pointer-events="none"/>
  </g>
  <g id="arrowUp" transform="translate(30 24)">
    <use xlink:href="#rim"/>
    <path pointer-events="none" fill="none" stroke="white" stroke-width="1.5" d="M0,-3.0v7 M-2.5,-0.5L0,-3.0L2.5,-0.5"/>
  </g>
  <g id="arrowRight" transform="rotate(90) translate(36 -43)">
    <use xlink:href="#rim"/>
    <path pointer-events="none" fill="none" stroke="white" stroke-width="1.5" d="M0,-3.0v7 M-2.5,-0.5L0,-3.0L2.5,-0.5"/>
  </g>
  <g id="arrowDown" transform="rotate(180) translate(-30 -48)">
    <use xlink:href="#rim"/>
    <path pointer-events="none" fill="none" stroke="white" stroke-width="1.5" d="M0,-3.0v7 M-2.5,-0.5L0,-3.0L2.5,-0.5"/>
  </g>
  <g id="arrowLeft" transform="rotate(270) translate(-36 17)">
    <use xlink:href="#rim"/>
    <path pointer-events="none" fill="none" stroke="white" stroke-width="1.5" d="M0,-3.0v7 M-2.5,-0.5L0,-3.0L2.5,-0.5"/>
  </g>
  <g id="resetDef">
    <use xlink:href="#rim2" fill="#404040"><set attributeName="fill" to="#808080" begin="reset.mouseover" end="reset.mouseout"/></use>
  </g>
</defs>
<script type="application/ecmascript">
var viewWidth = 1279;
var viewHeight = 522;
var sectionId = 'dynsection-0';
</script>
<script type="application/ecmascript" xlink:href="svg.min.js"/>
<svg id="graph" class="graph">
<g id="viewport">
<title>include/trackingLib/math/linalg/matrix_row_view.hpp</title>
<!-- Node1 -->
<g id="Node000001" class="node">
<title>Node1</title>
<g id="a_Node000001"><a xlink:title=" ">
<polygon fill="#999999" stroke="#666666" points="897,-514 787,-514 787,-473 897,-473 897,-514"/>
<text text-anchor="start" x="795" y="-502" font-family="Helvetica,sans-Serif" font-size="10.00">include/trackingLib</text>
<text text-anchor="start" x="795" y="-491" font-family="Helvetica,sans-Serif" font-size="10.00">/math/linalg/matrix</text>
<text text-anchor="middle" x="842" y="-480" font-family="Helvetica,sans-Serif" font-size="10.00">_row_view.hpp</text>
</a>
</g>
</g>
<!-- Node2 -->
<g id="Node000002" class="node">
<title>Node2</title>
<g id="a_Node000002"><a xlink:href="matrix__row__view_8h.html" target="_top" xlink:title=" ">
<polygon fill="white" stroke="#666666" points="569.5,-371 462.5,-371 462.5,-341 569.5,-341 569.5,-371"/>
<text text-anchor="start" x="470.5" y="-359" font-family="Helvetica,sans-Serif" font-size="10.00">math/linalg/matrix</text>
<text text-anchor="middle" x="516" y="-348" font-family="Helvetica,sans-Serif" font-size="10.00">_row_view.h</text>
</a>
</g>
</g>
<!-- Node1&#45;&gt;Node2 -->
<g id="edge1_Node000001_Node000002" class="edge">
<title>Node1&#45;&gt;Node2</title>
<g id="a_edge1_Node000001_Node000002"><a xlink:title=" ">
<path fill="none" stroke="#63b8ff" d="M794.94,-472.94C731.85,-446.71 620.68,-400.51 559.47,-375.07"/>
<polygon fill="#63b8ff" stroke="#63b8ff" points="560.67,-371.77 550.09,-371.17 557.98,-378.24 560.67,-371.77"/>
</a>
</g>
</g>
<!-- Node22 -->
<g id="Node000022" class="node">
<title>Node22</title>
<g id="a_Node000022"><a xlink:href="matrix_8hpp.html" target="_top" xlink:title=" ">
<polygon fill="white" stroke="#666666" points="1038,-305 910,-305 910,-286 1038,-286 1038,-305"/>
<text text-anchor="middle" x="974" y="-293" font-family="Helvetica,sans-Serif" font-size="10.00">math/linalg/matrix.hpp</text>
</a>
</g>
</g>
<!-- Node1&#45;&gt;Node22 -->
<g id="edge30_Node000001_Node000022" class="edge">
<title>Node1&#45;&gt;Node22</title>
<g id="a_edge30_Node000001_Node000022"><a xlink:title=" ">
<path fill="none" stroke="#63b8ff" d="M849.38,-472.92C864.41,-433.18 897.53,-346.34 902,-341 913.22,-327.6 929.56,-317.04 943.84,-309.58"/>
<polygon fill="#63b8ff" stroke="#63b8ff" points="945.43,-312.7 952.85,-305.13 942.33,-306.42 945.43,-312.7"/>
</a>
</g>
</g>
<!-- Node28 -->
<g id="Node000028" class="node">
<title>Node28</title>
<g id="a_Node000028"><a xlink:href="matrix__column__view_8hpp.html" target="_top" xlink:title=" ">
<polygon fill="white" stroke="#666666" points="854.5,-437 747.5,-437 747.5,-407 854.5,-407 854.5,-437"/>
<text text-anchor="start" x="755.5" y="-425" font-family="Helvetica,sans-Serif" font-size="10.00">math/linalg/matrix</text>
<text text-anchor="middle" x="801" y="-414" font-family="Helvetica,sans-Serif" font-size="10.00">_column_view.hpp</text>
</a>
</g>
</g>
<!-- Node1&#45;&gt;Node28 -->
<g id="edge39_Node000001_Node000028" class="edge">
<title>Node1&#45;&gt;Node28</title>
<g id="a_edge39_Node000001_Node000028"><a xlink:title=" ">
<path fill="none" stroke="#63b8ff" d="M830.36,-472.77C825.42,-464.4 819.64,-454.59 814.51,-445.9"/>
<polygon fill="#63b8ff" stroke="#63b8ff" points="817.38,-443.87 809.28,-437.04 811.35,-447.43 817.38,-443.87"/>
</a>
</g>
</g>
<!-- Node30 -->
<g id="Node000030" class="node">
<title>Node30</title>
<g id="a_Node000030"><a xlink:href="vector_8hpp.html" target="_top" xlink:title=" ">
<polygon fill="white" stroke="#666666" points="1037,-365.5 911,-365.5 911,-346.5 1037,-346.5 1037,-365.5"/>
<text text-anchor="middle" x="974" y="-353.5" font-family="Helvetica,sans-Serif" font-size="10.00">math/linalg/vector.hpp</text>
</a>
</g>
</g>
<!-- Node1&#45;&gt;Node30 -->
<g id="edge45_Node000001_Node000030" class="edge">
<title>Node1&#45;&gt;Node30</title>
<g id="a_edge45_Node000001_Node000030"><a xlink:title=" ">
<path fill="none" stroke="#63b8ff" d="M861.67,-472.79C872.19,-462.22 885.34,-448.94 897,-437 918.33,-415.16 942.74,-389.72 958.26,-373.5"/>
<polygon fill="#63b8ff" stroke="#63b8ff" points="961.12,-375.57 965.5,-365.92 956.06,-370.73 961.12,-375.57"/>
</a>
</g>
</g>
<!-- Node3 -->
<g id="Node000003" class="node">
<title>Node3</title>
<g id="a_Node000003"><a xlink:href="first__include_8h.html" target="_top" xlink:title=" ">
<polygon fill="white" stroke="#666666" points="362.5,-129 251.5,-129 251.5,-110 362.5,-110 362.5,-129"/>
<text text-anchor="middle" x="307" y="-117" font-family="Helvetica,sans-Serif" font-size="10.00">base/first_include.h</text>
</a>
</g>
</g>
<!-- Node2&#45;&gt;Node3 -->
<g id="edge2_Node000002_Node000003" class="edge">
<title>Node2&#45;&gt;Node3</title>
<g id="a_edge2_Node000002_Node000003"><a xlink:title=" ">
<path fill="none" stroke="#63b8ff" d="M462.3,-350.04C405.31,-343.54 320.78,-329.91 301,-305 262.17,-256.1 285.92,-174.76 299.49,-138.69"/>
<polygon fill="#63b8ff" stroke="#63b8ff" points="302.88,-139.62 303.29,-129.03 296.37,-137.05 302.88,-139.62"/>
</a>
</g>
</g>
<!-- Node10 -->
<g id="Node000010" class="node">
<title>Node10</title>
<g id="a_Node000010"><a xlink:href="matrix_8h.html" target="_top" xlink:title=" ">
<polygon fill="white" stroke="#666666" points="689,-250 573,-250 573,-231 689,-231 689,-250"/>
<text text-anchor="middle" x="631" y="-238" font-family="Helvetica,sans-Serif" font-size="10.00">math/linalg/matrix.h</text>
</a>
</g>
</g>
<!-- Node2&#45;&gt;Node10 -->
<g id="edge9_Node000002_Node000010" class="edge">
<title>Node2&#45;&gt;Node10</title>
<g id="a_edge9_Node000002_Node000010"><a xlink:title=" ">
<path fill="none" stroke="#63b8ff" d="M513.49,-340.81C511.65,-325.7 511.2,-301.83 523,-286 534.92,-270.01 553.62,-259.74 572.14,-253.15"/>
<polygon fill="#63b8ff" stroke="#63b8ff" points="573.33,-256.44 581.76,-250.03 571.17,-249.78 573.33,-256.44"/>
</a>
</g>
</g>
<!-- Node21 -->
<g id="Node000021" class="node">
<title>Node21</title>
<g id="a_Node000021"><a xlink:href="vector_8h.html" target="_top" xlink:title=" ">
<polygon fill="white" stroke="#666666" points="646,-305 532,-305 532,-286 646,-286 646,-305"/>
<text text-anchor="middle" x="589" y="-293" font-family="Helvetica,sans-Serif" font-size="10.00">math/linalg/vector.h</text>
</a>
</g>
</g>
<!-- Node2&#45;&gt;Node21 -->
<g id="edge26_Node000002_Node000021" class="edge">
<title>Node2&#45;&gt;Node21</title>
<g id="a_edge26_Node000002_Node000021"><a xlink:title=" ">
<path fill="none" stroke="#63b8ff" d="M533.67,-340.84C544.7,-332 558.89,-320.63 570.13,-311.62"/>
<polygon fill="#63b8ff" stroke="#63b8ff" points="572.45,-314.25 578.06,-305.27 568.07,-308.79 572.45,-314.25"/>
</a>
</g>
</g>
<!-- Node4 -->
<g id="Node000004" class="node">
<title>Node4</title>
<g id="a_Node000004"><a xlink:href="test__config_8h.html" target="_top" xlink:title=" ">
<polygon fill="white" stroke="#666666" points="369.5,-74 290.5,-74 290.5,-55 369.5,-55 369.5,-74"/>
<text text-anchor="middle" x="330" y="-62" font-family="Helvetica,sans-Serif" font-size="10.00">test_config.h</text>
</a>
</g>
</g>
<!-- Node3&#45;&gt;Node4 -->
<g id="edge3_Node000003_Node000004" class="edge">
<title>Node3&#45;&gt;Node4</title>
<g id="a_edge3_Node000003_Node000004"><a xlink:title=" ">
<path fill="none" stroke="#63b8ff" d="M310.8,-109.75C313.91,-102.57 318.42,-92.18 322.29,-83.27"/>
<polygon fill="#63b8ff" stroke="#63b8ff" points="325.5,-84.66 326.27,-74.09 319.08,-81.87 325.5,-84.66"/>
</a>
</g>
</g>
<!-- Node5 -->
<g id="Node000005" class="node">
<title>Node5</title>
<g id="a_Node000005"><a xlink:href="atomic__types_8h.html" target="_top" xlink:title=" ">
<polygon fill="white" stroke="#666666" points="92,-74 0,-74 0,-55 92,-55 92,-74"/>
<text text-anchor="middle" x="46" y="-62" font-family="Helvetica,sans-Serif" font-size="10.00">atomic_types.h</text>
</a>
</g>
</g>
<!-- Node3&#45;&gt;Node5 -->
<g id="edge4_Node000003_Node000005" class="edge">
<title>Node3&#45;&gt;Node5</title>
<g id="a_edge4_Node000003_Node000005"><a xlink:title=" ">
<path fill="none" stroke="#63b8ff" d="M265.07,-109.98C219.73,-100.78 147.39,-86.09 98.35,-76.13"/>
<polygon fill="#63b8ff" stroke="#63b8ff" points="98.76,-72.64 88.26,-74.08 97.37,-79.5 98.76,-72.64"/>
</a>
</g>
</g>
<!-- Node7 -->
<g id="Node000007" class="node">
<title>Node7</title>
<g id="a_Node000007"><a xlink:title=" ">
<polygon fill="#e0e0e0" stroke="#999999" points="202,-74 110,-74 110,-55 202,-55 202,-74"/>
<text text-anchor="middle" x="156" y="-62" font-family="Helvetica,sans-Serif" font-size="10.00">tl/expected.hpp</text>
</a>
</g>
</g>
<!-- Node3&#45;&gt;Node7 -->
<g id="edge6_Node000003_Node000007" class="edge">
<title>Node3&#45;&gt;Node7</title>
<g id="a_edge6_Node000003_Node000007"><a xlink:title=" ">
<path fill="none" stroke="#63b8ff" d="M282.74,-109.98C257.68,-101.19 218.37,-87.39 190.17,-77.49"/>
<polygon fill="#63b8ff" stroke="#63b8ff" points="191.3,-74.18 180.7,-74.17 188.98,-80.78 191.3,-74.18"/>
</a>
</g>
</g>
<!-- Node8 -->
<g id="Node000008" class="node">
<title>Node8</title>
<g id="a_Node000008"><a xlink:title=" ">
<polygon fill="#e0e0e0" stroke="#999999" points="272,-74 220,-74 220,-55 272,-55 272,-74"/>
<text text-anchor="middle" x="246" y="-62" font-family="Helvetica,sans-Serif" font-size="10.00">cassert</text>
</a>
</g>
</g>
<!-- Node3&#45;&gt;Node8 -->
<g id="edge7_Node000003_Node000008" class="edge">
<title>Node3&#45;&gt;Node8</title>
<g id="a_edge7_Node000003_Node000008"><a xlink:title=" ">
<path fill="none" stroke="#63b8ff" d="M297.2,-109.98C288.18,-102.15 274.59,-90.34 263.68,-80.86"/>
<polygon fill="#63b8ff" stroke="#63b8ff" points="265.82,-78.09 255.98,-74.17 261.23,-83.37 265.82,-78.09"/>
</a>
</g>
</g>
<!-- Node9 -->
<g id="Node000009" class="node">
<title>Node9</title>
<g id="a_Node000009"><a xlink:title=" ">
<polygon fill="#e0e0e0" stroke="#999999" points="470.5,-74 387.5,-74 387.5,-55 470.5,-55 470.5,-74"/>
<text text-anchor="middle" x="429" y="-62" font-family="Helvetica,sans-Serif" font-size="10.00">initializer_list</text>
</a>
</g>
</g>
<!-- Node3&#45;&gt;Node9 -->
<g id="edge8_Node000003_Node000009" class="edge">
<title>Node3&#45;&gt;Node9</title>
<g id="a_edge8_Node000003_Node000009"><a xlink:title=" ">
<path fill="none" stroke="#63b8ff" d="M326.6,-109.98C346.32,-101.42 376.95,-88.11 399.58,-78.28"/>
<polygon fill="#63b8ff" stroke="#63b8ff" points="401.26,-81.37 409.04,-74.17 398.48,-74.94 401.26,-81.37"/>
</a>
</g>
</g>
<!-- Node6 -->
<g id="Node000006" class="node">
<title>Node6</title>
<g id="a_Node000006"><a xlink:title=" ">
<polygon fill="#e0e0e0" stroke="#999999" points="71,-19 21,-19 21,0 71,0 71,-19"/>
<text text-anchor="middle" x="46" y="-7" font-family="Helvetica,sans-Serif" font-size="10.00">cstdint</text>
</a>
</g>
</g>
<!-- Node5&#45;&gt;Node6 -->
<g id="edge5_Node000005_Node000006" class="edge">
<title>Node5&#45;&gt;Node6</title>
<g id="a_edge5_Node000005_Node000006"><a xlink:title=" ">
<path fill="none" stroke="#63b8ff" d="M46,-54.75C46,-47.8 46,-37.85 46,-29.13"/>
<polygon fill="#63b8ff" stroke="#63b8ff" points="49.5,-29.09 46,-19.09 42.5,-29.09 49.5,-29.09"/>
</a>
</g>
</g>
<!-- Node10&#45;&gt;Node3 -->
<g id="edge10_Node000010_Node000003" class="edge">
<title>Node10&#45;&gt;Node3</title>
<g id="a_edge10_Node000010_Node000003"><a xlink:title=" ">
<path fill="none" stroke="#63b8ff" d="M581.85,-230.98C544.43,-223.68 492.03,-211.69 448,-195 404,-178.32 356.27,-150.95 329.16,-134.44"/>
<polygon fill="#63b8ff" stroke="#63b8ff" points="330.82,-131.35 320.48,-129.08 327.15,-137.31 330.82,-131.35"/>
</a>
</g>
</g>
<!-- Node10&#45;&gt;Node9 -->
<g id="edge24_Node000010_Node000009" class="edge">
<title>Node10&#45;&gt;Node9</title>
<g id="a_edge24_Node000010_Node000009"><a xlink:title=" ">
<path fill="none" stroke="#63b8ff" d="M625.84,-230.72C616.25,-215.16 594.15,-182.68 567,-165 520.7,-134.84 487.01,-168.13 448,-129 436.2,-117.17 431.68,-98.33 429.97,-84.24"/>
<polygon fill="#63b8ff" stroke="#63b8ff" points="433.45,-83.85 429.12,-74.19 426.47,-84.44 433.45,-83.85"/>
</a>
</g>
</g>
<!-- Node11 -->
<g id="Node000011" class="node">
<title>Node11</title>
<g id="a_Node000011"><a xlink:href="matrix__intf_8h.html" target="_top" xlink:title=" ">
<polygon fill="white" stroke="#666666" points="735,-195 615,-195 615,-165 735,-165 735,-195"/>
<text text-anchor="start" x="623" y="-183" font-family="Helvetica,sans-Serif" font-size="10.00">math/linalg/contracts</text>
<text text-anchor="middle" x="675" y="-172" font-family="Helvetica,sans-Serif" font-size="10.00">/matrix_intf.h</text>
</a>
</g>
</g>
<!-- Node10&#45;&gt;Node11 -->
<g id="edge11_Node000010_Node000011" class="edge">
<title>Node10&#45;&gt;Node11</title>
<g id="a_edge11_Node000010_Node000011"><a xlink:title=" ">
<path fill="none" stroke="#63b8ff" d="M637.49,-230.87C642.97,-223.59 651.04,-212.85 658.3,-203.2"/>
<polygon fill="#63b8ff" stroke="#63b8ff" points="661.17,-205.21 664.38,-195.11 655.58,-201 661.17,-205.21"/>
</a>
</g>
</g>
<!-- Node16 -->
<g id="Node000016" class="node">
<title>Node16</title>
<g id="a_Node000016"><a xlink:href="errors_8h.html" target="_top" xlink:title="Error types used throughout the math library.">
<polygon fill="white" stroke="#666666" points="1040.5,-129 927.5,-129 927.5,-110 1040.5,-110 1040.5,-129"/>
<text text-anchor="middle" x="984" y="-117" font-family="Helvetica,sans-Serif" font-size="10.00">math/linalg/errors.h</text>
</a>
</g>
</g>
<!-- Node10&#45;&gt;Node16 -->
<g id="edge20_Node000010_Node000016" class="edge">
<title>Node10&#45;&gt;Node16</title>
<g id="a_edge20_Node000010_Node000016"><a xlink:title=" ">
<path fill="none" stroke="#63b8ff" d="M689.02,-236.25C738.66,-231.73 811.05,-220.9 869,-195 888.97,-186.08 889.86,-177.22 908,-165 924.59,-153.82 944.08,-142.45 959.16,-134"/>
<polygon fill="#63b8ff" stroke="#63b8ff" points="960.88,-137.05 967.92,-129.14 957.48,-130.93 960.88,-137.05"/>
</a>
</g>
</g>
<!-- Node17 -->
<g id="Node000017" class="node">
<title>Node17</title>
<g id="a_Node000017"><a xlink:href="matrix__types_8h.html" target="_top" xlink:title="Type definitions and enumerations for matrix operations.">
<polygon fill="white" stroke="#666666" points="860.5,-195 753.5,-195 753.5,-165 860.5,-165 860.5,-195"/>
<text text-anchor="start" x="761.5" y="-183" font-family="Helvetica,sans-Serif" font-size="10.00">math/linalg/matrix</text>
<text text-anchor="middle" x="807" y="-172" font-family="Helvetica,sans-Serif" font-size="10.00">_types.h</text>
</a>
</g>
</g>
<!-- Node10&#45;&gt;Node17 -->
<g id="edge21_Node000010_Node000017" class="edge">
<title>Node10&#45;&gt;Node17</title>
<g id="a_edge21_Node000010_Node000017"><a xlink:title=" ">
<path fill="none" stroke="#63b8ff" d="M656.59,-230.99C682.25,-222.46 722.5,-209.09 754.91,-198.32"/>
<polygon fill="#63b8ff" stroke="#63b8ff" points="756.3,-201.54 764.69,-195.06 754.09,-194.9 756.3,-201.54"/>
</a>
</g>
</g>
<!-- Node18 -->
<g id="Node000018" class="node">
<title>Node18</title>
<g id="a_Node000018"><a xlink:title=" ">
<polygon fill="#e0e0e0" stroke="#999999" points="981,-189.5 917,-189.5 917,-170.5 981,-170.5 981,-189.5"/>
<text text-anchor="middle" x="949" y="-177.5" font-family="Helvetica,sans-Serif" font-size="10.00">algorithm</text>
</a>
</g>
</g>
<!-- Node10&#45;&gt;Node18 -->
<g id="edge22_Node000010_Node000018" class="edge">
<title>Node10&#45;&gt;Node18</title>
<g id="a_edge22_Node000010_Node000018"><a xlink:title=" ">
<path fill="none" stroke="#63b8ff" d="M689.01,-232.29C744.38,-224.87 829.95,-212.01 903,-195 906.35,-194.22 909.82,-193.33 913.28,-192.38"/>
<polygon fill="#63b8ff" stroke="#63b8ff" points="914.25,-195.74 922.89,-189.61 912.31,-189.01 914.25,-195.74"/>
</a>
</g>
</g>
<!-- Node19 -->
<g id="Node000019" class="node">
<title>Node19</title>
<g id="a_Node000019"><a xlink:title=" ">
<polygon fill="#e0e0e0" stroke="#999999" points="499,-189.5 457,-189.5 457,-170.5 499,-170.5 499,-189.5"/>
<text text-anchor="middle" x="478" y="-177.5" font-family="Helvetica,sans-Serif" font-size="10.00">array</text>
</a>
</g>
</g>
<!-- Node10&#45;&gt;Node19 -->
<g id="edge23_Node000010_Node000019" class="edge">
<title>Node10&#45;&gt;Node19</title>
<g id="a_edge23_Node000010_Node000019"><a xlink:title=" ">
<path fill="none" stroke="#63b8ff" d="M605.3,-230.95C580.24,-222.44 541.16,-208.7 508,-195 506.99,-194.58 505.97,-194.15 504.93,-193.71"/>
<polygon fill="#63b8ff" stroke="#63b8ff" points="506.21,-190.44 495.65,-189.56 503.35,-196.83 506.21,-190.44"/>
</a>
</g>
</g>
<!-- Node20 -->
<g id="Node000020" class="node">
<title>Node20</title>
<g id="a_Node000020"><a xlink:title=" ">
<polygon fill="#e0e0e0" stroke="#999999" points="558.5,-189.5 517.5,-189.5 517.5,-170.5 558.5,-170.5 558.5,-189.5"/>
<text text-anchor="middle" x="538" y="-177.5" font-family="Helvetica,sans-Serif" font-size="10.00">tuple</text>
</a>
</g>
</g>
<!-- Node10&#45;&gt;Node20 -->
<g id="edge25_Node000010_Node000020" class="edge">
<title>Node10&#45;&gt;Node20</title>
<g id="a_edge25_Node000010_Node000020"><a xlink:title=" ">
<path fill="none" stroke="#63b8ff" d="M617.28,-230.87C602.3,-221.45 578.11,-206.23 560.38,-195.08"/>
<polygon fill="#63b8ff" stroke="#63b8ff" points="562.11,-192.03 551.78,-189.67 558.38,-197.95 562.11,-192.03"/>
</a>
</g>
</g>
<!-- Node11&#45;&gt;Node3 -->
<g id="edge12_Node000011_Node000003" class="edge">
<title>Node11&#45;&gt;Node3</title>
<g id="a_edge12_Node000011_Node000003"><a xlink:title=" ">
<path fill="none" stroke="#63b8ff" d="M614.64,-169.41C547.44,-158.72 439.28,-141.53 370.74,-130.63"/>
<polygon fill="#63b8ff" stroke="#63b8ff" points="370.93,-127.12 360.51,-129.01 369.83,-134.03 370.93,-127.12"/>
</a>
</g>
</g>
<!-- Node12 -->
<g id="Node000012" class="node">
<title>Node12</title>
<g id="a_Node000012"><a xlink:href="interface__contract_8h.html" target="_top" xlink:title=" ">
<polygon fill="white" stroke="#666666" points="597,-129 457,-129 457,-110 597,-110 597,-129"/>
<text text-anchor="middle" x="527" y="-117" font-family="Helvetica,sans-Serif" font-size="10.00">base/interface_contract.h</text>
</a>
</g>
</g>
<!-- Node11&#45;&gt;Node12 -->
<g id="edge13_Node000011_Node000012" class="edge">
<title>Node11&#45;&gt;Node12</title>
<g id="a_edge13_Node000011_Node000012"><a xlink:title=" ">
<path fill="none" stroke="#63b8ff" d="M639.55,-164.99C614.86,-155.23 582.22,-142.33 558.45,-132.93"/>
<polygon fill="#63b8ff" stroke="#63b8ff" points="559.44,-129.56 548.86,-129.14 556.87,-136.07 559.44,-129.56"/>
</a>
</g>
</g>
<!-- Node14 -->
<g id="Node000014" class="node">
<title>Node14</title>
<g id="a_Node000014"><a xlink:href="require__copy__intf_8h.html" target="_top" xlink:title=" ">
<polygon fill="white" stroke="#666666" points="751,-129 615,-129 615,-110 751,-110 751,-129"/>
<text text-anchor="middle" x="683" y="-117" font-family="Helvetica,sans-Serif" font-size="10.00">base/require_copy_intf.h</text>
</a>
</g>
</g>
<!-- Node11&#45;&gt;Node14 -->
<g id="edge15_Node000011_Node000014" class="edge">
<title>Node11&#45;&gt;Node14</title>
<g id="a_edge15_Node000011_Node000014"><a xlink:title=" ">
<path fill="none" stroke="#63b8ff" d="M676.94,-164.84C677.98,-157.21 679.28,-147.7 680.41,-139.45"/>
<polygon fill="#63b8ff" stroke="#63b8ff" points="683.91,-139.65 681.8,-129.27 676.98,-138.7 683.91,-139.65"/>
</a>
</g>
</g>
<!-- Node15 -->
<g id="Node000015" class="node">
<title>Node15</title>
<g id="a_Node000015"><a xlink:href="require__move__intf_8h.html" target="_top" xlink:title=" ">
<polygon fill="white" stroke="#666666" points="909,-129 769,-129 769,-110 909,-110 909,-129"/>
<text text-anchor="middle" x="839" y="-117" font-family="Helvetica,sans-Serif" font-size="10.00">base/require_move_intf.h</text>
</a>
</g>
</g>
<!-- Node11&#45;&gt;Node15 -->
<g id="edge17_Node000011_Node000015" class="edge">
<title>Node11&#45;&gt;Node15</title>
<g id="a_edge17_Node000011_Node000015"><a xlink:title=" ">
<path fill="none" stroke="#63b8ff" d="M714.28,-164.99C742.01,-155.1 778.78,-141.98 805.2,-132.56"/>
<polygon fill="#63b8ff" stroke="#63b8ff" points="806.54,-135.8 814.78,-129.14 804.19,-129.2 806.54,-135.8"/>
</a>
</g>
</g>
<!-- Node11&#45;&gt;Node16 -->
<g id="edge19_Node000011_Node000016" class="edge">
<title>Node11&#45;&gt;Node16</title>
<g id="a_edge19_Node000011_Node000016"><a xlink:title=" ">
<path fill="none" stroke="#63b8ff" d="M735.2,-166.72C738.17,-166.14 741.12,-165.56 744,-165 806.33,-152.9 877.92,-139.72 926.57,-130.87"/>
<polygon fill="#63b8ff" stroke="#63b8ff" points="927.38,-134.28 936.6,-129.05 926.13,-127.39 927.38,-134.28"/>
</a>
</g>
</g>
<!-- Node13 -->
<g id="Node000013" class="node">
<title>Node13</title>
<g id="a_Node000013"><a xlink:title=" ">
<polygon fill="#e0e0e0" stroke="#999999" points="795.5,-74 726.5,-74 726.5,-55 795.5,-55 795.5,-74"/>
<text text-anchor="middle" x="761" y="-62" font-family="Helvetica,sans-Serif" font-size="10.00">type_traits</text>
</a>
</g>
</g>
<!-- Node12&#45;&gt;Node13 -->
<g id="edge14_Node000012_Node000013" class="edge">
<title>Node12&#45;&gt;Node13</title>
<g id="a_edge14_Node000012_Node000013"><a xlink:title=" ">
<path fill="none" stroke="#63b8ff" d="M564.6,-109.98C605.95,-100.62 672.35,-85.58 716.33,-75.62"/>
<polygon fill="#63b8ff" stroke="#63b8ff" points="717.19,-79.01 726.17,-73.39 715.65,-72.18 717.19,-79.01"/>
</a>
</g>
</g>
<!-- Node14&#45;&gt;Node13 -->
<g id="edge16_Node000014_Node000013" class="edge">
<title>Node14&#45;&gt;Node13</title>
<g id="a_edge16_Node000014_Node000013"><a xlink:title=" ">
<path fill="none" stroke="#63b8ff" d="M695.53,-109.98C707.4,-101.92 725.46,-89.65 739.61,-80.03"/>
<polygon fill="#63b8ff" stroke="#63b8ff" points="741.94,-82.69 748.24,-74.17 738,-76.9 741.94,-82.69"/>
</a>
</g>
</g>
<!-- Node15&#45;&gt;Node13 -->
<g id="edge18_Node000015_Node000013" class="edge">
<title>Node15&#45;&gt;Node13</title>
<g id="a_edge18_Node000015_Node000013"><a xlink:title=" ">
<path fill="none" stroke="#63b8ff" d="M826.47,-109.98C814.6,-101.92 796.54,-89.65 782.39,-80.03"/>
<polygon fill="#63b8ff" stroke="#63b8ff" points="784,-76.9 773.76,-74.17 780.06,-82.69 784,-76.9"/>
</a>
</g>
</g>
<!-- Node21&#45;&gt;Node3 -->
<g id="edge27_Node000021_Node000003" class="edge">
<title>Node21&#45;&gt;Node3</title>
<g id="a_edge27_Node000021_Node000003"><a xlink:title=" ">
<path fill="none" stroke="#63b8ff" d="M531.84,-287.98C477.66,-280.84 401.07,-267.97 377,-250 371.99,-246.26 333.74,-172.57 315.99,-138.06"/>
<polygon fill="#63b8ff" stroke="#63b8ff" points="319.07,-136.38 311.39,-129.08 312.84,-139.58 319.07,-136.38"/>
</a>
</g>
</g>
<!-- Node21&#45;&gt;Node9 -->
<g id="edge29_Node000021_Node000009" class="edge">
<title>Node21&#45;&gt;Node9</title>
<g id="a_edge29_Node000021_Node000009"><a xlink:title=" ">
<path fill="none" stroke="#63b8ff" d="M568.58,-285.96C537.44,-271.83 478.5,-240.56 448,-195 425.33,-161.13 425.1,-111.14 426.99,-84.26"/>
<polygon fill="#63b8ff" stroke="#63b8ff" points="430.48,-84.53 427.88,-74.26 423.51,-83.92 430.48,-84.53"/>
</a>
</g>
</g>
<!-- Node21&#45;&gt;Node10 -->
<g id="edge28_Node000021_Node000010" class="edge">
<title>Node21&#45;&gt;Node10</title>
<g id="a_edge28_Node000021_Node000010"><a xlink:title=" ">
<path fill="none" stroke="#63b8ff" d="M595.94,-285.75C601.87,-278.26 610.57,-267.28 617.82,-258.13"/>
<polygon fill="#63b8ff" stroke="#63b8ff" points="620.73,-260.1 624.19,-250.09 615.24,-255.75 620.73,-260.1"/>
</a>
</g>
</g>
<!-- Node22&#45;&gt;Node10 -->
<g id="edge31_Node000022_Node000010" class="edge">
<title>Node22&#45;&gt;Node10</title>
<g id="a_edge31_Node000022_Node000010"><a xlink:title=" ">
<path fill="none" stroke="#63b8ff" d="M918.89,-285.98C858.22,-276.61 760.76,-261.55 696.31,-251.59"/>
<polygon fill="#63b8ff" stroke="#63b8ff" points="696.67,-248.11 686.26,-250.04 695.6,-255.02 696.67,-248.11"/>
</a>
</g>
</g>
<!-- Node22&#45;&gt;Node13 -->
<g id="edge38_Node000022_Node000013" class="edge">
<title>Node22&#45;&gt;Node13</title>
<g id="a_edge38_Node000022_Node000013"><a xlink:title=" ">
<path fill="none" stroke="#63b8ff" d="M990.52,-285.88C1003.42,-278.24 1020.68,-265.84 1030,-250 1061.86,-195.82 1090.92,-157.71 1050,-110 1019.09,-73.96 879.06,-66.83 805.87,-65.6"/>
<polygon fill="#63b8ff" stroke="#63b8ff" points="805.63,-62.1 795.58,-65.46 805.53,-69.1 805.63,-62.1"/>
</a>
</g>
</g>
<!-- Node22&#45;&gt;Node18 -->
<g id="edge32_Node000022_Node000018" class="edge">
<title>Node22&#45;&gt;Node18</title>
<g id="a_edge32_Node000022_Node000018"><a xlink:title=" ">
<path fill="none" stroke="#63b8ff" d="M972.12,-285.97C968.1,-267.73 958.6,-224.57 953.11,-199.64"/>
<polygon fill="#63b8ff" stroke="#63b8ff" points="956.47,-198.64 950.9,-189.63 949.63,-200.15 956.47,-198.64"/>
</a>
</g>
</g>
<!-- Node23 -->
<g id="Node000023" class="node">
<title>Node23</title>
<g id="a_Node000023"><a xlink:title=" ">
<polygon fill="#e0e0e0" stroke="#999999" points="1270.5,-250 1223.5,-250 1223.5,-231 1270.5,-231 1270.5,-250"/>
<text text-anchor="middle" x="1247" y="-238" font-family="Helvetica,sans-Serif" font-size="10.00">cmath</text>
</a>
</g>
</g>
<!-- Node22&#45;&gt;Node23 -->
<g id="edge33_Node000022_Node000023" class="edge">
<title>Node22&#45;&gt;Node23</title>
<g id="a_edge33_Node000022_Node000023"><a xlink:title=" ">
<path fill="none" stroke="#63b8ff" d="M1025.71,-285.97C1072.26,-278.05 1142.77,-265.47 1213.3,-250.02"/>
<polygon fill="#63b8ff" stroke="#63b8ff" points="1214.24,-253.4 1223.25,-247.82 1212.73,-246.56 1214.24,-253.4"/>
</a>
</g>
</g>
<!-- Node24 -->
<g id="Node000024" class="node">
<title>Node24</title>
<g id="a_Node000024"><a xlink:title=" ">
<polygon fill="#e0e0e0" stroke="#999999" points="1142.5,-250 1077.5,-250 1077.5,-231 1142.5,-231 1142.5,-250"/>
<text text-anchor="middle" x="1110" y="-238" font-family="Helvetica,sans-Serif" font-size="10.00">functional</text>
</a>
</g>
</g>
<!-- Node22&#45;&gt;Node24 -->
<g id="edge34_Node000022_Node000024" class="edge">
<title>Node22&#45;&gt;Node24</title>
<g id="a_edge34_Node000022_Node000024"><a xlink:title=" ">
<path fill="none" stroke="#63b8ff" d="M995.85,-285.98C1018.12,-277.3 1052.9,-263.75 1078.22,-253.88"/>
<polygon fill="#63b8ff" stroke="#63b8ff" points="1079.71,-257.06 1087.75,-250.17 1077.16,-250.54 1079.71,-257.06"/>
</a>
</g>
</g>
<!-- Node25 -->
<g id="Node000025" class="node">
<title>Node25</title>
<g id="a_Node000025"><a xlink:title=" ">
<polygon fill="#e0e0e0" stroke="#999999" points="1205,-250 1161,-250 1161,-231 1205,-231 1205,-250"/>
<text text-anchor="middle" x="1183" y="-238" font-family="Helvetica,sans-Serif" font-size="10.00">limits</text>
</a>
</g>
</g>
<!-- Node22&#45;&gt;Node25 -->
<g id="edge35_Node000022_Node000025" class="edge">
<title>Node22&#45;&gt;Node25</title>
<g id="a_edge35_Node000022_Node000025"><a xlink:title=" ">
<path fill="none" stroke="#63b8ff" d="M1009.18,-285.95C1043.1,-277.66 1096.11,-264.55 1150.8,-250.27"/>
<polygon fill="#63b8ff" stroke="#63b8ff" points="1151.88,-253.61 1160.67,-247.69 1150.1,-246.84 1151.88,-253.61"/>
</a>
</g>
</g>
<!-- Node26 -->
<g id="Node000026" class="node">
<title>Node26</title>
<g id="a_Node000026"><a xlink:title=" ">
<polygon fill="#e0e0e0" stroke="#999999" points="920.5,-250 855.5,-250 855.5,-231 920.5,-231 920.5,-250"/>
<text text-anchor="middle" x="888" y="-238" font-family="Helvetica,sans-Serif" font-size="10.00">stdexcept</text>
</a>
</g>
</g>
<!-- Node22&#45;&gt;Node26 -->
<g id="edge36_Node000022_Node000026" class="edge">
<title>Node22&#45;&gt;Node26</title>
<g id="a_edge36_Node000022_Node000026"><a xlink:title=" ">
<path fill="none" stroke="#63b8ff" d="M960.18,-285.98C946.85,-277.77 926.42,-265.18 910.69,-255.49"/>
<polygon fill="#63b8ff" stroke="#63b8ff" points="912.42,-252.44 902.07,-250.17 908.75,-258.4 912.42,-252.44"/>
</a>
</g>
</g>
<!-- Node27 -->
<g id="Node000027" class="node">
<title>Node27</title>
<g id="a_Node000027"><a xlink:title=" ">
<polygon fill="#e0e0e0" stroke="#999999" points="1021,-250 977,-250 977,-231 1021,-231 1021,-250"/>
<text text-anchor="middle" x="999" y="-238" font-family="Helvetica,sans-Serif" font-size="10.00">string</text>
</a>
</g>
</g>
<!-- Node22&#45;&gt;Node27 -->
<g id="edge37_Node000022_Node000027" class="edge">
<title>Node22&#45;&gt;Node27</title>
<g id="a_edge37_Node000022_Node000027"><a xlink:title=" ">
<path fill="none" stroke="#63b8ff" d="M978.13,-285.75C981.51,-278.57 986.42,-268.18 990.62,-259.27"/>
<polygon fill="#63b8ff" stroke="#63b8ff" points="993.85,-260.63 994.95,-250.09 987.52,-257.64 993.85,-260.63"/>
</a>
</g>
</g>
<!-- Node28&#45;&gt;Node22 -->
<g id="edge44_Node000028_Node000022" class="edge">
<title>Node28&#45;&gt;Node22</title>
<g id="a_edge44_Node000028_Node000022"><a xlink:title=" ">
<path fill="none" stroke="#63b8ff" d="M810,-406.81C821.72,-389.29 843.73,-359.56 869,-341 888.7,-326.53 913.81,-315.67 934.54,-308.3"/>
<polygon fill="#63b8ff" stroke="#63b8ff" points="935.69,-311.6 944.02,-305.06 933.43,-304.98 935.69,-311.6"/>
</a>
</g>
</g>
<!-- Node29 -->
<g id="Node000029" class="node">
<title>Node29</title>
<g id="a_Node000029"><a xlink:href="matrix__column__view_8h.html" target="_top" xlink:title=" ">
<polygon fill="white" stroke="#666666" points="716.5,-371 609.5,-371 609.5,-341 716.5,-341 716.5,-371"/>
<text text-anchor="start" x="617.5" y="-359" font-family="Helvetica,sans-Serif" font-size="10.00">math/linalg/matrix</text>
<text text-anchor="middle" x="663" y="-348" font-family="Helvetica,sans-Serif" font-size="10.00">_column_view.h</text>
</a>
</g>
</g>
<!-- Node28&#45;&gt;Node29 -->
<g id="edge40_Node000028_Node000029" class="edge">
<title>Node28&#45;&gt;Node29</title>
<g id="a_edge40_Node000028_Node000029"><a xlink:title=" ">
<path fill="none" stroke="#63b8ff" d="M770.72,-406.95C750.67,-397.66 724.19,-385.38 702.49,-375.32"/>
<polygon fill="#63b8ff" stroke="#63b8ff" points="703.76,-372.04 693.21,-371.01 700.81,-378.39 703.76,-372.04"/>
</a>
</g>
</g>
<!-- Node29&#45;&gt;Node3 -->
<g id="edge41_Node000029_Node000003" class="edge">
<title>Node29&#45;&gt;Node3</title>
<g id="a_edge41_Node000029_Node000003"><a xlink:title=" ">
<path fill="none" stroke="#63b8ff" d="M609.61,-340.96C534.3,-320.38 401.71,-281.11 363,-250 328.09,-221.95 314.48,-167.92 309.56,-139.32"/>
<polygon fill="#63b8ff" stroke="#63b8ff" points="312.96,-138.44 307.98,-129.09 306.04,-139.5 312.96,-138.44"/>
</a>
</g>
</g>
<!-- Node29&#45;&gt;Node10 -->
<g id="edge42_Node000029_Node000010" class="edge">
<title>Node29&#45;&gt;Node10</title>
<g id="a_edge42_Node000029_Node000010"><a xlink:title=" ">
<path fill="none" stroke="#63b8ff" d="M662.91,-340.93C662.47,-326.76 660.79,-304.4 655,-286 652.04,-276.6 647.06,-266.88 642.39,-258.93"/>
<polygon fill="#63b8ff" stroke="#63b8ff" points="645.27,-256.92 637.03,-250.26 639.31,-260.6 645.27,-256.92"/>
</a>
</g>
</g>
<!-- Node29&#45;&gt;Node21 -->
<g id="edge43_Node000029_Node000021" class="edge">
<title>Node29&#45;&gt;Node21</title>
<g id="a_edge43_Node000029_Node000021"><a xlink:title=" ">
<path fill="none" stroke="#63b8ff" d="M645.09,-340.84C633.91,-332 619.52,-320.63 608.12,-311.62"/>
<polygon fill="#63b8ff" stroke="#63b8ff" points="610.1,-308.72 600.09,-305.27 605.76,-314.21 610.1,-308.72"/>
</a>
</g>
</g>
<!-- Node30&#45;&gt;Node21 -->
<g id="edge46_Node000030_Node000021" class="edge">
<title>Node30&#45;&gt;Node21</title>
<g id="a_edge46_Node000030_Node000021"><a xlink:title=" ">
<path fill="none" stroke="#63b8ff" d="M918.02,-346.49C848.3,-335.9 729.37,-317.83 655.21,-306.56"/>
<polygon fill="#63b8ff" stroke="#63b8ff" points="655.46,-303.06 645.05,-305.02 654.41,-309.98 655.46,-303.06"/>
</a>
</g>
</g>
<!-- Node30&#45;&gt;Node22 -->
<g id="edge47_Node000030_Node000022" class="edge">
<title>Node30&#45;&gt;Node22</title>
<g id="a_edge47_Node000030_Node000022"><a xlink:title=" ">
<path fill="none" stroke="#63b8ff" d="M974,-346.37C974,-338.25 974,-325.81 974,-315.39"/>
<polygon fill="#63b8ff" stroke="#63b8ff" points="977.5,-315.17 974,-305.17 970.5,-315.17 977.5,-315.17"/>
</a>
</g>
</g>
<!-- Node30&#45;&gt;Node23 -->
<g id="edge48_Node000030_Node000023" class="edge">
<title>Node30&#45;&gt;Node23</title>
<g id="a_edge48_Node000030_Node000023"><a xlink:title=" ">
<path fill="none" stroke="#63b8ff" d="M994.52,-346.47C1042.25,-326.63 1160.9,-277.3 1216.87,-254.03"/>
<polygon fill="#63b8ff" stroke="#63b8ff" points="1218.35,-257.2 1226.24,-250.13 1215.67,-250.74 1218.35,-257.2"/>
</a>
</g>
</g>
</g>
</svg>

<g id="navigator" transform="translate(0 0)" fill="#404254">
  <rect fill="#f2f5e9" fill-opacity="0.5" stroke="#606060" stroke-width=".5" x="0" y="0" width="60" height="60"/>
  <use id="zoomplus" xlink:href="#zoomPlus" x="17" y="9" onmousedown="handleZoom(evt,'in')"/>
  <use id="zoomminus" xlink:href="#zoomMin" x="42" y="9" onmousedown="handleZoom(evt,'out')"/>
  <use id="reset" xlink:href="#resetDef" x="30" y="36" onmousedown="handleReset()"/>
   <use id="arrowup" xlink:href="#arrowUp" x="0" y="0" onmousedown="handlePan(0,-1)"/>
  <use id="arrowright" xlink:href="#arrowRight" x="0" y="0" onmousedown="handlePan(1,0)"/>
  <use id="arrowdown" xlink:href="#arrowDown" x="0" y="0" onmousedown="handlePan(0,1)"/>
  <use id="arrowleft" xlink:href="#arrowLeft" x="0" y="0" onmousedown="handlePan(-1,0)"/>
</g>
<svg viewBox="0 0 15 15" width="100%" height="30px" preserveAspectRatio="xMaxYMin meet">
 <g id="arrow_out" transform="scale(0.3 0.3)">
  <a xlink:href="matrix__row__view_8hpp__incl_org.svg" target="_base">
   <rect id="button" ry="5" rx="5" y="6" x="6" height="38" width="38"
        fill="#f2f5e9" fill-opacity="0.5" stroke="#606060" stroke-width="1.0"/>
   <path id="arrow"
     d="M 11.500037,31.436501 C 11.940474,20.09759 22.043105,11.32322 32.158766,21.979434 L 37.068811,17.246167 C 37.068811,17.246167 37.088388,32 37.088388,32 L 22.160133,31.978069 C 22.160133,31.978069 26.997745,27.140456 26.997745,27.140456 C 18.528582,18.264221 13.291696,25.230495 11.500037,31.436501 z"
     style="fill:#404040;"/>
  </a>
 </g>
</svg>

<style type='text/css'>
<![CDATA[
[data-mouse-over-selected='false'] { opacity: 0.7; }
[data-mouse-over-selected='true']  { opacity: 1.0; }
]]>
</style>
<script type="application/ecmascript"><![CDATA[
document.addEventListener('DOMContentLoaded', (event) => {
  highlightEdges();
  highlightAdjacentNodes();
});
]]></script>
</svg>
