<?xml version="1.0" encoding="UTF-8" standalone="no"?>
<!DOCTYPE svg PUBLIC "-//W3C//DTD SVG 1.1//EN"
 "http://www.w3.org/Graphics/SVG/1.1/DTD/svg11.dtd">
<!-- Generated by graphviz version 2.43.0 (0)
 -->
<!-- Title: include/trackingLib/math/linalg/matrix_column_view.hpp Pages: 1 -->
<svg width="1016pt" height="456pt"
 viewBox="0.00 0.00 1016.00 456.00" xmlns="http://www.w3.org/2000/svg" xmlns:xlink="http://www.w3.org/1999/xlink">
<g id="graph0" class="graph" transform="scale(1 1) rotate(0) translate(4 452)">
<title>include/trackingLib/math/linalg/matrix_column_view.hpp</title>
<!-- Node1 -->
<g id="Node000001" class="node">
<title>Node1</title>
<g id="a_Node000001"><a xlink:title=" ">
<polygon fill="#999999" stroke="#666666" points="387.5,-448 277.5,-448 277.5,-407 387.5,-407 387.5,-448"/>
<text text-anchor="start" x="285.5" y="-436" font-family="Helvetica,sans-Serif" font-size="10.00">include/trackingLib</text>
<text text-anchor="start" x="285.5" y="-425" font-family="Helvetica,sans-Serif" font-size="10.00">/math/linalg/matrix</text>
<text text-anchor="middle" x="332.5" y="-414" font-family="Helvetica,sans-Serif" font-size="10.00">_column_view.hpp</text>
</a>
</g>
</g>
<!-- Node2 -->
<g id="Node000002" class="node">
<title>Node2</title>
<g id="a_Node000002"><a xlink:href="matrix__column__view_8h.html" target="_top" xlink:title=" ">
<polygon fill="white" stroke="#666666" points="345,-371 238,-371 238,-341 345,-341 345,-371"/>
<text text-anchor="start" x="246" y="-359" font-family="Helvetica,sans-Serif" font-size="10.00">math/linalg/matrix</text>
<text text-anchor="middle" x="291.5" y="-348" font-family="Helvetica,sans-Serif" font-size="10.00">_column_view.h</text>
</a>
</g>
</g>
<!-- Node1&#45;&gt;Node2 -->
<g id="edge1_Node000001_Node000002" class="edge">
<title>Node1&#45;&gt;Node2</title>
<g id="a_edge1_Node000001_Node000002"><a xlink:title=" ">
<path fill="none" stroke="#63b8ff" d="M320.86,-406.77C315.92,-398.4 310.14,-388.59 305.01,-379.9"/>
<polygon fill="#63b8ff" stroke="#63b8ff" points="307.88,-377.87 299.78,-371.04 301.85,-381.43 307.88,-377.87"/>
</a>
</g>
</g>
<!-- Node22 -->
<g id="Node000022" class="node">
<title>Node22</title>
<g id="a_Node000022"><a xlink:href="matrix_8hpp.html" target="_top" xlink:title=" ">
<polygon fill="white" stroke="#666666" points="801.5,-305 673.5,-305 673.5,-286 801.5,-286 801.5,-305"/>
<text text-anchor="middle" x="737.5" y="-293" font-family="Helvetica,sans-Serif" font-size="10.00">math/linalg/matrix.hpp</text>
</a>
</g>
</g>
<!-- Node1&#45;&gt;Node22 -->
<g id="edge30_Node000001_Node000022" class="edge">
<title>Node1&#45;&gt;Node22</title>
<g id="a_edge30_Node000001_Node000022"><a xlink:title=" ">
<path fill="none" stroke="#63b8ff" d="M387.54,-408.83C471.65,-381.84 629.87,-331.05 701.11,-308.18"/>
<polygon fill="#63b8ff" stroke="#63b8ff" points="702.52,-311.4 710.97,-305.02 700.38,-304.74 702.52,-311.4"/>
</a>
</g>
</g>
<!-- Node3 -->
<g id="Node000003" class="node">
<title>Node3</title>
<g id="a_Node000003"><a xlink:href="first__include_8h.html" target="_top" xlink:title=" ">
<polygon fill="white" stroke="#666666" points="219,-129 108,-129 108,-110 219,-110 219,-129"/>
<text text-anchor="middle" x="163.5" y="-117" font-family="Helvetica,sans-Serif" font-size="10.00">base/first_include.h</text>
</a>
</g>
</g>
<!-- Node2&#45;&gt;Node3 -->
<g id="edge2_Node000002_Node000003" class="edge">
<title>Node2&#45;&gt;Node3</title>
<g id="a_edge2_Node000002_Node000003"><a xlink:title=" ">
<path fill="none" stroke="#63b8ff" d="M237.91,-346.44C213.19,-339.56 185.96,-327.19 170.5,-305 135.12,-254.21 149.13,-175.07 158.15,-139.24"/>
<polygon fill="#63b8ff" stroke="#63b8ff" points="161.63,-139.79 160.84,-129.22 154.87,-137.98 161.63,-139.79"/>
</a>
</g>
</g>
<!-- Node10 -->
<g id="Node000010" class="node">
<title>Node10</title>
<g id="a_Node000010"><a xlink:href="matrix_8h.html" target="_top" xlink:title=" ">
<polygon fill="white" stroke="#666666" points="392.5,-250 276.5,-250 276.5,-231 392.5,-231 392.5,-250"/>
<text text-anchor="middle" x="334.5" y="-238" font-family="Helvetica,sans-Serif" font-size="10.00">math/linalg/matrix.h</text>
</a>
</g>
</g>
<!-- Node2&#45;&gt;Node10 -->
<g id="edge9_Node000002_Node000010" class="edge">
<title>Node2&#45;&gt;Node10</title>
<g id="a_edge9_Node000002_Node000010"><a xlink:title=" ">
<path fill="none" stroke="#63b8ff" d="M296.95,-340.63C304.75,-320.03 319.11,-282.12 327.63,-259.63"/>
<polygon fill="#63b8ff" stroke="#63b8ff" points="330.92,-260.82 331.19,-250.23 324.38,-258.34 330.92,-260.82"/>
</a>
</g>
</g>
<!-- Node21 -->
<g id="Node000021" class="node">
<title>Node21</title>
<g id="a_Node000021"><a xlink:href="vector_8h.html" target="_top" xlink:title=" ">
<polygon fill="white" stroke="#666666" points="293.5,-305 179.5,-305 179.5,-286 293.5,-286 293.5,-305"/>
<text text-anchor="middle" x="236.5" y="-293" font-family="Helvetica,sans-Serif" font-size="10.00">math/linalg/vector.h</text>
</a>
</g>
</g>
<!-- Node2&#45;&gt;Node21 -->
<g id="edge26_Node000002_Node000021" class="edge">
<title>Node2&#45;&gt;Node21</title>
<g id="a_edge26_Node000002_Node000021"><a xlink:title=" ">
<path fill="none" stroke="#63b8ff" d="M278.19,-340.84C270.2,-332.35 260.02,-321.52 251.72,-312.69"/>
<polygon fill="#63b8ff" stroke="#63b8ff" points="254.14,-310.15 244.74,-305.27 249.04,-314.95 254.14,-310.15"/>
</a>
</g>
</g>
<!-- Node4 -->
<g id="Node000004" class="node">
<title>Node4</title>
<g id="a_Node000004"><a xlink:href="test__config_8h.html" target="_top" xlink:title=" ">
<polygon fill="white" stroke="#666666" points="471,-74 392,-74 392,-55 471,-55 471,-74"/>
<text text-anchor="middle" x="431.5" y="-62" font-family="Helvetica,sans-Serif" font-size="10.00">test_config.h</text>
</a>
</g>
</g>
<!-- Node3&#45;&gt;Node4 -->
<g id="edge3_Node000003_Node000004" class="edge">
<title>Node3&#45;&gt;Node4</title>
<g id="a_edge3_Node000003_Node000004"><a xlink:title=" ">
<path fill="none" stroke="#63b8ff" d="M206.56,-109.98C254.32,-100.54 331.25,-85.32 381.6,-75.37"/>
<polygon fill="#63b8ff" stroke="#63b8ff" points="382.48,-78.76 391.61,-73.39 381.12,-71.9 382.48,-78.76"/>
</a>
</g>
</g>
<!-- Node5 -->
<g id="Node000005" class="node">
<title>Node5</title>
<g id="a_Node000005"><a xlink:href="atomic__types_8h.html" target="_top" xlink:title=" ">
<polygon fill="white" stroke="#666666" points="193.5,-74 101.5,-74 101.5,-55 193.5,-55 193.5,-74"/>
<text text-anchor="middle" x="147.5" y="-62" font-family="Helvetica,sans-Serif" font-size="10.00">atomic_types.h</text>
</a>
</g>
</g>
<!-- Node3&#45;&gt;Node5 -->
<g id="edge4_Node000003_Node000005" class="edge">
<title>Node3&#45;&gt;Node5</title>
<g id="a_edge4_Node000003_Node000005"><a xlink:title=" ">
<path fill="none" stroke="#63b8ff" d="M160.86,-109.75C158.74,-102.72 155.69,-92.62 153.04,-83.84"/>
<polygon fill="#63b8ff" stroke="#63b8ff" points="156.33,-82.65 150.09,-74.09 149.63,-84.67 156.33,-82.65"/>
</a>
</g>
</g>
<!-- Node7 -->
<g id="Node000007" class="node">
<title>Node7</title>
<g id="a_Node000007"><a xlink:title=" ">
<polygon fill="#e0e0e0" stroke="#999999" points="303.5,-74 211.5,-74 211.5,-55 303.5,-55 303.5,-74"/>
<text text-anchor="middle" x="257.5" y="-62" font-family="Helvetica,sans-Serif" font-size="10.00">tl/expected.hpp</text>
</a>
</g>
</g>
<!-- Node3&#45;&gt;Node7 -->
<g id="edge6_Node000003_Node000007" class="edge">
<title>Node3&#45;&gt;Node7</title>
<g id="a_edge6_Node000003_Node000007"><a xlink:title=" ">
<path fill="none" stroke="#63b8ff" d="M178.6,-109.98C193.32,-101.69 215.92,-88.94 233.17,-79.22"/>
<polygon fill="#63b8ff" stroke="#63b8ff" points="235.13,-82.13 242.12,-74.17 231.69,-76.03 235.13,-82.13"/>
</a>
</g>
</g>
<!-- Node8 -->
<g id="Node000008" class="node">
<title>Node8</title>
<g id="a_Node000008"><a xlink:title=" ">
<polygon fill="#e0e0e0" stroke="#999999" points="373.5,-74 321.5,-74 321.5,-55 373.5,-55 373.5,-74"/>
<text text-anchor="middle" x="347.5" y="-62" font-family="Helvetica,sans-Serif" font-size="10.00">cassert</text>
</a>
</g>
</g>
<!-- Node3&#45;&gt;Node8 -->
<g id="edge7_Node000003_Node000008" class="edge">
<title>Node3&#45;&gt;Node8</title>
<g id="a_edge7_Node000003_Node000008"><a xlink:title=" ">
<path fill="none" stroke="#63b8ff" d="M193.06,-109.98C225.33,-100.69 277,-85.81 311.58,-75.85"/>
<polygon fill="#63b8ff" stroke="#63b8ff" points="312.65,-79.18 321.29,-73.05 310.71,-72.45 312.65,-79.18"/>
</a>
</g>
</g>
<!-- Node9 -->
<g id="Node000009" class="node">
<title>Node9</title>
<g id="a_Node000009"><a xlink:title=" ">
<polygon fill="#e0e0e0" stroke="#999999" points="83,-74 0,-74 0,-55 83,-55 83,-74"/>
<text text-anchor="middle" x="41.5" y="-62" font-family="Helvetica,sans-Serif" font-size="10.00">initializer_list</text>
</a>
</g>
</g>
<!-- Node3&#45;&gt;Node9 -->
<g id="edge8_Node000003_Node000009" class="edge">
<title>Node3&#45;&gt;Node9</title>
<g id="a_edge8_Node000003_Node000009"><a xlink:title=" ">
<path fill="none" stroke="#63b8ff" d="M143.9,-109.98C124.18,-101.42 93.55,-88.11 70.92,-78.28"/>
<polygon fill="#63b8ff" stroke="#63b8ff" points="72.02,-74.94 61.46,-74.17 69.24,-81.37 72.02,-74.94"/>
</a>
</g>
</g>
<!-- Node6 -->
<g id="Node000006" class="node">
<title>Node6</title>
<g id="a_Node000006"><a xlink:title=" ">
<polygon fill="#e0e0e0" stroke="#999999" points="172.5,-19 122.5,-19 122.5,0 172.5,0 172.5,-19"/>
<text text-anchor="middle" x="147.5" y="-7" font-family="Helvetica,sans-Serif" font-size="10.00">cstdint</text>
</a>
</g>
</g>
<!-- Node5&#45;&gt;Node6 -->
<g id="edge5_Node000005_Node000006" class="edge">
<title>Node5&#45;&gt;Node6</title>
<g id="a_edge5_Node000005_Node000006"><a xlink:title=" ">
<path fill="none" stroke="#63b8ff" d="M147.5,-54.75C147.5,-47.8 147.5,-37.85 147.5,-29.13"/>
<polygon fill="#63b8ff" stroke="#63b8ff" points="151,-29.09 147.5,-19.09 144,-29.09 151,-29.09"/>
</a>
</g>
</g>
<!-- Node10&#45;&gt;Node3 -->
<g id="edge10_Node000010_Node000003" class="edge">
<title>Node10&#45;&gt;Node3</title>
<g id="a_edge10_Node000010_Node000003"><a xlink:title=" ">
<path fill="none" stroke="#63b8ff" d="M334.88,-230.84C335.05,-215.45 333.12,-183.25 315.5,-165 302.13,-151.15 257.93,-139.14 220.62,-131.1"/>
<polygon fill="#63b8ff" stroke="#63b8ff" points="221.31,-127.67 210.8,-129.04 219.87,-134.52 221.31,-127.67"/>
</a>
</g>
</g>
<!-- Node10&#45;&gt;Node9 -->
<g id="edge24_Node000010_Node000009" class="edge">
<title>Node10&#45;&gt;Node9</title>
<g id="a_edge24_Node000010_Node000009"><a xlink:title=" ">
<path fill="none" stroke="#63b8ff" d="M297.96,-230.94C269.25,-223.48 228.71,-211.29 195.5,-195 149.01,-172.2 138.55,-163 99.5,-129 82.87,-114.52 66.13,-95.62 54.94,-82.21"/>
<polygon fill="#63b8ff" stroke="#63b8ff" points="57.49,-79.81 48.44,-74.3 52.08,-84.25 57.49,-79.81"/>
</a>
</g>
</g>
<!-- Node11 -->
<g id="Node000011" class="node">
<title>Node11</title>
<g id="a_Node000011"><a xlink:href="matrix__intf_8h.html" target="_top" xlink:title=" ">
<polygon fill="white" stroke="#666666" points="608.5,-195 488.5,-195 488.5,-165 608.5,-165 608.5,-195"/>
<text text-anchor="start" x="496.5" y="-183" font-family="Helvetica,sans-Serif" font-size="10.00">math/linalg/contracts</text>
<text text-anchor="middle" x="548.5" y="-172" font-family="Helvetica,sans-Serif" font-size="10.00">/matrix_intf.h</text>
</a>
</g>
</g>
<!-- Node10&#45;&gt;Node11 -->
<g id="edge11_Node000010_Node000011" class="edge">
<title>Node10&#45;&gt;Node11</title>
<g id="a_edge11_Node000010_Node000011"><a xlink:title=" ">
<path fill="none" stroke="#63b8ff" d="M365.62,-230.99C397.36,-222.32 447.45,-208.62 487.19,-197.76"/>
<polygon fill="#63b8ff" stroke="#63b8ff" points="488.33,-201.08 497.05,-195.06 486.48,-194.33 488.33,-201.08"/>
</a>
</g>
</g>
<!-- Node16 -->
<g id="Node000016" class="node">
<title>Node16</title>
<g id="a_Node000016"><a xlink:href="errors_8h.html" target="_top" xlink:title="Error types used throughout the math library.">
<polygon fill="white" stroke="#666666" points="821,-129 708,-129 708,-110 821,-110 821,-129"/>
<text text-anchor="middle" x="764.5" y="-117" font-family="Helvetica,sans-Serif" font-size="10.00">math/linalg/errors.h</text>
</a>
</g>
</g>
<!-- Node10&#45;&gt;Node16 -->
<g id="edge20_Node000010_Node000016" class="edge">
<title>Node10&#45;&gt;Node16</title>
<g id="a_edge20_Node000010_Node000016"><a xlink:title=" ">
<path fill="none" stroke="#63b8ff" d="M392.64,-235.69C450.73,-230.66 542.01,-219.39 617.5,-195 664.22,-179.9 714.36,-151.57 742.34,-134.53"/>
<polygon fill="#63b8ff" stroke="#63b8ff" points="744.27,-137.45 750.94,-129.22 740.59,-131.5 744.27,-137.45"/>
</a>
</g>
</g>
<!-- Node17 -->
<g id="Node000017" class="node">
<title>Node17</title>
<g id="a_Node000017"><a xlink:href="matrix__types_8h.html" target="_top" xlink:title="Type definitions and enumerations for matrix operations.">
<polygon fill="white" stroke="#666666" points="470,-195 363,-195 363,-165 470,-165 470,-195"/>
<text text-anchor="start" x="371" y="-183" font-family="Helvetica,sans-Serif" font-size="10.00">math/linalg/matrix</text>
<text text-anchor="middle" x="416.5" y="-172" font-family="Helvetica,sans-Serif" font-size="10.00">_types.h</text>
</a>
</g>
</g>
<!-- Node10&#45;&gt;Node17 -->
<g id="edge21_Node000010_Node000017" class="edge">
<title>Node10&#45;&gt;Node17</title>
<g id="a_edge21_Node000010_Node000017"><a xlink:title=" ">
<path fill="none" stroke="#63b8ff" d="M346.6,-230.87C357.52,-223.08 374.01,-211.32 388.22,-201.17"/>
<polygon fill="#63b8ff" stroke="#63b8ff" points="390.61,-203.77 396.72,-195.11 386.54,-198.07 390.61,-203.77"/>
</a>
</g>
</g>
<!-- Node18 -->
<g id="Node000018" class="node">
<title>Node18</title>
<g id="a_Node000018"><a xlink:title=" ">
<polygon fill="#e0e0e0" stroke="#999999" points="795.5,-189.5 731.5,-189.5 731.5,-170.5 795.5,-170.5 795.5,-189.5"/>
<text text-anchor="middle" x="763.5" y="-177.5" font-family="Helvetica,sans-Serif" font-size="10.00">algorithm</text>
</a>
</g>
</g>
<!-- Node10&#45;&gt;Node18 -->
<g id="edge22_Node000010_Node000018" class="edge">
<title>Node10&#45;&gt;Node18</title>
<g id="a_edge22_Node000010_Node000018"><a xlink:title=" ">
<path fill="none" stroke="#63b8ff" d="M392.64,-231.78C458.57,-222.99 569.29,-208.15 664.5,-195 683.19,-192.42 703.85,-189.51 721.44,-187.01"/>
<polygon fill="#63b8ff" stroke="#63b8ff" points="722,-190.46 731.41,-185.59 721.01,-183.53 722,-190.46"/>
</a>
</g>
</g>
<!-- Node19 -->
<g id="Node000019" class="node">
<title>Node19</title>
<g id="a_Node000019"><a xlink:title=" ">
<polygon fill="#e0e0e0" stroke="#999999" points="246.5,-189.5 204.5,-189.5 204.5,-170.5 246.5,-170.5 246.5,-189.5"/>
<text text-anchor="middle" x="225.5" y="-177.5" font-family="Helvetica,sans-Serif" font-size="10.00">array</text>
</a>
</g>
</g>
<!-- Node10&#45;&gt;Node19 -->
<g id="edge23_Node000010_Node000019" class="edge">
<title>Node10&#45;&gt;Node19</title>
<g id="a_edge23_Node000010_Node000019"><a xlink:title=" ">
<path fill="none" stroke="#63b8ff" d="M318.42,-230.87C300.55,-221.28 271.46,-205.67 250.59,-194.47"/>
<polygon fill="#63b8ff" stroke="#63b8ff" points="252.12,-191.31 241.65,-189.67 248.81,-197.48 252.12,-191.31"/>
</a>
</g>
</g>
<!-- Node20 -->
<g id="Node000020" class="node">
<title>Node20</title>
<g id="a_Node000020"><a xlink:title=" ">
<polygon fill="#e0e0e0" stroke="#999999" points="306,-189.5 265,-189.5 265,-170.5 306,-170.5 306,-189.5"/>
<text text-anchor="middle" x="285.5" y="-177.5" font-family="Helvetica,sans-Serif" font-size="10.00">tuple</text>
</a>
</g>
</g>
<!-- Node10&#45;&gt;Node20 -->
<g id="edge25_Node000010_Node000020" class="edge">
<title>Node10&#45;&gt;Node20</title>
<g id="a_edge25_Node000010_Node000020"><a xlink:title=" ">
<path fill="none" stroke="#63b8ff" d="M327.27,-230.87C319.96,-222.14 308.48,-208.43 299.4,-197.59"/>
<polygon fill="#63b8ff" stroke="#63b8ff" points="301.86,-195.09 292.76,-189.67 296.5,-199.58 301.86,-195.09"/>
</a>
</g>
</g>
<!-- Node11&#45;&gt;Node3 -->
<g id="edge12_Node000011_Node000003" class="edge">
<title>Node11&#45;&gt;Node3</title>
<g id="a_edge12_Node000011_Node000003"><a xlink:title=" ">
<path fill="none" stroke="#63b8ff" d="M488.33,-166.57C485.35,-166.02 482.39,-165.5 479.5,-165 432.8,-156.98 307.4,-139.81 229.34,-129.3"/>
<polygon fill="#63b8ff" stroke="#63b8ff" points="229.5,-125.79 219.13,-127.92 228.57,-132.72 229.5,-125.79"/>
</a>
</g>
</g>
<!-- Node12 -->
<g id="Node000012" class="node">
<title>Node12</title>
<g id="a_Node000012"><a xlink:href="interface__contract_8h.html" target="_top" xlink:title=" ">
<polygon fill="white" stroke="#666666" points="689.5,-129 549.5,-129 549.5,-110 689.5,-110 689.5,-129"/>
<text text-anchor="middle" x="619.5" y="-117" font-family="Helvetica,sans-Serif" font-size="10.00">base/interface_contract.h</text>
</a>
</g>
</g>
<!-- Node11&#45;&gt;Node12 -->
<g id="edge13_Node000011_Node000012" class="edge">
<title>Node11&#45;&gt;Node12</title>
<g id="a_edge13_Node000011_Node000012"><a xlink:title=" ">
<path fill="none" stroke="#63b8ff" d="M565.69,-164.84C576.31,-156.09 589.94,-144.85 600.83,-135.88"/>
<polygon fill="#63b8ff" stroke="#63b8ff" points="603.37,-138.33 608.86,-129.27 598.92,-132.92 603.37,-138.33"/>
</a>
</g>
</g>
<!-- Node14 -->
<g id="Node000014" class="node">
<title>Node14</title>
<g id="a_Node000014"><a xlink:href="require__copy__intf_8h.html" target="_top" xlink:title=" ">
<polygon fill="white" stroke="#666666" points="373.5,-129 237.5,-129 237.5,-110 373.5,-110 373.5,-129"/>
<text text-anchor="middle" x="305.5" y="-117" font-family="Helvetica,sans-Serif" font-size="10.00">base/require_copy_intf.h</text>
</a>
</g>
</g>
<!-- Node11&#45;&gt;Node14 -->
<g id="edge15_Node000011_Node000014" class="edge">
<title>Node11&#45;&gt;Node14</title>
<g id="a_edge15_Node000011_Node000014"><a xlink:title=" ">
<path fill="none" stroke="#63b8ff" d="M490.3,-164.99C447.54,-154.7 390.28,-140.91 350.89,-131.43"/>
<polygon fill="#63b8ff" stroke="#63b8ff" points="351.57,-127.99 341.03,-129.05 349.93,-134.8 351.57,-127.99"/>
</a>
</g>
</g>
<!-- Node15 -->
<g id="Node000015" class="node">
<title>Node15</title>
<g id="a_Node000015"><a xlink:href="require__move__intf_8h.html" target="_top" xlink:title=" ">
<polygon fill="white" stroke="#666666" points="531.5,-129 391.5,-129 391.5,-110 531.5,-110 531.5,-129"/>
<text text-anchor="middle" x="461.5" y="-117" font-family="Helvetica,sans-Serif" font-size="10.00">base/require_move_intf.h</text>
</a>
</g>
</g>
<!-- Node11&#45;&gt;Node15 -->
<g id="edge17_Node000011_Node000015" class="edge">
<title>Node11&#45;&gt;Node15</title>
<g id="a_edge17_Node000011_Node000015"><a xlink:title=" ">
<path fill="none" stroke="#63b8ff" d="M527.44,-164.84C513.96,-155.77 496.51,-144.04 482.95,-134.92"/>
<polygon fill="#63b8ff" stroke="#63b8ff" points="484.53,-131.77 474.28,-129.09 480.63,-137.58 484.53,-131.77"/>
</a>
</g>
</g>
<!-- Node11&#45;&gt;Node16 -->
<g id="edge19_Node000011_Node000016" class="edge">
<title>Node11&#45;&gt;Node16</title>
<g id="a_edge19_Node000011_Node000016"><a xlink:title=" ">
<path fill="none" stroke="#63b8ff" d="M600.24,-164.99C637.84,-154.8 688.06,-141.2 723.03,-131.73"/>
<polygon fill="#63b8ff" stroke="#63b8ff" points="724.18,-135.05 732.92,-129.05 722.35,-128.29 724.18,-135.05"/>
</a>
</g>
</g>
<!-- Node13 -->
<g id="Node000013" class="node">
<title>Node13</title>
<g id="a_Node000013"><a xlink:title=" ">
<polygon fill="#e0e0e0" stroke="#999999" points="606,-74 537,-74 537,-55 606,-55 606,-74"/>
<text text-anchor="middle" x="571.5" y="-62" font-family="Helvetica,sans-Serif" font-size="10.00">type_traits</text>
</a>
</g>
</g>
<!-- Node12&#45;&gt;Node13 -->
<g id="edge14_Node000012_Node000013" class="edge">
<title>Node12&#45;&gt;Node13</title>
<g id="a_edge14_Node000012_Node000013"><a xlink:title=" ">
<path fill="none" stroke="#63b8ff" d="M611.57,-109.75C604.65,-102.11 594.43,-90.82 586.05,-81.56"/>
<polygon fill="#63b8ff" stroke="#63b8ff" points="588.59,-79.15 579.28,-74.09 583.4,-83.85 588.59,-79.15"/>
</a>
</g>
</g>
<!-- Node14&#45;&gt;Node13 -->
<g id="edge16_Node000014_Node000013" class="edge">
<title>Node14&#45;&gt;Node13</title>
<g id="a_edge16_Node000014_Node000013"><a xlink:title=" ">
<path fill="none" stroke="#63b8ff" d="M348.24,-109.98C397.29,-100.21 477.35,-84.26 527.09,-74.35"/>
<polygon fill="#63b8ff" stroke="#63b8ff" points="527.8,-77.78 536.92,-72.39 526.43,-70.91 527.8,-77.78"/>
</a>
</g>
</g>
<!-- Node15&#45;&gt;Node13 -->
<g id="edge18_Node000015_Node000013" class="edge">
<title>Node15&#45;&gt;Node13</title>
<g id="a_edge18_Node000015_Node000013"><a xlink:title=" ">
<path fill="none" stroke="#63b8ff" d="M479.17,-109.98C496.79,-101.5 524.08,-88.35 544.43,-78.54"/>
<polygon fill="#63b8ff" stroke="#63b8ff" points="546.02,-81.66 553.51,-74.17 542.98,-75.36 546.02,-81.66"/>
</a>
</g>
</g>
<!-- Node21&#45;&gt;Node3 -->
<g id="edge27_Node000021_Node000003" class="edge">
<title>Node21&#45;&gt;Node3</title>
<g id="a_edge27_Node000021_Node000003"><a xlink:title=" ">
<path fill="none" stroke="#63b8ff" d="M232.78,-285.63C221.36,-258.4 186.62,-175.61 171.12,-138.65"/>
<polygon fill="#63b8ff" stroke="#63b8ff" points="174.22,-137.01 167.13,-129.14 167.77,-139.72 174.22,-137.01"/>
</a>
</g>
</g>
<!-- Node21&#45;&gt;Node9 -->
<g id="edge29_Node000021_Node000009" class="edge">
<title>Node21&#45;&gt;Node9</title>
<g id="a_edge29_Node000021_Node000009"><a xlink:title=" ">
<path fill="none" stroke="#63b8ff" d="M226.56,-285.95C199.93,-262.68 125.65,-195.55 76.5,-129 65.88,-114.62 56.27,-96.65 49.82,-83.5"/>
<polygon fill="#63b8ff" stroke="#63b8ff" points="52.82,-81.67 45.36,-74.15 46.5,-84.68 52.82,-81.67"/>
</a>
</g>
</g>
<!-- Node21&#45;&gt;Node10 -->
<g id="edge28_Node000021_Node000010" class="edge">
<title>Node21&#45;&gt;Node10</title>
<g id="a_edge28_Node000021_Node000010"><a xlink:title=" ">
<path fill="none" stroke="#63b8ff" d="M252.25,-285.98C267.73,-277.61 291.59,-264.7 309.64,-254.95"/>
<polygon fill="#63b8ff" stroke="#63b8ff" points="311.34,-258.01 318.47,-250.17 308.01,-251.85 311.34,-258.01"/>
</a>
</g>
</g>
<!-- Node22&#45;&gt;Node10 -->
<g id="edge31_Node000022_Node000010" class="edge">
<title>Node22&#45;&gt;Node10</title>
<g id="a_edge31_Node000022_Node000010"><a xlink:title=" ">
<path fill="none" stroke="#63b8ff" d="M673.2,-286.04C599.34,-276.33 478.64,-260.46 403.04,-250.51"/>
<polygon fill="#63b8ff" stroke="#63b8ff" points="403.06,-246.99 392.69,-249.15 402.14,-253.93 403.06,-246.99"/>
</a>
</g>
</g>
<!-- Node22&#45;&gt;Node13 -->
<g id="edge38_Node000022_Node000013" class="edge">
<title>Node22&#45;&gt;Node13</title>
<g id="a_edge38_Node000022_Node000013"><a xlink:title=" ">
<path fill="none" stroke="#63b8ff" d="M748.18,-285.97C781.74,-258.19 879.97,-168.7 830.5,-110 803.64,-78.13 683.17,-69.08 616.41,-66.52"/>
<polygon fill="#63b8ff" stroke="#63b8ff" points="616.29,-63.01 606.18,-66.16 616.05,-70.01 616.29,-63.01"/>
</a>
</g>
</g>
<!-- Node22&#45;&gt;Node18 -->
<g id="edge32_Node000022_Node000018" class="edge">
<title>Node22&#45;&gt;Node18</title>
<g id="a_edge32_Node000022_Node000018"><a xlink:title=" ">
<path fill="none" stroke="#63b8ff" d="M745.98,-285.85C753.55,-277.47 764.1,-264.01 768.5,-250 773.67,-233.54 771.46,-213.84 768.53,-199.7"/>
<polygon fill="#63b8ff" stroke="#63b8ff" points="771.88,-198.65 766.15,-189.74 765.07,-200.27 771.88,-198.65"/>
</a>
</g>
</g>
<!-- Node23 -->
<g id="Node000023" class="node">
<title>Node23</title>
<g id="a_Node000023"><a xlink:title=" ">
<polygon fill="#e0e0e0" stroke="#999999" points="925,-250 878,-250 878,-231 925,-231 925,-250"/>
<text text-anchor="middle" x="901.5" y="-238" font-family="Helvetica,sans-Serif" font-size="10.00">cmath</text>
</a>
</g>
</g>
<!-- Node22&#45;&gt;Node23 -->
<g id="edge33_Node000022_Node000023" class="edge">
<title>Node22&#45;&gt;Node23</title>
<g id="a_edge33_Node000022_Node000023"><a xlink:title=" ">
<path fill="none" stroke="#63b8ff" d="M763.85,-285.98C792.16,-276.84 837.22,-262.27 868.02,-252.32"/>
<polygon fill="#63b8ff" stroke="#63b8ff" points="869.44,-255.54 877.88,-249.13 867.29,-248.88 869.44,-255.54"/>
</a>
</g>
</g>
<!-- Node24 -->
<g id="Node000024" class="node">
<title>Node24</title>
<g id="a_Node000024"><a xlink:title=" ">
<polygon fill="#e0e0e0" stroke="#999999" points="1008,-250 943,-250 943,-231 1008,-231 1008,-250"/>
<text text-anchor="middle" x="975.5" y="-238" font-family="Helvetica,sans-Serif" font-size="10.00">functional</text>
</a>
</g>
</g>
<!-- Node22&#45;&gt;Node24 -->
<g id="edge34_Node000022_Node000024" class="edge">
<title>Node22&#45;&gt;Node24</title>
<g id="a_edge34_Node000022_Node000024"><a xlink:title=" ">
<path fill="none" stroke="#63b8ff" d="M775.74,-285.98C818.65,-276.43 888.09,-260.97 932.76,-251.02"/>
<polygon fill="#63b8ff" stroke="#63b8ff" points="933.72,-254.39 942.72,-248.8 932.2,-247.56 933.72,-254.39"/>
</a>
</g>
</g>
<!-- Node25 -->
<g id="Node000025" class="node">
<title>Node25</title>
<g id="a_Node000025"><a xlink:title=" ">
<polygon fill="#e0e0e0" stroke="#999999" points="613.5,-250 569.5,-250 569.5,-231 613.5,-231 613.5,-250"/>
<text text-anchor="middle" x="591.5" y="-238" font-family="Helvetica,sans-Serif" font-size="10.00">limits</text>
</a>
</g>
</g>
<!-- Node22&#45;&gt;Node25 -->
<g id="edge35_Node000022_Node000025" class="edge">
<title>Node22&#45;&gt;Node25</title>
<g id="a_edge35_Node000022_Node000025"><a xlink:title=" ">
<path fill="none" stroke="#63b8ff" d="M714.04,-285.98C689.49,-277.07 650.78,-263.02 623.45,-253.1"/>
<polygon fill="#63b8ff" stroke="#63b8ff" points="624.53,-249.77 613.94,-249.65 622.15,-256.35 624.53,-249.77"/>
</a>
</g>
</g>
<!-- Node26 -->
<g id="Node000026" class="node">
<title>Node26</title>
<g id="a_Node000026"><a xlink:title=" ">
<polygon fill="#e0e0e0" stroke="#999999" points="697,-250 632,-250 632,-231 697,-231 697,-250"/>
<text text-anchor="middle" x="664.5" y="-238" font-family="Helvetica,sans-Serif" font-size="10.00">stdexcept</text>
</a>
</g>
</g>
<!-- Node22&#45;&gt;Node26 -->
<g id="edge36_Node000022_Node000026" class="edge">
<title>Node22&#45;&gt;Node26</title>
<g id="a_edge36_Node000022_Node000026"><a xlink:title=" ">
<path fill="none" stroke="#63b8ff" d="M725.77,-285.98C714.77,-278 698.08,-265.88 684.9,-256.31"/>
<polygon fill="#63b8ff" stroke="#63b8ff" points="686.59,-253.21 676.44,-250.17 682.48,-258.88 686.59,-253.21"/>
</a>
</g>
</g>
<!-- Node27 -->
<g id="Node000027" class="node">
<title>Node27</title>
<g id="a_Node000027"><a xlink:title=" ">
<polygon fill="#e0e0e0" stroke="#999999" points="759.5,-250 715.5,-250 715.5,-231 759.5,-231 759.5,-250"/>
<text text-anchor="middle" x="737.5" y="-238" font-family="Helvetica,sans-Serif" font-size="10.00">string</text>
</a>
</g>
</g>
<!-- Node22&#45;&gt;Node27 -->
<g id="edge37_Node000022_Node000027" class="edge">
<title>Node22&#45;&gt;Node27</title>
<g id="a_edge37_Node000022_Node000027"><a xlink:title=" ">
<path fill="none" stroke="#63b8ff" d="M737.5,-285.75C737.5,-278.8 737.5,-268.85 737.5,-260.13"/>
<polygon fill="#63b8ff" stroke="#63b8ff" points="741,-260.09 737.5,-250.09 734,-260.09 741,-260.09"/>
</a>
</g>
</g>
</g>
</svg>
