<?xml version="1.0" encoding="UTF-8" standalone="no"?>
<!DOCTYPE svg PUBLIC "-//W3C//DTD SVG 1.1//EN"
 "http://www.w3.org/Graphics/SVG/1.1/DTD/svg11.dtd">
<!-- Generated by graphviz version 2.43.0 (0)
 -->
<!-- Title: tracking::math::operator* Pages: 1 -->
<svg width="333pt" height="161pt"
 viewBox="0.00 0.00 333.00 160.50" xmlns="http://www.w3.org/2000/svg" xmlns:xlink="http://www.w3.org/1999/xlink">

<svg id="main" version="1.1" xmlns="http://www.w3.org/2000/svg" xmlns:xlink="http://www.w3.org/1999/xlink" xml:space="preserve" onload="init(evt)">
<style type="text/css"><![CDATA[
.node, .edge {opacity: 0.7;}
.node.selected, .edge.selected {opacity: 1;}
.edge:hover path { stroke: red; }
.edge:hover polygon { stroke: red; fill: red; }
]]></style>
<script type="application/ecmascript" xlink:href="svg.min.js"/>
<svg id="graph" class="graph">
<g id="graph0" class="graph" transform="scale(1 1) rotate(0) translate(4 156.5)">
<title>tracking::math::operator*</title>
<!-- Node1 -->
<g id="Node000001" class="node">
<title>Node1</title>
<g id="a_Node000001"><a xlink:title=" ">
<polygon fill="#999999" stroke="#666666" points="325,-77 185,-77 185,-58 325,-58 325,-77"/>
<text text-anchor="middle" x="255" y="-65" font-family="Helvetica,sans-Serif" font-size="10.00">tracking::math::operator*</text>
</a>
</g>
</g>
<!-- Node2 -->
<g id="Node000002" class="node">
<title>Node2</title>
<g id="a_Node000002"><a xlink:href="classtracking_1_1math_1_1CovarianceMatrixFull.html#a70d258c33ab8284534f22683e26ec06e" target="_top" xlink:title="Compute A*P*A^T in&#45;place (covariance propagation)">
<polygon fill="white" stroke="#666666" points="149,-152.5 0,-152.5 0,-122.5 149,-122.5 149,-152.5"/>
<text text-anchor="start" x="8" y="-140.5" font-family="Helvetica,sans-Serif" font-size="10.00">tracking::math::Covariance</text>
<text text-anchor="middle" x="74.5" y="-129.5" font-family="Helvetica,sans-Serif" font-size="10.00">MatrixFull::apaT</text>
</a>
</g>
</g>
<!-- Node1&#45;&gt;Node2 -->
<g id="edge1_Node000001_Node000002" class="edge">
<title>Node1&#45;&gt;Node2</title>
<g id="a_edge1_Node000001_Node000002"><a xlink:title=" ">
<path fill="none" stroke="#63b8ff" d="M224.44,-81.37C203.58,-90.93 174.85,-103.65 149,-113.5 140.97,-116.56 132.37,-119.59 123.97,-122.41"/>
<polygon fill="#63b8ff" stroke="#63b8ff" points="226.11,-84.46 233.72,-77.09 223.18,-78.1 226.11,-84.46"/>
</a>
</g>
</g>
<!-- Node3 -->
<g id="Node000003" class="node">
<title>Node3</title>
<g id="a_Node000003"><a xlink:href="classtracking_1_1math_1_1Vector.html#a0f839b3b261c9a949ba0f0dfa133f7ca" target="_top" xlink:title="Compute the squared Euclidean norm (L2 norm squared) of the vector.">
<polygon fill="white" stroke="#666666" points="137,-104.5 12,-104.5 12,-74.5 137,-74.5 137,-104.5"/>
<text text-anchor="start" x="20" y="-92.5" font-family="Helvetica,sans-Serif" font-size="10.00">tracking::math::Vector</text>
<text text-anchor="middle" x="74.5" y="-81.5" font-family="Helvetica,sans-Serif" font-size="10.00">::normSq</text>
</a>
</g>
</g>
<!-- Node1&#45;&gt;Node3 -->
<g id="edge2_Node000001_Node000003" class="edge">
<title>Node1&#45;&gt;Node3</title>
<g id="a_edge2_Node000001_Node000003"><a xlink:title=" ">
<path fill="none" stroke="#63b8ff" d="M174.89,-77.25C162.21,-78.81 149.24,-80.41 137.05,-81.91"/>
<polygon fill="#63b8ff" stroke="#63b8ff" points="175.49,-80.7 184.99,-76.01 174.63,-73.76 175.49,-80.7"/>
</a>
</g>
</g>
<!-- Node4 -->
<g id="Node000004" class="node">
<title>Node4</title>
<g id="a_Node000004"><a xlink:href="namespacetracking_1_1math.html#a5da1defd9816130013342221228abf76" target="_top" xlink:title="Multiply a matrix by a column view.">
<polygon fill="white" stroke="#666666" points="144.5,-56 4.5,-56 4.5,-37 144.5,-37 144.5,-56"/>
<text text-anchor="middle" x="74.5" y="-44" font-family="Helvetica,sans-Serif" font-size="10.00">tracking::math::operator*</text>
</a>
</g>
</g>
<!-- Node1&#45;&gt;Node4 -->
<g id="edge3_Node000001_Node000004" class="edge">
<title>Node1&#45;&gt;Node4</title>
<g id="a_edge3_Node000001_Node000004"><a xlink:title=" ">
<path fill="none" stroke="#63b8ff" d="M174.96,-58.2C164.85,-57.01 154.56,-55.8 144.62,-54.63"/>
<polygon fill="#63b8ff" stroke="#63b8ff" points="174.65,-61.69 184.99,-59.38 175.46,-54.74 174.65,-61.69"/>
</a>
</g>
</g>
<!-- Node5 -->
<g id="Node000005" class="node">
<title>Node5</title>
<g id="a_Node000005"><a xlink:href="namespacetracking_1_1math.html#a3cb17735266f10296c8f695c5a160af3" target="_top" xlink:title="Multiply two matrix views.">
<polygon fill="white" stroke="#666666" points="144.5,-19 4.5,-19 4.5,0 144.5,0 144.5,-19"/>
<text text-anchor="middle" x="74.5" y="-7" font-family="Helvetica,sans-Serif" font-size="10.00">tracking::math::operator*</text>
</a>
</g>
</g>
<!-- Node1&#45;&gt;Node5 -->
<g id="edge4_Node000001_Node000005" class="edge">
<title>Node1&#45;&gt;Node5</title>
<g id="a_edge4_Node000001_Node000005"><a xlink:title=" ">
<path fill="none" stroke="#63b8ff" d="M220.96,-54.23C200.43,-46.24 173.39,-36.16 149,-28.5 138.19,-25.1 126.34,-21.85 115.38,-19.02"/>
<polygon fill="#63b8ff" stroke="#63b8ff" points="219.88,-57.57 230.47,-57.97 222.44,-51.06 219.88,-57.57"/>
</a>
</g>
</g>
</g>
</svg>
</svg>

<style type='text/css'>
<![CDATA[
[data-mouse-over-selected='false'] { opacity: 0.7; }
[data-mouse-over-selected='true']  { opacity: 1.0; }
]]>
</style>
<script type="application/ecmascript"><![CDATA[
document.addEventListener('DOMContentLoaded', (event) => {
  highlightEdges();
  highlightAdjacentNodes();
});
]]></script>
</svg>
