<?xml version="1.0" encoding="UTF-8" standalone="no"?>
<!DOCTYPE svg PUBLIC "-//W3C//DTD SVG 1.1//EN"
 "http://www.w3.org/Graphics/SVG/1.1/DTD/svg11.dtd">
<!-- Generated by graphviz version 2.43.0 (0)
 -->
<!-- Title: tracking::filter::detail::decorrelateMeasurement Pages: 1 -->
<svg width="480pt" height="49pt"
 viewBox="0.00 0.00 480.00 49.00" xmlns="http://www.w3.org/2000/svg" xmlns:xlink="http://www.w3.org/1999/xlink">
<g id="graph0" class="graph" transform="scale(1 1) rotate(0) translate(4 45)">
<title>tracking::filter::detail::decorrelateMeasurement</title>
<!-- Node1 -->
<g id="Node000001" class="node">
<title>Node1</title>
<g id="a_Node000001"><a xlink:title="Decorrelate a measurement for sequential (scalar) processing.">
<polygon fill="#999999" stroke="#666666" points="146,-35.5 0,-35.5 0,-5.5 146,-5.5 146,-35.5"/>
<text text-anchor="start" x="8" y="-23.5" font-family="Helvetica,sans-Serif" font-size="10.00">tracking::filter::detail</text>
<text text-anchor="middle" x="73" y="-12.5" font-family="Helvetica,sans-Serif" font-size="10.00">::decorrelateMeasurement</text>
</a>
</g>
</g>
<!-- Node2 -->
<g id="Node000002" class="node">
<title>Node2</title>
<g id="a_Node000002"><a xlink:href="classtracking_1_1math_1_1Vector.html#a74f4a1dc6f64586863ce3ef351a1e9c8" target="_top" xlink:title="Element read&#45;only access to a scalar vector value (unchecked)">
<polygon fill="white" stroke="#666666" points="307,-35.5 182,-35.5 182,-5.5 307,-5.5 307,-35.5"/>
<text text-anchor="start" x="190" y="-23.5" font-family="Helvetica,sans-Serif" font-size="10.00">tracking::math::Vector</text>
<text text-anchor="middle" x="244.5" y="-12.5" font-family="Helvetica,sans-Serif" font-size="10.00">::at_unsafe</text>
</a>
</g>
</g>
<!-- Node1&#45;&gt;Node2 -->
<g id="edge1_Node000001_Node000002" class="edge">
<title>Node1&#45;&gt;Node2</title>
<g id="a_edge1_Node000001_Node000002"><a xlink:title=" ">
<path fill="none" stroke="#63b8ff" d="M146.37,-20.5C154.75,-20.5 163.3,-20.5 171.67,-20.5"/>
<polygon fill="#63b8ff" stroke="#63b8ff" points="171.78,-24 181.78,-20.5 171.78,-17 171.78,-24"/>
</a>
</g>
</g>
<!-- Node3 -->
<g id="Node000003" class="node">
<title>Node3</title>
<g id="a_Node000003"><a xlink:href="classtracking_1_1math_1_1Matrix.html#a103ed8d3af53ba865c6a00784ed62de6" target="_top" xlink:title="Unsafe element read&#45;only access (no bounds checking)">
<polygon fill="white" stroke="#666666" points="472,-41 343,-41 343,0 472,0 472,-41"/>
<text text-anchor="start" x="351" y="-29" font-family="Helvetica,sans-Serif" font-size="10.00">tracking::math::Matrix</text>
<text text-anchor="start" x="351" y="-18" font-family="Helvetica,sans-Serif" font-size="10.00">&lt; ValueType_, Size_, 1,</text>
<text text-anchor="middle" x="407.5" y="-7" font-family="Helvetica,sans-Serif" font-size="10.00"> true &gt;::at_unsafe</text>
</a>
</g>
</g>
<!-- Node2&#45;&gt;Node3 -->
<g id="edge2_Node000002_Node000003" class="edge">
<title>Node2&#45;&gt;Node3</title>
<g id="a_edge2_Node000002_Node000003"><a xlink:title=" ">
<path fill="none" stroke="#63b8ff" d="M307.29,-20.5C315.55,-20.5 324.08,-20.5 332.52,-20.5"/>
<polygon fill="#63b8ff" stroke="#63b8ff" points="332.75,-24 342.75,-20.5 332.75,-17 332.75,-24"/>
</a>
</g>
</g>
</g>
</svg>
