<?xml version="1.0" encoding="UTF-8" standalone="no"?>
<!DOCTYPE svg PUBLIC "-//W3C//DTD SVG 1.1//EN"
 "http://www.w3.org/Graphics/SVG/1.1/DTD/svg11.dtd">
<!-- Generated by graphviz version 2.43.0 (0)
 -->
<!-- Title: tracking::math::operator&#45; Pages: 1 -->
<svg width="308pt" height="51pt"
 viewBox="0.00 0.00 308.00 50.50" xmlns="http://www.w3.org/2000/svg" xmlns:xlink="http://www.w3.org/1999/xlink">
<g id="graph0" class="graph" transform="scale(1 1) rotate(0) translate(4 46.5)">
<title>tracking::math::operator&#45;</title>
<!-- Node1 -->
<g id="Node000001" class="node">
<title>Node1</title>
<g id="a_Node000001"><a xlink:title="Subtract two matrix views element&#45;wise.">
<polygon fill="#999999" stroke="#666666" points="139,-24.5 0,-24.5 0,-5.5 139,-5.5 139,-24.5"/>
<text text-anchor="middle" x="69.5" y="-12.5" font-family="Helvetica,sans-Serif" font-size="10.00">tracking::math::operator&#45;</text>
</a>
</g>
</g>
<!-- Node1&#45;&gt;Node1 -->
<g id="edge2_Node000001_Node000001" class="edge">
<title>Node1&#45;&gt;Node1</title>
<g id="a_edge2_Node000001_Node000001"><a xlink:title=" ">
<path fill="none" stroke="#63b8ff" d="M43.61,-24.58C31.01,-33.23 39.64,-42.5 69.5,-42.5 89.56,-42.5 100.04,-38.32 100.94,-32.95"/>
<polygon fill="#63b8ff" stroke="#63b8ff" points="103.84,-30.99 95.39,-24.58 98,-34.85 103.84,-30.99"/>
</a>
</g>
</g>
<!-- Node2 -->
<g id="Node000002" class="node">
<title>Node2</title>
<g id="a_Node000002"><a xlink:href="classtracking_1_1math_1_1Matrix.html#a103ed8d3af53ba865c6a00784ed62de6" target="_top" xlink:title="Unsafe element read&#45;only access (no bounds checking)">
<polygon fill="white" stroke="#666666" points="300,-30 175,-30 175,0 300,0 300,-30"/>
<text text-anchor="start" x="183" y="-18" font-family="Helvetica,sans-Serif" font-size="10.00">tracking::math::Matrix</text>
<text text-anchor="middle" x="237.5" y="-7" font-family="Helvetica,sans-Serif" font-size="10.00">::at_unsafe</text>
</a>
</g>
</g>
<!-- Node1&#45;&gt;Node2 -->
<g id="edge1_Node000001_Node000002" class="edge">
<title>Node1&#45;&gt;Node2</title>
<g id="a_edge1_Node000001_Node000002"><a xlink:title=" ">
<path fill="none" stroke="#63b8ff" d="M139.46,-15C147.82,-15 156.37,-15 164.77,-15"/>
<polygon fill="#63b8ff" stroke="#63b8ff" points="164.91,-18.5 174.91,-15 164.91,-11.5 164.91,-18.5"/>
</a>
</g>
</g>
</g>
</svg>
