<?xml version="1.0" encoding="UTF-8" standalone="no"?>
<!DOCTYPE svg PUBLIC "-//W3C//DTD SVG 1.1//EN"
 "http://www.w3.org/Graphics/SVG/1.1/DTD/svg11.dtd">
<!-- Generated by graphviz version 2.43.0 (0)
 -->
<!-- Title: tracking::math::operator* Pages: 1 -->
<svg width="489pt" height="76pt"
 viewBox="0.00 0.00 489.00 75.50" xmlns="http://www.w3.org/2000/svg" xmlns:xlink="http://www.w3.org/1999/xlink">
<g id="graph0" class="graph" transform="scale(1 1) rotate(0) translate(4 71.5)">
<title>tracking::math::operator*</title>
<!-- Node1 -->
<g id="Node000001" class="node">
<title>Node1</title>
<g id="a_Node000001"><a xlink:title="Multiply a matrix by a column view.">
<polygon fill="#999999" stroke="#666666" points="140,-40 0,-40 0,-21 140,-21 140,-40"/>
<text text-anchor="middle" x="70" y="-28" font-family="Helvetica,sans-Serif" font-size="10.00">tracking::math::operator*</text>
</a>
</g>
</g>
<!-- Node2 -->
<g id="Node000002" class="node">
<title>Node2</title>
<g id="a_Node000002"><a xlink:href="classtracking_1_1math_1_1Vector.html#a74f4a1dc6f64586863ce3ef351a1e9c8" target="_top" xlink:title="Element read&#45;only access to a scalar vector value (unchecked)">
<polygon fill="white" stroke="#666666" points="308.5,-67.5 183.5,-67.5 183.5,-37.5 308.5,-37.5 308.5,-67.5"/>
<text text-anchor="start" x="191.5" y="-55.5" font-family="Helvetica,sans-Serif" font-size="10.00">tracking::math::Vector</text>
<text text-anchor="middle" x="246" y="-44.5" font-family="Helvetica,sans-Serif" font-size="10.00">::at_unsafe</text>
</a>
</g>
</g>
<!-- Node1&#45;&gt;Node2 -->
<g id="edge1_Node000001_Node000002" class="edge">
<title>Node1&#45;&gt;Node2</title>
<g id="a_edge1_Node000001_Node000002"><a xlink:title=" ">
<path fill="none" stroke="#63b8ff" d="M140.02,-39.23C150.99,-40.61 162.36,-42.05 173.38,-43.45"/>
<polygon fill="#63b8ff" stroke="#63b8ff" points="173.03,-46.93 183.39,-44.71 173.91,-39.98 173.03,-46.93"/>
</a>
</g>
</g>
<!-- Node4 -->
<g id="Node000004" class="node">
<title>Node4</title>
<g id="a_Node000004"><a xlink:href="namespacetracking_1_1math.html#ae8c2f6288ea8b30c11b8f6d055edbc06" target="_top" xlink:title=" ">
<polygon fill="white" stroke="#666666" points="316,-19 176,-19 176,0 316,0 316,-19"/>
<text text-anchor="middle" x="246" y="-7" font-family="Helvetica,sans-Serif" font-size="10.00">tracking::math::operator*</text>
</a>
</g>
</g>
<!-- Node1&#45;&gt;Node4 -->
<g id="edge3_Node000001_Node000004" class="edge">
<title>Node1&#45;&gt;Node4</title>
<g id="a_edge3_Node000001_Node000004"><a xlink:title=" ">
<path fill="none" stroke="#63b8ff" d="M140.02,-22.17C148.48,-21.15 157.17,-20.1 165.76,-19.06"/>
<polygon fill="#63b8ff" stroke="#63b8ff" points="166.27,-22.53 175.78,-17.85 165.43,-15.58 166.27,-22.53"/>
</a>
</g>
</g>
<!-- Node3 -->
<g id="Node000003" class="node">
<title>Node3</title>
<g id="a_Node000003"><a xlink:href="classtracking_1_1math_1_1Matrix.html#a103ed8d3af53ba865c6a00784ed62de6" target="_top" xlink:title="Unsafe element read&#45;only access (no bounds checking)">
<polygon fill="white" stroke="#666666" points="481,-51 352,-51 352,-10 481,-10 481,-51"/>
<text text-anchor="start" x="360" y="-39" font-family="Helvetica,sans-Serif" font-size="10.00">tracking::math::Matrix</text>
<text text-anchor="start" x="360" y="-28" font-family="Helvetica,sans-Serif" font-size="10.00">&lt; ValueType_, Size_, 1,</text>
<text text-anchor="middle" x="416.5" y="-17" font-family="Helvetica,sans-Serif" font-size="10.00"> true &gt;::at_unsafe</text>
</a>
</g>
</g>
<!-- Node2&#45;&gt;Node3 -->
<g id="edge2_Node000002_Node000003" class="edge">
<title>Node2&#45;&gt;Node3</title>
<g id="a_edge2_Node000002_Node000003"><a xlink:title=" ">
<path fill="none" stroke="#63b8ff" d="M308.79,-44.43C319.5,-43.03 330.74,-41.57 341.73,-40.13"/>
<polygon fill="#63b8ff" stroke="#63b8ff" points="342.28,-43.59 351.74,-38.82 341.37,-36.65 342.28,-43.59"/>
</a>
</g>
</g>
<!-- Node4&#45;&gt;Node3 -->
<g id="edge4_Node000004_Node000003" class="edge">
<title>Node4&#45;&gt;Node3</title>
<g id="a_edge4_Node000004_Node000003"><a xlink:title=" ">
<path fill="none" stroke="#63b8ff" d="M316.02,-18.1C324.51,-19.16 333.22,-20.25 341.78,-21.31"/>
<polygon fill="#63b8ff" stroke="#63b8ff" points="341.38,-24.79 351.74,-22.55 342.25,-17.84 341.38,-24.79"/>
</a>
</g>
</g>
</g>
</svg>
