<?xml version="1.0" encoding="UTF-8" standalone="no"?>
<!DOCTYPE svg PUBLIC "-//W3C//DTD SVG 1.1//EN"
 "http://www.w3.org/Graphics/SVG/1.1/DTD/svg11.dtd">
<!-- Generated by graphviz version 2.43.0 (0)
 -->
<!-- Title: include/trackingLib/math/linalg/point2d.h Pages: 1 -->
<!--zoomable 434 -->

<svg id="main" version="1.1" xmlns="http://www.w3.org/2000/svg" xmlns:xlink="http://www.w3.org/1999/xlink" xml:space="preserve" onload="init(evt)">
<style type="text/css"><![CDATA[
.node, .edge {opacity: 0.7;}
.node.selected, .edge.selected {opacity: 1;}
.edge:hover path { stroke: red; }
.edge:hover polygon { stroke: red; fill: red; }
]]></style>

<defs>
  <circle id="rim" cx="0" cy="0" r="7"/>
  <circle id="rim2" cx="0" cy="0" r="3.5"/>
  <g id="zoomPlus">
    <use xlink:href="#rim" fill="#404040"><set attributeName="fill" to="#808080" begin="zoomplus.mouseover" end="zoomplus.mouseout"/></use>
    <path d="M-4,0h8M0,-4v8" fill="none" stroke="white" stroke-width="1.5" pointer-events="none"/>
  </g>
  <g id="zoomMin">
    <use xlink:href="#rim" fill="#404040"><set attributeName="fill" to="#808080" begin="zoomminus.mouseover" end="zoomminus.mouseout"/></use>
    <path d="M-4,0h8" fill="none" stroke="white" stroke-width="1.5" pointer-events="none"/>
  </g>
  <g id="arrowUp" transform="translate(30 24)">
    <use xlink:href="#rim"/>
    <path pointer-events="none" fill="none" stroke="white" stroke-width="1.5" d="M0,-3.0v7 M-2.5,-0.5L0,-3.0L2.5,-0.5"/>
  </g>
  <g id="arrowRight" transform="rotate(90) translate(36 -43)">
    <use xlink:href="#rim"/>
    <path pointer-events="none" fill="none" stroke="white" stroke-width="1.5" d="M0,-3.0v7 M-2.5,-0.5L0,-3.0L2.5,-0.5"/>
  </g>
  <g id="arrowDown" transform="rotate(180) translate(-30 -48)">
    <use xlink:href="#rim"/>
    <path pointer-events="none" fill="none" stroke="white" stroke-width="1.5" d="M0,-3.0v7 M-2.5,-0.5L0,-3.0L2.5,-0.5"/>
  </g>
  <g id="arrowLeft" transform="rotate(270) translate(-36 17)">
    <use xlink:href="#rim"/>
    <path pointer-events="none" fill="none" stroke="white" stroke-width="1.5" d="M0,-3.0v7 M-2.5,-0.5L0,-3.0L2.5,-0.5"/>
  </g>
  <g id="resetDef">
    <use xlink:href="#rim2" fill="#404040"><set attributeName="fill" to="#808080" begin="reset.mouseover" end="reset.mouseout"/></use>
  </g>
</defs>
<script type="application/ecmascript">
var viewWidth = 1218;
var viewHeight = 434;
var sectionId = 'dynsection-0';
</script>
<script type="application/ecmascript" xlink:href="svg.min.js"/>
<svg id="graph" class="graph">
<g id="viewport">
<title>include/trackingLib/math/linalg/point2d.h</title>
<!-- Node1 -->
<g id="Node000001" class="node">
<title>Node1</title>
<g id="a_Node000001"><a xlink:title="2D point class with named coordinate access">
<polygon fill="#999999" stroke="#666666" points="1012.5,-426 888.5,-426 888.5,-396 1012.5,-396 1012.5,-426"/>
<text text-anchor="start" x="896.5" y="-414" font-family="Helvetica,sans-Serif" font-size="10.00">include/trackingLib</text>
<text text-anchor="middle" x="950.5" y="-403" font-family="Helvetica,sans-Serif" font-size="10.00">/math/linalg/point2d.h</text>
</a>
</g>
</g>
<!-- Node2 -->
<g id="Node000002" class="node">
<title>Node2</title>
<g id="a_Node000002"><a xlink:href="first__include_8h.html" target="_top" xlink:title=" ">
<polygon fill="white" stroke="#666666" points="1102,-129 991,-129 991,-110 1102,-110 1102,-129"/>
<text text-anchor="middle" x="1046.5" y="-117" font-family="Helvetica,sans-Serif" font-size="10.00">base/first_include.h</text>
</a>
</g>
</g>
<!-- Node1&#45;&gt;Node2 -->
<g id="edge1_Node000001_Node000002" class="edge">
<title>Node1&#45;&gt;Node2</title>
<g id="a_edge1_Node000001_Node000002"><a xlink:title=" ">
<path fill="none" stroke="#63b8ff" d="M1012.7,-397.61C1064.73,-383.2 1130.5,-353.67 1130.5,-296.5 1130.5,-296.5 1130.5,-296.5 1130.5,-239.5 1130.5,-195.39 1091.5,-156.14 1066.65,-135.61"/>
<polygon fill="#63b8ff" stroke="#63b8ff" points="1068.54,-132.64 1058.54,-129.15 1064.18,-138.12 1068.54,-132.64"/>
</a>
</g>
</g>
<!-- Node9 -->
<g id="Node000009" class="node">
<title>Node9</title>
<g id="a_Node000009"><a xlink:href="vector_8hpp.html" target="_top" xlink:title=" ">
<polygon fill="white" stroke="#666666" points="776.5,-360 650.5,-360 650.5,-341 776.5,-341 776.5,-360"/>
<text text-anchor="middle" x="713.5" y="-348" font-family="Helvetica,sans-Serif" font-size="10.00">math/linalg/vector.hpp</text>
</a>
</g>
</g>
<!-- Node1&#45;&gt;Node9 -->
<g id="edge8_Node000001_Node000009" class="edge">
<title>Node1&#45;&gt;Node9</title>
<g id="a_edge8_Node000001_Node000009"><a xlink:title=" ">
<path fill="none" stroke="#63b8ff" d="M893.73,-395.99C852.12,-385.72 796.42,-371.97 758.01,-362.49"/>
<polygon fill="#63b8ff" stroke="#63b8ff" points="758.7,-359.05 748.15,-360.05 757.02,-365.85 758.7,-359.05"/>
</a>
</g>
</g>
<!-- Node3 -->
<g id="Node000003" class="node">
<title>Node3</title>
<g id="a_Node000003"><a xlink:href="test__config_8h.html" target="_top" xlink:title=" ">
<polygon fill="white" stroke="#666666" points="1109,-74 1030,-74 1030,-55 1109,-55 1109,-74"/>
<text text-anchor="middle" x="1069.5" y="-62" font-family="Helvetica,sans-Serif" font-size="10.00">test_config.h</text>
</a>
</g>
</g>
<!-- Node2&#45;&gt;Node3 -->
<g id="edge2_Node000002_Node000003" class="edge">
<title>Node2&#45;&gt;Node3</title>
<g id="a_edge2_Node000002_Node000003"><a xlink:title=" ">
<path fill="none" stroke="#63b8ff" d="M1050.3,-109.75C1053.41,-102.57 1057.92,-92.18 1061.79,-83.27"/>
<polygon fill="#63b8ff" stroke="#63b8ff" points="1065,-84.66 1065.77,-74.09 1058.58,-81.87 1065,-84.66"/>
</a>
</g>
</g>
<!-- Node4 -->
<g id="Node000004" class="node">
<title>Node4</title>
<g id="a_Node000004"><a xlink:href="atomic__types_8h.html" target="_top" xlink:title=" ">
<polygon fill="white" stroke="#666666" points="831.5,-74 739.5,-74 739.5,-55 831.5,-55 831.5,-74"/>
<text text-anchor="middle" x="785.5" y="-62" font-family="Helvetica,sans-Serif" font-size="10.00">atomic_types.h</text>
</a>
</g>
</g>
<!-- Node2&#45;&gt;Node4 -->
<g id="edge3_Node000002_Node000004" class="edge">
<title>Node2&#45;&gt;Node4</title>
<g id="a_edge3_Node000002_Node000004"><a xlink:title=" ">
<path fill="none" stroke="#63b8ff" d="M1004.57,-109.98C959.23,-100.78 886.89,-86.09 837.85,-76.13"/>
<polygon fill="#63b8ff" stroke="#63b8ff" points="838.26,-72.64 827.76,-74.08 836.87,-79.5 838.26,-72.64"/>
</a>
</g>
</g>
<!-- Node6 -->
<g id="Node000006" class="node">
<title>Node6</title>
<g id="a_Node000006"><a xlink:title=" ">
<polygon fill="#e0e0e0" stroke="#999999" points="941.5,-74 849.5,-74 849.5,-55 941.5,-55 941.5,-74"/>
<text text-anchor="middle" x="895.5" y="-62" font-family="Helvetica,sans-Serif" font-size="10.00">tl/expected.hpp</text>
</a>
</g>
</g>
<!-- Node2&#45;&gt;Node6 -->
<g id="edge5_Node000002_Node000006" class="edge">
<title>Node2&#45;&gt;Node6</title>
<g id="a_edge5_Node000002_Node000006"><a xlink:title=" ">
<path fill="none" stroke="#63b8ff" d="M1022.24,-109.98C997.18,-101.19 957.87,-87.39 929.67,-77.49"/>
<polygon fill="#63b8ff" stroke="#63b8ff" points="930.8,-74.18 920.2,-74.17 928.48,-80.78 930.8,-74.18"/>
</a>
</g>
</g>
<!-- Node7 -->
<g id="Node000007" class="node">
<title>Node7</title>
<g id="a_Node000007"><a xlink:title=" ">
<polygon fill="#e0e0e0" stroke="#999999" points="1011.5,-74 959.5,-74 959.5,-55 1011.5,-55 1011.5,-74"/>
<text text-anchor="middle" x="985.5" y="-62" font-family="Helvetica,sans-Serif" font-size="10.00">cassert</text>
</a>
</g>
</g>
<!-- Node2&#45;&gt;Node7 -->
<g id="edge6_Node000002_Node000007" class="edge">
<title>Node2&#45;&gt;Node7</title>
<g id="a_edge6_Node000002_Node000007"><a xlink:title=" ">
<path fill="none" stroke="#63b8ff" d="M1036.7,-109.98C1027.68,-102.15 1014.09,-90.34 1003.18,-80.86"/>
<polygon fill="#63b8ff" stroke="#63b8ff" points="1005.32,-78.09 995.48,-74.17 1000.73,-83.37 1005.32,-78.09"/>
</a>
</g>
</g>
<!-- Node8 -->
<g id="Node000008" class="node">
<title>Node8</title>
<g id="a_Node000008"><a xlink:title=" ">
<polygon fill="#e0e0e0" stroke="#999999" points="1210,-74 1127,-74 1127,-55 1210,-55 1210,-74"/>
<text text-anchor="middle" x="1168.5" y="-62" font-family="Helvetica,sans-Serif" font-size="10.00">initializer_list</text>
</a>
</g>
</g>
<!-- Node2&#45;&gt;Node8 -->
<g id="edge7_Node000002_Node000008" class="edge">
<title>Node2&#45;&gt;Node8</title>
<g id="a_edge7_Node000002_Node000008"><a xlink:title=" ">
<path fill="none" stroke="#63b8ff" d="M1066.1,-109.98C1085.82,-101.42 1116.45,-88.11 1139.08,-78.28"/>
<polygon fill="#63b8ff" stroke="#63b8ff" points="1140.76,-81.37 1148.54,-74.17 1137.98,-74.94 1140.76,-81.37"/>
</a>
</g>
</g>
<!-- Node5 -->
<g id="Node000005" class="node">
<title>Node5</title>
<g id="a_Node000005"><a xlink:title=" ">
<polygon fill="#e0e0e0" stroke="#999999" points="810.5,-19 760.5,-19 760.5,0 810.5,0 810.5,-19"/>
<text text-anchor="middle" x="785.5" y="-7" font-family="Helvetica,sans-Serif" font-size="10.00">cstdint</text>
</a>
</g>
</g>
<!-- Node4&#45;&gt;Node5 -->
<g id="edge4_Node000004_Node000005" class="edge">
<title>Node4&#45;&gt;Node5</title>
<g id="a_edge4_Node000004_Node000005"><a xlink:title=" ">
<path fill="none" stroke="#63b8ff" d="M785.5,-54.75C785.5,-47.8 785.5,-37.85 785.5,-29.13"/>
<polygon fill="#63b8ff" stroke="#63b8ff" points="789,-29.09 785.5,-19.09 782,-29.09 789,-29.09"/>
</a>
</g>
</g>
<!-- Node10 -->
<g id="Node000010" class="node">
<title>Node10</title>
<g id="a_Node000010"><a xlink:href="vector_8h.html" target="_top" xlink:title=" ">
<polygon fill="white" stroke="#666666" points="937.5,-305 823.5,-305 823.5,-286 937.5,-286 937.5,-305"/>
<text text-anchor="middle" x="880.5" y="-293" font-family="Helvetica,sans-Serif" font-size="10.00">math/linalg/vector.h</text>
</a>
</g>
</g>
<!-- Node9&#45;&gt;Node10 -->
<g id="edge9_Node000009_Node000010" class="edge">
<title>Node9&#45;&gt;Node10</title>
<g id="a_edge9_Node000009_Node000010"><a xlink:title=" ">
<path fill="none" stroke="#63b8ff" d="M740.33,-340.98C768.37,-332.09 812.55,-318.07 843.8,-308.15"/>
<polygon fill="#63b8ff" stroke="#63b8ff" points="844.99,-311.44 853.46,-305.08 842.87,-304.77 844.99,-311.44"/>
</a>
</g>
</g>
<!-- Node22 -->
<g id="Node000022" class="node">
<title>Node22</title>
<g id="a_Node000022"><a xlink:href="matrix_8hpp.html" target="_top" xlink:title=" ">
<polygon fill="white" stroke="#666666" points="380.5,-305 252.5,-305 252.5,-286 380.5,-286 380.5,-305"/>
<text text-anchor="middle" x="316.5" y="-293" font-family="Helvetica,sans-Serif" font-size="10.00">math/linalg/matrix.hpp</text>
</a>
</g>
</g>
<!-- Node9&#45;&gt;Node22 -->
<g id="edge29_Node000009_Node000022" class="edge">
<title>Node9&#45;&gt;Node22</title>
<g id="a_edge29_Node000009_Node000022"><a xlink:title=" ">
<path fill="none" stroke="#63b8ff" d="M650.16,-341.04C579.49,-331.61 465.29,-316.36 390.55,-306.39"/>
<polygon fill="#63b8ff" stroke="#63b8ff" points="390.65,-302.87 380.28,-305.01 389.73,-309.81 390.65,-302.87"/>
</a>
</g>
</g>
<!-- Node23 -->
<g id="Node000023" class="node">
<title>Node23</title>
<g id="a_Node000023"><a xlink:title=" ">
<polygon fill="#e0e0e0" stroke="#999999" points="47,-250 0,-250 0,-231 47,-231 47,-250"/>
<text text-anchor="middle" x="23.5" y="-238" font-family="Helvetica,sans-Serif" font-size="10.00">cmath</text>
</a>
</g>
</g>
<!-- Node9&#45;&gt;Node23 -->
<g id="edge38_Node000009_Node000023" class="edge">
<title>Node9&#45;&gt;Node23</title>
<g id="a_edge38_Node000009_Node000023"><a xlink:title=" ">
<path fill="none" stroke="#63b8ff" d="M650.26,-347.26C559.51,-343.19 387.43,-332.34 243.5,-305 176.07,-292.19 99.52,-267.78 56.83,-253.24"/>
<polygon fill="#63b8ff" stroke="#63b8ff" points="57.83,-249.88 47.23,-249.94 55.56,-256.5 57.83,-249.88"/>
</a>
</g>
</g>
<!-- Node10&#45;&gt;Node2 -->
<g id="edge10_Node000010_Node000002" class="edge">
<title>Node10&#45;&gt;Node2</title>
<g id="a_edge10_Node000010_Node000002"><a xlink:title=" ">
<path fill="none" stroke="#63b8ff" d="M888.96,-285.63C915.38,-257.94 996.65,-172.75 1030.96,-136.79"/>
<polygon fill="#63b8ff" stroke="#63b8ff" points="1033.88,-138.8 1038.25,-129.14 1028.82,-133.96 1033.88,-138.8"/>
</a>
</g>
</g>
<!-- Node10&#45;&gt;Node8 -->
<g id="edge28_Node000010_Node000008" class="edge">
<title>Node10&#45;&gt;Node8</title>
<g id="a_edge28_Node000010_Node000008"><a xlink:title=" ">
<path fill="none" stroke="#63b8ff" d="M900.53,-285.9C947.08,-265.06 1064.01,-207.73 1135.5,-129 1147.49,-115.79 1156.42,-97.42 1161.94,-83.83"/>
<polygon fill="#63b8ff" stroke="#63b8ff" points="1165.34,-84.74 1165.63,-74.15 1158.8,-82.25 1165.34,-84.74"/>
</a>
</g>
</g>
<!-- Node11 -->
<g id="Node000011" class="node">
<title>Node11</title>
<g id="a_Node000011"><a xlink:href="matrix_8h.html" target="_top" xlink:title=" ">
<polygon fill="white" stroke="#666666" points="743.5,-250 627.5,-250 627.5,-231 743.5,-231 743.5,-250"/>
<text text-anchor="middle" x="685.5" y="-238" font-family="Helvetica,sans-Serif" font-size="10.00">math/linalg/matrix.h</text>
</a>
</g>
</g>
<!-- Node10&#45;&gt;Node11 -->
<g id="edge11_Node000010_Node000011" class="edge">
<title>Node10&#45;&gt;Node11</title>
<g id="a_edge11_Node000010_Node000011"><a xlink:title=" ">
<path fill="none" stroke="#63b8ff" d="M849.17,-285.98C816.01,-276.97 763.5,-262.7 726.94,-252.76"/>
<polygon fill="#63b8ff" stroke="#63b8ff" points="727.64,-249.33 717.08,-250.08 725.81,-256.08 727.64,-249.33"/>
</a>
</g>
</g>
<!-- Node11&#45;&gt;Node2 -->
<g id="edge12_Node000011_Node000002" class="edge">
<title>Node11&#45;&gt;Node2</title>
<g id="a_edge12_Node000011_Node000002"><a xlink:title=" ">
<path fill="none" stroke="#63b8ff" d="M737.17,-230.93C777.6,-223.5 834.92,-211.36 883.5,-195 934.27,-177.9 990.49,-150.1 1021.85,-133.73"/>
<polygon fill="#63b8ff" stroke="#63b8ff" points="1023.54,-136.8 1030.76,-129.04 1020.28,-130.6 1023.54,-136.8"/>
</a>
</g>
</g>
<!-- Node11&#45;&gt;Node8 -->
<g id="edge26_Node000011_Node000008" class="edge">
<title>Node11&#45;&gt;Node8</title>
<g id="a_edge26_Node000011_Node000008"><a xlink:title=" ">
<path fill="none" stroke="#63b8ff" d="M743.6,-236.68C830.62,-229.93 996.82,-206.98 1111.5,-129 1129.99,-116.43 1146.49,-96.61 1156.92,-82.45"/>
<polygon fill="#63b8ff" stroke="#63b8ff" points="1159.92,-84.28 1162.86,-74.11 1154.21,-80.23 1159.92,-84.28"/>
</a>
</g>
</g>
<!-- Node12 -->
<g id="Node000012" class="node">
<title>Node12</title>
<g id="a_Node000012"><a xlink:href="matrix__intf_8h.html" target="_top" xlink:title=" ">
<polygon fill="white" stroke="#666666" points="874.5,-195 754.5,-195 754.5,-165 874.5,-165 874.5,-195"/>
<text text-anchor="start" x="762.5" y="-183" font-family="Helvetica,sans-Serif" font-size="10.00">math/linalg/contracts</text>
<text text-anchor="middle" x="814.5" y="-172" font-family="Helvetica,sans-Serif" font-size="10.00">/matrix_intf.h</text>
</a>
</g>
</g>
<!-- Node11&#45;&gt;Node12 -->
<g id="edge13_Node000011_Node000012" class="edge">
<title>Node11&#45;&gt;Node12</title>
<g id="a_edge13_Node000011_Node000012"><a xlink:title=" ">
<path fill="none" stroke="#63b8ff" d="M704.26,-230.99C722.44,-222.75 750.6,-209.98 773.92,-199.4"/>
<polygon fill="#63b8ff" stroke="#63b8ff" points="775.57,-202.5 783.24,-195.18 772.68,-196.12 775.57,-202.5"/>
</a>
</g>
</g>
<!-- Node17 -->
<g id="Node000017" class="node">
<title>Node17</title>
<g id="a_Node000017"><a xlink:href="errors_8h.html" target="_top" xlink:title="Error types used throughout the math library.">
<polygon fill="white" stroke="#666666" points="502,-129 389,-129 389,-110 502,-110 502,-129"/>
<text text-anchor="middle" x="445.5" y="-117" font-family="Helvetica,sans-Serif" font-size="10.00">math/linalg/errors.h</text>
</a>
</g>
</g>
<!-- Node11&#45;&gt;Node17 -->
<g id="edge22_Node000011_Node000017" class="edge">
<title>Node11&#45;&gt;Node17</title>
<g id="a_edge22_Node000011_Node000017"><a xlink:title=" ">
<path fill="none" stroke="#63b8ff" d="M627.19,-235.8C588.55,-230.99 538.22,-220.01 500.5,-195 479.11,-180.82 463,-155.35 453.92,-138.18"/>
<polygon fill="#63b8ff" stroke="#63b8ff" points="457.01,-136.55 449.39,-129.19 450.76,-139.69 457.01,-136.55"/>
</a>
</g>
</g>
<!-- Node18 -->
<g id="Node000018" class="node">
<title>Node18</title>
<g id="a_Node000018"><a xlink:href="matrix__types_8h.html" target="_top" xlink:title="Type definitions and enumerations for matrix operations.">
<polygon fill="white" stroke="#666666" points="616,-195 509,-195 509,-165 616,-165 616,-195"/>
<text text-anchor="start" x="517" y="-183" font-family="Helvetica,sans-Serif" font-size="10.00">math/linalg/matrix</text>
<text text-anchor="middle" x="562.5" y="-172" font-family="Helvetica,sans-Serif" font-size="10.00">_types.h</text>
</a>
</g>
</g>
<!-- Node11&#45;&gt;Node18 -->
<g id="edge23_Node000011_Node000018" class="edge">
<title>Node11&#45;&gt;Node18</title>
<g id="a_edge23_Node000011_Node000018"><a xlink:title=" ">
<path fill="none" stroke="#63b8ff" d="M667.61,-230.99C650.36,-222.79 623.66,-210.09 601.49,-199.55"/>
<polygon fill="#63b8ff" stroke="#63b8ff" points="602.84,-196.31 592.31,-195.18 599.84,-202.63 602.84,-196.31"/>
</a>
</g>
</g>
<!-- Node19 -->
<g id="Node000019" class="node">
<title>Node19</title>
<g id="a_Node000019"><a xlink:title=" ">
<polygon fill="#e0e0e0" stroke="#999999" points="452.5,-189.5 388.5,-189.5 388.5,-170.5 452.5,-170.5 452.5,-189.5"/>
<text text-anchor="middle" x="420.5" y="-177.5" font-family="Helvetica,sans-Serif" font-size="10.00">algorithm</text>
</a>
</g>
</g>
<!-- Node11&#45;&gt;Node19 -->
<g id="edge24_Node000011_Node000019" class="edge">
<title>Node11&#45;&gt;Node19</title>
<g id="a_edge24_Node000011_Node000019"><a xlink:title=" ">
<path fill="none" stroke="#63b8ff" d="M636.92,-231C592.35,-222.87 524.61,-209.71 466.5,-195 463.34,-194.2 460.08,-193.32 456.82,-192.4"/>
<polygon fill="#63b8ff" stroke="#63b8ff" points="457.72,-189.02 447.14,-189.58 455.75,-195.74 457.72,-189.02"/>
</a>
</g>
</g>
<!-- Node20 -->
<g id="Node000020" class="node">
<title>Node20</title>
<g id="a_Node000020"><a xlink:title=" ">
<polygon fill="#e0e0e0" stroke="#999999" points="676.5,-189.5 634.5,-189.5 634.5,-170.5 676.5,-170.5 676.5,-189.5"/>
<text text-anchor="middle" x="655.5" y="-177.5" font-family="Helvetica,sans-Serif" font-size="10.00">array</text>
</a>
</g>
</g>
<!-- Node11&#45;&gt;Node20 -->
<g id="edge25_Node000011_Node000020" class="edge">
<title>Node11&#45;&gt;Node20</title>
<g id="a_edge25_Node000011_Node000020"><a xlink:title=" ">
<path fill="none" stroke="#63b8ff" d="M681.07,-230.87C676.73,-222.4 669.98,-209.24 664.51,-198.57"/>
<polygon fill="#63b8ff" stroke="#63b8ff" points="667.62,-196.97 659.94,-189.67 661.39,-200.16 667.62,-196.97"/>
</a>
</g>
</g>
<!-- Node21 -->
<g id="Node000021" class="node">
<title>Node21</title>
<g id="a_Node000021"><a xlink:title=" ">
<polygon fill="#e0e0e0" stroke="#999999" points="736,-189.5 695,-189.5 695,-170.5 736,-170.5 736,-189.5"/>
<text text-anchor="middle" x="715.5" y="-177.5" font-family="Helvetica,sans-Serif" font-size="10.00">tuple</text>
</a>
</g>
</g>
<!-- Node11&#45;&gt;Node21 -->
<g id="edge27_Node000011_Node000021" class="edge">
<title>Node11&#45;&gt;Node21</title>
<g id="a_edge27_Node000011_Node000021"><a xlink:title=" ">
<path fill="none" stroke="#63b8ff" d="M689.93,-230.87C694.27,-222.4 701.02,-209.24 706.49,-198.57"/>
<polygon fill="#63b8ff" stroke="#63b8ff" points="709.61,-200.16 711.06,-189.67 703.38,-196.97 709.61,-200.16"/>
</a>
</g>
</g>
<!-- Node12&#45;&gt;Node2 -->
<g id="edge14_Node000012_Node000002" class="edge">
<title>Node12&#45;&gt;Node2</title>
<g id="a_edge14_Node000012_Node000002"><a xlink:title=" ">
<path fill="none" stroke="#63b8ff" d="M870.07,-164.99C910.63,-154.76 964.86,-141.09 1002.44,-131.61"/>
<polygon fill="#63b8ff" stroke="#63b8ff" points="1003.74,-134.89 1012.58,-129.05 1002.03,-128.1 1003.74,-134.89"/>
</a>
</g>
</g>
<!-- Node13 -->
<g id="Node000013" class="node">
<title>Node13</title>
<g id="a_Node000013"><a xlink:href="interface__contract_8h.html" target="_top" xlink:title=" ">
<polygon fill="white" stroke="#666666" points="972.5,-129 832.5,-129 832.5,-110 972.5,-110 972.5,-129"/>
<text text-anchor="middle" x="902.5" y="-117" font-family="Helvetica,sans-Serif" font-size="10.00">base/interface_contract.h</text>
</a>
</g>
</g>
<!-- Node12&#45;&gt;Node13 -->
<g id="edge15_Node000012_Node000013" class="edge">
<title>Node12&#45;&gt;Node13</title>
<g id="a_edge15_Node000012_Node000013"><a xlink:title=" ">
<path fill="none" stroke="#63b8ff" d="M835.8,-164.84C849.57,-155.68 867.43,-143.82 881.2,-134.66"/>
<polygon fill="#63b8ff" stroke="#63b8ff" points="883.18,-137.55 889.57,-129.09 879.31,-131.72 883.18,-137.55"/>
</a>
</g>
</g>
<!-- Node15 -->
<g id="Node000015" class="node">
<title>Node15</title>
<g id="a_Node000015"><a xlink:href="require__copy__intf_8h.html" target="_top" xlink:title=" ">
<polygon fill="white" stroke="#666666" points="656.5,-129 520.5,-129 520.5,-110 656.5,-110 656.5,-129"/>
<text text-anchor="middle" x="588.5" y="-117" font-family="Helvetica,sans-Serif" font-size="10.00">base/require_copy_intf.h</text>
</a>
</g>
</g>
<!-- Node12&#45;&gt;Node15 -->
<g id="edge17_Node000012_Node000015" class="edge">
<title>Node12&#45;&gt;Node15</title>
<g id="a_edge17_Node000012_Node000015"><a xlink:title=" ">
<path fill="none" stroke="#63b8ff" d="M760.37,-164.99C720.86,-154.76 668.03,-141.09 631.42,-131.61"/>
<polygon fill="#63b8ff" stroke="#63b8ff" points="632.1,-128.17 621.54,-129.05 630.35,-134.95 632.1,-128.17"/>
</a>
</g>
</g>
<!-- Node16 -->
<g id="Node000016" class="node">
<title>Node16</title>
<g id="a_Node000016"><a xlink:href="require__move__intf_8h.html" target="_top" xlink:title=" ">
<polygon fill="white" stroke="#666666" points="814.5,-129 674.5,-129 674.5,-110 814.5,-110 814.5,-129"/>
<text text-anchor="middle" x="744.5" y="-117" font-family="Helvetica,sans-Serif" font-size="10.00">base/require_move_intf.h</text>
</a>
</g>
</g>
<!-- Node12&#45;&gt;Node16 -->
<g id="edge19_Node000012_Node000016" class="edge">
<title>Node12&#45;&gt;Node16</title>
<g id="a_edge19_Node000012_Node000016"><a xlink:title=" ">
<path fill="none" stroke="#63b8ff" d="M797.55,-164.84C787.08,-156.09 773.64,-144.85 762.91,-135.88"/>
<polygon fill="#63b8ff" stroke="#63b8ff" points="764.91,-132.99 754.99,-129.27 760.42,-138.36 764.91,-132.99"/>
</a>
</g>
</g>
<!-- Node12&#45;&gt;Node17 -->
<g id="edge21_Node000012_Node000017" class="edge">
<title>Node12&#45;&gt;Node17</title>
<g id="a_edge21_Node000012_Node000017"><a xlink:title=" ">
<path fill="none" stroke="#63b8ff" d="M754.32,-166.6C751.34,-166.04 748.39,-165.51 745.5,-165 665.59,-150.98 573.19,-137.71 512.29,-129.37"/>
<polygon fill="#63b8ff" stroke="#63b8ff" points="512.42,-125.86 502.04,-127.98 511.48,-132.8 512.42,-125.86"/>
</a>
</g>
</g>
<!-- Node14 -->
<g id="Node000014" class="node">
<title>Node14</title>
<g id="a_Node000014"><a xlink:title=" ">
<polygon fill="#e0e0e0" stroke="#999999" points="672,-74 603,-74 603,-55 672,-55 672,-74"/>
<text text-anchor="middle" x="637.5" y="-62" font-family="Helvetica,sans-Serif" font-size="10.00">type_traits</text>
</a>
</g>
</g>
<!-- Node13&#45;&gt;Node14 -->
<g id="edge16_Node000013_Node000014" class="edge">
<title>Node13&#45;&gt;Node14</title>
<g id="a_edge16_Node000013_Node000014"><a xlink:title=" ">
<path fill="none" stroke="#63b8ff" d="M859.92,-109.98C811.3,-100.26 732.08,-84.42 682.47,-74.49"/>
<polygon fill="#63b8ff" stroke="#63b8ff" points="682.85,-71 672.36,-72.47 681.48,-77.86 682.85,-71"/>
</a>
</g>
</g>
<!-- Node15&#45;&gt;Node14 -->
<g id="edge18_Node000015_Node000014" class="edge">
<title>Node15&#45;&gt;Node14</title>
<g id="a_edge18_Node000015_Node000014"><a xlink:title=" ">
<path fill="none" stroke="#63b8ff" d="M596.59,-109.75C603.66,-102.11 614.09,-90.82 622.65,-81.56"/>
<polygon fill="#63b8ff" stroke="#63b8ff" points="625.34,-83.81 629.56,-74.09 620.2,-79.06 625.34,-83.81"/>
</a>
</g>
</g>
<!-- Node16&#45;&gt;Node14 -->
<g id="edge20_Node000016_Node000014" class="edge">
<title>Node16&#45;&gt;Node14</title>
<g id="a_edge20_Node000016_Node000014"><a xlink:title=" ">
<path fill="none" stroke="#63b8ff" d="M727.31,-109.98C710.25,-101.54 683.87,-88.47 664.1,-78.68"/>
<polygon fill="#63b8ff" stroke="#63b8ff" points="665.52,-75.47 655,-74.17 662.41,-81.75 665.52,-75.47"/>
</a>
</g>
</g>
<!-- Node22&#45;&gt;Node11 -->
<g id="edge30_Node000022_Node000011" class="edge">
<title>Node22&#45;&gt;Node11</title>
<g id="a_edge30_Node000022_Node000011"><a xlink:title=" ">
<path fill="none" stroke="#63b8ff" d="M375.79,-285.98C441.71,-276.52 548.01,-261.25 617.33,-251.29"/>
<polygon fill="#63b8ff" stroke="#63b8ff" points="617.87,-254.75 627.27,-249.86 616.88,-247.82 617.87,-254.75"/>
</a>
</g>
</g>
<!-- Node22&#45;&gt;Node14 -->
<g id="edge37_Node000022_Node000014" class="edge">
<title>Node22&#45;&gt;Node14</title>
<g id="a_edge37_Node000022_Node000014"><a xlink:title=" ">
<path fill="none" stroke="#63b8ff" d="M323.98,-285.9C331.05,-277.35 341.43,-263.58 347.5,-250 373.57,-191.63 333.96,-153.83 380.5,-110 410.46,-81.79 527.45,-71.2 592.77,-67.44"/>
<polygon fill="#63b8ff" stroke="#63b8ff" points="592.99,-70.93 602.79,-66.89 592.61,-63.94 592.99,-70.93"/>
</a>
</g>
</g>
<!-- Node22&#45;&gt;Node19 -->
<g id="edge31_Node000022_Node000019" class="edge">
<title>Node22&#45;&gt;Node19</title>
<g id="a_edge31_Node000022_Node000019"><a xlink:title=" ">
<path fill="none" stroke="#63b8ff" d="M332.71,-285.93C346.62,-277.98 366.56,-265.13 380.5,-250 394.52,-234.77 405.81,-213.8 412.77,-198.98"/>
<polygon fill="#63b8ff" stroke="#63b8ff" points="415.97,-200.41 416.88,-189.86 409.59,-197.54 415.97,-200.41"/>
</a>
</g>
</g>
<!-- Node22&#45;&gt;Node23 -->
<g id="edge32_Node000022_Node000023" class="edge">
<title>Node22&#45;&gt;Node23</title>
<g id="a_edge32_Node000022_Node000023"><a xlink:title=" ">
<path fill="none" stroke="#63b8ff" d="M257.38,-285.99C206.57,-278.31 131.15,-266.08 57.16,-250.21"/>
<polygon fill="#63b8ff" stroke="#63b8ff" points="57.72,-246.75 47.21,-248.05 56.24,-253.59 57.72,-246.75"/>
</a>
</g>
</g>
<!-- Node24 -->
<g id="Node000024" class="node">
<title>Node24</title>
<g id="a_Node000024"><a xlink:title=" ">
<polygon fill="#e0e0e0" stroke="#999999" points="130,-250 65,-250 65,-231 130,-231 130,-250"/>
<text text-anchor="middle" x="97.5" y="-238" font-family="Helvetica,sans-Serif" font-size="10.00">functional</text>
</a>
</g>
</g>
<!-- Node22&#45;&gt;Node24 -->
<g id="edge33_Node000022_Node000024" class="edge">
<title>Node22&#45;&gt;Node24</title>
<g id="a_edge33_Node000022_Node000024"><a xlink:title=" ">
<path fill="none" stroke="#63b8ff" d="M281.31,-285.98C242.78,-276.66 180.99,-261.71 139.83,-251.74"/>
<polygon fill="#63b8ff" stroke="#63b8ff" points="140.64,-248.34 130.1,-249.39 138.99,-255.14 140.64,-248.34"/>
</a>
</g>
</g>
<!-- Node25 -->
<g id="Node000025" class="node">
<title>Node25</title>
<g id="a_Node000025"><a xlink:title=" ">
<polygon fill="#e0e0e0" stroke="#999999" points="192.5,-250 148.5,-250 148.5,-231 192.5,-231 192.5,-250"/>
<text text-anchor="middle" x="170.5" y="-238" font-family="Helvetica,sans-Serif" font-size="10.00">limits</text>
</a>
</g>
</g>
<!-- Node22&#45;&gt;Node25 -->
<g id="edge34_Node000022_Node000025" class="edge">
<title>Node22&#45;&gt;Node25</title>
<g id="a_edge34_Node000022_Node000025"><a xlink:title=" ">
<path fill="none" stroke="#63b8ff" d="M293.04,-285.98C268.49,-277.07 229.78,-263.02 202.45,-253.1"/>
<polygon fill="#63b8ff" stroke="#63b8ff" points="203.53,-249.77 192.94,-249.65 201.15,-256.35 203.53,-249.77"/>
</a>
</g>
</g>
<!-- Node26 -->
<g id="Node000026" class="node">
<title>Node26</title>
<g id="a_Node000026"><a xlink:title=" ">
<polygon fill="#e0e0e0" stroke="#999999" points="276,-250 211,-250 211,-231 276,-231 276,-250"/>
<text text-anchor="middle" x="243.5" y="-238" font-family="Helvetica,sans-Serif" font-size="10.00">stdexcept</text>
</a>
</g>
</g>
<!-- Node22&#45;&gt;Node26 -->
<g id="edge35_Node000022_Node000026" class="edge">
<title>Node22&#45;&gt;Node26</title>
<g id="a_edge35_Node000022_Node000026"><a xlink:title=" ">
<path fill="none" stroke="#63b8ff" d="M304.77,-285.98C293.77,-278 277.08,-265.88 263.9,-256.31"/>
<polygon fill="#63b8ff" stroke="#63b8ff" points="265.59,-253.21 255.44,-250.17 261.48,-258.88 265.59,-253.21"/>
</a>
</g>
</g>
<!-- Node27 -->
<g id="Node000027" class="node">
<title>Node27</title>
<g id="a_Node000027"><a xlink:title=" ">
<polygon fill="#e0e0e0" stroke="#999999" points="338.5,-250 294.5,-250 294.5,-231 338.5,-231 338.5,-250"/>
<text text-anchor="middle" x="316.5" y="-238" font-family="Helvetica,sans-Serif" font-size="10.00">string</text>
</a>
</g>
</g>
<!-- Node22&#45;&gt;Node27 -->
<g id="edge36_Node000022_Node000027" class="edge">
<title>Node22&#45;&gt;Node27</title>
<g id="a_edge36_Node000022_Node000027"><a xlink:title=" ">
<path fill="none" stroke="#63b8ff" d="M316.5,-285.75C316.5,-278.8 316.5,-268.85 316.5,-260.13"/>
<polygon fill="#63b8ff" stroke="#63b8ff" points="320,-260.09 316.5,-250.09 313,-260.09 320,-260.09"/>
</a>
</g>
</g>
</g>
</svg>

<g id="navigator" transform="translate(0 0)" fill="#404254">
  <rect fill="#f2f5e9" fill-opacity="0.5" stroke="#606060" stroke-width=".5" x="0" y="0" width="60" height="60"/>
  <use id="zoomplus" xlink:href="#zoomPlus" x="17" y="9" onmousedown="handleZoom(evt,'in')"/>
  <use id="zoomminus" xlink:href="#zoomMin" x="42" y="9" onmousedown="handleZoom(evt,'out')"/>
  <use id="reset" xlink:href="#resetDef" x="30" y="36" onmousedown="handleReset()"/>
   <use id="arrowup" xlink:href="#arrowUp" x="0" y="0" onmousedown="handlePan(0,-1)"/>
  <use id="arrowright" xlink:href="#arrowRight" x="0" y="0" onmousedown="handlePan(1,0)"/>
  <use id="arrowdown" xlink:href="#arrowDown" x="0" y="0" onmousedown="handlePan(0,1)"/>
  <use id="arrowleft" xlink:href="#arrowLeft" x="0" y="0" onmousedown="handlePan(-1,0)"/>
</g>
<svg viewBox="0 0 15 15" width="100%" height="30px" preserveAspectRatio="xMaxYMin meet">
 <g id="arrow_out" transform="scale(0.3 0.3)">
  <a xlink:href="point2d_8h__incl_org.svg" target="_base">
   <rect id="button" ry="5" rx="5" y="6" x="6" height="38" width="38"
        fill="#f2f5e9" fill-opacity="0.5" stroke="#606060" stroke-width="1.0"/>
   <path id="arrow"
     d="M 11.500037,31.436501 C 11.940474,20.09759 22.043105,11.32322 32.158766,21.979434 L 37.068811,17.246167 C 37.068811,17.246167 37.088388,32 37.088388,32 L 22.160133,31.978069 C 22.160133,31.978069 26.997745,27.140456 26.997745,27.140456 C 18.528582,18.264221 13.291696,25.230495 11.500037,31.436501 z"
     style="fill:#404040;"/>
  </a>
 </g>
</svg>

<style type='text/css'>
<![CDATA[
[data-mouse-over-selected='false'] { opacity: 0.7; }
[data-mouse-over-selected='true']  { opacity: 1.0; }
]]>
</style>
<script type="application/ecmascript"><![CDATA[
document.addEventListener('DOMContentLoaded', (event) => {
  highlightEdges();
  highlightAdjacentNodes();
});
]]></script>
</svg>
