<?xml version="1.0" encoding="UTF-8" standalone="no"?>
<!DOCTYPE svg PUBLIC "-//W3C//DTD SVG 1.1//EN"
 "http://www.w3.org/Graphics/SVG/1.1/DTD/svg11.dtd">
<!-- Generated by graphviz version 2.43.0 (0)
 -->
<!-- Title: include/trackingLib/math/linalg/rank1_update.hpp Pages: 1 -->
<svg width="1434pt" height="698pt"
 viewBox="0.00 0.00 1433.50 698.00" xmlns="http://www.w3.org/2000/svg" xmlns:xlink="http://www.w3.org/1999/xlink">
<g id="graph0" class="graph" transform="scale(1 1) rotate(0) translate(4 694)">
<title>include/trackingLib/math/linalg/rank1_update.hpp</title>
<!-- Node1 -->
<g id="Node000001" class="node">
<title>Node1</title>
<g id="a_Node000001"><a xlink:title=" ">
<polygon fill="#999999" stroke="#666666" points="1082.5,-690 916.5,-690 916.5,-660 1082.5,-660 1082.5,-690"/>
<text text-anchor="start" x="924.5" y="-678" font-family="Helvetica,sans-Serif" font-size="10.00">include/trackingLib</text>
<text text-anchor="middle" x="999.5" y="-667" font-family="Helvetica,sans-Serif" font-size="10.00">/math/linalg/rank1_update.hpp</text>
</a>
</g>
</g>
<!-- Node2 -->
<g id="Node000002" class="node">
<title>Node2</title>
<g id="a_Node000002"><a xlink:href="rank1__update_8h.html" target="_top" xlink:title=" ">
<polygon fill="white" stroke="#666666" points="218,-365.5 67,-365.5 67,-346.5 218,-346.5 218,-365.5"/>
<text text-anchor="middle" x="142.5" y="-353.5" font-family="Helvetica,sans-Serif" font-size="10.00">math/linalg/rank1_update.h</text>
</a>
</g>
</g>
<!-- Node1&#45;&gt;Node2 -->
<g id="edge1_Node000001_Node000002" class="edge">
<title>Node1&#45;&gt;Node2</title>
<g id="a_edge1_Node000001_Node000002"><a xlink:title=" ">
<path fill="none" stroke="#63b8ff" d="M916.34,-669.53C707.12,-657.17 175.5,-618.45 175.5,-544 175.5,-544 175.5,-544 175.5,-481.5 175.5,-442.52 160.2,-398.91 150.44,-375.04"/>
<polygon fill="#63b8ff" stroke="#63b8ff" points="153.54,-373.39 146.42,-365.55 147.09,-376.12 153.54,-373.39"/>
</a>
</g>
</g>
<!-- Node10 -->
<g id="Node000010" class="node">
<title>Node10</title>
<g id="a_Node000010"><a xlink:href="functions_8h.html" target="_top" xlink:title="Mathematical functions for compile&#45;time computations.">
<polygon fill="white" stroke="#666666" points="143,-250 0,-250 0,-231 143,-231 143,-250"/>
<text text-anchor="middle" x="71.5" y="-238" font-family="Helvetica,sans-Serif" font-size="10.00">math/analysis/functions.h</text>
</a>
</g>
</g>
<!-- Node1&#45;&gt;Node10 -->
<g id="edge9_Node000001_Node000010" class="edge">
<title>Node1&#45;&gt;Node10</title>
<g id="a_edge9_Node000001_Node000010"><a xlink:title=" ">
<path fill="none" stroke="#63b8ff" d="M916.48,-670.97C753.09,-664.55 395.19,-648.19 274.5,-624 165.91,-602.23 38.5,-654.75 38.5,-544 38.5,-544 38.5,-544 38.5,-355 38.5,-320.08 53.08,-281.44 62.86,-259.45"/>
<polygon fill="#63b8ff" stroke="#63b8ff" points="66.17,-260.63 67.19,-250.08 59.81,-257.69 66.17,-260.63"/>
</a>
</g>
</g>
<!-- Node11 -->
<g id="Node000011" class="node">
<title>Node11</title>
<g id="a_Node000011"><a xlink:href="diagonal__matrix_8hpp.html" target="_top" xlink:title=" ">
<polygon fill="white" stroke="#666666" points="1058,-624 941,-624 941,-594 1058,-594 1058,-624"/>
<text text-anchor="start" x="949" y="-612" font-family="Helvetica,sans-Serif" font-size="10.00">math/linalg/diagonal</text>
<text text-anchor="middle" x="999.5" y="-601" font-family="Helvetica,sans-Serif" font-size="10.00">_matrix.hpp</text>
</a>
</g>
</g>
<!-- Node1&#45;&gt;Node11 -->
<g id="edge11_Node000001_Node000011" class="edge">
<title>Node1&#45;&gt;Node11</title>
<g id="a_edge11_Node000001_Node000011"><a xlink:title=" ">
<path fill="none" stroke="#63b8ff" d="M999.5,-659.8C999.5,-652.34 999.5,-642.99 999.5,-634.41"/>
<polygon fill="#63b8ff" stroke="#63b8ff" points="1003,-634.16 999.5,-624.16 996,-634.16 1003,-634.16"/>
</a>
</g>
</g>
<!-- Node32 -->
<g id="Node000032" class="node">
<title>Node32</title>
<g id="a_Node000032"><a xlink:title=" ">
<polygon fill="#e0e0e0" stroke="#999999" points="1363,-431.5 1316,-431.5 1316,-412.5 1363,-412.5 1363,-431.5"/>
<text text-anchor="middle" x="1339.5" y="-419.5" font-family="Helvetica,sans-Serif" font-size="10.00">cmath</text>
</a>
</g>
</g>
<!-- Node1&#45;&gt;Node32 -->
<g id="edge68_Node000001_Node000032" class="edge">
<title>Node1&#45;&gt;Node32</title>
<g id="a_edge68_Node000001_Node000032"><a xlink:title=" ">
<path fill="none" stroke="#63b8ff" d="M1026.73,-659.96C1044.46,-650.47 1067.85,-637.3 1087.5,-624 1180.53,-561.04 1282.6,-473.24 1322.34,-438.26"/>
<polygon fill="#63b8ff" stroke="#63b8ff" points="1324.67,-440.87 1329.85,-431.63 1320.04,-435.62 1324.67,-440.87"/>
</a>
</g>
</g>
<!-- Node34 -->
<g id="Node000034" class="node">
<title>Node34</title>
<g id="a_Node000034"><a xlink:title=" ">
<polygon fill="#e0e0e0" stroke="#999999" points="1425.5,-431.5 1381.5,-431.5 1381.5,-412.5 1425.5,-412.5 1425.5,-431.5"/>
<text text-anchor="middle" x="1403.5" y="-419.5" font-family="Helvetica,sans-Serif" font-size="10.00">limits</text>
</a>
</g>
</g>
<!-- Node1&#45;&gt;Node34 -->
<g id="edge69_Node000001_Node000034" class="edge">
<title>Node1&#45;&gt;Node34</title>
<g id="a_edge69_Node000001_Node000034"><a xlink:title=" ">
<path fill="none" stroke="#63b8ff" d="M1039.79,-659.97C1063.84,-650.96 1094.64,-638.29 1120.5,-624 1227.09,-565.11 1341.74,-473.95 1385.31,-438.16"/>
<polygon fill="#63b8ff" stroke="#63b8ff" points="1387.8,-440.64 1393.28,-431.58 1383.34,-435.25 1387.8,-440.64"/>
</a>
</g>
</g>
<!-- Node37 -->
<g id="Node000037" class="node">
<title>Node37</title>
<g id="a_Node000037"><a xlink:href="triangular__matrix_8hpp.html" target="_top" xlink:title=" ">
<polygon fill="white" stroke="#666666" points="972.5,-558 850.5,-558 850.5,-528 972.5,-528 972.5,-558"/>
<text text-anchor="start" x="858.5" y="-546" font-family="Helvetica,sans-Serif" font-size="10.00">math/linalg/triangular</text>
<text text-anchor="middle" x="911.5" y="-535" font-family="Helvetica,sans-Serif" font-size="10.00">_matrix.hpp</text>
</a>
</g>
</g>
<!-- Node1&#45;&gt;Node37 -->
<g id="edge66_Node000001_Node000037" class="edge">
<title>Node1&#45;&gt;Node37</title>
<g id="a_edge66_Node000001_Node000037"><a xlink:title=" ">
<path fill="none" stroke="#63b8ff" d="M972.79,-659.94C958.85,-651.32 942.64,-639.04 932.5,-624 921.31,-607.4 916.08,-585.14 913.63,-568.32"/>
<polygon fill="#63b8ff" stroke="#63b8ff" points="917.08,-567.67 912.4,-558.17 910.13,-568.52 917.08,-567.67"/>
</a>
</g>
</g>
<!-- Node38 -->
<g id="Node000038" class="node">
<title>Node38</title>
<g id="a_Node000038"><a xlink:href="vector_8hpp.html" target="_top" xlink:title=" ">
<polygon fill="white" stroke="#666666" points="1154.5,-552.5 1028.5,-552.5 1028.5,-533.5 1154.5,-533.5 1154.5,-552.5"/>
<text text-anchor="middle" x="1091.5" y="-540.5" font-family="Helvetica,sans-Serif" font-size="10.00">math/linalg/vector.hpp</text>
</a>
</g>
</g>
<!-- Node1&#45;&gt;Node38 -->
<g id="edge67_Node000001_Node000038" class="edge">
<title>Node1&#45;&gt;Node38</title>
<g id="a_edge67_Node000001_Node000038"><a xlink:title=" ">
<path fill="none" stroke="#63b8ff" d="M1026.4,-659.88C1040.49,-651.24 1056.95,-638.97 1067.5,-624 1080.52,-605.53 1086.58,-579.9 1089.33,-562.67"/>
<polygon fill="#63b8ff" stroke="#63b8ff" points="1092.81,-563.1 1090.7,-552.72 1085.87,-562.15 1092.81,-563.1"/>
</a>
</g>
</g>
<!-- Node3 -->
<g id="Node000003" class="node">
<title>Node3</title>
<g id="a_Node000003"><a xlink:href="first__include_8h.html" target="_top" xlink:title=" ">
<polygon fill="white" stroke="#666666" points="337,-129 226,-129 226,-110 337,-110 337,-129"/>
<text text-anchor="middle" x="281.5" y="-117" font-family="Helvetica,sans-Serif" font-size="10.00">base/first_include.h</text>
</a>
</g>
</g>
<!-- Node2&#45;&gt;Node3 -->
<g id="edge2_Node000002_Node000003" class="edge">
<title>Node2&#45;&gt;Node3</title>
<g id="a_edge2_Node000002_Node000003"><a xlink:title=" ">
<path fill="none" stroke="#63b8ff" d="M144.98,-346.34C153.37,-318.11 182.75,-226.99 229.5,-165 238.11,-153.59 250.11,-143.07 260.42,-135.13"/>
<polygon fill="#63b8ff" stroke="#63b8ff" points="262.6,-137.87 268.56,-129.11 258.44,-132.24 262.6,-137.87"/>
</a>
</g>
</g>
<!-- Node4 -->
<g id="Node000004" class="node">
<title>Node4</title>
<g id="a_Node000004"><a xlink:href="test__config_8h.html" target="_top" xlink:title=" ">
<polygon fill="white" stroke="#666666" points="328,-74 249,-74 249,-55 328,-55 328,-74"/>
<text text-anchor="middle" x="288.5" y="-62" font-family="Helvetica,sans-Serif" font-size="10.00">test_config.h</text>
</a>
</g>
</g>
<!-- Node3&#45;&gt;Node4 -->
<g id="edge3_Node000003_Node000004" class="edge">
<title>Node3&#45;&gt;Node4</title>
<g id="a_edge3_Node000003_Node000004"><a xlink:title=" ">
<path fill="none" stroke="#63b8ff" d="M282.66,-109.75C283.57,-102.8 284.89,-92.85 286.04,-84.13"/>
<polygon fill="#63b8ff" stroke="#63b8ff" points="289.53,-84.46 287.37,-74.09 282.59,-83.54 289.53,-84.46"/>
</a>
</g>
</g>
<!-- Node5 -->
<g id="Node000005" class="node">
<title>Node5</title>
<g id="a_Node000005"><a xlink:href="atomic__types_8h.html" target="_top" xlink:title=" ">
<polygon fill="white" stroke="#666666" points="438.5,-74 346.5,-74 346.5,-55 438.5,-55 438.5,-74"/>
<text text-anchor="middle" x="392.5" y="-62" font-family="Helvetica,sans-Serif" font-size="10.00">atomic_types.h</text>
</a>
</g>
</g>
<!-- Node3&#45;&gt;Node5 -->
<g id="edge4_Node000003_Node000005" class="edge">
<title>Node3&#45;&gt;Node5</title>
<g id="a_edge4_Node000003_Node000005"><a xlink:title=" ">
<path fill="none" stroke="#63b8ff" d="M299.33,-109.98C317.11,-101.5 344.65,-88.35 365.18,-78.54"/>
<polygon fill="#63b8ff" stroke="#63b8ff" points="366.83,-81.64 374.34,-74.17 363.81,-75.32 366.83,-81.64"/>
</a>
</g>
</g>
<!-- Node7 -->
<g id="Node000007" class="node">
<title>Node7</title>
<g id="a_Node000007"><a xlink:title=" ">
<polygon fill="#e0e0e0" stroke="#999999" points="160.5,-74 68.5,-74 68.5,-55 160.5,-55 160.5,-74"/>
<text text-anchor="middle" x="114.5" y="-62" font-family="Helvetica,sans-Serif" font-size="10.00">tl/expected.hpp</text>
</a>
</g>
</g>
<!-- Node3&#45;&gt;Node7 -->
<g id="edge6_Node000003_Node000007" class="edge">
<title>Node3&#45;&gt;Node7</title>
<g id="a_edge6_Node000003_Node000007"><a xlink:title=" ">
<path fill="none" stroke="#63b8ff" d="M254.67,-109.98C226.63,-101.09 182.45,-87.07 151.2,-77.15"/>
<polygon fill="#63b8ff" stroke="#63b8ff" points="152.13,-73.77 141.54,-74.08 150.01,-80.44 152.13,-73.77"/>
</a>
</g>
</g>
<!-- Node8 -->
<g id="Node000008" class="node">
<title>Node8</title>
<g id="a_Node000008"><a xlink:title=" ">
<polygon fill="#e0e0e0" stroke="#999999" points="230.5,-74 178.5,-74 178.5,-55 230.5,-55 230.5,-74"/>
<text text-anchor="middle" x="204.5" y="-62" font-family="Helvetica,sans-Serif" font-size="10.00">cassert</text>
</a>
</g>
</g>
<!-- Node3&#45;&gt;Node8 -->
<g id="edge7_Node000003_Node000008" class="edge">
<title>Node3&#45;&gt;Node8</title>
<g id="a_edge7_Node000003_Node000008"><a xlink:title=" ">
<path fill="none" stroke="#63b8ff" d="M269.13,-109.98C257.41,-101.92 239.58,-89.65 225.61,-80.03"/>
<polygon fill="#63b8ff" stroke="#63b8ff" points="227.32,-76.96 217.1,-74.17 223.35,-82.72 227.32,-76.96"/>
</a>
</g>
</g>
<!-- Node9 -->
<g id="Node000009" class="node">
<title>Node9</title>
<g id="a_Node000009"><a xlink:title=" ">
<polygon fill="#e0e0e0" stroke="#999999" points="549,-74 466,-74 466,-55 549,-55 549,-74"/>
<text text-anchor="middle" x="507.5" y="-62" font-family="Helvetica,sans-Serif" font-size="10.00">initializer_list</text>
</a>
</g>
</g>
<!-- Node3&#45;&gt;Node9 -->
<g id="edge8_Node000003_Node000009" class="edge">
<title>Node3&#45;&gt;Node9</title>
<g id="a_edge8_Node000003_Node000009"><a xlink:title=" ">
<path fill="none" stroke="#63b8ff" d="M317.81,-109.98C356.74,-100.86 418.66,-86.33 461.1,-76.38"/>
<polygon fill="#63b8ff" stroke="#63b8ff" points="461.97,-79.77 470.9,-74.08 460.37,-72.96 461.97,-79.77"/>
</a>
</g>
</g>
<!-- Node6 -->
<g id="Node000006" class="node">
<title>Node6</title>
<g id="a_Node000006"><a xlink:title=" ">
<polygon fill="#e0e0e0" stroke="#999999" points="417.5,-19 367.5,-19 367.5,0 417.5,0 417.5,-19"/>
<text text-anchor="middle" x="392.5" y="-7" font-family="Helvetica,sans-Serif" font-size="10.00">cstdint</text>
</a>
</g>
</g>
<!-- Node5&#45;&gt;Node6 -->
<g id="edge5_Node000005_Node000006" class="edge">
<title>Node5&#45;&gt;Node6</title>
<g id="a_edge5_Node000005_Node000006"><a xlink:title=" ">
<path fill="none" stroke="#63b8ff" d="M392.5,-54.75C392.5,-47.8 392.5,-37.85 392.5,-29.13"/>
<polygon fill="#63b8ff" stroke="#63b8ff" points="396,-29.09 392.5,-19.09 389,-29.09 396,-29.09"/>
</a>
</g>
</g>
<!-- Node10&#45;&gt;Node3 -->
<g id="edge10_Node000010_Node000003" class="edge">
<title>Node10&#45;&gt;Node3</title>
<g id="a_edge10_Node000010_Node000003"><a xlink:title=" ">
<path fill="none" stroke="#63b8ff" d="M79.94,-230.52C94.75,-215.22 126.96,-183.9 159.5,-165 184.43,-150.52 214.9,-139.4 239.15,-131.9"/>
<polygon fill="#63b8ff" stroke="#63b8ff" points="240.22,-135.24 248.79,-129.01 238.2,-128.53 240.22,-135.24"/>
</a>
</g>
</g>
<!-- Node12 -->
<g id="Node000012" class="node">
<title>Node12</title>
<g id="a_Node000012"><a xlink:href="diagonal__matrix_8h.html" target="_top" xlink:title=" ">
<polygon fill="white" stroke="#666666" points="621,-558 504,-558 504,-528 621,-528 621,-558"/>
<text text-anchor="start" x="512" y="-546" font-family="Helvetica,sans-Serif" font-size="10.00">math/linalg/diagonal</text>
<text text-anchor="middle" x="562.5" y="-535" font-family="Helvetica,sans-Serif" font-size="10.00">_matrix.h</text>
</a>
</g>
</g>
<!-- Node11&#45;&gt;Node12 -->
<g id="edge12_Node000011_Node000012" class="edge">
<title>Node11&#45;&gt;Node12</title>
<g id="a_edge12_Node000011_Node000012"><a xlink:title=" ">
<path fill="none" stroke="#63b8ff" d="M940.56,-599.37C860.19,-587.6 716.49,-566.55 631.29,-554.07"/>
<polygon fill="#63b8ff" stroke="#63b8ff" points="631.6,-550.58 621.2,-552.6 630.59,-557.51 631.6,-550.58"/>
</a>
</g>
</g>
<!-- Node31 -->
<g id="Node000031" class="node">
<title>Node31</title>
<g id="a_Node000031"><a xlink:href="matrix_8hpp.html" target="_top" xlink:title=" ">
<polygon fill="white" stroke="#666666" points="1155.5,-492 1027.5,-492 1027.5,-473 1155.5,-473 1155.5,-492"/>
<text text-anchor="middle" x="1091.5" y="-480" font-family="Helvetica,sans-Serif" font-size="10.00">math/linalg/matrix.hpp</text>
</a>
</g>
</g>
<!-- Node11&#45;&gt;Node31 -->
<g id="edge50_Node000011_Node000031" class="edge">
<title>Node11&#45;&gt;Node31</title>
<g id="a_edge50_Node000011_Node000031"><a xlink:title=" ">
<path fill="none" stroke="#63b8ff" d="M999.87,-593.94C1000.98,-576.82 1005.06,-547.77 1019.5,-528 1029.6,-514.18 1045.42,-503.72 1059.65,-496.43"/>
<polygon fill="#63b8ff" stroke="#63b8ff" points="1061.2,-499.57 1068.71,-492.09 1058.18,-493.26 1061.2,-499.57"/>
</a>
</g>
</g>
<!-- Node11&#45;&gt;Node37 -->
<g id="edge59_Node000011_Node000037" class="edge">
<title>Node11&#45;&gt;Node37</title>
<g id="a_edge59_Node000011_Node000037"><a xlink:title=" ">
<path fill="none" stroke="#63b8ff" d="M979.97,-593.8C968.01,-585.1 952.51,-573.82 939.28,-564.2"/>
<polygon fill="#63b8ff" stroke="#63b8ff" points="941.12,-561.22 930.98,-558.16 937,-566.88 941.12,-561.22"/>
</a>
</g>
</g>
<!-- Node11&#45;&gt;Node38 -->
<g id="edge62_Node000011_Node000038" class="edge">
<title>Node11&#45;&gt;Node38</title>
<g id="a_edge62_Node000011_Node000038"><a xlink:title=" ">
<path fill="none" stroke="#63b8ff" d="M1019.92,-593.8C1035.05,-583.27 1055.6,-568.97 1070.8,-558.4"/>
<polygon fill="#63b8ff" stroke="#63b8ff" points="1072.84,-561.24 1079.05,-552.66 1068.85,-555.5 1072.84,-561.24"/>
</a>
</g>
</g>
<!-- Node12&#45;&gt;Node3 -->
<g id="edge13_Node000012_Node000003" class="edge">
<title>Node12&#45;&gt;Node3</title>
<g id="a_edge13_Node000012_Node000003"><a xlink:title=" ">
<path fill="none" stroke="#63b8ff" d="M503.87,-538.39C437.15,-532.98 334.1,-520.21 308.5,-492 215.63,-389.65 259.01,-199.26 275.87,-139.17"/>
<polygon fill="#63b8ff" stroke="#63b8ff" points="279.33,-139.82 278.75,-129.24 272.6,-137.86 279.33,-139.82"/>
</a>
</g>
</g>
<!-- Node12&#45;&gt;Node9 -->
<g id="edge49_Node000012_Node000009" class="edge">
<title>Node12&#45;&gt;Node9</title>
<g id="a_edge49_Node000012_Node000009"><a xlink:title=" ">
<path fill="none" stroke="#63b8ff" d="M511.01,-527.88C468.21,-513.05 410.3,-485.05 384.5,-437 359.94,-391.27 267.91,-668.17 419.5,-165 427.3,-139.11 428.19,-130.77 445.5,-110 455.71,-97.75 470.02,-87.19 482.32,-79.43"/>
<polygon fill="#63b8ff" stroke="#63b8ff" points="484.47,-82.22 491.23,-74.06 480.86,-76.22 484.47,-82.22"/>
</a>
</g>
</g>
<!-- Node13 -->
<g id="Node000013" class="node">
<title>Node13</title>
<g id="a_Node000013"><a xlink:href="errors_8h.html" target="_top" xlink:title="Error types used throughout the math library.">
<polygon fill="white" stroke="#666666" points="789,-129 676,-129 676,-110 789,-110 789,-129"/>
<text text-anchor="middle" x="732.5" y="-117" font-family="Helvetica,sans-Serif" font-size="10.00">math/linalg/errors.h</text>
</a>
</g>
</g>
<!-- Node12&#45;&gt;Node13 -->
<g id="edge14_Node000012_Node000013" class="edge">
<title>Node12&#45;&gt;Node13</title>
<g id="a_edge14_Node000012_Node000013"><a xlink:title=" ">
<path fill="none" stroke="#63b8ff" d="M599.72,-527.9C691.84,-490.58 928.62,-379.29 1006.5,-195 1011.69,-182.72 1015.14,-175.16 1006.5,-165 999.79,-157.11 878.37,-139.73 799.44,-129.18"/>
<polygon fill="#63b8ff" stroke="#63b8ff" points="799.45,-125.65 789.08,-127.8 798.53,-132.59 799.45,-125.65"/>
</a>
</g>
</g>
<!-- Node14 -->
<g id="Node000014" class="node">
<title>Node14</title>
<g id="a_Node000014"><a xlink:href="matrix__io_8h.html" target="_top" xlink:title="Stream output operators for all matrix types in the trackingLib math library.">
<polygon fill="white" stroke="#666666" points="628,-492 497,-492 497,-473 628,-473 628,-492"/>
<text text-anchor="middle" x="562.5" y="-480" font-family="Helvetica,sans-Serif" font-size="10.00">math/linalg/matrix_io.h</text>
</a>
</g>
</g>
<!-- Node12&#45;&gt;Node14 -->
<g id="edge15_Node000012_Node000014" class="edge">
<title>Node12&#45;&gt;Node14</title>
<g id="a_edge15_Node000012_Node000014"><a xlink:title=" ">
<path fill="none" stroke="#63b8ff" d="M562.5,-527.84C562.5,-520.21 562.5,-510.7 562.5,-502.45"/>
<polygon fill="#63b8ff" stroke="#63b8ff" points="566,-502.27 562.5,-492.27 559,-502.27 566,-502.27"/>
</a>
</g>
</g>
<!-- Node14&#45;&gt;Node3 -->
<g id="edge16_Node000014_Node000003" class="edge">
<title>Node14&#45;&gt;Node3</title>
<g id="a_edge16_Node000014_Node000003"><a xlink:title=" ">
<path fill="none" stroke="#63b8ff" d="M496.89,-480.03C459.73,-475.87 414.77,-464.79 384.5,-437 295.07,-354.9 283.06,-194.4 281.62,-139.47"/>
<polygon fill="#63b8ff" stroke="#63b8ff" points="285.12,-139.1 281.45,-129.15 278.12,-139.21 285.12,-139.1"/>
</a>
</g>
</g>
<!-- Node15 -->
<g id="Node000015" class="node">
<title>Node15</title>
<g id="a_Node000015"><a xlink:href="triangular__matrix_8h.html" target="_top" xlink:title=" ">
<polygon fill="white" stroke="#666666" points="515.5,-437 393.5,-437 393.5,-407 515.5,-407 515.5,-437"/>
<text text-anchor="start" x="401.5" y="-425" font-family="Helvetica,sans-Serif" font-size="10.00">math/linalg/triangular</text>
<text text-anchor="middle" x="454.5" y="-414" font-family="Helvetica,sans-Serif" font-size="10.00">_matrix.h</text>
</a>
</g>
</g>
<!-- Node14&#45;&gt;Node15 -->
<g id="edge17_Node000014_Node000015" class="edge">
<title>Node14&#45;&gt;Node15</title>
<g id="a_edge17_Node000014_Node000015"><a xlink:title=" ">
<path fill="none" stroke="#63b8ff" d="M546.56,-472.87C531.57,-464.75 508.61,-452.31 489.37,-441.89"/>
<polygon fill="#63b8ff" stroke="#63b8ff" points="491.02,-438.8 480.56,-437.11 487.68,-444.96 491.02,-438.8"/>
</a>
</g>
</g>
<!-- Node20 -->
<g id="Node000020" class="node">
<title>Node20</title>
<g id="a_Node000020"><a xlink:title=" ">
<polygon fill="#e0e0e0" stroke="#999999" points="1068,-74 999,-74 999,-55 1068,-55 1068,-74"/>
<text text-anchor="middle" x="1033.5" y="-62" font-family="Helvetica,sans-Serif" font-size="10.00">type_traits</text>
</a>
</g>
</g>
<!-- Node14&#45;&gt;Node20 -->
<g id="edge48_Node000014_Node000020" class="edge">
<title>Node14&#45;&gt;Node20</title>
<g id="a_edge48_Node000014_Node000020"><a xlink:title=" ">
<path fill="none" stroke="#63b8ff" d="M615.63,-472.92C637.28,-466.64 660.47,-455.77 674.5,-437 709.76,-389.81 683.83,-363.85 686.5,-305 690.07,-226.4 672.23,-207.53 667.5,-129 666.99,-120.57 661.9,-116.32 667.5,-110 688.5,-86.3 895.7,-72.65 988.71,-67.67"/>
<polygon fill="#63b8ff" stroke="#63b8ff" points="989.13,-71.16 998.94,-67.14 988.77,-64.17 989.13,-71.16"/>
</a>
</g>
</g>
<!-- Node29 -->
<g id="Node000029" class="node">
<title>Node29</title>
<g id="a_Node000029"><a xlink:title=" ">
<polygon fill="#e0e0e0" stroke="#999999" points="665.5,-431.5 609.5,-431.5 609.5,-412.5 665.5,-412.5 665.5,-431.5"/>
<text text-anchor="middle" x="637.5" y="-419.5" font-family="Helvetica,sans-Serif" font-size="10.00">iomanip</text>
</a>
</g>
</g>
<!-- Node14&#45;&gt;Node29 -->
<g id="edge46_Node000014_Node000029" class="edge">
<title>Node14&#45;&gt;Node29</title>
<g id="a_edge46_Node000014_Node000029"><a xlink:title=" ">
<path fill="none" stroke="#63b8ff" d="M573.57,-472.87C585.31,-463.71 604.09,-449.06 618.26,-438.01"/>
<polygon fill="#63b8ff" stroke="#63b8ff" points="620.66,-440.58 626.39,-431.67 616.35,-435.06 620.66,-440.58"/>
</a>
</g>
</g>
<!-- Node30 -->
<g id="Node000030" class="node">
<title>Node30</title>
<g id="a_Node000030"><a xlink:title=" ">
<polygon fill="#e0e0e0" stroke="#999999" points="591,-431.5 534,-431.5 534,-412.5 591,-412.5 591,-431.5"/>
<text text-anchor="middle" x="562.5" y="-419.5" font-family="Helvetica,sans-Serif" font-size="10.00">ostream</text>
</a>
</g>
</g>
<!-- Node14&#45;&gt;Node30 -->
<g id="edge47_Node000014_Node000030" class="edge">
<title>Node14&#45;&gt;Node30</title>
<g id="a_edge47_Node000014_Node000030"><a xlink:title=" ">
<path fill="none" stroke="#63b8ff" d="M562.5,-472.87C562.5,-464.75 562.5,-452.31 562.5,-441.89"/>
<polygon fill="#63b8ff" stroke="#63b8ff" points="566,-441.67 562.5,-431.67 559,-441.67 566,-441.67"/>
</a>
</g>
</g>
<!-- Node15&#45;&gt;Node3 -->
<g id="edge18_Node000015_Node000003" class="edge">
<title>Node15&#45;&gt;Node3</title>
<g id="a_edge18_Node000015_Node000003"><a xlink:title=" ">
<path fill="none" stroke="#63b8ff" d="M443.97,-406.83C436.8,-396.97 427.23,-383.41 419.5,-371 366.74,-286.3 311.77,-180.21 290.57,-138.51"/>
<polygon fill="#63b8ff" stroke="#63b8ff" points="293.58,-136.69 285.94,-129.35 287.33,-139.85 293.58,-136.69"/>
</a>
</g>
</g>
<!-- Node15&#45;&gt;Node9 -->
<g id="edge45_Node000015_Node000009" class="edge">
<title>Node15&#45;&gt;Node9</title>
<g id="a_edge45_Node000015_Node000009"><a xlink:title=" ">
<path fill="none" stroke="#63b8ff" d="M450.55,-406.94C444.47,-384.01 433.5,-337.05 433.5,-296.5 433.5,-296.5 433.5,-296.5 433.5,-179 433.5,-138.53 466.91,-101.2 488.84,-81.06"/>
<polygon fill="#63b8ff" stroke="#63b8ff" points="491.41,-83.46 496.58,-74.22 486.77,-78.22 491.41,-83.46"/>
</a>
</g>
</g>
<!-- Node16 -->
<g id="Node000016" class="node">
<title>Node16</title>
<g id="a_Node000016"><a xlink:href="square__matrix_8h.html" target="_top" xlink:title=" ">
<polygon fill="white" stroke="#666666" points="589.5,-371 481.5,-371 481.5,-341 589.5,-341 589.5,-371"/>
<text text-anchor="start" x="489.5" y="-359" font-family="Helvetica,sans-Serif" font-size="10.00">math/linalg/square</text>
<text text-anchor="middle" x="535.5" y="-348" font-family="Helvetica,sans-Serif" font-size="10.00">_matrix.h</text>
</a>
</g>
</g>
<!-- Node15&#45;&gt;Node16 -->
<g id="edge19_Node000015_Node000016" class="edge">
<title>Node15&#45;&gt;Node16</title>
<g id="a_edge19_Node000015_Node000016"><a xlink:title=" ">
<path fill="none" stroke="#63b8ff" d="M472.48,-406.8C483.38,-398.18 497.48,-387.04 509.58,-377.48"/>
<polygon fill="#63b8ff" stroke="#63b8ff" points="511.9,-380.11 517.57,-371.16 507.56,-374.62 511.9,-380.11"/>
</a>
</g>
</g>
<!-- Node16&#45;&gt;Node3 -->
<g id="edge20_Node000016_Node000003" class="edge">
<title>Node16&#45;&gt;Node3</title>
<g id="a_edge20_Node000016_Node000003"><a xlink:title=" ">
<path fill="none" stroke="#63b8ff" d="M507.08,-340.88C490.31,-331.83 469.17,-319.16 452.5,-305 390.26,-252.13 391.15,-222.84 333.5,-165 323.15,-154.61 310.69,-143.9 300.56,-135.58"/>
<polygon fill="#63b8ff" stroke="#63b8ff" points="302.68,-132.79 292.7,-129.22 298.27,-138.23 302.68,-132.79"/>
</a>
</g>
</g>
<!-- Node16&#45;&gt;Node9 -->
<g id="edge43_Node000016_Node000009" class="edge">
<title>Node16&#45;&gt;Node9</title>
<g id="a_edge43_Node000016_Node000009"><a xlink:title=" ">
<path fill="none" stroke="#63b8ff" d="M534.11,-340.64C529.47,-292.71 514.53,-138.15 509.31,-84.25"/>
<polygon fill="#63b8ff" stroke="#63b8ff" points="512.78,-83.71 508.33,-74.09 505.81,-84.39 512.78,-83.71"/>
</a>
</g>
</g>
<!-- Node16&#45;&gt;Node13 -->
<g id="edge21_Node000016_Node000013" class="edge">
<title>Node16&#45;&gt;Node13</title>
<g id="a_edge21_Node000016_Node000013"><a xlink:title=" ">
<path fill="none" stroke="#63b8ff" d="M589.65,-350.05C622.04,-344.28 661.62,-331.83 686.5,-305 730.05,-258.04 734.01,-176.3 733.37,-139.46"/>
<polygon fill="#63b8ff" stroke="#63b8ff" points="736.86,-139.06 733.05,-129.18 729.87,-139.28 736.86,-139.06"/>
</a>
</g>
</g>
<!-- Node17 -->
<g id="Node000017" class="node">
<title>Node17</title>
<g id="a_Node000017"><a xlink:href="matrix_8h.html" target="_top" xlink:title=" ">
<polygon fill="white" stroke="#666666" points="881.5,-250 765.5,-250 765.5,-231 881.5,-231 881.5,-250"/>
<text text-anchor="middle" x="823.5" y="-238" font-family="Helvetica,sans-Serif" font-size="10.00">math/linalg/matrix.h</text>
</a>
</g>
</g>
<!-- Node16&#45;&gt;Node17 -->
<g id="edge22_Node000016_Node000017" class="edge">
<title>Node16&#45;&gt;Node17</title>
<g id="a_edge22_Node000016_Node000017"><a xlink:title=" ">
<path fill="none" stroke="#63b8ff" d="M589.59,-344.53C626.99,-336.29 677.39,-323.14 719.5,-305 750.5,-291.65 783.26,-270.27 803.54,-256.06"/>
<polygon fill="#63b8ff" stroke="#63b8ff" points="805.81,-258.74 811.93,-250.09 801.75,-253.04 805.81,-258.74"/>
</a>
</g>
</g>
<!-- Node27 -->
<g id="Node000027" class="node">
<title>Node27</title>
<g id="a_Node000027"><a xlink:href="vector_8h.html" target="_top" xlink:title=" ">
<polygon fill="white" stroke="#666666" points="677.5,-305 563.5,-305 563.5,-286 677.5,-286 677.5,-305"/>
<text text-anchor="middle" x="620.5" y="-293" font-family="Helvetica,sans-Serif" font-size="10.00">math/linalg/vector.h</text>
</a>
</g>
</g>
<!-- Node16&#45;&gt;Node27 -->
<g id="edge39_Node000016_Node000027" class="edge">
<title>Node16&#45;&gt;Node27</title>
<g id="a_edge39_Node000016_Node000027"><a xlink:title=" ">
<path fill="none" stroke="#63b8ff" d="M556.08,-340.84C569.17,-331.83 586.09,-320.18 599.3,-311.09"/>
<polygon fill="#63b8ff" stroke="#63b8ff" points="601.51,-313.82 607.76,-305.27 597.54,-308.05 601.51,-313.82"/>
</a>
</g>
</g>
<!-- Node28 -->
<g id="Node000028" class="node">
<title>Node28</title>
<g id="a_Node000028"><a xlink:title=" ">
<polygon fill="#e0e0e0" stroke="#999999" points="507,-305 462,-305 462,-286 507,-286 507,-305"/>
<text text-anchor="middle" x="484.5" y="-293" font-family="Helvetica,sans-Serif" font-size="10.00">utility</text>
</a>
</g>
</g>
<!-- Node16&#45;&gt;Node28 -->
<g id="edge44_Node000016_Node000028" class="edge">
<title>Node16&#45;&gt;Node28</title>
<g id="a_edge44_Node000016_Node000028"><a xlink:title=" ">
<path fill="none" stroke="#63b8ff" d="M523.15,-340.84C515.83,-332.43 506.5,-321.74 498.85,-312.96"/>
<polygon fill="#63b8ff" stroke="#63b8ff" points="501.35,-310.5 492.14,-305.27 496.08,-315.1 501.35,-310.5"/>
</a>
</g>
</g>
<!-- Node17&#45;&gt;Node3 -->
<g id="edge23_Node000017_Node000003" class="edge">
<title>Node17&#45;&gt;Node3</title>
<g id="a_edge23_Node000017_Node000003"><a xlink:title=" ">
<path fill="none" stroke="#63b8ff" d="M785.59,-230.98C723.52,-217.04 596.32,-188.58 488.5,-165 434.92,-153.28 373.49,-140.11 331.55,-131.16"/>
<polygon fill="#63b8ff" stroke="#63b8ff" points="332.1,-127.69 321.59,-129.03 330.64,-134.54 332.1,-127.69"/>
</a>
</g>
</g>
<!-- Node17&#45;&gt;Node9 -->
<g id="edge37_Node000017_Node000009" class="edge">
<title>Node17&#45;&gt;Node9</title>
<g id="a_edge37_Node000017_Node000009"><a xlink:title=" ">
<path fill="none" stroke="#63b8ff" d="M807.45,-230.84C790.91,-221.9 764.37,-207.53 741.5,-195 664.66,-152.89 573.94,-102.48 531.57,-78.9"/>
<polygon fill="#63b8ff" stroke="#63b8ff" points="533.25,-75.83 522.81,-74.03 529.84,-81.95 533.25,-75.83"/>
</a>
</g>
</g>
<!-- Node17&#45;&gt;Node13 -->
<g id="edge33_Node000017_Node000013" class="edge">
<title>Node17&#45;&gt;Node13</title>
<g id="a_edge33_Node000017_Node000013"><a xlink:title=" ">
<path fill="none" stroke="#63b8ff" d="M806.4,-230.85C792.62,-223.11 773.6,-210.6 761.5,-195 748.51,-178.25 740.69,-154.96 736.51,-138.91"/>
<polygon fill="#63b8ff" stroke="#63b8ff" points="739.89,-138.03 734.17,-129.11 733.09,-139.65 739.89,-138.03"/>
</a>
</g>
</g>
<!-- Node18 -->
<g id="Node000018" class="node">
<title>Node18</title>
<g id="a_Node000018"><a xlink:href="matrix__intf_8h.html" target="_top" xlink:title=" ">
<polygon fill="white" stroke="#666666" points="1173.5,-195 1053.5,-195 1053.5,-165 1173.5,-165 1173.5,-195"/>
<text text-anchor="start" x="1061.5" y="-183" font-family="Helvetica,sans-Serif" font-size="10.00">math/linalg/contracts</text>
<text text-anchor="middle" x="1113.5" y="-172" font-family="Helvetica,sans-Serif" font-size="10.00">/matrix_intf.h</text>
</a>
</g>
</g>
<!-- Node17&#45;&gt;Node18 -->
<g id="edge24_Node000017_Node000018" class="edge">
<title>Node17&#45;&gt;Node18</title>
<g id="a_edge24_Node000017_Node000018"><a xlink:title=" ">
<path fill="none" stroke="#63b8ff" d="M865.67,-230.99C912.18,-221.61 987.77,-206.36 1043.26,-195.17"/>
<polygon fill="#63b8ff" stroke="#63b8ff" points="1044.26,-198.54 1053.37,-193.13 1042.88,-191.68 1044.26,-198.54"/>
</a>
</g>
</g>
<!-- Node23 -->
<g id="Node000023" class="node">
<title>Node23</title>
<g id="a_Node000023"><a xlink:href="matrix__types_8h.html" target="_top" xlink:title="Type definitions and enumerations for matrix operations.">
<polygon fill="white" stroke="#666666" points="877,-195 770,-195 770,-165 877,-165 877,-195"/>
<text text-anchor="start" x="778" y="-183" font-family="Helvetica,sans-Serif" font-size="10.00">math/linalg/matrix</text>
<text text-anchor="middle" x="823.5" y="-172" font-family="Helvetica,sans-Serif" font-size="10.00">_types.h</text>
</a>
</g>
</g>
<!-- Node17&#45;&gt;Node23 -->
<g id="edge34_Node000017_Node000023" class="edge">
<title>Node17&#45;&gt;Node23</title>
<g id="a_edge34_Node000017_Node000023"><a xlink:title=" ">
<path fill="none" stroke="#63b8ff" d="M823.5,-230.87C823.5,-224.11 823.5,-214.35 823.5,-205.26"/>
<polygon fill="#63b8ff" stroke="#63b8ff" points="827,-205.11 823.5,-195.11 820,-205.11 827,-205.11"/>
</a>
</g>
</g>
<!-- Node24 -->
<g id="Node000024" class="node">
<title>Node24</title>
<g id="a_Node000024"><a xlink:title=" ">
<polygon fill="#e0e0e0" stroke="#999999" points="1255.5,-189.5 1191.5,-189.5 1191.5,-170.5 1255.5,-170.5 1255.5,-189.5"/>
<text text-anchor="middle" x="1223.5" y="-177.5" font-family="Helvetica,sans-Serif" font-size="10.00">algorithm</text>
</a>
</g>
</g>
<!-- Node17&#45;&gt;Node24 -->
<g id="edge35_Node000017_Node000024" class="edge">
<title>Node17&#45;&gt;Node24</title>
<g id="a_edge35_Node000017_Node000024"><a xlink:title=" ">
<path fill="none" stroke="#63b8ff" d="M881.65,-235.98C953.19,-230.81 1077.99,-219.05 1182.5,-195 1185.48,-194.31 1188.55,-193.49 1191.61,-192.59"/>
<polygon fill="#63b8ff" stroke="#63b8ff" points="1192.72,-195.92 1201.18,-189.55 1190.59,-189.24 1192.72,-195.92"/>
</a>
</g>
</g>
<!-- Node25 -->
<g id="Node000025" class="node">
<title>Node25</title>
<g id="a_Node000025"><a xlink:title=" ">
<polygon fill="#e0e0e0" stroke="#999999" points="937.5,-189.5 895.5,-189.5 895.5,-170.5 937.5,-170.5 937.5,-189.5"/>
<text text-anchor="middle" x="916.5" y="-177.5" font-family="Helvetica,sans-Serif" font-size="10.00">array</text>
</a>
</g>
</g>
<!-- Node17&#45;&gt;Node25 -->
<g id="edge36_Node000017_Node000025" class="edge">
<title>Node17&#45;&gt;Node25</title>
<g id="a_edge36_Node000017_Node000025"><a xlink:title=" ">
<path fill="none" stroke="#63b8ff" d="M837.22,-230.87C852.2,-221.45 876.39,-206.23 894.12,-195.08"/>
<polygon fill="#63b8ff" stroke="#63b8ff" points="896.12,-197.95 902.72,-189.67 892.39,-192.03 896.12,-197.95"/>
</a>
</g>
</g>
<!-- Node26 -->
<g id="Node000026" class="node">
<title>Node26</title>
<g id="a_Node000026"><a xlink:title=" ">
<polygon fill="#e0e0e0" stroke="#999999" points="997,-189.5 956,-189.5 956,-170.5 997,-170.5 997,-189.5"/>
<text text-anchor="middle" x="976.5" y="-177.5" font-family="Helvetica,sans-Serif" font-size="10.00">tuple</text>
</a>
</g>
</g>
<!-- Node17&#45;&gt;Node26 -->
<g id="edge38_Node000017_Node000026" class="edge">
<title>Node17&#45;&gt;Node26</title>
<g id="a_edge38_Node000017_Node000026"><a xlink:title=" ">
<path fill="none" stroke="#63b8ff" d="M849.2,-230.95C874.26,-222.44 913.34,-208.7 946.5,-195 947.51,-194.58 948.53,-194.15 949.57,-193.71"/>
<polygon fill="#63b8ff" stroke="#63b8ff" points="951.15,-196.83 958.85,-189.56 948.29,-190.44 951.15,-196.83"/>
</a>
</g>
</g>
<!-- Node18&#45;&gt;Node3 -->
<g id="edge25_Node000018_Node000003" class="edge">
<title>Node18&#45;&gt;Node3</title>
<g id="a_edge25_Node000018_Node000003"><a xlink:title=" ">
<path fill="none" stroke="#63b8ff" d="M1053.31,-170.39C1038.07,-168.41 1021.7,-166.46 1006.5,-165 764.14,-141.73 474.97,-128.25 347.45,-123.03"/>
<polygon fill="#63b8ff" stroke="#63b8ff" points="347.22,-119.52 337.09,-122.61 346.93,-126.51 347.22,-119.52"/>
</a>
</g>
</g>
<!-- Node18&#45;&gt;Node13 -->
<g id="edge32_Node000018_Node000013" class="edge">
<title>Node18&#45;&gt;Node13</title>
<g id="a_edge32_Node000018_Node000013"><a xlink:title=" ">
<path fill="none" stroke="#63b8ff" d="M1053.36,-167.4C1048.68,-166.56 1044.01,-165.75 1039.5,-165 956.98,-151.22 861.56,-137.78 799.28,-129.34"/>
<polygon fill="#63b8ff" stroke="#63b8ff" points="799.57,-125.84 789.2,-127.97 798.64,-132.78 799.57,-125.84"/>
</a>
</g>
</g>
<!-- Node19 -->
<g id="Node000019" class="node">
<title>Node19</title>
<g id="a_Node000019"><a xlink:href="interface__contract_8h.html" target="_top" xlink:title=" ">
<polygon fill="white" stroke="#666666" points="947.5,-129 807.5,-129 807.5,-110 947.5,-110 947.5,-129"/>
<text text-anchor="middle" x="877.5" y="-117" font-family="Helvetica,sans-Serif" font-size="10.00">base/interface_contract.h</text>
</a>
</g>
</g>
<!-- Node18&#45;&gt;Node19 -->
<g id="edge26_Node000018_Node000019" class="edge">
<title>Node18&#45;&gt;Node19</title>
<g id="a_edge26_Node000018_Node000019"><a xlink:title=" ">
<path fill="none" stroke="#63b8ff" d="M1056.97,-164.99C1015.54,-154.72 960.07,-140.97 921.83,-131.49"/>
<polygon fill="#63b8ff" stroke="#63b8ff" points="922.56,-128.06 912.01,-129.05 920.87,-134.86 922.56,-128.06"/>
</a>
</g>
</g>
<!-- Node21 -->
<g id="Node000021" class="node">
<title>Node21</title>
<g id="a_Node000021"><a xlink:href="require__copy__intf_8h.html" target="_top" xlink:title=" ">
<polygon fill="white" stroke="#666666" points="1101.5,-129 965.5,-129 965.5,-110 1101.5,-110 1101.5,-129"/>
<text text-anchor="middle" x="1033.5" y="-117" font-family="Helvetica,sans-Serif" font-size="10.00">base/require_copy_intf.h</text>
</a>
</g>
</g>
<!-- Node18&#45;&gt;Node21 -->
<g id="edge28_Node000018_Node000021" class="edge">
<title>Node18&#45;&gt;Node21</title>
<g id="a_edge28_Node000018_Node000021"><a xlink:title=" ">
<path fill="none" stroke="#63b8ff" d="M1094.13,-164.84C1081.93,-155.91 1066.19,-144.41 1053.81,-135.35"/>
<polygon fill="#63b8ff" stroke="#63b8ff" points="1055.63,-132.34 1045.49,-129.27 1051.49,-137.99 1055.63,-132.34"/>
</a>
</g>
</g>
<!-- Node22 -->
<g id="Node000022" class="node">
<title>Node22</title>
<g id="a_Node000022"><a xlink:href="require__move__intf_8h.html" target="_top" xlink:title=" ">
<polygon fill="white" stroke="#666666" points="1259.5,-129 1119.5,-129 1119.5,-110 1259.5,-110 1259.5,-129"/>
<text text-anchor="middle" x="1189.5" y="-117" font-family="Helvetica,sans-Serif" font-size="10.00">base/require_move_intf.h</text>
</a>
</g>
</g>
<!-- Node18&#45;&gt;Node22 -->
<g id="edge30_Node000018_Node000022" class="edge">
<title>Node18&#45;&gt;Node22</title>
<g id="a_edge30_Node000018_Node000022"><a xlink:title=" ">
<path fill="none" stroke="#63b8ff" d="M1131.9,-164.84C1143.38,-156 1158.15,-144.63 1169.86,-135.62"/>
<polygon fill="#63b8ff" stroke="#63b8ff" points="1172.32,-138.14 1178.11,-129.27 1168.05,-132.59 1172.32,-138.14"/>
</a>
</g>
</g>
<!-- Node19&#45;&gt;Node20 -->
<g id="edge27_Node000019_Node000020" class="edge">
<title>Node19&#45;&gt;Node20</title>
<g id="a_edge27_Node000019_Node000020"><a xlink:title=" ">
<path fill="none" stroke="#63b8ff" d="M902.56,-109.98C928.53,-101.16 969.31,-87.31 998.46,-77.41"/>
<polygon fill="#63b8ff" stroke="#63b8ff" points="999.9,-80.61 1008.24,-74.08 997.65,-73.99 999.9,-80.61"/>
</a>
</g>
</g>
<!-- Node21&#45;&gt;Node20 -->
<g id="edge29_Node000021_Node000020" class="edge">
<title>Node21&#45;&gt;Node20</title>
<g id="a_edge29_Node000021_Node000020"><a xlink:title=" ">
<path fill="none" stroke="#63b8ff" d="M1033.5,-109.75C1033.5,-102.8 1033.5,-92.85 1033.5,-84.13"/>
<polygon fill="#63b8ff" stroke="#63b8ff" points="1037,-84.09 1033.5,-74.09 1030,-84.09 1037,-84.09"/>
</a>
</g>
</g>
<!-- Node22&#45;&gt;Node20 -->
<g id="edge31_Node000022_Node000020" class="edge">
<title>Node22&#45;&gt;Node20</title>
<g id="a_edge31_Node000022_Node000020"><a xlink:title=" ">
<path fill="none" stroke="#63b8ff" d="M1164.44,-109.98C1138.47,-101.16 1097.69,-87.31 1068.54,-77.41"/>
<polygon fill="#63b8ff" stroke="#63b8ff" points="1069.35,-73.99 1058.76,-74.08 1067.1,-80.61 1069.35,-73.99"/>
</a>
</g>
</g>
<!-- Node27&#45;&gt;Node3 -->
<g id="edge40_Node000027_Node000003" class="edge">
<title>Node27&#45;&gt;Node3</title>
<g id="a_edge40_Node000027_Node000003"><a xlink:title=" ">
<path fill="none" stroke="#63b8ff" d="M603.39,-285.92C586.42,-277.28 559.81,-263.35 537.5,-250 478.9,-214.94 470.68,-195.34 409.5,-165 381.59,-151.16 348.3,-139.73 322.67,-131.92"/>
<polygon fill="#63b8ff" stroke="#63b8ff" points="323.48,-128.51 312.9,-129.01 321.48,-135.22 323.48,-128.51"/>
</a>
</g>
</g>
<!-- Node27&#45;&gt;Node9 -->
<g id="edge42_Node000027_Node000009" class="edge">
<title>Node27&#45;&gt;Node9</title>
<g id="a_edge42_Node000027_Node000009"><a xlink:title=" ">
<path fill="none" stroke="#63b8ff" d="M616.21,-285.8C599.57,-252.08 539.1,-129.54 516.29,-83.31"/>
<polygon fill="#63b8ff" stroke="#63b8ff" points="519.36,-81.62 511.8,-74.21 513.08,-84.72 519.36,-81.62"/>
</a>
</g>
</g>
<!-- Node27&#45;&gt;Node17 -->
<g id="edge41_Node000027_Node000017" class="edge">
<title>Node27&#45;&gt;Node17</title>
<g id="a_edge41_Node000027_Node000017"><a xlink:title=" ">
<path fill="none" stroke="#63b8ff" d="M653.12,-285.98C687.79,-276.93 742.76,-262.58 780.85,-252.64"/>
<polygon fill="#63b8ff" stroke="#63b8ff" points="781.84,-255.99 790.63,-250.08 780.07,-249.22 781.84,-255.99"/>
</a>
</g>
</g>
<!-- Node31&#45;&gt;Node17 -->
<g id="edge51_Node000031_Node000017" class="edge">
<title>Node31&#45;&gt;Node17</title>
<g id="a_edge51_Node000031_Node000017"><a xlink:title=" ">
<path fill="none" stroke="#63b8ff" d="M1070.43,-472.87C1052.49,-464.97 1026.52,-452.23 1006.5,-437 933.16,-381.21 863.69,-294.62 836.06,-258.36"/>
<polygon fill="#63b8ff" stroke="#63b8ff" points="838.77,-256.15 829.96,-250.28 833.19,-260.37 838.77,-256.15"/>
</a>
</g>
</g>
<!-- Node31&#45;&gt;Node20 -->
<g id="edge58_Node000031_Node000020" class="edge">
<title>Node31&#45;&gt;Node20</title>
<g id="a_edge58_Node000031_Node000020"><a xlink:title=" ">
<path fill="none" stroke="#63b8ff" d="M1152.91,-472.95C1197.34,-465.54 1252.31,-453.41 1268.5,-437 1294.17,-410.99 1287.5,-393.54 1287.5,-357 1287.5,-357 1287.5,-357 1287.5,-179 1287.5,-147.19 1291.89,-131.56 1268.5,-110 1241.37,-84.99 1138.65,-73.26 1078.37,-68.42"/>
<polygon fill="#63b8ff" stroke="#63b8ff" points="1078.6,-64.93 1068.36,-67.65 1078.06,-71.91 1078.6,-64.93"/>
</a>
</g>
</g>
<!-- Node31&#45;&gt;Node24 -->
<g id="edge52_Node000031_Node000024" class="edge">
<title>Node31&#45;&gt;Node24</title>
<g id="a_edge52_Node000031_Node000024"><a xlink:title=" ">
<path fill="none" stroke="#63b8ff" d="M1075.77,-472.88C1063.62,-465.23 1047.7,-452.83 1040.5,-437 1034.98,-424.86 1036.05,-419.57 1040.5,-407 1073.78,-313 1164.64,-229.52 1204.42,-196.28"/>
<polygon fill="#63b8ff" stroke="#63b8ff" points="1206.81,-198.85 1212.31,-189.79 1202.36,-193.44 1206.81,-198.85"/>
</a>
</g>
</g>
<!-- Node31&#45;&gt;Node32 -->
<g id="edge53_Node000031_Node000032" class="edge">
<title>Node31&#45;&gt;Node32</title>
<g id="a_edge53_Node000031_Node000032"><a xlink:title=" ">
<path fill="none" stroke="#63b8ff" d="M1141.64,-472.98C1184.5,-465.2 1247.61,-452.55 1301.5,-437 1303.78,-436.34 1306.12,-435.61 1308.46,-434.85"/>
<polygon fill="#63b8ff" stroke="#63b8ff" points="1309.68,-438.13 1317.98,-431.54 1307.38,-431.52 1309.68,-438.13"/>
</a>
</g>
</g>
<!-- Node33 -->
<g id="Node000033" class="node">
<title>Node33</title>
<g id="a_Node000033"><a xlink:title=" ">
<polygon fill="#e0e0e0" stroke="#999999" points="1114,-431.5 1049,-431.5 1049,-412.5 1114,-412.5 1114,-431.5"/>
<text text-anchor="middle" x="1081.5" y="-419.5" font-family="Helvetica,sans-Serif" font-size="10.00">functional</text>
</a>
</g>
</g>
<!-- Node31&#45;&gt;Node33 -->
<g id="edge54_Node000031_Node000033" class="edge">
<title>Node31&#45;&gt;Node33</title>
<g id="a_edge54_Node000031_Node000033"><a xlink:title=" ">
<path fill="none" stroke="#63b8ff" d="M1090.02,-472.87C1088.62,-464.66 1086.46,-452.04 1084.67,-441.55"/>
<polygon fill="#63b8ff" stroke="#63b8ff" points="1088.12,-440.93 1082.98,-431.67 1081.22,-442.11 1088.12,-440.93"/>
</a>
</g>
</g>
<!-- Node31&#45;&gt;Node34 -->
<g id="edge55_Node000031_Node000034" class="edge">
<title>Node31&#45;&gt;Node34</title>
<g id="a_edge55_Node000031_Node000034"><a xlink:title=" ">
<path fill="none" stroke="#63b8ff" d="M1155.64,-476.26C1213.3,-470.4 1299.86,-458.73 1372.5,-437 1374.13,-436.51 1375.79,-435.95 1377.45,-435.35"/>
<polygon fill="#63b8ff" stroke="#63b8ff" points="1378.83,-438.57 1386.76,-431.54 1376.18,-432.09 1378.83,-438.57"/>
</a>
</g>
</g>
<!-- Node35 -->
<g id="Node000035" class="node">
<title>Node35</title>
<g id="a_Node000035"><a xlink:title=" ">
<polygon fill="#e0e0e0" stroke="#999999" points="1197,-431.5 1132,-431.5 1132,-412.5 1197,-412.5 1197,-431.5"/>
<text text-anchor="middle" x="1164.5" y="-419.5" font-family="Helvetica,sans-Serif" font-size="10.00">stdexcept</text>
</a>
</g>
</g>
<!-- Node31&#45;&gt;Node35 -->
<g id="edge56_Node000031_Node000035" class="edge">
<title>Node31&#45;&gt;Node35</title>
<g id="a_edge56_Node000031_Node000035"><a xlink:title=" ">
<path fill="none" stroke="#63b8ff" d="M1102.27,-472.87C1113.7,-463.71 1131.98,-449.06 1145.78,-438.01"/>
<polygon fill="#63b8ff" stroke="#63b8ff" points="1148.07,-440.65 1153.68,-431.67 1143.69,-435.19 1148.07,-440.65"/>
</a>
</g>
</g>
<!-- Node36 -->
<g id="Node000036" class="node">
<title>Node36</title>
<g id="a_Node000036"><a xlink:title=" ">
<polygon fill="#e0e0e0" stroke="#999999" points="1259.5,-431.5 1215.5,-431.5 1215.5,-412.5 1259.5,-412.5 1259.5,-431.5"/>
<text text-anchor="middle" x="1237.5" y="-419.5" font-family="Helvetica,sans-Serif" font-size="10.00">string</text>
</a>
</g>
</g>
<!-- Node31&#45;&gt;Node36 -->
<g id="edge57_Node000031_Node000036" class="edge">
<title>Node31&#45;&gt;Node36</title>
<g id="a_edge57_Node000031_Node000036"><a xlink:title=" ">
<path fill="none" stroke="#63b8ff" d="M1115,-472.84C1138.35,-464.13 1175.1,-450.15 1206.5,-437 1207.51,-436.58 1208.53,-436.14 1209.56,-435.7"/>
<polygon fill="#63b8ff" stroke="#63b8ff" points="1211.14,-438.83 1218.88,-431.61 1208.32,-432.42 1211.14,-438.83"/>
</a>
</g>
</g>
<!-- Node37&#45;&gt;Node15 -->
<g id="edge60_Node000037_Node000015" class="edge">
<title>Node37&#45;&gt;Node15</title>
<g id="a_edge60_Node000037_Node000015"><a xlink:title=" ">
<path fill="none" stroke="#63b8ff" d="M850.24,-538.04C739.88,-530.43 516.4,-512.68 487.5,-492 472.76,-481.45 464.36,-462.54 459.72,-447.17"/>
<polygon fill="#63b8ff" stroke="#63b8ff" points="463.04,-446.02 457.09,-437.25 456.27,-447.82 463.04,-446.02"/>
</a>
</g>
</g>
<!-- Node37&#45;&gt;Node31 -->
<g id="edge61_Node000037_Node000031" class="edge">
<title>Node37&#45;&gt;Node31</title>
<g id="a_edge61_Node000037_Node000031"><a xlink:title=" ">
<path fill="none" stroke="#63b8ff" d="M954.61,-527.99C985.41,-517.98 1026.37,-504.67 1055.43,-495.22"/>
<polygon fill="#63b8ff" stroke="#63b8ff" points="1056.75,-498.47 1065.18,-492.05 1054.59,-491.82 1056.75,-498.47"/>
</a>
</g>
</g>
<!-- Node38&#45;&gt;Node27 -->
<g id="edge63_Node000038_Node000027" class="edge">
<title>Node38&#45;&gt;Node27</title>
<g id="a_edge63_Node000038_Node000027"><a xlink:title=" ">
<path fill="none" stroke="#63b8ff" d="M1075.01,-533.41C1004.93,-496.88 731.48,-354.35 646.11,-309.85"/>
<polygon fill="#63b8ff" stroke="#63b8ff" points="647.58,-306.67 637.1,-305.15 644.35,-312.88 647.58,-306.67"/>
</a>
</g>
</g>
<!-- Node38&#45;&gt;Node31 -->
<g id="edge64_Node000038_Node000031" class="edge">
<title>Node38&#45;&gt;Node31</title>
<g id="a_edge64_Node000038_Node000031"><a xlink:title=" ">
<path fill="none" stroke="#63b8ff" d="M1091.5,-533.37C1091.5,-525.25 1091.5,-512.81 1091.5,-502.39"/>
<polygon fill="#63b8ff" stroke="#63b8ff" points="1095,-502.17 1091.5,-492.17 1088,-502.17 1095,-502.17"/>
</a>
</g>
</g>
<!-- Node38&#45;&gt;Node32 -->
<g id="edge65_Node000038_Node000032" class="edge">
<title>Node38&#45;&gt;Node32</title>
<g id="a_edge65_Node000038_Node000032"><a xlink:title=" ">
<path fill="none" stroke="#63b8ff" d="M1109.34,-533.44C1152.22,-512.86 1261.32,-460.51 1312.38,-436.01"/>
<polygon fill="#63b8ff" stroke="#63b8ff" points="1313.99,-439.12 1321.49,-431.64 1310.96,-432.81 1313.99,-439.12"/>
</a>
</g>
</g>
</g>
</svg>
