<?xml version="1.0" encoding="UTF-8" standalone="no"?>
<!DOCTYPE svg PUBLIC "-//W3C//DTD SVG 1.1//EN"
 "http://www.w3.org/Graphics/SVG/1.1/DTD/svg11.dtd">
<!-- Generated by graphviz version 2.43.0 (0)
 -->
<!-- Title: include/trackingLib/math/linalg/square_matrix.h Pages: 1 -->
<svg width="896pt" height="390pt"
 viewBox="0.00 0.00 896.00 390.00" xmlns="http://www.w3.org/2000/svg" xmlns:xlink="http://www.w3.org/1999/xlink">
<g id="graph0" class="graph" transform="scale(1 1) rotate(0) translate(4 386)">
<title>include/trackingLib/math/linalg/square_matrix.h</title>
<!-- Node1 -->
<g id="Node000001" class="node">
<title>Node1</title>
<g id="a_Node000001"><a xlink:title=" ">
<polygon fill="#999999" stroke="#666666" points="296,-382 185,-382 185,-341 296,-341 296,-382"/>
<text text-anchor="start" x="193" y="-370" font-family="Helvetica,sans-Serif" font-size="10.00">include/trackingLib</text>
<text text-anchor="start" x="193" y="-359" font-family="Helvetica,sans-Serif" font-size="10.00">/math/linalg/square</text>
<text text-anchor="middle" x="240.5" y="-348" font-family="Helvetica,sans-Serif" font-size="10.00">_matrix.h</text>
</a>
</g>
</g>
<!-- Node2 -->
<g id="Node000002" class="node">
<title>Node2</title>
<g id="a_Node000002"><a xlink:href="first__include_8h.html" target="_top" xlink:title=" ">
<polygon fill="white" stroke="#666666" points="286,-129 175,-129 175,-110 286,-110 286,-129"/>
<text text-anchor="middle" x="230.5" y="-117" font-family="Helvetica,sans-Serif" font-size="10.00">base/first_include.h</text>
</a>
</g>
</g>
<!-- Node1&#45;&gt;Node2 -->
<g id="edge1_Node000001_Node000002" class="edge">
<title>Node1&#45;&gt;Node2</title>
<g id="a_edge1_Node000001_Node000002"><a xlink:title=" ">
<path fill="none" stroke="#63b8ff" d="M184.82,-352.53C155.99,-345.27 123.2,-331.42 105.5,-305 62.79,-241.27 161.23,-165.58 207.79,-134.69"/>
<polygon fill="#63b8ff" stroke="#63b8ff" points="209.87,-137.51 216.35,-129.12 206.06,-131.64 209.87,-137.51"/>
</a>
</g>
</g>
<!-- Node8 -->
<g id="Node000008" class="node">
<title>Node8</title>
<g id="a_Node000008"><a xlink:title=" ">
<polygon fill="#e0e0e0" stroke="#999999" points="83,-74 0,-74 0,-55 83,-55 83,-74"/>
<text text-anchor="middle" x="41.5" y="-62" font-family="Helvetica,sans-Serif" font-size="10.00">initializer_list</text>
</a>
</g>
</g>
<!-- Node1&#45;&gt;Node8 -->
<g id="edge30_Node000001_Node000008" class="edge">
<title>Node1&#45;&gt;Node8</title>
<g id="a_edge30_Node000001_Node000008"><a xlink:title=" ">
<path fill="none" stroke="#63b8ff" d="M184.93,-354.33C120.34,-343.72 22.5,-315.45 22.5,-241.5 22.5,-241.5 22.5,-241.5 22.5,-179 22.5,-145.16 30.82,-106.41 36.45,-84.07"/>
<polygon fill="#63b8ff" stroke="#63b8ff" points="39.87,-84.81 39.02,-74.25 33.1,-83.03 39.87,-84.81"/>
</a>
</g>
</g>
<!-- Node9 -->
<g id="Node000009" class="node">
<title>Node9</title>
<g id="a_Node000009"><a xlink:href="errors_8h.html" target="_top" xlink:title="Error types used throughout the math library.">
<polygon fill="white" stroke="#666666" points="888,-129 775,-129 775,-110 888,-110 888,-129"/>
<text text-anchor="middle" x="831.5" y="-117" font-family="Helvetica,sans-Serif" font-size="10.00">math/linalg/errors.h</text>
</a>
</g>
</g>
<!-- Node1&#45;&gt;Node9 -->
<g id="edge8_Node000001_Node000009" class="edge">
<title>Node1&#45;&gt;Node9</title>
<g id="a_edge8_Node000001_Node000009"><a xlink:title=" ">
<path fill="none" stroke="#63b8ff" d="M296.34,-347.94C390.12,-325.51 583.59,-273.43 732.5,-195 763.86,-178.48 795.86,-152.37 814.69,-135.85"/>
<polygon fill="#63b8ff" stroke="#63b8ff" points="817.23,-138.27 822.36,-129 812.57,-133.05 817.23,-138.27"/>
</a>
</g>
</g>
<!-- Node10 -->
<g id="Node000010" class="node">
<title>Node10</title>
<g id="a_Node000010"><a xlink:href="matrix_8h.html" target="_top" xlink:title=" ">
<polygon fill="white" stroke="#666666" points="365.5,-250 249.5,-250 249.5,-231 365.5,-231 365.5,-250"/>
<text text-anchor="middle" x="307.5" y="-238" font-family="Helvetica,sans-Serif" font-size="10.00">math/linalg/matrix.h</text>
</a>
</g>
</g>
<!-- Node1&#45;&gt;Node10 -->
<g id="edge9_Node000001_Node000010" class="edge">
<title>Node1&#45;&gt;Node10</title>
<g id="a_edge9_Node000001_Node000010"><a xlink:title=" ">
<path fill="none" stroke="#63b8ff" d="M251.56,-340.85C264.39,-318.07 285.34,-280.85 297.64,-259.02"/>
<polygon fill="#63b8ff" stroke="#63b8ff" points="300.76,-260.61 302.62,-250.18 294.66,-257.17 300.76,-260.61"/>
</a>
</g>
</g>
<!-- Node20 -->
<g id="Node000020" class="node">
<title>Node20</title>
<g id="a_Node000020"><a xlink:href="vector_8h.html" target="_top" xlink:title=" ">
<polygon fill="white" stroke="#666666" points="228.5,-305 114.5,-305 114.5,-286 228.5,-286 228.5,-305"/>
<text text-anchor="middle" x="171.5" y="-293" font-family="Helvetica,sans-Serif" font-size="10.00">math/linalg/vector.h</text>
</a>
</g>
</g>
<!-- Node1&#45;&gt;Node20 -->
<g id="edge26_Node000001_Node000020" class="edge">
<title>Node1&#45;&gt;Node20</title>
<g id="a_edge26_Node000001_Node000020"><a xlink:title=" ">
<path fill="none" stroke="#63b8ff" d="M219.42,-340.95C209.49,-331.74 197.8,-320.9 188.45,-312.23"/>
<polygon fill="#63b8ff" stroke="#63b8ff" points="190.66,-309.49 180.94,-305.26 185.9,-314.63 190.66,-309.49"/>
</a>
</g>
</g>
<!-- Node21 -->
<g id="Node000021" class="node">
<title>Node21</title>
<g id="a_Node000021"><a xlink:title=" ">
<polygon fill="#e0e0e0" stroke="#999999" points="828,-305 783,-305 783,-286 828,-286 828,-305"/>
<text text-anchor="middle" x="805.5" y="-293" font-family="Helvetica,sans-Serif" font-size="10.00">utility</text>
</a>
</g>
</g>
<!-- Node1&#45;&gt;Node21 -->
<g id="edge31_Node000001_Node000021" class="edge">
<title>Node1&#45;&gt;Node21</title>
<g id="a_edge31_Node000001_Node000021"><a xlink:title=" ">
<path fill="none" stroke="#63b8ff" d="M296.29,-356.87C392.94,-350.08 597.58,-333.51 768.5,-305 769.96,-304.76 771.45,-304.49 772.96,-304.21"/>
<polygon fill="#63b8ff" stroke="#63b8ff" points="773.8,-307.6 782.89,-302.15 772.39,-300.75 773.8,-307.6"/>
</a>
</g>
</g>
<!-- Node3 -->
<g id="Node000003" class="node">
<title>Node3</title>
<g id="a_Node000003"><a xlink:href="test__config_8h.html" target="_top" xlink:title=" ">
<polygon fill="white" stroke="#666666" points="361,-74 282,-74 282,-55 361,-55 361,-74"/>
<text text-anchor="middle" x="321.5" y="-62" font-family="Helvetica,sans-Serif" font-size="10.00">test_config.h</text>
</a>
</g>
</g>
<!-- Node2&#45;&gt;Node3 -->
<g id="edge2_Node000002_Node000003" class="edge">
<title>Node2&#45;&gt;Node3</title>
<g id="a_edge2_Node000002_Node000003"><a xlink:title=" ">
<path fill="none" stroke="#63b8ff" d="M245.12,-109.98C259.36,-101.69 281.25,-88.94 297.95,-79.22"/>
<polygon fill="#63b8ff" stroke="#63b8ff" points="299.73,-82.23 306.61,-74.17 296.21,-76.18 299.73,-82.23"/>
</a>
</g>
</g>
<!-- Node4 -->
<g id="Node000004" class="node">
<title>Node4</title>
<g id="a_Node000004"><a xlink:href="atomic__types_8h.html" target="_top" xlink:title=" ">
<polygon fill="white" stroke="#666666" points="471.5,-74 379.5,-74 379.5,-55 471.5,-55 471.5,-74"/>
<text text-anchor="middle" x="425.5" y="-62" font-family="Helvetica,sans-Serif" font-size="10.00">atomic_types.h</text>
</a>
</g>
</g>
<!-- Node2&#45;&gt;Node4 -->
<g id="edge3_Node000002_Node000004" class="edge">
<title>Node2&#45;&gt;Node4</title>
<g id="a_edge3_Node000002_Node000004"><a xlink:title=" ">
<path fill="none" stroke="#63b8ff" d="M261.83,-109.98C294.99,-100.97 347.5,-86.7 384.06,-76.76"/>
<polygon fill="#63b8ff" stroke="#63b8ff" points="385.19,-80.08 393.92,-74.08 383.36,-73.33 385.19,-80.08"/>
</a>
</g>
</g>
<!-- Node6 -->
<g id="Node000006" class="node">
<title>Node6</title>
<g id="a_Node000006"><a xlink:title=" ">
<polygon fill="#e0e0e0" stroke="#999999" points="193.5,-74 101.5,-74 101.5,-55 193.5,-55 193.5,-74"/>
<text text-anchor="middle" x="147.5" y="-62" font-family="Helvetica,sans-Serif" font-size="10.00">tl/expected.hpp</text>
</a>
</g>
</g>
<!-- Node2&#45;&gt;Node6 -->
<g id="edge5_Node000002_Node000006" class="edge">
<title>Node2&#45;&gt;Node6</title>
<g id="a_edge5_Node000002_Node000006"><a xlink:title=" ">
<path fill="none" stroke="#63b8ff" d="M217.16,-109.98C204.41,-101.84 184.95,-89.41 169.83,-79.76"/>
<polygon fill="#63b8ff" stroke="#63b8ff" points="171.39,-76.6 161.08,-74.17 167.62,-82.5 171.39,-76.6"/>
</a>
</g>
</g>
<!-- Node7 -->
<g id="Node000007" class="node">
<title>Node7</title>
<g id="a_Node000007"><a xlink:title=" ">
<polygon fill="#e0e0e0" stroke="#999999" points="263.5,-74 211.5,-74 211.5,-55 263.5,-55 263.5,-74"/>
<text text-anchor="middle" x="237.5" y="-62" font-family="Helvetica,sans-Serif" font-size="10.00">cassert</text>
</a>
</g>
</g>
<!-- Node2&#45;&gt;Node7 -->
<g id="edge6_Node000002_Node000007" class="edge">
<title>Node2&#45;&gt;Node7</title>
<g id="a_edge6_Node000002_Node000007"><a xlink:title=" ">
<path fill="none" stroke="#63b8ff" d="M231.66,-109.75C232.57,-102.8 233.89,-92.85 235.04,-84.13"/>
<polygon fill="#63b8ff" stroke="#63b8ff" points="238.53,-84.46 236.37,-74.09 231.59,-83.54 238.53,-84.46"/>
</a>
</g>
</g>
<!-- Node2&#45;&gt;Node8 -->
<g id="edge7_Node000002_Node000008" class="edge">
<title>Node2&#45;&gt;Node8</title>
<g id="a_edge7_Node000002_Node000008"><a xlink:title=" ">
<path fill="none" stroke="#63b8ff" d="M200.13,-109.98C168.13,-101.01 117.54,-86.82 82.12,-76.89"/>
<polygon fill="#63b8ff" stroke="#63b8ff" points="82.68,-73.41 72.1,-74.08 80.79,-80.15 82.68,-73.41"/>
</a>
</g>
</g>
<!-- Node5 -->
<g id="Node000005" class="node">
<title>Node5</title>
<g id="a_Node000005"><a xlink:title=" ">
<polygon fill="#e0e0e0" stroke="#999999" points="450.5,-19 400.5,-19 400.5,0 450.5,0 450.5,-19"/>
<text text-anchor="middle" x="425.5" y="-7" font-family="Helvetica,sans-Serif" font-size="10.00">cstdint</text>
</a>
</g>
</g>
<!-- Node4&#45;&gt;Node5 -->
<g id="edge4_Node000004_Node000005" class="edge">
<title>Node4&#45;&gt;Node5</title>
<g id="a_edge4_Node000004_Node000005"><a xlink:title=" ">
<path fill="none" stroke="#63b8ff" d="M425.5,-54.75C425.5,-47.8 425.5,-37.85 425.5,-29.13"/>
<polygon fill="#63b8ff" stroke="#63b8ff" points="429,-29.09 425.5,-19.09 422,-29.09 429,-29.09"/>
</a>
</g>
</g>
<!-- Node10&#45;&gt;Node2 -->
<g id="edge10_Node000010_Node000002" class="edge">
<title>Node10&#45;&gt;Node2</title>
<g id="a_edge10_Node000010_Node000002"><a xlink:title=" ">
<path fill="none" stroke="#63b8ff" d="M311.2,-230.95C316.92,-216.3 326.03,-185.93 313.5,-165 304.53,-150.01 288.59,-139.78 273.07,-132.95"/>
<polygon fill="#63b8ff" stroke="#63b8ff" points="274.1,-129.6 263.52,-129.13 271.5,-136.1 274.1,-129.6"/>
</a>
</g>
</g>
<!-- Node10&#45;&gt;Node8 -->
<g id="edge24_Node000010_Node000008" class="edge">
<title>Node10&#45;&gt;Node8</title>
<g id="a_edge24_Node000010_Node000008"><a xlink:title=" ">
<path fill="none" stroke="#63b8ff" d="M277.68,-230.88C253.92,-223.32 220.31,-211.03 193.5,-195 137.95,-161.79 82.59,-108.15 56.68,-81.53"/>
<polygon fill="#63b8ff" stroke="#63b8ff" points="59.07,-78.97 49.62,-74.2 54.03,-83.83 59.07,-78.97"/>
</a>
</g>
</g>
<!-- Node10&#45;&gt;Node9 -->
<g id="edge20_Node000010_Node000009" class="edge">
<title>Node10&#45;&gt;Node9</title>
<g id="a_edge20_Node000010_Node000009"><a xlink:title=" ">
<path fill="none" stroke="#63b8ff" d="M365.73,-236.36C459.2,-230.75 638.22,-217.41 697.5,-195 719.3,-186.76 720.42,-176.82 740.5,-165 760.67,-153.13 784.46,-141.57 802.66,-133.21"/>
<polygon fill="#63b8ff" stroke="#63b8ff" points="804.21,-136.35 811.87,-129.03 801.32,-129.98 804.21,-136.35"/>
</a>
</g>
</g>
<!-- Node11 -->
<g id="Node000011" class="node">
<title>Node11</title>
<g id="a_Node000011"><a xlink:href="matrix__intf_8h.html" target="_top" xlink:title=" ">
<polygon fill="white" stroke="#666666" points="480.5,-195 360.5,-195 360.5,-165 480.5,-165 480.5,-195"/>
<text text-anchor="start" x="368.5" y="-183" font-family="Helvetica,sans-Serif" font-size="10.00">math/linalg/contracts</text>
<text text-anchor="middle" x="420.5" y="-172" font-family="Helvetica,sans-Serif" font-size="10.00">/matrix_intf.h</text>
</a>
</g>
</g>
<!-- Node10&#45;&gt;Node11 -->
<g id="edge11_Node000010_Node000011" class="edge">
<title>Node10&#45;&gt;Node11</title>
<g id="a_edge11_Node000010_Node000011"><a xlink:title=" ">
<path fill="none" stroke="#63b8ff" d="M324.17,-230.87C339.93,-222.71 364.1,-210.2 384.29,-199.75"/>
<polygon fill="#63b8ff" stroke="#63b8ff" points="385.96,-202.82 393.24,-195.11 382.75,-196.6 385.96,-202.82"/>
</a>
</g>
</g>
<!-- Node16 -->
<g id="Node000016" class="node">
<title>Node16</title>
<g id="a_Node000016"><a xlink:href="matrix__types_8h.html" target="_top" xlink:title="Type definitions and enumerations for matrix operations.">
<polygon fill="white" stroke="#666666" points="606,-195 499,-195 499,-165 606,-165 606,-195"/>
<text text-anchor="start" x="507" y="-183" font-family="Helvetica,sans-Serif" font-size="10.00">math/linalg/matrix</text>
<text text-anchor="middle" x="552.5" y="-172" font-family="Helvetica,sans-Serif" font-size="10.00">_types.h</text>
</a>
</g>
</g>
<!-- Node10&#45;&gt;Node16 -->
<g id="edge21_Node000010_Node000016" class="edge">
<title>Node10&#45;&gt;Node16</title>
<g id="a_edge21_Node000010_Node000016"><a xlink:title=" ">
<path fill="none" stroke="#63b8ff" d="M343.13,-230.99C381.21,-221.9 442.37,-207.3 488.78,-196.22"/>
<polygon fill="#63b8ff" stroke="#63b8ff" points="489.82,-199.56 498.74,-193.84 488.2,-192.76 489.82,-199.56"/>
</a>
</g>
</g>
<!-- Node17 -->
<g id="Node000017" class="node">
<title>Node17</title>
<g id="a_Node000017"><a xlink:title=" ">
<polygon fill="#e0e0e0" stroke="#999999" points="688.5,-189.5 624.5,-189.5 624.5,-170.5 688.5,-170.5 688.5,-189.5"/>
<text text-anchor="middle" x="656.5" y="-177.5" font-family="Helvetica,sans-Serif" font-size="10.00">algorithm</text>
</a>
</g>
</g>
<!-- Node10&#45;&gt;Node17 -->
<g id="edge22_Node000010_Node000017" class="edge">
<title>Node10&#45;&gt;Node17</title>
<g id="a_edge22_Node000010_Node000017"><a xlink:title=" ">
<path fill="none" stroke="#63b8ff" d="M365.73,-234.34C428.12,-228.06 529.75,-215.65 615.5,-195 618.31,-194.32 621.2,-193.53 624.09,-192.68"/>
<polygon fill="#63b8ff" stroke="#63b8ff" points="625.27,-195.98 633.74,-189.61 623.14,-189.31 625.27,-195.98"/>
</a>
</g>
</g>
<!-- Node18 -->
<g id="Node000018" class="node">
<title>Node18</title>
<g id="a_Node000018"><a xlink:title=" ">
<polygon fill="#e0e0e0" stroke="#999999" points="244.5,-189.5 202.5,-189.5 202.5,-170.5 244.5,-170.5 244.5,-189.5"/>
<text text-anchor="middle" x="223.5" y="-177.5" font-family="Helvetica,sans-Serif" font-size="10.00">array</text>
</a>
</g>
</g>
<!-- Node10&#45;&gt;Node18 -->
<g id="edge23_Node000010_Node000018" class="edge">
<title>Node10&#45;&gt;Node18</title>
<g id="a_edge23_Node000010_Node000018"><a xlink:title=" ">
<path fill="none" stroke="#63b8ff" d="M295.11,-230.87C281.71,-221.54 260.12,-206.51 244.15,-195.38"/>
<polygon fill="#63b8ff" stroke="#63b8ff" points="246.15,-192.51 235.95,-189.67 242.15,-198.25 246.15,-192.51"/>
</a>
</g>
</g>
<!-- Node19 -->
<g id="Node000019" class="node">
<title>Node19</title>
<g id="a_Node000019"><a xlink:title=" ">
<polygon fill="#e0e0e0" stroke="#999999" points="304,-189.5 263,-189.5 263,-170.5 304,-170.5 304,-189.5"/>
<text text-anchor="middle" x="283.5" y="-177.5" font-family="Helvetica,sans-Serif" font-size="10.00">tuple</text>
</a>
</g>
</g>
<!-- Node10&#45;&gt;Node19 -->
<g id="edge25_Node000010_Node000019" class="edge">
<title>Node10&#45;&gt;Node19</title>
<g id="a_edge25_Node000010_Node000019"><a xlink:title=" ">
<path fill="none" stroke="#63b8ff" d="M303.96,-230.87C300.56,-222.57 295.31,-209.78 290.98,-199.22"/>
<polygon fill="#63b8ff" stroke="#63b8ff" points="294.09,-197.59 287.06,-189.67 287.61,-200.25 294.09,-197.59"/>
</a>
</g>
</g>
<!-- Node11&#45;&gt;Node2 -->
<g id="edge12_Node000011_Node000002" class="edge">
<title>Node11&#45;&gt;Node2</title>
<g id="a_edge12_Node000011_Node000002"><a xlink:title=" ">
<path fill="none" stroke="#63b8ff" d="M374.99,-164.99C342.34,-154.94 298.87,-141.55 268.17,-132.1"/>
<polygon fill="#63b8ff" stroke="#63b8ff" points="268.87,-128.65 258.28,-129.05 266.81,-135.34 268.87,-128.65"/>
</a>
</g>
</g>
<!-- Node11&#45;&gt;Node9 -->
<g id="edge19_Node000011_Node000009" class="edge">
<title>Node11&#45;&gt;Node9</title>
<g id="a_edge19_Node000011_Node000009"><a xlink:title=" ">
<path fill="none" stroke="#63b8ff" d="M480.78,-166.67C484.07,-166.09 487.32,-165.52 490.5,-165 503.84,-162.8 669.05,-141.43 764.51,-129.12"/>
<polygon fill="#63b8ff" stroke="#63b8ff" points="765.19,-132.57 774.66,-127.82 764.29,-125.62 765.19,-132.57"/>
</a>
</g>
</g>
<!-- Node12 -->
<g id="Node000012" class="node">
<title>Node12</title>
<g id="a_Node000012"><a xlink:href="interface__contract_8h.html" target="_top" xlink:title=" ">
<polygon fill="white" stroke="#666666" points="444.5,-129 304.5,-129 304.5,-110 444.5,-110 444.5,-129"/>
<text text-anchor="middle" x="374.5" y="-117" font-family="Helvetica,sans-Serif" font-size="10.00">base/interface_contract.h</text>
</a>
</g>
</g>
<!-- Node11&#45;&gt;Node12 -->
<g id="edge13_Node000011_Node000012" class="edge">
<title>Node11&#45;&gt;Node12</title>
<g id="a_edge13_Node000011_Node000012"><a xlink:title=" ">
<path fill="none" stroke="#63b8ff" d="M409.36,-164.84C402.82,-156.52 394.52,-145.96 387.66,-137.23"/>
<polygon fill="#63b8ff" stroke="#63b8ff" points="390.33,-134.96 381.39,-129.27 384.82,-139.29 390.33,-134.96"/>
</a>
</g>
</g>
<!-- Node14 -->
<g id="Node000014" class="node">
<title>Node14</title>
<g id="a_Node000014"><a xlink:href="require__copy__intf_8h.html" target="_top" xlink:title=" ">
<polygon fill="white" stroke="#666666" points="598.5,-129 462.5,-129 462.5,-110 598.5,-110 598.5,-129"/>
<text text-anchor="middle" x="530.5" y="-117" font-family="Helvetica,sans-Serif" font-size="10.00">base/require_copy_intf.h</text>
</a>
</g>
</g>
<!-- Node11&#45;&gt;Node14 -->
<g id="edge15_Node000011_Node000014" class="edge">
<title>Node11&#45;&gt;Node14</title>
<g id="a_edge15_Node000011_Node000014"><a xlink:title=" ">
<path fill="none" stroke="#63b8ff" d="M446.85,-164.99C464.55,-155.58 487.73,-143.24 505.21,-133.95"/>
<polygon fill="#63b8ff" stroke="#63b8ff" points="507.07,-136.92 514.26,-129.14 503.78,-130.74 507.07,-136.92"/>
</a>
</g>
</g>
<!-- Node15 -->
<g id="Node000015" class="node">
<title>Node15</title>
<g id="a_Node000015"><a xlink:href="require__move__intf_8h.html" target="_top" xlink:title=" ">
<polygon fill="white" stroke="#666666" points="756.5,-129 616.5,-129 616.5,-110 756.5,-110 756.5,-129"/>
<text text-anchor="middle" x="686.5" y="-117" font-family="Helvetica,sans-Serif" font-size="10.00">base/require_move_intf.h</text>
</a>
</g>
</g>
<!-- Node11&#45;&gt;Node15 -->
<g id="edge17_Node000011_Node000015" class="edge">
<title>Node11&#45;&gt;Node15</title>
<g id="a_edge17_Node000011_Node000015"><a xlink:title=" ">
<path fill="none" stroke="#63b8ff" d="M480.53,-165.8C528.01,-155.36 593.46,-140.96 637.74,-131.22"/>
<polygon fill="#63b8ff" stroke="#63b8ff" points="638.67,-134.6 647.68,-129.04 637.16,-127.77 638.67,-134.6"/>
</a>
</g>
</g>
<!-- Node13 -->
<g id="Node000013" class="node">
<title>Node13</title>
<g id="a_Node000013"><a xlink:title=" ">
<polygon fill="#e0e0e0" stroke="#999999" points="565,-74 496,-74 496,-55 565,-55 565,-74"/>
<text text-anchor="middle" x="530.5" y="-62" font-family="Helvetica,sans-Serif" font-size="10.00">type_traits</text>
</a>
</g>
</g>
<!-- Node12&#45;&gt;Node13 -->
<g id="edge14_Node000012_Node000013" class="edge">
<title>Node12&#45;&gt;Node13</title>
<g id="a_edge14_Node000012_Node000013"><a xlink:title=" ">
<path fill="none" stroke="#63b8ff" d="M399.56,-109.98C425.53,-101.16 466.31,-87.31 495.46,-77.41"/>
<polygon fill="#63b8ff" stroke="#63b8ff" points="496.9,-80.61 505.24,-74.08 494.65,-73.99 496.9,-80.61"/>
</a>
</g>
</g>
<!-- Node14&#45;&gt;Node13 -->
<g id="edge16_Node000014_Node000013" class="edge">
<title>Node14&#45;&gt;Node13</title>
<g id="a_edge16_Node000014_Node000013"><a xlink:title=" ">
<path fill="none" stroke="#63b8ff" d="M530.5,-109.75C530.5,-102.8 530.5,-92.85 530.5,-84.13"/>
<polygon fill="#63b8ff" stroke="#63b8ff" points="534,-84.09 530.5,-74.09 527,-84.09 534,-84.09"/>
</a>
</g>
</g>
<!-- Node15&#45;&gt;Node13 -->
<g id="edge18_Node000015_Node000013" class="edge">
<title>Node15&#45;&gt;Node13</title>
<g id="a_edge18_Node000015_Node000013"><a xlink:title=" ">
<path fill="none" stroke="#63b8ff" d="M661.44,-109.98C635.47,-101.16 594.69,-87.31 565.54,-77.41"/>
<polygon fill="#63b8ff" stroke="#63b8ff" points="566.35,-73.99 555.76,-74.08 564.1,-80.61 566.35,-73.99"/>
</a>
</g>
</g>
<!-- Node20&#45;&gt;Node2 -->
<g id="edge27_Node000020_Node000002" class="edge">
<title>Node20&#45;&gt;Node2</title>
<g id="a_edge27_Node000020_Node000002"><a xlink:title=" ">
<path fill="none" stroke="#63b8ff" d="M171.45,-285.87C171.63,-264.41 174.07,-207.27 193.5,-165 198.36,-154.43 206.39,-144.32 213.73,-136.41"/>
<polygon fill="#63b8ff" stroke="#63b8ff" points="216.46,-138.63 220.97,-129.05 211.47,-133.73 216.46,-138.63"/>
</a>
</g>
</g>
<!-- Node20&#45;&gt;Node8 -->
<g id="edge29_Node000020_Node000008" class="edge">
<title>Node20&#45;&gt;Node8</title>
<g id="a_edge29_Node000020_Node000008"><a xlink:title=" ">
<path fill="none" stroke="#63b8ff" d="M166.56,-285.8C147.38,-252.01 77.56,-129.02 51.45,-83.02"/>
<polygon fill="#63b8ff" stroke="#63b8ff" points="54.42,-81.17 46.44,-74.21 48.34,-84.63 54.42,-81.17"/>
</a>
</g>
</g>
<!-- Node20&#45;&gt;Node10 -->
<g id="edge28_Node000020_Node000010" class="edge">
<title>Node20&#45;&gt;Node10</title>
<g id="a_edge28_Node000020_Node000010"><a xlink:title=" ">
<path fill="none" stroke="#63b8ff" d="M193.35,-285.98C215.62,-277.3 250.4,-263.75 275.72,-253.88"/>
<polygon fill="#63b8ff" stroke="#63b8ff" points="277.21,-257.06 285.25,-250.17 274.66,-250.54 277.21,-257.06"/>
</a>
</g>
</g>
</g>
</svg>
