<?xml version="1.0" encoding="UTF-8" standalone="no"?>
<!DOCTYPE svg PUBLIC "-//W3C//DTD SVG 1.1//EN"
 "http://www.w3.org/Graphics/SVG/1.1/DTD/svg11.dtd">
<!-- Generated by graphviz version 2.43.0 (0)
 -->
<!-- Title: include/trackingLib/motion/state_mem.h Pages: 1 -->
<svg width="1412pt" height="720pt"
 viewBox="0.00 0.00 1411.85 720.00" xmlns="http://www.w3.org/2000/svg" xmlns:xlink="http://www.w3.org/1999/xlink">
<g id="graph0" class="graph" transform="scale(1 1) rotate(0) translate(4 716)">
<title>include/trackingLib/motion/state_mem.h</title>
<!-- Node1 -->
<g id="Node000001" class="node">
<title>Node1</title>
<g id="a_Node000001"><a xlink:title=" ">
<polygon fill="#999999" stroke="#666666" points="367,-712 245,-712 245,-682 367,-682 367,-712"/>
<text text-anchor="start" x="253" y="-700" font-family="Helvetica,sans-Serif" font-size="10.00">include/trackingLib</text>
<text text-anchor="middle" x="306" y="-689" font-family="Helvetica,sans-Serif" font-size="10.00">/motion/state_mem.h</text>
</a>
</g>
</g>
<!-- Node2 -->
<g id="Node000002" class="node">
<title>Node2</title>
<g id="a_Node000002"><a xlink:href="first__include_8h.html" target="_top" xlink:title=" ">
<polygon fill="white" stroke="#666666" points="303.5,-129 192.5,-129 192.5,-110 303.5,-110 303.5,-129"/>
<text text-anchor="middle" x="248" y="-117" font-family="Helvetica,sans-Serif" font-size="10.00">base/first_include.h</text>
</a>
</g>
</g>
<!-- Node1&#45;&gt;Node2 -->
<g id="edge1_Node000001_Node000002" class="edge">
<title>Node1&#45;&gt;Node2</title>
<g id="a_edge1_Node000001_Node000002"><a xlink:title=" ">
<path fill="none" stroke="#63b8ff" d="M244.81,-694.2C155.51,-687.96 0,-661.75 0,-555 0,-555 0,-555 0,-239.5 0,-158.54 108.75,-132.62 182.23,-124.35"/>
<polygon fill="#63b8ff" stroke="#63b8ff" points="182.76,-127.81 192.34,-123.29 182.04,-120.85 182.76,-127.81"/>
</a>
</g>
</g>
<!-- Node9 -->
<g id="Node000009" class="node">
<title>Node9</title>
<g id="a_Node000009"><a xlink:href="covariance__matrix__policy__intf_8h.html" target="_top" xlink:title=" ">
<polygon fill="white" stroke="#666666" points="378.5,-646 233.5,-646 233.5,-605 378.5,-605 378.5,-646"/>
<text text-anchor="start" x="241.5" y="-634" font-family="Helvetica,sans-Serif" font-size="10.00">math/linalg/contracts</text>
<text text-anchor="start" x="241.5" y="-623" font-family="Helvetica,sans-Serif" font-size="10.00">/covariance_matrix_policy</text>
<text text-anchor="middle" x="306" y="-612" font-family="Helvetica,sans-Serif" font-size="10.00">_intf.h</text>
</a>
</g>
</g>
<!-- Node1&#45;&gt;Node9 -->
<g id="edge8_Node000001_Node000009" class="edge">
<title>Node1&#45;&gt;Node9</title>
<g id="a_edge8_Node000001_Node000009"><a xlink:title=" ">
<path fill="none" stroke="#63b8ff" d="M306,-681.94C306,-674.52 306,-665.14 306,-656.2"/>
<polygon fill="#63b8ff" stroke="#63b8ff" points="309.5,-656.07 306,-646.07 302.5,-656.07 309.5,-656.07"/>
</a>
</g>
</g>
<!-- Node10 -->
<g id="Node000010" class="node">
<title>Node10</title>
<g id="a_Node000010"><a xlink:href="covariance__matrix__policies_8h.html" target="_top" xlink:title=" ">
<polygon fill="white" stroke="#666666" points="269,-569 141,-569 141,-539 269,-539 269,-569"/>
<text text-anchor="start" x="149" y="-557" font-family="Helvetica,sans-Serif" font-size="10.00">math/linalg/covariance</text>
<text text-anchor="middle" x="205" y="-546" font-family="Helvetica,sans-Serif" font-size="10.00">_matrix_policies.h</text>
</a>
</g>
</g>
<!-- Node1&#45;&gt;Node10 -->
<g id="edge52_Node000001_Node000010" class="edge">
<title>Node1&#45;&gt;Node10</title>
<g id="a_edge52_Node000001_Node000010"><a xlink:title=" ">
<path fill="none" stroke="#63b8ff" d="M269.68,-681.88C253.34,-673.75 235.25,-661.94 224,-646 210.18,-626.42 206,-598.93 204.93,-579.3"/>
<polygon fill="#63b8ff" stroke="#63b8ff" points="208.43,-579.19 204.61,-569.31 201.43,-579.41 208.43,-579.19"/>
</a>
</g>
</g>
<!-- Node25 -->
<g id="Node000025" class="node">
<title>Node25</title>
<g id="a_Node000025"><a xlink:href="vector_8h.html" target="_top" xlink:title=" ">
<polygon fill="white" stroke="#666666" points="664,-305 550,-305 550,-286 664,-286 664,-305"/>
<text text-anchor="middle" x="607" y="-293" font-family="Helvetica,sans-Serif" font-size="10.00">math/linalg/vector.h</text>
</a>
</g>
</g>
<!-- Node1&#45;&gt;Node25 -->
<g id="edge53_Node000001_Node000025" class="edge">
<title>Node1&#45;&gt;Node25</title>
<g id="a_edge53_Node000001_Node000025"><a xlink:title=" ">
<path fill="none" stroke="#63b8ff" d="M367.21,-693.12C573.13,-682.61 1228,-642.34 1228,-555 1228,-555 1228,-555 1228,-421 1228,-309.03 835,-296.42 674.28,-295.94"/>
<polygon fill="#63b8ff" stroke="#63b8ff" points="674.04,-292.44 664.03,-295.93 674.03,-299.44 674.04,-292.44"/>
</a>
</g>
</g>
<!-- Node29 -->
<g id="Node000029" class="node">
<title>Node29</title>
<g id="a_Node000029"><a xlink:href="state__mem__intf_8h.html" target="_top" xlink:title=" ">
<polygon fill="white" stroke="#666666" points="1269.5,-195 1142.5,-195 1142.5,-165 1269.5,-165 1269.5,-195"/>
<text text-anchor="start" x="1150.5" y="-183" font-family="Helvetica,sans-Serif" font-size="10.00">motion/contracts/state</text>
<text text-anchor="middle" x="1206" y="-172" font-family="Helvetica,sans-Serif" font-size="10.00">_mem_intf.h</text>
</a>
</g>
</g>
<!-- Node1&#45;&gt;Node29 -->
<g id="edge54_Node000001_Node000029" class="edge">
<title>Node1&#45;&gt;Node29</title>
<g id="a_edge54_Node000001_Node000029"><a xlink:title=" ">
<path fill="none" stroke="#63b8ff" d="M367.18,-694.55C522.03,-690.45 926.45,-677.03 1057,-646 1155.57,-622.57 1266,-656.31 1266,-555 1266,-555 1266,-555 1266,-421 1266,-339.46 1233,-246.87 1215.95,-204.46"/>
<polygon fill="#63b8ff" stroke="#63b8ff" points="1219.11,-202.96 1212.08,-195.03 1212.64,-205.61 1219.11,-202.96"/>
</a>
</g>
</g>
<!-- Node3 -->
<g id="Node000003" class="node">
<title>Node3</title>
<g id="a_Node000003"><a xlink:href="test__config_8h.html" target="_top" xlink:title=" ">
<polygon fill="white" stroke="#666666" points="287.5,-74 208.5,-74 208.5,-55 287.5,-55 287.5,-74"/>
<text text-anchor="middle" x="248" y="-62" font-family="Helvetica,sans-Serif" font-size="10.00">test_config.h</text>
</a>
</g>
</g>
<!-- Node2&#45;&gt;Node3 -->
<g id="edge2_Node000002_Node000003" class="edge">
<title>Node2&#45;&gt;Node3</title>
<g id="a_edge2_Node000002_Node000003"><a xlink:title=" ">
<path fill="none" stroke="#63b8ff" d="M248,-109.75C248,-102.8 248,-92.85 248,-84.13"/>
<polygon fill="#63b8ff" stroke="#63b8ff" points="251.5,-84.09 248,-74.09 244.5,-84.09 251.5,-84.09"/>
</a>
</g>
</g>
<!-- Node4 -->
<g id="Node000004" class="node">
<title>Node4</title>
<g id="a_Node000004"><a xlink:href="atomic__types_8h.html" target="_top" xlink:title=" ">
<polygon fill="white" stroke="#666666" points="398,-74 306,-74 306,-55 398,-55 398,-74"/>
<text text-anchor="middle" x="352" y="-62" font-family="Helvetica,sans-Serif" font-size="10.00">atomic_types.h</text>
</a>
</g>
</g>
<!-- Node2&#45;&gt;Node4 -->
<g id="edge3_Node000002_Node000004" class="edge">
<title>Node2&#45;&gt;Node4</title>
<g id="a_edge3_Node000002_Node000004"><a xlink:title=" ">
<path fill="none" stroke="#63b8ff" d="M264.71,-109.98C281.21,-101.57 306.7,-88.59 325.88,-78.81"/>
<polygon fill="#63b8ff" stroke="#63b8ff" points="327.67,-81.83 334.99,-74.17 324.49,-75.59 327.67,-81.83"/>
</a>
</g>
</g>
<!-- Node6 -->
<g id="Node000006" class="node">
<title>Node6</title>
<g id="a_Node000006"><a xlink:title=" ">
<polygon fill="#e0e0e0" stroke="#999999" points="120,-74 28,-74 28,-55 120,-55 120,-74"/>
<text text-anchor="middle" x="74" y="-62" font-family="Helvetica,sans-Serif" font-size="10.00">tl/expected.hpp</text>
</a>
</g>
</g>
<!-- Node2&#45;&gt;Node6 -->
<g id="edge5_Node000002_Node000006" class="edge">
<title>Node2&#45;&gt;Node6</title>
<g id="a_edge5_Node000002_Node000006"><a xlink:title=" ">
<path fill="none" stroke="#63b8ff" d="M220.04,-109.98C190.7,-101.05 144.4,-86.94 111.81,-77.02"/>
<polygon fill="#63b8ff" stroke="#63b8ff" points="112.76,-73.65 102.18,-74.08 110.72,-80.34 112.76,-73.65"/>
</a>
</g>
</g>
<!-- Node7 -->
<g id="Node000007" class="node">
<title>Node7</title>
<g id="a_Node000007"><a xlink:title=" ">
<polygon fill="#e0e0e0" stroke="#999999" points="190,-74 138,-74 138,-55 190,-55 190,-74"/>
<text text-anchor="middle" x="164" y="-62" font-family="Helvetica,sans-Serif" font-size="10.00">cassert</text>
</a>
</g>
</g>
<!-- Node2&#45;&gt;Node7 -->
<g id="edge6_Node000002_Node000007" class="edge">
<title>Node2&#45;&gt;Node7</title>
<g id="a_edge6_Node000002_Node000007"><a xlink:title=" ">
<path fill="none" stroke="#63b8ff" d="M234.5,-109.98C221.6,-101.84 201.9,-89.41 186.6,-79.76"/>
<polygon fill="#63b8ff" stroke="#63b8ff" points="188.07,-76.55 177.74,-74.17 184.33,-82.47 188.07,-76.55"/>
</a>
</g>
</g>
<!-- Node8 -->
<g id="Node000008" class="node">
<title>Node8</title>
<g id="a_Node000008"><a xlink:title=" ">
<polygon fill="#e0e0e0" stroke="#999999" points="499.5,-74 416.5,-74 416.5,-55 499.5,-55 499.5,-74"/>
<text text-anchor="middle" x="458" y="-62" font-family="Helvetica,sans-Serif" font-size="10.00">initializer_list</text>
</a>
</g>
</g>
<!-- Node2&#45;&gt;Node8 -->
<g id="edge7_Node000002_Node000008" class="edge">
<title>Node2&#45;&gt;Node8</title>
<g id="a_edge7_Node000002_Node000008"><a xlink:title=" ">
<path fill="none" stroke="#63b8ff" d="M281.74,-109.98C317.68,-100.91 374.72,-86.52 414.13,-76.57"/>
<polygon fill="#63b8ff" stroke="#63b8ff" points="415.16,-79.92 424,-74.08 413.44,-73.14 415.16,-79.92"/>
</a>
</g>
</g>
<!-- Node5 -->
<g id="Node000005" class="node">
<title>Node5</title>
<g id="a_Node000005"><a xlink:title=" ">
<polygon fill="#e0e0e0" stroke="#999999" points="377,-19 327,-19 327,0 377,0 377,-19"/>
<text text-anchor="middle" x="352" y="-7" font-family="Helvetica,sans-Serif" font-size="10.00">cstdint</text>
</a>
</g>
</g>
<!-- Node4&#45;&gt;Node5 -->
<g id="edge4_Node000004_Node000005" class="edge">
<title>Node4&#45;&gt;Node5</title>
<g id="a_edge4_Node000004_Node000005"><a xlink:title=" ">
<path fill="none" stroke="#63b8ff" d="M352,-54.75C352,-47.8 352,-37.85 352,-29.13"/>
<polygon fill="#63b8ff" stroke="#63b8ff" points="355.5,-29.09 352,-19.09 348.5,-29.09 355.5,-29.09"/>
</a>
</g>
</g>
<!-- Node9&#45;&gt;Node2 -->
<g id="edge9_Node000009_Node000002" class="edge">
<title>Node9&#45;&gt;Node2</title>
<g id="a_edge9_Node000009_Node000002"><a xlink:title=" ">
<path fill="none" stroke="#63b8ff" d="M306,-604.75C306,-578.37 306,-530.17 306,-489 306,-489 306,-489 306,-239.5 306,-199.5 279.2,-158.9 262.03,-136.99"/>
<polygon fill="#63b8ff" stroke="#63b8ff" points="264.6,-134.6 255.58,-129.05 259.17,-139.02 264.6,-134.6"/>
</a>
</g>
</g>
<!-- Node9&#45;&gt;Node10 -->
<g id="edge10_Node000009_Node000010" class="edge">
<title>Node9&#45;&gt;Node10</title>
<g id="a_edge10_Node000009_Node000010"><a xlink:title=" ">
<path fill="none" stroke="#63b8ff" d="M277.6,-604.96C264,-595.6 247.75,-584.42 234.07,-575.01"/>
<polygon fill="#63b8ff" stroke="#63b8ff" points="235.73,-571.9 225.51,-569.11 231.76,-577.66 235.73,-571.9"/>
</a>
</g>
</g>
<!-- Node10&#45;&gt;Node2 -->
<g id="edge11_Node000010_Node000002" class="edge">
<title>Node10&#45;&gt;Node2</title>
<g id="a_edge11_Node000010_Node000002"><a xlink:title=" ">
<path fill="none" stroke="#63b8ff" d="M158.04,-538.87C108.64,-520.77 38,-484.18 38,-423 38,-423 38,-423 38,-239.5 38,-172.22 120.61,-142.52 182.2,-129.73"/>
<polygon fill="#63b8ff" stroke="#63b8ff" points="183.14,-133.11 192.28,-127.75 181.79,-126.25 183.14,-133.11"/>
</a>
</g>
</g>
<!-- Node11 -->
<g id="Node000011" class="node">
<title>Node11</title>
<g id="a_Node000011"><a xlink:href="covariance__matrix__factored_8h.html" target="_top" xlink:title=" ">
<polygon fill="white" stroke="#666666" points="256,-503 128,-503 128,-473 256,-473 256,-503"/>
<text text-anchor="start" x="136" y="-491" font-family="Helvetica,sans-Serif" font-size="10.00">math/linalg/covariance</text>
<text text-anchor="middle" x="192" y="-480" font-family="Helvetica,sans-Serif" font-size="10.00">_matrix_factored.h</text>
</a>
</g>
</g>
<!-- Node10&#45;&gt;Node11 -->
<g id="edge12_Node000010_Node000011" class="edge">
<title>Node10&#45;&gt;Node11</title>
<g id="a_edge12_Node000010_Node000011"><a xlink:title=" ">
<path fill="none" stroke="#63b8ff" d="M202.11,-538.8C200.58,-531.26 198.66,-521.78 196.9,-513.13"/>
<polygon fill="#63b8ff" stroke="#63b8ff" points="200.3,-512.27 194.88,-503.16 193.44,-513.66 200.3,-512.27"/>
</a>
</g>
</g>
<!-- Node28 -->
<g id="Node000028" class="node">
<title>Node28</title>
<g id="a_Node000028"><a xlink:href="covariance__matrix__full_8h.html" target="_top" xlink:title=" ">
<polygon fill="white" stroke="#666666" points="499,-503 371,-503 371,-473 499,-473 499,-503"/>
<text text-anchor="start" x="379" y="-491" font-family="Helvetica,sans-Serif" font-size="10.00">math/linalg/covariance</text>
<text text-anchor="middle" x="435" y="-480" font-family="Helvetica,sans-Serif" font-size="10.00">_matrix_full.h</text>
</a>
</g>
</g>
<!-- Node10&#45;&gt;Node28 -->
<g id="edge47_Node000010_Node000028" class="edge">
<title>Node10&#45;&gt;Node28</title>
<g id="a_edge47_Node000010_Node000028"><a xlink:title=" ">
<path fill="none" stroke="#63b8ff" d="M255.47,-538.95C290.68,-529.16 337.81,-516.05 374.94,-505.71"/>
<polygon fill="#63b8ff" stroke="#63b8ff" points="375.95,-509.07 384.64,-503.01 374.07,-502.32 375.95,-509.07"/>
</a>
</g>
</g>
<!-- Node11&#45;&gt;Node2 -->
<g id="edge13_Node000011_Node000002" class="edge">
<title>Node11&#45;&gt;Node2</title>
<g id="a_edge13_Node000011_Node000002"><a xlink:title=" ">
<path fill="none" stroke="#63b8ff" d="M185.03,-472.97C174.06,-449.54 154,-400.74 154,-357 154,-357 154,-357 154,-239.5 154,-204.71 156.72,-192.52 178,-165 188.38,-151.58 204.03,-141.08 217.9,-133.67"/>
<polygon fill="#63b8ff" stroke="#63b8ff" points="219.77,-136.64 227.13,-129.03 216.63,-130.39 219.77,-136.64"/>
</a>
</g>
</g>
<!-- Node11&#45;&gt;Node8 -->
<g id="edge45_Node000011_Node000008" class="edge">
<title>Node11&#45;&gt;Node8</title>
<g id="a_edge45_Node000011_Node000008"><a xlink:title=" ">
<path fill="none" stroke="#63b8ff" d="M192,-472.96C192,-449.12 192,-399.2 192,-357 192,-357 192,-357 192,-294.5 192,-174.9 348.35,-104.09 421.31,-77.55"/>
<polygon fill="#63b8ff" stroke="#63b8ff" points="422.78,-80.74 431.03,-74.1 420.44,-74.15 422.78,-80.74"/>
</a>
</g>
</g>
<!-- Node12 -->
<g id="Node000012" class="node">
<title>Node12</title>
<g id="a_Node000012"><a xlink:href="covariance__matrix__intf_8h.html" target="_top" xlink:title=" ">
<polygon fill="white" stroke="#666666" points="603,-437 463,-437 463,-407 603,-407 603,-437"/>
<text text-anchor="start" x="471" y="-425" font-family="Helvetica,sans-Serif" font-size="10.00">math/linalg/contracts</text>
<text text-anchor="middle" x="533" y="-414" font-family="Helvetica,sans-Serif" font-size="10.00">/covariance_matrix_intf.h</text>
</a>
</g>
</g>
<!-- Node11&#45;&gt;Node12 -->
<g id="edge14_Node000011_Node000012" class="edge">
<title>Node11&#45;&gt;Node12</title>
<g id="a_edge14_Node000011_Node000012"><a xlink:title=" ">
<path fill="none" stroke="#63b8ff" d="M256.14,-474.96C311.86,-464.51 392.8,-449.31 452.79,-438.05"/>
<polygon fill="#63b8ff" stroke="#63b8ff" points="453.8,-441.43 462.98,-436.14 452.51,-434.55 453.8,-441.43"/>
</a>
</g>
</g>
<!-- Node27 -->
<g id="Node000027" class="node">
<title>Node27</title>
<g id="a_Node000027"><a xlink:title=" ">
<polygon fill="#e0e0e0" stroke="#999999" points="126,-431.5 66,-431.5 66,-412.5 126,-412.5 126,-431.5"/>
<text text-anchor="middle" x="96" y="-419.5" font-family="Helvetica,sans-Serif" font-size="10.00">iostream</text>
</a>
</g>
</g>
<!-- Node11&#45;&gt;Node27 -->
<g id="edge46_Node000011_Node000027" class="edge">
<title>Node11&#45;&gt;Node27</title>
<g id="a_edge46_Node000011_Node000027"><a xlink:title=" ">
<path fill="none" stroke="#63b8ff" d="M170.69,-472.8C154.9,-462.27 133.46,-447.97 117.6,-437.4"/>
<polygon fill="#63b8ff" stroke="#63b8ff" points="119.25,-434.29 108.99,-431.66 115.37,-440.12 119.25,-434.29"/>
</a>
</g>
</g>
<!-- Node12&#45;&gt;Node2 -->
<g id="edge15_Node000012_Node000002" class="edge">
<title>Node12&#45;&gt;Node2</title>
<g id="a_edge15_Node000012_Node000002"><a xlink:title=" ">
<path fill="none" stroke="#63b8ff" d="M462.68,-417.47C384.17,-409.3 268,-382.66 268,-296.5 268,-296.5 268,-296.5 268,-239.5 268,-203.49 258.98,-162.19 253.06,-138.94"/>
<polygon fill="#63b8ff" stroke="#63b8ff" points="256.39,-137.85 250.45,-129.08 249.62,-139.64 256.39,-137.85"/>
</a>
</g>
</g>
<!-- Node13 -->
<g id="Node000013" class="node">
<title>Node13</title>
<g id="a_Node000013"><a xlink:href="interface__contract_8h.html" target="_top" xlink:title=" ">
<polygon fill="white" stroke="#666666" points="1034,-129 894,-129 894,-110 1034,-110 1034,-129"/>
<text text-anchor="middle" x="964" y="-117" font-family="Helvetica,sans-Serif" font-size="10.00">base/interface_contract.h</text>
</a>
</g>
</g>
<!-- Node12&#45;&gt;Node13 -->
<g id="edge16_Node000012_Node000013" class="edge">
<title>Node12&#45;&gt;Node13</title>
<g id="a_edge16_Node000012_Node000013"><a xlink:title=" ">
<path fill="none" stroke="#63b8ff" d="M603.08,-420.56C757.61,-417.71 1114,-399.92 1114,-296.5 1114,-296.5 1114,-296.5 1114,-239.5 1114,-205.33 1118.21,-190.08 1095,-165 1079.86,-148.64 1058.49,-138.29 1037.39,-131.75"/>
<polygon fill="#63b8ff" stroke="#63b8ff" points="1038.31,-128.37 1027.74,-129 1036.4,-135.11 1038.31,-128.37"/>
</a>
</g>
</g>
<!-- Node15 -->
<g id="Node000015" class="node">
<title>Node15</title>
<g id="a_Node000015"><a xlink:href="require__copy__intf_8h.html" target="_top" xlink:title=" ">
<polygon fill="white" stroke="#666666" points="1188,-129 1052,-129 1052,-110 1188,-110 1188,-129"/>
<text text-anchor="middle" x="1120" y="-117" font-family="Helvetica,sans-Serif" font-size="10.00">base/require_copy_intf.h</text>
</a>
</g>
</g>
<!-- Node12&#45;&gt;Node15 -->
<g id="edge18_Node000012_Node000015" class="edge">
<title>Node12&#45;&gt;Node15</title>
<g id="a_edge18_Node000012_Node000015"><a xlink:title=" ">
<path fill="none" stroke="#63b8ff" d="M603.33,-419.64C729.19,-416.36 987.51,-405.52 1070,-371 1182.02,-324.12 1227.78,-305.1 1279,-195 1284.62,-182.91 1287.06,-175.62 1279,-165 1267.47,-149.8 1224.95,-138.38 1186.78,-130.91"/>
<polygon fill="#63b8ff" stroke="#63b8ff" points="1187.15,-127.42 1176.67,-129 1185.85,-134.3 1187.15,-127.42"/>
</a>
</g>
</g>
<!-- Node16 -->
<g id="Node000016" class="node">
<title>Node16</title>
<g id="a_Node000016"><a xlink:href="require__move__intf_8h.html" target="_top" xlink:title=" ">
<polygon fill="white" stroke="#666666" points="1346,-129 1206,-129 1206,-110 1346,-110 1346,-129"/>
<text text-anchor="middle" x="1276" y="-117" font-family="Helvetica,sans-Serif" font-size="10.00">base/require_move_intf.h</text>
</a>
</g>
</g>
<!-- Node12&#45;&gt;Node16 -->
<g id="edge20_Node000012_Node000016" class="edge">
<title>Node12&#45;&gt;Node16</title>
<g id="a_edge20_Node000012_Node000016"><a xlink:title=" ">
<path fill="none" stroke="#63b8ff" d="M603.01,-420.46C713.43,-418.39 934.24,-409.31 1117,-371 1217.62,-349.9 1336,-399.31 1336,-296.5 1336,-296.5 1336,-296.5 1336,-239.5 1336,-199.24 1308.27,-158.72 1290.52,-136.91"/>
<polygon fill="#63b8ff" stroke="#63b8ff" points="1292.97,-134.39 1283.84,-129 1287.62,-138.9 1292.97,-134.39"/>
</a>
</g>
</g>
<!-- Node17 -->
<g id="Node000017" class="node">
<title>Node17</title>
<g id="a_Node000017"><a xlink:href="square__matrix_8h.html" target="_top" xlink:title=" ">
<polygon fill="white" stroke="#666666" points="538,-371 430,-371 430,-341 538,-341 538,-371"/>
<text text-anchor="start" x="438" y="-359" font-family="Helvetica,sans-Serif" font-size="10.00">math/linalg/square</text>
<text text-anchor="middle" x="484" y="-348" font-family="Helvetica,sans-Serif" font-size="10.00">_matrix.h</text>
</a>
</g>
</g>
<!-- Node12&#45;&gt;Node17 -->
<g id="edge22_Node000012_Node000017" class="edge">
<title>Node12&#45;&gt;Node17</title>
<g id="a_edge22_Node000012_Node000017"><a xlink:title=" ">
<path fill="none" stroke="#63b8ff" d="M522.13,-406.8C515.91,-398.68 507.98,-388.31 500.96,-379.15"/>
<polygon fill="#63b8ff" stroke="#63b8ff" points="503.7,-376.98 494.84,-371.16 498.14,-381.23 503.7,-376.98"/>
</a>
</g>
</g>
<!-- Node14 -->
<g id="Node000014" class="node">
<title>Node14</title>
<g id="a_Node000014"><a xlink:title=" ">
<polygon fill="#e0e0e0" stroke="#999999" points="1154.5,-74 1085.5,-74 1085.5,-55 1154.5,-55 1154.5,-74"/>
<text text-anchor="middle" x="1120" y="-62" font-family="Helvetica,sans-Serif" font-size="10.00">type_traits</text>
</a>
</g>
</g>
<!-- Node13&#45;&gt;Node14 -->
<g id="edge17_Node000013_Node000014" class="edge">
<title>Node13&#45;&gt;Node14</title>
<g id="a_edge17_Node000013_Node000014"><a xlink:title=" ">
<path fill="none" stroke="#63b8ff" d="M989.06,-109.98C1015.03,-101.16 1055.81,-87.31 1084.96,-77.41"/>
<polygon fill="#63b8ff" stroke="#63b8ff" points="1086.4,-80.61 1094.74,-74.08 1084.15,-73.99 1086.4,-80.61"/>
</a>
</g>
</g>
<!-- Node15&#45;&gt;Node14 -->
<g id="edge19_Node000015_Node000014" class="edge">
<title>Node15&#45;&gt;Node14</title>
<g id="a_edge19_Node000015_Node000014"><a xlink:title=" ">
<path fill="none" stroke="#63b8ff" d="M1120,-109.75C1120,-102.8 1120,-92.85 1120,-84.13"/>
<polygon fill="#63b8ff" stroke="#63b8ff" points="1123.5,-84.09 1120,-74.09 1116.5,-84.09 1123.5,-84.09"/>
</a>
</g>
</g>
<!-- Node16&#45;&gt;Node14 -->
<g id="edge21_Node000016_Node000014" class="edge">
<title>Node16&#45;&gt;Node14</title>
<g id="a_edge21_Node000016_Node000014"><a xlink:title=" ">
<path fill="none" stroke="#63b8ff" d="M1250.94,-109.98C1224.97,-101.16 1184.19,-87.31 1155.04,-77.41"/>
<polygon fill="#63b8ff" stroke="#63b8ff" points="1155.85,-73.99 1145.26,-74.08 1153.6,-80.61 1155.85,-73.99"/>
</a>
</g>
</g>
<!-- Node17&#45;&gt;Node2 -->
<g id="edge23_Node000017_Node000002" class="edge">
<title>Node17&#45;&gt;Node2</title>
<g id="a_edge23_Node000017_Node000002"><a xlink:title=" ">
<path fill="none" stroke="#63b8ff" d="M455.44,-340.82C439.61,-332 420.31,-319.58 406,-305 354.86,-252.87 371.57,-216.71 320,-165 307.23,-152.2 290.1,-141.42 275.76,-133.68"/>
<polygon fill="#63b8ff" stroke="#63b8ff" points="277.29,-130.54 266.8,-129.04 274.07,-136.75 277.29,-130.54"/>
</a>
</g>
</g>
<!-- Node17&#45;&gt;Node8 -->
<g id="edge43_Node000017_Node000008" class="edge">
<title>Node17&#45;&gt;Node8</title>
<g id="a_edge43_Node000017_Node000008"><a xlink:title=" ">
<path fill="none" stroke="#63b8ff" d="M469.48,-340.68C450.59,-320.47 420,-281.54 420,-241.5 420,-241.5 420,-241.5 420,-179 420,-143.48 436.94,-104.79 448.2,-83"/>
<polygon fill="#63b8ff" stroke="#63b8ff" points="451.39,-84.47 453.03,-74 445.22,-81.16 451.39,-84.47"/>
</a>
</g>
</g>
<!-- Node18 -->
<g id="Node000018" class="node">
<title>Node18</title>
<g id="a_Node000018"><a xlink:href="errors_8h.html" target="_top" xlink:title="Error types used throughout the math library.">
<polygon fill="white" stroke="#666666" points="628.5,-129 515.5,-129 515.5,-110 628.5,-110 628.5,-129"/>
<text text-anchor="middle" x="572" y="-117" font-family="Helvetica,sans-Serif" font-size="10.00">math/linalg/errors.h</text>
</a>
</g>
</g>
<!-- Node17&#45;&gt;Node18 -->
<g id="edge24_Node000017_Node000018" class="edge">
<title>Node17&#45;&gt;Node18</title>
<g id="a_edge24_Node000017_Node000018"><a xlink:title=" ">
<path fill="none" stroke="#63b8ff" d="M479.97,-340.75C476.61,-326.63 473.12,-304.48 478,-286 493.76,-226.33 536.57,-165.63 558.56,-137.17"/>
<polygon fill="#63b8ff" stroke="#63b8ff" points="561.47,-139.12 564.91,-129.1 555.97,-134.79 561.47,-139.12"/>
</a>
</g>
</g>
<!-- Node19 -->
<g id="Node000019" class="node">
<title>Node19</title>
<g id="a_Node000019"><a xlink:href="matrix_8h.html" target="_top" xlink:title=" ">
<polygon fill="white" stroke="#666666" points="739,-250 623,-250 623,-231 739,-231 739,-250"/>
<text text-anchor="middle" x="681" y="-238" font-family="Helvetica,sans-Serif" font-size="10.00">math/linalg/matrix.h</text>
</a>
</g>
</g>
<!-- Node17&#45;&gt;Node19 -->
<g id="edge25_Node000017_Node000019" class="edge">
<title>Node17&#45;&gt;Node19</title>
<g id="a_edge25_Node000017_Node000019"><a xlink:title=" ">
<path fill="none" stroke="#63b8ff" d="M538.12,-347.5C587.49,-339.5 655.34,-325.18 673,-305 683.62,-292.86 684.77,-274.06 683.77,-260.07"/>
<polygon fill="#63b8ff" stroke="#63b8ff" points="687.25,-259.64 682.65,-250.09 680.29,-260.42 687.25,-259.64"/>
</a>
</g>
</g>
<!-- Node17&#45;&gt;Node25 -->
<g id="edge39_Node000017_Node000025" class="edge">
<title>Node17&#45;&gt;Node25</title>
<g id="a_edge39_Node000017_Node000025"><a xlink:title=" ">
<path fill="none" stroke="#63b8ff" d="M513.46,-340.99C533.62,-331.4 560.14,-318.79 579.8,-309.44"/>
<polygon fill="#63b8ff" stroke="#63b8ff" points="581.31,-312.6 588.84,-305.14 578.3,-306.27 581.31,-312.6"/>
</a>
</g>
</g>
<!-- Node26 -->
<g id="Node000026" class="node">
<title>Node26</title>
<g id="a_Node000026"><a xlink:title=" ">
<polygon fill="#e0e0e0" stroke="#999999" points="531.5,-305 486.5,-305 486.5,-286 531.5,-286 531.5,-305"/>
<text text-anchor="middle" x="509" y="-293" font-family="Helvetica,sans-Serif" font-size="10.00">utility</text>
</a>
</g>
</g>
<!-- Node17&#45;&gt;Node26 -->
<g id="edge44_Node000017_Node000026" class="edge">
<title>Node17&#45;&gt;Node26</title>
<g id="a_edge44_Node000017_Node000026"><a xlink:title=" ">
<path fill="none" stroke="#63b8ff" d="M490.05,-340.84C493.42,-332.95 497.65,-323.05 501.26,-314.61"/>
<polygon fill="#63b8ff" stroke="#63b8ff" points="504.54,-315.84 505.25,-305.27 498.11,-313.09 504.54,-315.84"/>
</a>
</g>
</g>
<!-- Node19&#45;&gt;Node2 -->
<g id="edge26_Node000019_Node000002" class="edge">
<title>Node19&#45;&gt;Node2</title>
<g id="a_edge26_Node000019_Node000002"><a xlink:title=" ">
<path fill="none" stroke="#63b8ff" d="M649.86,-230.94C573.1,-209.85 374.84,-155.36 288.82,-131.72"/>
<polygon fill="#63b8ff" stroke="#63b8ff" points="289.72,-128.34 279.15,-129.06 287.86,-135.09 289.72,-128.34"/>
</a>
</g>
</g>
<!-- Node19&#45;&gt;Node8 -->
<g id="edge37_Node000019_Node000008" class="edge">
<title>Node19&#45;&gt;Node8</title>
<g id="a_edge37_Node000019_Node000008"><a xlink:title=" ">
<path fill="none" stroke="#63b8ff" d="M680.83,-230.74C679.9,-207.41 674,-143.29 638,-110 603.43,-78.03 549.6,-68.07 509.81,-65.4"/>
<polygon fill="#63b8ff" stroke="#63b8ff" points="509.93,-61.9 499.76,-64.86 509.56,-68.89 509.93,-61.9"/>
</a>
</g>
</g>
<!-- Node19&#45;&gt;Node18 -->
<g id="edge33_Node000019_Node000018" class="edge">
<title>Node19&#45;&gt;Node18</title>
<g id="a_edge33_Node000019_Node000018"><a xlink:title=" ">
<path fill="none" stroke="#63b8ff" d="M649.17,-230.88C629.99,-224.11 606.53,-212.8 592,-195 579.06,-179.15 574.44,-155.69 572.82,-139.35"/>
<polygon fill="#63b8ff" stroke="#63b8ff" points="576.31,-139.08 572.11,-129.35 569.33,-139.57 576.31,-139.08"/>
</a>
</g>
</g>
<!-- Node20 -->
<g id="Node000020" class="node">
<title>Node20</title>
<g id="a_Node000020"><a xlink:href="matrix__intf_8h.html" target="_top" xlink:title=" ">
<polygon fill="white" stroke="#666666" points="1086,-195 966,-195 966,-165 1086,-165 1086,-195"/>
<text text-anchor="start" x="974" y="-183" font-family="Helvetica,sans-Serif" font-size="10.00">math/linalg/contracts</text>
<text text-anchor="middle" x="1026" y="-172" font-family="Helvetica,sans-Serif" font-size="10.00">/matrix_intf.h</text>
</a>
</g>
</g>
<!-- Node19&#45;&gt;Node20 -->
<g id="edge27_Node000019_Node000020" class="edge">
<title>Node19&#45;&gt;Node20</title>
<g id="a_edge27_Node000019_Node000020"><a xlink:title=" ">
<path fill="none" stroke="#63b8ff" d="M738.2,-230.97C791.92,-222.8 874.77,-209.8 955.93,-195.15"/>
<polygon fill="#63b8ff" stroke="#63b8ff" points="956.6,-198.59 965.82,-193.36 955.35,-191.7 956.6,-198.59"/>
</a>
</g>
</g>
<!-- Node21 -->
<g id="Node000021" class="node">
<title>Node21</title>
<g id="a_Node000021"><a xlink:href="matrix__types_8h.html" target="_top" xlink:title="Type definitions and enumerations for matrix operations.">
<polygon fill="white" stroke="#666666" points="805.5,-195 698.5,-195 698.5,-165 805.5,-165 805.5,-195"/>
<text text-anchor="start" x="706.5" y="-183" font-family="Helvetica,sans-Serif" font-size="10.00">math/linalg/matrix</text>
<text text-anchor="middle" x="752" y="-172" font-family="Helvetica,sans-Serif" font-size="10.00">_types.h</text>
</a>
</g>
</g>
<!-- Node19&#45;&gt;Node21 -->
<g id="edge34_Node000019_Node000021" class="edge">
<title>Node19&#45;&gt;Node21</title>
<g id="a_edge34_Node000019_Node000021"><a xlink:title=" ">
<path fill="none" stroke="#63b8ff" d="M691.48,-230.87C700.75,-223.22 714.67,-211.76 726.82,-201.75"/>
<polygon fill="#63b8ff" stroke="#63b8ff" points="729.38,-204.17 734.87,-195.11 724.93,-198.77 729.38,-204.17"/>
</a>
</g>
</g>
<!-- Node22 -->
<g id="Node000022" class="node">
<title>Node22</title>
<g id="a_Node000022"><a xlink:title=" ">
<polygon fill="#e0e0e0" stroke="#999999" points="888,-189.5 824,-189.5 824,-170.5 888,-170.5 888,-189.5"/>
<text text-anchor="middle" x="856" y="-177.5" font-family="Helvetica,sans-Serif" font-size="10.00">algorithm</text>
</a>
</g>
</g>
<!-- Node19&#45;&gt;Node22 -->
<g id="edge35_Node000019_Node000022" class="edge">
<title>Node19&#45;&gt;Node22</title>
<g id="a_edge35_Node000019_Node000022"><a xlink:title=" ">
<path fill="none" stroke="#63b8ff" d="M706.96,-230.95C733.97,-222.04 777.48,-207.64 815,-195 817.09,-194.3 819.23,-193.57 821.39,-192.84"/>
<polygon fill="#63b8ff" stroke="#63b8ff" points="822.52,-196.15 830.86,-189.62 820.26,-189.53 822.52,-196.15"/>
</a>
</g>
</g>
<!-- Node23 -->
<g id="Node000023" class="node">
<title>Node23</title>
<g id="a_Node000023"><a xlink:title=" ">
<polygon fill="#e0e0e0" stroke="#999999" points="948,-189.5 906,-189.5 906,-170.5 948,-170.5 948,-189.5"/>
<text text-anchor="middle" x="927" y="-177.5" font-family="Helvetica,sans-Serif" font-size="10.00">array</text>
</a>
</g>
</g>
<!-- Node19&#45;&gt;Node23 -->
<g id="edge36_Node000019_Node000023" class="edge">
<title>Node19&#45;&gt;Node23</title>
<g id="a_edge36_Node000019_Node000023"><a xlink:title=" ">
<path fill="none" stroke="#63b8ff" d="M739.26,-231.28C783.29,-224.17 844.84,-212.28 897,-195 898.4,-194.54 899.82,-194.03 901.24,-193.48"/>
<polygon fill="#63b8ff" stroke="#63b8ff" points="902.63,-196.69 910.46,-189.56 899.89,-190.25 902.63,-196.69"/>
</a>
</g>
</g>
<!-- Node24 -->
<g id="Node000024" class="node">
<title>Node24</title>
<g id="a_Node000024"><a xlink:title=" ">
<polygon fill="#e0e0e0" stroke="#999999" points="641.5,-189.5 600.5,-189.5 600.5,-170.5 641.5,-170.5 641.5,-189.5"/>
<text text-anchor="middle" x="621" y="-177.5" font-family="Helvetica,sans-Serif" font-size="10.00">tuple</text>
</a>
</g>
</g>
<!-- Node19&#45;&gt;Node24 -->
<g id="edge38_Node000019_Node000024" class="edge">
<title>Node19&#45;&gt;Node24</title>
<g id="a_edge38_Node000019_Node000024"><a xlink:title=" ">
<path fill="none" stroke="#63b8ff" d="M672.15,-230.87C663.02,-221.97 648.58,-207.89 637.36,-196.95"/>
<polygon fill="#63b8ff" stroke="#63b8ff" points="639.49,-194.14 629.89,-189.67 634.61,-199.15 639.49,-194.14"/>
</a>
</g>
</g>
<!-- Node20&#45;&gt;Node2 -->
<g id="edge28_Node000020_Node000002" class="edge">
<title>Node20&#45;&gt;Node2</title>
<g id="a_edge28_Node000020_Node000002"><a xlink:title=" ">
<path fill="none" stroke="#63b8ff" d="M965.87,-166.29C962.88,-165.82 959.91,-165.38 957,-165 833.74,-148.71 464.87,-130.48 313.71,-123.47"/>
<polygon fill="#63b8ff" stroke="#63b8ff" points="313.79,-119.97 303.64,-123 313.46,-126.96 313.79,-119.97"/>
</a>
</g>
</g>
<!-- Node20&#45;&gt;Node13 -->
<g id="edge29_Node000020_Node000013" class="edge">
<title>Node20&#45;&gt;Node13</title>
<g id="a_edge29_Node000020_Node000013"><a xlink:title=" ">
<path fill="none" stroke="#63b8ff" d="M1010.99,-164.84C1001.81,-156.17 990.05,-145.08 980.59,-136.15"/>
<polygon fill="#63b8ff" stroke="#63b8ff" points="982.97,-133.58 973.29,-129.27 978.16,-138.67 982.97,-133.58"/>
</a>
</g>
</g>
<!-- Node20&#45;&gt;Node15 -->
<g id="edge30_Node000020_Node000015" class="edge">
<title>Node20&#45;&gt;Node15</title>
<g id="a_edge30_Node000020_Node000015"><a xlink:title=" ">
<path fill="none" stroke="#63b8ff" d="M1048.75,-164.84C1063.6,-155.6 1082.9,-143.59 1097.66,-134.4"/>
<polygon fill="#63b8ff" stroke="#63b8ff" points="1099.55,-137.35 1106.19,-129.09 1095.85,-131.41 1099.55,-137.35"/>
</a>
</g>
</g>
<!-- Node20&#45;&gt;Node16 -->
<g id="edge31_Node000020_Node000016" class="edge">
<title>Node20&#45;&gt;Node16</title>
<g id="a_edge31_Node000020_Node000016"><a xlink:title=" ">
<path fill="none" stroke="#63b8ff" d="M1085.88,-164.99C1129.96,-154.67 1189.03,-140.85 1229.56,-131.37"/>
<polygon fill="#63b8ff" stroke="#63b8ff" points="1230.51,-134.74 1239.45,-129.05 1228.91,-127.92 1230.51,-134.74"/>
</a>
</g>
</g>
<!-- Node20&#45;&gt;Node18 -->
<g id="edge32_Node000020_Node000018" class="edge">
<title>Node20&#45;&gt;Node18</title>
<g id="a_edge32_Node000020_Node000018"><a xlink:title=" ">
<path fill="none" stroke="#63b8ff" d="M965.84,-166.48C962.86,-165.96 959.9,-165.46 957,-165 845.87,-147.34 715.63,-133.76 638.67,-126.47"/>
<polygon fill="#63b8ff" stroke="#63b8ff" points="638.92,-122.98 628.64,-125.52 638.26,-129.95 638.92,-122.98"/>
</a>
</g>
</g>
<!-- Node25&#45;&gt;Node2 -->
<g id="edge40_Node000025_Node000002" class="edge">
<title>Node25&#45;&gt;Node2</title>
<g id="a_edge40_Node000025_Node000002"><a xlink:title=" ">
<path fill="none" stroke="#63b8ff" d="M576.03,-285.92C550.16,-278.19 512.68,-265.64 482,-250 422.47,-219.65 416.87,-196.6 358,-165 333.92,-152.07 305.25,-140.59 283.22,-132.53"/>
<polygon fill="#63b8ff" stroke="#63b8ff" points="284.2,-129.16 273.61,-129.07 281.83,-135.75 284.2,-129.16"/>
</a>
</g>
</g>
<!-- Node25&#45;&gt;Node8 -->
<g id="edge42_Node000025_Node000008" class="edge">
<title>Node25&#45;&gt;Node8</title>
<g id="a_edge42_Node000025_Node000008"><a xlink:title=" ">
<path fill="none" stroke="#63b8ff" d="M601.34,-285.8C579.31,-251.94 499,-128.51 469.21,-82.73"/>
<polygon fill="#63b8ff" stroke="#63b8ff" points="472.05,-80.68 463.66,-74.21 466.18,-84.5 472.05,-80.68"/>
</a>
</g>
</g>
<!-- Node25&#45;&gt;Node19 -->
<g id="edge41_Node000025_Node000019" class="edge">
<title>Node25&#45;&gt;Node19</title>
<g id="a_edge41_Node000025_Node000019"><a xlink:title=" ">
<path fill="none" stroke="#63b8ff" d="M618.89,-285.98C630.15,-277.92 647.29,-265.65 660.71,-256.03"/>
<polygon fill="#63b8ff" stroke="#63b8ff" points="662.8,-258.84 668.89,-250.17 658.73,-253.15 662.8,-258.84"/>
</a>
</g>
</g>
<!-- Node28&#45;&gt;Node2 -->
<g id="edge48_Node000028_Node000002" class="edge">
<title>Node28&#45;&gt;Node2</title>
<g id="a_edge48_Node000028_Node000002"><a xlink:title=" ">
<path fill="none" stroke="#63b8ff" d="M370.98,-474.54C310.83,-458.67 230,-424.75 230,-357 230,-357 230,-357 230,-294.5 230,-237.7 239.61,-171.02 244.78,-139.21"/>
<polygon fill="#63b8ff" stroke="#63b8ff" points="248.27,-139.6 246.47,-129.16 241.36,-138.44 248.27,-139.6"/>
</a>
</g>
</g>
<!-- Node28&#45;&gt;Node8 -->
<g id="edge51_Node000028_Node000008" class="edge">
<title>Node28&#45;&gt;Node8</title>
<g id="a_edge51_Node000028_Node000008"><a xlink:title=" ">
<path fill="none" stroke="#63b8ff" d="M499.15,-483.11C747.21,-465.98 1617.08,-385.41 1355,-110 1325.73,-79.24 696.53,-68.6 509.79,-66.12"/>
<polygon fill="#63b8ff" stroke="#63b8ff" points="509.73,-62.62 499.69,-65.99 509.64,-69.62 509.73,-62.62"/>
</a>
</g>
</g>
<!-- Node28&#45;&gt;Node12 -->
<g id="edge49_Node000028_Node000012" class="edge">
<title>Node28&#45;&gt;Node12</title>
<g id="a_edge49_Node000028_Node000012"><a xlink:title=" ">
<path fill="none" stroke="#63b8ff" d="M456.75,-472.8C470.33,-463.93 487.99,-452.39 502.9,-442.66"/>
<polygon fill="#63b8ff" stroke="#63b8ff" points="504.85,-445.56 511.31,-437.16 501.02,-439.7 504.85,-445.56"/>
</a>
</g>
</g>
<!-- Node28&#45;&gt;Node17 -->
<g id="edge50_Node000028_Node000017" class="edge">
<title>Node28&#45;&gt;Node17</title>
<g id="a_edge50_Node000028_Node000017"><a xlink:title=" ">
<path fill="none" stroke="#63b8ff" d="M437.03,-472.72C439.66,-456.4 445.01,-429.08 454,-407 457.81,-397.64 463.22,-387.97 468.39,-379.66"/>
<polygon fill="#63b8ff" stroke="#63b8ff" points="471.34,-381.55 473.83,-371.25 465.46,-377.75 471.34,-381.55"/>
</a>
</g>
</g>
<!-- Node29&#45;&gt;Node2 -->
<g id="edge55_Node000029_Node000002" class="edge">
<title>Node29&#45;&gt;Node2</title>
<g id="a_edge55_Node000029_Node000002"><a xlink:title=" ">
<path fill="none" stroke="#63b8ff" d="M1142.4,-170.17C1126.91,-168.24 1110.38,-166.37 1095,-165 804.53,-139.09 456.58,-126.63 313.92,-122.33"/>
<polygon fill="#63b8ff" stroke="#63b8ff" points="313.7,-118.82 303.6,-122.02 313.49,-125.81 313.7,-118.82"/>
</a>
</g>
</g>
<!-- Node29&#45;&gt;Node13 -->
<g id="edge56_Node000029_Node000013" class="edge">
<title>Node29&#45;&gt;Node13</title>
<g id="a_edge56_Node000029_Node000013"><a xlink:title=" ">
<path fill="none" stroke="#63b8ff" d="M1148.03,-164.99C1105.46,-154.7 1048.43,-140.91 1009.2,-131.43"/>
<polygon fill="#63b8ff" stroke="#63b8ff" points="1009.93,-128 999.38,-129.05 1008.28,-134.81 1009.93,-128"/>
</a>
</g>
</g>
<!-- Node29&#45;&gt;Node15 -->
<g id="edge57_Node000029_Node000015" class="edge">
<title>Node29&#45;&gt;Node15</title>
<g id="a_edge57_Node000029_Node000015"><a xlink:title=" ">
<path fill="none" stroke="#63b8ff" d="M1185.18,-164.84C1171.85,-155.77 1154.61,-144.04 1141.21,-134.92"/>
<polygon fill="#63b8ff" stroke="#63b8ff" points="1142.87,-131.83 1132.63,-129.09 1138.93,-137.61 1142.87,-131.83"/>
</a>
</g>
</g>
<!-- Node29&#45;&gt;Node16 -->
<g id="edge58_Node000029_Node000016" class="edge">
<title>Node29&#45;&gt;Node16</title>
<g id="a_edge58_Node000029_Node000016"><a xlink:title=" ">
<path fill="none" stroke="#63b8ff" d="M1222.95,-164.84C1233.42,-156.09 1246.86,-144.85 1257.59,-135.88"/>
<polygon fill="#63b8ff" stroke="#63b8ff" points="1260.08,-138.36 1265.51,-129.27 1255.59,-132.99 1260.08,-138.36"/>
</a>
</g>
</g>
</g>
</svg>
