<?xml version="1.0" encoding="UTF-8" standalone="no"?>
<!DOCTYPE svg PUBLIC "-//W3C//DTD SVG 1.1//EN"
 "http://www.w3.org/Graphics/SVG/1.1/DTD/svg11.dtd">
<!-- Generated by graphviz version 2.43.0 (0)
 -->
<!-- Title: tracking::math::FullCovarianceMatrixPolicy&lt; ValueType_ &gt; Pages: 1 -->
<svg width="168pt" height="164pt"
 viewBox="0.00 0.00 168.00 164.00" xmlns="http://www.w3.org/2000/svg" xmlns:xlink="http://www.w3.org/1999/xlink">

<svg id="main" version="1.1" xmlns="http://www.w3.org/2000/svg" xmlns:xlink="http://www.w3.org/1999/xlink" xml:space="preserve" onload="init(evt)">
<style type="text/css"><![CDATA[
.node, .edge {opacity: 0.7;}
.node.selected, .edge.selected {opacity: 1;}
.edge:hover path { stroke: red; }
.edge:hover polygon { stroke: red; fill: red; }
]]></style>
<script type="application/ecmascript" xlink:href="svg.min.js"/>
<svg id="graph" class="graph">
<g id="graph0" class="graph" transform="scale(1 1) rotate(0) translate(4 160)">
<title>tracking::math::FullCovarianceMatrixPolicy&lt; ValueType_ &gt;</title>
<!-- Node1 -->
<g id="Node000001" class="node">
<title>Node1</title>
<g id="a_Node000001"><a xlink:title="Policy for using full covariance matrix representation.">
<polygon fill="#999999" stroke="transparent" points="160,-60 0,-60 0,0 160,0 160,-60"/>
<text text-anchor="start" x="5" y="-48" font-family="Helvetica,sans-Serif" font-size="10.00">tracking::math::FullCovariance</text>
<text text-anchor="start" x="10.5" y="-37" font-family="Helvetica,sans-Serif" font-size="10.00">MatrixPolicy&lt; ValueType_ &gt;</text>
<text text-anchor="start" x="25" y="-22" font-family="Helvetica,sans-Serif" font-size="10.00">+</text>
<text text-anchor="start" x="59" y="-22" font-family="Helvetica,sans-Serif" font-size="10.00">is_factored</text>
<text text-anchor="start" x="78" y="-7" font-family="Helvetica,sans-Serif" font-size="10.00"> </text>
<polygon fill="#666666" stroke="#666666" points="0,-32 0,-32 160,-32 160,-32 0,-32"/>
<polygon fill="#666666" stroke="#666666" points="0,-17 0,-17 57,-17 57,-17 0,-17"/>
<polygon fill="#666666" stroke="#666666" points="57,-17 57,-17 160,-17 160,-17 57,-17"/>
<polygon fill="none" stroke="#666666" points="0,0 0,-60 160,-60 160,0 0,0"/>
</a>
</g>
</g>
<!-- Node2 -->
<g id="Node000002" class="node">
<title>Node2</title>
<g id="a_Node000002"><a xlink:href="structtracking_1_1math_1_1CovarianceMatrixPolicyBase.html" target="_top" xlink:title="Base class for covariance matrix policy types.">
<polygon fill="white" stroke="transparent" points="151.5,-156 8.5,-156 8.5,-96 151.5,-96 151.5,-156"/>
<text text-anchor="start" x="14" y="-144" font-family="Helvetica,sans-Serif" font-size="10.00">tracking::math::Covariance</text>
<text text-anchor="start" x="38" y="-133" font-family="Helvetica,sans-Serif" font-size="10.00">MatrixPolicyBase</text>
<text text-anchor="start" x="78.5" y="-118" font-family="Helvetica,sans-Serif" font-size="10.00"> </text>
<text text-anchor="start" x="78.5" y="-103" font-family="Helvetica,sans-Serif" font-size="10.00"> </text>
<polygon fill="#666666" stroke="#666666" points="9,-128 9,-128 152,-128 152,-128 9,-128"/>
<polygon fill="#666666" stroke="#666666" points="9,-113 9,-113 152,-113 152,-113 9,-113"/>
<polygon fill="none" stroke="#666666" points="8.5,-96 8.5,-156 151.5,-156 151.5,-96 8.5,-96"/>
</a>
</g>
</g>
<!-- Node2&#45;&gt;Node1 -->
<g id="edge1_Node000001_Node000002" class="edge">
<title>Node2&#45;&gt;Node1</title>
<g id="a_edge1_Node000001_Node000002"><a xlink:title=" ">
<path fill="none" stroke="#63b8ff" d="M80,-85.63C80,-77.11 80,-68.25 80,-60.21"/>
<polygon fill="none" stroke="#63b8ff" points="76.5,-85.77 80,-95.77 83.5,-85.77 76.5,-85.77"/>
</a>
</g>
</g>
</g>
</svg>
</svg>

<style type='text/css'>
<![CDATA[
[data-mouse-over-selected='false'] { opacity: 0.7; }
[data-mouse-over-selected='true']  { opacity: 1.0; }
]]>
</style>
<script type="application/ecmascript"><![CDATA[
document.addEventListener('DOMContentLoaded', (event) => {
  highlightEdges();
  highlightAdjacentNodes();
});
]]></script>
</svg>
