<?xml version="1.0" encoding="UTF-8" standalone="no"?>
<!DOCTYPE svg PUBLIC "-//W3C//DTD SVG 1.1//EN"
 "http://www.w3.org/Graphics/SVG/1.1/DTD/svg11.dtd">
<!-- Generated by graphviz version 2.43.0 (0)
 -->
<!-- Title: tracking::math::contract::MatrixIntf&lt; ImplType &gt; Pages: 1 -->
<!--zoomable 959 -->

<svg id="main" version="1.1" xmlns="http://www.w3.org/2000/svg" xmlns:xlink="http://www.w3.org/1999/xlink" xml:space="preserve" onload="init(evt)">
<style type="text/css"><![CDATA[
.node, .edge {opacity: 0.7;}
.node.selected, .edge.selected {opacity: 1;}
.edge:hover path { stroke: red; }
.edge:hover polygon { stroke: red; fill: red; }
]]></style>

<defs>
  <circle id="rim" cx="0" cy="0" r="7"/>
  <circle id="rim2" cx="0" cy="0" r="3.5"/>
  <g id="zoomPlus">
    <use xlink:href="#rim" fill="#404040"><set attributeName="fill" to="#808080" begin="zoomplus.mouseover" end="zoomplus.mouseout"/></use>
    <path d="M-4,0h8M0,-4v8" fill="none" stroke="white" stroke-width="1.5" pointer-events="none"/>
  </g>
  <g id="zoomMin">
    <use xlink:href="#rim" fill="#404040"><set attributeName="fill" to="#808080" begin="zoomminus.mouseover" end="zoomminus.mouseout"/></use>
    <path d="M-4,0h8" fill="none" stroke="white" stroke-width="1.5" pointer-events="none"/>
  </g>
  <g id="arrowUp" transform="translate(30 24)">
    <use xlink:href="#rim"/>
    <path pointer-events="none" fill="none" stroke="white" stroke-width="1.5" d="M0,-3.0v7 M-2.5,-0.5L0,-3.0L2.5,-0.5"/>
  </g>
  <g id="arrowRight" transform="rotate(90) translate(36 -43)">
    <use xlink:href="#rim"/>
    <path pointer-events="none" fill="none" stroke="white" stroke-width="1.5" d="M0,-3.0v7 M-2.5,-0.5L0,-3.0L2.5,-0.5"/>
  </g>
  <g id="arrowDown" transform="rotate(180) translate(-30 -48)">
    <use xlink:href="#rim"/>
    <path pointer-events="none" fill="none" stroke="white" stroke-width="1.5" d="M0,-3.0v7 M-2.5,-0.5L0,-3.0L2.5,-0.5"/>
  </g>
  <g id="arrowLeft" transform="rotate(270) translate(-36 17)">
    <use xlink:href="#rim"/>
    <path pointer-events="none" fill="none" stroke="white" stroke-width="1.5" d="M0,-3.0v7 M-2.5,-0.5L0,-3.0L2.5,-0.5"/>
  </g>
  <g id="resetDef">
    <use xlink:href="#rim2" fill="#404040"><set attributeName="fill" to="#808080" begin="reset.mouseover" end="reset.mouseout"/></use>
  </g>
</defs>
<script type="application/ecmascript">
var viewWidth = 561;
var viewHeight = 959;
var sectionId = 'dynsection-0';
</script>
<script type="application/ecmascript" xlink:href="svg.min.js"/>
<svg id="graph" class="graph">
<g id="viewport">
<title>tracking::math::contract::MatrixIntf&lt; ImplType &gt;</title>
<!-- Node1 -->
<g id="Node000001" class="node">
<title>Node1</title>
<g id="a_Node000001"><a xlink:title=" ">
<polygon fill="#999999" stroke="transparent" points="236.5,-855 105.5,-855 105.5,-795 236.5,-795 236.5,-855"/>
<text text-anchor="start" x="111" y="-843" font-family="Helvetica,sans-Serif" font-size="10.00">tracking::math::contract</text>
<text text-anchor="start" x="111" y="-832" font-family="Helvetica,sans-Serif" font-size="10.00">::MatrixIntf&lt; ImplType &gt;</text>
<text text-anchor="start" x="169.5" y="-817" font-family="Helvetica,sans-Serif" font-size="10.00"> </text>
<text text-anchor="start" x="123.5" y="-802" font-family="Helvetica,sans-Serif" font-size="10.00">+</text>
<text text-anchor="start" x="150" y="-802" font-family="Helvetica,sans-Serif" font-size="10.00">MatrixIntf()</text>
<polygon fill="#666666" stroke="#666666" points="106,-827 106,-827 237,-827 237,-827 106,-827"/>
<polygon fill="#666666" stroke="#666666" points="106,-812 106,-812 237,-812 237,-812 106,-812"/>
<polygon fill="none" stroke="#666666" points="105.5,-795 105.5,-855 236.5,-855 236.5,-795 105.5,-795"/>
</a>
</g>
</g>
<!-- Node4 -->
<g id="Node000004" class="node">
<title>Node4</title>
<g id="a_Node000004"><a xlink:href="classtracking_1_1math_1_1Matrix.html" target="_top" xlink:title=" ">
<polygon fill="white" stroke="transparent" points="161.5,-759 22.5,-759 22.5,-336 161.5,-336 161.5,-759"/>
<text text-anchor="start" x="36.5" y="-746.5" font-family="Helvetica,sans-Serif" font-size="10.00">tracking::math::Matrix</text>
<text text-anchor="start" x="36.5" y="-735.5" font-family="Helvetica,sans-Serif" font-size="10.00">&lt; value_type, Size_, 1,</text>
<text text-anchor="start" x="75.5" y="-724.5" font-family="Helvetica,sans-Serif" font-size="10.00"> true &gt;</text>
<text text-anchor="start" x="27" y="-709.5" font-family="Helvetica,sans-Serif" font-size="10.00">+</text>
<text text-anchor="start" x="40" y="-709.5" font-family="Helvetica,sans-Serif" font-size="10.00">Rows</text>
<text text-anchor="start" x="27" y="-694.5" font-family="Helvetica,sans-Serif" font-size="10.00">+</text>
<text text-anchor="start" x="40" y="-694.5" font-family="Helvetica,sans-Serif" font-size="10.00">Cols</text>
<text text-anchor="start" x="27" y="-679.5" font-family="Helvetica,sans-Serif" font-size="10.00">+</text>
<text text-anchor="start" x="40" y="-679.5" font-family="Helvetica,sans-Serif" font-size="10.00">IsRowMajor</text>
<text text-anchor="start" x="27" y="-664.5" font-family="Helvetica,sans-Serif" font-size="10.00">#</text>
<text text-anchor="start" x="40" y="-664.5" font-family="Helvetica,sans-Serif" font-size="10.00">RowsInMem</text>
<text text-anchor="start" x="27" y="-649.5" font-family="Helvetica,sans-Serif" font-size="10.00">#</text>
<text text-anchor="start" x="40" y="-649.5" font-family="Helvetica,sans-Serif" font-size="10.00">ColsInMem</text>
<text text-anchor="start" x="29.5" y="-634.5" font-family="Helvetica,sans-Serif" font-size="10.00">&#45;</text>
<text text-anchor="start" x="40" y="-634.5" font-family="Helvetica,sans-Serif" font-size="10.00">_data</text>
<text text-anchor="start" x="27" y="-619.5" font-family="Helvetica,sans-Serif" font-size="10.00">+</text>
<text text-anchor="start" x="40" y="-619.5" font-family="Helvetica,sans-Serif" font-size="10.00">Matrix()</text>
<text text-anchor="start" x="27" y="-604.5" font-family="Helvetica,sans-Serif" font-size="10.00">+</text>
<text text-anchor="start" x="40" y="-604.5" font-family="Helvetica,sans-Serif" font-size="10.00">Matrix()</text>
<text text-anchor="start" x="27" y="-589.5" font-family="Helvetica,sans-Serif" font-size="10.00">+</text>
<text text-anchor="start" x="40" y="-589.5" font-family="Helvetica,sans-Serif" font-size="10.00">Matrix()</text>
<text text-anchor="start" x="27" y="-574.5" font-family="Helvetica,sans-Serif" font-size="10.00">+</text>
<text text-anchor="start" x="40" y="-574.5" font-family="Helvetica,sans-Serif" font-size="10.00">operator=()</text>
<text text-anchor="start" x="27" y="-559.5" font-family="Helvetica,sans-Serif" font-size="10.00">+</text>
<text text-anchor="start" x="40" y="-559.5" font-family="Helvetica,sans-Serif" font-size="10.00">operator=()</text>
<text text-anchor="start" x="27" y="-544.5" font-family="Helvetica,sans-Serif" font-size="10.00">+</text>
<text text-anchor="start" x="40" y="-544.5" font-family="Helvetica,sans-Serif" font-size="10.00">~Matrix()</text>
<text text-anchor="start" x="27" y="-529.5" font-family="Helvetica,sans-Serif" font-size="10.00">+</text>
<text text-anchor="start" x="40" y="-529.5" font-family="Helvetica,sans-Serif" font-size="10.00">operator()()</text>
<text text-anchor="start" x="27" y="-514.5" font-family="Helvetica,sans-Serif" font-size="10.00">+</text>
<text text-anchor="start" x="40" y="-514.5" font-family="Helvetica,sans-Serif" font-size="10.00">operator()()</text>
<text text-anchor="start" x="27" y="-499.5" font-family="Helvetica,sans-Serif" font-size="10.00">+</text>
<text text-anchor="start" x="40" y="-499.5" font-family="Helvetica,sans-Serif" font-size="10.00">operator==()</text>
<text text-anchor="start" x="27" y="-484.5" font-family="Helvetica,sans-Serif" font-size="10.00">+</text>
<text text-anchor="start" x="40" y="-484.5" font-family="Helvetica,sans-Serif" font-size="10.00">operator!=()</text>
<text text-anchor="start" x="40" y="-469.5" font-family="Helvetica,sans-Serif" font-size="10.00">and 27 more...</text>
<text text-anchor="start" x="27" y="-454.5" font-family="Helvetica,sans-Serif" font-size="10.00">+</text>
<text text-anchor="start" x="40" y="-454.5" font-family="Helvetica,sans-Serif" font-size="10.00">Zeros()</text>
<text text-anchor="start" x="27" y="-439.5" font-family="Helvetica,sans-Serif" font-size="10.00">+</text>
<text text-anchor="start" x="40" y="-439.5" font-family="Helvetica,sans-Serif" font-size="10.00">Ones()</text>
<text text-anchor="start" x="27" y="-424.5" font-family="Helvetica,sans-Serif" font-size="10.00">+</text>
<text text-anchor="start" x="40" y="-424.5" font-family="Helvetica,sans-Serif" font-size="10.00">FromList()</text>
<text text-anchor="start" x="27" y="-409.5" font-family="Helvetica,sans-Serif" font-size="10.00">#</text>
<text text-anchor="start" x="40" y="-409.5" font-family="Helvetica,sans-Serif" font-size="10.00">data()</text>
<text text-anchor="start" x="27" y="-394.5" font-family="Helvetica,sans-Serif" font-size="10.00">#</text>
<text text-anchor="start" x="40" y="-394.5" font-family="Helvetica,sans-Serif" font-size="10.00">data()</text>
<text text-anchor="start" x="29.5" y="-379.5" font-family="Helvetica,sans-Serif" font-size="10.00">&#45;</text>
<text text-anchor="start" x="40" y="-379.5" font-family="Helvetica,sans-Serif" font-size="10.00">inplace_div_by_int</text>
<text text-anchor="start" x="40" y="-368.5" font-family="Helvetica,sans-Serif" font-size="10.00">_unsafe()</text>
<text text-anchor="start" x="29.5" y="-353.5" font-family="Helvetica,sans-Serif" font-size="10.00">&#45;</text>
<text text-anchor="start" x="40" y="-353.5" font-family="Helvetica,sans-Serif" font-size="10.00">inplace_mul_by_inverse</text>
<text text-anchor="start" x="40" y="-342.5" font-family="Helvetica,sans-Serif" font-size="10.00">_factor_unsafe()</text>
<polygon fill="#666666" stroke="#666666" points="23,-719.5 23,-719.5 162,-719.5 162,-719.5 23,-719.5"/>
<polygon fill="#666666" stroke="#666666" points="23,-629.5 23,-629.5 38,-629.5 38,-629.5 23,-629.5"/>
<polygon fill="#666666" stroke="#666666" points="38,-629.5 38,-629.5 162,-629.5 162,-629.5 38,-629.5"/>
<polygon fill="none" stroke="#666666" points="22.5,-336 22.5,-759 161.5,-759 161.5,-336 22.5,-336"/>
</a>
</g>
</g>
<!-- Node1&#45;&gt;Node4 -->
<g id="edge3_Node000001_Node000004" class="edge">
<title>Node1&#45;&gt;Node4</title>
<g id="a_edge3_Node000001_Node000004"><a xlink:title=" ">
<path fill="none" stroke="#63b8ff" d="M159.83,-785.04C157.59,-777.22 155.09,-768.51 152.41,-759.17"/>
<polygon fill="none" stroke="#63b8ff" points="156.5,-786.13 162.62,-794.78 163.23,-784.2 156.5,-786.13"/>
</a>
</g>
</g>
<!-- Node5 -->
<g id="Node000005" class="node">
<title>Node5</title>
<g id="a_Node000005"><a xlink:href="classtracking_1_1math_1_1Matrix.html" target="_top" xlink:title="Compliant to AUTOSAR C++14, A8&#45;4&#45;8: Output parameters shall not be used, making use of RVO and NRVO.">
<polygon fill="white" stroke="transparent" points="320.5,-759 179.5,-759 179.5,-336 320.5,-336 320.5,-759"/>
<text text-anchor="start" x="185" y="-746.5" font-family="Helvetica,sans-Serif" font-size="10.00">tracking::math::Matrix</text>
<text text-anchor="start" x="185" y="-735.5" font-family="Helvetica,sans-Serif" font-size="10.00">&lt; ValueType_, Rows_, Cols</text>
<text text-anchor="start" x="208" y="-724.5" font-family="Helvetica,sans-Serif" font-size="10.00">_, IsRowMajor_ &gt;</text>
<text text-anchor="start" x="184.5" y="-709.5" font-family="Helvetica,sans-Serif" font-size="10.00">+</text>
<text text-anchor="start" x="198" y="-709.5" font-family="Helvetica,sans-Serif" font-size="10.00">Rows</text>
<text text-anchor="start" x="184.5" y="-694.5" font-family="Helvetica,sans-Serif" font-size="10.00">+</text>
<text text-anchor="start" x="198" y="-694.5" font-family="Helvetica,sans-Serif" font-size="10.00">Cols</text>
<text text-anchor="start" x="184.5" y="-679.5" font-family="Helvetica,sans-Serif" font-size="10.00">+</text>
<text text-anchor="start" x="198" y="-679.5" font-family="Helvetica,sans-Serif" font-size="10.00">IsRowMajor</text>
<text text-anchor="start" x="184.5" y="-664.5" font-family="Helvetica,sans-Serif" font-size="10.00">#</text>
<text text-anchor="start" x="198" y="-664.5" font-family="Helvetica,sans-Serif" font-size="10.00">RowsInMem</text>
<text text-anchor="start" x="184.5" y="-649.5" font-family="Helvetica,sans-Serif" font-size="10.00">#</text>
<text text-anchor="start" x="198" y="-649.5" font-family="Helvetica,sans-Serif" font-size="10.00">ColsInMem</text>
<text text-anchor="start" x="187" y="-634.5" font-family="Helvetica,sans-Serif" font-size="10.00">&#45;</text>
<text text-anchor="start" x="198" y="-634.5" font-family="Helvetica,sans-Serif" font-size="10.00">_data</text>
<text text-anchor="start" x="184.5" y="-619.5" font-family="Helvetica,sans-Serif" font-size="10.00">+</text>
<text text-anchor="start" x="198" y="-619.5" font-family="Helvetica,sans-Serif" font-size="10.00">Matrix()</text>
<text text-anchor="start" x="184.5" y="-604.5" font-family="Helvetica,sans-Serif" font-size="10.00">+</text>
<text text-anchor="start" x="198" y="-604.5" font-family="Helvetica,sans-Serif" font-size="10.00">Matrix()</text>
<text text-anchor="start" x="184.5" y="-589.5" font-family="Helvetica,sans-Serif" font-size="10.00">+</text>
<text text-anchor="start" x="198" y="-589.5" font-family="Helvetica,sans-Serif" font-size="10.00">Matrix()</text>
<text text-anchor="start" x="184.5" y="-574.5" font-family="Helvetica,sans-Serif" font-size="10.00">+</text>
<text text-anchor="start" x="198" y="-574.5" font-family="Helvetica,sans-Serif" font-size="10.00">operator=()</text>
<text text-anchor="start" x="184.5" y="-559.5" font-family="Helvetica,sans-Serif" font-size="10.00">+</text>
<text text-anchor="start" x="198" y="-559.5" font-family="Helvetica,sans-Serif" font-size="10.00">operator=()</text>
<text text-anchor="start" x="184.5" y="-544.5" font-family="Helvetica,sans-Serif" font-size="10.00">+</text>
<text text-anchor="start" x="198" y="-544.5" font-family="Helvetica,sans-Serif" font-size="10.00">~Matrix()</text>
<text text-anchor="start" x="184.5" y="-529.5" font-family="Helvetica,sans-Serif" font-size="10.00">+</text>
<text text-anchor="start" x="198" y="-529.5" font-family="Helvetica,sans-Serif" font-size="10.00">operator()()</text>
<text text-anchor="start" x="184.5" y="-514.5" font-family="Helvetica,sans-Serif" font-size="10.00">+</text>
<text text-anchor="start" x="198" y="-514.5" font-family="Helvetica,sans-Serif" font-size="10.00">operator()()</text>
<text text-anchor="start" x="184.5" y="-499.5" font-family="Helvetica,sans-Serif" font-size="10.00">+</text>
<text text-anchor="start" x="198" y="-499.5" font-family="Helvetica,sans-Serif" font-size="10.00">operator==()</text>
<text text-anchor="start" x="184.5" y="-484.5" font-family="Helvetica,sans-Serif" font-size="10.00">+</text>
<text text-anchor="start" x="198" y="-484.5" font-family="Helvetica,sans-Serif" font-size="10.00">operator!=()</text>
<text text-anchor="start" x="198" y="-469.5" font-family="Helvetica,sans-Serif" font-size="10.00">and 27 more...</text>
<text text-anchor="start" x="184.5" y="-454.5" font-family="Helvetica,sans-Serif" font-size="10.00">+</text>
<text text-anchor="start" x="198" y="-454.5" font-family="Helvetica,sans-Serif" font-size="10.00">Zeros()</text>
<text text-anchor="start" x="184.5" y="-439.5" font-family="Helvetica,sans-Serif" font-size="10.00">+</text>
<text text-anchor="start" x="198" y="-439.5" font-family="Helvetica,sans-Serif" font-size="10.00">Ones()</text>
<text text-anchor="start" x="184.5" y="-424.5" font-family="Helvetica,sans-Serif" font-size="10.00">+</text>
<text text-anchor="start" x="198" y="-424.5" font-family="Helvetica,sans-Serif" font-size="10.00">FromList()</text>
<text text-anchor="start" x="184.5" y="-409.5" font-family="Helvetica,sans-Serif" font-size="10.00">#</text>
<text text-anchor="start" x="198" y="-409.5" font-family="Helvetica,sans-Serif" font-size="10.00">data()</text>
<text text-anchor="start" x="184.5" y="-394.5" font-family="Helvetica,sans-Serif" font-size="10.00">#</text>
<text text-anchor="start" x="198" y="-394.5" font-family="Helvetica,sans-Serif" font-size="10.00">data()</text>
<text text-anchor="start" x="187" y="-379.5" font-family="Helvetica,sans-Serif" font-size="10.00">&#45;</text>
<text text-anchor="start" x="198" y="-379.5" font-family="Helvetica,sans-Serif" font-size="10.00">inplace_div_by_int</text>
<text text-anchor="start" x="198" y="-368.5" font-family="Helvetica,sans-Serif" font-size="10.00">_unsafe()</text>
<text text-anchor="start" x="187" y="-353.5" font-family="Helvetica,sans-Serif" font-size="10.00">&#45;</text>
<text text-anchor="start" x="198" y="-353.5" font-family="Helvetica,sans-Serif" font-size="10.00">inplace_mul_by_inverse</text>
<text text-anchor="start" x="198" y="-342.5" font-family="Helvetica,sans-Serif" font-size="10.00">_factor_unsafe()</text>
<polygon fill="#666666" stroke="#666666" points="180,-719.5 180,-719.5 321,-719.5 321,-719.5 180,-719.5"/>
<polygon fill="#666666" stroke="#666666" points="180,-629.5 180,-629.5 196,-629.5 196,-629.5 180,-629.5"/>
<polygon fill="#666666" stroke="#666666" points="196,-629.5 196,-629.5 321,-629.5 321,-629.5 196,-629.5"/>
<polygon fill="none" stroke="#666666" points="179.5,-336 179.5,-759 320.5,-759 320.5,-336 179.5,-336"/>
</a>
</g>
</g>
<!-- Node1&#45;&gt;Node5 -->
<g id="edge4_Node000001_Node000005" class="edge">
<title>Node1&#45;&gt;Node5</title>
<g id="a_edge4_Node000001_Node000005"><a xlink:title=" ">
<path fill="none" stroke="#63b8ff" d="M182.17,-785.04C184.41,-777.22 186.91,-768.51 189.59,-759.17"/>
<polygon fill="none" stroke="#63b8ff" points="178.77,-784.2 179.38,-794.78 185.5,-786.13 178.77,-784.2"/>
</a>
</g>
</g>
<!-- Node2 -->
<g id="Node000002" class="node">
<title>Node2</title>
<g id="a_Node000002"><a xlink:href="classtracking_1_1base_1_1contract_1_1RequireCopyIntf.html" target="_top" xlink:title=" ">
<polygon fill="white" stroke="transparent" points="162,-951 0,-951 0,-891 162,-891 162,-951"/>
<text text-anchor="start" x="5" y="-939" font-family="Helvetica,sans-Serif" font-size="10.00">tracking::base::contract</text>
<text text-anchor="start" x="5" y="-928" font-family="Helvetica,sans-Serif" font-size="10.00">::RequireCopyIntf&lt; ImplType &gt;</text>
<text text-anchor="start" x="79" y="-913" font-family="Helvetica,sans-Serif" font-size="10.00"> </text>
<text text-anchor="start" x="17.5" y="-898" font-family="Helvetica,sans-Serif" font-size="10.00">+</text>
<text text-anchor="start" x="44" y="-898" font-family="Helvetica,sans-Serif" font-size="10.00">RequireCopyIntf()</text>
<polygon fill="#666666" stroke="#666666" points="0,-923 0,-923 162,-923 162,-923 0,-923"/>
<polygon fill="#666666" stroke="#666666" points="0,-908 0,-908 162,-908 162,-908 0,-908"/>
<polygon fill="none" stroke="#666666" points="0,-891 0,-951 162,-951 162,-891 0,-891"/>
</a>
</g>
</g>
<!-- Node2&#45;&gt;Node1 -->
<g id="edge1_Node000001_Node000002" class="edge">
<title>Node2&#45;&gt;Node1</title>
<g id="a_edge1_Node000001_Node000002"><a xlink:title=" ">
<path fill="none" stroke="#63b8ff" d="M116.02,-883.43C124.97,-874.07 134.48,-864.14 143.03,-855.21"/>
<polygon fill="none" stroke="#63b8ff" points="113.37,-881.13 108.98,-890.77 118.43,-885.97 113.37,-881.13"/>
</a>
</g>
</g>
<!-- Node3 -->
<g id="Node000003" class="node">
<title>Node3</title>
<g id="a_Node000003"><a xlink:href="classtracking_1_1base_1_1contract_1_1RequireMoveIntf.html" target="_top" xlink:title=" ">
<polygon fill="white" stroke="transparent" points="344,-951 180,-951 180,-891 344,-891 344,-951"/>
<text text-anchor="start" x="185" y="-939" font-family="Helvetica,sans-Serif" font-size="10.00">tracking::base::contract</text>
<text text-anchor="start" x="185" y="-928" font-family="Helvetica,sans-Serif" font-size="10.00">::RequireMoveIntf&lt; ImplType &gt;</text>
<text text-anchor="start" x="260" y="-913" font-family="Helvetica,sans-Serif" font-size="10.00"> </text>
<text text-anchor="start" x="197.5" y="-898" font-family="Helvetica,sans-Serif" font-size="10.00">+</text>
<text text-anchor="start" x="224" y="-898" font-family="Helvetica,sans-Serif" font-size="10.00">RequireMoveIntf()</text>
<polygon fill="#666666" stroke="#666666" points="180,-923 180,-923 344,-923 344,-923 180,-923"/>
<polygon fill="#666666" stroke="#666666" points="180,-908 180,-908 344,-908 344,-908 180,-908"/>
<polygon fill="none" stroke="#666666" points="180,-891 180,-951 344,-951 344,-891 180,-891"/>
</a>
</g>
</g>
<!-- Node3&#45;&gt;Node1 -->
<g id="edge2_Node000001_Node000003" class="edge">
<title>Node3&#45;&gt;Node1</title>
<g id="a_edge2_Node000001_Node000003"><a xlink:title=" ">
<path fill="none" stroke="#63b8ff" d="M226.59,-883.43C217.54,-874.07 207.92,-864.14 199.28,-855.21"/>
<polygon fill="none" stroke="#63b8ff" points="224.24,-886.02 233.71,-890.77 229.27,-881.15 224.24,-886.02"/>
</a>
</g>
</g>
<!-- Node6 -->
<g id="Node000006" class="node">
<title>Node6</title>
<g id="a_Node000006"><a xlink:href="classtracking_1_1math_1_1Vector.html" target="_top" xlink:title=" ">
<polygon fill="white" stroke="transparent" points="134.5,-300 15.5,-300 15.5,0 134.5,0 134.5,-300"/>
<text text-anchor="start" x="21" y="-288" font-family="Helvetica,sans-Serif" font-size="10.00">tracking::math::Vector</text>
<text text-anchor="start" x="21" y="-277" font-family="Helvetica,sans-Serif" font-size="10.00">&lt; value_type, Size_ &gt;</text>
<text text-anchor="start" x="73.5" y="-262" font-family="Helvetica,sans-Serif" font-size="10.00"> </text>
<text text-anchor="start" x="29.5" y="-247" font-family="Helvetica,sans-Serif" font-size="10.00">+</text>
<text text-anchor="start" x="52" y="-247" font-family="Helvetica,sans-Serif" font-size="10.00">Vector()</text>
<text text-anchor="start" x="29.5" y="-232" font-family="Helvetica,sans-Serif" font-size="10.00">+</text>
<text text-anchor="start" x="52" y="-232" font-family="Helvetica,sans-Serif" font-size="10.00">Vector()</text>
<text text-anchor="start" x="29.5" y="-217" font-family="Helvetica,sans-Serif" font-size="10.00">+</text>
<text text-anchor="start" x="52" y="-217" font-family="Helvetica,sans-Serif" font-size="10.00">Vector()</text>
<text text-anchor="start" x="29.5" y="-202" font-family="Helvetica,sans-Serif" font-size="10.00">+</text>
<text text-anchor="start" x="52" y="-202" font-family="Helvetica,sans-Serif" font-size="10.00">Vector()</text>
<text text-anchor="start" x="29.5" y="-187" font-family="Helvetica,sans-Serif" font-size="10.00">+</text>
<text text-anchor="start" x="52" y="-187" font-family="Helvetica,sans-Serif" font-size="10.00">operator[]()</text>
<text text-anchor="start" x="29.5" y="-172" font-family="Helvetica,sans-Serif" font-size="10.00">+</text>
<text text-anchor="start" x="52" y="-172" font-family="Helvetica,sans-Serif" font-size="10.00">operator[]()</text>
<text text-anchor="start" x="29.5" y="-157" font-family="Helvetica,sans-Serif" font-size="10.00">+</text>
<text text-anchor="start" x="52" y="-157" font-family="Helvetica,sans-Serif" font-size="10.00">operator*()</text>
<text text-anchor="start" x="29.5" y="-142" font-family="Helvetica,sans-Serif" font-size="10.00">+</text>
<text text-anchor="start" x="52" y="-142" font-family="Helvetica,sans-Serif" font-size="10.00">normSq()</text>
<text text-anchor="start" x="29.5" y="-127" font-family="Helvetica,sans-Serif" font-size="10.00">+</text>
<text text-anchor="start" x="52" y="-127" font-family="Helvetica,sans-Serif" font-size="10.00">norm()</text>
<text text-anchor="start" x="29.5" y="-112" font-family="Helvetica,sans-Serif" font-size="10.00">+</text>
<text text-anchor="start" x="52" y="-112" font-family="Helvetica,sans-Serif" font-size="10.00">normalize()</text>
<text text-anchor="start" x="29.5" y="-97" font-family="Helvetica,sans-Serif" font-size="10.00">+</text>
<text text-anchor="start" x="52" y="-97" font-family="Helvetica,sans-Serif" font-size="10.00">normalize()</text>
<text text-anchor="start" x="29.5" y="-82" font-family="Helvetica,sans-Serif" font-size="10.00">+</text>
<text text-anchor="start" x="52" y="-82" font-family="Helvetica,sans-Serif" font-size="10.00">at_unsafe()</text>
<text text-anchor="start" x="29.5" y="-67" font-family="Helvetica,sans-Serif" font-size="10.00">+</text>
<text text-anchor="start" x="52" y="-67" font-family="Helvetica,sans-Serif" font-size="10.00">at_unsafe()</text>
<text text-anchor="start" x="29.5" y="-52" font-family="Helvetica,sans-Serif" font-size="10.00">+</text>
<text text-anchor="start" x="52" y="-52" font-family="Helvetica,sans-Serif" font-size="10.00">Zeros()</text>
<text text-anchor="start" x="29.5" y="-37" font-family="Helvetica,sans-Serif" font-size="10.00">+</text>
<text text-anchor="start" x="52" y="-37" font-family="Helvetica,sans-Serif" font-size="10.00">Ones()</text>
<text text-anchor="start" x="29.5" y="-22" font-family="Helvetica,sans-Serif" font-size="10.00">+</text>
<text text-anchor="start" x="52" y="-22" font-family="Helvetica,sans-Serif" font-size="10.00">UnitVector()</text>
<text text-anchor="start" x="29.5" y="-7" font-family="Helvetica,sans-Serif" font-size="10.00">+</text>
<text text-anchor="start" x="52" y="-7" font-family="Helvetica,sans-Serif" font-size="10.00">FromList()</text>
<polygon fill="#666666" stroke="#666666" points="16,-272 16,-272 135,-272 135,-272 16,-272"/>
<polygon fill="#666666" stroke="#666666" points="16,-257 16,-257 135,-257 135,-257 16,-257"/>
<polygon fill="none" stroke="#666666" points="15.5,0 15.5,-300 134.5,-300 134.5,0 15.5,0"/>
</a>
</g>
</g>
<!-- Node5&#45;&gt;Node6 -->
<g id="edge5_Node000005_Node000006" class="edge">
<title>Node5&#45;&gt;Node6</title>
<g id="a_edge5_Node000005_Node000006"><a xlink:title=" ">
<path fill="none" stroke="#63b8ff" d="M174.75,-345.02C173.18,-341.98 171.6,-338.97 170,-336 160.64,-318.63 153.97,-317.03 144,-300 140.83,-294.59 137.7,-289 134.62,-283.32"/>
<polygon fill="none" stroke="#63b8ff" points="171.76,-346.87 179.39,-354.23 178.02,-343.72 171.76,-346.87"/>
</a>
</g>
</g>
<!-- Node7 -->
<g id="Node000007" class="node">
<title>Node7</title>
<g id="a_Node000007"><a xlink:href="classtracking_1_1math_1_1Vector.html" target="_top" xlink:title=" ">
<polygon fill="white" stroke="transparent" points="347,-300 153,-300 153,0 347,0 347,-300"/>
<text text-anchor="start" x="158" y="-288" font-family="Helvetica,sans-Serif" font-size="10.00">tracking::math::Vector</text>
<text text-anchor="start" x="158" y="-277" font-family="Helvetica,sans-Serif" font-size="10.00">&lt; value_type, DS_NUM_VARIABLES &gt;</text>
<text text-anchor="start" x="248" y="-262" font-family="Helvetica,sans-Serif" font-size="10.00"> </text>
<text text-anchor="start" x="185.5" y="-247" font-family="Helvetica,sans-Serif" font-size="10.00">+</text>
<text text-anchor="start" x="227" y="-247" font-family="Helvetica,sans-Serif" font-size="10.00">Vector()</text>
<text text-anchor="start" x="185.5" y="-232" font-family="Helvetica,sans-Serif" font-size="10.00">+</text>
<text text-anchor="start" x="227" y="-232" font-family="Helvetica,sans-Serif" font-size="10.00">Vector()</text>
<text text-anchor="start" x="185.5" y="-217" font-family="Helvetica,sans-Serif" font-size="10.00">+</text>
<text text-anchor="start" x="227" y="-217" font-family="Helvetica,sans-Serif" font-size="10.00">Vector()</text>
<text text-anchor="start" x="185.5" y="-202" font-family="Helvetica,sans-Serif" font-size="10.00">+</text>
<text text-anchor="start" x="227" y="-202" font-family="Helvetica,sans-Serif" font-size="10.00">Vector()</text>
<text text-anchor="start" x="185.5" y="-187" font-family="Helvetica,sans-Serif" font-size="10.00">+</text>
<text text-anchor="start" x="227" y="-187" font-family="Helvetica,sans-Serif" font-size="10.00">operator[]()</text>
<text text-anchor="start" x="185.5" y="-172" font-family="Helvetica,sans-Serif" font-size="10.00">+</text>
<text text-anchor="start" x="227" y="-172" font-family="Helvetica,sans-Serif" font-size="10.00">operator[]()</text>
<text text-anchor="start" x="185.5" y="-157" font-family="Helvetica,sans-Serif" font-size="10.00">+</text>
<text text-anchor="start" x="227" y="-157" font-family="Helvetica,sans-Serif" font-size="10.00">operator*()</text>
<text text-anchor="start" x="185.5" y="-142" font-family="Helvetica,sans-Serif" font-size="10.00">+</text>
<text text-anchor="start" x="227" y="-142" font-family="Helvetica,sans-Serif" font-size="10.00">normSq()</text>
<text text-anchor="start" x="185.5" y="-127" font-family="Helvetica,sans-Serif" font-size="10.00">+</text>
<text text-anchor="start" x="227" y="-127" font-family="Helvetica,sans-Serif" font-size="10.00">norm()</text>
<text text-anchor="start" x="185.5" y="-112" font-family="Helvetica,sans-Serif" font-size="10.00">+</text>
<text text-anchor="start" x="227" y="-112" font-family="Helvetica,sans-Serif" font-size="10.00">normalize()</text>
<text text-anchor="start" x="185.5" y="-97" font-family="Helvetica,sans-Serif" font-size="10.00">+</text>
<text text-anchor="start" x="227" y="-97" font-family="Helvetica,sans-Serif" font-size="10.00">normalize()</text>
<text text-anchor="start" x="185.5" y="-82" font-family="Helvetica,sans-Serif" font-size="10.00">+</text>
<text text-anchor="start" x="227" y="-82" font-family="Helvetica,sans-Serif" font-size="10.00">at_unsafe()</text>
<text text-anchor="start" x="185.5" y="-67" font-family="Helvetica,sans-Serif" font-size="10.00">+</text>
<text text-anchor="start" x="227" y="-67" font-family="Helvetica,sans-Serif" font-size="10.00">at_unsafe()</text>
<text text-anchor="start" x="185.5" y="-52" font-family="Helvetica,sans-Serif" font-size="10.00">+</text>
<text text-anchor="start" x="227" y="-52" font-family="Helvetica,sans-Serif" font-size="10.00">Zeros()</text>
<text text-anchor="start" x="185.5" y="-37" font-family="Helvetica,sans-Serif" font-size="10.00">+</text>
<text text-anchor="start" x="227" y="-37" font-family="Helvetica,sans-Serif" font-size="10.00">Ones()</text>
<text text-anchor="start" x="185.5" y="-22" font-family="Helvetica,sans-Serif" font-size="10.00">+</text>
<text text-anchor="start" x="227" y="-22" font-family="Helvetica,sans-Serif" font-size="10.00">UnitVector()</text>
<text text-anchor="start" x="185.5" y="-7" font-family="Helvetica,sans-Serif" font-size="10.00">+</text>
<text text-anchor="start" x="227" y="-7" font-family="Helvetica,sans-Serif" font-size="10.00">FromList()</text>
<polygon fill="#666666" stroke="#666666" points="153,-272 153,-272 347,-272 347,-272 153,-272"/>
<polygon fill="#666666" stroke="#666666" points="153,-257 153,-257 347,-257 347,-257 153,-257"/>
<polygon fill="none" stroke="#666666" points="153,0 153,-300 347,-300 347,0 153,0"/>
</a>
</g>
</g>
<!-- Node5&#45;&gt;Node7 -->
<g id="edge6_Node000005_Node000007" class="edge">
<title>Node5&#45;&gt;Node7</title>
<g id="a_edge6_Node000005_Node000007"><a xlink:title=" ">
<path fill="none" stroke="#63b8ff" d="M250,-325.64C250,-317.06 250,-308.55 250,-300.16"/>
<polygon fill="none" stroke="#63b8ff" points="246.5,-325.72 250,-335.72 253.5,-325.72 246.5,-325.72"/>
</a>
</g>
</g>
<!-- Node8 -->
<g id="Node000008" class="node">
<title>Node8</title>
<g id="a_Node000008"><a xlink:href="classtracking_1_1math_1_1SquareMatrix.html" target="_top" xlink:title="A square matrix specialization of the Matrix class providing additional operations specific to square...">
<polygon fill="white" stroke="transparent" points="553,-283 365,-283 365,-17 553,-17 553,-283"/>
<text text-anchor="start" x="370" y="-271" font-family="Helvetica,sans-Serif" font-size="10.00">tracking::math::SquareMatrix</text>
<text text-anchor="start" x="370" y="-260" font-family="Helvetica,sans-Serif" font-size="10.00">&lt; ValueType_, Size_, IsRowMajor_ &gt;</text>
<text text-anchor="start" x="457" y="-245" font-family="Helvetica,sans-Serif" font-size="10.00"> </text>
<text text-anchor="start" x="377" y="-230" font-family="Helvetica,sans-Serif" font-size="10.00">+</text>
<text text-anchor="start" x="398" y="-230" font-family="Helvetica,sans-Serif" font-size="10.00">SquareMatrix()</text>
<text text-anchor="start" x="377" y="-215" font-family="Helvetica,sans-Serif" font-size="10.00">+</text>
<text text-anchor="start" x="398" y="-215" font-family="Helvetica,sans-Serif" font-size="10.00">SquareMatrix()</text>
<text text-anchor="start" x="377" y="-200" font-family="Helvetica,sans-Serif" font-size="10.00">+</text>
<text text-anchor="start" x="398" y="-200" font-family="Helvetica,sans-Serif" font-size="10.00">SquareMatrix()</text>
<text text-anchor="start" x="377" y="-185" font-family="Helvetica,sans-Serif" font-size="10.00">+</text>
<text text-anchor="start" x="398" y="-185" font-family="Helvetica,sans-Serif" font-size="10.00">setIdentity()</text>
<text text-anchor="start" x="377" y="-170" font-family="Helvetica,sans-Serif" font-size="10.00">+</text>
<text text-anchor="start" x="398" y="-170" font-family="Helvetica,sans-Serif" font-size="10.00">transpose()</text>
<text text-anchor="start" x="377" y="-155" font-family="Helvetica,sans-Serif" font-size="10.00">+</text>
<text text-anchor="start" x="398" y="-155" font-family="Helvetica,sans-Serif" font-size="10.00">transpose()</text>
<text text-anchor="start" x="377" y="-140" font-family="Helvetica,sans-Serif" font-size="10.00">+</text>
<text text-anchor="start" x="398" y="-140" font-family="Helvetica,sans-Serif" font-size="10.00">trace()</text>
<text text-anchor="start" x="377" y="-125" font-family="Helvetica,sans-Serif" font-size="10.00">+</text>
<text text-anchor="start" x="398" y="-125" font-family="Helvetica,sans-Serif" font-size="10.00">determinant()</text>
<text text-anchor="start" x="377" y="-110" font-family="Helvetica,sans-Serif" font-size="10.00">+</text>
<text text-anchor="start" x="398" y="-110" font-family="Helvetica,sans-Serif" font-size="10.00">householderQR()</text>
<text text-anchor="start" x="377" y="-95" font-family="Helvetica,sans-Serif" font-size="10.00">+</text>
<text text-anchor="start" x="398" y="-95" font-family="Helvetica,sans-Serif" font-size="10.00">qrSolve()</text>
<text text-anchor="start" x="398" y="-80" font-family="Helvetica,sans-Serif" font-size="10.00">and 14 more...</text>
<text text-anchor="start" x="377" y="-65" font-family="Helvetica,sans-Serif" font-size="10.00">+</text>
<text text-anchor="start" x="398" y="-65" font-family="Helvetica,sans-Serif" font-size="10.00">Identity()</text>
<text text-anchor="start" x="377" y="-50" font-family="Helvetica,sans-Serif" font-size="10.00">+</text>
<text text-anchor="start" x="398" y="-50" font-family="Helvetica,sans-Serif" font-size="10.00">FromList()</text>
<text text-anchor="start" x="379.5" y="-35" font-family="Helvetica,sans-Serif" font-size="10.00">&#45;</text>
<text text-anchor="start" x="398" y="-35" font-family="Helvetica,sans-Serif" font-size="10.00">hasStrictlyPositiveDiagonal</text>
<text text-anchor="start" x="398" y="-24" font-family="Helvetica,sans-Serif" font-size="10.00">Elems()</text>
<polygon fill="#666666" stroke="#666666" points="365,-255 365,-255 553,-255 553,-255 365,-255"/>
<polygon fill="#666666" stroke="#666666" points="365,-240 365,-240 553,-240 553,-240 365,-240"/>
<polygon fill="none" stroke="#666666" points="365,-17 365,-283 553,-283 553,-17 365,-17"/>
</a>
</g>
</g>
<!-- Node5&#45;&gt;Node8 -->
<g id="edge7_Node000005_Node000008" class="edge">
<title>Node5&#45;&gt;Node8</title>
<g id="a_edge7_Node000005_Node000008"><a xlink:title=" ">
<path fill="none" stroke="#63b8ff" d="M325.3,-404C346.12,-364.61 368.62,-322.04 389.11,-283.26"/>
<polygon fill="none" stroke="#63b8ff" points="322.19,-402.4 320.61,-412.88 328.38,-405.67 322.19,-402.4"/>
</a>
</g>
</g>
</g>
</svg>

<g id="navigator" transform="translate(0 0)" fill="#404254">
  <rect fill="#f2f5e9" fill-opacity="0.5" stroke="#606060" stroke-width=".5" x="0" y="0" width="60" height="60"/>
  <use id="zoomplus" xlink:href="#zoomPlus" x="17" y="9" onmousedown="handleZoom(evt,'in')"/>
  <use id="zoomminus" xlink:href="#zoomMin" x="42" y="9" onmousedown="handleZoom(evt,'out')"/>
  <use id="reset" xlink:href="#resetDef" x="30" y="36" onmousedown="handleReset()"/>
   <use id="arrowup" xlink:href="#arrowUp" x="0" y="0" onmousedown="handlePan(0,-1)"/>
  <use id="arrowright" xlink:href="#arrowRight" x="0" y="0" onmousedown="handlePan(1,0)"/>
  <use id="arrowdown" xlink:href="#arrowDown" x="0" y="0" onmousedown="handlePan(0,1)"/>
  <use id="arrowleft" xlink:href="#arrowLeft" x="0" y="0" onmousedown="handlePan(-1,0)"/>
</g>
<svg viewBox="0 0 15 15" width="100%" height="30px" preserveAspectRatio="xMaxYMin meet">
 <g id="arrow_out" transform="scale(0.3 0.3)">
  <a xlink:href="structtracking_1_1math_1_1contract_1_1MatrixIntf__inherit__graph_org.svg" target="_base">
   <rect id="button" ry="5" rx="5" y="6" x="6" height="38" width="38"
        fill="#f2f5e9" fill-opacity="0.5" stroke="#606060" stroke-width="1.0"/>
   <path id="arrow"
     d="M 11.500037,31.436501 C 11.940474,20.09759 22.043105,11.32322 32.158766,21.979434 L 37.068811,17.246167 C 37.068811,17.246167 37.088388,32 37.088388,32 L 22.160133,31.978069 C 22.160133,31.978069 26.997745,27.140456 26.997745,27.140456 C 18.528582,18.264221 13.291696,25.230495 11.500037,31.436501 z"
     style="fill:#404040;"/>
  </a>
 </g>
</svg>

<style type='text/css'>
<![CDATA[
[data-mouse-over-selected='false'] { opacity: 0.7; }
[data-mouse-over-selected='true']  { opacity: 1.0; }
]]>
</style>
<script type="application/ecmascript"><![CDATA[
document.addEventListener('DOMContentLoaded', (event) => {
  highlightEdges();
  highlightAdjacentNodes();
});
]]></script>
</svg>
