<?xml version="1.0" encoding="UTF-8" standalone="no"?>
<!DOCTYPE svg PUBLIC "-//W3C//DTD SVG 1.1//EN"
 "http://www.w3.org/Graphics/SVG/1.1/DTD/svg11.dtd">
<!-- Generated by graphviz version 2.43.0 (0)
 -->
<!-- Title: tracking::math::is_matrix_like&lt; T, std::void_t&lt; decltype(std::declval&lt; const T &amp; &gt;().at_unsafe(sint32{}, sint32{})), typename T::value_type, decltype(T::Rows), decltype(T::Cols)&gt; &gt; Pages: 1 -->
<svg width="165pt" height="219pt"
 viewBox="0.00 0.00 165.00 219.00" xmlns="http://www.w3.org/2000/svg" xmlns:xlink="http://www.w3.org/1999/xlink">
<g id="graph0" class="graph" transform="scale(1 1) rotate(0) translate(4 215)">
<title>tracking::math::is_matrix_like&lt; T, std::void_t&lt; decltype(std::declval&lt; const T &amp; &gt;().at_unsafe(sint32{}, sint32{})), typename T::value_type, decltype(T::Rows), decltype(T::Cols)&gt; &gt;</title>
<!-- Node1 -->
<g id="Node000001" class="node">
<title>Node1</title>
<g id="a_Node000001"><a xlink:title=" ">
<polygon fill="#999999" stroke="transparent" points="157,-126 0,-126 0,0 157,0 157,-126"/>
<text text-anchor="start" x="5.5" y="-114" font-family="Helvetica,sans-Serif" font-size="10.00">tracking::math::is</text>
<text text-anchor="start" x="5.5" y="-103" font-family="Helvetica,sans-Serif" font-size="10.00">_matrix_like&lt; T, std</text>
<text text-anchor="start" x="5.5" y="-92" font-family="Helvetica,sans-Serif" font-size="10.00">::void_t&lt; decltype(std</text>
<text text-anchor="start" x="5.5" y="-81" font-family="Helvetica,sans-Serif" font-size="10.00">::declval&lt; const T &amp; &gt;</text>
<text text-anchor="start" x="5.5" y="-70" font-family="Helvetica,sans-Serif" font-size="10.00">().at_unsafe(sint32{}, sint32</text>
<text text-anchor="start" x="5.5" y="-59" font-family="Helvetica,sans-Serif" font-size="10.00">{})), typename T::value_type,</text>
<text text-anchor="start" x="5.5" y="-48" font-family="Helvetica,sans-Serif" font-size="10.00"> decltype(T::Rows), decltype</text>
<text text-anchor="start" x="49" y="-37" font-family="Helvetica,sans-Serif" font-size="10.00">(T::Cols)&gt; &gt;</text>
<text text-anchor="start" x="77" y="-22" font-family="Helvetica,sans-Serif" font-size="10.00"> </text>
<text text-anchor="start" x="77" y="-7" font-family="Helvetica,sans-Serif" font-size="10.00"> </text>
<polygon fill="#666666" stroke="#666666" points="0.5,-32 0.5,-32 157.5,-32 157.5,-32 0.5,-32"/>
<polygon fill="#666666" stroke="#666666" points="0.5,-17 0.5,-17 157.5,-17 157.5,-17 0.5,-17"/>
<polygon fill="none" stroke="#666666" points="0,0 0,-126 157,-126 157,0 0,0"/>
</a>
</g>
</g>
<!-- Node2 -->
<g id="Node000002" class="node">
<title>Node2</title>
<g id="a_Node000002"><a xlink:title=" ">
<polygon fill="white" stroke="transparent" points="117.5,-211 39.5,-211 39.5,-162 117.5,-162 117.5,-211"/>
<text text-anchor="start" x="44.5" y="-198.5" font-family="Helvetica,sans-Serif" font-size="10.00">std::true_type</text>
<text text-anchor="start" x="76.5" y="-183.5" font-family="Helvetica,sans-Serif" font-size="10.00"> </text>
<text text-anchor="start" x="76.5" y="-168.5" font-family="Helvetica,sans-Serif" font-size="10.00"> </text>
<polygon fill="#666666" stroke="#666666" points="39.5,-193.5 39.5,-193.5 117.5,-193.5 117.5,-193.5 39.5,-193.5"/>
<polygon fill="#666666" stroke="#666666" points="39.5,-178.5 39.5,-178.5 117.5,-178.5 117.5,-178.5 39.5,-178.5"/>
<polygon fill="none" stroke="#666666" points="39.5,-162 39.5,-211 117.5,-211 117.5,-162 39.5,-162"/>
</a>
</g>
</g>
<!-- Node2&#45;&gt;Node1 -->
<g id="edge1_Node000001_Node000002" class="edge">
<title>Node2&#45;&gt;Node1</title>
<g id="a_edge1_Node000001_Node000002"><a xlink:title=" ">
<path fill="none" stroke="#63b8ff" d="M78.5,-151.53C78.5,-143.62 78.5,-134.95 78.5,-126.24"/>
<polygon fill="none" stroke="#63b8ff" points="75,-151.79 78.5,-161.79 82,-151.79 75,-151.79"/>
</a>
</g>
</g>
</g>
</svg>
