<?xml version="1.0" encoding="UTF-8" standalone="no"?>
<!DOCTYPE svg PUBLIC "-//W3C//DTD SVG 1.1//EN"
 "http://www.w3.org/Graphics/SVG/1.1/DTD/svg11.dtd">
<!-- Generated by graphviz version 2.43.0 (0)
 -->
<!-- Title: tracking::math::FactoredCovarianceMatrixPolicy&lt; ValueType_ &gt; Pages: 1 -->
<svg width="151pt" height="175pt"
 viewBox="0.00 0.00 151.00 175.00" xmlns="http://www.w3.org/2000/svg" xmlns:xlink="http://www.w3.org/1999/xlink">
<g id="graph0" class="graph" transform="scale(1 1) rotate(0) translate(4 171)">
<title>tracking::math::FactoredCovarianceMatrixPolicy&lt; ValueType_ &gt;</title>
<!-- Node1 -->
<g id="Node000001" class="node">
<title>Node1</title>
<g id="a_Node000001"><a xlink:title="Policy for using UDU factored covariance matrix representation.">
<polygon fill="#999999" stroke="transparent" points="136,-71 7,-71 7,0 136,0 136,-71"/>
<text text-anchor="start" x="12.5" y="-58.5" font-family="Helvetica,sans-Serif" font-size="10.00">tracking::math::Factored</text>
<text text-anchor="start" x="12.5" y="-47.5" font-family="Helvetica,sans-Serif" font-size="10.00">CovarianceMatrixPolicy</text>
<text text-anchor="start" x="33" y="-36.5" font-family="Helvetica,sans-Serif" font-size="10.00">&lt; ValueType_ &gt;</text>
<text text-anchor="start" x="24.5" y="-21.5" font-family="Helvetica,sans-Serif" font-size="10.00">+</text>
<text text-anchor="start" x="50.5" y="-21.5" font-family="Helvetica,sans-Serif" font-size="10.00">is_factored</text>
<text text-anchor="start" x="70" y="-6.5" font-family="Helvetica,sans-Serif" font-size="10.00"> </text>
<polygon fill="#666666" stroke="#666666" points="7.5,-31.5 7.5,-31.5 136.5,-31.5 136.5,-31.5 7.5,-31.5"/>
<polygon fill="#666666" stroke="#666666" points="7.5,-16.5 7.5,-16.5 48.5,-16.5 48.5,-16.5 7.5,-16.5"/>
<polygon fill="#666666" stroke="#666666" points="48.5,-16.5 48.5,-16.5 136.5,-16.5 136.5,-16.5 48.5,-16.5"/>
<polygon fill="none" stroke="#666666" points="7,0 7,-71 136,-71 136,0 7,0"/>
</a>
</g>
</g>
<!-- Node2 -->
<g id="Node000002" class="node">
<title>Node2</title>
<g id="a_Node000002"><a xlink:href="structtracking_1_1math_1_1CovarianceMatrixPolicyBase.html" target="_top" xlink:title="Base class for covariance matrix policy types.">
<polygon fill="white" stroke="transparent" points="143,-167 0,-167 0,-107 143,-107 143,-167"/>
<text text-anchor="start" x="5.5" y="-155" font-family="Helvetica,sans-Serif" font-size="10.00">tracking::math::Covariance</text>
<text text-anchor="start" x="29.5" y="-144" font-family="Helvetica,sans-Serif" font-size="10.00">MatrixPolicyBase</text>
<text text-anchor="start" x="70" y="-129" font-family="Helvetica,sans-Serif" font-size="10.00"> </text>
<text text-anchor="start" x="70" y="-114" font-family="Helvetica,sans-Serif" font-size="10.00"> </text>
<polygon fill="#666666" stroke="#666666" points="0.5,-139 0.5,-139 143.5,-139 143.5,-139 0.5,-139"/>
<polygon fill="#666666" stroke="#666666" points="0.5,-124 0.5,-124 143.5,-124 143.5,-124 0.5,-124"/>
<polygon fill="none" stroke="#666666" points="0,-107 0,-167 143,-167 143,-107 0,-107"/>
</a>
</g>
</g>
<!-- Node2&#45;&gt;Node1 -->
<g id="edge1_Node000001_Node000002" class="edge">
<title>Node2&#45;&gt;Node1</title>
<g id="a_edge1_Node000001_Node000002"><a xlink:title=" ">
<path fill="none" stroke="#63b8ff" d="M71.5,-96.84C71.5,-88.32 71.5,-79.36 71.5,-71.04"/>
<polygon fill="none" stroke="#63b8ff" points="68,-96.95 71.5,-106.95 75,-96.95 68,-96.95"/>
</a>
</g>
</g>
</g>
</svg>
