<?xml version="1.0" encoding="UTF-8" standalone="no"?>
<!DOCTYPE svg PUBLIC "-//W3C//DTD SVG 1.1//EN"
 "http://www.w3.org/Graphics/SVG/1.1/DTD/svg11.dtd">
<!-- Generated by graphviz version 2.43.0 (0)
 -->
<!-- Title: tracking::motion::contract::MotionModelIntf&lt; ImplType &gt; Pages: 1 -->
<!--zoomable 847 -->

<svg id="main" version="1.1" xmlns="http://www.w3.org/2000/svg" xmlns:xlink="http://www.w3.org/1999/xlink" xml:space="preserve" onload="init(evt)">
<style type="text/css"><![CDATA[
.node, .edge {opacity: 0.7;}
.node.selected, .edge.selected {opacity: 1;}
.edge:hover path { stroke: red; }
.edge:hover polygon { stroke: red; fill: red; }
]]></style>

<defs>
  <circle id="rim" cx="0" cy="0" r="7"/>
  <circle id="rim2" cx="0" cy="0" r="3.5"/>
  <g id="zoomPlus">
    <use xlink:href="#rim" fill="#404040"><set attributeName="fill" to="#808080" begin="zoomplus.mouseover" end="zoomplus.mouseout"/></use>
    <path d="M-4,0h8M0,-4v8" fill="none" stroke="white" stroke-width="1.5" pointer-events="none"/>
  </g>
  <g id="zoomMin">
    <use xlink:href="#rim" fill="#404040"><set attributeName="fill" to="#808080" begin="zoomminus.mouseover" end="zoomminus.mouseout"/></use>
    <path d="M-4,0h8" fill="none" stroke="white" stroke-width="1.5" pointer-events="none"/>
  </g>
  <g id="arrowUp" transform="translate(30 24)">
    <use xlink:href="#rim"/>
    <path pointer-events="none" fill="none" stroke="white" stroke-width="1.5" d="M0,-3.0v7 M-2.5,-0.5L0,-3.0L2.5,-0.5"/>
  </g>
  <g id="arrowRight" transform="rotate(90) translate(36 -43)">
    <use xlink:href="#rim"/>
    <path pointer-events="none" fill="none" stroke="white" stroke-width="1.5" d="M0,-3.0v7 M-2.5,-0.5L0,-3.0L2.5,-0.5"/>
  </g>
  <g id="arrowDown" transform="rotate(180) translate(-30 -48)">
    <use xlink:href="#rim"/>
    <path pointer-events="none" fill="none" stroke="white" stroke-width="1.5" d="M0,-3.0v7 M-2.5,-0.5L0,-3.0L2.5,-0.5"/>
  </g>
  <g id="arrowLeft" transform="rotate(270) translate(-36 17)">
    <use xlink:href="#rim"/>
    <path pointer-events="none" fill="none" stroke="white" stroke-width="1.5" d="M0,-3.0v7 M-2.5,-0.5L0,-3.0L2.5,-0.5"/>
  </g>
  <g id="resetDef">
    <use xlink:href="#rim2" fill="#404040"><set attributeName="fill" to="#808080" begin="reset.mouseover" end="reset.mouseout"/></use>
  </g>
</defs>
<script type="application/ecmascript">
var viewWidth = 456;
var viewHeight = 847;
var sectionId = 'dynsection-0';
</script>
<script type="application/ecmascript" xlink:href="svg.min.js"/>
<svg id="graph" class="graph">
<g id="viewport">
<title>tracking::motion::contract::MotionModelIntf&lt; ImplType &gt;</title>
<!-- Node1 -->
<g id="Node000001" class="node">
<title>Node1</title>
<g id="a_Node000001"><a xlink:title="Static interface contract for concrete motion models (CRTP)">
<polygon fill="#999999" stroke="transparent" points="305.5,-839 141.5,-839 141.5,-779 305.5,-779 305.5,-839"/>
<text text-anchor="start" x="146.5" y="-827" font-family="Helvetica,sans-Serif" font-size="10.00">tracking::motion::contract</text>
<text text-anchor="start" x="146.5" y="-816" font-family="Helvetica,sans-Serif" font-size="10.00">::MotionModelIntf&lt; ImplType &gt;</text>
<text text-anchor="start" x="221.5" y="-801" font-family="Helvetica,sans-Serif" font-size="10.00"> </text>
<text text-anchor="start" x="159" y="-786" font-family="Helvetica,sans-Serif" font-size="10.00">+</text>
<text text-anchor="start" x="185.5" y="-786" font-family="Helvetica,sans-Serif" font-size="10.00">MotionModelIntf()</text>
<polygon fill="#666666" stroke="#666666" points="141.5,-811 141.5,-811 305.5,-811 305.5,-811 141.5,-811"/>
<polygon fill="#666666" stroke="#666666" points="141.5,-796 141.5,-796 305.5,-796 305.5,-796 141.5,-796"/>
<polygon fill="none" stroke="#666666" points="141.5,-779 141.5,-839 305.5,-839 305.5,-779 141.5,-779"/>
</a>
</g>
</g>
<!-- Node2 -->
<g id="Node000002" class="node">
<title>Node2</title>
<g id="a_Node000002"><a xlink:href="classtracking_1_1motion_1_1ExtendedMotionModel.html" target="_top" xlink:title=" ">
<polygon fill="white" stroke="transparent" points="215,-743 0,-743 0,-343 215,-343 215,-743"/>
<text text-anchor="start" x="5.5" y="-731" font-family="Helvetica,sans-Serif" font-size="10.00">tracking::motion::Extended</text>
<text text-anchor="start" x="5.5" y="-720" font-family="Helvetica,sans-Serif" font-size="10.00">MotionModel&lt; MotionModelCA</text>
<text text-anchor="start" x="5.5" y="-709" font-family="Helvetica,sans-Serif" font-size="10.00">&lt; CovarianceMatrixPolicy_</text>
<text text-anchor="start" x="5.5" y="-698" font-family="Helvetica,sans-Serif" font-size="10.00"> &gt;, MotionModelTraits&lt; CovarianceMatrix</text>
<text text-anchor="start" x="48" y="-687" font-family="Helvetica,sans-Serif" font-size="10.00">Policy_, StateDefCA &gt; &gt;</text>
<text text-anchor="start" x="106" y="-672" font-family="Helvetica,sans-Serif" font-size="10.00"> </text>
<text text-anchor="start" x="14" y="-657" font-family="Helvetica,sans-Serif" font-size="10.00">+</text>
<text text-anchor="start" x="36.5" y="-657" font-family="Helvetica,sans-Serif" font-size="10.00">ExtendedMotionModel()</text>
<text text-anchor="start" x="14" y="-642" font-family="Helvetica,sans-Serif" font-size="10.00">+</text>
<text text-anchor="start" x="36.5" y="-642" font-family="Helvetica,sans-Serif" font-size="10.00">~ExtendedMotionModel()</text>
<text text-anchor="start" x="14" y="-627" font-family="Helvetica,sans-Serif" font-size="10.00">+</text>
<text text-anchor="start" x="36.5" y="-627" font-family="Helvetica,sans-Serif" font-size="10.00">getX()</text>
<text text-anchor="start" x="14" y="-612" font-family="Helvetica,sans-Serif" font-size="10.00">+</text>
<text text-anchor="start" x="36.5" y="-612" font-family="Helvetica,sans-Serif" font-size="10.00">getY()</text>
<text text-anchor="start" x="14" y="-597" font-family="Helvetica,sans-Serif" font-size="10.00">+</text>
<text text-anchor="start" x="36.5" y="-597" font-family="Helvetica,sans-Serif" font-size="10.00">invertCov()</text>
<text text-anchor="start" x="14" y="-582" font-family="Helvetica,sans-Serif" font-size="10.00">+</text>
<text text-anchor="start" x="36.5" y="-582" font-family="Helvetica,sans-Serif" font-size="10.00">predict()</text>
<text text-anchor="start" x="14" y="-567" font-family="Helvetica,sans-Serif" font-size="10.00">+</text>
<text text-anchor="start" x="36.5" y="-567" font-family="Helvetica,sans-Serif" font-size="10.00">predict()</text>
<text text-anchor="start" x="14" y="-552" font-family="Helvetica,sans-Serif" font-size="10.00">+</text>
<text text-anchor="start" x="36.5" y="-552" font-family="Helvetica,sans-Serif" font-size="10.00">update()</text>
<text text-anchor="start" x="14" y="-537" font-family="Helvetica,sans-Serif" font-size="10.00">+</text>
<text text-anchor="start" x="36.5" y="-537" font-family="Helvetica,sans-Serif" font-size="10.00">update()</text>
<text text-anchor="start" x="14" y="-522" font-family="Helvetica,sans-Serif" font-size="10.00">+</text>
<text text-anchor="start" x="36.5" y="-522" font-family="Helvetica,sans-Serif" font-size="10.00">convertStateVecIntoState</text>
<text text-anchor="start" x="36.5" y="-511" font-family="Helvetica,sans-Serif" font-size="10.00">Space()</text>
<text text-anchor="start" x="14" y="-496" font-family="Helvetica,sans-Serif" font-size="10.00">+</text>
<text text-anchor="start" x="36.5" y="-496" font-family="Helvetica,sans-Serif" font-size="10.00">convertStateVecIntoInformation</text>
<text text-anchor="start" x="36.5" y="-485" font-family="Helvetica,sans-Serif" font-size="10.00">Space()</text>
<text text-anchor="start" x="14" y="-470" font-family="Helvetica,sans-Serif" font-size="10.00">+</text>
<text text-anchor="start" x="36.5" y="-470" font-family="Helvetica,sans-Serif" font-size="10.00">StateVecFromList()</text>
<text text-anchor="start" x="14" y="-455" font-family="Helvetica,sans-Serif" font-size="10.00">+</text>
<text text-anchor="start" x="36.5" y="-455" font-family="Helvetica,sans-Serif" font-size="10.00">StateCovFromList()</text>
<text text-anchor="start" x="14" y="-440" font-family="Helvetica,sans-Serif" font-size="10.00">+</text>
<text text-anchor="start" x="36.5" y="-440" font-family="Helvetica,sans-Serif" font-size="10.00">StateCovFromList()</text>
<text text-anchor="start" x="14" y="-425" font-family="Helvetica,sans-Serif" font-size="10.00">+</text>
<text text-anchor="start" x="36.5" y="-425" font-family="Helvetica,sans-Serif" font-size="10.00">FromLists()</text>
<text text-anchor="start" x="14" y="-410" font-family="Helvetica,sans-Serif" font-size="10.00">#</text>
<text text-anchor="start" x="36.5" y="-410" font-family="Helvetica,sans-Serif" font-size="10.00">ExtendedMotionModel()</text>
<text text-anchor="start" x="14" y="-395" font-family="Helvetica,sans-Serif" font-size="10.00">#</text>
<text text-anchor="start" x="36.5" y="-395" font-family="Helvetica,sans-Serif" font-size="10.00">ExtendedMotionModel()</text>
<text text-anchor="start" x="14" y="-380" font-family="Helvetica,sans-Serif" font-size="10.00">#</text>
<text text-anchor="start" x="36.5" y="-380" font-family="Helvetica,sans-Serif" font-size="10.00">ExtendedMotionModel()</text>
<text text-anchor="start" x="14" y="-365" font-family="Helvetica,sans-Serif" font-size="10.00">#</text>
<text text-anchor="start" x="36.5" y="-365" font-family="Helvetica,sans-Serif" font-size="10.00">operator=()</text>
<text text-anchor="start" x="14" y="-350" font-family="Helvetica,sans-Serif" font-size="10.00">#</text>
<text text-anchor="start" x="36.5" y="-350" font-family="Helvetica,sans-Serif" font-size="10.00">operator=()</text>
<polygon fill="#666666" stroke="#666666" points="0.5,-682 0.5,-682 215.5,-682 215.5,-682 0.5,-682"/>
<polygon fill="#666666" stroke="#666666" points="0.5,-667 0.5,-667 215.5,-667 215.5,-667 0.5,-667"/>
<polygon fill="none" stroke="#666666" points="0,-343 0,-743 215,-743 215,-343 0,-343"/>
</a>
</g>
</g>
<!-- Node1&#45;&gt;Node2 -->
<g id="edge1_Node000001_Node000002" class="edge">
<title>Node1&#45;&gt;Node2</title>
<g id="a_edge1_Node000001_Node000002"><a xlink:title=" ">
<path fill="none" stroke="#63b8ff" d="M206.68,-769.71C203.15,-761.7 199.22,-752.73 194.99,-743.12"/>
<polygon fill="none" stroke="#63b8ff" points="203.53,-771.24 210.75,-778.99 209.94,-768.43 203.53,-771.24"/>
</a>
</g>
</g>
<!-- Node4 -->
<g id="Node000004" class="node">
<title>Node4</title>
<g id="a_Node000004"><a xlink:href="classtracking_1_1motion_1_1ExtendedMotionModel.html" target="_top" xlink:title=" ">
<polygon fill="white" stroke="transparent" points="448,-743 233,-743 233,-343 448,-343 448,-743"/>
<text text-anchor="start" x="238.5" y="-731" font-family="Helvetica,sans-Serif" font-size="10.00">tracking::motion::Extended</text>
<text text-anchor="start" x="238.5" y="-720" font-family="Helvetica,sans-Serif" font-size="10.00">MotionModel&lt; MotionModelCV</text>
<text text-anchor="start" x="238.5" y="-709" font-family="Helvetica,sans-Serif" font-size="10.00">&lt; CovarianceMatrixPolicy_</text>
<text text-anchor="start" x="238.5" y="-698" font-family="Helvetica,sans-Serif" font-size="10.00"> &gt;, MotionModelTraits&lt; CovarianceMatrix</text>
<text text-anchor="start" x="281" y="-687" font-family="Helvetica,sans-Serif" font-size="10.00">Policy_, StateDefCV &gt; &gt;</text>
<text text-anchor="start" x="339" y="-672" font-family="Helvetica,sans-Serif" font-size="10.00"> </text>
<text text-anchor="start" x="247" y="-657" font-family="Helvetica,sans-Serif" font-size="10.00">+</text>
<text text-anchor="start" x="269.5" y="-657" font-family="Helvetica,sans-Serif" font-size="10.00">ExtendedMotionModel()</text>
<text text-anchor="start" x="247" y="-642" font-family="Helvetica,sans-Serif" font-size="10.00">+</text>
<text text-anchor="start" x="269.5" y="-642" font-family="Helvetica,sans-Serif" font-size="10.00">~ExtendedMotionModel()</text>
<text text-anchor="start" x="247" y="-627" font-family="Helvetica,sans-Serif" font-size="10.00">+</text>
<text text-anchor="start" x="269.5" y="-627" font-family="Helvetica,sans-Serif" font-size="10.00">getX()</text>
<text text-anchor="start" x="247" y="-612" font-family="Helvetica,sans-Serif" font-size="10.00">+</text>
<text text-anchor="start" x="269.5" y="-612" font-family="Helvetica,sans-Serif" font-size="10.00">getY()</text>
<text text-anchor="start" x="247" y="-597" font-family="Helvetica,sans-Serif" font-size="10.00">+</text>
<text text-anchor="start" x="269.5" y="-597" font-family="Helvetica,sans-Serif" font-size="10.00">invertCov()</text>
<text text-anchor="start" x="247" y="-582" font-family="Helvetica,sans-Serif" font-size="10.00">+</text>
<text text-anchor="start" x="269.5" y="-582" font-family="Helvetica,sans-Serif" font-size="10.00">predict()</text>
<text text-anchor="start" x="247" y="-567" font-family="Helvetica,sans-Serif" font-size="10.00">+</text>
<text text-anchor="start" x="269.5" y="-567" font-family="Helvetica,sans-Serif" font-size="10.00">predict()</text>
<text text-anchor="start" x="247" y="-552" font-family="Helvetica,sans-Serif" font-size="10.00">+</text>
<text text-anchor="start" x="269.5" y="-552" font-family="Helvetica,sans-Serif" font-size="10.00">update()</text>
<text text-anchor="start" x="247" y="-537" font-family="Helvetica,sans-Serif" font-size="10.00">+</text>
<text text-anchor="start" x="269.5" y="-537" font-family="Helvetica,sans-Serif" font-size="10.00">update()</text>
<text text-anchor="start" x="247" y="-522" font-family="Helvetica,sans-Serif" font-size="10.00">+</text>
<text text-anchor="start" x="269.5" y="-522" font-family="Helvetica,sans-Serif" font-size="10.00">convertStateVecIntoState</text>
<text text-anchor="start" x="269.5" y="-511" font-family="Helvetica,sans-Serif" font-size="10.00">Space()</text>
<text text-anchor="start" x="247" y="-496" font-family="Helvetica,sans-Serif" font-size="10.00">+</text>
<text text-anchor="start" x="269.5" y="-496" font-family="Helvetica,sans-Serif" font-size="10.00">convertStateVecIntoInformation</text>
<text text-anchor="start" x="269.5" y="-485" font-family="Helvetica,sans-Serif" font-size="10.00">Space()</text>
<text text-anchor="start" x="247" y="-470" font-family="Helvetica,sans-Serif" font-size="10.00">+</text>
<text text-anchor="start" x="269.5" y="-470" font-family="Helvetica,sans-Serif" font-size="10.00">StateVecFromList()</text>
<text text-anchor="start" x="247" y="-455" font-family="Helvetica,sans-Serif" font-size="10.00">+</text>
<text text-anchor="start" x="269.5" y="-455" font-family="Helvetica,sans-Serif" font-size="10.00">StateCovFromList()</text>
<text text-anchor="start" x="247" y="-440" font-family="Helvetica,sans-Serif" font-size="10.00">+</text>
<text text-anchor="start" x="269.5" y="-440" font-family="Helvetica,sans-Serif" font-size="10.00">StateCovFromList()</text>
<text text-anchor="start" x="247" y="-425" font-family="Helvetica,sans-Serif" font-size="10.00">+</text>
<text text-anchor="start" x="269.5" y="-425" font-family="Helvetica,sans-Serif" font-size="10.00">FromLists()</text>
<text text-anchor="start" x="247" y="-410" font-family="Helvetica,sans-Serif" font-size="10.00">#</text>
<text text-anchor="start" x="269.5" y="-410" font-family="Helvetica,sans-Serif" font-size="10.00">ExtendedMotionModel()</text>
<text text-anchor="start" x="247" y="-395" font-family="Helvetica,sans-Serif" font-size="10.00">#</text>
<text text-anchor="start" x="269.5" y="-395" font-family="Helvetica,sans-Serif" font-size="10.00">ExtendedMotionModel()</text>
<text text-anchor="start" x="247" y="-380" font-family="Helvetica,sans-Serif" font-size="10.00">#</text>
<text text-anchor="start" x="269.5" y="-380" font-family="Helvetica,sans-Serif" font-size="10.00">ExtendedMotionModel()</text>
<text text-anchor="start" x="247" y="-365" font-family="Helvetica,sans-Serif" font-size="10.00">#</text>
<text text-anchor="start" x="269.5" y="-365" font-family="Helvetica,sans-Serif" font-size="10.00">operator=()</text>
<text text-anchor="start" x="247" y="-350" font-family="Helvetica,sans-Serif" font-size="10.00">#</text>
<text text-anchor="start" x="269.5" y="-350" font-family="Helvetica,sans-Serif" font-size="10.00">operator=()</text>
<polygon fill="#666666" stroke="#666666" points="233.5,-682 233.5,-682 448.5,-682 448.5,-682 233.5,-682"/>
<polygon fill="#666666" stroke="#666666" points="233.5,-667 233.5,-667 448.5,-667 448.5,-667 233.5,-667"/>
<polygon fill="none" stroke="#666666" points="233,-343 233,-743 448,-743 448,-343 233,-343"/>
</a>
</g>
</g>
<!-- Node1&#45;&gt;Node4 -->
<g id="edge3_Node000001_Node000004" class="edge">
<title>Node1&#45;&gt;Node4</title>
<g id="a_edge3_Node000001_Node000004"><a xlink:title=" ">
<path fill="none" stroke="#63b8ff" d="M240.47,-769.71C244.02,-761.7 247.99,-752.73 252.25,-743.12"/>
<polygon fill="none" stroke="#63b8ff" points="237.21,-768.43 236.36,-778.99 243.61,-771.27 237.21,-768.43"/>
</a>
</g>
</g>
<!-- Node3 -->
<g id="Node000003" class="node">
<title>Node3</title>
<g id="a_Node000003"><a xlink:href="classtracking_1_1motion_1_1TEST__REMOVE__FINAL.html" target="_top" xlink:title=" ">
<polygon fill="white" stroke="transparent" points="318,-307 129,-307 129,0 318,0 318,-307"/>
<text text-anchor="start" x="134.5" y="-294.5" font-family="Helvetica,sans-Serif" font-size="10.00">tracking::motion::TEST</text>
<text text-anchor="start" x="134.5" y="-283.5" font-family="Helvetica,sans-Serif" font-size="10.00">_REMOVE_FINAL&lt; CovarianceMatrix</text>
<text text-anchor="start" x="201" y="-272.5" font-family="Helvetica,sans-Serif" font-size="10.00">Policy_ &gt;</text>
<text text-anchor="start" x="145.5" y="-257.5" font-family="Helvetica,sans-Serif" font-size="10.00">+</text>
<text text-anchor="start" x="170.5" y="-257.5" font-family="Helvetica,sans-Serif" font-size="10.00">NUM_AUG_PROC_NOISE</text>
<text text-anchor="start" x="170.5" y="-246.5" font-family="Helvetica,sans-Serif" font-size="10.00">_VARIABLES</text>
<text text-anchor="start" x="145.5" y="-231.5" font-family="Helvetica,sans-Serif" font-size="10.00">+</text>
<text text-anchor="start" x="170.5" y="-231.5" font-family="Helvetica,sans-Serif" font-size="10.00">MotionModelCA()</text>
<text text-anchor="start" x="145.5" y="-216.5" font-family="Helvetica,sans-Serif" font-size="10.00">+</text>
<text text-anchor="start" x="170.5" y="-216.5" font-family="Helvetica,sans-Serif" font-size="10.00">MotionModelCA()</text>
<text text-anchor="start" x="145.5" y="-201.5" font-family="Helvetica,sans-Serif" font-size="10.00">+</text>
<text text-anchor="start" x="170.5" y="-201.5" font-family="Helvetica,sans-Serif" font-size="10.00">MotionModelCA()</text>
<text text-anchor="start" x="145.5" y="-186.5" font-family="Helvetica,sans-Serif" font-size="10.00">+</text>
<text text-anchor="start" x="170.5" y="-186.5" font-family="Helvetica,sans-Serif" font-size="10.00">operator=()</text>
<text text-anchor="start" x="145.5" y="-171.5" font-family="Helvetica,sans-Serif" font-size="10.00">+</text>
<text text-anchor="start" x="170.5" y="-171.5" font-family="Helvetica,sans-Serif" font-size="10.00">operator=()</text>
<text text-anchor="start" x="145.5" y="-156.5" font-family="Helvetica,sans-Serif" font-size="10.00">+</text>
<text text-anchor="start" x="170.5" y="-156.5" font-family="Helvetica,sans-Serif" font-size="10.00">~MotionModelCA()</text>
<text text-anchor="start" x="145.5" y="-141.5" font-family="Helvetica,sans-Serif" font-size="10.00">+</text>
<text text-anchor="start" x="170.5" y="-141.5" font-family="Helvetica,sans-Serif" font-size="10.00">getVx()</text>
<text text-anchor="start" x="145.5" y="-126.5" font-family="Helvetica,sans-Serif" font-size="10.00">+</text>
<text text-anchor="start" x="170.5" y="-126.5" font-family="Helvetica,sans-Serif" font-size="10.00">getVy()</text>
<text text-anchor="start" x="145.5" y="-111.5" font-family="Helvetica,sans-Serif" font-size="10.00">+</text>
<text text-anchor="start" x="170.5" y="-111.5" font-family="Helvetica,sans-Serif" font-size="10.00">getAx()</text>
<text text-anchor="start" x="145.5" y="-96.5" font-family="Helvetica,sans-Serif" font-size="10.00">+</text>
<text text-anchor="start" x="170.5" y="-96.5" font-family="Helvetica,sans-Serif" font-size="10.00">getAy()</text>
<text text-anchor="start" x="170.5" y="-81.5" font-family="Helvetica,sans-Serif" font-size="10.00">and 21 more...</text>
<text text-anchor="start" x="145.5" y="-66.5" font-family="Helvetica,sans-Serif" font-size="10.00">+</text>
<text text-anchor="start" x="170.5" y="-66.5" font-family="Helvetica,sans-Serif" font-size="10.00">computeQ()</text>
<text text-anchor="start" x="145.5" y="-51.5" font-family="Helvetica,sans-Serif" font-size="10.00">+</text>
<text text-anchor="start" x="170.5" y="-51.5" font-family="Helvetica,sans-Serif" font-size="10.00">computeG()</text>
<text text-anchor="start" x="145.5" y="-36.5" font-family="Helvetica,sans-Serif" font-size="10.00">+</text>
<text text-anchor="start" x="170.5" y="-36.5" font-family="Helvetica,sans-Serif" font-size="10.00">computeQ()</text>
<text text-anchor="start" x="145.5" y="-21.5" font-family="Helvetica,sans-Serif" font-size="10.00">+</text>
<text text-anchor="start" x="170.5" y="-21.5" font-family="Helvetica,sans-Serif" font-size="10.00">computeG()</text>
<text text-anchor="start" x="148" y="-6.5" font-family="Helvetica,sans-Serif" font-size="10.00">&#45;</text>
<text text-anchor="start" x="170.5" y="-6.5" font-family="Helvetica,sans-Serif" font-size="10.00">MotionModelCA()</text>
<polygon fill="#666666" stroke="#666666" points="129.5,-267.5 129.5,-267.5 318.5,-267.5 318.5,-267.5 129.5,-267.5"/>
<polygon fill="#666666" stroke="#666666" points="129.5,-241.5 129.5,-241.5 168.5,-241.5 168.5,-241.5 129.5,-241.5"/>
<polygon fill="#666666" stroke="#666666" points="168.5,-241.5 168.5,-241.5 318.5,-241.5 318.5,-241.5 168.5,-241.5"/>
<polygon fill="none" stroke="#666666" points="129,0 129,-307 318,-307 318,0 129,0"/>
</a>
</g>
</g>
<!-- Node2&#45;&gt;Node3 -->
<g id="edge2_Node000002_Node000003" class="edge">
<title>Node2&#45;&gt;Node3</title>
<g id="a_edge2_Node000002_Node000003"><a xlink:title=" ">
<path fill="none" stroke="#63b8ff" d="M170.05,-333.05C172.65,-324.37 175.24,-315.73 177.79,-307.2"/>
<polygon fill="none" stroke="#63b8ff" points="166.63,-332.27 167.11,-342.86 173.33,-334.28 166.63,-332.27"/>
</a>
</g>
</g>
<!-- Node4&#45;&gt;Node3 -->
<g id="edge4_Node000004_Node000003" class="edge">
<title>Node4&#45;&gt;Node3</title>
<g id="a_edge4_Node000004_Node000003"><a xlink:title=" ">
<path fill="none" stroke="#63b8ff" d="M277.41,-333.05C274.79,-324.37 272.18,-315.73 269.61,-307.2"/>
<polygon fill="none" stroke="#63b8ff" points="274.13,-334.3 280.37,-342.86 280.83,-332.27 274.13,-334.3"/>
</a>
</g>
</g>
</g>
</svg>

<g id="navigator" transform="translate(0 0)" fill="#404254">
  <rect fill="#f2f5e9" fill-opacity="0.5" stroke="#606060" stroke-width=".5" x="0" y="0" width="60" height="60"/>
  <use id="zoomplus" xlink:href="#zoomPlus" x="17" y="9" onmousedown="handleZoom(evt,'in')"/>
  <use id="zoomminus" xlink:href="#zoomMin" x="42" y="9" onmousedown="handleZoom(evt,'out')"/>
  <use id="reset" xlink:href="#resetDef" x="30" y="36" onmousedown="handleReset()"/>
   <use id="arrowup" xlink:href="#arrowUp" x="0" y="0" onmousedown="handlePan(0,-1)"/>
  <use id="arrowright" xlink:href="#arrowRight" x="0" y="0" onmousedown="handlePan(1,0)"/>
  <use id="arrowdown" xlink:href="#arrowDown" x="0" y="0" onmousedown="handlePan(0,1)"/>
  <use id="arrowleft" xlink:href="#arrowLeft" x="0" y="0" onmousedown="handlePan(-1,0)"/>
</g>
<svg viewBox="0 0 15 15" width="100%" height="30px" preserveAspectRatio="xMaxYMin meet">
 <g id="arrow_out" transform="scale(0.3 0.3)">
  <a xlink:href="structtracking_1_1motion_1_1contract_1_1MotionModelIntf__inherit__graph_org.svg" target="_base">
   <rect id="button" ry="5" rx="5" y="6" x="6" height="38" width="38"
        fill="#f2f5e9" fill-opacity="0.5" stroke="#606060" stroke-width="1.0"/>
   <path id="arrow"
     d="M 11.500037,31.436501 C 11.940474,20.09759 22.043105,11.32322 32.158766,21.979434 L 37.068811,17.246167 C 37.068811,17.246167 37.088388,32 37.088388,32 L 22.160133,31.978069 C 22.160133,31.978069 26.997745,27.140456 26.997745,27.140456 C 18.528582,18.264221 13.291696,25.230495 11.500037,31.436501 z"
     style="fill:#404040;"/>
  </a>
 </g>
</svg>

<style type='text/css'>
<![CDATA[
[data-mouse-over-selected='false'] { opacity: 0.7; }
[data-mouse-over-selected='true']  { opacity: 1.0; }
]]>
</style>
<script type="application/ecmascript"><![CDATA[
document.addEventListener('DOMContentLoaded', (event) => {
  highlightEdges();
  highlightAdjacentNodes();
});
]]></script>
</svg>
