<?xml version="1.0" encoding="UTF-8" standalone="no"?>
<!DOCTYPE svg PUBLIC "-//W3C//DTD SVG 1.1//EN"
 "http://www.w3.org/Graphics/SVG/1.1/DTD/svg11.dtd">
<!-- Generated by graphviz version 2.43.0 (0)
 -->
<!-- Title: tracking::motion::detail::has_position&lt; StateDef_, std::void_t&lt; decltype(StateDef_::X), decltype(StateDef_::Y)&gt; &gt; Pages: 1 -->
<svg width="222pt" height="175pt"
 viewBox="0.00 0.00 222.00 175.00" xmlns="http://www.w3.org/2000/svg" xmlns:xlink="http://www.w3.org/1999/xlink">
<g id="graph0" class="graph" transform="scale(1 1) rotate(0) translate(4 171)">
<title>tracking::motion::detail::has_position&lt; StateDef_, std::void_t&lt; decltype(StateDef_::X), decltype(StateDef_::Y)&gt; &gt;</title>
<!-- Node1 -->
<g id="Node000001" class="node">
<title>Node1</title>
<g id="a_Node000001"><a xlink:title="Specialization matching StateDefs that provide X and Y enumerators.">
<polygon fill="#999999" stroke="transparent" points="214,-82 0,-82 0,0 214,0 214,-82"/>
<text text-anchor="start" x="5" y="-70" font-family="Helvetica,sans-Serif" font-size="10.00">tracking::motion::detail</text>
<text text-anchor="start" x="5" y="-59" font-family="Helvetica,sans-Serif" font-size="10.00">::has_position&lt; StateDef</text>
<text text-anchor="start" x="5" y="-48" font-family="Helvetica,sans-Serif" font-size="10.00">_, std::void_t&lt; decltype</text>
<text text-anchor="start" x="5" y="-37" font-family="Helvetica,sans-Serif" font-size="10.00">(StateDef_::X), decltype(StateDef_::Y)&gt; &gt;</text>
<text text-anchor="start" x="105" y="-22" font-family="Helvetica,sans-Serif" font-size="10.00"> </text>
<text text-anchor="start" x="105" y="-7" font-family="Helvetica,sans-Serif" font-size="10.00"> </text>
<polygon fill="#666666" stroke="#666666" points="0,-32 0,-32 214,-32 214,-32 0,-32"/>
<polygon fill="#666666" stroke="#666666" points="0,-17 0,-17 214,-17 214,-17 0,-17"/>
<polygon fill="none" stroke="#666666" points="0,0 0,-82 214,-82 214,0 0,0"/>
</a>
</g>
</g>
<!-- Node2 -->
<g id="Node000002" class="node">
<title>Node2</title>
<g id="a_Node000002"><a xlink:title=" ">
<polygon fill="white" stroke="transparent" points="146,-167 68,-167 68,-118 146,-118 146,-167"/>
<text text-anchor="start" x="73" y="-154.5" font-family="Helvetica,sans-Serif" font-size="10.00">std::true_type</text>
<text text-anchor="start" x="105" y="-139.5" font-family="Helvetica,sans-Serif" font-size="10.00"> </text>
<text text-anchor="start" x="105" y="-124.5" font-family="Helvetica,sans-Serif" font-size="10.00"> </text>
<polygon fill="#666666" stroke="#666666" points="68,-149.5 68,-149.5 146,-149.5 146,-149.5 68,-149.5"/>
<polygon fill="#666666" stroke="#666666" points="68,-134.5 68,-134.5 146,-134.5 146,-134.5 68,-134.5"/>
<polygon fill="none" stroke="#666666" points="68,-118 68,-167 146,-167 146,-118 68,-118"/>
</a>
</g>
</g>
<!-- Node2&#45;&gt;Node1 -->
<g id="edge1_Node000001_Node000002" class="edge">
<title>Node2&#45;&gt;Node1</title>
<g id="a_edge1_Node000001_Node000002"><a xlink:title=" ">
<path fill="none" stroke="#63b8ff" d="M107,-107.88C107,-99.62 107,-90.68 107,-82.14"/>
<polygon fill="none" stroke="#63b8ff" points="103.5,-107.92 107,-117.92 110.5,-107.92 103.5,-107.92"/>
</a>
</g>
</g>
</g>
</svg>
