<?xml version="1.0" encoding="UTF-8" standalone="no"?>
<!DOCTYPE svg PUBLIC "-//W3C//DTD SVG 1.1//EN"
 "http://www.w3.org/Graphics/SVG/1.1/DTD/svg11.dtd">
<!-- Generated by graphviz version 2.43.0 (0)
 -->
<!-- Title: tracking::observation::contract::ObservationModelIntf&lt; ImplType &gt; Pages: 1 -->
<svg width="1500pt" height="682pt"
 viewBox="0.00 0.00 1500.00 682.00" xmlns="http://www.w3.org/2000/svg" xmlns:xlink="http://www.w3.org/1999/xlink">
<g id="graph0" class="graph" transform="scale(1 1) rotate(0) translate(4 678)">
<title>tracking::observation::contract::ObservationModelIntf&lt; ImplType &gt;</title>
<!-- Node1 -->
<g id="Node000001" class="node">
<title>Node1</title>
<g id="a_Node000001"><a xlink:title="Static interface contract for concrete observation models (CRTP)">
<polygon fill="#999999" stroke="transparent" points="817.5,-674 665.5,-674 665.5,-603 817.5,-603 817.5,-674"/>
<text text-anchor="start" x="670.5" y="-661.5" font-family="Helvetica,sans-Serif" font-size="10.00">tracking::observation</text>
<text text-anchor="start" x="670.5" y="-650.5" font-family="Helvetica,sans-Serif" font-size="10.00">::contract::ObservationModel</text>
<text text-anchor="start" x="699.5" y="-639.5" font-family="Helvetica,sans-Serif" font-size="10.00">Intf&lt; ImplType &gt;</text>
<text text-anchor="start" x="739.5" y="-624.5" font-family="Helvetica,sans-Serif" font-size="10.00"> </text>
<text text-anchor="start" x="673.5" y="-609.5" font-family="Helvetica,sans-Serif" font-size="10.00">+</text>
<text text-anchor="start" x="690.5" y="-609.5" font-family="Helvetica,sans-Serif" font-size="10.00">ObservationModelIntf()</text>
<polygon fill="#666666" stroke="#666666" points="665.5,-634.5 665.5,-634.5 817.5,-634.5 817.5,-634.5 665.5,-634.5"/>
<polygon fill="#666666" stroke="#666666" points="665.5,-619.5 665.5,-619.5 817.5,-619.5 817.5,-619.5 665.5,-619.5"/>
<polygon fill="none" stroke="#666666" points="665.5,-603 665.5,-674 817.5,-674 817.5,-603 665.5,-603"/>
</a>
</g>
</g>
<!-- Node2 -->
<g id="Node000002" class="node">
<title>Node2</title>
<g id="a_Node000002"><a xlink:href="classtracking_1_1observation_1_1ExtendedObservationModel.html" target="_top" xlink:title=" ">
<polygon fill="white" stroke="transparent" points="231,-567 0,-567 0,-268 231,-268 231,-567"/>
<text text-anchor="start" x="5.5" y="-554.5" font-family="Helvetica,sans-Serif" font-size="10.00">tracking::observation</text>
<text text-anchor="start" x="5.5" y="-543.5" font-family="Helvetica,sans-Serif" font-size="10.00">::ExtendedObservationModel</text>
<text text-anchor="start" x="5.5" y="-532.5" font-family="Helvetica,sans-Serif" font-size="10.00">&lt; BearingObservationModel</text>
<text text-anchor="start" x="5.5" y="-521.5" font-family="Helvetica,sans-Serif" font-size="10.00">&lt; CovarianceMatrixPolicy_,</text>
<text text-anchor="start" x="5.5" y="-510.5" font-family="Helvetica,sans-Serif" font-size="10.00"> StateDef_ &gt;, ObservationModelTraits</text>
<text text-anchor="start" x="5.5" y="-499.5" font-family="Helvetica,sans-Serif" font-size="10.00">&lt; CovarianceMatrixPolicy_, StateDef_, 1 &gt; &gt;</text>
<text text-anchor="start" x="19" y="-484.5" font-family="Helvetica,sans-Serif" font-size="10.00">+</text>
<text text-anchor="start" x="46.5" y="-484.5" font-family="Helvetica,sans-Serif" font-size="10.00">DimZ</text>
<text text-anchor="start" x="19" y="-469.5" font-family="Helvetica,sans-Serif" font-size="10.00">+</text>
<text text-anchor="start" x="46.5" y="-469.5" font-family="Helvetica,sans-Serif" font-size="10.00">DimX</text>
<text text-anchor="start" x="19" y="-454.5" font-family="Helvetica,sans-Serif" font-size="10.00">+</text>
<text text-anchor="start" x="46.5" y="-454.5" font-family="Helvetica,sans-Serif" font-size="10.00">ExtendedObservationModel()</text>
<text text-anchor="start" x="19" y="-439.5" font-family="Helvetica,sans-Serif" font-size="10.00">+</text>
<text text-anchor="start" x="46.5" y="-439.5" font-family="Helvetica,sans-Serif" font-size="10.00">~ExtendedObservationModel()</text>
<text text-anchor="start" x="19" y="-424.5" font-family="Helvetica,sans-Serif" font-size="10.00">+</text>
<text text-anchor="start" x="46.5" y="-424.5" font-family="Helvetica,sans-Serif" font-size="10.00">getDim()</text>
<text text-anchor="start" x="19" y="-409.5" font-family="Helvetica,sans-Serif" font-size="10.00">+</text>
<text text-anchor="start" x="46.5" y="-409.5" font-family="Helvetica,sans-Serif" font-size="10.00">computeInnovation()</text>
<text text-anchor="start" x="19" y="-394.5" font-family="Helvetica,sans-Serif" font-size="10.00">+</text>
<text text-anchor="start" x="46.5" y="-394.5" font-family="Helvetica,sans-Serif" font-size="10.00">MeasurementVecFromList()</text>
<text text-anchor="start" x="19" y="-379.5" font-family="Helvetica,sans-Serif" font-size="10.00">+</text>
<text text-anchor="start" x="46.5" y="-379.5" font-family="Helvetica,sans-Serif" font-size="10.00">MeasurementCovFromList()</text>
<text text-anchor="start" x="19" y="-364.5" font-family="Helvetica,sans-Serif" font-size="10.00">+</text>
<text text-anchor="start" x="46.5" y="-364.5" font-family="Helvetica,sans-Serif" font-size="10.00">MeasurementCovFromList()</text>
<text text-anchor="start" x="19" y="-349.5" font-family="Helvetica,sans-Serif" font-size="10.00">+</text>
<text text-anchor="start" x="46.5" y="-349.5" font-family="Helvetica,sans-Serif" font-size="10.00">FromLists()</text>
<text text-anchor="start" x="19" y="-334.5" font-family="Helvetica,sans-Serif" font-size="10.00">#</text>
<text text-anchor="start" x="46.5" y="-334.5" font-family="Helvetica,sans-Serif" font-size="10.00">ExtendedObservationModel()</text>
<text text-anchor="start" x="19" y="-319.5" font-family="Helvetica,sans-Serif" font-size="10.00">#</text>
<text text-anchor="start" x="46.5" y="-319.5" font-family="Helvetica,sans-Serif" font-size="10.00">ExtendedObservationModel()</text>
<text text-anchor="start" x="19" y="-304.5" font-family="Helvetica,sans-Serif" font-size="10.00">#</text>
<text text-anchor="start" x="46.5" y="-304.5" font-family="Helvetica,sans-Serif" font-size="10.00">ExtendedObservationModel()</text>
<text text-anchor="start" x="19" y="-289.5" font-family="Helvetica,sans-Serif" font-size="10.00">#</text>
<text text-anchor="start" x="46.5" y="-289.5" font-family="Helvetica,sans-Serif" font-size="10.00">operator=()</text>
<text text-anchor="start" x="19" y="-274.5" font-family="Helvetica,sans-Serif" font-size="10.00">#</text>
<text text-anchor="start" x="46.5" y="-274.5" font-family="Helvetica,sans-Serif" font-size="10.00">operator=()</text>
<polygon fill="#666666" stroke="#666666" points="0.5,-494.5 0.5,-494.5 231.5,-494.5 231.5,-494.5 0.5,-494.5"/>
<polygon fill="#666666" stroke="#666666" points="0.5,-464.5 0.5,-464.5 44.5,-464.5 44.5,-464.5 0.5,-464.5"/>
<polygon fill="#666666" stroke="#666666" points="44.5,-464.5 44.5,-464.5 231.5,-464.5 231.5,-464.5 44.5,-464.5"/>
<polygon fill="none" stroke="#666666" points="0,-268 0,-567 231,-567 231,-268 0,-268"/>
</a>
</g>
</g>
<!-- Node1&#45;&gt;Node2 -->
<g id="edge1_Node000001_Node000002" class="edge">
<title>Node1&#45;&gt;Node2</title>
<g id="a_edge1_Node000001_Node000002"><a xlink:title=" ">
<path fill="none" stroke="#63b8ff" d="M655.23,-632.84C531.03,-624.9 309.08,-605.68 239.5,-567 236.71,-565.45 233.96,-563.81 231.24,-562.09"/>
<polygon fill="none" stroke="#63b8ff" points="655.27,-636.35 665.47,-633.49 655.71,-629.37 655.27,-636.35"/>
</a>
</g>
</g>
<!-- Node4 -->
<g id="Node000004" class="node">
<title>Node4</title>
<g id="a_Node000004"><a xlink:href="classtracking_1_1observation_1_1ExtendedObservationModel.html" target="_top" xlink:title=" ">
<polygon fill="white" stroke="transparent" points="480,-567 249,-567 249,-268 480,-268 480,-567"/>
<text text-anchor="start" x="254.5" y="-554.5" font-family="Helvetica,sans-Serif" font-size="10.00">tracking::observation</text>
<text text-anchor="start" x="254.5" y="-543.5" font-family="Helvetica,sans-Serif" font-size="10.00">::ExtendedObservationModel</text>
<text text-anchor="start" x="254.5" y="-532.5" font-family="Helvetica,sans-Serif" font-size="10.00">&lt; PositionObservationModel</text>
<text text-anchor="start" x="254.5" y="-521.5" font-family="Helvetica,sans-Serif" font-size="10.00">&lt; CovarianceMatrixPolicy_,</text>
<text text-anchor="start" x="254.5" y="-510.5" font-family="Helvetica,sans-Serif" font-size="10.00"> StateDef_ &gt;, ObservationModelTraits</text>
<text text-anchor="start" x="254.5" y="-499.5" font-family="Helvetica,sans-Serif" font-size="10.00">&lt; CovarianceMatrixPolicy_, StateDef_, 2 &gt; &gt;</text>
<text text-anchor="start" x="268" y="-484.5" font-family="Helvetica,sans-Serif" font-size="10.00">+</text>
<text text-anchor="start" x="295.5" y="-484.5" font-family="Helvetica,sans-Serif" font-size="10.00">DimZ</text>
<text text-anchor="start" x="268" y="-469.5" font-family="Helvetica,sans-Serif" font-size="10.00">+</text>
<text text-anchor="start" x="295.5" y="-469.5" font-family="Helvetica,sans-Serif" font-size="10.00">DimX</text>
<text text-anchor="start" x="268" y="-454.5" font-family="Helvetica,sans-Serif" font-size="10.00">+</text>
<text text-anchor="start" x="295.5" y="-454.5" font-family="Helvetica,sans-Serif" font-size="10.00">ExtendedObservationModel()</text>
<text text-anchor="start" x="268" y="-439.5" font-family="Helvetica,sans-Serif" font-size="10.00">+</text>
<text text-anchor="start" x="295.5" y="-439.5" font-family="Helvetica,sans-Serif" font-size="10.00">~ExtendedObservationModel()</text>
<text text-anchor="start" x="268" y="-424.5" font-family="Helvetica,sans-Serif" font-size="10.00">+</text>
<text text-anchor="start" x="295.5" y="-424.5" font-family="Helvetica,sans-Serif" font-size="10.00">getDim()</text>
<text text-anchor="start" x="268" y="-409.5" font-family="Helvetica,sans-Serif" font-size="10.00">+</text>
<text text-anchor="start" x="295.5" y="-409.5" font-family="Helvetica,sans-Serif" font-size="10.00">computeInnovation()</text>
<text text-anchor="start" x="268" y="-394.5" font-family="Helvetica,sans-Serif" font-size="10.00">+</text>
<text text-anchor="start" x="295.5" y="-394.5" font-family="Helvetica,sans-Serif" font-size="10.00">MeasurementVecFromList()</text>
<text text-anchor="start" x="268" y="-379.5" font-family="Helvetica,sans-Serif" font-size="10.00">+</text>
<text text-anchor="start" x="295.5" y="-379.5" font-family="Helvetica,sans-Serif" font-size="10.00">MeasurementCovFromList()</text>
<text text-anchor="start" x="268" y="-364.5" font-family="Helvetica,sans-Serif" font-size="10.00">+</text>
<text text-anchor="start" x="295.5" y="-364.5" font-family="Helvetica,sans-Serif" font-size="10.00">MeasurementCovFromList()</text>
<text text-anchor="start" x="268" y="-349.5" font-family="Helvetica,sans-Serif" font-size="10.00">+</text>
<text text-anchor="start" x="295.5" y="-349.5" font-family="Helvetica,sans-Serif" font-size="10.00">FromLists()</text>
<text text-anchor="start" x="268" y="-334.5" font-family="Helvetica,sans-Serif" font-size="10.00">#</text>
<text text-anchor="start" x="295.5" y="-334.5" font-family="Helvetica,sans-Serif" font-size="10.00">ExtendedObservationModel()</text>
<text text-anchor="start" x="268" y="-319.5" font-family="Helvetica,sans-Serif" font-size="10.00">#</text>
<text text-anchor="start" x="295.5" y="-319.5" font-family="Helvetica,sans-Serif" font-size="10.00">ExtendedObservationModel()</text>
<text text-anchor="start" x="268" y="-304.5" font-family="Helvetica,sans-Serif" font-size="10.00">#</text>
<text text-anchor="start" x="295.5" y="-304.5" font-family="Helvetica,sans-Serif" font-size="10.00">ExtendedObservationModel()</text>
<text text-anchor="start" x="268" y="-289.5" font-family="Helvetica,sans-Serif" font-size="10.00">#</text>
<text text-anchor="start" x="295.5" y="-289.5" font-family="Helvetica,sans-Serif" font-size="10.00">operator=()</text>
<text text-anchor="start" x="268" y="-274.5" font-family="Helvetica,sans-Serif" font-size="10.00">#</text>
<text text-anchor="start" x="295.5" y="-274.5" font-family="Helvetica,sans-Serif" font-size="10.00">operator=()</text>
<polygon fill="#666666" stroke="#666666" points="249.5,-494.5 249.5,-494.5 480.5,-494.5 480.5,-494.5 249.5,-494.5"/>
<polygon fill="#666666" stroke="#666666" points="249.5,-464.5 249.5,-464.5 293.5,-464.5 293.5,-464.5 249.5,-464.5"/>
<polygon fill="#666666" stroke="#666666" points="293.5,-464.5 293.5,-464.5 480.5,-464.5 480.5,-464.5 293.5,-464.5"/>
<polygon fill="none" stroke="#666666" points="249,-268 249,-567 480,-567 480,-268 249,-268"/>
</a>
</g>
</g>
<!-- Node1&#45;&gt;Node4 -->
<g id="edge3_Node000001_Node000004" class="edge">
<title>Node1&#45;&gt;Node4</title>
<g id="a_edge3_Node000001_Node000004"><a xlink:title=" ">
<path fill="none" stroke="#63b8ff" d="M655.36,-626.67C603.77,-617.11 538.68,-599.41 488.5,-567 485.68,-565.18 482.89,-563.27 480.13,-561.29"/>
<polygon fill="none" stroke="#63b8ff" points="655.03,-630.17 665.48,-628.48 656.25,-623.28 655.03,-630.17"/>
</a>
</g>
</g>
<!-- Node5 -->
<g id="Node000005" class="node">
<title>Node5</title>
<g id="a_Node000005"><a xlink:href="classtracking_1_1observation_1_1ExtendedObservationModel.html" target="_top" xlink:title=" ">
<polygon fill="white" stroke="transparent" points="729,-567 498,-567 498,-268 729,-268 729,-567"/>
<text text-anchor="start" x="503.5" y="-554.5" font-family="Helvetica,sans-Serif" font-size="10.00">tracking::observation</text>
<text text-anchor="start" x="503.5" y="-543.5" font-family="Helvetica,sans-Serif" font-size="10.00">::ExtendedObservationModel</text>
<text text-anchor="start" x="503.5" y="-532.5" font-family="Helvetica,sans-Serif" font-size="10.00">&lt; RangeBearingDopplerObservation</text>
<text text-anchor="start" x="503.5" y="-521.5" font-family="Helvetica,sans-Serif" font-size="10.00">Model&lt; CovarianceMatrixPolicy</text>
<text text-anchor="start" x="503.5" y="-510.5" font-family="Helvetica,sans-Serif" font-size="10.00">_, StateDef_ &gt;, ObservationModelTraits</text>
<text text-anchor="start" x="503.5" y="-499.5" font-family="Helvetica,sans-Serif" font-size="10.00">&lt; CovarianceMatrixPolicy_, StateDef_, 3 &gt; &gt;</text>
<text text-anchor="start" x="517" y="-484.5" font-family="Helvetica,sans-Serif" font-size="10.00">+</text>
<text text-anchor="start" x="544.5" y="-484.5" font-family="Helvetica,sans-Serif" font-size="10.00">DimZ</text>
<text text-anchor="start" x="517" y="-469.5" font-family="Helvetica,sans-Serif" font-size="10.00">+</text>
<text text-anchor="start" x="544.5" y="-469.5" font-family="Helvetica,sans-Serif" font-size="10.00">DimX</text>
<text text-anchor="start" x="517" y="-454.5" font-family="Helvetica,sans-Serif" font-size="10.00">+</text>
<text text-anchor="start" x="544.5" y="-454.5" font-family="Helvetica,sans-Serif" font-size="10.00">ExtendedObservationModel()</text>
<text text-anchor="start" x="517" y="-439.5" font-family="Helvetica,sans-Serif" font-size="10.00">+</text>
<text text-anchor="start" x="544.5" y="-439.5" font-family="Helvetica,sans-Serif" font-size="10.00">~ExtendedObservationModel()</text>
<text text-anchor="start" x="517" y="-424.5" font-family="Helvetica,sans-Serif" font-size="10.00">+</text>
<text text-anchor="start" x="544.5" y="-424.5" font-family="Helvetica,sans-Serif" font-size="10.00">getDim()</text>
<text text-anchor="start" x="517" y="-409.5" font-family="Helvetica,sans-Serif" font-size="10.00">+</text>
<text text-anchor="start" x="544.5" y="-409.5" font-family="Helvetica,sans-Serif" font-size="10.00">computeInnovation()</text>
<text text-anchor="start" x="517" y="-394.5" font-family="Helvetica,sans-Serif" font-size="10.00">+</text>
<text text-anchor="start" x="544.5" y="-394.5" font-family="Helvetica,sans-Serif" font-size="10.00">MeasurementVecFromList()</text>
<text text-anchor="start" x="517" y="-379.5" font-family="Helvetica,sans-Serif" font-size="10.00">+</text>
<text text-anchor="start" x="544.5" y="-379.5" font-family="Helvetica,sans-Serif" font-size="10.00">MeasurementCovFromList()</text>
<text text-anchor="start" x="517" y="-364.5" font-family="Helvetica,sans-Serif" font-size="10.00">+</text>
<text text-anchor="start" x="544.5" y="-364.5" font-family="Helvetica,sans-Serif" font-size="10.00">MeasurementCovFromList()</text>
<text text-anchor="start" x="517" y="-349.5" font-family="Helvetica,sans-Serif" font-size="10.00">+</text>
<text text-anchor="start" x="544.5" y="-349.5" font-family="Helvetica,sans-Serif" font-size="10.00">FromLists()</text>
<text text-anchor="start" x="517" y="-334.5" font-family="Helvetica,sans-Serif" font-size="10.00">#</text>
<text text-anchor="start" x="544.5" y="-334.5" font-family="Helvetica,sans-Serif" font-size="10.00">ExtendedObservationModel()</text>
<text text-anchor="start" x="517" y="-319.5" font-family="Helvetica,sans-Serif" font-size="10.00">#</text>
<text text-anchor="start" x="544.5" y="-319.5" font-family="Helvetica,sans-Serif" font-size="10.00">ExtendedObservationModel()</text>
<text text-anchor="start" x="517" y="-304.5" font-family="Helvetica,sans-Serif" font-size="10.00">#</text>
<text text-anchor="start" x="544.5" y="-304.5" font-family="Helvetica,sans-Serif" font-size="10.00">ExtendedObservationModel()</text>
<text text-anchor="start" x="517" y="-289.5" font-family="Helvetica,sans-Serif" font-size="10.00">#</text>
<text text-anchor="start" x="544.5" y="-289.5" font-family="Helvetica,sans-Serif" font-size="10.00">operator=()</text>
<text text-anchor="start" x="517" y="-274.5" font-family="Helvetica,sans-Serif" font-size="10.00">#</text>
<text text-anchor="start" x="544.5" y="-274.5" font-family="Helvetica,sans-Serif" font-size="10.00">operator=()</text>
<polygon fill="#666666" stroke="#666666" points="498.5,-494.5 498.5,-494.5 729.5,-494.5 729.5,-494.5 498.5,-494.5"/>
<polygon fill="#666666" stroke="#666666" points="498.5,-464.5 498.5,-464.5 542.5,-464.5 542.5,-464.5 498.5,-464.5"/>
<polygon fill="#666666" stroke="#666666" points="542.5,-464.5 542.5,-464.5 729.5,-464.5 729.5,-464.5 542.5,-464.5"/>
<polygon fill="none" stroke="#666666" points="498,-268 498,-567 729,-567 729,-268 498,-268"/>
</a>
</g>
</g>
<!-- Node1&#45;&gt;Node5 -->
<g id="edge5_Node000001_Node000005" class="edge">
<title>Node1&#45;&gt;Node5</title>
<g id="a_edge5_Node000001_Node000005"><a xlink:title=" ">
<path fill="none" stroke="#63b8ff" d="M716.03,-593.92C711.25,-585.75 706.02,-576.8 700.53,-567.4"/>
<polygon fill="none" stroke="#63b8ff" points="713.15,-595.93 721.22,-602.8 719.19,-592.4 713.15,-595.93"/>
</a>
</g>
</g>
<!-- Node6 -->
<g id="Node000006" class="node">
<title>Node6</title>
<g id="a_Node000006"><a xlink:href="classtracking_1_1observation_1_1ExtendedObservationModel.html" target="_top" xlink:title=" ">
<polygon fill="white" stroke="transparent" points="993.5,-567 747.5,-567 747.5,-268 993.5,-268 993.5,-567"/>
<text text-anchor="start" x="752.5" y="-554.5" font-family="Helvetica,sans-Serif" font-size="10.00">tracking::observation</text>
<text text-anchor="start" x="752.5" y="-543.5" font-family="Helvetica,sans-Serif" font-size="10.00">::ExtendedObservationModel</text>
<text text-anchor="start" x="752.5" y="-532.5" font-family="Helvetica,sans-Serif" font-size="10.00">&lt; RangeBearingObservationModel</text>
<text text-anchor="start" x="752.5" y="-521.5" font-family="Helvetica,sans-Serif" font-size="10.00">&lt; CovarianceMatrixPolicy_, StateDef</text>
<text text-anchor="start" x="752.5" y="-510.5" font-family="Helvetica,sans-Serif" font-size="10.00">_ &gt;, ObservationModelTraits&lt; CovarianceMatrix</text>
<text text-anchor="start" x="808.5" y="-499.5" font-family="Helvetica,sans-Serif" font-size="10.00">Policy_, StateDef_, 2 &gt; &gt;</text>
<text text-anchor="start" x="770" y="-484.5" font-family="Helvetica,sans-Serif" font-size="10.00">+</text>
<text text-anchor="start" x="801.5" y="-484.5" font-family="Helvetica,sans-Serif" font-size="10.00">DimZ</text>
<text text-anchor="start" x="770" y="-469.5" font-family="Helvetica,sans-Serif" font-size="10.00">+</text>
<text text-anchor="start" x="801.5" y="-469.5" font-family="Helvetica,sans-Serif" font-size="10.00">DimX</text>
<text text-anchor="start" x="770" y="-454.5" font-family="Helvetica,sans-Serif" font-size="10.00">+</text>
<text text-anchor="start" x="801.5" y="-454.5" font-family="Helvetica,sans-Serif" font-size="10.00">ExtendedObservationModel()</text>
<text text-anchor="start" x="770" y="-439.5" font-family="Helvetica,sans-Serif" font-size="10.00">+</text>
<text text-anchor="start" x="801.5" y="-439.5" font-family="Helvetica,sans-Serif" font-size="10.00">~ExtendedObservationModel()</text>
<text text-anchor="start" x="770" y="-424.5" font-family="Helvetica,sans-Serif" font-size="10.00">+</text>
<text text-anchor="start" x="801.5" y="-424.5" font-family="Helvetica,sans-Serif" font-size="10.00">getDim()</text>
<text text-anchor="start" x="770" y="-409.5" font-family="Helvetica,sans-Serif" font-size="10.00">+</text>
<text text-anchor="start" x="801.5" y="-409.5" font-family="Helvetica,sans-Serif" font-size="10.00">computeInnovation()</text>
<text text-anchor="start" x="770" y="-394.5" font-family="Helvetica,sans-Serif" font-size="10.00">+</text>
<text text-anchor="start" x="801.5" y="-394.5" font-family="Helvetica,sans-Serif" font-size="10.00">MeasurementVecFromList()</text>
<text text-anchor="start" x="770" y="-379.5" font-family="Helvetica,sans-Serif" font-size="10.00">+</text>
<text text-anchor="start" x="801.5" y="-379.5" font-family="Helvetica,sans-Serif" font-size="10.00">MeasurementCovFromList()</text>
<text text-anchor="start" x="770" y="-364.5" font-family="Helvetica,sans-Serif" font-size="10.00">+</text>
<text text-anchor="start" x="801.5" y="-364.5" font-family="Helvetica,sans-Serif" font-size="10.00">MeasurementCovFromList()</text>
<text text-anchor="start" x="770" y="-349.5" font-family="Helvetica,sans-Serif" font-size="10.00">+</text>
<text text-anchor="start" x="801.5" y="-349.5" font-family="Helvetica,sans-Serif" font-size="10.00">FromLists()</text>
<text text-anchor="start" x="770" y="-334.5" font-family="Helvetica,sans-Serif" font-size="10.00">#</text>
<text text-anchor="start" x="801.5" y="-334.5" font-family="Helvetica,sans-Serif" font-size="10.00">ExtendedObservationModel()</text>
<text text-anchor="start" x="770" y="-319.5" font-family="Helvetica,sans-Serif" font-size="10.00">#</text>
<text text-anchor="start" x="801.5" y="-319.5" font-family="Helvetica,sans-Serif" font-size="10.00">ExtendedObservationModel()</text>
<text text-anchor="start" x="770" y="-304.5" font-family="Helvetica,sans-Serif" font-size="10.00">#</text>
<text text-anchor="start" x="801.5" y="-304.5" font-family="Helvetica,sans-Serif" font-size="10.00">ExtendedObservationModel()</text>
<text text-anchor="start" x="770" y="-289.5" font-family="Helvetica,sans-Serif" font-size="10.00">#</text>
<text text-anchor="start" x="801.5" y="-289.5" font-family="Helvetica,sans-Serif" font-size="10.00">operator=()</text>
<text text-anchor="start" x="770" y="-274.5" font-family="Helvetica,sans-Serif" font-size="10.00">#</text>
<text text-anchor="start" x="801.5" y="-274.5" font-family="Helvetica,sans-Serif" font-size="10.00">operator=()</text>
<polygon fill="#666666" stroke="#666666" points="747.5,-494.5 747.5,-494.5 993.5,-494.5 993.5,-494.5 747.5,-494.5"/>
<polygon fill="#666666" stroke="#666666" points="747.5,-464.5 747.5,-464.5 799.5,-464.5 799.5,-464.5 747.5,-464.5"/>
<polygon fill="#666666" stroke="#666666" points="799.5,-464.5 799.5,-464.5 993.5,-464.5 993.5,-464.5 799.5,-464.5"/>
<polygon fill="none" stroke="#666666" points="747.5,-268 747.5,-567 993.5,-567 993.5,-268 747.5,-268"/>
</a>
</g>
</g>
<!-- Node1&#45;&gt;Node6 -->
<g id="edge7_Node000001_Node000006" class="edge">
<title>Node1&#45;&gt;Node6</title>
<g id="a_edge7_Node000001_Node000006"><a xlink:title=" ">
<path fill="none" stroke="#63b8ff" d="M767.17,-593.92C771.98,-585.75 777.25,-576.8 782.79,-567.4"/>
<polygon fill="none" stroke="#63b8ff" points="764,-592.41 761.94,-602.8 770.03,-595.96 764,-592.41"/>
</a>
</g>
</g>
<!-- Node7 -->
<g id="Node000007" class="node">
<title>Node7</title>
<g id="a_Node000007"><a xlink:href="classtracking_1_1observation_1_1ExtendedObservationModel.html" target="_top" xlink:title=" ">
<polygon fill="white" stroke="transparent" points="1243,-567 1012,-567 1012,-268 1243,-268 1243,-567"/>
<text text-anchor="start" x="1017.5" y="-554.5" font-family="Helvetica,sans-Serif" font-size="10.00">tracking::observation</text>
<text text-anchor="start" x="1017.5" y="-543.5" font-family="Helvetica,sans-Serif" font-size="10.00">::ExtendedObservationModel</text>
<text text-anchor="start" x="1017.5" y="-532.5" font-family="Helvetica,sans-Serif" font-size="10.00">&lt; RangeObservationModel&lt;</text>
<text text-anchor="start" x="1017.5" y="-521.5" font-family="Helvetica,sans-Serif" font-size="10.00"> CovarianceMatrixPolicy_,</text>
<text text-anchor="start" x="1017.5" y="-510.5" font-family="Helvetica,sans-Serif" font-size="10.00"> StateDef_ &gt;, ObservationModelTraits</text>
<text text-anchor="start" x="1017.5" y="-499.5" font-family="Helvetica,sans-Serif" font-size="10.00">&lt; CovarianceMatrixPolicy_, StateDef_, 1 &gt; &gt;</text>
<text text-anchor="start" x="1031" y="-484.5" font-family="Helvetica,sans-Serif" font-size="10.00">+</text>
<text text-anchor="start" x="1058.5" y="-484.5" font-family="Helvetica,sans-Serif" font-size="10.00">DimZ</text>
<text text-anchor="start" x="1031" y="-469.5" font-family="Helvetica,sans-Serif" font-size="10.00">+</text>
<text text-anchor="start" x="1058.5" y="-469.5" font-family="Helvetica,sans-Serif" font-size="10.00">DimX</text>
<text text-anchor="start" x="1031" y="-454.5" font-family="Helvetica,sans-Serif" font-size="10.00">+</text>
<text text-anchor="start" x="1058.5" y="-454.5" font-family="Helvetica,sans-Serif" font-size="10.00">ExtendedObservationModel()</text>
<text text-anchor="start" x="1031" y="-439.5" font-family="Helvetica,sans-Serif" font-size="10.00">+</text>
<text text-anchor="start" x="1058.5" y="-439.5" font-family="Helvetica,sans-Serif" font-size="10.00">~ExtendedObservationModel()</text>
<text text-anchor="start" x="1031" y="-424.5" font-family="Helvetica,sans-Serif" font-size="10.00">+</text>
<text text-anchor="start" x="1058.5" y="-424.5" font-family="Helvetica,sans-Serif" font-size="10.00">getDim()</text>
<text text-anchor="start" x="1031" y="-409.5" font-family="Helvetica,sans-Serif" font-size="10.00">+</text>
<text text-anchor="start" x="1058.5" y="-409.5" font-family="Helvetica,sans-Serif" font-size="10.00">computeInnovation()</text>
<text text-anchor="start" x="1031" y="-394.5" font-family="Helvetica,sans-Serif" font-size="10.00">+</text>
<text text-anchor="start" x="1058.5" y="-394.5" font-family="Helvetica,sans-Serif" font-size="10.00">MeasurementVecFromList()</text>
<text text-anchor="start" x="1031" y="-379.5" font-family="Helvetica,sans-Serif" font-size="10.00">+</text>
<text text-anchor="start" x="1058.5" y="-379.5" font-family="Helvetica,sans-Serif" font-size="10.00">MeasurementCovFromList()</text>
<text text-anchor="start" x="1031" y="-364.5" font-family="Helvetica,sans-Serif" font-size="10.00">+</text>
<text text-anchor="start" x="1058.5" y="-364.5" font-family="Helvetica,sans-Serif" font-size="10.00">MeasurementCovFromList()</text>
<text text-anchor="start" x="1031" y="-349.5" font-family="Helvetica,sans-Serif" font-size="10.00">+</text>
<text text-anchor="start" x="1058.5" y="-349.5" font-family="Helvetica,sans-Serif" font-size="10.00">FromLists()</text>
<text text-anchor="start" x="1031" y="-334.5" font-family="Helvetica,sans-Serif" font-size="10.00">#</text>
<text text-anchor="start" x="1058.5" y="-334.5" font-family="Helvetica,sans-Serif" font-size="10.00">ExtendedObservationModel()</text>
<text text-anchor="start" x="1031" y="-319.5" font-family="Helvetica,sans-Serif" font-size="10.00">#</text>
<text text-anchor="start" x="1058.5" y="-319.5" font-family="Helvetica,sans-Serif" font-size="10.00">ExtendedObservationModel()</text>
<text text-anchor="start" x="1031" y="-304.5" font-family="Helvetica,sans-Serif" font-size="10.00">#</text>
<text text-anchor="start" x="1058.5" y="-304.5" font-family="Helvetica,sans-Serif" font-size="10.00">ExtendedObservationModel()</text>
<text text-anchor="start" x="1031" y="-289.5" font-family="Helvetica,sans-Serif" font-size="10.00">#</text>
<text text-anchor="start" x="1058.5" y="-289.5" font-family="Helvetica,sans-Serif" font-size="10.00">operator=()</text>
<text text-anchor="start" x="1031" y="-274.5" font-family="Helvetica,sans-Serif" font-size="10.00">#</text>
<text text-anchor="start" x="1058.5" y="-274.5" font-family="Helvetica,sans-Serif" font-size="10.00">operator=()</text>
<polygon fill="#666666" stroke="#666666" points="1012.5,-494.5 1012.5,-494.5 1243.5,-494.5 1243.5,-494.5 1012.5,-494.5"/>
<polygon fill="#666666" stroke="#666666" points="1012.5,-464.5 1012.5,-464.5 1056.5,-464.5 1056.5,-464.5 1012.5,-464.5"/>
<polygon fill="#666666" stroke="#666666" points="1056.5,-464.5 1056.5,-464.5 1243.5,-464.5 1243.5,-464.5 1056.5,-464.5"/>
<polygon fill="none" stroke="#666666" points="1012,-268 1012,-567 1243,-567 1243,-268 1012,-268"/>
</a>
</g>
</g>
<!-- Node1&#45;&gt;Node7 -->
<g id="edge9_Node000001_Node000007" class="edge">
<title>Node1&#45;&gt;Node7</title>
<g id="a_edge9_Node000001_Node000007"><a xlink:title=" ">
<path fill="none" stroke="#63b8ff" d="M827.7,-627.59C881.3,-618.32 949.79,-600.6 1002.5,-567 1005.63,-565.01 1008.71,-562.91 1011.76,-560.73"/>
<polygon fill="none" stroke="#63b8ff" points="826.82,-624.18 817.53,-629.28 827.97,-631.09 826.82,-624.18"/>
</a>
</g>
</g>
<!-- Node8 -->
<g id="Node000008" class="node">
<title>Node8</title>
<g id="a_Node000008"><a xlink:href="classtracking_1_1observation_1_1ExtendedObservationModel.html" target="_top" xlink:title=" ">
<polygon fill="white" stroke="transparent" points="1492,-567 1261,-567 1261,-268 1492,-268 1492,-567"/>
<text text-anchor="start" x="1266.5" y="-554.5" font-family="Helvetica,sans-Serif" font-size="10.00">tracking::observation</text>
<text text-anchor="start" x="1266.5" y="-543.5" font-family="Helvetica,sans-Serif" font-size="10.00">::ExtendedObservationModel</text>
<text text-anchor="start" x="1266.5" y="-532.5" font-family="Helvetica,sans-Serif" font-size="10.00">&lt; VelocityObservationModel</text>
<text text-anchor="start" x="1266.5" y="-521.5" font-family="Helvetica,sans-Serif" font-size="10.00">&lt; CovarianceMatrixPolicy_,</text>
<text text-anchor="start" x="1266.5" y="-510.5" font-family="Helvetica,sans-Serif" font-size="10.00"> StateDef_ &gt;, ObservationModelTraits</text>
<text text-anchor="start" x="1266.5" y="-499.5" font-family="Helvetica,sans-Serif" font-size="10.00">&lt; CovarianceMatrixPolicy_, StateDef_, 2 &gt; &gt;</text>
<text text-anchor="start" x="1280" y="-484.5" font-family="Helvetica,sans-Serif" font-size="10.00">+</text>
<text text-anchor="start" x="1307.5" y="-484.5" font-family="Helvetica,sans-Serif" font-size="10.00">DimZ</text>
<text text-anchor="start" x="1280" y="-469.5" font-family="Helvetica,sans-Serif" font-size="10.00">+</text>
<text text-anchor="start" x="1307.5" y="-469.5" font-family="Helvetica,sans-Serif" font-size="10.00">DimX</text>
<text text-anchor="start" x="1280" y="-454.5" font-family="Helvetica,sans-Serif" font-size="10.00">+</text>
<text text-anchor="start" x="1307.5" y="-454.5" font-family="Helvetica,sans-Serif" font-size="10.00">ExtendedObservationModel()</text>
<text text-anchor="start" x="1280" y="-439.5" font-family="Helvetica,sans-Serif" font-size="10.00">+</text>
<text text-anchor="start" x="1307.5" y="-439.5" font-family="Helvetica,sans-Serif" font-size="10.00">~ExtendedObservationModel()</text>
<text text-anchor="start" x="1280" y="-424.5" font-family="Helvetica,sans-Serif" font-size="10.00">+</text>
<text text-anchor="start" x="1307.5" y="-424.5" font-family="Helvetica,sans-Serif" font-size="10.00">getDim()</text>
<text text-anchor="start" x="1280" y="-409.5" font-family="Helvetica,sans-Serif" font-size="10.00">+</text>
<text text-anchor="start" x="1307.5" y="-409.5" font-family="Helvetica,sans-Serif" font-size="10.00">computeInnovation()</text>
<text text-anchor="start" x="1280" y="-394.5" font-family="Helvetica,sans-Serif" font-size="10.00">+</text>
<text text-anchor="start" x="1307.5" y="-394.5" font-family="Helvetica,sans-Serif" font-size="10.00">MeasurementVecFromList()</text>
<text text-anchor="start" x="1280" y="-379.5" font-family="Helvetica,sans-Serif" font-size="10.00">+</text>
<text text-anchor="start" x="1307.5" y="-379.5" font-family="Helvetica,sans-Serif" font-size="10.00">MeasurementCovFromList()</text>
<text text-anchor="start" x="1280" y="-364.5" font-family="Helvetica,sans-Serif" font-size="10.00">+</text>
<text text-anchor="start" x="1307.5" y="-364.5" font-family="Helvetica,sans-Serif" font-size="10.00">MeasurementCovFromList()</text>
<text text-anchor="start" x="1280" y="-349.5" font-family="Helvetica,sans-Serif" font-size="10.00">+</text>
<text text-anchor="start" x="1307.5" y="-349.5" font-family="Helvetica,sans-Serif" font-size="10.00">FromLists()</text>
<text text-anchor="start" x="1280" y="-334.5" font-family="Helvetica,sans-Serif" font-size="10.00">#</text>
<text text-anchor="start" x="1307.5" y="-334.5" font-family="Helvetica,sans-Serif" font-size="10.00">ExtendedObservationModel()</text>
<text text-anchor="start" x="1280" y="-319.5" font-family="Helvetica,sans-Serif" font-size="10.00">#</text>
<text text-anchor="start" x="1307.5" y="-319.5" font-family="Helvetica,sans-Serif" font-size="10.00">ExtendedObservationModel()</text>
<text text-anchor="start" x="1280" y="-304.5" font-family="Helvetica,sans-Serif" font-size="10.00">#</text>
<text text-anchor="start" x="1307.5" y="-304.5" font-family="Helvetica,sans-Serif" font-size="10.00">ExtendedObservationModel()</text>
<text text-anchor="start" x="1280" y="-289.5" font-family="Helvetica,sans-Serif" font-size="10.00">#</text>
<text text-anchor="start" x="1307.5" y="-289.5" font-family="Helvetica,sans-Serif" font-size="10.00">operator=()</text>
<text text-anchor="start" x="1280" y="-274.5" font-family="Helvetica,sans-Serif" font-size="10.00">#</text>
<text text-anchor="start" x="1307.5" y="-274.5" font-family="Helvetica,sans-Serif" font-size="10.00">operator=()</text>
<polygon fill="#666666" stroke="#666666" points="1261.5,-494.5 1261.5,-494.5 1492.5,-494.5 1492.5,-494.5 1261.5,-494.5"/>
<polygon fill="#666666" stroke="#666666" points="1261.5,-464.5 1261.5,-464.5 1305.5,-464.5 1305.5,-464.5 1261.5,-464.5"/>
<polygon fill="#666666" stroke="#666666" points="1305.5,-464.5 1305.5,-464.5 1492.5,-464.5 1492.5,-464.5 1305.5,-464.5"/>
<polygon fill="none" stroke="#666666" points="1261,-268 1261,-567 1492,-567 1492,-268 1261,-268"/>
</a>
</g>
</g>
<!-- Node1&#45;&gt;Node8 -->
<g id="edge11_Node000001_Node000008" class="edge">
<title>Node1&#45;&gt;Node8</title>
<g id="a_edge11_Node000001_Node000008"><a xlink:title=" ">
<path fill="none" stroke="#63b8ff" d="M827.91,-633.08C954.06,-625.38 1181.38,-606.41 1252.5,-567 1255.29,-565.45 1258.05,-563.82 1260.76,-562.1"/>
<polygon fill="none" stroke="#63b8ff" points="827.66,-629.59 817.89,-633.68 828.08,-636.58 827.66,-629.59"/>
</a>
</g>
</g>
<!-- Node3 -->
<g id="Node000003" class="node">
<title>Node3</title>
<g id="a_Node000003"><a xlink:href="classtracking_1_1observation_1_1TEST__REMOVE__FINAL.html" target="_top" xlink:title="Observation model for a polar bearing&#45;only measurement.">
<polygon fill="white" stroke="transparent" points="823.5,-232 659.5,-232 659.5,0 823.5,0 823.5,-232"/>
<text text-anchor="start" x="681.5" y="-220" font-family="Helvetica,sans-Serif" font-size="10.00">tracking::observation</text>
<text text-anchor="start" x="681.5" y="-209" font-family="Helvetica,sans-Serif" font-size="10.00">::TEST_REMOVE_FINAL&lt;</text>
<text text-anchor="start" x="681.5" y="-198" font-family="Helvetica,sans-Serif" font-size="10.00"> CovarianceMatrixPolicy</text>
<text text-anchor="start" x="706" y="-187" font-family="Helvetica,sans-Serif" font-size="10.00">_, StateDef_ &gt;</text>
<text text-anchor="start" x="663.5" y="-172" font-family="Helvetica,sans-Serif" font-size="10.00">+</text>
<text text-anchor="start" x="676.5" y="-172" font-family="Helvetica,sans-Serif" font-size="10.00">RANGE_SQ_MIN</text>
<text text-anchor="start" x="663.5" y="-157" font-family="Helvetica,sans-Serif" font-size="10.00">+</text>
<text text-anchor="start" x="676.5" y="-157" font-family="Helvetica,sans-Serif" font-size="10.00">BearingObservationModel()</text>
<text text-anchor="start" x="663.5" y="-142" font-family="Helvetica,sans-Serif" font-size="10.00">+</text>
<text text-anchor="start" x="676.5" y="-142" font-family="Helvetica,sans-Serif" font-size="10.00">BearingObservationModel()</text>
<text text-anchor="start" x="663.5" y="-127" font-family="Helvetica,sans-Serif" font-size="10.00">+</text>
<text text-anchor="start" x="676.5" y="-127" font-family="Helvetica,sans-Serif" font-size="10.00">BearingObservationModel()</text>
<text text-anchor="start" x="663.5" y="-112" font-family="Helvetica,sans-Serif" font-size="10.00">+</text>
<text text-anchor="start" x="676.5" y="-112" font-family="Helvetica,sans-Serif" font-size="10.00">operator=()</text>
<text text-anchor="start" x="663.5" y="-97" font-family="Helvetica,sans-Serif" font-size="10.00">+</text>
<text text-anchor="start" x="676.5" y="-97" font-family="Helvetica,sans-Serif" font-size="10.00">operator=()</text>
<text text-anchor="start" x="663.5" y="-82" font-family="Helvetica,sans-Serif" font-size="10.00">+</text>
<text text-anchor="start" x="676.5" y="-82" font-family="Helvetica,sans-Serif" font-size="10.00">~BearingObservationModel()</text>
<text text-anchor="start" x="663.5" y="-67" font-family="Helvetica,sans-Serif" font-size="10.00">+</text>
<text text-anchor="start" x="676.5" y="-67" font-family="Helvetica,sans-Serif" font-size="10.00">BearingObservationModel()</text>
<text text-anchor="start" x="663.5" y="-52" font-family="Helvetica,sans-Serif" font-size="10.00">+</text>
<text text-anchor="start" x="676.5" y="-52" font-family="Helvetica,sans-Serif" font-size="10.00">predictMeasurement()</text>
<text text-anchor="start" x="663.5" y="-37" font-family="Helvetica,sans-Serif" font-size="10.00">+</text>
<text text-anchor="start" x="676.5" y="-37" font-family="Helvetica,sans-Serif" font-size="10.00">computeJacobian()</text>
<text text-anchor="start" x="663.5" y="-22" font-family="Helvetica,sans-Serif" font-size="10.00">+</text>
<text text-anchor="start" x="676.5" y="-22" font-family="Helvetica,sans-Serif" font-size="10.00">computeInnovation()</text>
<text text-anchor="start" x="676.5" y="-7" font-family="Helvetica,sans-Serif" font-size="10.00">and 47 more...</text>
<polygon fill="#666666" stroke="#666666" points="659.5,-182 659.5,-182 823.5,-182 823.5,-182 659.5,-182"/>
<polygon fill="#666666" stroke="#666666" points="659.5,-167 659.5,-167 674.5,-167 674.5,-167 659.5,-167"/>
<polygon fill="#666666" stroke="#666666" points="674.5,-167 674.5,-167 823.5,-167 823.5,-167 674.5,-167"/>
<polygon fill="none" stroke="#666666" points="659.5,0 659.5,-232 823.5,-232 823.5,0 659.5,0"/>
</a>
</g>
</g>
<!-- Node2&#45;&gt;Node3 -->
<g id="edge2_Node000002_Node000003" class="edge">
<title>Node2&#45;&gt;Node3</title>
<g id="a_edge2_Node000002_Node000003"><a xlink:title=" ">
<path fill="none" stroke="#63b8ff" d="M239.24,-268.17C239.32,-268.12 239.41,-268.06 239.5,-268 371.08,-181.11 554.48,-142.67 659.3,-126.9"/>
<polygon fill="none" stroke="#63b8ff" points="237.38,-265.2 231.18,-273.79 241.39,-270.94 237.38,-265.2"/>
</a>
</g>
</g>
<!-- Node4&#45;&gt;Node3 -->
<g id="edge4_Node000004_Node000003" class="edge">
<title>Node4&#45;&gt;Node3</title>
<g id="a_edge4_Node000004_Node000003"><a xlink:title=" ">
<path fill="none" stroke="#63b8ff" d="M487.71,-268.68C487.97,-268.45 488.24,-268.22 488.5,-268 540.63,-223.5 607.51,-184.21 659.41,-156.88"/>
<polygon fill="none" stroke="#63b8ff" points="485.29,-266.15 480.11,-275.39 489.92,-271.39 485.29,-266.15"/>
</a>
</g>
</g>
<!-- Node5&#45;&gt;Node3 -->
<g id="edge6_Node000005_Node000003" class="edge">
<title>Node5&#45;&gt;Node3</title>
<g id="a_edge6_Node000005_Node000003"><a xlink:title=" ">
<path fill="none" stroke="#63b8ff" d="M681.17,-258.16C684.9,-249.44 688.61,-240.75 692.25,-232.23"/>
<polygon fill="none" stroke="#63b8ff" points="677.84,-257.06 677.13,-267.63 684.27,-259.81 677.84,-257.06"/>
</a>
</g>
</g>
<!-- Node6&#45;&gt;Node3 -->
<g id="edge8_Node000006_Node000003" class="edge">
<title>Node6&#45;&gt;Node3</title>
<g id="a_edge8_Node000006_Node000003"><a xlink:title=" ">
<path fill="none" stroke="#63b8ff" d="M802.42,-258.43C798.62,-249.62 794.84,-240.84 791.13,-232.23"/>
<polygon fill="none" stroke="#63b8ff" points="799.21,-259.83 806.38,-267.63 805.64,-257.06 799.21,-259.83"/>
</a>
</g>
</g>
<!-- Node7&#45;&gt;Node3 -->
<g id="edge10_Node000007_Node000003" class="edge">
<title>Node7&#45;&gt;Node3</title>
<g id="a_edge10_Node000007_Node000003"><a xlink:title=" ">
<path fill="none" stroke="#63b8ff" d="M1003.95,-269.22C1003.47,-268.81 1002.98,-268.41 1002.5,-268 947.85,-222.17 877.44,-182.35 823.52,-155.13"/>
<polygon fill="none" stroke="#63b8ff" points="1001.91,-272.09 1011.74,-276.03 1006.51,-266.82 1001.91,-272.09"/>
</a>
</g>
</g>
<!-- Node8&#45;&gt;Node3 -->
<g id="edge12_Node000008_Node000003" class="edge">
<title>Node8&#45;&gt;Node3</title>
<g id="a_edge12_Node000008_Node000003"><a xlink:title=" ">
<path fill="none" stroke="#63b8ff" d="M1252.76,-268.17C1252.68,-268.12 1252.59,-268.06 1252.5,-268 1117.97,-179.63 930.24,-141.63 823.79,-126.35"/>
<polygon fill="none" stroke="#63b8ff" points="1250.62,-270.94 1260.83,-273.77 1254.61,-265.19 1250.62,-270.94"/>
</a>
</g>
</g>
</g>
</svg>
