<?xml version="1.0" encoding="UTF-8" standalone="no"?>
<!DOCTYPE svg PUBLIC "-//W3C//DTD SVG 1.1//EN"
 "http://www.w3.org/Graphics/SVG/1.1/DTD/svg11.dtd">
<!-- Generated by graphviz version 2.43.0 (0)
 -->
<!-- Title: tracking::motion::detail::has_velocity&lt; StateDef_, std::void_t&lt; decltype(StateDef_::VX), decltype(StateDef_::VY)&gt; &gt; Pages: 1 -->
<svg width="142pt" height="186pt"
 viewBox="0.00 0.00 142.00 186.00" xmlns="http://www.w3.org/2000/svg" xmlns:xlink="http://www.w3.org/1999/xlink">

<svg id="main" version="1.1" xmlns="http://www.w3.org/2000/svg" xmlns:xlink="http://www.w3.org/1999/xlink" xml:space="preserve" onload="init(evt)">
<style type="text/css"><![CDATA[
.node, .edge {opacity: 0.7;}
.node.selected, .edge.selected {opacity: 1;}
.edge:hover path { stroke: red; }
.edge:hover polygon { stroke: red; fill: red; }
]]></style>
<script type="application/ecmascript" xlink:href="svg.min.js"/>
<svg id="graph" class="graph">
<g id="graph0" class="graph" transform="scale(1 1) rotate(0) translate(4 182)">
<title>tracking::motion::detail::has_velocity&lt; StateDef_, std::void_t&lt; decltype(StateDef_::VX), decltype(StateDef_::VY)&gt; &gt;</title>
<!-- Node1 -->
<g id="Node000001" class="node">
<title>Node1</title>
<g id="a_Node000001"><a xlink:title="Specialization matching StateDefs that provide VX and VY enumerators.">
<polygon fill="#999999" stroke="transparent" points="134,-93 0,-93 0,0 134,0 134,-93"/>
<text text-anchor="start" x="5" y="-80.5" font-family="Helvetica,sans-Serif" font-size="10.00">tracking::motion::detail</text>
<text text-anchor="start" x="5" y="-69.5" font-family="Helvetica,sans-Serif" font-size="10.00">::has_velocity&lt; StateDef</text>
<text text-anchor="start" x="5" y="-58.5" font-family="Helvetica,sans-Serif" font-size="10.00">_, std::void_t&lt; decltype</text>
<text text-anchor="start" x="5" y="-47.5" font-family="Helvetica,sans-Serif" font-size="10.00">(StateDef_::VX), decltype</text>
<text text-anchor="start" x="20" y="-36.5" font-family="Helvetica,sans-Serif" font-size="10.00">(StateDef_::VY)&gt; &gt;</text>
<text text-anchor="start" x="65" y="-21.5" font-family="Helvetica,sans-Serif" font-size="10.00"> </text>
<text text-anchor="start" x="65" y="-6.5" font-family="Helvetica,sans-Serif" font-size="10.00"> </text>
<polygon fill="#666666" stroke="#666666" points="0,-31.5 0,-31.5 134,-31.5 134,-31.5 0,-31.5"/>
<polygon fill="#666666" stroke="#666666" points="0,-16.5 0,-16.5 134,-16.5 134,-16.5 0,-16.5"/>
<polygon fill="none" stroke="#666666" points="0,0 0,-93 134,-93 134,0 0,0"/>
</a>
</g>
</g>
<!-- Node2 -->
<g id="Node000002" class="node">
<title>Node2</title>
<g id="a_Node000002"><a xlink:title=" ">
<polygon fill="white" stroke="transparent" points="106,-178 28,-178 28,-129 106,-129 106,-178"/>
<text text-anchor="start" x="33" y="-165.5" font-family="Helvetica,sans-Serif" font-size="10.00">std::true_type</text>
<text text-anchor="start" x="65" y="-150.5" font-family="Helvetica,sans-Serif" font-size="10.00"> </text>
<text text-anchor="start" x="65" y="-135.5" font-family="Helvetica,sans-Serif" font-size="10.00"> </text>
<polygon fill="#666666" stroke="#666666" points="28,-160.5 28,-160.5 106,-160.5 106,-160.5 28,-160.5"/>
<polygon fill="#666666" stroke="#666666" points="28,-145.5 28,-145.5 106,-145.5 106,-145.5 28,-145.5"/>
<polygon fill="none" stroke="#666666" points="28,-129 28,-178 106,-178 106,-129 28,-129"/>
</a>
</g>
</g>
<!-- Node2&#45;&gt;Node1 -->
<g id="edge1_Node000001_Node000002" class="edge">
<title>Node2&#45;&gt;Node1</title>
<g id="a_edge1_Node000001_Node000002"><a xlink:title=" ">
<path fill="none" stroke="#63b8ff" d="M67,-118.77C67,-110.68 67,-101.9 67,-93.36"/>
<polygon fill="none" stroke="#63b8ff" points="63.5,-118.94 67,-128.94 70.5,-118.94 63.5,-118.94"/>
</a>
</g>
</g>
</g>
</svg>
</svg>

<style type='text/css'>
<![CDATA[
[data-mouse-over-selected='false'] { opacity: 0.7; }
[data-mouse-over-selected='true']  { opacity: 1.0; }
]]>
</style>
<script type="application/ecmascript"><![CDATA[
document.addEventListener('DOMContentLoaded', (event) => {
  highlightEdges();
  highlightAdjacentNodes();
});
]]></script>
</svg>
