<?xml version="1.0" encoding="UTF-8" standalone="no"?>
<!DOCTYPE svg PUBLIC "-//W3C//DTD SVG 1.1//EN"
 "http://www.w3.org/Graphics/SVG/1.1/DTD/svg11.dtd">
<!-- Generated by graphviz version 2.43.0 (0)
 -->
<!-- Title: tracking::math::CovarianceMatrixPolicyBase Pages: 1 -->
<svg width="316pt" height="175pt"
 viewBox="0.00 0.00 315.50 175.00" xmlns="http://www.w3.org/2000/svg" xmlns:xlink="http://www.w3.org/1999/xlink">

<svg id="main" version="1.1" xmlns="http://www.w3.org/2000/svg" xmlns:xlink="http://www.w3.org/1999/xlink" xml:space="preserve" onload="init(evt)">
<style type="text/css"><![CDATA[
.node, .edge {opacity: 0.7;}
.node.selected, .edge.selected {opacity: 1;}
.edge:hover path { stroke: red; }
.edge:hover polygon { stroke: red; fill: red; }
]]></style>
<script type="application/ecmascript" xlink:href="svg.min.js"/>
<svg id="graph" class="graph">
<g id="graph0" class="graph" transform="scale(1 1) rotate(0) translate(4 171)">
<title>tracking::math::CovarianceMatrixPolicyBase</title>
<!-- Node1 -->
<g id="Node000001" class="node">
<title>Node1</title>
<g id="a_Node000001"><a xlink:title="Base class for covariance matrix policy types.">
<polygon fill="#999999" stroke="transparent" points="217,-167 74,-167 74,-107 217,-107 217,-167"/>
<text text-anchor="start" x="79.5" y="-155" font-family="Helvetica,sans-Serif" font-size="10.00">tracking::math::Covariance</text>
<text text-anchor="start" x="103.5" y="-144" font-family="Helvetica,sans-Serif" font-size="10.00">MatrixPolicyBase</text>
<text text-anchor="start" x="144" y="-129" font-family="Helvetica,sans-Serif" font-size="10.00"> </text>
<text text-anchor="start" x="144" y="-114" font-family="Helvetica,sans-Serif" font-size="10.00"> </text>
<polygon fill="#666666" stroke="#666666" points="74.5,-139 74.5,-139 217.5,-139 217.5,-139 74.5,-139"/>
<polygon fill="#666666" stroke="#666666" points="74.5,-124 74.5,-124 217.5,-124 217.5,-124 74.5,-124"/>
<polygon fill="none" stroke="#666666" points="74,-107 74,-167 217,-167 217,-107 74,-107"/>
</a>
</g>
</g>
<!-- Node2 -->
<g id="Node000002" class="node">
<title>Node2</title>
<g id="a_Node000002"><a xlink:href="structtracking_1_1math_1_1FactoredCovarianceMatrixPolicy.html" target="_top" xlink:title="Policy for using UDU factored covariance matrix representation.">
<polygon fill="white" stroke="transparent" points="129,-71 0,-71 0,0 129,0 129,-71"/>
<text text-anchor="start" x="5.5" y="-58.5" font-family="Helvetica,sans-Serif" font-size="10.00">tracking::math::Factored</text>
<text text-anchor="start" x="5.5" y="-47.5" font-family="Helvetica,sans-Serif" font-size="10.00">CovarianceMatrixPolicy</text>
<text text-anchor="start" x="26" y="-36.5" font-family="Helvetica,sans-Serif" font-size="10.00">&lt; ValueType_ &gt;</text>
<text text-anchor="start" x="17.5" y="-21.5" font-family="Helvetica,sans-Serif" font-size="10.00">+</text>
<text text-anchor="start" x="43.5" y="-21.5" font-family="Helvetica,sans-Serif" font-size="10.00">is_factored</text>
<text text-anchor="start" x="63" y="-6.5" font-family="Helvetica,sans-Serif" font-size="10.00"> </text>
<polygon fill="#666666" stroke="#666666" points="0.5,-31.5 0.5,-31.5 129.5,-31.5 129.5,-31.5 0.5,-31.5"/>
<polygon fill="#666666" stroke="#666666" points="0.5,-16.5 0.5,-16.5 41.5,-16.5 41.5,-16.5 0.5,-16.5"/>
<polygon fill="#666666" stroke="#666666" points="41.5,-16.5 41.5,-16.5 129.5,-16.5 129.5,-16.5 41.5,-16.5"/>
<polygon fill="none" stroke="#666666" points="0,0 0,-71 129,-71 129,0 0,0"/>
</a>
</g>
</g>
<!-- Node1&#45;&gt;Node2 -->
<g id="edge1_Node000001_Node000002" class="edge">
<title>Node1&#45;&gt;Node2</title>
<g id="a_edge1_Node000001_Node000002"><a xlink:title=" ">
<path fill="none" stroke="#63b8ff" d="M115.45,-99.08C107.97,-89.9 99.99,-80.1 92.61,-71.04"/>
<polygon fill="none" stroke="#63b8ff" points="112.83,-101.41 121.85,-106.95 118.25,-96.99 112.83,-101.41"/>
</a>
</g>
</g>
<!-- Node3 -->
<g id="Node000003" class="node">
<title>Node3</title>
<g id="a_Node000003"><a xlink:href="structtracking_1_1math_1_1FullCovarianceMatrixPolicy.html" target="_top" xlink:title="Policy for using full covariance matrix representation.">
<polygon fill="white" stroke="transparent" points="307.5,-65.5 147.5,-65.5 147.5,-5.5 307.5,-5.5 307.5,-65.5"/>
<text text-anchor="start" x="152.5" y="-53.5" font-family="Helvetica,sans-Serif" font-size="10.00">tracking::math::FullCovariance</text>
<text text-anchor="start" x="158" y="-42.5" font-family="Helvetica,sans-Serif" font-size="10.00">MatrixPolicy&lt; ValueType_ &gt;</text>
<text text-anchor="start" x="172.5" y="-27.5" font-family="Helvetica,sans-Serif" font-size="10.00">+</text>
<text text-anchor="start" x="206.5" y="-27.5" font-family="Helvetica,sans-Serif" font-size="10.00">is_factored</text>
<text text-anchor="start" x="225.5" y="-12.5" font-family="Helvetica,sans-Serif" font-size="10.00"> </text>
<polygon fill="#666666" stroke="#666666" points="147.5,-37.5 147.5,-37.5 307.5,-37.5 307.5,-37.5 147.5,-37.5"/>
<polygon fill="#666666" stroke="#666666" points="147.5,-22.5 147.5,-22.5 204.5,-22.5 204.5,-22.5 147.5,-22.5"/>
<polygon fill="#666666" stroke="#666666" points="204.5,-22.5 204.5,-22.5 307.5,-22.5 307.5,-22.5 204.5,-22.5"/>
<polygon fill="none" stroke="#666666" points="147.5,-5.5 147.5,-65.5 307.5,-65.5 307.5,-5.5 147.5,-5.5"/>
</a>
</g>
</g>
<!-- Node1&#45;&gt;Node3 -->
<g id="edge2_Node000001_Node000003" class="edge">
<title>Node1&#45;&gt;Node3</title>
<g id="a_edge2_Node000001_Node000003"><a xlink:title=" ">
<path fill="none" stroke="#63b8ff" d="M175.89,-99.13C184.96,-88.12 194.78,-76.21 203.39,-65.76"/>
<polygon fill="none" stroke="#63b8ff" points="173.1,-97.01 169.44,-106.95 178.5,-101.46 173.1,-97.01"/>
</a>
</g>
</g>
</g>
</svg>
</svg>

<style type='text/css'>
<![CDATA[
[data-mouse-over-selected='false'] { opacity: 0.7; }
[data-mouse-over-selected='true']  { opacity: 1.0; }
]]>
</style>
<script type="application/ecmascript"><![CDATA[
document.addEventListener('DOMContentLoaded', (event) => {
  highlightEdges();
  highlightAdjacentNodes();
});
]]></script>
</svg>
