<?xml version="1.0" encoding="UTF-8" standalone="no"?>
<!DOCTYPE svg PUBLIC "-//W3C//DTD SVG 1.1//EN"
 "http://www.w3.org/Graphics/SVG/1.1/DTD/svg11.dtd">
<!-- Generated by graphviz version 2.43.0 (0)
 -->
<!-- Title: tracking::motion::detail::has_acceleration&lt; StateDef_, std::void_t&lt; decltype(StateDef_::AX), decltype(StateDef_::AY)&gt; &gt; Pages: 1 -->
<svg width="188pt" height="175pt"
 viewBox="0.00 0.00 188.00 175.00" xmlns="http://www.w3.org/2000/svg" xmlns:xlink="http://www.w3.org/1999/xlink">
<g id="graph0" class="graph" transform="scale(1 1) rotate(0) translate(4 171)">
<title>tracking::motion::detail::has_acceleration&lt; StateDef_, std::void_t&lt; decltype(StateDef_::AX), decltype(StateDef_::AY)&gt; &gt;</title>
<!-- Node1 -->
<g id="Node000001" class="node">
<title>Node1</title>
<g id="a_Node000001"><a xlink:title="Specialization matching StateDefs that provide AX and AY enumerators.">
<polygon fill="#999999" stroke="transparent" points="180,-82 0,-82 0,0 180,0 180,-82"/>
<text text-anchor="start" x="5" y="-70" font-family="Helvetica,sans-Serif" font-size="10.00">tracking::motion::detail</text>
<text text-anchor="start" x="5" y="-59" font-family="Helvetica,sans-Serif" font-size="10.00">::has_acceleration&lt; StateDef</text>
<text text-anchor="start" x="5" y="-48" font-family="Helvetica,sans-Serif" font-size="10.00">_, std::void_t&lt; decltype(StateDef</text>
<text text-anchor="start" x="5" y="-37" font-family="Helvetica,sans-Serif" font-size="10.00">_::AX), decltype(StateDef_::AY)&gt; &gt;</text>
<text text-anchor="start" x="88" y="-22" font-family="Helvetica,sans-Serif" font-size="10.00"> </text>
<text text-anchor="start" x="88" y="-7" font-family="Helvetica,sans-Serif" font-size="10.00"> </text>
<polygon fill="#666666" stroke="#666666" points="0,-32 0,-32 180,-32 180,-32 0,-32"/>
<polygon fill="#666666" stroke="#666666" points="0,-17 0,-17 180,-17 180,-17 0,-17"/>
<polygon fill="none" stroke="#666666" points="0,0 0,-82 180,-82 180,0 0,0"/>
</a>
</g>
</g>
<!-- Node2 -->
<g id="Node000002" class="node">
<title>Node2</title>
<g id="a_Node000002"><a xlink:title=" ">
<polygon fill="white" stroke="transparent" points="129,-167 51,-167 51,-118 129,-118 129,-167"/>
<text text-anchor="start" x="56" y="-154.5" font-family="Helvetica,sans-Serif" font-size="10.00">std::true_type</text>
<text text-anchor="start" x="88" y="-139.5" font-family="Helvetica,sans-Serif" font-size="10.00"> </text>
<text text-anchor="start" x="88" y="-124.5" font-family="Helvetica,sans-Serif" font-size="10.00"> </text>
<polygon fill="#666666" stroke="#666666" points="51,-149.5 51,-149.5 129,-149.5 129,-149.5 51,-149.5"/>
<polygon fill="#666666" stroke="#666666" points="51,-134.5 51,-134.5 129,-134.5 129,-134.5 51,-134.5"/>
<polygon fill="none" stroke="#666666" points="51,-118 51,-167 129,-167 129,-118 51,-118"/>
</a>
</g>
</g>
<!-- Node2&#45;&gt;Node1 -->
<g id="edge1_Node000001_Node000002" class="edge">
<title>Node2&#45;&gt;Node1</title>
<g id="a_edge1_Node000001_Node000002"><a xlink:title=" ">
<path fill="none" stroke="#63b8ff" d="M90,-107.88C90,-99.62 90,-90.68 90,-82.14"/>
<polygon fill="none" stroke="#63b8ff" points="86.5,-107.92 90,-117.92 93.5,-107.92 86.5,-107.92"/>
</a>
</g>
</g>
</g>
</svg>
