<?xml version="1.0" encoding="UTF-8" standalone="no"?>
<!DOCTYPE svg PUBLIC "-//W3C//DTD SVG 1.1//EN"
 "http://www.w3.org/Graphics/SVG/1.1/DTD/svg11.dtd">
<!-- Generated by graphviz version 2.43.0 (0)
 -->
<!-- Title: tracking::math::contract::CovarianceMatrixIntf&lt; ImplType &gt; Pages: 1 -->
<svg width="352pt" height="175pt"
 viewBox="0.00 0.00 352.00 175.00" xmlns="http://www.w3.org/2000/svg" xmlns:xlink="http://www.w3.org/1999/xlink">
<g id="graph0" class="graph" transform="scale(1 1) rotate(0) translate(4 171)">
<title>tracking::math::contract::CovarianceMatrixIntf&lt; ImplType &gt;</title>
<!-- Node1 -->
<g id="Node000001" class="node">
<title>Node1</title>
<g id="a_Node000001"><a xlink:title=" ">
<polygon fill="#999999" stroke="transparent" points="237,-71 105,-71 105,0 237,0 237,-71"/>
<text text-anchor="start" x="112" y="-58.5" font-family="Helvetica,sans-Serif" font-size="10.00">tracking::math::contract</text>
<text text-anchor="start" x="112" y="-47.5" font-family="Helvetica,sans-Serif" font-size="10.00">::CovarianceMatrixIntf</text>
<text text-anchor="start" x="137.5" y="-36.5" font-family="Helvetica,sans-Serif" font-size="10.00">&lt; ImplType &gt;</text>
<text text-anchor="start" x="169" y="-21.5" font-family="Helvetica,sans-Serif" font-size="10.00"> </text>
<text text-anchor="start" x="109" y="-6.5" font-family="Helvetica,sans-Serif" font-size="10.00">+</text>
<text text-anchor="start" x="122" y="-6.5" font-family="Helvetica,sans-Serif" font-size="10.00">CovarianceMatrixIntf()</text>
<polygon fill="#666666" stroke="#666666" points="105,-31.5 105,-31.5 237,-31.5 237,-31.5 105,-31.5"/>
<polygon fill="#666666" stroke="#666666" points="105,-16.5 105,-16.5 237,-16.5 237,-16.5 105,-16.5"/>
<polygon fill="none" stroke="#666666" points="105,0 105,-71 237,-71 237,0 105,0"/>
</a>
</g>
</g>
<!-- Node2 -->
<g id="Node000002" class="node">
<title>Node2</title>
<g id="a_Node000002"><a xlink:href="classtracking_1_1base_1_1contract_1_1RequireCopyIntf.html" target="_top" xlink:title=" ">
<polygon fill="white" stroke="transparent" points="162,-167 0,-167 0,-107 162,-107 162,-167"/>
<text text-anchor="start" x="5" y="-155" font-family="Helvetica,sans-Serif" font-size="10.00">tracking::base::contract</text>
<text text-anchor="start" x="5" y="-144" font-family="Helvetica,sans-Serif" font-size="10.00">::RequireCopyIntf&lt; ImplType &gt;</text>
<text text-anchor="start" x="79" y="-129" font-family="Helvetica,sans-Serif" font-size="10.00"> </text>
<text text-anchor="start" x="17.5" y="-114" font-family="Helvetica,sans-Serif" font-size="10.00">+</text>
<text text-anchor="start" x="44" y="-114" font-family="Helvetica,sans-Serif" font-size="10.00">RequireCopyIntf()</text>
<polygon fill="#666666" stroke="#666666" points="0,-139 0,-139 162,-139 162,-139 0,-139"/>
<polygon fill="#666666" stroke="#666666" points="0,-124 0,-124 162,-124 162,-124 0,-124"/>
<polygon fill="none" stroke="#666666" points="0,-107 0,-167 162,-167 162,-107 0,-107"/>
</a>
</g>
</g>
<!-- Node2&#45;&gt;Node1 -->
<g id="edge1_Node000001_Node000002" class="edge">
<title>Node2&#45;&gt;Node1</title>
<g id="a_edge1_Node000001_Node000002"><a xlink:title=" ">
<path fill="none" stroke="#63b8ff" d="M114.14,-99.36C122.52,-90.1 131.48,-80.19 139.76,-71.04"/>
<polygon fill="none" stroke="#63b8ff" points="111.39,-97.19 107.27,-106.95 116.58,-101.88 111.39,-97.19"/>
</a>
</g>
</g>
<!-- Node3 -->
<g id="Node000003" class="node">
<title>Node3</title>
<g id="a_Node000003"><a xlink:href="classtracking_1_1base_1_1contract_1_1RequireMoveIntf.html" target="_top" xlink:title=" ">
<polygon fill="white" stroke="transparent" points="344,-167 180,-167 180,-107 344,-107 344,-167"/>
<text text-anchor="start" x="185" y="-155" font-family="Helvetica,sans-Serif" font-size="10.00">tracking::base::contract</text>
<text text-anchor="start" x="185" y="-144" font-family="Helvetica,sans-Serif" font-size="10.00">::RequireMoveIntf&lt; ImplType &gt;</text>
<text text-anchor="start" x="260" y="-129" font-family="Helvetica,sans-Serif" font-size="10.00"> </text>
<text text-anchor="start" x="197.5" y="-114" font-family="Helvetica,sans-Serif" font-size="10.00">+</text>
<text text-anchor="start" x="224" y="-114" font-family="Helvetica,sans-Serif" font-size="10.00">RequireMoveIntf()</text>
<polygon fill="#666666" stroke="#666666" points="180,-139 180,-139 344,-139 344,-139 180,-139"/>
<polygon fill="#666666" stroke="#666666" points="180,-124 180,-124 344,-124 344,-124 180,-124"/>
<polygon fill="none" stroke="#666666" points="180,-107 180,-167 344,-167 344,-107 180,-107"/>
</a>
</g>
</g>
<!-- Node3&#45;&gt;Node1 -->
<g id="edge2_Node000001_Node000003" class="edge">
<title>Node3&#45;&gt;Node1</title>
<g id="a_edge2_Node000001_Node000003"><a xlink:title=" ">
<path fill="none" stroke="#63b8ff" d="M228.49,-99.36C220.02,-90.1 210.96,-80.19 202.59,-71.04"/>
<polygon fill="none" stroke="#63b8ff" points="226.1,-101.94 235.43,-106.95 231.27,-97.21 226.1,-101.94"/>
</a>
</g>
</g>
</g>
</svg>
