<?xml version="1.0" encoding="UTF-8" standalone="no"?>
<!DOCTYPE svg PUBLIC "-//W3C//DTD SVG 1.1//EN"
 "http://www.w3.org/Graphics/SVG/1.1/DTD/svg11.dtd">
<!-- Generated by graphviz version 2.43.0 (0)
 -->
<!-- Title: tracking::observation::contract::ObservationModelIntf&lt; ImplType &gt; Pages: 1 -->
<!--zoomable 682 -->

<svg id="main" version="1.1" xmlns="http://www.w3.org/2000/svg" xmlns:xlink="http://www.w3.org/1999/xlink" xml:space="preserve" onload="init(evt)">
<style type="text/css"><![CDATA[
.node, .edge {opacity: 0.7;}
.node.selected, .edge.selected {opacity: 1;}
.edge:hover path { stroke: red; }
.edge:hover polygon { stroke: red; fill: red; }
]]></style>

<defs>
  <circle id="rim" cx="0" cy="0" r="7"/>
  <circle id="rim2" cx="0" cy="0" r="3.5"/>
  <g id="zoomPlus">
    <use xlink:href="#rim" fill="#404040"><set attributeName="fill" to="#808080" begin="zoomplus.mouseover" end="zoomplus.mouseout"/></use>
    <path d="M-4,0h8M0,-4v8" fill="none" stroke="white" stroke-width="1.5" pointer-events="none"/>
  </g>
  <g id="zoomMin">
    <use xlink:href="#rim" fill="#404040"><set attributeName="fill" to="#808080" begin="zoomminus.mouseover" end="zoomminus.mouseout"/></use>
    <path d="M-4,0h8" fill="none" stroke="white" stroke-width="1.5" pointer-events="none"/>
  </g>
  <g id="arrowUp" transform="translate(30 24)">
    <use xlink:href="#rim"/>
    <path pointer-events="none" fill="none" stroke="white" stroke-width="1.5" d="M0,-3.0v7 M-2.5,-0.5L0,-3.0L2.5,-0.5"/>
  </g>
  <g id="arrowRight" transform="rotate(90) translate(36 -43)">
    <use xlink:href="#rim"/>
    <path pointer-events="none" fill="none" stroke="white" stroke-width="1.5" d="M0,-3.0v7 M-2.5,-0.5L0,-3.0L2.5,-0.5"/>
  </g>
  <g id="arrowDown" transform="rotate(180) translate(-30 -48)">
    <use xlink:href="#rim"/>
    <path pointer-events="none" fill="none" stroke="white" stroke-width="1.5" d="M0,-3.0v7 M-2.5,-0.5L0,-3.0L2.5,-0.5"/>
  </g>
  <g id="arrowLeft" transform="rotate(270) translate(-36 17)">
    <use xlink:href="#rim"/>
    <path pointer-events="none" fill="none" stroke="white" stroke-width="1.5" d="M0,-3.0v7 M-2.5,-0.5L0,-3.0L2.5,-0.5"/>
  </g>
  <g id="resetDef">
    <use xlink:href="#rim2" fill="#404040"><set attributeName="fill" to="#808080" begin="reset.mouseover" end="reset.mouseout"/></use>
  </g>
</defs>
<script type="application/ecmascript">
var viewWidth = 1500;
var viewHeight = 682;
var sectionId = 'dynsection-0';
</script>
<script type="application/ecmascript" xlink:href="svg.min.js"/>
<svg id="graph" class="graph">
<g id="viewport">
<title>tracking::observation::contract::ObservationModelIntf&lt; ImplType &gt;</title>
<!-- Node1 -->
<g id="Node000001" class="node">
<title>Node1</title>
<g id="a_Node000001"><a xlink:title="Static interface contract for concrete observation models (CRTP)">
<polygon fill="#999999" stroke="transparent" points="817.5,-674 665.5,-674 665.5,-603 817.5,-603 817.5,-674"/>
<text text-anchor="start" x="670.5" y="-661.5" font-family="Helvetica,sans-Serif" font-size="10.00">tracking::observation</text>
<text text-anchor="start" x="670.5" y="-650.5" font-family="Helvetica,sans-Serif" font-size="10.00">::contract::ObservationModel</text>
<text text-anchor="start" x="699.5" y="-639.5" font-family="Helvetica,sans-Serif" font-size="10.00">Intf&lt; ImplType &gt;</text>
<text text-anchor="start" x="739.5" y="-624.5" font-family="Helvetica,sans-Serif" font-size="10.00"> </text>
<text text-anchor="start" x="673.5" y="-609.5" font-family="Helvetica,sans-Serif" font-size="10.00">+</text>
<text text-anchor="start" x="690.5" y="-609.5" font-family="Helvetica,sans-Serif" font-size="10.00">ObservationModelIntf()</text>
<polygon fill="#666666" stroke="#666666" points="665.5,-634.5 665.5,-634.5 817.5,-634.5 817.5,-634.5 665.5,-634.5"/>
<polygon fill="#666666" stroke="#666666" points="665.5,-619.5 665.5,-619.5 817.5,-619.5 817.5,-619.5 665.5,-619.5"/>
<polygon fill="none" stroke="#666666" points="665.5,-603 665.5,-674 817.5,-674 817.5,-603 665.5,-603"/>
</a>
</g>
</g>
<!-- Node2 -->
<g id="Node000002" class="node">
<title>Node2</title>
<g id="a_Node000002"><a xlink:href="classtracking_1_1observation_1_1ExtendedObservationModel.html" target="_top" xlink:title=" ">
<polygon fill="white" stroke="transparent" points="231,-567 0,-567 0,-268 231,-268 231,-567"/>
<text text-anchor="start" x="5.5" y="-554.5" font-family="Helvetica,sans-Serif" font-size="10.00">tracking::observation</text>
<text text-anchor="start" x="5.5" y="-543.5" font-family="Helvetica,sans-Serif" font-size="10.00">::ExtendedObservationModel</text>
<text text-anchor="start" x="5.5" y="-532.5" font-family="Helvetica,sans-Serif" font-size="10.00">&lt; BearingObservationModel</text>
<text text-anchor="start" x="5.5" y="-521.5" font-family="Helvetica,sans-Serif" font-size="10.00">&lt; CovarianceMatrixPolicy_,</text>
<text text-anchor="start" x="5.5" y="-510.5" font-family="Helvetica,sans-Serif" font-size="10.00"> StateDef_ &gt;, ObservationModelTraits</text>
<text text-anchor="start" x="5.5" y="-499.5" font-family="Helvetica,sans-Serif" font-size="10.00">&lt; CovarianceMatrixPolicy_, StateDef_, 1 &gt; &gt;</text>
<text text-anchor="start" x="19" y="-484.5" font-family="Helvetica,sans-Serif" font-size="10.00">+</text>
<text text-anchor="start" x="46.5" y="-484.5" font-family="Helvetica,sans-Serif" font-size="10.00">DimZ</text>
<text text-anchor="start" x="19" y="-469.5" font-family="Helvetica,sans-Serif" font-size="10.00">+</text>
<text text-anchor="start" x="46.5" y="-469.5" font-family="Helvetica,sans-Serif" font-size="10.00">DimX</text>
<text text-anchor="start" x="19" y="-454.5" font-family="Helvetica,sans-Serif" font-size="10.00">+</text>
<text text-anchor="start" x="46.5" y="-454.5" font-family="Helvetica,sans-Serif" font-size="10.00">ExtendedObservationModel()</text>
<text text-anchor="start" x="19" y="-439.5" font-family="Helvetica,sans-Serif" font-size="10.00">+</text>
<text text-anchor="start" x="46.5" y="-439.5" font-family="Helvetica,sans-Serif" font-size="10.00">~ExtendedObservationModel()</text>
<text text-anchor="start" x="19" y="-424.5" font-family="Helvetica,sans-Serif" font-size="10.00">+</text>
<text text-anchor="start" x="46.5" y="-424.5" font-family="Helvetica,sans-Serif" font-size="10.00">getDim()</text>
<text text-anchor="start" x="19" y="-409.5" font-family="Helvetica,sans-Serif" font-size="10.00">+</text>
<text text-anchor="start" x="46.5" y="-409.5" font-family="Helvetica,sans-Serif" font-size="10.00">computeInnovation()</text>
<text text-anchor="start" x="19" y="-394.5" font-family="Helvetica,sans-Serif" font-size="10.00">+</text>
<text text-anchor="start" x="46.5" y="-394.5" font-family="Helvetica,sans-Serif" font-size="10.00">MeasurementVecFromList()</text>
<text text-anchor="start" x="19" y="-379.5" font-family="Helvetica,sans-Serif" font-size="10.00">+</text>
<text text-anchor="start" x="46.5" y="-379.5" font-family="Helvetica,sans-Serif" font-size="10.00">MeasurementCovFromList()</text>
<text text-anchor="start" x="19" y="-364.5" font-family="Helvetica,sans-Serif" font-size="10.00">+</text>
<text text-anchor="start" x="46.5" y="-364.5" font-family="Helvetica,sans-Serif" font-size="10.00">MeasurementCovFromList()</text>
<text text-anchor="start" x="19" y="-349.5" font-family="Helvetica,sans-Serif" font-size="10.00">+</text>
<text text-anchor="start" x="46.5" y="-349.5" font-family="Helvetica,sans-Serif" font-size="10.00">FromLists()</text>
<text text-anchor="start" x="19" y="-334.5" font-family="Helvetica,sans-Serif" font-size="10.00">#</text>
<text text-anchor="start" x="46.5" y="-334.5" font-family="Helvetica,sans-Serif" font-size="10.00">ExtendedObservationModel()</text>
<text text-anchor="start" x="19" y="-319.5" font-family="Helvetica,sans-Serif" font-size="10.00">#</text>
<text text-anchor="start" x="46.5" y="-319.5" font-family="Helvetica,sans-Serif" font-size="10.00">ExtendedObservationModel()</text>
<text text-anchor="start" x="19" y="-304.5" font-family="Helvetica,sans-Serif" font-size="10.00">#</text>
<text text-anchor="start" x="46.5" y="-304.5" font-family="Helvetica,sans-Serif" font-size="10.00">ExtendedObservationModel()</text>
<text text-anchor="start" x="19" y="-289.5" font-family="Helvetica,sans-Serif" font-size="10.00">#</text>
<text text-anchor="start" x="46.5" y="-289.5" font-family="Helvetica,sans-Serif" font-size="10.00">operator=()</text>
<text text-anchor="start" x="19" y="-274.5" font-family="Helvetica,sans-Serif" font-size="10.00">#</text>
<text text-anchor="start" x="46.5" y="-274.5" font-family="Helvetica,sans-Serif" font-size="10.00">operator=()</text>
<polygon fill="#666666" stroke="#666666" points="0.5,-494.5 0.5,-494.5 231.5,-494.5 231.5,-494.5 0.5,-494.5"/>
<polygon fill="#666666" stroke="#666666" points="0.5,-464.5 0.5,-464.5 44.5,-464.5 44.5,-464.5 0.5,-464.5"/>
<polygon fill="#666666" stroke="#666666" points="44.5,-464.5 44.5,-464.5 231.5,-464.5 231.5,-464.5 44.5,-464.5"/>
<polygon fill="none" stroke="#666666" points="0,-268 0,-567 231,-567 231,-268 0,-268"/>
</a>
</g>
</g>
<!-- Node1&#45;&gt;Node2 -->
<g id="edge1_Node000001_Node000002" class="edge">
<title>Node1&#45;&gt;Node2</title>
<g id="a_edge1_Node000001_Node000002"><a xlink:title=" ">
<path fill="none" stroke="#63b8ff" d="M655.23,-632.84C531.03,-624.9 309.08,-605.68 239.5,-567 236.71,-565.45 233.96,-563.81 231.24,-562.09"/>
<polygon fill="none" stroke="#63b8ff" points="655.27,-636.35 665.47,-633.49 655.71,-629.37 655.27,-636.35"/>
</a>
</g>
</g>
<!-- Node4 -->
<g id="Node000004" class="node">
<title>Node4</title>
<g id="a_Node000004"><a xlink:href="classtracking_1_1observation_1_1ExtendedObservationModel.html" target="_top" xlink:title=" ">
<polygon fill="white" stroke="transparent" points="480,-567 249,-567 249,-268 480,-268 480,-567"/>
<text text-anchor="start" x="254.5" y="-554.5" font-family="Helvetica,sans-Serif" font-size="10.00">tracking::observation</text>
<text text-anchor="start" x="254.5" y="-543.5" font-family="Helvetica,sans-Serif" font-size="10.00">::ExtendedObservationModel</text>
<text text-anchor="start" x="254.5" y="-532.5" font-family="Helvetica,sans-Serif" font-size="10.00">&lt; PositionObservationModel</text>
<text text-anchor="start" x="254.5" y="-521.5" font-family="Helvetica,sans-Serif" font-size="10.00">&lt; CovarianceMatrixPolicy_,</text>
<text text-anchor="start" x="254.5" y="-510.5" font-family="Helvetica,sans-Serif" font-size="10.00"> StateDef_ &gt;, ObservationModelTraits</text>
<text text-anchor="start" x="254.5" y="-499.5" font-family="Helvetica,sans-Serif" font-size="10.00">&lt; CovarianceMatrixPolicy_, StateDef_, 2 &gt; &gt;</text>
<text text-anchor="start" x="268" y="-484.5" font-family="Helvetica,sans-Serif" font-size="10.00">+</text>
<text text-anchor="start" x="295.5" y="-484.5" font-family="Helvetica,sans-Serif" font-size="10.00">DimZ</text>
<text text-anchor="start" x="268" y="-469.5" font-family="Helvetica,sans-Serif" font-size="10.00">+</text>
<text text-anchor="start" x="295.5" y="-469.5" font-family="Helvetica,sans-Serif" font-size="10.00">DimX</text>
<text text-anchor="start" x="268" y="-454.5" font-family="Helvetica,sans-Serif" font-size="10.00">+</text>
<text text-anchor="start" x="295.5" y="-454.5" font-family="Helvetica,sans-Serif" font-size="10.00">ExtendedObservationModel()</text>
<text text-anchor="start" x="268" y="-439.5" font-family="Helvetica,sans-Serif" font-size="10.00">+</text>
<text text-anchor="start" x="295.5" y="-439.5" font-family="Helvetica,sans-Serif" font-size="10.00">~ExtendedObservationModel()</text>
<text text-anchor="start" x="268" y="-424.5" font-family="Helvetica,sans-Serif" font-size="10.00">+</text>
<text text-anchor="start" x="295.5" y="-424.5" font-family="Helvetica,sans-Serif" font-size="10.00">getDim()</text>
<text text-anchor="start" x="268" y="-409.5" font-family="Helvetica,sans-Serif" font-size="10.00">+</text>
<text text-anchor="start" x="295.5" y="-409.5" font-family="Helvetica,sans-Serif" font-size="10.00">computeInnovation()</text>
<text text-anchor="start" x="268" y="-394.5" font-family="Helvetica,sans-Serif" font-size="10.00">+</text>
<text text-anchor="start" x="295.5" y="-394.5" font-family="Helvetica,sans-Serif" font-size="10.00">MeasurementVecFromList()</text>
<text text-anchor="start" x="268" y="-379.5" font-family="Helvetica,sans-Serif" font-size="10.00">+</text>
<text text-anchor="start" x="295.5" y="-379.5" font-family="Helvetica,sans-Serif" font-size="10.00">MeasurementCovFromList()</text>
<text text-anchor="start" x="268" y="-364.5" font-family="Helvetica,sans-Serif" font-size="10.00">+</text>
<text text-anchor="start" x="295.5" y="-364.5" font-family="Helvetica,sans-Serif" font-size="10.00">MeasurementCovFromList()</text>
<text text-anchor="start" x="268" y="-349.5" font-family="Helvetica,sans-Serif" font-size="10.00">+</text>
<text text-anchor="start" x="295.5" y="-349.5" font-family="Helvetica,sans-Serif" font-size="10.00">FromLists()</text>
<text text-anchor="start" x="268" y="-334.5" font-family="Helvetica,sans-Serif" font-size="10.00">#</text>
<text text-anchor="start" x="295.5" y="-334.5" font-family="Helvetica,sans-Serif" font-size="10.00">ExtendedObservationModel()</text>
<text text-anchor="start" x="268" y="-319.5" font-family="Helvetica,sans-Serif" font-size="10.00">#</text>
<text text-anchor="start" x="295.5" y="-319.5" font-family="Helvetica,sans-Serif" font-size="10.00">ExtendedObservationModel()</text>
<text text-anchor="start" x="268" y="-304.5" font-family="Helvetica,sans-Serif" font-size="10.00">#</text>
<text text-anchor="start" x="295.5" y="-304.5" font-family="Helvetica,sans-Serif" font-size="10.00">ExtendedObservationModel()</text>
<text text-anchor="start" x="268" y="-289.5" font-family="Helvetica,sans-Serif" font-size="10.00">#</text>
<text text-anchor="start" x="295.5" y="-289.5" font-family="Helvetica,sans-Serif" font-size="10.00">operator=()</text>
<text text-anchor="start" x="268" y="-274.5" font-family="Helvetica,sans-Serif" font-size="10.00">#</text>
<text text-anchor="start" x="295.5" y="-274.5" font-family="Helvetica,sans-Serif" font-size="10.00">operator=()</text>
<polygon fill="#666666" stroke="#666666" points="249.5,-494.5 249.5,-494.5 480.5,-494.5 480.5,-494.5 249.5,-494.5"/>
<polygon fill="#666666" stroke="#666666" points="249.5,-464.5 249.5,-464.5 293.5,-464.5 293.5,-464.5 249.5,-464.5"/>
<polygon fill="#666666" stroke="#666666" points="293.5,-464.5 293.5,-464.5 480.5,-464.5 480.5,-464.5 293.5,-464.5"/>
<polygon fill="none" stroke="#666666" points="249,-268 249,-567 480,-567 480,-268 249,-268"/>
</a>
</g>
</g>
<!-- Node1&#45;&gt;Node4 -->
<g id="edge3_Node000001_Node000004" class="edge">
<title>Node1&#45;&gt;Node4</title>
<g id="a_edge3_Node000001_Node000004"><a xlink:title=" ">
<path fill="none" stroke="#63b8ff" d="M655.36,-626.67C603.77,-617.11 538.68,-599.41 488.5,-567 485.68,-565.18 482.89,-563.27 480.13,-561.29"/>
<polygon fill="none" stroke="#63b8ff" points="655.03,-630.17 665.48,-628.48 656.25,-623.28 655.03,-630.17"/>
</a>
</g>
</g>
<!-- Node5 -->
<g id="Node000005" class="node">
<title>Node5</title>
<g id="a_Node000005"><a xlink:href="classtracking_1_1observation_1_1ExtendedObservationModel.html" target="_top" xlink:title=" ">
<polygon fill="white" stroke="transparent" points="729,-567 498,-567 498,-268 729,-268 729,-567"/>
<text text-anchor="start" x="503.5" y="-554.5" font-family="Helvetica,sans-Serif" font-size="10.00">tracking::observation</text>
<text text-anchor="start" x="503.5" y="-543.5" font-family="Helvetica,sans-Serif" font-size="10.00">::ExtendedObservationModel</text>
<text text-anchor="start" x="503.5" y="-532.5" font-family="Helvetica,sans-Serif" font-size="10.00">&lt; RangeBearingDopplerObservation</text>
<text text-anchor="start" x="503.5" y="-521.5" font-family="Helvetica,sans-Serif" font-size="10.00">Model&lt; CovarianceMatrixPolicy</text>
<text text-anchor="start" x="503.5" y="-510.5" font-family="Helvetica,sans-Serif" font-size="10.00">_, StateDef_ &gt;, ObservationModelTraits</text>
<text text-anchor="start" x="503.5" y="-499.5" font-family="Helvetica,sans-Serif" font-size="10.00">&lt; CovarianceMatrixPolicy_, StateDef_, 3 &gt; &gt;</text>
<text text-anchor="start" x="517" y="-484.5" font-family="Helvetica,sans-Serif" font-size="10.00">+</text>
<text text-anchor="start" x="544.5" y="-484.5" font-family="Helvetica,sans-Serif" font-size="10.00">DimZ</text>
<text text-anchor="start" x="517" y="-469.5" font-family="Helvetica,sans-Serif" font-size="10.00">+</text>
<text text-anchor="start" x="544.5" y="-469.5" font-family="Helvetica,sans-Serif" font-size="10.00">DimX</text>
<text text-anchor="start" x="517" y="-454.5" font-family="Helvetica,sans-Serif" font-size="10.00">+</text>
<text text-anchor="start" x="544.5" y="-454.5" font-family="Helvetica,sans-Serif" font-size="10.00">ExtendedObservationModel()</text>
<text text-anchor="start" x="517" y="-439.5" font-family="Helvetica,sans-Serif" font-size="10.00">+</text>
<text text-anchor="start" x="544.5" y="-439.5" font-family="Helvetica,sans-Serif" font-size="10.00">~ExtendedObservationModel()</text>
<text text-anchor="start" x="517" y="-424.5" font-family="Helvetica,sans-Serif" font-size="10.00">+</text>
<text text-anchor="start" x="544.5" y="-424.5" font-family="Helvetica,sans-Serif" font-size="10.00">getDim()</text>
<text text-anchor="start" x="517" y="-409.5" font-family="Helvetica,sans-Serif" font-size="10.00">+</text>
<text text-anchor="start" x="544.5" y="-409.5" font-family="Helvetica,sans-Serif" font-size="10.00">computeInnovation()</text>
<text text-anchor="start" x="517" y="-394.5" font-family="Helvetica,sans-Serif" font-size="10.00">+</text>
<text text-anchor="start" x="544.5" y="-394.5" font-family="Helvetica,sans-Serif" font-size="10.00">MeasurementVecFromList()</text>
<text text-anchor="start" x="517" y="-379.5" font-family="Helvetica,sans-Serif" font-size="10.00">+</text>
<text text-anchor="start" x="544.5" y="-379.5" font-family="Helvetica,sans-Serif" font-size="10.00">MeasurementCovFromList()</text>
<text text-anchor="start" x="517" y="-364.5" font-family="Helvetica,sans-Serif" font-size="10.00">+</text>
<text text-anchor="start" x="544.5" y="-364.5" font-family="Helvetica,sans-Serif" font-size="10.00">MeasurementCovFromList()</text>
<text text-anchor="start" x="517" y="-349.5" font-family="Helvetica,sans-Serif" font-size="10.00">+</text>
<text text-anchor="start" x="544.5" y="-349.5" font-family="Helvetica,sans-Serif" font-size="10.00">FromLists()</text>
<text text-anchor="start" x="517" y="-334.5" font-family="Helvetica,sans-Serif" font-size="10.00">#</text>
<text text-anchor="start" x="544.5" y="-334.5" font-family="Helvetica,sans-Serif" font-size="10.00">ExtendedObservationModel()</text>
<text text-anchor="start" x="517" y="-319.5" font-family="Helvetica,sans-Serif" font-size="10.00">#</text>
<text text-anchor="start" x="544.5" y="-319.5" font-family="Helvetica,sans-Serif" font-size="10.00">ExtendedObservationModel()</text>
<text text-anchor="start" x="517" y="-304.5" font-family="Helvetica,sans-Serif" font-size="10.00">#</text>
<text text-anchor="start" x="544.5" y="-304.5" font-family="Helvetica,sans-Serif" font-size="10.00">ExtendedObservationModel()</text>
<text text-anchor="start" x="517" y="-289.5" font-family="Helvetica,sans-Serif" font-size="10.00">#</text>
<text text-anchor="start" x="544.5" y="-289.5" font-family="Helvetica,sans-Serif" font-size="10.00">operator=()</text>
<text text-anchor="start" x="517" y="-274.5" font-family="Helvetica,sans-Serif" font-size="10.00">#</text>
<text text-anchor="start" x="544.5" y="-274.5" font-family="Helvetica,sans-Serif" font-size="10.00">operator=()</text>
<polygon fill="#666666" stroke="#666666" points="498.5,-494.5 498.5,-494.5 729.5,-494.5 729.5,-494.5 498.5,-494.5"/>
<polygon fill="#666666" stroke="#666666" points="498.5,-464.5 498.5,-464.5 542.5,-464.5 542.5,-464.5 498.5,-464.5"/>
<polygon fill="#666666" stroke="#666666" points="542.5,-464.5 542.5,-464.5 729.5,-464.5 729.5,-464.5 542.5,-464.5"/>
<polygon fill="none" stroke="#666666" points="498,-268 498,-567 729,-567 729,-268 498,-268"/>
</a>
</g>
</g>
<!-- Node1&#45;&gt;Node5 -->
<g id="edge5_Node000001_Node000005" class="edge">
<title>Node1&#45;&gt;Node5</title>
<g id="a_edge5_Node000001_Node000005"><a xlink:title=" ">
<path fill="none" stroke="#63b8ff" d="M716.03,-593.92C711.25,-585.75 706.02,-576.8 700.53,-567.4"/>
<polygon fill="none" stroke="#63b8ff" points="713.15,-595.93 721.22,-602.8 719.19,-592.4 713.15,-595.93"/>
</a>
</g>
</g>
<!-- Node6 -->
<g id="Node000006" class="node">
<title>Node6</title>
<g id="a_Node000006"><a xlink:href="classtracking_1_1observation_1_1ExtendedObservationModel.html" target="_top" xlink:title=" ">
<polygon fill="white" stroke="transparent" points="993.5,-567 747.5,-567 747.5,-268 993.5,-268 993.5,-567"/>
<text text-anchor="start" x="752.5" y="-554.5" font-family="Helvetica,sans-Serif" font-size="10.00">tracking::observation</text>
<text text-anchor="start" x="752.5" y="-543.5" font-family="Helvetica,sans-Serif" font-size="10.00">::ExtendedObservationModel</text>
<text text-anchor="start" x="752.5" y="-532.5" font-family="Helvetica,sans-Serif" font-size="10.00">&lt; RangeBearingObservationModel</text>
<text text-anchor="start" x="752.5" y="-521.5" font-family="Helvetica,sans-Serif" font-size="10.00">&lt; CovarianceMatrixPolicy_, StateDef</text>
<text text-anchor="start" x="752.5" y="-510.5" font-family="Helvetica,sans-Serif" font-size="10.00">_ &gt;, ObservationModelTraits&lt; CovarianceMatrix</text>
<text text-anchor="start" x="808.5" y="-499.5" font-family="Helvetica,sans-Serif" font-size="10.00">Policy_, StateDef_, 2 &gt; &gt;</text>
<text text-anchor="start" x="770" y="-484.5" font-family="Helvetica,sans-Serif" font-size="10.00">+</text>
<text text-anchor="start" x="801.5" y="-484.5" font-family="Helvetica,sans-Serif" font-size="10.00">DimZ</text>
<text text-anchor="start" x="770" y="-469.5" font-family="Helvetica,sans-Serif" font-size="10.00">+</text>
<text text-anchor="start" x="801.5" y="-469.5" font-family="Helvetica,sans-Serif" font-size="10.00">DimX</text>
<text text-anchor="start" x="770" y="-454.5" font-family="Helvetica,sans-Serif" font-size="10.00">+</text>
<text text-anchor="start" x="801.5" y="-454.5" font-family="Helvetica,sans-Serif" font-size="10.00">ExtendedObservationModel()</text>
<text text-anchor="start" x="770" y="-439.5" font-family="Helvetica,sans-Serif" font-size="10.00">+</text>
<text text-anchor="start" x="801.5" y="-439.5" font-family="Helvetica,sans-Serif" font-size="10.00">~ExtendedObservationModel()</text>
<text text-anchor="start" x="770" y="-424.5" font-family="Helvetica,sans-Serif" font-size="10.00">+</text>
<text text-anchor="start" x="801.5" y="-424.5" font-family="Helvetica,sans-Serif" font-size="10.00">getDim()</text>
<text text-anchor="start" x="770" y="-409.5" font-family="Helvetica,sans-Serif" font-size="10.00">+</text>
<text text-anchor="start" x="801.5" y="-409.5" font-family="Helvetica,sans-Serif" font-size="10.00">computeInnovation()</text>
<text text-anchor="start" x="770" y="-394.5" font-family="Helvetica,sans-Serif" font-size="10.00">+</text>
<text text-anchor="start" x="801.5" y="-394.5" font-family="Helvetica,sans-Serif" font-size="10.00">MeasurementVecFromList()</text>
<text text-anchor="start" x="770" y="-379.5" font-family="Helvetica,sans-Serif" font-size="10.00">+</text>
<text text-anchor="start" x="801.5" y="-379.5" font-family="Helvetica,sans-Serif" font-size="10.00">MeasurementCovFromList()</text>
<text text-anchor="start" x="770" y="-364.5" font-family="Helvetica,sans-Serif" font-size="10.00">+</text>
<text text-anchor="start" x="801.5" y="-364.5" font-family="Helvetica,sans-Serif" font-size="10.00">MeasurementCovFromList()</text>
<text text-anchor="start" x="770" y="-349.5" font-family="Helvetica,sans-Serif" font-size="10.00">+</text>
<text text-anchor="start" x="801.5" y="-349.5" font-family="Helvetica,sans-Serif" font-size="10.00">FromLists()</text>
<text text-anchor="start" x="770" y="-334.5" font-family="Helvetica,sans-Serif" font-size="10.00">#</text>
<text text-anchor="start" x="801.5" y="-334.5" font-family="Helvetica,sans-Serif" font-size="10.00">ExtendedObservationModel()</text>
<text text-anchor="start" x="770" y="-319.5" font-family="Helvetica,sans-Serif" font-size="10.00">#</text>
<text text-anchor="start" x="801.5" y="-319.5" font-family="Helvetica,sans-Serif" font-size="10.00">ExtendedObservationModel()</text>
<text text-anchor="start" x="770" y="-304.5" font-family="Helvetica,sans-Serif" font-size="10.00">#</text>
<text text-anchor="start" x="801.5" y="-304.5" font-family="Helvetica,sans-Serif" font-size="10.00">ExtendedObservationModel()</text>
<text text-anchor="start" x="770" y="-289.5" font-family="Helvetica,sans-Serif" font-size="10.00">#</text>
<text text-anchor="start" x="801.5" y="-289.5" font-family="Helvetica,sans-Serif" font-size="10.00">operator=()</text>
<text text-anchor="start" x="770" y="-274.5" font-family="Helvetica,sans-Serif" font-size="10.00">#</text>
<text text-anchor="start" x="801.5" y="-274.5" font-family="Helvetica,sans-Serif" font-size="10.00">operator=()</text>
<polygon fill="#666666" stroke="#666666" points="747.5,-494.5 747.5,-494.5 993.5,-494.5 993.5,-494.5 747.5,-494.5"/>
<polygon fill="#666666" stroke="#666666" points="747.5,-464.5 747.5,-464.5 799.5,-464.5 799.5,-464.5 747.5,-464.5"/>
<polygon fill="#666666" stroke="#666666" points="799.5,-464.5 799.5,-464.5 993.5,-464.5 993.5,-464.5 799.5,-464.5"/>
<polygon fill="none" stroke="#666666" points="747.5,-268 747.5,-567 993.5,-567 993.5,-268 747.5,-268"/>
</a>
</g>
</g>
<!-- Node1&#45;&gt;Node6 -->
<g id="edge7_Node000001_Node000006" class="edge">
<title>Node1&#45;&gt;Node6</title>
<g id="a_edge7_Node000001_Node000006"><a xlink:title=" ">
<path fill="none" stroke="#63b8ff" d="M767.17,-593.92C771.98,-585.75 777.25,-576.8 782.79,-567.4"/>
<polygon fill="none" stroke="#63b8ff" points="764,-592.41 761.94,-602.8 770.03,-595.96 764,-592.41"/>
</a>
</g>
</g>
<!-- Node7 -->
<g id="Node000007" class="node">
<title>Node7</title>
<g id="a_Node000007"><a xlink:href="classtracking_1_1observation_1_1ExtendedObservationModel.html" target="_top" xlink:title=" ">
<polygon fill="white" stroke="transparent" points="1243,-567 1012,-567 1012,-268 1243,-268 1243,-567"/>
<text text-anchor="start" x="1017.5" y="-554.5" font-family="Helvetica,sans-Serif" font-size="10.00">tracking::observation</text>
<text text-anchor="start" x="1017.5" y="-543.5" font-family="Helvetica,sans-Serif" font-size="10.00">::ExtendedObservationModel</text>
<text text-anchor="start" x="1017.5" y="-532.5" font-family="Helvetica,sans-Serif" font-size="10.00">&lt; RangeObservationModel&lt;</text>
<text text-anchor="start" x="1017.5" y="-521.5" font-family="Helvetica,sans-Serif" font-size="10.00"> CovarianceMatrixPolicy_,</text>
<text text-anchor="start" x="1017.5" y="-510.5" font-family="Helvetica,sans-Serif" font-size="10.00"> StateDef_ &gt;, ObservationModelTraits</text>
<text text-anchor="start" x="1017.5" y="-499.5" font-family="Helvetica,sans-Serif" font-size="10.00">&lt; CovarianceMatrixPolicy_, StateDef_, 1 &gt; &gt;</text>
<text text-anchor="start" x="1031" y="-484.5" font-family="Helvetica,sans-Serif" font-size="10.00">+</text>
<text text-anchor="start" x="1058.5" y="-484.5" font-family="Helvetica,sans-Serif" font-size="10.00">DimZ</text>
<text text-anchor="start" x="1031" y="-469.5" font-family="Helvetica,sans-Serif" font-size="10.00">+</text>
<text text-anchor="start" x="1058.5" y="-469.5" font-family="Helvetica,sans-Serif" font-size="10.00">DimX</text>
<text text-anchor="start" x="1031" y="-454.5" font-family="Helvetica,sans-Serif" font-size="10.00">+</text>
<text text-anchor="start" x="1058.5" y="-454.5" font-family="Helvetica,sans-Serif" font-size="10.00">ExtendedObservationModel()</text>
<text text-anchor="start" x="1031" y="-439.5" font-family="Helvetica,sans-Serif" font-size="10.00">+</text>
<text text-anchor="start" x="1058.5" y="-439.5" font-family="Helvetica,sans-Serif" font-size="10.00">~ExtendedObservationModel()</text>
<text text-anchor="start" x="1031" y="-424.5" font-family="Helvetica,sans-Serif" font-size="10.00">+</text>
<text text-anchor="start" x="1058.5" y="-424.5" font-family="Helvetica,sans-Serif" font-size="10.00">getDim()</text>
<text text-anchor="start" x="1031" y="-409.5" font-family="Helvetica,sans-Serif" font-size="10.00">+</text>
<text text-anchor="start" x="1058.5" y="-409.5" font-family="Helvetica,sans-Serif" font-size="10.00">computeInnovation()</text>
<text text-anchor="start" x="1031" y="-394.5" font-family="Helvetica,sans-Serif" font-size="10.00">+</text>
<text text-anchor="start" x="1058.5" y="-394.5" font-family="Helvetica,sans-Serif" font-size="10.00">MeasurementVecFromList()</text>
<text text-anchor="start" x="1031" y="-379.5" font-family="Helvetica,sans-Serif" font-size="10.00">+</text>
<text text-anchor="start" x="1058.5" y="-379.5" font-family="Helvetica,sans-Serif" font-size="10.00">MeasurementCovFromList()</text>
<text text-anchor="start" x="1031" y="-364.5" font-family="Helvetica,sans-Serif" font-size="10.00">+</text>
<text text-anchor="start" x="1058.5" y="-364.5" font-family="Helvetica,sans-Serif" font-size="10.00">MeasurementCovFromList()</text>
<text text-anchor="start" x="1031" y="-349.5" font-family="Helvetica,sans-Serif" font-size="10.00">+</text>
<text text-anchor="start" x="1058.5" y="-349.5" font-family="Helvetica,sans-Serif" font-size="10.00">FromLists()</text>
<text text-anchor="start" x="1031" y="-334.5" font-family="Helvetica,sans-Serif" font-size="10.00">#</text>
<text text-anchor="start" x="1058.5" y="-334.5" font-family="Helvetica,sans-Serif" font-size="10.00">ExtendedObservationModel()</text>
<text text-anchor="start" x="1031" y="-319.5" font-family="Helvetica,sans-Serif" font-size="10.00">#</text>
<text text-anchor="start" x="1058.5" y="-319.5" font-family="Helvetica,sans-Serif" font-size="10.00">ExtendedObservationModel()</text>
<text text-anchor="start" x="1031" y="-304.5" font-family="Helvetica,sans-Serif" font-size="10.00">#</text>
<text text-anchor="start" x="1058.5" y="-304.5" font-family="Helvetica,sans-Serif" font-size="10.00">ExtendedObservationModel()</text>
<text text-anchor="start" x="1031" y="-289.5" font-family="Helvetica,sans-Serif" font-size="10.00">#</text>
<text text-anchor="start" x="1058.5" y="-289.5" font-family="Helvetica,sans-Serif" font-size="10.00">operator=()</text>
<text text-anchor="start" x="1031" y="-274.5" font-family="Helvetica,sans-Serif" font-size="10.00">#</text>
<text text-anchor="start" x="1058.5" y="-274.5" font-family="Helvetica,sans-Serif" font-size="10.00">operator=()</text>
<polygon fill="#666666" stroke="#666666" points="1012.5,-494.5 1012.5,-494.5 1243.5,-494.5 1243.5,-494.5 1012.5,-494.5"/>
<polygon fill="#666666" stroke="#666666" points="1012.5,-464.5 1012.5,-464.5 1056.5,-464.5 1056.5,-464.5 1012.5,-464.5"/>
<polygon fill="#666666" stroke="#666666" points="1056.5,-464.5 1056.5,-464.5 1243.5,-464.5 1243.5,-464.5 1056.5,-464.5"/>
<polygon fill="none" stroke="#666666" points="1012,-268 1012,-567 1243,-567 1243,-268 1012,-268"/>
</a>
</g>
</g>
<!-- Node1&#45;&gt;Node7 -->
<g id="edge9_Node000001_Node000007" class="edge">
<title>Node1&#45;&gt;Node7</title>
<g id="a_edge9_Node000001_Node000007"><a xlink:title=" ">
<path fill="none" stroke="#63b8ff" d="M827.7,-627.59C881.3,-618.32 949.79,-600.6 1002.5,-567 1005.63,-565.01 1008.71,-562.91 1011.76,-560.73"/>
<polygon fill="none" stroke="#63b8ff" points="826.82,-624.18 817.53,-629.28 827.97,-631.09 826.82,-624.18"/>
</a>
</g>
</g>
<!-- Node8 -->
<g id="Node000008" class="node">
<title>Node8</title>
<g id="a_Node000008"><a xlink:href="classtracking_1_1observation_1_1ExtendedObservationModel.html" target="_top" xlink:title=" ">
<polygon fill="white" stroke="transparent" points="1492,-567 1261,-567 1261,-268 1492,-268 1492,-567"/>
<text text-anchor="start" x="1266.5" y="-554.5" font-family="Helvetica,sans-Serif" font-size="10.00">tracking::observation</text>
<text text-anchor="start" x="1266.5" y="-543.5" font-family="Helvetica,sans-Serif" font-size="10.00">::ExtendedObservationModel</text>
<text text-anchor="start" x="1266.5" y="-532.5" font-family="Helvetica,sans-Serif" font-size="10.00">&lt; VelocityObservationModel</text>
<text text-anchor="start" x="1266.5" y="-521.5" font-family="Helvetica,sans-Serif" font-size="10.00">&lt; CovarianceMatrixPolicy_,</text>
<text text-anchor="start" x="1266.5" y="-510.5" font-family="Helvetica,sans-Serif" font-size="10.00"> StateDef_ &gt;, ObservationModelTraits</text>
<text text-anchor="start" x="1266.5" y="-499.5" font-family="Helvetica,sans-Serif" font-size="10.00">&lt; CovarianceMatrixPolicy_, StateDef_, 2 &gt; &gt;</text>
<text text-anchor="start" x="1280" y="-484.5" font-family="Helvetica,sans-Serif" font-size="10.00">+</text>
<text text-anchor="start" x="1307.5" y="-484.5" font-family="Helvetica,sans-Serif" font-size="10.00">DimZ</text>
<text text-anchor="start" x="1280" y="-469.5" font-family="Helvetica,sans-Serif" font-size="10.00">+</text>
<text text-anchor="start" x="1307.5" y="-469.5" font-family="Helvetica,sans-Serif" font-size="10.00">DimX</text>
<text text-anchor="start" x="1280" y="-454.5" font-family="Helvetica,sans-Serif" font-size="10.00">+</text>
<text text-anchor="start" x="1307.5" y="-454.5" font-family="Helvetica,sans-Serif" font-size="10.00">ExtendedObservationModel()</text>
<text text-anchor="start" x="1280" y="-439.5" font-family="Helvetica,sans-Serif" font-size="10.00">+</text>
<text text-anchor="start" x="1307.5" y="-439.5" font-family="Helvetica,sans-Serif" font-size="10.00">~ExtendedObservationModel()</text>
<text text-anchor="start" x="1280" y="-424.5" font-family="Helvetica,sans-Serif" font-size="10.00">+</text>
<text text-anchor="start" x="1307.5" y="-424.5" font-family="Helvetica,sans-Serif" font-size="10.00">getDim()</text>
<text text-anchor="start" x="1280" y="-409.5" font-family="Helvetica,sans-Serif" font-size="10.00">+</text>
<text text-anchor="start" x="1307.5" y="-409.5" font-family="Helvetica,sans-Serif" font-size="10.00">computeInnovation()</text>
<text text-anchor="start" x="1280" y="-394.5" font-family="Helvetica,sans-Serif" font-size="10.00">+</text>
<text text-anchor="start" x="1307.5" y="-394.5" font-family="Helvetica,sans-Serif" font-size="10.00">MeasurementVecFromList()</text>
<text text-anchor="start" x="1280" y="-379.5" font-family="Helvetica,sans-Serif" font-size="10.00">+</text>
<text text-anchor="start" x="1307.5" y="-379.5" font-family="Helvetica,sans-Serif" font-size="10.00">MeasurementCovFromList()</text>
<text text-anchor="start" x="1280" y="-364.5" font-family="Helvetica,sans-Serif" font-size="10.00">+</text>
<text text-anchor="start" x="1307.5" y="-364.5" font-family="Helvetica,sans-Serif" font-size="10.00">MeasurementCovFromList()</text>
<text text-anchor="start" x="1280" y="-349.5" font-family="Helvetica,sans-Serif" font-size="10.00">+</text>
<text text-anchor="start" x="1307.5" y="-349.5" font-family="Helvetica,sans-Serif" font-size="10.00">FromLists()</text>
<text text-anchor="start" x="1280" y="-334.5" font-family="Helvetica,sans-Serif" font-size="10.00">#</text>
<text text-anchor="start" x="1307.5" y="-334.5" font-family="Helvetica,sans-Serif" font-size="10.00">ExtendedObservationModel()</text>
<text text-anchor="start" x="1280" y="-319.5" font-family="Helvetica,sans-Serif" font-size="10.00">#</text>
<text text-anchor="start" x="1307.5" y="-319.5" font-family="Helvetica,sans-Serif" font-size="10.00">ExtendedObservationModel()</text>
<text text-anchor="start" x="1280" y="-304.5" font-family="Helvetica,sans-Serif" font-size="10.00">#</text>
<text text-anchor="start" x="1307.5" y="-304.5" font-family="Helvetica,sans-Serif" font-size="10.00">ExtendedObservationModel()</text>
<text text-anchor="start" x="1280" y="-289.5" font-family="Helvetica,sans-Serif" font-size="10.00">#</text>
<text text-anchor="start" x="1307.5" y="-289.5" font-family="Helvetica,sans-Serif" font-size="10.00">operator=()</text>
<text text-anchor="start" x="1280" y="-274.5" font-family="Helvetica,sans-Serif" font-size="10.00">#</text>
<text text-anchor="start" x="1307.5" y="-274.5" font-family="Helvetica,sans-Serif" font-size="10.00">operator=()</text>
<polygon fill="#666666" stroke="#666666" points="1261.5,-494.5 1261.5,-494.5 1492.5,-494.5 1492.5,-494.5 1261.5,-494.5"/>
<polygon fill="#666666" stroke="#666666" points="1261.5,-464.5 1261.5,-464.5 1305.5,-464.5 1305.5,-464.5 1261.5,-464.5"/>
<polygon fill="#666666" stroke="#666666" points="1305.5,-464.5 1305.5,-464.5 1492.5,-464.5 1492.5,-464.5 1305.5,-464.5"/>
<polygon fill="none" stroke="#666666" points="1261,-268 1261,-567 1492,-567 1492,-268 1261,-268"/>
</a>
</g>
</g>
<!-- Node1&#45;&gt;Node8 -->
<g id="edge11_Node000001_Node000008" class="edge">
<title>Node1&#45;&gt;Node8</title>
<g id="a_edge11_Node000001_Node000008"><a xlink:title=" ">
<path fill="none" stroke="#63b8ff" d="M827.91,-633.08C954.06,-625.38 1181.38,-606.41 1252.5,-567 1255.29,-565.45 1258.05,-563.82 1260.76,-562.1"/>
<polygon fill="none" stroke="#63b8ff" points="827.66,-629.59 817.89,-633.68 828.08,-636.58 827.66,-629.59"/>
</a>
</g>
</g>
<!-- Node3 -->
<g id="Node000003" class="node">
<title>Node3</title>
<g id="a_Node000003"><a xlink:href="classtracking_1_1observation_1_1TEST__REMOVE__FINAL.html" target="_top" xlink:title="Observation model for a polar bearing&#45;only measurement.">
<polygon fill="white" stroke="transparent" points="823.5,-232 659.5,-232 659.5,0 823.5,0 823.5,-232"/>
<text text-anchor="start" x="681.5" y="-220" font-family="Helvetica,sans-Serif" font-size="10.00">tracking::observation</text>
<text text-anchor="start" x="681.5" y="-209" font-family="Helvetica,sans-Serif" font-size="10.00">::TEST_REMOVE_FINAL&lt;</text>
<text text-anchor="start" x="681.5" y="-198" font-family="Helvetica,sans-Serif" font-size="10.00"> CovarianceMatrixPolicy</text>
<text text-anchor="start" x="706" y="-187" font-family="Helvetica,sans-Serif" font-size="10.00">_, StateDef_ &gt;</text>
<text text-anchor="start" x="663.5" y="-172" font-family="Helvetica,sans-Serif" font-size="10.00">+</text>
<text text-anchor="start" x="676.5" y="-172" font-family="Helvetica,sans-Serif" font-size="10.00">RANGE_SQ_MIN</text>
<text text-anchor="start" x="663.5" y="-157" font-family="Helvetica,sans-Serif" font-size="10.00">+</text>
<text text-anchor="start" x="676.5" y="-157" font-family="Helvetica,sans-Serif" font-size="10.00">BearingObservationModel()</text>
<text text-anchor="start" x="663.5" y="-142" font-family="Helvetica,sans-Serif" font-size="10.00">+</text>
<text text-anchor="start" x="676.5" y="-142" font-family="Helvetica,sans-Serif" font-size="10.00">BearingObservationModel()</text>
<text text-anchor="start" x="663.5" y="-127" font-family="Helvetica,sans-Serif" font-size="10.00">+</text>
<text text-anchor="start" x="676.5" y="-127" font-family="Helvetica,sans-Serif" font-size="10.00">BearingObservationModel()</text>
<text text-anchor="start" x="663.5" y="-112" font-family="Helvetica,sans-Serif" font-size="10.00">+</text>
<text text-anchor="start" x="676.5" y="-112" font-family="Helvetica,sans-Serif" font-size="10.00">operator=()</text>
<text text-anchor="start" x="663.5" y="-97" font-family="Helvetica,sans-Serif" font-size="10.00">+</text>
<text text-anchor="start" x="676.5" y="-97" font-family="Helvetica,sans-Serif" font-size="10.00">operator=()</text>
<text text-anchor="start" x="663.5" y="-82" font-family="Helvetica,sans-Serif" font-size="10.00">+</text>
<text text-anchor="start" x="676.5" y="-82" font-family="Helvetica,sans-Serif" font-size="10.00">~BearingObservationModel()</text>
<text text-anchor="start" x="663.5" y="-67" font-family="Helvetica,sans-Serif" font-size="10.00">+</text>
<text text-anchor="start" x="676.5" y="-67" font-family="Helvetica,sans-Serif" font-size="10.00">BearingObservationModel()</text>
<text text-anchor="start" x="663.5" y="-52" font-family="Helvetica,sans-Serif" font-size="10.00">+</text>
<text text-anchor="start" x="676.5" y="-52" font-family="Helvetica,sans-Serif" font-size="10.00">predictMeasurement()</text>
<text text-anchor="start" x="663.5" y="-37" font-family="Helvetica,sans-Serif" font-size="10.00">+</text>
<text text-anchor="start" x="676.5" y="-37" font-family="Helvetica,sans-Serif" font-size="10.00">computeJacobian()</text>
<text text-anchor="start" x="663.5" y="-22" font-family="Helvetica,sans-Serif" font-size="10.00">+</text>
<text text-anchor="start" x="676.5" y="-22" font-family="Helvetica,sans-Serif" font-size="10.00">computeInnovation()</text>
<text text-anchor="start" x="676.5" y="-7" font-family="Helvetica,sans-Serif" font-size="10.00">and 47 more...</text>
<polygon fill="#666666" stroke="#666666" points="659.5,-182 659.5,-182 823.5,-182 823.5,-182 659.5,-182"/>
<polygon fill="#666666" stroke="#666666" points="659.5,-167 659.5,-167 674.5,-167 674.5,-167 659.5,-167"/>
<polygon fill="#666666" stroke="#666666" points="674.5,-167 674.5,-167 823.5,-167 823.5,-167 674.5,-167"/>
<polygon fill="none" stroke="#666666" points="659.5,0 659.5,-232 823.5,-232 823.5,0 659.5,0"/>
</a>
</g>
</g>
<!-- Node2&#45;&gt;Node3 -->
<g id="edge2_Node000002_Node000003" class="edge">
<title>Node2&#45;&gt;Node3</title>
<g id="a_edge2_Node000002_Node000003"><a xlink:title=" ">
<path fill="none" stroke="#63b8ff" d="M239.24,-268.17C239.32,-268.12 239.41,-268.06 239.5,-268 371.08,-181.11 554.48,-142.67 659.3,-126.9"/>
<polygon fill="none" stroke="#63b8ff" points="237.38,-265.2 231.18,-273.79 241.39,-270.94 237.38,-265.2"/>
</a>
</g>
</g>
<!-- Node4&#45;&gt;Node3 -->
<g id="edge4_Node000004_Node000003" class="edge">
<title>Node4&#45;&gt;Node3</title>
<g id="a_edge4_Node000004_Node000003"><a xlink:title=" ">
<path fill="none" stroke="#63b8ff" d="M487.71,-268.68C487.97,-268.45 488.24,-268.22 488.5,-268 540.63,-223.5 607.51,-184.21 659.41,-156.88"/>
<polygon fill="none" stroke="#63b8ff" points="485.29,-266.15 480.11,-275.39 489.92,-271.39 485.29,-266.15"/>
</a>
</g>
</g>
<!-- Node5&#45;&gt;Node3 -->
<g id="edge6_Node000005_Node000003" class="edge">
<title>Node5&#45;&gt;Node3</title>
<g id="a_edge6_Node000005_Node000003"><a xlink:title=" ">
<path fill="none" stroke="#63b8ff" d="M681.17,-258.16C684.9,-249.44 688.61,-240.75 692.25,-232.23"/>
<polygon fill="none" stroke="#63b8ff" points="677.84,-257.06 677.13,-267.63 684.27,-259.81 677.84,-257.06"/>
</a>
</g>
</g>
<!-- Node6&#45;&gt;Node3 -->
<g id="edge8_Node000006_Node000003" class="edge">
<title>Node6&#45;&gt;Node3</title>
<g id="a_edge8_Node000006_Node000003"><a xlink:title=" ">
<path fill="none" stroke="#63b8ff" d="M802.42,-258.43C798.62,-249.62 794.84,-240.84 791.13,-232.23"/>
<polygon fill="none" stroke="#63b8ff" points="799.21,-259.83 806.38,-267.63 805.64,-257.06 799.21,-259.83"/>
</a>
</g>
</g>
<!-- Node7&#45;&gt;Node3 -->
<g id="edge10_Node000007_Node000003" class="edge">
<title>Node7&#45;&gt;Node3</title>
<g id="a_edge10_Node000007_Node000003"><a xlink:title=" ">
<path fill="none" stroke="#63b8ff" d="M1003.95,-269.22C1003.47,-268.81 1002.98,-268.41 1002.5,-268 947.85,-222.17 877.44,-182.35 823.52,-155.13"/>
<polygon fill="none" stroke="#63b8ff" points="1001.91,-272.09 1011.74,-276.03 1006.51,-266.82 1001.91,-272.09"/>
</a>
</g>
</g>
<!-- Node8&#45;&gt;Node3 -->
<g id="edge12_Node000008_Node000003" class="edge">
<title>Node8&#45;&gt;Node3</title>
<g id="a_edge12_Node000008_Node000003"><a xlink:title=" ">
<path fill="none" stroke="#63b8ff" d="M1252.76,-268.17C1252.68,-268.12 1252.59,-268.06 1252.5,-268 1117.97,-179.63 930.24,-141.63 823.79,-126.35"/>
<polygon fill="none" stroke="#63b8ff" points="1250.62,-270.94 1260.83,-273.77 1254.61,-265.19 1250.62,-270.94"/>
</a>
</g>
</g>
</g>
</svg>

<g id="navigator" transform="translate(0 0)" fill="#404254">
  <rect fill="#f2f5e9" fill-opacity="0.5" stroke="#606060" stroke-width=".5" x="0" y="0" width="60" height="60"/>
  <use id="zoomplus" xlink:href="#zoomPlus" x="17" y="9" onmousedown="handleZoom(evt,'in')"/>
  <use id="zoomminus" xlink:href="#zoomMin" x="42" y="9" onmousedown="handleZoom(evt,'out')"/>
  <use id="reset" xlink:href="#resetDef" x="30" y="36" onmousedown="handleReset()"/>
   <use id="arrowup" xlink:href="#arrowUp" x="0" y="0" onmousedown="handlePan(0,-1)"/>
  <use id="arrowright" xlink:href="#arrowRight" x="0" y="0" onmousedown="handlePan(1,0)"/>
  <use id="arrowdown" xlink:href="#arrowDown" x="0" y="0" onmousedown="handlePan(0,1)"/>
  <use id="arrowleft" xlink:href="#arrowLeft" x="0" y="0" onmousedown="handlePan(-1,0)"/>
</g>
<svg viewBox="0 0 15 15" width="100%" height="30px" preserveAspectRatio="xMaxYMin meet">
 <g id="arrow_out" transform="scale(0.3 0.3)">
  <a xlink:href="structtracking_1_1observation_1_1contract_1_1ObservationModelIntf__inherit__graph_org.svg" target="_base">
   <rect id="button" ry="5" rx="5" y="6" x="6" height="38" width="38"
        fill="#f2f5e9" fill-opacity="0.5" stroke="#606060" stroke-width="1.0"/>
   <path id="arrow"
     d="M 11.500037,31.436501 C 11.940474,20.09759 22.043105,11.32322 32.158766,21.979434 L 37.068811,17.246167 C 37.068811,17.246167 37.088388,32 37.088388,32 L 22.160133,31.978069 C 22.160133,31.978069 26.997745,27.140456 26.997745,27.140456 C 18.528582,18.264221 13.291696,25.230495 11.500037,31.436501 z"
     style="fill:#404040;"/>
  </a>
 </g>
</svg>

<style type='text/css'>
<![CDATA[
[data-mouse-over-selected='false'] { opacity: 0.7; }
[data-mouse-over-selected='true']  { opacity: 1.0; }
]]>
</style>
<script type="application/ecmascript"><![CDATA[
document.addEventListener('DOMContentLoaded', (event) => {
  highlightEdges();
  highlightAdjacentNodes();
});
]]></script>
</svg>
