<?xml version="1.0" encoding="UTF-8" standalone="no"?>
<!DOCTYPE svg PUBLIC "-//W3C//DTD SVG 1.1//EN"
 "http://www.w3.org/Graphics/SVG/1.1/DTD/svg11.dtd">
<!-- Generated by graphviz version 2.43.0 (0)
 -->
<!-- Title: include/trackingLib/math/linalg/triangular_matrix.h Pages: 1 -->
<svg width="1009pt" height="456pt"
 viewBox="0.00 0.00 1009.00 456.00" xmlns="http://www.w3.org/2000/svg" xmlns:xlink="http://www.w3.org/1999/xlink">
<g id="graph0" class="graph" transform="scale(1 1) rotate(0) translate(4 452)">
<title>include/trackingLib/math/linalg/triangular_matrix.h</title>
<!-- Node1 -->
<g id="Node000001" class="node">
<title>Node1</title>
<g id="a_Node000001"><a xlink:title=" ">
<polygon fill="#999999" stroke="#666666" points="847.5,-448 722.5,-448 722.5,-407 847.5,-407 847.5,-448"/>
<text text-anchor="start" x="730.5" y="-436" font-family="Helvetica,sans-Serif" font-size="10.00">include/trackingLib</text>
<text text-anchor="start" x="730.5" y="-425" font-family="Helvetica,sans-Serif" font-size="10.00">/math/linalg/triangular</text>
<text text-anchor="middle" x="785" y="-414" font-family="Helvetica,sans-Serif" font-size="10.00">_matrix.h</text>
</a>
</g>
</g>
<!-- Node2 -->
<g id="Node000002" class="node">
<title>Node2</title>
<g id="a_Node000002"><a xlink:href="first__include_8h.html" target="_top" xlink:title=" ">
<polygon fill="white" stroke="#666666" points="256.5,-129 145.5,-129 145.5,-110 256.5,-110 256.5,-129"/>
<text text-anchor="middle" x="201" y="-117" font-family="Helvetica,sans-Serif" font-size="10.00">base/first_include.h</text>
</a>
</g>
</g>
<!-- Node1&#45;&gt;Node2 -->
<g id="edge1_Node000001_Node000002" class="edge">
<title>Node1&#45;&gt;Node2</title>
<g id="a_edge1_Node000001_Node000002"><a xlink:title=" ">
<path fill="none" stroke="#63b8ff" d="M722.38,-427.07C560,-426.86 138,-414.94 138,-296.5 138,-296.5 138,-296.5 138,-239.5 138,-198.85 167.08,-158.51 185.72,-136.82"/>
<polygon fill="#63b8ff" stroke="#63b8ff" points="188.46,-139 192.5,-129.21 183.24,-134.35 188.46,-139"/>
</a>
</g>
</g>
<!-- Node8 -->
<g id="Node000008" class="node">
<title>Node8</title>
<g id="a_Node000008"><a xlink:title=" ">
<polygon fill="#e0e0e0" stroke="#999999" points="966.5,-74 883.5,-74 883.5,-55 966.5,-55 966.5,-74"/>
<text text-anchor="middle" x="925" y="-62" font-family="Helvetica,sans-Serif" font-size="10.00">initializer_list</text>
</a>
</g>
</g>
<!-- Node1&#45;&gt;Node8 -->
<g id="edge34_Node000001_Node000008" class="edge">
<title>Node1&#45;&gt;Node8</title>
<g id="a_edge34_Node000001_Node000008"><a xlink:title=" ">
<path fill="none" stroke="#63b8ff" d="M847.77,-416.21C911.54,-401.75 1001,-368.61 1001,-296.5 1001,-296.5 1001,-296.5 1001,-179 1001,-138.03 966.38,-100.66 943.87,-80.69"/>
<polygon fill="#63b8ff" stroke="#63b8ff" points="946.09,-77.99 936.21,-74.15 941.54,-83.31 946.09,-77.99"/>
</a>
</g>
</g>
<!-- Node9 -->
<g id="Node000009" class="node">
<title>Node9</title>
<g id="a_Node000009"><a xlink:href="square__matrix_8h.html" target="_top" xlink:title=" ">
<polygon fill="white" stroke="#666666" points="839,-371 731,-371 731,-341 839,-341 839,-371"/>
<text text-anchor="start" x="739" y="-359" font-family="Helvetica,sans-Serif" font-size="10.00">math/linalg/square</text>
<text text-anchor="middle" x="785" y="-348" font-family="Helvetica,sans-Serif" font-size="10.00">_matrix.h</text>
</a>
</g>
</g>
<!-- Node1&#45;&gt;Node9 -->
<g id="edge8_Node000001_Node000009" class="edge">
<title>Node1&#45;&gt;Node9</title>
<g id="a_edge8_Node000001_Node000009"><a xlink:title=" ">
<path fill="none" stroke="#63b8ff" d="M785,-406.77C785,-398.85 785,-389.63 785,-381.3"/>
<polygon fill="#63b8ff" stroke="#63b8ff" points="788.5,-381.04 785,-371.04 781.5,-381.04 788.5,-381.04"/>
</a>
</g>
</g>
<!-- Node3 -->
<g id="Node000003" class="node">
<title>Node3</title>
<g id="a_Node000003"><a xlink:href="test__config_8h.html" target="_top" xlink:title=" ">
<polygon fill="white" stroke="#666666" points="369.5,-74 290.5,-74 290.5,-55 369.5,-55 369.5,-74"/>
<text text-anchor="middle" x="330" y="-62" font-family="Helvetica,sans-Serif" font-size="10.00">test_config.h</text>
</a>
</g>
</g>
<!-- Node2&#45;&gt;Node3 -->
<g id="edge2_Node000002_Node000003" class="edge">
<title>Node2&#45;&gt;Node3</title>
<g id="a_edge2_Node000002_Node000003"><a xlink:title=" ">
<path fill="none" stroke="#63b8ff" d="M221.73,-109.98C242.76,-101.34 275.55,-87.87 299.54,-78.02"/>
<polygon fill="#63b8ff" stroke="#63b8ff" points="300.98,-81.21 308.9,-74.17 298.32,-74.73 300.98,-81.21"/>
</a>
</g>
</g>
<!-- Node4 -->
<g id="Node000004" class="node">
<title>Node4</title>
<g id="a_Node000004"><a xlink:href="atomic__types_8h.html" target="_top" xlink:title=" ">
<polygon fill="white" stroke="#666666" points="92,-74 0,-74 0,-55 92,-55 92,-74"/>
<text text-anchor="middle" x="46" y="-62" font-family="Helvetica,sans-Serif" font-size="10.00">atomic_types.h</text>
</a>
</g>
</g>
<!-- Node2&#45;&gt;Node4 -->
<g id="edge3_Node000002_Node000004" class="edge">
<title>Node2&#45;&gt;Node4</title>
<g id="a_edge3_Node000002_Node000004"><a xlink:title=" ">
<path fill="none" stroke="#63b8ff" d="M176.1,-109.98C150.3,-101.16 109.78,-87.31 80.82,-77.41"/>
<polygon fill="#63b8ff" stroke="#63b8ff" points="81.69,-74.01 71.1,-74.08 79.43,-80.63 81.69,-74.01"/>
</a>
</g>
</g>
<!-- Node6 -->
<g id="Node000006" class="node">
<title>Node6</title>
<g id="a_Node000006"><a xlink:title=" ">
<polygon fill="#e0e0e0" stroke="#999999" points="202,-74 110,-74 110,-55 202,-55 202,-74"/>
<text text-anchor="middle" x="156" y="-62" font-family="Helvetica,sans-Serif" font-size="10.00">tl/expected.hpp</text>
</a>
</g>
</g>
<!-- Node2&#45;&gt;Node6 -->
<g id="edge5_Node000002_Node000006" class="edge">
<title>Node2&#45;&gt;Node6</title>
<g id="a_edge5_Node000002_Node000006"><a xlink:title=" ">
<path fill="none" stroke="#63b8ff" d="M193.57,-109.75C187.15,-102.18 177.69,-91.05 169.88,-81.84"/>
<polygon fill="#63b8ff" stroke="#63b8ff" points="172.43,-79.45 163.29,-74.09 167.1,-83.98 172.43,-79.45"/>
</a>
</g>
</g>
<!-- Node7 -->
<g id="Node000007" class="node">
<title>Node7</title>
<g id="a_Node000007"><a xlink:title=" ">
<polygon fill="#e0e0e0" stroke="#999999" points="272,-74 220,-74 220,-55 272,-55 272,-74"/>
<text text-anchor="middle" x="246" y="-62" font-family="Helvetica,sans-Serif" font-size="10.00">cassert</text>
</a>
</g>
</g>
<!-- Node2&#45;&gt;Node7 -->
<g id="edge6_Node000002_Node000007" class="edge">
<title>Node2&#45;&gt;Node7</title>
<g id="a_edge6_Node000002_Node000007"><a xlink:title=" ">
<path fill="none" stroke="#63b8ff" d="M208.43,-109.75C214.85,-102.18 224.31,-91.05 232.12,-81.84"/>
<polygon fill="#63b8ff" stroke="#63b8ff" points="234.9,-83.98 238.71,-74.09 229.57,-79.45 234.9,-83.98"/>
</a>
</g>
</g>
<!-- Node2&#45;&gt;Node8 -->
<g id="edge7_Node000002_Node000008" class="edge">
<title>Node2&#45;&gt;Node8</title>
<g id="a_edge7_Node000002_Node000008"><a xlink:title=" ">
<path fill="none" stroke="#63b8ff" d="M256.64,-110.99C259.81,-110.64 262.94,-110.3 266,-110 491.51,-87.66 761.57,-73.29 873.01,-67.9"/>
<polygon fill="#63b8ff" stroke="#63b8ff" points="873.47,-71.38 883.29,-67.41 873.13,-64.39 873.47,-71.38"/>
</a>
</g>
</g>
<!-- Node5 -->
<g id="Node000005" class="node">
<title>Node5</title>
<g id="a_Node000005"><a xlink:title=" ">
<polygon fill="#e0e0e0" stroke="#999999" points="71,-19 21,-19 21,0 71,0 71,-19"/>
<text text-anchor="middle" x="46" y="-7" font-family="Helvetica,sans-Serif" font-size="10.00">cstdint</text>
</a>
</g>
</g>
<!-- Node4&#45;&gt;Node5 -->
<g id="edge4_Node000004_Node000005" class="edge">
<title>Node4&#45;&gt;Node5</title>
<g id="a_edge4_Node000004_Node000005"><a xlink:title=" ">
<path fill="none" stroke="#63b8ff" d="M46,-54.75C46,-47.8 46,-37.85 46,-29.13"/>
<polygon fill="#63b8ff" stroke="#63b8ff" points="49.5,-29.09 46,-19.09 42.5,-29.09 49.5,-29.09"/>
</a>
</g>
</g>
<!-- Node9&#45;&gt;Node2 -->
<g id="edge9_Node000009_Node000002" class="edge">
<title>Node9&#45;&gt;Node2</title>
<g id="a_edge9_Node000009_Node000002"><a xlink:title=" ">
<path fill="none" stroke="#63b8ff" d="M730.72,-347.81C600.46,-329.37 275.9,-276.1 208,-195 195.13,-179.62 195.23,-155.7 197.35,-139.13"/>
<polygon fill="#63b8ff" stroke="#63b8ff" points="200.84,-139.46 199,-129.03 193.93,-138.33 200.84,-139.46"/>
</a>
</g>
</g>
<!-- Node9&#45;&gt;Node8 -->
<g id="edge32_Node000009_Node000008" class="edge">
<title>Node9&#45;&gt;Node8</title>
<g id="a_edge32_Node000009_Node000008"><a xlink:title=" ">
<path fill="none" stroke="#63b8ff" d="M839.08,-347.11C869.36,-340.31 906.11,-327.81 932,-305 955.56,-284.24 963,-272.91 963,-241.5 963,-241.5 963,-241.5 963,-179 963,-143.48 946.06,-104.79 934.8,-83"/>
<polygon fill="#63b8ff" stroke="#63b8ff" points="937.78,-81.16 929.97,-74 931.61,-84.47 937.78,-81.16"/>
</a>
</g>
</g>
<!-- Node10 -->
<g id="Node000010" class="node">
<title>Node10</title>
<g id="a_Node000010"><a xlink:href="errors_8h.html" target="_top" xlink:title="Error types used throughout the math library.">
<polygon fill="white" stroke="#666666" points="896.5,-129 783.5,-129 783.5,-110 896.5,-110 896.5,-129"/>
<text text-anchor="middle" x="840" y="-117" font-family="Helvetica,sans-Serif" font-size="10.00">math/linalg/errors.h</text>
</a>
</g>
</g>
<!-- Node9&#45;&gt;Node10 -->
<g id="edge10_Node000009_Node000010" class="edge">
<title>Node9&#45;&gt;Node10</title>
<g id="a_edge10_Node000009_Node000010"><a xlink:title=" ">
<path fill="none" stroke="#63b8ff" d="M788.36,-340.68C797.86,-300.17 824.95,-184.68 835.61,-139.22"/>
<polygon fill="#63b8ff" stroke="#63b8ff" points="839.07,-139.79 837.95,-129.26 832.26,-138.19 839.07,-139.79"/>
</a>
</g>
</g>
<!-- Node11 -->
<g id="Node000011" class="node">
<title>Node11</title>
<g id="a_Node000011"><a xlink:href="matrix_8h.html" target="_top" xlink:title=" ">
<polygon fill="white" stroke="#666666" points="551,-250 435,-250 435,-231 551,-231 551,-250"/>
<text text-anchor="middle" x="493" y="-238" font-family="Helvetica,sans-Serif" font-size="10.00">math/linalg/matrix.h</text>
</a>
</g>
</g>
<!-- Node9&#45;&gt;Node11 -->
<g id="edge11_Node000009_Node000011" class="edge">
<title>Node9&#45;&gt;Node11</title>
<g id="a_edge11_Node000009_Node000011"><a xlink:title=" ">
<path fill="none" stroke="#63b8ff" d="M748.27,-340.95C722.22,-330.96 686.45,-317.21 655,-305 609.45,-287.31 556.78,-266.62 524.18,-253.79"/>
<polygon fill="#63b8ff" stroke="#63b8ff" points="525.32,-250.48 514.73,-250.07 522.75,-256.99 525.32,-250.48"/>
</a>
</g>
</g>
<!-- Node21 -->
<g id="Node000021" class="node">
<title>Node21</title>
<g id="a_Node000021"><a xlink:href="vector_8h.html" target="_top" xlink:title=" ">
<polygon fill="white" stroke="#666666" points="778,-305 664,-305 664,-286 778,-286 778,-305"/>
<text text-anchor="middle" x="721" y="-293" font-family="Helvetica,sans-Serif" font-size="10.00">math/linalg/vector.h</text>
</a>
</g>
</g>
<!-- Node9&#45;&gt;Node21 -->
<g id="edge28_Node000009_Node000021" class="edge">
<title>Node9&#45;&gt;Node21</title>
<g id="a_edge28_Node000009_Node000021"><a xlink:title=" ">
<path fill="none" stroke="#63b8ff" d="M769.51,-340.84C760.03,-332.17 747.89,-321.08 738.12,-312.15"/>
<polygon fill="#63b8ff" stroke="#63b8ff" points="740.33,-309.43 730.59,-305.27 735.61,-314.6 740.33,-309.43"/>
</a>
</g>
</g>
<!-- Node22 -->
<g id="Node000022" class="node">
<title>Node22</title>
<g id="a_Node000022"><a xlink:title=" ">
<polygon fill="#e0e0e0" stroke="#999999" points="923.5,-305 878.5,-305 878.5,-286 923.5,-286 923.5,-305"/>
<text text-anchor="middle" x="901" y="-293" font-family="Helvetica,sans-Serif" font-size="10.00">utility</text>
</a>
</g>
</g>
<!-- Node9&#45;&gt;Node22 -->
<g id="edge33_Node000009_Node000022" class="edge">
<title>Node9&#45;&gt;Node22</title>
<g id="a_edge33_Node000009_Node000022"><a xlink:title=" ">
<path fill="none" stroke="#63b8ff" d="M812.78,-340.99C831.62,-331.49 856.35,-319.02 874.84,-309.69"/>
<polygon fill="#63b8ff" stroke="#63b8ff" points="876.52,-312.77 883.87,-305.14 873.36,-306.52 876.52,-312.77"/>
</a>
</g>
</g>
<!-- Node11&#45;&gt;Node2 -->
<g id="edge12_Node000011_Node000002" class="edge">
<title>Node11&#45;&gt;Node2</title>
<g id="a_edge12_Node000011_Node000002"><a xlink:title=" ">
<path fill="none" stroke="#63b8ff" d="M434.74,-235.94C367.89,-230.77 263.53,-219.05 233,-195 215.58,-181.28 207.49,-156.24 203.83,-139.01"/>
<polygon fill="#63b8ff" stroke="#63b8ff" points="207.25,-138.22 202.02,-129 200.36,-139.47 207.25,-138.22"/>
</a>
</g>
</g>
<!-- Node11&#45;&gt;Node8 -->
<g id="edge26_Node000011_Node000008" class="edge">
<title>Node11&#45;&gt;Node8</title>
<g id="a_edge26_Node000011_Node000008"><a xlink:title=" ">
<path fill="none" stroke="#63b8ff" d="M551.04,-235.07C613.57,-229.24 707.92,-217.05 736,-195 768.54,-169.44 742.85,-137.24 774,-110 801.48,-85.98 841.38,-74.91 873.26,-69.81"/>
<polygon fill="#63b8ff" stroke="#63b8ff" points="873.91,-73.26 883.31,-68.36 872.91,-66.33 873.91,-73.26"/>
</a>
</g>
</g>
<!-- Node11&#45;&gt;Node10 -->
<g id="edge22_Node000011_Node000010" class="edge">
<title>Node11&#45;&gt;Node10</title>
<g id="a_edge22_Node000011_Node000010"><a xlink:title=" ">
<path fill="none" stroke="#63b8ff" d="M551.02,-234.52C620.5,-227.81 732.12,-214.42 769,-195 794.61,-181.51 816.24,-155.26 828.67,-137.8"/>
<polygon fill="#63b8ff" stroke="#63b8ff" points="831.84,-139.37 834.6,-129.14 826.06,-135.42 831.84,-139.37"/>
</a>
</g>
</g>
<!-- Node12 -->
<g id="Node000012" class="node">
<title>Node12</title>
<g id="a_Node000012"><a xlink:href="matrix__intf_8h.html" target="_top" xlink:title=" ">
<polygon fill="white" stroke="#666666" points="727,-195 607,-195 607,-165 727,-165 727,-195"/>
<text text-anchor="start" x="615" y="-183" font-family="Helvetica,sans-Serif" font-size="10.00">math/linalg/contracts</text>
<text text-anchor="middle" x="667" y="-172" font-family="Helvetica,sans-Serif" font-size="10.00">/matrix_intf.h</text>
</a>
</g>
</g>
<!-- Node11&#45;&gt;Node12 -->
<g id="edge13_Node000011_Node000012" class="edge">
<title>Node11&#45;&gt;Node12</title>
<g id="a_edge13_Node000011_Node000012"><a xlink:title=" ">
<path fill="none" stroke="#63b8ff" d="M518.3,-230.99C543.67,-222.46 583.46,-209.09 615.5,-198.32"/>
<polygon fill="#63b8ff" stroke="#63b8ff" points="616.8,-201.57 625.17,-195.06 614.57,-194.93 616.8,-201.57"/>
</a>
</g>
</g>
<!-- Node17 -->
<g id="Node000017" class="node">
<title>Node17</title>
<g id="a_Node000017"><a xlink:href="matrix__types_8h.html" target="_top" xlink:title="Type definitions and enumerations for matrix operations.">
<polygon fill="white" stroke="#666666" points="550.5,-195 443.5,-195 443.5,-165 550.5,-165 550.5,-195"/>
<text text-anchor="start" x="451.5" y="-183" font-family="Helvetica,sans-Serif" font-size="10.00">math/linalg/matrix</text>
<text text-anchor="middle" x="497" y="-172" font-family="Helvetica,sans-Serif" font-size="10.00">_types.h</text>
</a>
</g>
</g>
<!-- Node11&#45;&gt;Node17 -->
<g id="edge23_Node000011_Node000017" class="edge">
<title>Node11&#45;&gt;Node17</title>
<g id="a_edge23_Node000011_Node000017"><a xlink:title=" ">
<path fill="none" stroke="#63b8ff" d="M493.59,-230.87C494.05,-224.11 494.72,-214.35 495.34,-205.26"/>
<polygon fill="#63b8ff" stroke="#63b8ff" points="498.84,-205.33 496.03,-195.11 491.86,-204.85 498.84,-205.33"/>
</a>
</g>
</g>
<!-- Node18 -->
<g id="Node000018" class="node">
<title>Node18</title>
<g id="a_Node000018"><a xlink:title=" ">
<polygon fill="#e0e0e0" stroke="#999999" points="306,-189.5 242,-189.5 242,-170.5 306,-170.5 306,-189.5"/>
<text text-anchor="middle" x="274" y="-177.5" font-family="Helvetica,sans-Serif" font-size="10.00">algorithm</text>
</a>
</g>
</g>
<!-- Node11&#45;&gt;Node18 -->
<g id="edge24_Node000011_Node000018" class="edge">
<title>Node11&#45;&gt;Node18</title>
<g id="a_edge24_Node000011_Node000018"><a xlink:title=" ">
<path fill="none" stroke="#63b8ff" d="M454.9,-230.95C418.69,-222.6 362.81,-209.11 315,-195 312.69,-194.32 310.31,-193.59 307.92,-192.83"/>
<polygon fill="#63b8ff" stroke="#63b8ff" points="308.77,-189.42 298.17,-189.63 306.58,-196.07 308.77,-189.42"/>
</a>
</g>
</g>
<!-- Node19 -->
<g id="Node000019" class="node">
<title>Node19</title>
<g id="a_Node000019"><a xlink:title=" ">
<polygon fill="#e0e0e0" stroke="#999999" points="366,-189.5 324,-189.5 324,-170.5 366,-170.5 366,-189.5"/>
<text text-anchor="middle" x="345" y="-177.5" font-family="Helvetica,sans-Serif" font-size="10.00">array</text>
</a>
</g>
</g>
<!-- Node11&#45;&gt;Node19 -->
<g id="edge25_Node000011_Node000019" class="edge">
<title>Node11&#45;&gt;Node19</title>
<g id="a_edge25_Node000011_Node000019"><a xlink:title=" ">
<path fill="none" stroke="#63b8ff" d="M468.83,-230.99C444.83,-222.41 407.08,-208.51 375,-195 373.99,-194.58 372.97,-194.14 371.94,-193.69"/>
<polygon fill="#63b8ff" stroke="#63b8ff" points="373.22,-190.43 362.67,-189.52 370.35,-196.81 373.22,-190.43"/>
</a>
</g>
</g>
<!-- Node20 -->
<g id="Node000020" class="node">
<title>Node20</title>
<g id="a_Node000020"><a xlink:title=" ">
<polygon fill="#e0e0e0" stroke="#999999" points="425.5,-189.5 384.5,-189.5 384.5,-170.5 425.5,-170.5 425.5,-189.5"/>
<text text-anchor="middle" x="405" y="-177.5" font-family="Helvetica,sans-Serif" font-size="10.00">tuple</text>
</a>
</g>
</g>
<!-- Node11&#45;&gt;Node20 -->
<g id="edge27_Node000011_Node000020" class="edge">
<title>Node11&#45;&gt;Node20</title>
<g id="a_edge27_Node000011_Node000020"><a xlink:title=" ">
<path fill="none" stroke="#63b8ff" d="M480.02,-230.87C465.98,-221.54 443.37,-206.51 426.64,-195.38"/>
<polygon fill="#63b8ff" stroke="#63b8ff" points="428.3,-192.29 418.04,-189.67 424.43,-198.12 428.3,-192.29"/>
</a>
</g>
</g>
<!-- Node12&#45;&gt;Node2 -->
<g id="edge14_Node000012_Node000002" class="edge">
<title>Node12&#45;&gt;Node2</title>
<g id="a_edge14_Node000012_Node000002"><a xlink:title=" ">
<path fill="none" stroke="#63b8ff" d="M606.89,-167.23C602.2,-166.43 597.53,-165.68 593,-165 451.64,-143.88 412.89,-146.35 266.9,-129.08"/>
<polygon fill="#63b8ff" stroke="#63b8ff" points="267,-125.57 256.66,-127.85 266.17,-132.52 267,-125.57"/>
</a>
</g>
</g>
<!-- Node12&#45;&gt;Node10 -->
<g id="edge21_Node000012_Node000010" class="edge">
<title>Node12&#45;&gt;Node10</title>
<g id="a_edge21_Node000012_Node000010"><a xlink:title=" ">
<path fill="none" stroke="#63b8ff" d="M708.44,-164.99C737.91,-155.02 777.06,-141.78 804.97,-132.35"/>
<polygon fill="#63b8ff" stroke="#63b8ff" points="806.35,-135.57 814.7,-129.05 804.11,-128.94 806.35,-135.57"/>
</a>
</g>
</g>
<!-- Node13 -->
<g id="Node000013" class="node">
<title>Node13</title>
<g id="a_Node000013"><a xlink:href="interface__contract_8h.html" target="_top" xlink:title=" ">
<polygon fill="white" stroke="#666666" points="415,-129 275,-129 275,-110 415,-110 415,-129"/>
<text text-anchor="middle" x="345" y="-117" font-family="Helvetica,sans-Serif" font-size="10.00">base/interface_contract.h</text>
</a>
</g>
</g>
<!-- Node12&#45;&gt;Node13 -->
<g id="edge15_Node000012_Node000013" class="edge">
<title>Node12&#45;&gt;Node13</title>
<g id="a_edge15_Node000012_Node000013"><a xlink:title=" ">
<path fill="none" stroke="#63b8ff" d="M606.83,-167.57C602.15,-166.69 597.5,-165.83 593,-165 528.2,-153.06 453.8,-139.76 403.53,-130.84"/>
<polygon fill="#63b8ff" stroke="#63b8ff" points="403.95,-127.36 393.5,-129.06 402.73,-134.25 403.95,-127.36"/>
</a>
</g>
</g>
<!-- Node15 -->
<g id="Node000015" class="node">
<title>Node15</title>
<g id="a_Node000015"><a xlink:href="require__copy__intf_8h.html" target="_top" xlink:title=" ">
<polygon fill="white" stroke="#666666" points="569,-129 433,-129 433,-110 569,-110 569,-129"/>
<text text-anchor="middle" x="501" y="-117" font-family="Helvetica,sans-Serif" font-size="10.00">base/require_copy_intf.h</text>
</a>
</g>
</g>
<!-- Node12&#45;&gt;Node15 -->
<g id="edge17_Node000012_Node000015" class="edge">
<title>Node12&#45;&gt;Node15</title>
<g id="a_edge17_Node000012_Node000015"><a xlink:title=" ">
<path fill="none" stroke="#63b8ff" d="M627.24,-164.99C599.17,-155.1 561.95,-141.98 535.21,-132.56"/>
<polygon fill="#63b8ff" stroke="#63b8ff" points="536.11,-129.16 525.51,-129.14 533.78,-135.76 536.11,-129.16"/>
</a>
</g>
</g>
<!-- Node16 -->
<g id="Node000016" class="node">
<title>Node16</title>
<g id="a_Node000016"><a xlink:href="require__move__intf_8h.html" target="_top" xlink:title=" ">
<polygon fill="white" stroke="#666666" points="727,-129 587,-129 587,-110 727,-110 727,-129"/>
<text text-anchor="middle" x="657" y="-117" font-family="Helvetica,sans-Serif" font-size="10.00">base/require_move_intf.h</text>
</a>
</g>
</g>
<!-- Node12&#45;&gt;Node16 -->
<g id="edge19_Node000012_Node000016" class="edge">
<title>Node12&#45;&gt;Node16</title>
<g id="a_edge19_Node000012_Node000016"><a xlink:title=" ">
<path fill="none" stroke="#63b8ff" d="M664.58,-164.84C663.26,-157.13 661.61,-147.49 660.19,-139.17"/>
<polygon fill="#63b8ff" stroke="#63b8ff" points="663.63,-138.53 658.5,-129.27 656.73,-139.71 663.63,-138.53"/>
</a>
</g>
</g>
<!-- Node14 -->
<g id="Node000014" class="node">
<title>Node14</title>
<g id="a_Node000014"><a xlink:title=" ">
<polygon fill="#e0e0e0" stroke="#999999" points="535.5,-74 466.5,-74 466.5,-55 535.5,-55 535.5,-74"/>
<text text-anchor="middle" x="501" y="-62" font-family="Helvetica,sans-Serif" font-size="10.00">type_traits</text>
</a>
</g>
</g>
<!-- Node13&#45;&gt;Node14 -->
<g id="edge16_Node000013_Node000014" class="edge">
<title>Node13&#45;&gt;Node14</title>
<g id="a_edge16_Node000013_Node000014"><a xlink:title=" ">
<path fill="none" stroke="#63b8ff" d="M370.06,-109.98C396.03,-101.16 436.81,-87.31 465.96,-77.41"/>
<polygon fill="#63b8ff" stroke="#63b8ff" points="467.4,-80.61 475.74,-74.08 465.15,-73.99 467.4,-80.61"/>
</a>
</g>
</g>
<!-- Node15&#45;&gt;Node14 -->
<g id="edge18_Node000015_Node000014" class="edge">
<title>Node15&#45;&gt;Node14</title>
<g id="a_edge18_Node000015_Node000014"><a xlink:title=" ">
<path fill="none" stroke="#63b8ff" d="M501,-109.75C501,-102.8 501,-92.85 501,-84.13"/>
<polygon fill="#63b8ff" stroke="#63b8ff" points="504.5,-84.09 501,-74.09 497.5,-84.09 504.5,-84.09"/>
</a>
</g>
</g>
<!-- Node16&#45;&gt;Node14 -->
<g id="edge20_Node000016_Node000014" class="edge">
<title>Node16&#45;&gt;Node14</title>
<g id="a_edge20_Node000016_Node000014"><a xlink:title=" ">
<path fill="none" stroke="#63b8ff" d="M631.94,-109.98C605.97,-101.16 565.19,-87.31 536.04,-77.41"/>
<polygon fill="#63b8ff" stroke="#63b8ff" points="536.85,-73.99 526.26,-74.08 534.6,-80.61 536.85,-73.99"/>
</a>
</g>
</g>
<!-- Node21&#45;&gt;Node2 -->
<g id="edge29_Node000021_Node000002" class="edge">
<title>Node21&#45;&gt;Node2</title>
<g id="a_edge29_Node000021_Node000002"><a xlink:title=" ">
<path fill="none" stroke="#63b8ff" d="M710.45,-285.94C675.21,-257.36 563.47,-166.88 559,-165 441.02,-115.35 398.25,-144.02 266.71,-129.02"/>
<polygon fill="#63b8ff" stroke="#63b8ff" points="267.01,-125.53 256.67,-127.81 266.17,-132.48 267.01,-125.53"/>
</a>
</g>
</g>
<!-- Node21&#45;&gt;Node8 -->
<g id="edge31_Node000021_Node000008" class="edge">
<title>Node21&#45;&gt;Node8</title>
<g id="a_edge31_Node000021_Node000008"><a xlink:title=" ">
<path fill="none" stroke="#63b8ff" d="M734.82,-285.91C768.89,-264.04 857.58,-202.71 905,-129 913.79,-115.33 918.96,-97.52 921.83,-84.24"/>
<polygon fill="#63b8ff" stroke="#63b8ff" points="925.29,-84.82 923.73,-74.34 918.41,-83.5 925.29,-84.82"/>
</a>
</g>
</g>
<!-- Node21&#45;&gt;Node11 -->
<g id="edge30_Node000021_Node000011" class="edge">
<title>Node21&#45;&gt;Node11</title>
<g id="a_edge30_Node000021_Node000011"><a xlink:title=" ">
<path fill="none" stroke="#63b8ff" d="M684.37,-285.98C645.09,-276.86 582.63,-262.33 539.81,-252.38"/>
<polygon fill="#63b8ff" stroke="#63b8ff" points="540.45,-248.94 529.92,-250.08 538.87,-255.76 540.45,-248.94"/>
</a>
</g>
</g>
</g>
</svg>
