<?xml version="1.0" encoding="UTF-8" standalone="no"?>
<!DOCTYPE svg PUBLIC "-//W3C//DTD SVG 1.1//EN"
 "http://www.w3.org/Graphics/SVG/1.1/DTD/svg11.dtd">
<!-- Generated by graphviz version 2.43.0 (0)
 -->
<!-- Title: include/trackingLib/math/linalg/triangular_matrix.hpp Pages: 1 -->
<svg width="1557pt" height="522pt"
 viewBox="0.00 0.00 1557.18 522.00" xmlns="http://www.w3.org/2000/svg" xmlns:xlink="http://www.w3.org/1999/xlink">
<g id="graph0" class="graph" transform="scale(1 1) rotate(0) translate(4 518)">
<title>include/trackingLib/math/linalg/triangular_matrix.hpp</title>
<!-- Node1 -->
<g id="Node000001" class="node">
<title>Node1</title>
<g id="a_Node000001"><a xlink:title=" ">
<polygon fill="#999999" stroke="#666666" points="503.5,-514 378.5,-514 378.5,-473 503.5,-473 503.5,-514"/>
<text text-anchor="start" x="386.5" y="-502" font-family="Helvetica,sans-Serif" font-size="10.00">include/trackingLib</text>
<text text-anchor="start" x="386.5" y="-491" font-family="Helvetica,sans-Serif" font-size="10.00">/math/linalg/triangular</text>
<text text-anchor="middle" x="441" y="-480" font-family="Helvetica,sans-Serif" font-size="10.00">_matrix.hpp</text>
</a>
</g>
</g>
<!-- Node2 -->
<g id="Node000002" class="node">
<title>Node2</title>
<g id="a_Node000002"><a xlink:href="triangular__matrix_8h.html" target="_top" xlink:title=" ">
<polygon fill="white" stroke="#666666" points="458,-437 336,-437 336,-407 458,-407 458,-437"/>
<text text-anchor="start" x="344" y="-425" font-family="Helvetica,sans-Serif" font-size="10.00">math/linalg/triangular</text>
<text text-anchor="middle" x="397" y="-414" font-family="Helvetica,sans-Serif" font-size="10.00">_matrix.h</text>
</a>
</g>
</g>
<!-- Node1&#45;&gt;Node2 -->
<g id="edge1_Node000001_Node000002" class="edge">
<title>Node1&#45;&gt;Node2</title>
<g id="a_edge1_Node000001_Node000002"><a xlink:title=" ">
<path fill="none" stroke="#63b8ff" d="M428.51,-472.77C423.15,-464.31 416.87,-454.38 411.32,-445.63"/>
<polygon fill="#63b8ff" stroke="#63b8ff" points="414.19,-443.62 405.89,-437.04 408.28,-447.36 414.19,-443.62"/>
</a>
</g>
</g>
<!-- Node24 -->
<g id="Node000024" class="node">
<title>Node24</title>
<g id="a_Node000024"><a xlink:href="matrix_8hpp.html" target="_top" xlink:title=" ">
<polygon fill="white" stroke="#666666" points="1359,-305 1231,-305 1231,-286 1359,-286 1359,-305"/>
<text text-anchor="middle" x="1295" y="-293" font-family="Helvetica,sans-Serif" font-size="10.00">math/linalg/matrix.hpp</text>
</a>
</g>
</g>
<!-- Node1&#45;&gt;Node24 -->
<g id="edge36_Node000001_Node000024" class="edge">
<title>Node1&#45;&gt;Node24</title>
<g id="a_edge36_Node000001_Node000024"><a xlink:title=" ">
<path fill="none" stroke="#63b8ff" d="M503.8,-478.09C667.24,-440.58 1103.19,-340.52 1247.71,-307.35"/>
<polygon fill="#63b8ff" stroke="#63b8ff" points="1248.64,-310.73 1257.61,-305.08 1247.08,-303.91 1248.64,-310.73"/>
</a>
</g>
</g>
<!-- Node3 -->
<g id="Node000003" class="node">
<title>Node3</title>
<g id="a_Node000003"><a xlink:href="first__include_8h.html" target="_top" xlink:title=" ">
<polygon fill="white" stroke="#666666" points="325.5,-129 214.5,-129 214.5,-110 325.5,-110 325.5,-129"/>
<text text-anchor="middle" x="270" y="-117" font-family="Helvetica,sans-Serif" font-size="10.00">base/first_include.h</text>
</a>
</g>
</g>
<!-- Node2&#45;&gt;Node3 -->
<g id="edge2_Node000002_Node000003" class="edge">
<title>Node2&#45;&gt;Node3</title>
<g id="a_edge2_Node000002_Node000003"><a xlink:title=" ">
<path fill="none" stroke="#63b8ff" d="M335.85,-410.22C310.65,-402.96 282.98,-390.91 264,-371 240,-345.82 240,-331.29 240,-296.5 240,-296.5 240,-296.5 240,-239.5 240,-202.9 253.51,-161.83 262.4,-138.78"/>
<polygon fill="#63b8ff" stroke="#63b8ff" points="265.74,-139.85 266.2,-129.27 259.24,-137.25 265.74,-139.85"/>
</a>
</g>
</g>
<!-- Node9 -->
<g id="Node000009" class="node">
<title>Node9</title>
<g id="a_Node000009"><a xlink:title=" ">
<polygon fill="#e0e0e0" stroke="#999999" points="471.5,-74 388.5,-74 388.5,-55 471.5,-55 471.5,-74"/>
<text text-anchor="middle" x="430" y="-62" font-family="Helvetica,sans-Serif" font-size="10.00">initializer_list</text>
</a>
</g>
</g>
<!-- Node2&#45;&gt;Node9 -->
<g id="edge35_Node000002_Node000009" class="edge">
<title>Node2&#45;&gt;Node9</title>
<g id="a_edge35_Node000002_Node000009"><a xlink:title=" ">
<path fill="none" stroke="#63b8ff" d="M390.03,-406.88C385.43,-397.04 379.61,-383.48 376,-371 367.74,-342.43 367.45,-334.64 365,-305 357.72,-217.09 362.59,-188.92 402,-110 406.69,-100.61 412.82,-90.68 418.14,-82.58"/>
<polygon fill="#63b8ff" stroke="#63b8ff" points="421.2,-84.31 423.89,-74.07 415.4,-80.4 421.2,-84.31"/>
</a>
</g>
</g>
<!-- Node10 -->
<g id="Node000010" class="node">
<title>Node10</title>
<g id="a_Node000010"><a xlink:href="square__matrix_8h.html" target="_top" xlink:title=" ">
<polygon fill="white" stroke="#666666" points="493,-371 385,-371 385,-341 493,-341 493,-371"/>
<text text-anchor="start" x="393" y="-359" font-family="Helvetica,sans-Serif" font-size="10.00">math/linalg/square</text>
<text text-anchor="middle" x="439" y="-348" font-family="Helvetica,sans-Serif" font-size="10.00">_matrix.h</text>
</a>
</g>
</g>
<!-- Node2&#45;&gt;Node10 -->
<g id="edge9_Node000002_Node000010" class="edge">
<title>Node2&#45;&gt;Node10</title>
<g id="a_edge9_Node000002_Node000010"><a xlink:title=" ">
<path fill="none" stroke="#63b8ff" d="M406.32,-406.8C411.54,-398.84 418.17,-388.74 424.1,-379.71"/>
<polygon fill="#63b8ff" stroke="#63b8ff" points="427.14,-381.44 429.7,-371.16 421.29,-377.6 427.14,-381.44"/>
</a>
</g>
</g>
<!-- Node4 -->
<g id="Node000004" class="node">
<title>Node4</title>
<g id="a_Node000004"><a xlink:href="test__config_8h.html" target="_top" xlink:title=" ">
<polygon fill="white" stroke="#666666" points="259.5,-74 180.5,-74 180.5,-55 259.5,-55 259.5,-74"/>
<text text-anchor="middle" x="220" y="-62" font-family="Helvetica,sans-Serif" font-size="10.00">test_config.h</text>
</a>
</g>
</g>
<!-- Node3&#45;&gt;Node4 -->
<g id="edge3_Node000003_Node000004" class="edge">
<title>Node3&#45;&gt;Node4</title>
<g id="a_edge3_Node000003_Node000004"><a xlink:title=" ">
<path fill="none" stroke="#63b8ff" d="M261.74,-109.75C254.54,-102.11 243.89,-90.82 235.15,-81.56"/>
<polygon fill="#63b8ff" stroke="#63b8ff" points="237.51,-78.96 228.1,-74.09 232.42,-83.76 237.51,-78.96"/>
</a>
</g>
</g>
<!-- Node5 -->
<g id="Node000005" class="node">
<title>Node5</title>
<g id="a_Node000005"><a xlink:href="atomic__types_8h.html" target="_top" xlink:title=" ">
<polygon fill="white" stroke="#666666" points="370,-74 278,-74 278,-55 370,-55 370,-74"/>
<text text-anchor="middle" x="324" y="-62" font-family="Helvetica,sans-Serif" font-size="10.00">atomic_types.h</text>
</a>
</g>
</g>
<!-- Node3&#45;&gt;Node5 -->
<g id="edge4_Node000003_Node000005" class="edge">
<title>Node3&#45;&gt;Node5</title>
<g id="a_edge4_Node000003_Node000005"><a xlink:title=" ">
<path fill="none" stroke="#63b8ff" d="M278.92,-109.75C286.78,-102.03 298.43,-90.6 307.92,-81.28"/>
<polygon fill="#63b8ff" stroke="#63b8ff" points="310.56,-83.59 315.25,-74.09 305.66,-78.6 310.56,-83.59"/>
</a>
</g>
</g>
<!-- Node7 -->
<g id="Node000007" class="node">
<title>Node7</title>
<g id="a_Node000007"><a xlink:title=" ">
<polygon fill="#e0e0e0" stroke="#999999" points="92,-74 0,-74 0,-55 92,-55 92,-74"/>
<text text-anchor="middle" x="46" y="-62" font-family="Helvetica,sans-Serif" font-size="10.00">tl/expected.hpp</text>
</a>
</g>
</g>
<!-- Node3&#45;&gt;Node7 -->
<g id="edge6_Node000003_Node000007" class="edge">
<title>Node3&#45;&gt;Node7</title>
<g id="a_edge6_Node000003_Node000007"><a xlink:title=" ">
<path fill="none" stroke="#63b8ff" d="M234.01,-109.98C195.51,-100.87 134.31,-86.4 92.26,-76.45"/>
<polygon fill="#63b8ff" stroke="#63b8ff" points="92.81,-72.98 82.27,-74.08 91.2,-79.79 92.81,-72.98"/>
</a>
</g>
</g>
<!-- Node8 -->
<g id="Node000008" class="node">
<title>Node8</title>
<g id="a_Node000008"><a xlink:title=" ">
<polygon fill="#e0e0e0" stroke="#999999" points="162,-74 110,-74 110,-55 162,-55 162,-74"/>
<text text-anchor="middle" x="136" y="-62" font-family="Helvetica,sans-Serif" font-size="10.00">cassert</text>
</a>
</g>
</g>
<!-- Node3&#45;&gt;Node8 -->
<g id="edge7_Node000003_Node000008" class="edge">
<title>Node3&#45;&gt;Node8</title>
<g id="a_edge7_Node000003_Node000008"><a xlink:title=" ">
<path fill="none" stroke="#63b8ff" d="M248.47,-109.98C226.53,-101.3 192.26,-87.75 167.31,-77.88"/>
<polygon fill="#63b8ff" stroke="#63b8ff" points="168.51,-74.59 157.92,-74.17 165.93,-81.1 168.51,-74.59"/>
</a>
</g>
</g>
<!-- Node3&#45;&gt;Node9 -->
<g id="edge8_Node000003_Node000009" class="edge">
<title>Node3&#45;&gt;Node9</title>
<g id="a_edge8_Node000003_Node000009"><a xlink:title=" ">
<path fill="none" stroke="#63b8ff" d="M295.71,-109.98C322.45,-101.13 364.53,-87.19 394.45,-77.28"/>
<polygon fill="#63b8ff" stroke="#63b8ff" points="395.7,-80.55 404.09,-74.08 393.5,-73.9 395.7,-80.55"/>
</a>
</g>
</g>
<!-- Node6 -->
<g id="Node000006" class="node">
<title>Node6</title>
<g id="a_Node000006"><a xlink:title=" ">
<polygon fill="#e0e0e0" stroke="#999999" points="349,-19 299,-19 299,0 349,0 349,-19"/>
<text text-anchor="middle" x="324" y="-7" font-family="Helvetica,sans-Serif" font-size="10.00">cstdint</text>
</a>
</g>
</g>
<!-- Node5&#45;&gt;Node6 -->
<g id="edge5_Node000005_Node000006" class="edge">
<title>Node5&#45;&gt;Node6</title>
<g id="a_edge5_Node000005_Node000006"><a xlink:title=" ">
<path fill="none" stroke="#63b8ff" d="M324,-54.75C324,-47.8 324,-37.85 324,-29.13"/>
<polygon fill="#63b8ff" stroke="#63b8ff" points="327.5,-29.09 324,-19.09 320.5,-29.09 327.5,-29.09"/>
</a>
</g>
</g>
<!-- Node10&#45;&gt;Node3 -->
<g id="edge10_Node000010_Node000003" class="edge">
<title>Node10&#45;&gt;Node3</title>
<g id="a_edge10_Node000010_Node000003"><a xlink:title=" ">
<path fill="none" stroke="#63b8ff" d="M394.97,-340.97C375.92,-333.01 354.69,-321.32 340,-305 295.74,-255.83 278.42,-175.86 272.59,-139.54"/>
<polygon fill="#63b8ff" stroke="#63b8ff" points="276.01,-138.75 271.07,-129.37 269.08,-139.77 276.01,-138.75"/>
</a>
</g>
</g>
<!-- Node10&#45;&gt;Node9 -->
<g id="edge33_Node000010_Node000009" class="edge">
<title>Node10&#45;&gt;Node9</title>
<g id="a_edge33_Node000010_Node000009"><a xlink:title=" ">
<path fill="none" stroke="#63b8ff" d="M409.75,-340.95C395.91,-332.6 380.74,-320.58 373,-305 353.24,-265.24 403.11,-132.24 422.59,-83.55"/>
<polygon fill="#63b8ff" stroke="#63b8ff" points="425.94,-84.61 426.45,-74.03 419.45,-81.99 425.94,-84.61"/>
</a>
</g>
</g>
<!-- Node11 -->
<g id="Node000011" class="node">
<title>Node11</title>
<g id="a_Node000011"><a xlink:href="errors_8h.html" target="_top" xlink:title="Error types used throughout the math library.">
<polygon fill="white" stroke="#666666" points="670.5,-129 557.5,-129 557.5,-110 670.5,-110 670.5,-129"/>
<text text-anchor="middle" x="614" y="-117" font-family="Helvetica,sans-Serif" font-size="10.00">math/linalg/errors.h</text>
</a>
</g>
</g>
<!-- Node10&#45;&gt;Node11 -->
<g id="edge11_Node000010_Node000011" class="edge">
<title>Node10&#45;&gt;Node11</title>
<g id="a_edge11_Node000010_Node000011"><a xlink:title=" ">
<path fill="none" stroke="#63b8ff" d="M493.07,-350.12C576.3,-339.2 731.89,-304.42 786,-195 791.91,-183.05 794.16,-175.54 786,-165 772.89,-148.07 723.39,-136.41 680.84,-129.29"/>
<polygon fill="#63b8ff" stroke="#63b8ff" points="681.19,-125.8 670.76,-127.66 680.08,-132.71 681.19,-125.8"/>
</a>
</g>
</g>
<!-- Node12 -->
<g id="Node000012" class="node">
<title>Node12</title>
<g id="a_Node000012"><a xlink:href="matrix_8h.html" target="_top" xlink:title=" ">
<polygon fill="white" stroke="#666666" points="705,-250 589,-250 589,-231 705,-231 705,-250"/>
<text text-anchor="middle" x="647" y="-238" font-family="Helvetica,sans-Serif" font-size="10.00">math/linalg/matrix.h</text>
</a>
</g>
</g>
<!-- Node10&#45;&gt;Node12 -->
<g id="edge12_Node000010_Node000012" class="edge">
<title>Node10&#45;&gt;Node12</title>
<g id="a_edge12_Node000010_Node000012"><a xlink:title=" ">
<path fill="none" stroke="#63b8ff" d="M458.11,-340.98C478.69,-326.24 512.71,-302.88 544,-286 566.84,-273.68 593.8,-262.14 614.4,-253.89"/>
<polygon fill="#63b8ff" stroke="#63b8ff" points="615.94,-257.05 623.96,-250.12 613.38,-250.53 615.94,-257.05"/>
</a>
</g>
</g>
<!-- Node22 -->
<g id="Node000022" class="node">
<title>Node22</title>
<g id="a_Node000022"><a xlink:href="vector_8h.html" target="_top" xlink:title=" ">
<polygon fill="white" stroke="#666666" points="496,-305 382,-305 382,-286 496,-286 496,-305"/>
<text text-anchor="middle" x="439" y="-293" font-family="Helvetica,sans-Serif" font-size="10.00">math/linalg/vector.h</text>
</a>
</g>
</g>
<!-- Node10&#45;&gt;Node22 -->
<g id="edge29_Node000010_Node000022" class="edge">
<title>Node10&#45;&gt;Node22</title>
<g id="a_edge29_Node000010_Node000022"><a xlink:title=" ">
<path fill="none" stroke="#63b8ff" d="M439,-340.84C439,-333.21 439,-323.7 439,-315.45"/>
<polygon fill="#63b8ff" stroke="#63b8ff" points="442.5,-315.27 439,-305.27 435.5,-315.27 442.5,-315.27"/>
</a>
</g>
</g>
<!-- Node23 -->
<g id="Node000023" class="node">
<title>Node23</title>
<g id="a_Node000023"><a xlink:title=" ">
<polygon fill="#e0e0e0" stroke="#999999" points="597.5,-305 552.5,-305 552.5,-286 597.5,-286 597.5,-305"/>
<text text-anchor="middle" x="575" y="-293" font-family="Helvetica,sans-Serif" font-size="10.00">utility</text>
</a>
</g>
</g>
<!-- Node10&#45;&gt;Node23 -->
<g id="edge34_Node000010_Node000023" class="edge">
<title>Node10&#45;&gt;Node23</title>
<g id="a_edge34_Node000010_Node000023"><a xlink:title=" ">
<path fill="none" stroke="#63b8ff" d="M471.58,-340.99C494.06,-331.31 523.72,-318.56 545.51,-309.18"/>
<polygon fill="#63b8ff" stroke="#63b8ff" points="547.11,-312.31 554.92,-305.14 544.35,-305.88 547.11,-312.31"/>
</a>
</g>
</g>
<!-- Node12&#45;&gt;Node3 -->
<g id="edge13_Node000012_Node000003" class="edge">
<title>Node12&#45;&gt;Node3</title>
<g id="a_edge13_Node000012_Node000003"><a xlink:title=" ">
<path fill="none" stroke="#63b8ff" d="M615.71,-230.95C584.31,-222.28 534.64,-208.27 492,-195 424.84,-174.1 347.05,-147.42 303.68,-132.32"/>
<polygon fill="#63b8ff" stroke="#63b8ff" points="304.79,-129 294.2,-129.01 302.48,-135.61 304.79,-129"/>
</a>
</g>
</g>
<!-- Node12&#45;&gt;Node9 -->
<g id="edge27_Node000012_Node000009" class="edge">
<title>Node12&#45;&gt;Node9</title>
<g id="a_edge27_Node000012_Node000009"><a xlink:title=" ">
<path fill="none" stroke="#63b8ff" d="M606.83,-230.98C581.8,-224.24 549.92,-212.91 526,-195 484.88,-164.21 453.37,-111 438.83,-83.35"/>
<polygon fill="#63b8ff" stroke="#63b8ff" points="441.78,-81.41 434.11,-74.1 435.54,-84.6 441.78,-81.41"/>
</a>
</g>
</g>
<!-- Node12&#45;&gt;Node11 -->
<g id="edge23_Node000012_Node000011" class="edge">
<title>Node12&#45;&gt;Node11</title>
<g id="a_edge23_Node000012_Node000011"><a xlink:title=" ">
<path fill="none" stroke="#63b8ff" d="M689.97,-230.91C734.76,-219.97 795.19,-198.38 770,-165 758.67,-149.99 716.7,-138.53 679.14,-131"/>
<polygon fill="#63b8ff" stroke="#63b8ff" points="679.69,-127.54 669.21,-129.07 678.36,-134.41 679.69,-127.54"/>
</a>
</g>
</g>
<!-- Node13 -->
<g id="Node000013" class="node">
<title>Node13</title>
<g id="a_Node000013"><a xlink:href="matrix__intf_8h.html" target="_top" xlink:title=" ">
<polygon fill="white" stroke="#666666" points="975,-195 855,-195 855,-165 975,-165 975,-195"/>
<text text-anchor="start" x="863" y="-183" font-family="Helvetica,sans-Serif" font-size="10.00">math/linalg/contracts</text>
<text text-anchor="middle" x="915" y="-172" font-family="Helvetica,sans-Serif" font-size="10.00">/matrix_intf.h</text>
</a>
</g>
</g>
<!-- Node12&#45;&gt;Node13 -->
<g id="edge14_Node000012_Node000013" class="edge">
<title>Node12&#45;&gt;Node13</title>
<g id="a_edge14_Node000012_Node000013"><a xlink:title=" ">
<path fill="none" stroke="#63b8ff" d="M685.97,-230.99C727.55,-221.92 794.28,-207.35 845.01,-196.28"/>
<polygon fill="#63b8ff" stroke="#63b8ff" points="845.9,-199.66 854.93,-194.11 844.41,-192.83 845.9,-199.66"/>
</a>
</g>
</g>
<!-- Node18 -->
<g id="Node000018" class="node">
<title>Node18</title>
<g id="a_Node000018"><a xlink:href="matrix__types_8h.html" target="_top" xlink:title="Type definitions and enumerations for matrix operations.">
<polygon fill="white" stroke="#666666" points="700.5,-195 593.5,-195 593.5,-165 700.5,-165 700.5,-195"/>
<text text-anchor="start" x="601.5" y="-183" font-family="Helvetica,sans-Serif" font-size="10.00">math/linalg/matrix</text>
<text text-anchor="middle" x="647" y="-172" font-family="Helvetica,sans-Serif" font-size="10.00">_types.h</text>
</a>
</g>
</g>
<!-- Node12&#45;&gt;Node18 -->
<g id="edge24_Node000012_Node000018" class="edge">
<title>Node12&#45;&gt;Node18</title>
<g id="a_edge24_Node000012_Node000018"><a xlink:title=" ">
<path fill="none" stroke="#63b8ff" d="M647,-230.87C647,-224.11 647,-214.35 647,-205.26"/>
<polygon fill="#63b8ff" stroke="#63b8ff" points="650.5,-205.11 647,-195.11 643.5,-205.11 650.5,-205.11"/>
</a>
</g>
</g>
<!-- Node19 -->
<g id="Node000019" class="node">
<title>Node19</title>
<g id="a_Node000019"><a xlink:title=" ">
<polygon fill="#e0e0e0" stroke="#999999" points="1099,-189.5 1035,-189.5 1035,-170.5 1099,-170.5 1099,-189.5"/>
<text text-anchor="middle" x="1067" y="-177.5" font-family="Helvetica,sans-Serif" font-size="10.00">algorithm</text>
</a>
</g>
</g>
<!-- Node12&#45;&gt;Node19 -->
<g id="edge25_Node000012_Node000019" class="edge">
<title>Node12&#45;&gt;Node19</title>
<g id="a_edge25_Node000012_Node000019"><a xlink:title=" ">
<path fill="none" stroke="#63b8ff" d="M705.23,-232.45C772.48,-224.17 886.39,-209.67 984,-195 997.23,-193.01 1011.61,-190.66 1024.62,-188.45"/>
<polygon fill="#63b8ff" stroke="#63b8ff" points="1025.45,-191.86 1034.72,-186.72 1024.27,-184.96 1025.45,-191.86"/>
</a>
</g>
</g>
<!-- Node20 -->
<g id="Node000020" class="node">
<title>Node20</title>
<g id="a_Node000020"><a xlink:title=" ">
<polygon fill="#e0e0e0" stroke="#999999" points="761,-189.5 719,-189.5 719,-170.5 761,-170.5 761,-189.5"/>
<text text-anchor="middle" x="740" y="-177.5" font-family="Helvetica,sans-Serif" font-size="10.00">array</text>
</a>
</g>
</g>
<!-- Node12&#45;&gt;Node20 -->
<g id="edge26_Node000012_Node000020" class="edge">
<title>Node12&#45;&gt;Node20</title>
<g id="a_edge26_Node000012_Node000020"><a xlink:title=" ">
<path fill="none" stroke="#63b8ff" d="M660.72,-230.87C675.7,-221.45 699.89,-206.23 717.62,-195.08"/>
<polygon fill="#63b8ff" stroke="#63b8ff" points="719.62,-197.95 726.22,-189.67 715.89,-192.03 719.62,-197.95"/>
</a>
</g>
</g>
<!-- Node21 -->
<g id="Node000021" class="node">
<title>Node21</title>
<g id="a_Node000021"><a xlink:title=" ">
<polygon fill="#e0e0e0" stroke="#999999" points="575.5,-189.5 534.5,-189.5 534.5,-170.5 575.5,-170.5 575.5,-189.5"/>
<text text-anchor="middle" x="555" y="-177.5" font-family="Helvetica,sans-Serif" font-size="10.00">tuple</text>
</a>
</g>
</g>
<!-- Node12&#45;&gt;Node21 -->
<g id="edge28_Node000012_Node000021" class="edge">
<title>Node12&#45;&gt;Node21</title>
<g id="a_edge28_Node000012_Node000021"><a xlink:title=" ">
<path fill="none" stroke="#63b8ff" d="M633.43,-230.87C618.61,-221.45 594.67,-206.23 577.14,-195.08"/>
<polygon fill="#63b8ff" stroke="#63b8ff" points="578.95,-192.08 568.63,-189.67 575.19,-197.99 578.95,-192.08"/>
</a>
</g>
</g>
<!-- Node13&#45;&gt;Node3 -->
<g id="edge15_Node000013_Node000003" class="edge">
<title>Node13&#45;&gt;Node3</title>
<g id="a_edge15_Node000013_Node000003"><a xlink:title=" ">
<path fill="none" stroke="#63b8ff" d="M854.69,-173.08C828.65,-170.54 797.83,-167.58 770,-165 614.27,-150.55 431.17,-134.49 335.6,-126.18"/>
<polygon fill="#63b8ff" stroke="#63b8ff" points="335.77,-122.68 325.5,-125.3 335.16,-129.66 335.77,-122.68"/>
</a>
</g>
</g>
<!-- Node13&#45;&gt;Node11 -->
<g id="edge22_Node000013_Node000011" class="edge">
<title>Node13&#45;&gt;Node11</title>
<g id="a_edge22_Node000013_Node000011"><a xlink:title=" ">
<path fill="none" stroke="#63b8ff" d="M854.81,-167.3C800.29,-156.71 720.67,-141.23 668.11,-131.02"/>
<polygon fill="#63b8ff" stroke="#63b8ff" points="668.46,-127.52 657.98,-129.05 667.13,-134.39 668.46,-127.52"/>
</a>
</g>
</g>
<!-- Node14 -->
<g id="Node000014" class="node">
<title>Node14</title>
<g id="a_Node000014"><a xlink:href="interface__contract_8h.html" target="_top" xlink:title=" ">
<polygon fill="white" stroke="#666666" points="829,-129 689,-129 689,-110 829,-110 829,-129"/>
<text text-anchor="middle" x="759" y="-117" font-family="Helvetica,sans-Serif" font-size="10.00">base/interface_contract.h</text>
</a>
</g>
</g>
<!-- Node13&#45;&gt;Node14 -->
<g id="edge16_Node000013_Node000014" class="edge">
<title>Node13&#45;&gt;Node14</title>
<g id="a_edge16_Node000013_Node000014"><a xlink:title=" ">
<path fill="none" stroke="#63b8ff" d="M877.63,-164.99C851.37,-155.14 816.59,-142.1 791.48,-132.68"/>
<polygon fill="#63b8ff" stroke="#63b8ff" points="792.63,-129.37 782.04,-129.14 790.17,-135.93 792.63,-129.37"/>
</a>
</g>
</g>
<!-- Node16 -->
<g id="Node000016" class="node">
<title>Node16</title>
<g id="a_Node000016"><a xlink:href="require__copy__intf_8h.html" target="_top" xlink:title=" ">
<polygon fill="white" stroke="#666666" points="983,-129 847,-129 847,-110 983,-110 983,-129"/>
<text text-anchor="middle" x="915" y="-117" font-family="Helvetica,sans-Serif" font-size="10.00">base/require_copy_intf.h</text>
</a>
</g>
</g>
<!-- Node13&#45;&gt;Node16 -->
<g id="edge18_Node000013_Node000016" class="edge">
<title>Node13&#45;&gt;Node16</title>
<g id="a_edge18_Node000013_Node000016"><a xlink:title=" ">
<path fill="none" stroke="#63b8ff" d="M915,-164.84C915,-157.21 915,-147.7 915,-139.45"/>
<polygon fill="#63b8ff" stroke="#63b8ff" points="918.5,-139.27 915,-129.27 911.5,-139.27 918.5,-139.27"/>
</a>
</g>
</g>
<!-- Node17 -->
<g id="Node000017" class="node">
<title>Node17</title>
<g id="a_Node000017"><a xlink:href="require__move__intf_8h.html" target="_top" xlink:title=" ">
<polygon fill="white" stroke="#666666" points="1141,-129 1001,-129 1001,-110 1141,-110 1141,-129"/>
<text text-anchor="middle" x="1071" y="-117" font-family="Helvetica,sans-Serif" font-size="10.00">base/require_move_intf.h</text>
</a>
</g>
</g>
<!-- Node13&#45;&gt;Node17 -->
<g id="edge20_Node000013_Node000017" class="edge">
<title>Node13&#45;&gt;Node17</title>
<g id="a_edge20_Node000013_Node000017"><a xlink:title=" ">
<path fill="none" stroke="#63b8ff" d="M952.37,-164.99C978.63,-155.14 1013.41,-142.1 1038.52,-132.68"/>
<polygon fill="#63b8ff" stroke="#63b8ff" points="1039.83,-135.93 1047.96,-129.14 1037.37,-129.37 1039.83,-135.93"/>
</a>
</g>
</g>
<!-- Node15 -->
<g id="Node000015" class="node">
<title>Node15</title>
<g id="a_Node000015"><a xlink:title=" ">
<polygon fill="#e0e0e0" stroke="#999999" points="1027.5,-74 958.5,-74 958.5,-55 1027.5,-55 1027.5,-74"/>
<text text-anchor="middle" x="993" y="-62" font-family="Helvetica,sans-Serif" font-size="10.00">type_traits</text>
</a>
</g>
</g>
<!-- Node14&#45;&gt;Node15 -->
<g id="edge17_Node000014_Node000015" class="edge">
<title>Node14&#45;&gt;Node15</title>
<g id="a_edge17_Node000014_Node000015"><a xlink:title=" ">
<path fill="none" stroke="#63b8ff" d="M796.6,-109.98C837.95,-100.62 904.35,-85.58 948.33,-75.62"/>
<polygon fill="#63b8ff" stroke="#63b8ff" points="949.19,-79.01 958.17,-73.39 947.65,-72.18 949.19,-79.01"/>
</a>
</g>
</g>
<!-- Node16&#45;&gt;Node15 -->
<g id="edge19_Node000016_Node000015" class="edge">
<title>Node16&#45;&gt;Node15</title>
<g id="a_edge19_Node000016_Node000015"><a xlink:title=" ">
<path fill="none" stroke="#63b8ff" d="M927.53,-109.98C939.4,-101.92 957.46,-89.65 971.61,-80.03"/>
<polygon fill="#63b8ff" stroke="#63b8ff" points="973.94,-82.69 980.24,-74.17 970,-76.9 973.94,-82.69"/>
</a>
</g>
</g>
<!-- Node17&#45;&gt;Node15 -->
<g id="edge21_Node000017_Node000015" class="edge">
<title>Node17&#45;&gt;Node15</title>
<g id="a_edge21_Node000017_Node000015"><a xlink:title=" ">
<path fill="none" stroke="#63b8ff" d="M1058.47,-109.98C1046.6,-101.92 1028.54,-89.65 1014.39,-80.03"/>
<polygon fill="#63b8ff" stroke="#63b8ff" points="1016,-76.9 1005.76,-74.17 1012.06,-82.69 1016,-76.9"/>
</a>
</g>
</g>
<!-- Node22&#45;&gt;Node3 -->
<g id="edge30_Node000022_Node000003" class="edge">
<title>Node22&#45;&gt;Node3</title>
<g id="a_edge30_Node000022_Node000003"><a xlink:title=" ">
<path fill="none" stroke="#63b8ff" d="M430.39,-285.63C403.37,-257.82 320.05,-172.03 285.38,-136.34"/>
<polygon fill="#63b8ff" stroke="#63b8ff" points="287.87,-133.88 278.4,-129.14 282.85,-138.76 287.87,-133.88"/>
</a>
</g>
</g>
<!-- Node22&#45;&gt;Node9 -->
<g id="edge32_Node000022_Node000009" class="edge">
<title>Node22&#45;&gt;Node9</title>
<g id="a_edge32_Node000022_Node000009"><a xlink:title=" ">
<path fill="none" stroke="#63b8ff" d="M438.66,-285.8C437.34,-252.36 432.6,-131.59 430.75,-84.49"/>
<polygon fill="#63b8ff" stroke="#63b8ff" points="434.23,-84.06 430.34,-74.21 427.24,-84.34 434.23,-84.06"/>
</a>
</g>
</g>
<!-- Node22&#45;&gt;Node12 -->
<g id="edge31_Node000022_Node000012" class="edge">
<title>Node22&#45;&gt;Node12</title>
<g id="a_edge31_Node000022_Node000012"><a xlink:title=" ">
<path fill="none" stroke="#63b8ff" d="M472.42,-285.98C507.94,-276.93 564.27,-262.58 603.3,-252.64"/>
<polygon fill="#63b8ff" stroke="#63b8ff" points="604.49,-255.94 613.32,-250.08 602.76,-249.16 604.49,-255.94"/>
</a>
</g>
</g>
<!-- Node24&#45;&gt;Node12 -->
<g id="edge37_Node000024_Node000012" class="edge">
<title>Node24&#45;&gt;Node12</title>
<g id="a_edge37_Node000024_Node000012"><a xlink:title=" ">
<path fill="none" stroke="#63b8ff" d="M1230.8,-289.25C1108.12,-279.21 841.43,-257.4 715.48,-247.1"/>
<polygon fill="#63b8ff" stroke="#63b8ff" points="715.45,-243.59 705.2,-246.26 714.88,-250.56 715.45,-243.59"/>
</a>
</g>
</g>
<!-- Node24&#45;&gt;Node15 -->
<g id="edge44_Node000024_Node000015" class="edge">
<title>Node24&#45;&gt;Node15</title>
<g id="a_edge44_Node000024_Node000015"><a xlink:title=" ">
<path fill="none" stroke="#63b8ff" d="M1252.31,-285.94C1230.54,-279.5 1205.3,-268.49 1189,-250 1146.29,-201.55 1195.57,-155.78 1150,-110 1120.44,-80.3 1072.63,-70.07 1037.53,-66.72"/>
<polygon fill="#63b8ff" stroke="#63b8ff" points="1037.78,-63.23 1027.53,-65.92 1037.22,-70.2 1037.78,-63.23"/>
</a>
</g>
</g>
<!-- Node24&#45;&gt;Node19 -->
<g id="edge38_Node000024_Node000019" class="edge">
<title>Node24&#45;&gt;Node19</title>
<g id="a_edge38_Node000024_Node000019"><a xlink:title=" ">
<path fill="none" stroke="#63b8ff" d="M1359.06,-292.16C1425.13,-288.24 1521.72,-277.8 1545,-250 1550.42,-243.53 1550.65,-237.27 1545,-231 1516.09,-198.91 1221.21,-186.02 1109.54,-182.26"/>
<polygon fill="#63b8ff" stroke="#63b8ff" points="1109.43,-178.76 1099.32,-181.93 1109.2,-185.76 1109.43,-178.76"/>
</a>
</g>
</g>
<!-- Node25 -->
<g id="Node000025" class="node">
<title>Node25</title>
<g id="a_Node000025"><a xlink:title=" ">
<polygon fill="#e0e0e0" stroke="#999999" points="1244.5,-250 1197.5,-250 1197.5,-231 1244.5,-231 1244.5,-250"/>
<text text-anchor="middle" x="1221" y="-238" font-family="Helvetica,sans-Serif" font-size="10.00">cmath</text>
</a>
</g>
</g>
<!-- Node24&#45;&gt;Node25 -->
<g id="edge39_Node000024_Node000025" class="edge">
<title>Node24&#45;&gt;Node25</title>
<g id="a_edge39_Node000024_Node000025"><a xlink:title=" ">
<path fill="none" stroke="#63b8ff" d="M1283.11,-285.98C1271.85,-277.92 1254.71,-265.65 1241.29,-256.03"/>
<polygon fill="#63b8ff" stroke="#63b8ff" points="1243.27,-253.15 1233.11,-250.17 1239.2,-258.84 1243.27,-253.15"/>
</a>
</g>
</g>
<!-- Node26 -->
<g id="Node000026" class="node">
<title>Node26</title>
<g id="a_Node000026"><a xlink:title=" ">
<polygon fill="#e0e0e0" stroke="#999999" points="1327.5,-250 1262.5,-250 1262.5,-231 1327.5,-231 1327.5,-250"/>
<text text-anchor="middle" x="1295" y="-238" font-family="Helvetica,sans-Serif" font-size="10.00">functional</text>
</a>
</g>
</g>
<!-- Node24&#45;&gt;Node26 -->
<g id="edge40_Node000024_Node000026" class="edge">
<title>Node24&#45;&gt;Node26</title>
<g id="a_edge40_Node000024_Node000026"><a xlink:title=" ">
<path fill="none" stroke="#63b8ff" d="M1295,-285.75C1295,-278.8 1295,-268.85 1295,-260.13"/>
<polygon fill="#63b8ff" stroke="#63b8ff" points="1298.5,-260.09 1295,-250.09 1291.5,-260.09 1298.5,-260.09"/>
</a>
</g>
</g>
<!-- Node27 -->
<g id="Node000027" class="node">
<title>Node27</title>
<g id="a_Node000027"><a xlink:title=" ">
<polygon fill="#e0e0e0" stroke="#999999" points="1390,-250 1346,-250 1346,-231 1390,-231 1390,-250"/>
<text text-anchor="middle" x="1368" y="-238" font-family="Helvetica,sans-Serif" font-size="10.00">limits</text>
</a>
</g>
</g>
<!-- Node24&#45;&gt;Node27 -->
<g id="edge41_Node000024_Node000027" class="edge">
<title>Node24&#45;&gt;Node27</title>
<g id="a_edge41_Node000024_Node000027"><a xlink:title=" ">
<path fill="none" stroke="#63b8ff" d="M1306.73,-285.98C1317.73,-278 1334.42,-265.88 1347.6,-256.31"/>
<polygon fill="#63b8ff" stroke="#63b8ff" points="1350.02,-258.88 1356.06,-250.17 1345.91,-253.21 1350.02,-258.88"/>
</a>
</g>
</g>
<!-- Node28 -->
<g id="Node000028" class="node">
<title>Node28</title>
<g id="a_Node000028"><a xlink:title=" ">
<polygon fill="#e0e0e0" stroke="#999999" points="1473.5,-250 1408.5,-250 1408.5,-231 1473.5,-231 1473.5,-250"/>
<text text-anchor="middle" x="1441" y="-238" font-family="Helvetica,sans-Serif" font-size="10.00">stdexcept</text>
</a>
</g>
</g>
<!-- Node24&#45;&gt;Node28 -->
<g id="edge42_Node000024_Node000028" class="edge">
<title>Node24&#45;&gt;Node28</title>
<g id="a_edge42_Node000024_Node000028"><a xlink:title=" ">
<path fill="none" stroke="#63b8ff" d="M1318.46,-285.98C1342.58,-277.23 1380.37,-263.51 1407.6,-253.62"/>
<polygon fill="#63b8ff" stroke="#63b8ff" points="1408.91,-256.87 1417.12,-250.17 1406.52,-250.29 1408.91,-256.87"/>
</a>
</g>
</g>
<!-- Node29 -->
<g id="Node000029" class="node">
<title>Node29</title>
<g id="a_Node000029"><a xlink:title=" ">
<polygon fill="#e0e0e0" stroke="#999999" points="1536,-250 1492,-250 1492,-231 1536,-231 1536,-250"/>
<text text-anchor="middle" x="1514" y="-238" font-family="Helvetica,sans-Serif" font-size="10.00">string</text>
</a>
</g>
</g>
<!-- Node24&#45;&gt;Node29 -->
<g id="edge43_Node000024_Node000029" class="edge">
<title>Node24&#45;&gt;Node29</title>
<g id="a_edge43_Node000024_Node000029"><a xlink:title=" ">
<path fill="none" stroke="#63b8ff" d="M1332.91,-285.94C1368.86,-277.73 1424.65,-264.75 1481.75,-250.25"/>
<polygon fill="#63b8ff" stroke="#63b8ff" points="1482.85,-253.59 1491.67,-247.72 1481.12,-246.8 1482.85,-253.59"/>
</a>
</g>
</g>
</g>
</svg>
