<?xml version="1.0" encoding="UTF-8" standalone="no"?>
<!DOCTYPE svg PUBLIC "-//W3C//DTD SVG 1.1//EN"
 "http://www.w3.org/Graphics/SVG/1.1/DTD/svg11.dtd">
<!-- Generated by graphviz version 2.43.0 (0)
 -->
<!-- Title: include/trackingLib/math/linalg/vector.hpp Pages: 1 -->
<svg width="1193pt" height="379pt"
 viewBox="0.00 0.00 1192.50 379.00" xmlns="http://www.w3.org/2000/svg" xmlns:xlink="http://www.w3.org/1999/xlink">
<g id="graph0" class="graph" transform="scale(1 1) rotate(0) translate(4 375)">
<title>include/trackingLib/math/linalg/vector.hpp</title>
<!-- Node1 -->
<g id="Node000001" class="node">
<title>Node1</title>
<g id="a_Node000001"><a xlink:title=" ">
<polygon fill="#999999" stroke="#666666" points="855,-371 726,-371 726,-341 855,-341 855,-371"/>
<text text-anchor="start" x="734" y="-359" font-family="Helvetica,sans-Serif" font-size="10.00">include/trackingLib</text>
<text text-anchor="middle" x="790.5" y="-348" font-family="Helvetica,sans-Serif" font-size="10.00">/math/linalg/vector.hpp</text>
</a>
</g>
</g>
<!-- Node2 -->
<g id="Node000002" class="node">
<title>Node2</title>
<g id="a_Node000002"><a xlink:href="vector_8h.html" target="_top" xlink:title=" ">
<polygon fill="white" stroke="#666666" points="278.5,-305 164.5,-305 164.5,-286 278.5,-286 278.5,-305"/>
<text text-anchor="middle" x="221.5" y="-293" font-family="Helvetica,sans-Serif" font-size="10.00">math/linalg/vector.h</text>
</a>
</g>
</g>
<!-- Node1&#45;&gt;Node2 -->
<g id="edge1_Node000001_Node000002" class="edge">
<title>Node1&#45;&gt;Node2</title>
<g id="a_edge1_Node000001_Node000002"><a xlink:title=" ">
<path fill="none" stroke="#63b8ff" d="M725.78,-348.35C617.18,-337.18 399.31,-314.78 288.92,-303.43"/>
<polygon fill="#63b8ff" stroke="#63b8ff" points="289.21,-299.94 278.91,-302.4 288.49,-306.91 289.21,-299.94"/>
</a>
</g>
</g>
<!-- Node21 -->
<g id="Node000021" class="node">
<title>Node21</title>
<g id="a_Node000021"><a xlink:href="matrix_8hpp.html" target="_top" xlink:title=" ">
<polygon fill="white" stroke="#666666" points="946.5,-305 818.5,-305 818.5,-286 946.5,-286 946.5,-305"/>
<text text-anchor="middle" x="882.5" y="-293" font-family="Helvetica,sans-Serif" font-size="10.00">math/linalg/matrix.hpp</text>
</a>
</g>
</g>
<!-- Node1&#45;&gt;Node21 -->
<g id="edge27_Node000001_Node000021" class="edge">
<title>Node1&#45;&gt;Node21</title>
<g id="a_edge27_Node000001_Node000021"><a xlink:title=" ">
<path fill="none" stroke="#63b8ff" d="M812.77,-340.84C827.17,-331.68 845.83,-319.82 860.23,-310.66"/>
<polygon fill="#63b8ff" stroke="#63b8ff" points="862.42,-313.41 868.98,-305.09 858.67,-307.51 862.42,-313.41"/>
</a>
</g>
</g>
<!-- Node22 -->
<g id="Node000022" class="node">
<title>Node22</title>
<g id="a_Node000022"><a xlink:title=" ">
<polygon fill="#e0e0e0" stroke="#999999" points="814,-250 767,-250 767,-231 814,-231 814,-250"/>
<text text-anchor="middle" x="790.5" y="-238" font-family="Helvetica,sans-Serif" font-size="10.00">cmath</text>
</a>
</g>
</g>
<!-- Node1&#45;&gt;Node22 -->
<g id="edge36_Node000001_Node000022" class="edge">
<title>Node1&#45;&gt;Node22</title>
<g id="a_edge36_Node000001_Node000022"><a xlink:title=" ">
<path fill="none" stroke="#63b8ff" d="M790.5,-340.63C790.5,-320.21 790.5,-282.81 790.5,-260.24"/>
<polygon fill="#63b8ff" stroke="#63b8ff" points="794,-260.23 790.5,-250.23 787,-260.23 794,-260.23"/>
</a>
</g>
</g>
<!-- Node3 -->
<g id="Node000003" class="node">
<title>Node3</title>
<g id="a_Node000003"><a xlink:href="first__include_8h.html" target="_top" xlink:title=" ">
<polygon fill="white" stroke="#666666" points="252,-129 141,-129 141,-110 252,-110 252,-129"/>
<text text-anchor="middle" x="196.5" y="-117" font-family="Helvetica,sans-Serif" font-size="10.00">base/first_include.h</text>
</a>
</g>
</g>
<!-- Node2&#45;&gt;Node3 -->
<g id="edge2_Node000002_Node000003" class="edge">
<title>Node2&#45;&gt;Node3</title>
<g id="a_edge2_Node000002_Node000003"><a xlink:title=" ">
<path fill="none" stroke="#63b8ff" d="M211.21,-285.96C193.13,-270.21 156.3,-234.57 142.5,-195 138.11,-182.41 136.81,-177.06 142.5,-165 148.51,-152.26 160.16,-141.92 171.11,-134.44"/>
<polygon fill="#63b8ff" stroke="#63b8ff" points="173.04,-137.36 179.61,-129.05 169.29,-131.44 173.04,-137.36"/>
</a>
</g>
</g>
<!-- Node9 -->
<g id="Node000009" class="node">
<title>Node9</title>
<g id="a_Node000009"><a xlink:title=" ">
<polygon fill="#e0e0e0" stroke="#999999" points="83,-74 0,-74 0,-55 83,-55 83,-74"/>
<text text-anchor="middle" x="41.5" y="-62" font-family="Helvetica,sans-Serif" font-size="10.00">initializer_list</text>
</a>
</g>
</g>
<!-- Node2&#45;&gt;Node9 -->
<g id="edge26_Node000002_Node000009" class="edge">
<title>Node2&#45;&gt;Node9</title>
<g id="a_edge26_Node000002_Node000009"><a xlink:title=" ">
<path fill="none" stroke="#63b8ff" d="M206.86,-285.85C193.49,-277.57 173.58,-264.26 158.5,-250 108.63,-202.83 95.11,-189.41 62.5,-129 54.82,-114.78 49.28,-97.24 45.83,-84.21"/>
<polygon fill="#63b8ff" stroke="#63b8ff" points="49.13,-82.97 43.33,-74.1 42.33,-84.65 49.13,-82.97"/>
</a>
</g>
</g>
<!-- Node10 -->
<g id="Node000010" class="node">
<title>Node10</title>
<g id="a_Node000010"><a xlink:href="matrix_8h.html" target="_top" xlink:title=" ">
<polygon fill="white" stroke="#666666" points="440.5,-250 324.5,-250 324.5,-231 440.5,-231 440.5,-250"/>
<text text-anchor="middle" x="382.5" y="-238" font-family="Helvetica,sans-Serif" font-size="10.00">math/linalg/matrix.h</text>
</a>
</g>
</g>
<!-- Node2&#45;&gt;Node10 -->
<g id="edge9_Node000002_Node000010" class="edge">
<title>Node2&#45;&gt;Node10</title>
<g id="a_edge9_Node000002_Node000010"><a xlink:title=" ">
<path fill="none" stroke="#63b8ff" d="M247.37,-285.98C274.28,-277.13 316.62,-263.19 346.73,-253.28"/>
<polygon fill="#63b8ff" stroke="#63b8ff" points="348.03,-256.53 356.43,-250.08 345.84,-249.88 348.03,-256.53"/>
</a>
</g>
</g>
<!-- Node4 -->
<g id="Node000004" class="node">
<title>Node4</title>
<g id="a_Node000004"><a xlink:href="test__config_8h.html" target="_top" xlink:title=" ">
<polygon fill="white" stroke="#666666" points="471,-74 392,-74 392,-55 471,-55 471,-74"/>
<text text-anchor="middle" x="431.5" y="-62" font-family="Helvetica,sans-Serif" font-size="10.00">test_config.h</text>
</a>
</g>
</g>
<!-- Node3&#45;&gt;Node4 -->
<g id="edge3_Node000003_Node000004" class="edge">
<title>Node3&#45;&gt;Node4</title>
<g id="a_edge3_Node000003_Node000004"><a xlink:title=" ">
<path fill="none" stroke="#63b8ff" d="M234.26,-109.98C274.82,-100.84 339.39,-86.27 383.53,-76.32"/>
<polygon fill="#63b8ff" stroke="#63b8ff" points="384.46,-79.7 393.45,-74.08 382.92,-72.87 384.46,-79.7"/>
</a>
</g>
</g>
<!-- Node5 -->
<g id="Node000005" class="node">
<title>Node5</title>
<g id="a_Node000005"><a xlink:href="atomic__types_8h.html" target="_top" xlink:title=" ">
<polygon fill="white" stroke="#666666" points="193.5,-74 101.5,-74 101.5,-55 193.5,-55 193.5,-74"/>
<text text-anchor="middle" x="147.5" y="-62" font-family="Helvetica,sans-Serif" font-size="10.00">atomic_types.h</text>
</a>
</g>
</g>
<!-- Node3&#45;&gt;Node5 -->
<g id="edge4_Node000003_Node000005" class="edge">
<title>Node3&#45;&gt;Node5</title>
<g id="a_edge4_Node000003_Node000005"><a xlink:title=" ">
<path fill="none" stroke="#63b8ff" d="M188.41,-109.75C181.34,-102.11 170.91,-90.82 162.35,-81.56"/>
<polygon fill="#63b8ff" stroke="#63b8ff" points="164.8,-79.06 155.44,-74.09 159.66,-83.81 164.8,-79.06"/>
</a>
</g>
</g>
<!-- Node7 -->
<g id="Node000007" class="node">
<title>Node7</title>
<g id="a_Node000007"><a xlink:title=" ">
<polygon fill="#e0e0e0" stroke="#999999" points="303.5,-74 211.5,-74 211.5,-55 303.5,-55 303.5,-74"/>
<text text-anchor="middle" x="257.5" y="-62" font-family="Helvetica,sans-Serif" font-size="10.00">tl/expected.hpp</text>
</a>
</g>
</g>
<!-- Node3&#45;&gt;Node7 -->
<g id="edge6_Node000003_Node000007" class="edge">
<title>Node3&#45;&gt;Node7</title>
<g id="a_edge6_Node000003_Node000007"><a xlink:title=" ">
<path fill="none" stroke="#63b8ff" d="M206.3,-109.98C215.32,-102.15 228.91,-90.34 239.82,-80.86"/>
<polygon fill="#63b8ff" stroke="#63b8ff" points="242.27,-83.37 247.52,-74.17 237.68,-78.09 242.27,-83.37"/>
</a>
</g>
</g>
<!-- Node8 -->
<g id="Node000008" class="node">
<title>Node8</title>
<g id="a_Node000008"><a xlink:title=" ">
<polygon fill="#e0e0e0" stroke="#999999" points="373.5,-74 321.5,-74 321.5,-55 373.5,-55 373.5,-74"/>
<text text-anchor="middle" x="347.5" y="-62" font-family="Helvetica,sans-Serif" font-size="10.00">cassert</text>
</a>
</g>
</g>
<!-- Node3&#45;&gt;Node8 -->
<g id="edge7_Node000003_Node000008" class="edge">
<title>Node3&#45;&gt;Node8</title>
<g id="a_edge7_Node000003_Node000008"><a xlink:title=" ">
<path fill="none" stroke="#63b8ff" d="M220.76,-109.98C245.82,-101.19 285.13,-87.39 313.33,-77.49"/>
<polygon fill="#63b8ff" stroke="#63b8ff" points="314.52,-80.78 322.8,-74.17 312.2,-74.18 314.52,-80.78"/>
</a>
</g>
</g>
<!-- Node3&#45;&gt;Node9 -->
<g id="edge8_Node000003_Node000009" class="edge">
<title>Node3&#45;&gt;Node9</title>
<g id="a_edge8_Node000003_Node000009"><a xlink:title=" ">
<path fill="none" stroke="#63b8ff" d="M171.6,-109.98C145.8,-101.16 105.28,-87.31 76.32,-77.41"/>
<polygon fill="#63b8ff" stroke="#63b8ff" points="77.19,-74.01 66.6,-74.08 74.93,-80.63 77.19,-74.01"/>
</a>
</g>
</g>
<!-- Node6 -->
<g id="Node000006" class="node">
<title>Node6</title>
<g id="a_Node000006"><a xlink:title=" ">
<polygon fill="#e0e0e0" stroke="#999999" points="172.5,-19 122.5,-19 122.5,0 172.5,0 172.5,-19"/>
<text text-anchor="middle" x="147.5" y="-7" font-family="Helvetica,sans-Serif" font-size="10.00">cstdint</text>
</a>
</g>
</g>
<!-- Node5&#45;&gt;Node6 -->
<g id="edge5_Node000005_Node000006" class="edge">
<title>Node5&#45;&gt;Node6</title>
<g id="a_edge5_Node000005_Node000006"><a xlink:title=" ">
<path fill="none" stroke="#63b8ff" d="M147.5,-54.75C147.5,-47.8 147.5,-37.85 147.5,-29.13"/>
<polygon fill="#63b8ff" stroke="#63b8ff" points="151,-29.09 147.5,-19.09 144,-29.09 151,-29.09"/>
</a>
</g>
</g>
<!-- Node10&#45;&gt;Node3 -->
<g id="edge10_Node000010_Node000003" class="edge">
<title>Node10&#45;&gt;Node3</title>
<g id="a_edge10_Node000010_Node000003"><a xlink:title=" ">
<path fill="none" stroke="#63b8ff" d="M386.58,-230.56C392.85,-215.32 402.65,-184.09 387.5,-165 379.25,-154.6 310.17,-140.36 257.44,-130.81"/>
<polygon fill="#63b8ff" stroke="#63b8ff" points="257.92,-127.35 247.46,-129.03 256.69,-134.24 257.92,-127.35"/>
</a>
</g>
</g>
<!-- Node10&#45;&gt;Node9 -->
<g id="edge24_Node000010_Node000009" class="edge">
<title>Node10&#45;&gt;Node9</title>
<g id="a_edge24_Node000010_Node000009"><a xlink:title=" ">
<path fill="none" stroke="#63b8ff" d="M324.41,-233.51C263.44,-226.39 172.38,-213.15 142.5,-195 97.36,-167.58 64.66,-112.03 50.04,-83.42"/>
<polygon fill="#63b8ff" stroke="#63b8ff" points="53.05,-81.62 45.47,-74.2 46.77,-84.72 53.05,-81.62"/>
</a>
</g>
</g>
<!-- Node11 -->
<g id="Node000011" class="node">
<title>Node11</title>
<g id="a_Node000011"><a xlink:href="matrix__intf_8h.html" target="_top" xlink:title=" ">
<polygon fill="white" stroke="#666666" points="554.5,-195 434.5,-195 434.5,-165 554.5,-165 554.5,-195"/>
<text text-anchor="start" x="442.5" y="-183" font-family="Helvetica,sans-Serif" font-size="10.00">math/linalg/contracts</text>
<text text-anchor="middle" x="494.5" y="-172" font-family="Helvetica,sans-Serif" font-size="10.00">/matrix_intf.h</text>
</a>
</g>
</g>
<!-- Node10&#45;&gt;Node11 -->
<g id="edge11_Node000010_Node000011" class="edge">
<title>Node10&#45;&gt;Node11</title>
<g id="a_edge11_Node000010_Node000011"><a xlink:title=" ">
<path fill="none" stroke="#63b8ff" d="M399.03,-230.87C414.65,-222.71 438.6,-210.2 458.61,-199.75"/>
<polygon fill="#63b8ff" stroke="#63b8ff" points="460.23,-202.85 467.48,-195.11 456.99,-196.64 460.23,-202.85"/>
</a>
</g>
</g>
<!-- Node16 -->
<g id="Node000016" class="node">
<title>Node16</title>
<g id="a_Node000016"><a xlink:href="errors_8h.html" target="_top" xlink:title="Error types used throughout the math library.">
<polygon fill="white" stroke="#666666" points="854,-129 741,-129 741,-110 854,-110 854,-129"/>
<text text-anchor="middle" x="797.5" y="-117" font-family="Helvetica,sans-Serif" font-size="10.00">math/linalg/errors.h</text>
</a>
</g>
</g>
<!-- Node10&#45;&gt;Node16 -->
<g id="edge20_Node000010_Node000016" class="edge">
<title>Node10&#45;&gt;Node16</title>
<g id="a_edge20_Node000010_Node000016"><a xlink:title=" ">
<path fill="none" stroke="#63b8ff" d="M420.48,-230.94C457.24,-222.48 514.44,-208.82 563.5,-195 634.84,-174.9 717.2,-147.74 762.72,-132.38"/>
<polygon fill="#63b8ff" stroke="#63b8ff" points="764.04,-135.63 772.39,-129.11 761.8,-129 764.04,-135.63"/>
</a>
</g>
</g>
<!-- Node17 -->
<g id="Node000017" class="node">
<title>Node17</title>
<g id="a_Node000017"><a xlink:href="matrix__types_8h.html" target="_top" xlink:title="Type definitions and enumerations for matrix operations.">
<polygon fill="white" stroke="#666666" points="258,-195 151,-195 151,-165 258,-165 258,-195"/>
<text text-anchor="start" x="159" y="-183" font-family="Helvetica,sans-Serif" font-size="10.00">math/linalg/matrix</text>
<text text-anchor="middle" x="204.5" y="-172" font-family="Helvetica,sans-Serif" font-size="10.00">_types.h</text>
</a>
</g>
</g>
<!-- Node10&#45;&gt;Node17 -->
<g id="edge21_Node000010_Node000017" class="edge">
<title>Node10&#45;&gt;Node17</title>
<g id="a_edge21_Node000010_Node000017"><a xlink:title=" ">
<path fill="none" stroke="#63b8ff" d="M356.62,-230.99C330.66,-222.46 289.96,-209.09 257.19,-198.32"/>
<polygon fill="#63b8ff" stroke="#63b8ff" points="257.89,-194.86 247.29,-195.06 255.7,-201.51 257.89,-194.86"/>
</a>
</g>
</g>
<!-- Node18 -->
<g id="Node000018" class="node">
<title>Node18</title>
<g id="a_Node000018"><a xlink:title=" ">
<polygon fill="#e0e0e0" stroke="#999999" points="809.5,-189.5 745.5,-189.5 745.5,-170.5 809.5,-170.5 809.5,-189.5"/>
<text text-anchor="middle" x="777.5" y="-177.5" font-family="Helvetica,sans-Serif" font-size="10.00">algorithm</text>
</a>
</g>
</g>
<!-- Node10&#45;&gt;Node18 -->
<g id="edge22_Node000010_Node000018" class="edge">
<title>Node10&#45;&gt;Node18</title>
<g id="a_edge22_Node000010_Node000018"><a xlink:title=" ">
<path fill="none" stroke="#63b8ff" d="M439.94,-230.99C520.29,-219.09 664.37,-197.76 735.46,-187.23"/>
<polygon fill="#63b8ff" stroke="#63b8ff" points="736.03,-190.68 745.41,-185.75 735,-183.76 736.03,-190.68"/>
</a>
</g>
</g>
<!-- Node19 -->
<g id="Node000019" class="node">
<title>Node19</title>
<g id="a_Node000019"><a xlink:title=" ">
<polygon fill="#e0e0e0" stroke="#999999" points="318.5,-189.5 276.5,-189.5 276.5,-170.5 318.5,-170.5 318.5,-189.5"/>
<text text-anchor="middle" x="297.5" y="-177.5" font-family="Helvetica,sans-Serif" font-size="10.00">array</text>
</a>
</g>
</g>
<!-- Node10&#45;&gt;Node19 -->
<g id="edge23_Node000010_Node000019" class="edge">
<title>Node10&#45;&gt;Node19</title>
<g id="a_edge23_Node000010_Node000019"><a xlink:title=" ">
<path fill="none" stroke="#63b8ff" d="M369.96,-230.87C356.4,-221.54 334.56,-206.51 318.4,-195.38"/>
<polygon fill="#63b8ff" stroke="#63b8ff" points="320.32,-192.45 310.09,-189.67 316.35,-198.22 320.32,-192.45"/>
</a>
</g>
</g>
<!-- Node20 -->
<g id="Node000020" class="node">
<title>Node20</title>
<g id="a_Node000020"><a xlink:title=" ">
<polygon fill="#e0e0e0" stroke="#999999" points="378,-189.5 337,-189.5 337,-170.5 378,-170.5 378,-189.5"/>
<text text-anchor="middle" x="357.5" y="-177.5" font-family="Helvetica,sans-Serif" font-size="10.00">tuple</text>
</a>
</g>
</g>
<!-- Node10&#45;&gt;Node20 -->
<g id="edge25_Node000010_Node000020" class="edge">
<title>Node10&#45;&gt;Node20</title>
<g id="a_edge25_Node000010_Node000020"><a xlink:title=" ">
<path fill="none" stroke="#63b8ff" d="M378.81,-230.87C375.23,-222.49 369.68,-209.51 365.15,-198.89"/>
<polygon fill="#63b8ff" stroke="#63b8ff" points="368.35,-197.49 361.2,-189.67 361.92,-200.24 368.35,-197.49"/>
</a>
</g>
</g>
<!-- Node11&#45;&gt;Node3 -->
<g id="edge12_Node000011_Node000003" class="edge">
<title>Node11&#45;&gt;Node3</title>
<g id="a_edge12_Node000011_Node000003"><a xlink:title=" ">
<path fill="none" stroke="#63b8ff" d="M434.2,-167.16C380.14,-156.55 301.61,-141.13 249.81,-130.97"/>
<polygon fill="#63b8ff" stroke="#63b8ff" points="250.31,-127.5 239.83,-129.01 248.97,-134.37 250.31,-127.5"/>
</a>
</g>
</g>
<!-- Node12 -->
<g id="Node000012" class="node">
<title>Node12</title>
<g id="a_Node000012"><a xlink:href="interface__contract_8h.html" target="_top" xlink:title=" ">
<polygon fill="white" stroke="#666666" points="722.5,-129 582.5,-129 582.5,-110 722.5,-110 722.5,-129"/>
<text text-anchor="middle" x="652.5" y="-117" font-family="Helvetica,sans-Serif" font-size="10.00">base/interface_contract.h</text>
</a>
</g>
</g>
<!-- Node11&#45;&gt;Node12 -->
<g id="edge13_Node000011_Node000012" class="edge">
<title>Node11&#45;&gt;Node12</title>
<g id="a_edge13_Node000011_Node000012"><a xlink:title=" ">
<path fill="none" stroke="#63b8ff" d="M532.34,-164.99C558.94,-155.14 594.17,-142.1 619.6,-132.68"/>
<polygon fill="#63b8ff" stroke="#63b8ff" points="621,-135.89 629.17,-129.14 618.57,-129.33 621,-135.89"/>
</a>
</g>
</g>
<!-- Node14 -->
<g id="Node000014" class="node">
<title>Node14</title>
<g id="a_Node000014"><a xlink:href="require__copy__intf_8h.html" target="_top" xlink:title=" ">
<polygon fill="white" stroke="#666666" points="406.5,-129 270.5,-129 270.5,-110 406.5,-110 406.5,-129"/>
<text text-anchor="middle" x="338.5" y="-117" font-family="Helvetica,sans-Serif" font-size="10.00">base/require_copy_intf.h</text>
</a>
</g>
</g>
<!-- Node11&#45;&gt;Node14 -->
<g id="edge15_Node000011_Node000014" class="edge">
<title>Node11&#45;&gt;Node14</title>
<g id="a_edge15_Node000011_Node000014"><a xlink:title=" ">
<path fill="none" stroke="#63b8ff" d="M457.13,-164.99C430.87,-155.14 396.09,-142.1 370.98,-132.68"/>
<polygon fill="#63b8ff" stroke="#63b8ff" points="372.13,-129.37 361.54,-129.14 369.67,-135.93 372.13,-129.37"/>
</a>
</g>
</g>
<!-- Node15 -->
<g id="Node000015" class="node">
<title>Node15</title>
<g id="a_Node000015"><a xlink:href="require__move__intf_8h.html" target="_top" xlink:title=" ">
<polygon fill="white" stroke="#666666" points="564.5,-129 424.5,-129 424.5,-110 564.5,-110 564.5,-129"/>
<text text-anchor="middle" x="494.5" y="-117" font-family="Helvetica,sans-Serif" font-size="10.00">base/require_move_intf.h</text>
</a>
</g>
</g>
<!-- Node11&#45;&gt;Node15 -->
<g id="edge17_Node000011_Node000015" class="edge">
<title>Node11&#45;&gt;Node15</title>
<g id="a_edge17_Node000011_Node000015"><a xlink:title=" ">
<path fill="none" stroke="#63b8ff" d="M494.5,-164.84C494.5,-157.21 494.5,-147.7 494.5,-139.45"/>
<polygon fill="#63b8ff" stroke="#63b8ff" points="498,-139.27 494.5,-129.27 491,-139.27 498,-139.27"/>
</a>
</g>
</g>
<!-- Node11&#45;&gt;Node16 -->
<g id="edge19_Node000011_Node000016" class="edge">
<title>Node11&#45;&gt;Node16</title>
<g id="a_edge19_Node000011_Node000016"><a xlink:title=" ">
<path fill="none" stroke="#63b8ff" d="M554.73,-167.37C609.69,-156.76 690.21,-141.21 743.22,-130.98"/>
<polygon fill="#63b8ff" stroke="#63b8ff" points="743.96,-134.4 753.12,-129.07 742.64,-127.53 743.96,-134.4"/>
</a>
</g>
</g>
<!-- Node13 -->
<g id="Node000013" class="node">
<title>Node13</title>
<g id="a_Node000013"><a xlink:title=" ">
<polygon fill="#e0e0e0" stroke="#999999" points="622,-74 553,-74 553,-55 622,-55 622,-74"/>
<text text-anchor="middle" x="587.5" y="-62" font-family="Helvetica,sans-Serif" font-size="10.00">type_traits</text>
</a>
</g>
</g>
<!-- Node12&#45;&gt;Node13 -->
<g id="edge14_Node000012_Node000013" class="edge">
<title>Node12&#45;&gt;Node13</title>
<g id="a_edge14_Node000012_Node000013"><a xlink:title=" ">
<path fill="none" stroke="#63b8ff" d="M642.06,-109.98C632.35,-102.07 617.68,-90.11 606,-80.58"/>
<polygon fill="#63b8ff" stroke="#63b8ff" points="608.1,-77.78 598.13,-74.17 603.67,-83.2 608.1,-77.78"/>
</a>
</g>
</g>
<!-- Node14&#45;&gt;Node13 -->
<g id="edge16_Node000014_Node000013" class="edge">
<title>Node14&#45;&gt;Node13</title>
<g id="a_edge16_Node000014_Node000013"><a xlink:title=" ">
<path fill="none" stroke="#63b8ff" d="M378.51,-109.98C423.46,-100.42 496.24,-84.92 542.97,-74.98"/>
<polygon fill="#63b8ff" stroke="#63b8ff" points="543.76,-78.39 552.81,-72.88 542.3,-71.54 543.76,-78.39"/>
</a>
</g>
</g>
<!-- Node15&#45;&gt;Node13 -->
<g id="edge18_Node000015_Node000013" class="edge">
<title>Node15&#45;&gt;Node13</title>
<g id="a_edge18_Node000015_Node000013"><a xlink:title=" ">
<path fill="none" stroke="#63b8ff" d="M509.44,-109.98C524,-101.69 546.37,-88.94 563.43,-79.22"/>
<polygon fill="#63b8ff" stroke="#63b8ff" points="565.33,-82.16 572.29,-74.17 561.86,-76.08 565.33,-82.16"/>
</a>
</g>
</g>
<!-- Node21&#45;&gt;Node10 -->
<g id="edge28_Node000021_Node000010" class="edge">
<title>Node21&#45;&gt;Node10</title>
<g id="a_edge28_Node000021_Node000010"><a xlink:title=" ">
<path fill="none" stroke="#63b8ff" d="M818.41,-287.71C723.86,-277.68 547.75,-259.02 450.83,-248.74"/>
<polygon fill="#63b8ff" stroke="#63b8ff" points="451.16,-245.26 440.85,-247.68 450.42,-252.22 451.16,-245.26"/>
</a>
</g>
</g>
<!-- Node21&#45;&gt;Node13 -->
<g id="edge35_Node000021_Node000013" class="edge">
<title>Node21&#45;&gt;Node13</title>
<g id="a_edge35_Node000021_Node000013"><a xlink:title=" ">
<path fill="none" stroke="#63b8ff" d="M884.85,-285.69C892.13,-256.26 911.03,-160.33 863.5,-110 832.68,-77.36 702.26,-68.65 632.3,-66.34"/>
<polygon fill="#63b8ff" stroke="#63b8ff" points="632.12,-62.83 622.02,-66.03 631.91,-69.83 632.12,-62.83"/>
</a>
</g>
</g>
<!-- Node21&#45;&gt;Node18 -->
<g id="edge29_Node000021_Node000018" class="edge">
<title>Node21&#45;&gt;Node18</title>
<g id="a_edge29_Node000021_Node000018"><a xlink:title=" ">
<path fill="none" stroke="#63b8ff" d="M874.61,-285.97C857.13,-267.07 814.9,-221.43 792.32,-197.02"/>
<polygon fill="#63b8ff" stroke="#63b8ff" points="794.84,-194.59 785.48,-189.63 789.71,-199.35 794.84,-194.59"/>
</a>
</g>
</g>
<!-- Node21&#45;&gt;Node22 -->
<g id="edge30_Node000021_Node000022" class="edge">
<title>Node21&#45;&gt;Node22</title>
<g id="a_edge30_Node000021_Node000022"><a xlink:title=" ">
<path fill="none" stroke="#63b8ff" d="M867.72,-285.98C853.32,-277.69 831.19,-264.94 814.31,-255.22"/>
<polygon fill="#63b8ff" stroke="#63b8ff" points="815.96,-252.13 805.55,-250.17 812.47,-258.19 815.96,-252.13"/>
</a>
</g>
</g>
<!-- Node23 -->
<g id="Node000023" class="node">
<title>Node23</title>
<g id="a_Node000023"><a xlink:title=" ">
<polygon fill="#e0e0e0" stroke="#999999" points="976,-250 911,-250 911,-231 976,-231 976,-250"/>
<text text-anchor="middle" x="943.5" y="-238" font-family="Helvetica,sans-Serif" font-size="10.00">functional</text>
</a>
</g>
</g>
<!-- Node21&#45;&gt;Node23 -->
<g id="edge31_Node000021_Node000023" class="edge">
<title>Node21&#45;&gt;Node23</title>
<g id="a_edge31_Node000021_Node000023"><a xlink:title=" ">
<path fill="none" stroke="#63b8ff" d="M892.3,-285.98C901.32,-278.15 914.91,-266.34 925.82,-256.86"/>
<polygon fill="#63b8ff" stroke="#63b8ff" points="928.27,-259.37 933.52,-250.17 923.68,-254.09 928.27,-259.37"/>
</a>
</g>
</g>
<!-- Node24 -->
<g id="Node000024" class="node">
<title>Node24</title>
<g id="a_Node000024"><a xlink:title=" ">
<polygon fill="#e0e0e0" stroke="#999999" points="1038.5,-250 994.5,-250 994.5,-231 1038.5,-231 1038.5,-250"/>
<text text-anchor="middle" x="1016.5" y="-238" font-family="Helvetica,sans-Serif" font-size="10.00">limits</text>
</a>
</g>
</g>
<!-- Node21&#45;&gt;Node24 -->
<g id="edge32_Node000021_Node000024" class="edge">
<title>Node21&#45;&gt;Node24</title>
<g id="a_edge32_Node000021_Node000024"><a xlink:title=" ">
<path fill="none" stroke="#63b8ff" d="M904.03,-285.98C925.97,-277.3 960.24,-263.75 985.19,-253.88"/>
<polygon fill="#63b8ff" stroke="#63b8ff" points="986.57,-257.1 994.58,-250.17 983.99,-250.59 986.57,-257.1"/>
</a>
</g>
</g>
<!-- Node25 -->
<g id="Node000025" class="node">
<title>Node25</title>
<g id="a_Node000025"><a xlink:title=" ">
<polygon fill="#e0e0e0" stroke="#999999" points="1122,-250 1057,-250 1057,-231 1122,-231 1122,-250"/>
<text text-anchor="middle" x="1089.5" y="-238" font-family="Helvetica,sans-Serif" font-size="10.00">stdexcept</text>
</a>
</g>
</g>
<!-- Node21&#45;&gt;Node25 -->
<g id="edge33_Node000021_Node000025" class="edge">
<title>Node21&#45;&gt;Node25</title>
<g id="a_edge33_Node000021_Node000025"><a xlink:title=" ">
<path fill="none" stroke="#63b8ff" d="M915.76,-285.98C951.32,-276.88 1007.84,-262.41 1046.7,-252.46"/>
<polygon fill="#63b8ff" stroke="#63b8ff" points="1047.85,-255.78 1056.67,-249.91 1046.11,-249 1047.85,-255.78"/>
</a>
</g>
</g>
<!-- Node26 -->
<g id="Node000026" class="node">
<title>Node26</title>
<g id="a_Node000026"><a xlink:title=" ">
<polygon fill="#e0e0e0" stroke="#999999" points="1184.5,-250 1140.5,-250 1140.5,-231 1184.5,-231 1184.5,-250"/>
<text text-anchor="middle" x="1162.5" y="-238" font-family="Helvetica,sans-Serif" font-size="10.00">string</text>
</a>
</g>
</g>
<!-- Node21&#45;&gt;Node26 -->
<g id="edge34_Node000021_Node000026" class="edge">
<title>Node21&#45;&gt;Node26</title>
<g id="a_edge34_Node000021_Node000026"><a xlink:title=" ">
<path fill="none" stroke="#63b8ff" d="M938.67,-285.96C987.05,-278.26 1058.94,-266.02 1130.17,-250.14"/>
<polygon fill="#63b8ff" stroke="#63b8ff" points="1131.22,-253.49 1140.21,-247.87 1129.68,-246.66 1131.22,-253.49"/>
</a>
</g>
</g>
</g>
</svg>
