<?xml version="1.0" encoding="UTF-8" standalone="no"?>
<!DOCTYPE svg PUBLIC "-//W3C//DTD SVG 1.1//EN"
 "http://www.w3.org/Graphics/SVG/1.1/DTD/svg11.dtd">
<!-- Generated by graphviz version 2.43.0 (0)
 -->
<!-- Title: include/trackingLib/math/linalg/conversions/vector_conversions.hpp Pages: 1 -->
<svg width="1363pt" height="522pt"
 viewBox="0.00 0.00 1363.00 522.00" xmlns="http://www.w3.org/2000/svg" xmlns:xlink="http://www.w3.org/1999/xlink">
<g id="graph0" class="graph" transform="scale(1 1) rotate(0) translate(4 518)">
<title>include/trackingLib/math/linalg/conversions/vector_conversions.hpp</title>
<!-- Node1 -->
<g id="Node000001" class="node">
<title>Node1</title>
<g id="a_Node000001"><a xlink:title=" ">
<polygon fill="#999999" stroke="#666666" points="727,-514 590,-514 590,-473 727,-473 727,-514"/>
<text text-anchor="start" x="598" y="-502" font-family="Helvetica,sans-Serif" font-size="10.00">include/trackingLib</text>
<text text-anchor="start" x="598" y="-491" font-family="Helvetica,sans-Serif" font-size="10.00">/math/linalg/conversions</text>
<text text-anchor="middle" x="658.5" y="-480" font-family="Helvetica,sans-Serif" font-size="10.00">/vector_conversions.hpp</text>
</a>
</g>
</g>
<!-- Node2 -->
<g id="Node000002" class="node">
<title>Node2</title>
<g id="a_Node000002"><a xlink:href="conversions_8h.html" target="_top" xlink:title="Centralized conversion system for matrix types.">
<polygon fill="white" stroke="#666666" points="493.5,-431.5 409.5,-431.5 409.5,-412.5 493.5,-412.5 493.5,-431.5"/>
<text text-anchor="middle" x="451.5" y="-419.5" font-family="Helvetica,sans-Serif" font-size="10.00">conversions.h</text>
</a>
</g>
</g>
<!-- Node1&#45;&gt;Node2 -->
<g id="edge1_Node000001_Node000002" class="edge">
<title>Node1&#45;&gt;Node2</title>
<g id="a_edge1_Node000001_Node000002"><a xlink:title=" ">
<path fill="none" stroke="#63b8ff" d="M600.29,-472.96C563.6,-460.64 517.46,-445.15 486.36,-434.71"/>
<polygon fill="#63b8ff" stroke="#63b8ff" points="487.42,-431.37 476.83,-431.5 485.19,-438 487.42,-431.37"/>
</a>
</g>
</g>
<!-- Node10 -->
<g id="Node000010" class="node">
<title>Node10</title>
<g id="a_Node000010"><a xlink:href="matrix__column__view_8hpp.html" target="_top" xlink:title=" ">
<polygon fill="white" stroke="#666666" points="712,-437 605,-437 605,-407 712,-407 712,-437"/>
<text text-anchor="start" x="613" y="-425" font-family="Helvetica,sans-Serif" font-size="10.00">math/linalg/matrix</text>
<text text-anchor="middle" x="658.5" y="-414" font-family="Helvetica,sans-Serif" font-size="10.00">_column_view.hpp</text>
</a>
</g>
</g>
<!-- Node1&#45;&gt;Node10 -->
<g id="edge9_Node000001_Node000010" class="edge">
<title>Node1&#45;&gt;Node10</title>
<g id="a_edge9_Node000001_Node000010"><a xlink:title=" ">
<path fill="none" stroke="#63b8ff" d="M658.5,-472.77C658.5,-464.85 658.5,-455.63 658.5,-447.3"/>
<polygon fill="#63b8ff" stroke="#63b8ff" points="662,-447.04 658.5,-437.04 655,-447.04 662,-447.04"/>
</a>
</g>
</g>
<!-- Node30 -->
<g id="Node000030" class="node">
<title>Node30</title>
<g id="a_Node000030"><a xlink:href="vector_8hpp.html" target="_top" xlink:title=" ">
<polygon fill="white" stroke="#666666" points="1047.5,-365.5 921.5,-365.5 921.5,-346.5 1047.5,-346.5 1047.5,-365.5"/>
<text text-anchor="middle" x="984.5" y="-353.5" font-family="Helvetica,sans-Serif" font-size="10.00">math/linalg/vector.hpp</text>
</a>
</g>
</g>
<!-- Node1&#45;&gt;Node30 -->
<g id="edge42_Node000001_Node000030" class="edge">
<title>Node1&#45;&gt;Node30</title>
<g id="a_edge42_Node000001_Node000030"><a xlink:title=" ">
<path fill="none" stroke="#63b8ff" d="M705.56,-472.94C773.59,-444.66 897.49,-393.16 954.43,-369.5"/>
<polygon fill="#63b8ff" stroke="#63b8ff" points="956.04,-372.62 963.93,-365.55 953.35,-366.16 956.04,-372.62"/>
</a>
</g>
</g>
<!-- Node3 -->
<g id="Node000003" class="node">
<title>Node3</title>
<g id="a_Node000003"><a xlink:href="first__include_8h.html" target="_top" xlink:title=" ">
<polygon fill="white" stroke="#666666" points="363,-129 252,-129 252,-110 363,-110 363,-129"/>
<text text-anchor="middle" x="307.5" y="-117" font-family="Helvetica,sans-Serif" font-size="10.00">base/first_include.h</text>
</a>
</g>
</g>
<!-- Node2&#45;&gt;Node3 -->
<g id="edge2_Node000002_Node000003" class="edge">
<title>Node2&#45;&gt;Node3</title>
<g id="a_edge2_Node000002_Node000003"><a xlink:title=" ">
<path fill="none" stroke="#63b8ff" d="M415.02,-412.4C364,-397.94 277.5,-363.55 277.5,-296.5 277.5,-296.5 277.5,-296.5 277.5,-239.5 277.5,-202.9 291.01,-161.83 299.9,-138.78"/>
<polygon fill="#63b8ff" stroke="#63b8ff" points="303.24,-139.85 303.7,-129.27 296.74,-137.25 303.24,-139.85"/>
</a>
</g>
</g>
<!-- Node4 -->
<g id="Node000004" class="node">
<title>Node4</title>
<g id="a_Node000004"><a xlink:href="test__config_8h.html" target="_top" xlink:title=" ">
<polygon fill="white" stroke="#666666" points="79,-74 0,-74 0,-55 79,-55 79,-74"/>
<text text-anchor="middle" x="39.5" y="-62" font-family="Helvetica,sans-Serif" font-size="10.00">test_config.h</text>
</a>
</g>
</g>
<!-- Node3&#45;&gt;Node4 -->
<g id="edge3_Node000003_Node000004" class="edge">
<title>Node3&#45;&gt;Node4</title>
<g id="a_edge3_Node000003_Node000004"><a xlink:title=" ">
<path fill="none" stroke="#63b8ff" d="M264.44,-109.98C216.68,-100.54 139.75,-85.32 89.4,-75.37"/>
<polygon fill="#63b8ff" stroke="#63b8ff" points="89.88,-71.9 79.39,-73.39 88.52,-78.76 89.88,-71.9"/>
</a>
</g>
</g>
<!-- Node5 -->
<g id="Node000005" class="node">
<title>Node5</title>
<g id="a_Node000005"><a xlink:href="atomic__types_8h.html" target="_top" xlink:title=" ">
<polygon fill="white" stroke="#666666" points="189.5,-74 97.5,-74 97.5,-55 189.5,-55 189.5,-74"/>
<text text-anchor="middle" x="143.5" y="-62" font-family="Helvetica,sans-Serif" font-size="10.00">atomic_types.h</text>
</a>
</g>
</g>
<!-- Node3&#45;&gt;Node5 -->
<g id="edge4_Node000003_Node000005" class="edge">
<title>Node3&#45;&gt;Node5</title>
<g id="a_edge4_Node000003_Node000005"><a xlink:title=" ">
<path fill="none" stroke="#63b8ff" d="M281.15,-109.98C253.74,-101.13 210.61,-87.19 179.94,-77.28"/>
<polygon fill="#63b8ff" stroke="#63b8ff" points="180.65,-73.83 170.06,-74.08 178.5,-80.49 180.65,-73.83"/>
</a>
</g>
</g>
<!-- Node7 -->
<g id="Node000007" class="node">
<title>Node7</title>
<g id="a_Node000007"><a xlink:title=" ">
<polygon fill="#e0e0e0" stroke="#999999" points="299.5,-74 207.5,-74 207.5,-55 299.5,-55 299.5,-74"/>
<text text-anchor="middle" x="253.5" y="-62" font-family="Helvetica,sans-Serif" font-size="10.00">tl/expected.hpp</text>
</a>
</g>
</g>
<!-- Node3&#45;&gt;Node7 -->
<g id="edge6_Node000003_Node000007" class="edge">
<title>Node3&#45;&gt;Node7</title>
<g id="a_edge6_Node000003_Node000007"><a xlink:title=" ">
<path fill="none" stroke="#63b8ff" d="M298.58,-109.75C290.72,-102.03 279.07,-90.6 269.58,-81.28"/>
<polygon fill="#63b8ff" stroke="#63b8ff" points="271.84,-78.6 262.25,-74.09 266.94,-83.59 271.84,-78.6"/>
</a>
</g>
</g>
<!-- Node8 -->
<g id="Node000008" class="node">
<title>Node8</title>
<g id="a_Node000008"><a xlink:title=" ">
<polygon fill="#e0e0e0" stroke="#999999" points="369.5,-74 317.5,-74 317.5,-55 369.5,-55 369.5,-74"/>
<text text-anchor="middle" x="343.5" y="-62" font-family="Helvetica,sans-Serif" font-size="10.00">cassert</text>
</a>
</g>
</g>
<!-- Node3&#45;&gt;Node8 -->
<g id="edge7_Node000003_Node000008" class="edge">
<title>Node3&#45;&gt;Node8</title>
<g id="a_edge7_Node000003_Node000008"><a xlink:title=" ">
<path fill="none" stroke="#63b8ff" d="M313.44,-109.75C318.48,-102.34 325.84,-91.5 332.01,-82.41"/>
<polygon fill="#63b8ff" stroke="#63b8ff" points="334.94,-84.33 337.67,-74.09 329.15,-80.39 334.94,-84.33"/>
</a>
</g>
</g>
<!-- Node9 -->
<g id="Node000009" class="node">
<title>Node9</title>
<g id="a_Node000009"><a xlink:title=" ">
<polygon fill="#e0e0e0" stroke="#999999" points="471,-74 388,-74 388,-55 471,-55 471,-74"/>
<text text-anchor="middle" x="429.5" y="-62" font-family="Helvetica,sans-Serif" font-size="10.00">initializer_list</text>
</a>
</g>
</g>
<!-- Node3&#45;&gt;Node9 -->
<g id="edge8_Node000003_Node000009" class="edge">
<title>Node3&#45;&gt;Node9</title>
<g id="a_edge8_Node000003_Node000009"><a xlink:title=" ">
<path fill="none" stroke="#63b8ff" d="M327.1,-109.98C346.82,-101.42 377.45,-88.11 400.08,-78.28"/>
<polygon fill="#63b8ff" stroke="#63b8ff" points="401.76,-81.37 409.54,-74.17 398.98,-74.94 401.76,-81.37"/>
</a>
</g>
</g>
<!-- Node6 -->
<g id="Node000006" class="node">
<title>Node6</title>
<g id="a_Node000006"><a xlink:title=" ">
<polygon fill="#e0e0e0" stroke="#999999" points="168.5,-19 118.5,-19 118.5,0 168.5,0 168.5,-19"/>
<text text-anchor="middle" x="143.5" y="-7" font-family="Helvetica,sans-Serif" font-size="10.00">cstdint</text>
</a>
</g>
</g>
<!-- Node5&#45;&gt;Node6 -->
<g id="edge5_Node000005_Node000006" class="edge">
<title>Node5&#45;&gt;Node6</title>
<g id="a_edge5_Node000005_Node000006"><a xlink:title=" ">
<path fill="none" stroke="#63b8ff" d="M143.5,-54.75C143.5,-47.8 143.5,-37.85 143.5,-29.13"/>
<polygon fill="#63b8ff" stroke="#63b8ff" points="147,-29.09 143.5,-19.09 140,-29.09 147,-29.09"/>
</a>
</g>
</g>
<!-- Node11 -->
<g id="Node000011" class="node">
<title>Node11</title>
<g id="a_Node000011"><a xlink:href="matrix__column__view_8h.html" target="_top" xlink:title=" ">
<polygon fill="white" stroke="#666666" points="689,-371 582,-371 582,-341 689,-341 689,-371"/>
<text text-anchor="start" x="590" y="-359" font-family="Helvetica,sans-Serif" font-size="10.00">math/linalg/matrix</text>
<text text-anchor="middle" x="635.5" y="-348" font-family="Helvetica,sans-Serif" font-size="10.00">_column_view.h</text>
</a>
</g>
</g>
<!-- Node10&#45;&gt;Node11 -->
<g id="edge10_Node000010_Node000011" class="edge">
<title>Node10&#45;&gt;Node11</title>
<g id="a_edge10_Node000010_Node000011"><a xlink:title=" ">
<path fill="none" stroke="#63b8ff" d="M653.4,-406.8C650.66,-399.17 647.21,-389.57 644.07,-380.84"/>
<polygon fill="#63b8ff" stroke="#63b8ff" points="647.27,-379.39 640.59,-371.16 640.68,-381.76 647.27,-379.39"/>
</a>
</g>
</g>
<!-- Node24 -->
<g id="Node000024" class="node">
<title>Node24</title>
<g id="a_Node000024"><a xlink:href="matrix_8hpp.html" target="_top" xlink:title=" ">
<polygon fill="white" stroke="#666666" points="1081.5,-305 953.5,-305 953.5,-286 1081.5,-286 1081.5,-305"/>
<text text-anchor="middle" x="1017.5" y="-293" font-family="Helvetica,sans-Serif" font-size="10.00">math/linalg/matrix.hpp</text>
</a>
</g>
</g>
<!-- Node10&#45;&gt;Node24 -->
<g id="edge33_Node000010_Node000024" class="edge">
<title>Node10&#45;&gt;Node24</title>
<g id="a_edge33_Node000010_Node000024"><a xlink:title=" ">
<path fill="none" stroke="#63b8ff" d="M698.98,-406.96C770.15,-382.28 916.42,-331.55 983.06,-308.44"/>
<polygon fill="#63b8ff" stroke="#63b8ff" points="984.37,-311.69 992.67,-305.11 982.08,-305.08 984.37,-311.69"/>
</a>
</g>
</g>
<!-- Node11&#45;&gt;Node3 -->
<g id="edge11_Node000011_Node000003" class="edge">
<title>Node11&#45;&gt;Node3</title>
<g id="a_edge11_Node000011_Node000003"><a xlink:title=" ">
<path fill="none" stroke="#63b8ff" d="M581.99,-345.03C523.04,-331.8 428.06,-303.58 363.5,-250 329.04,-221.4 315.24,-167.61 310.17,-139.19"/>
<polygon fill="#63b8ff" stroke="#63b8ff" points="313.57,-138.34 308.53,-129.02 306.66,-139.45 313.57,-138.34"/>
</a>
</g>
</g>
<!-- Node12 -->
<g id="Node000012" class="node">
<title>Node12</title>
<g id="a_Node000012"><a xlink:href="matrix_8h.html" target="_top" xlink:title=" ">
<polygon fill="white" stroke="#666666" points="746.5,-250 630.5,-250 630.5,-231 746.5,-231 746.5,-250"/>
<text text-anchor="middle" x="688.5" y="-238" font-family="Helvetica,sans-Serif" font-size="10.00">math/linalg/matrix.h</text>
</a>
</g>
</g>
<!-- Node11&#45;&gt;Node12 -->
<g id="edge12_Node000011_Node000012" class="edge">
<title>Node11&#45;&gt;Node12</title>
<g id="a_edge12_Node000011_Node000012"><a xlink:title=" ">
<path fill="none" stroke="#63b8ff" d="M646.87,-340.84C654.16,-331.2 663.37,-317.89 669.5,-305 676.38,-290.53 681.4,-273.02 684.54,-260.05"/>
<polygon fill="#63b8ff" stroke="#63b8ff" points="688.02,-260.55 686.82,-250.02 681.19,-259 688.02,-260.55"/>
</a>
</g>
</g>
<!-- Node23 -->
<g id="Node000023" class="node">
<title>Node23</title>
<g id="a_Node000023"><a xlink:href="vector_8h.html" target="_top" xlink:title=" ">
<polygon fill="white" stroke="#666666" points="660.5,-305 546.5,-305 546.5,-286 660.5,-286 660.5,-305"/>
<text text-anchor="middle" x="603.5" y="-293" font-family="Helvetica,sans-Serif" font-size="10.00">math/linalg/vector.h</text>
</a>
</g>
</g>
<!-- Node11&#45;&gt;Node23 -->
<g id="edge29_Node000011_Node000023" class="edge">
<title>Node11&#45;&gt;Node23</title>
<g id="a_edge29_Node000011_Node000023"><a xlink:title=" ">
<path fill="none" stroke="#63b8ff" d="M627.75,-340.84C623.35,-332.78 617.79,-322.62 613.1,-314.06"/>
<polygon fill="#63b8ff" stroke="#63b8ff" points="616.16,-312.36 608.3,-305.27 610.02,-315.72 616.16,-312.36"/>
</a>
</g>
</g>
<!-- Node12&#45;&gt;Node3 -->
<g id="edge13_Node000012_Node000003" class="edge">
<title>Node12&#45;&gt;Node3</title>
<g id="a_edge13_Node000012_Node000003"><a xlink:title=" ">
<path fill="none" stroke="#63b8ff" d="M630.27,-233.59C581.09,-227.45 509.32,-215.73 449.5,-195 404.56,-179.42 356.35,-151.45 329.26,-134.57"/>
<polygon fill="#63b8ff" stroke="#63b8ff" points="330.92,-131.48 320.6,-129.1 327.18,-137.4 330.92,-131.48"/>
</a>
</g>
</g>
<!-- Node12&#45;&gt;Node9 -->
<g id="edge27_Node000012_Node000009" class="edge">
<title>Node12&#45;&gt;Node9</title>
<g id="a_edge27_Node000012_Node000009"><a xlink:title=" ">
<path fill="none" stroke="#63b8ff" d="M692.71,-230.92C699.51,-215.66 710.62,-183.65 694.5,-165 622.24,-81.4 532.1,-201.25 448.5,-129 435.72,-117.96 431.35,-98.71 429.95,-84.29"/>
<polygon fill="#63b8ff" stroke="#63b8ff" points="433.42,-83.79 429.35,-74.01 426.44,-84.19 433.42,-83.79"/>
</a>
</g>
</g>
<!-- Node13 -->
<g id="Node000013" class="node">
<title>Node13</title>
<g id="a_Node000013"><a xlink:href="matrix__intf_8h.html" target="_top" xlink:title=" ">
<polygon fill="white" stroke="#666666" points="861.5,-195 741.5,-195 741.5,-165 861.5,-165 861.5,-195"/>
<text text-anchor="start" x="749.5" y="-183" font-family="Helvetica,sans-Serif" font-size="10.00">math/linalg/contracts</text>
<text text-anchor="middle" x="801.5" y="-172" font-family="Helvetica,sans-Serif" font-size="10.00">/matrix_intf.h</text>
</a>
</g>
</g>
<!-- Node12&#45;&gt;Node13 -->
<g id="edge14_Node000012_Node000013" class="edge">
<title>Node12&#45;&gt;Node13</title>
<g id="a_edge14_Node000012_Node000013"><a xlink:title=" ">
<path fill="none" stroke="#63b8ff" d="M705.17,-230.87C720.93,-222.71 745.1,-210.2 765.29,-199.75"/>
<polygon fill="#63b8ff" stroke="#63b8ff" points="766.96,-202.82 774.24,-195.11 763.75,-196.6 766.96,-202.82"/>
</a>
</g>
</g>
<!-- Node18 -->
<g id="Node000018" class="node">
<title>Node18</title>
<g id="a_Node000018"><a xlink:href="errors_8h.html" target="_top" xlink:title="Error types used throughout the math library.">
<polygon fill="white" stroke="#666666" points="1041,-129 928,-129 928,-110 1041,-110 1041,-129"/>
<text text-anchor="middle" x="984.5" y="-117" font-family="Helvetica,sans-Serif" font-size="10.00">math/linalg/errors.h</text>
</a>
</g>
</g>
<!-- Node12&#45;&gt;Node18 -->
<g id="edge23_Node000012_Node000018" class="edge">
<title>Node12&#45;&gt;Node18</title>
<g id="a_edge23_Node000012_Node000018"><a xlink:title=" ">
<path fill="none" stroke="#63b8ff" d="M746.83,-231.77C783.66,-225.33 831.47,-214.05 870.5,-195 889.84,-185.56 890.73,-177.13 908.5,-165 925.02,-153.72 944.51,-142.35 959.61,-133.92"/>
<polygon fill="#63b8ff" stroke="#63b8ff" points="961.32,-136.98 968.39,-129.08 957.94,-130.85 961.32,-136.98"/>
</a>
</g>
</g>
<!-- Node19 -->
<g id="Node000019" class="node">
<title>Node19</title>
<g id="a_Node000019"><a xlink:href="matrix__types_8h.html" target="_top" xlink:title="Type definitions and enumerations for matrix operations.">
<polygon fill="white" stroke="#666666" points="565,-195 458,-195 458,-165 565,-165 565,-195"/>
<text text-anchor="start" x="466" y="-183" font-family="Helvetica,sans-Serif" font-size="10.00">math/linalg/matrix</text>
<text text-anchor="middle" x="511.5" y="-172" font-family="Helvetica,sans-Serif" font-size="10.00">_types.h</text>
</a>
</g>
</g>
<!-- Node12&#45;&gt;Node19 -->
<g id="edge24_Node000012_Node000019" class="edge">
<title>Node12&#45;&gt;Node19</title>
<g id="a_edge24_Node000012_Node000019"><a xlink:title=" ">
<path fill="none" stroke="#63b8ff" d="M662.76,-230.99C636.96,-222.46 596.48,-209.09 563.89,-198.32"/>
<polygon fill="#63b8ff" stroke="#63b8ff" points="564.65,-194.88 554.05,-195.06 562.45,-201.53 564.65,-194.88"/>
</a>
</g>
</g>
<!-- Node20 -->
<g id="Node000020" class="node">
<title>Node20</title>
<g id="a_Node000020"><a xlink:title=" ">
<polygon fill="#e0e0e0" stroke="#999999" points="981.5,-189.5 917.5,-189.5 917.5,-170.5 981.5,-170.5 981.5,-189.5"/>
<text text-anchor="middle" x="949.5" y="-177.5" font-family="Helvetica,sans-Serif" font-size="10.00">algorithm</text>
</a>
</g>
</g>
<!-- Node12&#45;&gt;Node20 -->
<g id="edge25_Node000012_Node000020" class="edge">
<title>Node12&#45;&gt;Node20</title>
<g id="a_edge25_Node000012_Node000020"><a xlink:title=" ">
<path fill="none" stroke="#63b8ff" d="M736.18,-230.93C779.94,-222.75 846.44,-209.56 903.5,-195 906.65,-194.2 909.92,-193.31 913.18,-192.39"/>
<polygon fill="#63b8ff" stroke="#63b8ff" points="914.24,-195.72 922.86,-189.56 912.28,-189.01 914.24,-195.72"/>
</a>
</g>
</g>
<!-- Node21 -->
<g id="Node000021" class="node">
<title>Node21</title>
<g id="a_Node000021"><a xlink:title=" ">
<polygon fill="#e0e0e0" stroke="#999999" points="625.5,-189.5 583.5,-189.5 583.5,-170.5 625.5,-170.5 625.5,-189.5"/>
<text text-anchor="middle" x="604.5" y="-177.5" font-family="Helvetica,sans-Serif" font-size="10.00">array</text>
</a>
</g>
</g>
<!-- Node12&#45;&gt;Node21 -->
<g id="edge26_Node000012_Node000021" class="edge">
<title>Node12&#45;&gt;Node21</title>
<g id="a_edge26_Node000012_Node000021"><a xlink:title=" ">
<path fill="none" stroke="#63b8ff" d="M676.11,-230.87C662.71,-221.54 641.12,-206.51 625.15,-195.38"/>
<polygon fill="#63b8ff" stroke="#63b8ff" points="627.15,-192.51 616.95,-189.67 623.15,-198.25 627.15,-192.51"/>
</a>
</g>
</g>
<!-- Node22 -->
<g id="Node000022" class="node">
<title>Node22</title>
<g id="a_Node000022"><a xlink:title=" ">
<polygon fill="#e0e0e0" stroke="#999999" points="685,-189.5 644,-189.5 644,-170.5 685,-170.5 685,-189.5"/>
<text text-anchor="middle" x="664.5" y="-177.5" font-family="Helvetica,sans-Serif" font-size="10.00">tuple</text>
</a>
</g>
</g>
<!-- Node12&#45;&gt;Node22 -->
<g id="edge28_Node000012_Node000022" class="edge">
<title>Node12&#45;&gt;Node22</title>
<g id="a_edge28_Node000012_Node000022"><a xlink:title=" ">
<path fill="none" stroke="#63b8ff" d="M684.96,-230.87C681.56,-222.57 676.31,-209.78 671.98,-199.22"/>
<polygon fill="#63b8ff" stroke="#63b8ff" points="675.09,-197.59 668.06,-189.67 668.61,-200.25 675.09,-197.59"/>
</a>
</g>
</g>
<!-- Node13&#45;&gt;Node3 -->
<g id="edge15_Node000013_Node000003" class="edge">
<title>Node13&#45;&gt;Node3</title>
<g id="a_edge15_Node000013_Node000003"><a xlink:title=" ">
<path fill="none" stroke="#63b8ff" d="M741.25,-170.95C726,-168.96 709.65,-166.86 694.5,-165 581.76,-151.14 450.37,-136.31 373.33,-127.75"/>
<polygon fill="#63b8ff" stroke="#63b8ff" points="373.61,-124.26 363.29,-126.64 372.84,-131.22 373.61,-124.26"/>
</a>
</g>
</g>
<!-- Node14 -->
<g id="Node000014" class="node">
<title>Node14</title>
<g id="a_Node000014"><a xlink:href="interface__contract_8h.html" target="_top" xlink:title=" ">
<polygon fill="white" stroke="#666666" points="909.5,-129 769.5,-129 769.5,-110 909.5,-110 909.5,-129"/>
<text text-anchor="middle" x="839.5" y="-117" font-family="Helvetica,sans-Serif" font-size="10.00">base/interface_contract.h</text>
</a>
</g>
</g>
<!-- Node13&#45;&gt;Node14 -->
<g id="edge16_Node000013_Node000014" class="edge">
<title>Node13&#45;&gt;Node14</title>
<g id="a_edge16_Node000013_Node000014"><a xlink:title=" ">
<path fill="none" stroke="#63b8ff" d="M810.7,-164.84C815.99,-156.69 822.68,-146.4 828.28,-137.78"/>
<polygon fill="#63b8ff" stroke="#63b8ff" points="831.29,-139.56 833.81,-129.27 825.42,-135.75 831.29,-139.56"/>
</a>
</g>
</g>
<!-- Node16 -->
<g id="Node000016" class="node">
<title>Node16</title>
<g id="a_Node000016"><a xlink:href="require__copy__intf_8h.html" target="_top" xlink:title=" ">
<polygon fill="white" stroke="#666666" points="593.5,-129 457.5,-129 457.5,-110 593.5,-110 593.5,-129"/>
<text text-anchor="middle" x="525.5" y="-117" font-family="Helvetica,sans-Serif" font-size="10.00">base/require_copy_intf.h</text>
</a>
</g>
</g>
<!-- Node13&#45;&gt;Node16 -->
<g id="edge18_Node000013_Node000016" class="edge">
<title>Node13&#45;&gt;Node16</title>
<g id="a_edge18_Node000013_Node000016"><a xlink:title=" ">
<path fill="none" stroke="#63b8ff" d="M741.27,-166.23C691.77,-155.74 622.44,-141.05 575.85,-131.17"/>
<polygon fill="#63b8ff" stroke="#63b8ff" points="576.49,-127.73 565.98,-129.08 575.04,-134.58 576.49,-127.73"/>
</a>
</g>
</g>
<!-- Node17 -->
<g id="Node000017" class="node">
<title>Node17</title>
<g id="a_Node000017"><a xlink:href="require__move__intf_8h.html" target="_top" xlink:title=" ">
<polygon fill="white" stroke="#666666" points="751.5,-129 611.5,-129 611.5,-110 751.5,-110 751.5,-129"/>
<text text-anchor="middle" x="681.5" y="-117" font-family="Helvetica,sans-Serif" font-size="10.00">base/require_move_intf.h</text>
</a>
</g>
</g>
<!-- Node13&#45;&gt;Node17 -->
<g id="edge20_Node000013_Node000017" class="edge">
<title>Node13&#45;&gt;Node17</title>
<g id="a_edge20_Node000013_Node000017"><a xlink:title=" ">
<path fill="none" stroke="#63b8ff" d="M772.76,-164.99C753.18,-155.45 727.45,-142.9 708.3,-133.57"/>
<polygon fill="#63b8ff" stroke="#63b8ff" points="709.74,-130.38 699.22,-129.14 706.68,-136.67 709.74,-130.38"/>
</a>
</g>
</g>
<!-- Node13&#45;&gt;Node18 -->
<g id="edge22_Node000013_Node000018" class="edge">
<title>Node13&#45;&gt;Node18</title>
<g id="a_edge22_Node000013_Node000018"><a xlink:title=" ">
<path fill="none" stroke="#63b8ff" d="M845.33,-164.99C876.64,-154.98 918.28,-141.67 947.83,-132.22"/>
<polygon fill="#63b8ff" stroke="#63b8ff" points="949.28,-135.43 957.74,-129.05 947.15,-128.76 949.28,-135.43"/>
</a>
</g>
</g>
<!-- Node15 -->
<g id="Node000015" class="node">
<title>Node15</title>
<g id="a_Node000015"><a xlink:title=" ">
<polygon fill="#e0e0e0" stroke="#999999" points="795,-74 726,-74 726,-55 795,-55 795,-74"/>
<text text-anchor="middle" x="760.5" y="-62" font-family="Helvetica,sans-Serif" font-size="10.00">type_traits</text>
</a>
</g>
</g>
<!-- Node14&#45;&gt;Node15 -->
<g id="edge17_Node000014_Node000015" class="edge">
<title>Node14&#45;&gt;Node15</title>
<g id="a_edge17_Node000014_Node000015"><a xlink:title=" ">
<path fill="none" stroke="#63b8ff" d="M826.81,-109.98C814.67,-101.84 796.14,-89.41 781.75,-79.76"/>
<polygon fill="#63b8ff" stroke="#63b8ff" points="783.68,-76.84 773.42,-74.17 779.78,-82.65 783.68,-76.84"/>
</a>
</g>
</g>
<!-- Node16&#45;&gt;Node15 -->
<g id="edge19_Node000016_Node000015" class="edge">
<title>Node16&#45;&gt;Node15</title>
<g id="a_edge19_Node000016_Node000015"><a xlink:title=" ">
<path fill="none" stroke="#63b8ff" d="M563.26,-109.98C604.9,-100.59 671.86,-85.49 716.02,-75.53"/>
<polygon fill="#63b8ff" stroke="#63b8ff" points="716.91,-78.92 725.9,-73.3 715.37,-72.09 716.91,-78.92"/>
</a>
</g>
</g>
<!-- Node17&#45;&gt;Node15 -->
<g id="edge21_Node000017_Node000015" class="edge">
<title>Node17&#45;&gt;Node15</title>
<g id="a_edge21_Node000017_Node000015"><a xlink:title=" ">
<path fill="none" stroke="#63b8ff" d="M694.19,-109.98C706.33,-101.84 724.86,-89.41 739.25,-79.76"/>
<polygon fill="#63b8ff" stroke="#63b8ff" points="741.22,-82.65 747.58,-74.17 737.32,-76.84 741.22,-82.65"/>
</a>
</g>
</g>
<!-- Node23&#45;&gt;Node3 -->
<g id="edge30_Node000023_Node000003" class="edge">
<title>Node23&#45;&gt;Node3</title>
<g id="a_edge30_Node000023_Node000003"><a xlink:title=" ">
<path fill="none" stroke="#63b8ff" d="M546.35,-288.83C488.45,-282.12 403.78,-269.36 377.5,-250 372.47,-246.29 334.23,-172.59 316.49,-138.06"/>
<polygon fill="#63b8ff" stroke="#63b8ff" points="319.56,-136.39 311.89,-129.09 313.34,-139.58 319.56,-136.39"/>
</a>
</g>
</g>
<!-- Node23&#45;&gt;Node9 -->
<g id="edge32_Node000023_Node000009" class="edge">
<title>Node23&#45;&gt;Node9</title>
<g id="a_edge32_Node000023_Node000009"><a xlink:title=" ">
<path fill="none" stroke="#63b8ff" d="M580.27,-285.92C546.23,-272.12 483.19,-241.74 449.5,-195 425.52,-161.74 425.39,-111.11 427.42,-84.07"/>
<polygon fill="#63b8ff" stroke="#63b8ff" points="430.91,-84.32 428.35,-74.04 423.94,-83.67 430.91,-84.32"/>
</a>
</g>
</g>
<!-- Node23&#45;&gt;Node12 -->
<g id="edge31_Node000023_Node000012" class="edge">
<title>Node23&#45;&gt;Node12</title>
<g id="a_edge31_Node000023_Node000012"><a xlink:title=" ">
<path fill="none" stroke="#63b8ff" d="M617.16,-285.98C630.34,-277.77 650.53,-265.18 666.07,-255.49"/>
<polygon fill="#63b8ff" stroke="#63b8ff" points="667.96,-258.43 674.59,-250.17 664.26,-252.49 667.96,-258.43"/>
</a>
</g>
</g>
<!-- Node24&#45;&gt;Node12 -->
<g id="edge34_Node000024_Node000012" class="edge">
<title>Node24&#45;&gt;Node12</title>
<g id="a_edge34_Node000024_Node000012"><a xlink:title=" ">
<path fill="none" stroke="#63b8ff" d="M964.64,-285.98C906.57,-276.63 813.35,-261.61 751.52,-251.65"/>
<polygon fill="#63b8ff" stroke="#63b8ff" points="751.93,-248.17 741.5,-250.04 750.82,-255.08 751.93,-248.17"/>
</a>
</g>
</g>
<!-- Node24&#45;&gt;Node15 -->
<g id="edge41_Node000024_Node000015" class="edge">
<title>Node24&#45;&gt;Node15</title>
<g id="a_edge41_Node000024_Node000015"><a xlink:title=" ">
<path fill="none" stroke="#63b8ff" d="M1014.18,-285.83C1009.94,-273.56 1003.56,-250.47 1007.5,-231 1018.81,-175.06 1087.67,-153.31 1050.5,-110 1019.47,-73.85 878.96,-66.77 805.53,-65.58"/>
<polygon fill="#63b8ff" stroke="#63b8ff" points="805.24,-62.07 795.2,-65.44 805.15,-69.07 805.24,-62.07"/>
</a>
</g>
</g>
<!-- Node24&#45;&gt;Node20 -->
<g id="edge35_Node000024_Node000020" class="edge">
<title>Node24&#45;&gt;Node20</title>
<g id="a_edge35_Node000024_Node000020"><a xlink:title=" ">
<path fill="none" stroke="#63b8ff" d="M1006.33,-285.7C996.47,-277.42 982.35,-264.2 973.5,-250 963.67,-234.22 957.22,-213.88 953.51,-199.38"/>
<polygon fill="#63b8ff" stroke="#63b8ff" points="956.91,-198.53 951.2,-189.6 950.1,-200.14 956.91,-198.53"/>
</a>
</g>
</g>
<!-- Node25 -->
<g id="Node000025" class="node">
<title>Node25</title>
<g id="a_Node000025"><a xlink:title=" ">
<polygon fill="#e0e0e0" stroke="#999999" points="1355,-250 1308,-250 1308,-231 1355,-231 1355,-250"/>
<text text-anchor="middle" x="1331.5" y="-238" font-family="Helvetica,sans-Serif" font-size="10.00">cmath</text>
</a>
</g>
</g>
<!-- Node24&#45;&gt;Node25 -->
<g id="edge36_Node000024_Node000025" class="edge">
<title>Node24&#45;&gt;Node25</title>
<g id="a_edge36_Node000024_Node000025"><a xlink:title=" ">
<path fill="none" stroke="#63b8ff" d="M1081.71,-286.1C1136.52,-278.53 1217.64,-266.38 1297.53,-250.02"/>
<polygon fill="#63b8ff" stroke="#63b8ff" points="1298.69,-253.36 1307.77,-247.9 1297.27,-246.5 1298.69,-253.36"/>
</a>
</g>
</g>
<!-- Node26 -->
<g id="Node000026" class="node">
<title>Node26</title>
<g id="a_Node000026"><a xlink:title=" ">
<polygon fill="#e0e0e0" stroke="#999999" points="1081,-250 1016,-250 1016,-231 1081,-231 1081,-250"/>
<text text-anchor="middle" x="1048.5" y="-238" font-family="Helvetica,sans-Serif" font-size="10.00">functional</text>
</a>
</g>
</g>
<!-- Node24&#45;&gt;Node26 -->
<g id="edge37_Node000024_Node000026" class="edge">
<title>Node24&#45;&gt;Node26</title>
<g id="a_edge37_Node000024_Node000026"><a xlink:title=" ">
<path fill="none" stroke="#63b8ff" d="M1022.62,-285.75C1026.86,-278.49 1033.03,-267.95 1038.28,-258.98"/>
<polygon fill="#63b8ff" stroke="#63b8ff" points="1041.45,-260.49 1043.48,-250.09 1035.41,-256.95 1041.45,-260.49"/>
</a>
</g>
</g>
<!-- Node27 -->
<g id="Node000027" class="node">
<title>Node27</title>
<g id="a_Node000027"><a xlink:title=" ">
<polygon fill="#e0e0e0" stroke="#999999" points="1143.5,-250 1099.5,-250 1099.5,-231 1143.5,-231 1143.5,-250"/>
<text text-anchor="middle" x="1121.5" y="-238" font-family="Helvetica,sans-Serif" font-size="10.00">limits</text>
</a>
</g>
</g>
<!-- Node24&#45;&gt;Node27 -->
<g id="edge38_Node000024_Node000027" class="edge">
<title>Node24&#45;&gt;Node27</title>
<g id="a_edge38_Node000024_Node000027"><a xlink:title=" ">
<path fill="none" stroke="#63b8ff" d="M1034.21,-285.98C1050.71,-277.57 1076.2,-264.59 1095.38,-254.81"/>
<polygon fill="#63b8ff" stroke="#63b8ff" points="1097.17,-257.83 1104.49,-250.17 1093.99,-251.59 1097.17,-257.83"/>
</a>
</g>
</g>
<!-- Node28 -->
<g id="Node000028" class="node">
<title>Node28</title>
<g id="a_Node000028"><a xlink:title=" ">
<polygon fill="#e0e0e0" stroke="#999999" points="1227,-250 1162,-250 1162,-231 1227,-231 1227,-250"/>
<text text-anchor="middle" x="1194.5" y="-238" font-family="Helvetica,sans-Serif" font-size="10.00">stdexcept</text>
</a>
</g>
</g>
<!-- Node24&#45;&gt;Node28 -->
<g id="edge39_Node000024_Node000028" class="edge">
<title>Node24&#45;&gt;Node28</title>
<g id="a_edge39_Node000024_Node000028"><a xlink:title=" ">
<path fill="none" stroke="#63b8ff" d="M1045.94,-285.98C1075.78,-277.05 1122.88,-262.94 1156.03,-253.02"/>
<polygon fill="#63b8ff" stroke="#63b8ff" points="1157.26,-256.3 1165.84,-250.08 1155.26,-249.6 1157.26,-256.3"/>
</a>
</g>
</g>
<!-- Node29 -->
<g id="Node000029" class="node">
<title>Node29</title>
<g id="a_Node000029"><a xlink:title=" ">
<polygon fill="#e0e0e0" stroke="#999999" points="1289.5,-250 1245.5,-250 1245.5,-231 1289.5,-231 1289.5,-250"/>
<text text-anchor="middle" x="1267.5" y="-238" font-family="Helvetica,sans-Serif" font-size="10.00">string</text>
</a>
</g>
</g>
<!-- Node24&#45;&gt;Node29 -->
<g id="edge40_Node000024_Node000029" class="edge">
<title>Node24&#45;&gt;Node29</title>
<g id="a_edge40_Node000024_Node000029"><a xlink:title=" ">
<path fill="none" stroke="#63b8ff" d="M1064.27,-285.94C1106.57,-277.99 1170.79,-265.39 1235.27,-250.17"/>
<polygon fill="#63b8ff" stroke="#63b8ff" points="1236.28,-253.53 1245.2,-247.81 1234.66,-246.72 1236.28,-253.53"/>
</a>
</g>
</g>
<!-- Node30&#45;&gt;Node23 -->
<g id="edge43_Node000030_Node000023" class="edge">
<title>Node30&#45;&gt;Node23</title>
<g id="a_edge43_Node000030_Node000023"><a xlink:title=" ">
<path fill="none" stroke="#63b8ff" d="M929.1,-346.49C860.11,-335.9 742.41,-317.83 669.02,-306.56"/>
<polygon fill="#63b8ff" stroke="#63b8ff" points="669.38,-303.07 658.97,-305.02 668.32,-309.99 669.38,-303.07"/>
</a>
</g>
</g>
<!-- Node30&#45;&gt;Node24 -->
<g id="edge44_Node000030_Node000024" class="edge">
<title>Node30&#45;&gt;Node24</title>
<g id="a_edge44_Node000030_Node000024"><a xlink:title=" ">
<path fill="none" stroke="#63b8ff" d="M989.37,-346.37C994.15,-337.9 1001.57,-324.74 1007.59,-314.07"/>
<polygon fill="#63b8ff" stroke="#63b8ff" points="1010.75,-315.6 1012.61,-305.17 1004.65,-312.16 1010.75,-315.6"/>
</a>
</g>
</g>
<!-- Node30&#45;&gt;Node25 -->
<g id="edge45_Node000030_Node000025" class="edge">
<title>Node30&#45;&gt;Node25</title>
<g id="a_edge45_Node000030_Node000025"><a xlink:title=" ">
<path fill="none" stroke="#63b8ff" d="M1010.58,-346.47C1072.65,-326.17 1229.08,-275 1298,-252.46"/>
<polygon fill="#63b8ff" stroke="#63b8ff" points="1299.48,-255.65 1307.9,-249.22 1297.31,-249 1299.48,-255.65"/>
</a>
</g>
</g>
</g>
</svg>
